<svg width="35" height="40" viewBox="0 0 35 40" fill="none" xmlns="http://www.w3.org/2000/svg">
<path id="Vector" d="M31.5 0H5.25C2.3555 0 0 2.24333 0 5V35C0 37.7567 2.3555 40 5.25 40H35V3.33333C35 1.495 33.4302 0 31.5 0ZM31.5 30H10.5V3.33333H17.5V18.3333L21.875 14.1667L26.25 18.3333V3.33333H31.5V30ZM5.25 3.33333H7V30H5.25C4.63575 30 4.04775 30.1017 3.5 30.2867V5C3.5 4.08167 4.28575 3.33333 5.25 3.33333ZM5.25 36.6667C4.28575 36.6667 3.5 35.9183 3.5 35C3.5 34.0817 4.28575 33.3333 5.25 33.3333H31.5V36.6667H5.25Z" fill="#D9D9D9"/>
</svg>
