<svg width="35" height="40" viewBox="0 0 35 40" fill="none" xmlns="http://www.w3.org/2000/svg">
<path id="Vector" d="M30.7317 0H5.12195C2.29805 0 0 2.24333 0 5V35C0 37.7567 2.29805 40 5.12195 40H34.1463V3.33333C34.1463 1.495 32.6149 0 30.7317 0ZM30.7317 30H10.2439V3.33333H17.0732V18.3333L21.3415 14.1667L25.6098 18.3333V3.33333H30.7317V30ZM5.12195 3.33333H6.82927V30H5.12195C4.52268 30 3.94902 30.1017 3.41463 30.2867V5C3.41463 4.08167 4.18122 3.33333 5.12195 3.33333ZM5.12195 36.6667C4.18122 36.6667 3.41463 35.9183 3.41463 35C3.41463 34.0817 4.18122 33.3333 5.12195 33.3333H30.7317V36.6667H5.12195Z" fill="black"/>
</svg>
