<svg width="98" height="36" viewBox="0 0 98 36" fill="none" xmlns="http://www.w3.org/2000/svg">
<g clip-path="url(#clip0_1107_324)">
<path d="M98 0H0V36H98V0Z" fill="#D60C18"/>
<path d="M10.6162 10.2306C11.152 10.5713 11.8001 10.6888 12.4216 10.5578C13.0147 10.4138 13.6045 10.2502 14.191 10.0833C15.2198 9.78873 16.2421 9.47128 17.2775 9.1931C17.792 9.05564 18.3097 8.92473 18.8307 8.81019C19.0666 8.77323 19.299 8.71629 19.5253 8.64C19.7579 8.54837 19.9644 8.4011 20.1806 8.31273C20.5083 8.15891 20.8359 8.01819 21.1865 7.88073C22.1695 7.48146 24.2731 6.98728 23.7521 5.47528C23.5883 4.98764 23.0968 4.77164 22.6676 4.54582C22.2144 4.34847 21.7141 4.28487 21.2259 4.36255C20.7517 4.3682 20.292 4.5266 19.9152 4.81419C19.4041 5.45237 18.5554 5.64546 17.9165 6.156C17.6904 6.32619 17.3824 6.32946 17.1563 6.50291C17.0449 6.588 17.0089 6.66 16.8745 6.69928C16.7573 6.71613 16.6391 6.72488 16.5206 6.72546C16.2978 6.75491 16.0783 6.78437 15.8653 6.82037C15.2304 6.90411 14.6098 7.07366 14.0206 7.32437C13.7258 7.46831 13.4431 7.63576 13.1752 7.8251C12.9164 7.99855 12.6706 7.92982 12.3757 7.94946C12.0808 7.9691 11.8417 7.99855 11.573 8.03782L10.7735 8.172L10.3705 8.23091C10.2342 8.22131 10.0974 8.23798 9.96744 8.28C9.87046 8.36483 9.80552 8.48029 9.78346 8.60715C9.7614 8.734 9.78354 8.86458 9.8462 8.9771C10.0788 9.46146 10.1116 9.936 10.6162 10.2306Z" fill="white"/>
<path d="M50.6825 9.53018C51.1642 9.40254 51.5803 9.29454 51.8359 8.82981C51.9145 8.68581 51.9997 8.54181 52.0718 8.39454C52.2328 8.10734 52.31 7.7808 52.2946 7.452C52.17 7.19485 51.9715 6.98064 51.7245 6.83672C51.2584 6.60803 50.7582 6.4566 50.2434 6.38836C49.6471 6.26072 49.0245 6.11345 48.4217 6.03491C48.0647 5.99322 47.7031 6.02101 47.3568 6.11672C46.6712 6.2994 46.0025 6.54028 45.358 6.83672C44.6175 7.164 43.7197 6.96763 43.0284 7.41927C42.7294 7.55975 42.4075 7.64512 42.0781 7.67127C41.6686 7.76618 41.2819 7.92981 40.8822 8.06072C40.1974 8.28 39.5126 8.49272 38.8179 8.68254C38.3232 8.81672 37.8087 8.68254 37.3172 8.91818C37.1265 9.05646 36.9249 9.17905 36.7143 9.28472C36.4948 9.36 36.272 9.46145 36.059 9.53672C35.2726 9.81163 34.4207 10.0015 33.6147 10.2142C32.1861 10.7051 30.5904 10.4924 29.1225 10.7673C28.6965 10.8753 28.2509 10.9375 27.933 11.2778C27.8282 11.7818 28.1952 11.9749 28.5228 12.2138C28.8505 12.4527 29.1356 12.9207 29.5288 13.1695C29.8837 13.3656 30.2555 13.5299 30.6395 13.6604C31.498 14.0073 32.304 14.4622 33.228 14.6422C33.7359 14.7404 34.7779 14.8615 35.2399 14.5538C35.7838 14.1905 36.3965 13.9385 36.924 13.5458C37.1698 13.3625 37.3664 13.1236 37.6187 12.9502C37.9031 12.794 38.1787 12.6225 38.4444 12.4364C38.7703 12.1045 39.1343 11.8122 39.5289 11.5658C40.0368 11.4807 40.5119 10.9113 41.0165 11.268C41.259 11.3793 41.1443 11.5953 41.1574 11.8145C41.1705 12.0338 41.3311 12.2989 41.3311 12.5607C41.3236 12.8137 41.2828 13.0646 41.2098 13.3069V13.7127C41.4621 18.5793 41.0395 23.2036 40.6135 28.1127C40.4169 28.7182 40.6561 29.2713 40.7937 29.8571C40.8127 30.0898 40.8634 30.3188 40.9444 30.5378C41.1831 30.9591 41.541 31.3007 41.9733 31.5196C42.8416 31.8076 44.0572 31.9516 44.742 31.1924C45.4399 30.8651 45.6562 30.2105 45.7578 29.4938C45.8566 28.8585 45.9211 28.2183 45.9511 27.576C45.9504 27.0688 45.8731 26.5645 45.7217 26.0804C45.6628 25.8284 45.6464 25.5698 45.5874 25.3178C45.4891 24.9185 45.3613 24.5193 45.2925 24.1134C44.9951 22.1727 44.8461 20.2121 44.8469 18.2487C44.8895 16.9396 44.5487 15.3033 44.3783 14.1709C43.995 13.32 44.529 12.4691 44.1228 11.6182C43.9425 11.196 44.0212 10.6789 44.0179 10.2338C44.0179 9.85418 44.28 9.71345 44.588 9.54981C44.7035 9.48781 44.8132 9.41552 44.9157 9.33381C45.0283 9.25898 45.1538 9.20571 45.2859 9.17672C45.4105 9.13418 45.535 9.09818 45.6628 9.06545C46.5802 8.82981 47.6123 8.67927 48.4577 9.21927C48.6756 9.38857 48.9268 9.51011 49.1949 9.576C49.687 9.68363 50.198 9.66789 50.6825 9.53018Z" fill="white"/>
<path d="M34.0931 27.9164C33.9055 27.7489 33.6974 27.606 33.4738 27.4909C33.2183 27.3927 32.9365 27.3764 32.6776 27.2847C32.0199 27.0291 31.3933 26.6997 30.8099 26.3029C30.6857 26.2049 30.5542 26.1163 30.4168 26.0378C30.2809 26.0018 30.1412 25.982 30.0006 25.9789C29.7352 25.9233 29.5779 25.6778 29.3453 25.5567C29.2372 25.4978 29.0963 25.4782 29.0176 25.38C28.7763 25.1743 28.5072 25.0035 28.2182 24.8727C27.956 24.696 27.6677 24.6404 27.399 24.4865C27.169 24.3425 26.95 24.1817 26.7437 24.0055C26.3711 23.6291 25.9541 23.2994 25.5018 23.0236C23.9094 22.2873 22.8249 20.4415 21.642 19.2273C20.8753 18.5269 19.8989 17.5516 19.9185 16.3375C20.2462 15.5749 21.1734 15.3196 21.855 14.9564C22.7069 14.3215 23.9192 13.9745 24.4075 12.96C24.493 12.7749 24.532 12.5717 24.5212 12.3681C24.5103 12.1645 24.4499 11.9666 24.3452 11.7916C24.0667 11.2156 23.3622 11.2385 22.8118 11.0258C22.4698 10.996 22.1253 11.0361 21.7993 11.1436C21.2589 11.3481 20.7669 11.6624 20.3543 12.0665C20.1577 12.2433 19.984 12.4658 19.7776 12.6327C19.5552 12.7706 19.3117 12.8712 19.0568 12.9305C18.932 12.9973 18.7888 13.022 18.6489 13.0007C18.5089 12.9795 18.3795 12.9135 18.2802 12.8127C18.0749 12.2452 17.7807 11.7139 17.4086 11.2385C17.2858 11.1739 17.1507 11.136 17.0122 11.1273C16.8811 11.0945 16.7992 10.9898 16.6845 10.9571C16.4912 10.9015 16.2389 11.0389 16.0292 11.0389C15.772 11.0072 15.5113 11.0216 15.2592 11.0815C14.9657 11.1989 14.7145 11.4019 14.5383 11.664C14.3417 11.9553 14.4269 12.1745 14.3876 12.4985C14.3647 12.7178 14.3122 12.9305 14.2696 13.1531C14.2175 13.3676 14.1878 13.587 14.1812 13.8076C14.2112 14.0082 14.2561 14.2062 14.3155 14.4C14.3321 14.6886 14.2749 14.9767 14.1494 15.2372C14.0239 15.4977 13.8341 15.722 13.5979 15.8891C13.3852 16.07 13.1546 16.229 12.9098 16.3636C12.6248 16.5207 12.3004 16.56 12.0055 16.6909C11.7345 16.8216 11.4738 16.9726 11.2257 17.1425C10.9734 17.3095 10.7244 17.4698 10.4589 17.6236C10.1935 17.7775 9.87571 17.8135 9.61358 17.9509C9.14503 18.1833 8.59128 18.2258 8.12273 18.4189C7.61158 18.5236 6.72034 18.3338 6.48443 18.9687C6.57244 19.5347 6.84141 20.0571 7.25115 20.4578C7.52639 21.0731 8.33571 21.2858 8.88945 21.6916C9.71844 21.9665 10.5507 21.564 11.3371 21.6262C11.6353 22.7324 11.5501 23.8778 10.7833 24.6862C10.6416 25.1212 10.4278 25.5294 10.1509 25.8938C10.0138 26.0695 9.86495 26.2357 9.70533 26.3913C9.56116 26.5287 9.50546 26.7185 9.36129 26.8625C9.20261 27.059 9.02113 27.2358 8.82065 27.3895C8.52575 27.5596 8.4209 27.3436 8.18826 27.1996C8.04269 27.1143 7.88457 27.0525 7.71971 27.0164C7.39441 26.9475 7.0573 26.9576 6.73673 27.0458C6.50987 27.154 6.32463 27.3333 6.20919 27.5564C6.03683 27.7211 5.92197 27.9368 5.88153 28.1716C5.90861 28.318 5.94584 28.4624 5.99294 28.6036C6.05519 28.908 5.94051 29.0945 6.15021 29.376C6.31404 29.592 6.26817 29.6804 6.30421 29.9389C6.33036 30.0581 6.38299 30.17 6.45821 30.2662C6.59937 30.4427 6.76613 30.5971 6.95298 30.7244C7.11241 30.8432 7.28779 30.9391 7.47396 31.0091C7.65514 31.0397 7.83452 31.0802 8.01132 31.1302C8.33145 31.3149 8.69685 31.4067 9.06639 31.3953C9.68895 31.3658 10.2198 31.104 10.803 30.9175C11.0829 30.8513 11.3545 30.7536 11.6123 30.6262C11.848 30.4681 12.0675 30.2872 12.2676 30.0862C12.5396 29.8473 12.8017 29.5985 13.0507 29.3367C13.5004 28.8759 13.9073 28.3753 14.2664 27.8411C14.4475 27.5774 14.6127 27.303 14.7611 27.0196C14.8955 26.7676 14.9577 26.496 15.0888 26.2407C15.151 26.1 15.2461 25.9756 15.305 25.8349C15.4257 25.5771 15.5254 25.3101 15.6032 25.0364C15.6591 24.7909 15.7507 24.5549 15.8752 24.336C16.051 23.9201 16.1551 23.4775 16.1832 23.0269C16.2192 22.8273 16.2946 22.6342 16.3306 22.4345C16.3667 22.2349 16.3601 21.9469 16.4125 21.708C16.493 21.358 16.6362 21.0253 16.8352 20.7262C17.3218 20.8186 17.7532 21.0969 18.0377 21.5018C18.2041 21.6909 18.3825 21.8691 18.5718 22.0353C18.7946 22.2251 18.9421 22.4836 19.1649 22.6669C19.8202 23.184 20.2691 23.9531 20.7377 24.6305C21.3176 25.4553 21.8681 26.2996 22.4448 27.1276C23.0215 27.9556 23.5195 28.7313 24.2895 29.3171C24.8599 29.8106 25.4619 30.2665 26.0916 30.6818C26.5602 30.9502 27.1664 30.8716 27.6841 30.8815C28.6304 30.8782 29.5757 30.8192 30.5151 30.7047C30.9803 30.6556 31.4489 30.6065 31.9142 30.5738C32.1333 30.5803 32.3527 30.5672 32.5695 30.5345C32.9627 30.492 33.3657 30.312 33.7556 30.2498C34.1455 30.1876 34.6206 30.1091 34.8828 29.7884C34.9895 29.6594 35.0649 29.5074 35.103 29.3445C35.1411 29.1815 35.1408 29.012 35.1023 28.8491C34.9417 28.3975 34.4535 28.1716 34.0931 27.9164Z" fill="white"/>
<path d="M60.4599 24.5193C60.6428 24.522 60.8254 24.5033 61.0039 24.4636C61.1751 24.4256 61.3412 24.3673 61.4986 24.2902L61.6166 23.8909H61.5576C61.4208 24.0079 61.2644 24.0998 61.0956 24.1626C60.9354 24.2277 60.764 24.2611 60.591 24.2607C60.4234 24.2719 60.2555 24.2426 60.1015 24.1754C59.9476 24.1082 59.812 24.005 59.7063 23.8746C59.483 23.5469 59.3757 23.1541 59.4016 22.7586C59.3778 22.3831 59.4843 22.011 59.7031 21.7047C59.8009 21.5794 59.9278 21.4797 60.0727 21.4141C60.2177 21.3486 60.3764 21.3191 60.5353 21.3284C60.7429 21.3211 60.9484 21.3721 61.1284 21.4756C61.2862 21.5648 61.4036 21.7113 61.456 21.8847H61.5281C61.5389 21.7747 61.5564 21.6654 61.5805 21.5575C61.6007 21.4602 61.6258 21.3641 61.6559 21.2695C61.4771 21.1912 61.2919 21.1288 61.1022 21.0829C60.9213 21.0438 60.7368 21.024 60.5517 21.024C60.0411 20.9971 59.5398 21.1683 59.1526 21.5018C58.9778 21.6633 58.8404 21.8608 58.7499 22.0806C58.6594 22.3005 58.6179 22.5374 58.6283 22.7749C58.6142 23.0148 58.6499 23.2549 58.7334 23.4802C58.8169 23.7056 58.9462 23.9111 59.1133 24.084C59.4874 24.4003 59.9712 24.5566 60.4599 24.5193Z" fill="white"/>
<path d="M64.3525 23.2691C64.3624 23.1007 64.3385 22.932 64.2823 22.773C64.226 22.6139 64.1385 22.4677 64.0249 22.3429C63.773 22.1369 63.4534 22.0319 63.1283 22.0483C62.8032 22.0647 62.4959 22.2014 62.2661 22.4317C62.0363 22.662 61.9006 22.9695 61.8853 23.2943C61.87 23.6191 61.9763 23.9379 62.1834 24.1887C62.306 24.3027 62.4506 24.3905 62.6084 24.4468C62.7661 24.503 62.9337 24.5266 63.1009 24.516C63.25 24.5309 63.4006 24.5163 63.544 24.4731C63.6875 24.4298 63.821 24.3587 63.937 24.2639C64.0529 24.1691 64.149 24.0523 64.2198 23.9204C64.2905 23.7884 64.3345 23.6439 64.3493 23.4949C64.3558 23.4198 64.3558 23.3442 64.3493 23.2691H64.3525ZM63.5039 24.0644C63.4674 24.138 63.4101 24.1992 63.339 24.2405C63.2679 24.2819 63.1862 24.3014 63.1041 24.2967C63.0228 24.3018 62.9419 24.2824 62.8718 24.241C62.8016 24.1995 62.7456 24.138 62.711 24.0644C62.6171 23.8103 62.5791 23.5391 62.5996 23.2691C62.5826 22.9965 62.6228 22.7234 62.7175 22.4673C62.775 22.3623 62.8718 22.2845 62.9866 22.2507C63.1015 22.217 63.2251 22.2301 63.3302 22.2873C63.4056 22.3297 63.4679 22.392 63.5104 22.4673C63.6047 22.7224 63.6449 22.9943 63.6284 23.2658C63.6446 23.5378 63.6021 23.8101 63.5039 24.0644Z" fill="white"/>
<path d="M68.4778 24.4538C68.4778 24.2902 68.4712 24.1331 68.4581 23.9825V23.2364C68.4647 23.0109 68.4516 22.7853 68.4188 22.5622C68.396 22.4506 68.3465 22.3462 68.2746 22.2578C68.2082 22.1799 68.1239 22.1192 68.0289 22.0811C67.9031 22.0344 67.7688 22.0149 67.635 22.0239C67.5011 22.0329 67.3706 22.0703 67.2523 22.1334C67.1162 22.2204 67.0037 22.3396 66.9246 22.4804C66.8755 22.3455 66.7834 22.2305 66.6625 22.1531C66.5355 22.0722 66.3871 22.0311 66.2366 22.0353C66.097 22.0313 65.9586 22.0616 65.8335 22.1236C65.7061 22.1981 65.5948 22.2971 65.5059 22.4149V22.0876H64.8145C64.8145 22.356 64.8309 22.5884 64.8375 22.7847C64.844 22.9811 64.8375 23.1414 64.8375 23.2724V23.7633C64.8375 23.9629 64.8375 24.1985 64.8145 24.4604H65.5485V24.4145C65.5485 24.2247 65.5288 24.0873 65.5288 24.012V23.2167C65.5159 23.0093 65.5484 22.8016 65.6238 22.608C65.658 22.5574 65.7042 22.5159 65.7581 22.4872C65.8121 22.4586 65.8723 22.4436 65.9335 22.4436C65.9946 22.4436 66.0548 22.4586 66.1088 22.4872C66.1628 22.5159 66.2089 22.5574 66.2431 22.608C66.322 22.8731 66.3509 23.1505 66.3283 23.4262V23.9204C66.3283 24.0873 66.3119 24.2738 66.2988 24.4571H67.0393V23.2167C67.0237 23.0106 67.0551 22.8036 67.1311 22.6113C67.1679 22.5586 67.217 22.5156 67.274 22.4859C67.331 22.4562 67.3944 22.4407 67.4587 22.4407C67.5231 22.4407 67.5864 22.4562 67.6435 22.4859C67.7005 22.5156 67.7496 22.5586 67.7864 22.6113C67.863 22.8454 67.8931 23.0922 67.8749 23.3378V23.8549C67.8749 24.0447 67.8585 24.2378 67.8421 24.4538H68.4974H68.4778Z" fill="white"/>
<path d="M70.5682 24.4538H71.3087V23.2167C71.2931 23.0106 71.3245 22.8036 71.4005 22.6113C71.4373 22.5586 71.4864 22.5156 71.5434 22.4859C71.6005 22.4562 71.6638 22.4407 71.7282 22.4407C71.7925 22.4407 71.8559 22.4562 71.9129 22.4859C71.9699 22.5156 72.019 22.5586 72.0558 22.6113C72.1325 22.8454 72.1625 23.0922 72.1443 23.3378V23.8549C72.1443 24.0447 72.1443 24.2378 72.1115 24.4538H72.852C72.852 24.2902 72.8455 24.1331 72.8324 23.9825V23.2364C72.8158 23.0154 72.7796 22.7964 72.7242 22.5818C72.7014 22.4702 72.652 22.3658 72.5801 22.2774C72.5137 22.1995 72.4294 22.1389 72.3343 22.1007C72.2086 22.054 72.0743 22.0345 71.9404 22.0435C71.8065 22.0526 71.6761 22.0899 71.5578 22.1531C71.4217 22.2401 71.3091 22.3592 71.2301 22.5C71.181 22.3652 71.0889 22.2502 70.968 22.1727C70.841 22.0918 70.6926 22.0508 70.542 22.0549C70.4025 22.0509 70.2641 22.0813 70.139 22.1433C70.0108 22.2168 69.8993 22.3159 69.8113 22.4345V22.1073H69.1167C69.1167 22.3756 69.1364 22.608 69.1396 22.8044C69.1429 23.0007 69.1396 23.1611 69.1396 23.292V23.7829C69.1396 23.9825 69.1396 24.2182 69.1167 24.48H69.8376V24.4342C69.8376 24.2444 69.8212 24.1069 69.8212 24.0316V23.2167C69.8055 23.0095 69.8369 22.8014 69.9129 22.608C69.9409 22.5671 69.9766 22.5322 70.0181 22.5051C70.0595 22.4781 70.106 22.4594 70.1547 22.4503C70.2034 22.4412 70.2534 22.4418 70.3018 22.452C70.3503 22.4622 70.3963 22.4818 70.4372 22.5098C70.4762 22.5357 70.5096 22.569 70.5355 22.608C70.6111 22.8737 70.64 23.1506 70.6207 23.4262V23.9204C70.6207 24.0873 70.5781 24.2705 70.5682 24.4538Z" fill="white"/>
<path d="M75.7453 23.2691C75.7567 23.1006 75.7335 22.9315 75.6772 22.7722C75.6208 22.613 75.5325 22.4669 75.4176 22.3429C75.1653 22.1435 74.8484 22.0437 74.5272 22.0626C74.206 22.0816 73.903 22.2178 73.6759 22.4455C73.4488 22.6731 73.3135 22.9762 73.2957 23.2971C73.2779 23.618 73.3789 23.9342 73.5795 24.1855C73.8385 24.3965 74.1626 24.5118 74.4969 24.5118C74.8312 24.5118 75.1553 24.3965 75.4144 24.1855C75.5283 24.0627 75.6163 23.9183 75.6731 23.7609C75.73 23.6035 75.7545 23.4362 75.7453 23.2691ZM74.8934 24.0644C74.8342 24.1693 74.7357 24.2464 74.6196 24.2789C74.5036 24.3114 74.3793 24.2967 74.2741 24.2378C74.2017 24.1966 74.1417 24.1367 74.1005 24.0644C74.0059 23.8104 73.9657 23.5395 73.9825 23.2691C73.9656 22.9965 74.0057 22.7234 74.1005 22.4673C74.1289 22.414 74.1677 22.367 74.2146 22.329C74.2616 22.291 74.3157 22.2628 74.3737 22.246C74.4317 22.2292 74.4925 22.2242 74.5525 22.2313C74.6125 22.2384 74.6705 22.2574 74.723 22.2873C74.7984 22.3298 74.8607 22.392 74.9032 22.4673C75.0004 22.7217 75.0418 22.994 75.0245 23.2658C75.0418 23.5376 75.0004 23.8099 74.9032 24.0644H74.8934Z" fill="white"/>
<path d="M77.6097 22.6015C77.6881 22.825 77.7182 23.0626 77.6982 23.2985V23.9531C77.7041 24.1215 77.6954 24.2902 77.672 24.4571H78.4092C78.4092 24.3295 78.3895 24.1953 78.383 24.0578C78.3764 23.9204 78.383 23.7731 78.383 23.6193V22.9942C78.389 22.8319 78.377 22.6694 78.3469 22.5098C78.3279 22.4217 78.2874 22.3396 78.229 22.2709C78.1614 22.1898 78.0747 22.1268 77.9767 22.0876C77.8539 22.0429 77.7235 22.023 77.593 22.0292C77.4624 22.0354 77.3345 22.0675 77.2165 22.1236C77.0868 22.1978 76.975 22.2995 76.8888 22.4215V22.0942H76.2139C76.227 22.2905 76.2368 22.4869 76.2434 22.6833V23.8451C76.2434 24.0382 76.2434 24.2476 76.2139 24.4669H76.9314C76.9314 24.2084 76.9314 23.9793 76.9118 23.7829C76.9019 23.614 76.9019 23.4446 76.9118 23.2756C76.8982 23.0605 76.9317 22.8449 77.0101 22.644C77.0388 22.5915 77.0802 22.5471 77.1305 22.5148C77.1809 22.4825 77.2386 22.4633 77.2983 22.4591C77.358 22.4549 77.4178 22.4657 77.4722 22.4906C77.5266 22.5154 77.5739 22.5536 77.6097 22.6015Z" fill="white"/>
<path d="M83.3175 21.0829H83.0882C82.9866 21.5018 82.8752 21.9142 82.7605 22.32C82.6458 22.7258 82.5082 23.1284 82.3706 23.5276C82.2199 23.1022 82.079 22.6866 81.9446 22.2807C81.8103 21.8749 81.6891 21.4756 81.5711 21.0829H81.0698C80.9387 21.4691 80.8076 21.8684 80.6668 22.2742C80.5259 22.68 80.3817 23.1087 80.2244 23.5604C80.0966 23.1513 79.9787 22.7389 79.8673 22.3266C79.7559 21.9142 79.651 21.4986 79.5396 21.0829H78.6975C78.9007 21.6676 79.0885 22.2436 79.2611 22.8109C79.4347 23.3738 79.5887 23.9302 79.7329 24.4735H80.2375C80.3751 24.0513 80.5128 23.6422 80.6536 23.2396C80.7945 22.8371 80.942 22.4509 81.0894 22.0713C81.2434 22.4902 81.3876 22.9026 81.5219 23.3018C81.6563 23.7011 81.7775 24.0906 81.8922 24.4735H82.4066C82.6065 23.8418 82.8031 23.2462 82.9899 22.68C83.1766 22.1138 83.3568 21.5836 83.5338 21.0829H83.3175Z" fill="white"/>
<path d="M84.8445 22.0156C84.6854 22.0074 84.5264 22.0322 84.3775 22.0886C84.2286 22.1449 84.0931 22.2315 83.9794 22.3429C83.8691 22.46 83.7833 22.5978 83.727 22.7484C83.6708 22.8991 83.6452 23.0594 83.6518 23.22C83.6313 23.5662 83.7491 23.9063 83.9794 24.1658C84.0995 24.2805 84.2423 24.3689 84.3986 24.4252C84.5549 24.4816 84.7213 24.5047 84.887 24.4931C85.0408 24.4933 85.1939 24.4735 85.3425 24.4342C85.4731 24.3989 85.5971 24.3425 85.7095 24.2673L85.8176 23.9858L85.7717 23.9498C85.6792 24.0249 85.5752 24.0846 85.4637 24.1265C85.3589 24.1656 85.2479 24.1856 85.1361 24.1854C85.031 24.1889 84.9266 24.1679 84.8311 24.1242C84.7356 24.0805 84.6515 24.0152 84.5856 23.9334C84.4386 23.7379 84.3655 23.4968 84.3792 23.2527H85.9028V23.0956C85.914 22.9486 85.8957 22.8007 85.849 22.6608C85.8023 22.5209 85.7281 22.3917 85.6308 22.2807C85.5248 22.1852 85.4004 22.1125 85.2651 22.0669C85.1299 22.0213 84.9867 22.0038 84.8445 22.0156ZM85.2082 22.9614V23.0302H84.3661V22.9844C84.3536 22.7902 84.3956 22.5964 84.4873 22.4247C84.5189 22.3653 84.5661 22.3157 84.6238 22.2811C84.6815 22.2465 84.7476 22.2282 84.815 22.2284C84.8748 22.2279 84.9336 22.2439 84.985 22.2744C85.0364 22.305 85.0785 22.3491 85.1066 22.4018C85.1825 22.5597 85.2174 22.7342 85.2082 22.9091C85.2098 22.9265 85.2098 22.944 85.2082 22.9614Z" fill="white"/>
<path d="M88.2455 24.1789C88.1854 24.0584 88.1615 23.9232 88.1767 23.7895V23.6945L88.1931 22.8305V22.8044C88.1994 22.6946 88.1812 22.5848 88.1398 22.483C88.0984 22.3811 88.0349 22.2897 87.9539 22.2153C87.7572 22.0654 87.5126 21.9921 87.2658 22.0091C87.1112 22.0093 86.9583 22.0416 86.8169 22.104C86.6576 22.1755 86.5106 22.2716 86.3811 22.3887C86.3975 22.4313 86.4139 22.4738 86.427 22.5196C86.4422 22.5835 86.463 22.646 86.4893 22.7062C86.5543 22.595 86.6399 22.4973 86.7416 22.4182C86.8323 22.3562 86.9397 22.3231 87.0496 22.3233C87.1104 22.3227 87.1707 22.3342 87.227 22.3573C87.2833 22.3803 87.3344 22.4144 87.3772 22.4575C87.421 22.5056 87.4548 22.5619 87.4767 22.6231C87.4986 22.6843 87.5083 22.7492 87.505 22.8142V22.9091C87.3378 23.0053 87.1581 23.0779 86.9709 23.1251L86.7186 23.2036C86.5677 23.2465 86.4316 23.3303 86.3254 23.4458C86.2369 23.5524 86.1893 23.687 86.1911 23.8255C86.1862 23.9172 86.1997 24.009 86.2306 24.0955C86.2615 24.182 86.3094 24.2615 86.3713 24.3295C86.4359 24.3928 86.5129 24.442 86.5975 24.4741C86.6821 24.5062 86.7724 24.5205 86.8628 24.516C86.9992 24.5185 87.1338 24.4846 87.2527 24.4178C87.37 24.3535 87.4674 24.2585 87.5345 24.1429C87.5531 24.2466 87.6076 24.3404 87.6885 24.408C87.7717 24.4722 87.8751 24.5047 87.9801 24.4996C88.0683 24.4997 88.1563 24.4898 88.2423 24.4702C88.3323 24.4524 88.4202 24.425 88.5044 24.3884V24.2673H88.4847C88.4409 24.2705 88.3968 24.2642 88.3555 24.249C88.3143 24.2337 88.2768 24.2098 88.2455 24.1789ZM87.528 23.724C87.5354 23.845 87.5044 23.9652 87.4395 24.0676C87.41 24.1061 87.3717 24.1369 87.3278 24.1574C87.2839 24.1779 87.2356 24.1875 87.1872 24.1855C87.1428 24.1883 87.0984 24.1803 87.0578 24.162C87.0172 24.1438 86.9818 24.1159 86.9545 24.0807C86.8985 23.9811 86.8724 23.8675 86.8792 23.7535C86.8746 23.68 86.8857 23.6065 86.9117 23.5377C86.9377 23.4689 86.978 23.4063 87.0299 23.3542C87.1739 23.2401 87.3459 23.1667 87.528 23.1415V23.724Z" fill="white"/>
<path d="M89.5988 20.7295C89.5306 20.7339 89.4627 20.7427 89.3956 20.7556H89.068C88.9991 20.7556 88.9336 20.7556 88.8648 20.7295C88.8648 21.0011 88.8845 21.2858 88.891 21.5935C88.8976 21.9011 88.891 22.248 88.891 22.6015V23.5833C88.891 23.8909 88.8746 24.1789 88.8648 24.4571C88.9244 24.4462 88.9846 24.4386 89.045 24.4342C89.1725 24.4211 89.3009 24.4211 89.4284 24.4342C89.4877 24.4386 89.5468 24.4463 89.6053 24.4571C89.6053 24.1887 89.5824 23.9007 89.5758 23.5964C89.5693 23.292 89.5758 22.9418 89.5758 22.5851V21.6C89.5693 21.2727 89.5857 21.0109 89.5988 20.7295Z" fill="white"/>
<path d="M91.1977 24.2476C91.1516 24.2518 91.1053 24.2406 91.0661 24.2158C91.027 24.1909 90.9972 24.1538 90.9815 24.1102C90.9319 23.878 90.9132 23.6403 90.9258 23.4033V23.2036C90.9258 23.0596 90.9258 22.8142 90.9422 22.4705V22.356H91.4337C91.4304 22.319 91.4304 22.2817 91.4337 22.2447V22.1138H90.952V21.6687C90.9496 21.5102 90.9573 21.3517 90.9749 21.1942L90.9192 21.1549C90.8144 21.2073 90.7062 21.2564 90.5916 21.3055L90.2639 21.4429C90.26 21.5338 90.2655 21.6248 90.2803 21.7145C90.2885 21.783 90.2885 21.8522 90.2803 21.9207V22.1105H89.9526V22.1596C89.9561 22.1868 89.9561 22.2143 89.9526 22.2415V22.3691H90.2803V23.868C90.2732 23.9569 90.2844 24.0463 90.3131 24.1307C90.3418 24.2151 90.3875 24.2928 90.4474 24.3589C90.5126 24.4185 90.5891 24.4642 90.6725 24.4935C90.7558 24.5227 90.8442 24.5348 90.9323 24.5291C91.0229 24.5297 91.1132 24.5187 91.201 24.4964C91.3048 24.4703 91.4058 24.4341 91.5025 24.3884V24.2182C91.4024 24.2401 91.3001 24.25 91.1977 24.2476Z" fill="white"/>
<path d="M93.9894 24.0873V22.9942C93.9939 22.8341 93.9818 22.674 93.9534 22.5164C93.9308 22.4263 93.8882 22.3424 93.8289 22.2709C93.7613 22.1898 93.6746 22.1269 93.5766 22.0876C93.4718 22.0486 93.3608 22.0286 93.2489 22.0287C93.0964 22.0257 92.9456 22.0606 92.8099 22.1302C92.6768 22.2055 92.5643 22.3122 92.4822 22.4411V21.168C92.4865 21.0212 92.4996 20.8747 92.5215 20.7295L92.3348 20.7589H91.9874L91.7941 20.7295C91.7941 20.9389 91.8203 21.1876 91.8269 21.4756C91.8334 21.7636 91.8269 22.1695 91.8269 22.6866V23.8058C91.8269 24.0644 91.8105 24.2804 91.7941 24.4604H92.5183C92.5227 24.2419 92.5151 24.0234 92.4953 23.8058C92.4838 23.6271 92.4838 23.4478 92.4953 23.2691C92.4817 23.0539 92.5153 22.8384 92.5936 22.6375C92.6257 22.5831 92.6708 22.5376 92.7249 22.505C92.779 22.4725 92.8404 22.4539 92.9035 22.451C92.9666 22.448 93.0294 22.4609 93.0863 22.4883C93.1432 22.5157 93.1923 22.5569 93.2293 22.608C93.305 22.8321 93.334 23.0694 93.3145 23.3051V23.9596C93.3204 24.1281 93.3117 24.2967 93.2883 24.4636H94.0222C94.0044 24.3389 93.9934 24.2132 93.9894 24.0873Z" fill="white"/>
<path d="M62.652 28.9767L62.3669 26.6007H61.9115C61.728 27.0098 61.5445 27.4058 61.3544 27.792C61.1644 28.1782 60.9744 28.5545 60.7778 28.9244C60.5746 28.5415 60.3747 28.1585 60.1847 27.7756C59.9947 27.3927 59.8046 26.9967 59.6277 26.6007H59.1952L58.8675 28.9473C58.8548 29.078 58.8351 29.208 58.8085 29.3367C58.779 29.52 58.743 29.7393 58.7037 29.9913L58.8085 29.9716H58.9953L59.1034 29.9913C59.1034 29.6149 59.146 29.2353 59.1952 28.8622V28.8229L59.3164 27.792C59.4933 28.1193 59.6735 28.4695 59.8603 28.836C60.0471 29.2025 60.2306 29.5887 60.4239 29.9913H60.6336C60.8269 29.5822 61.017 29.1862 61.2037 28.8098C61.3905 28.4335 61.574 28.0669 61.7607 27.7102L61.9213 29.2942C61.9213 29.3793 61.9442 29.592 61.9573 29.9487V29.9978L62.1703 29.9782H62.5635L62.7896 29.9945C62.7634 29.8767 62.7372 29.7458 62.7142 29.5953C62.6913 29.4447 62.6815 29.2385 62.652 28.9767Z" fill="white"/>
<path d="M65.2208 29.7196C65.1623 29.5987 65.1385 29.4639 65.152 29.3302V29.2353L65.1684 28.3713V28.3451C65.1747 28.2353 65.1565 28.1256 65.1151 28.0237C65.0737 27.9218 65.0102 27.8304 64.9292 27.756C64.7325 27.6061 64.488 27.5328 64.2411 27.5498C64.0865 27.55 63.9337 27.5823 63.7922 27.6447C63.633 27.7163 63.4859 27.8123 63.3565 27.9295C63.3728 27.9687 63.3892 28.0113 63.4056 28.0604C63.422 28.1095 63.4417 28.1684 63.4646 28.2469C63.527 28.1329 63.6144 28.0345 63.7202 27.9589C63.8089 27.8954 63.9157 27.8621 64.0249 27.864C64.0855 27.8631 64.1456 27.8743 64.2018 27.8967C64.2581 27.9192 64.3093 27.9526 64.3525 27.9949C64.4408 28.0935 64.4867 28.2228 64.4803 28.3549V28.44C64.3141 28.5351 64.1355 28.6067 63.9495 28.6527L63.6972 28.7345C63.5456 28.7781 63.4086 28.8618 63.3008 28.9767C63.212 29.0854 63.1665 29.2229 63.173 29.3629C63.1675 29.4552 63.1806 29.5477 63.2116 29.6348C63.2425 29.7219 63.2907 29.802 63.3532 29.8702C63.4178 29.9335 63.4948 29.9827 63.5794 30.0148C63.664 30.0469 63.7543 30.0612 63.8447 30.0567C63.9821 30.0589 64.1176 30.025 64.2379 29.9585C64.3537 29.892 64.4497 29.796 64.5164 29.6804C64.5311 29.786 64.5859 29.8819 64.6694 29.9483C64.753 30.0147 64.8589 30.0465 64.9653 30.0371C65.0522 30.0366 65.1389 30.0279 65.2241 30.0109C65.3138 29.9916 65.4015 29.9642 65.4862 29.9291V29.8047H65.4699C65.4246 29.81 65.3788 29.8051 65.3357 29.7904C65.2926 29.7757 65.2533 29.7515 65.2208 29.7196ZM64.5033 29.2647C64.5071 29.3802 64.4763 29.4942 64.4148 29.592C64.3853 29.6305 64.347 29.6612 64.3031 29.6818C64.2592 29.7023 64.2109 29.7119 64.1625 29.7098C64.1183 29.7124 64.0741 29.7038 64.0341 29.6849C63.994 29.6661 63.9593 29.6375 63.9331 29.6018C63.8731 29.5037 63.8456 29.3892 63.8545 29.2745C63.85 29.2016 63.8611 29.1286 63.8871 29.0603C63.9131 28.992 63.9534 28.9301 64.0052 28.8785C64.1492 28.7645 64.3212 28.691 64.5033 28.6658V29.2647Z" fill="white"/>
<path d="M67.7668 29.7196C67.5795 29.6537 67.382 29.6216 67.1835 29.6247H67.0951C66.6232 29.6247 66.3906 29.5233 66.3906 29.3727C66.3879 29.3125 66.4091 29.2536 66.4496 29.2089C66.4901 29.1642 66.5466 29.1372 66.6068 29.1338H66.692C66.9832 29.1504 67.2721 29.0748 67.5177 28.9178C67.6132 28.8499 67.6901 28.7592 67.7416 28.6541C67.7931 28.5489 67.8175 28.4326 67.8126 28.3156C67.8156 28.2125 67.7931 28.1102 67.7471 28.0178C67.7016 27.9327 67.635 27.8606 67.5538 27.8084H68.0453V27.5662H67.5996C67.4214 27.5687 67.2431 27.5622 67.0656 27.5465L66.7379 27.5269C66.471 27.5113 66.2069 27.5888 65.9908 27.7462C65.9019 27.8139 65.8303 27.9017 65.7819 28.0024C65.7335 28.1031 65.7096 28.2138 65.7123 28.3255C65.707 28.4114 65.7188 28.4976 65.7469 28.579C65.775 28.6605 65.8189 28.7356 65.8761 28.8C66.0061 28.9309 66.1752 29.0159 66.3578 29.0422V29.1273C66.2182 29.1816 66.0919 29.2653 65.9876 29.3727C65.9456 29.4161 65.9127 29.4674 65.8908 29.5235C65.8688 29.5797 65.8583 29.6397 65.8598 29.7C65.8566 29.789 65.8857 29.8762 65.9417 29.9455C66.0033 30.0176 66.0857 30.069 66.1776 30.0927V30.132C66.0323 30.1756 65.9011 30.2569 65.7975 30.3676C65.7112 30.4698 65.6668 30.6007 65.673 30.7342C65.6724 30.8301 65.698 30.9244 65.7471 31.0069C65.7961 31.0894 65.8668 31.1569 65.9515 31.2022C66.1896 31.3297 66.4584 31.3886 66.7281 31.3724C67.0793 31.3892 67.4259 31.2865 67.7111 31.0811C67.8303 30.9961 67.9271 30.8835 67.9933 30.753C68.0595 30.6225 68.093 30.4779 68.0911 30.3316C68.0936 30.2099 68.0655 30.0895 68.0092 29.9815C67.9589 29.8702 67.8739 29.7783 67.7668 29.7196ZM66.4856 27.9065C66.5132 27.8586 66.5524 27.8184 66.5997 27.7898C66.6471 27.7611 66.7009 27.7449 66.7561 27.7426C66.8114 27.7403 66.8664 27.752 66.9159 27.7767C66.9654 27.8014 67.0079 27.8381 67.0393 27.8836C67.1075 28.0063 67.1382 28.1463 67.1278 28.2862C67.1396 28.4567 67.1092 28.6275 67.0393 28.7836C66.9849 28.8585 66.903 28.9088 66.8115 28.9235C66.72 28.9382 66.6264 28.9162 66.5511 28.8622C66.5217 28.8394 66.4953 28.813 66.4725 28.7836C66.4042 28.6445 66.3736 28.4899 66.384 28.3353C66.3745 28.1855 66.4099 28.0362 66.4856 27.9065ZM67.2884 31.0025C67.1306 31.1039 66.9449 31.1531 66.7576 31.1433C66.5906 31.1523 66.4265 31.0973 66.2988 30.9895C66.2418 30.938 66.1967 30.8747 66.1667 30.8041C66.1367 30.7334 66.1225 30.6571 66.1252 30.5804C66.1231 30.4884 66.1469 30.3976 66.194 30.3185C66.2385 30.2414 66.3045 30.1788 66.384 30.1385L66.9574 30.168C67.0996 30.1654 67.2388 30.209 67.3539 30.2924C67.3976 30.3343 67.4314 30.3854 67.453 30.442C67.4745 30.4986 67.4832 30.5593 67.4784 30.6196C67.4818 30.6943 67.4661 30.7686 67.4328 30.8356C67.3996 30.9025 67.3499 30.96 67.2884 31.0025Z" fill="white"/>
<path d="M70.2734 29.7196C70.2148 29.5987 70.191 29.4639 70.2046 29.3302V28.3484C70.2108 28.2386 70.1926 28.1288 70.1513 28.027C70.1099 27.9251 70.0464 27.8337 69.9654 27.7593C69.7687 27.6094 69.5241 27.5361 69.2773 27.5531C69.1227 27.5533 68.9698 27.5856 68.8284 27.648C68.6691 27.7195 68.5221 27.8156 68.3926 27.9327C68.3926 27.972 68.4254 28.0146 68.4418 28.0636C68.4581 28.1127 68.4778 28.1716 68.5007 28.2502C68.5632 28.1362 68.6505 28.0378 68.7563 27.9622C68.845 27.8987 68.9519 27.8654 69.061 27.8673C69.1216 27.8664 69.1817 27.8775 69.238 27.9C69.2942 27.9225 69.3454 27.9558 69.3887 27.9982C69.4778 28.0965 69.5249 28.2257 69.5198 28.3582V28.4105C69.5231 28.4212 69.5231 28.4326 69.5198 28.4433C69.3535 28.5384 69.1749 28.61 68.989 28.656L68.7367 28.7378C68.5851 28.7814 68.4481 28.8651 68.3402 28.98C68.2514 29.0886 68.2059 29.2261 68.2124 29.3662C68.2069 29.4585 68.22 29.5509 68.251 29.6381C68.2819 29.7252 68.3301 29.8053 68.3926 29.8735C68.4572 29.9368 68.5342 29.986 68.6188 30.0181C68.7034 30.0502 68.7937 30.0645 68.8841 30.06C69.0215 30.0622 69.1571 30.0283 69.2773 29.9618C69.3931 29.8953 69.4892 29.7993 69.5558 29.6836C69.5705 29.7893 69.6253 29.8852 69.7089 29.9516C69.7924 30.018 69.8984 30.0498 70.0047 30.0404C70.0916 30.0399 70.1783 30.0312 70.2636 30.0142C70.3532 29.9949 70.441 29.9675 70.5257 29.9324V29.808C70.4798 29.8118 70.4336 29.8059 70.3901 29.7907C70.3466 29.7755 70.3069 29.7513 70.2734 29.7196ZM69.5591 29.2647C69.5612 29.38 69.5305 29.4935 69.4706 29.592C69.4395 29.6294 69.4003 29.6593 69.3561 29.6797C69.3119 29.7001 69.2637 29.7104 69.215 29.7098C69.1708 29.7124 69.1267 29.7038 69.0866 29.685C69.0465 29.6661 69.0119 29.6375 68.9857 29.6018C68.9257 29.5037 68.8981 29.3892 68.907 29.2745C68.9038 29.2015 68.9158 29.1285 68.9423 29.0604C68.9688 28.9922 69.0093 28.9303 69.061 28.8785C69.2038 28.7625 69.3764 28.6887 69.5591 28.6658V29.2647Z" fill="white"/>
<path d="M71.8265 27.6382H70.8435C70.8468 27.6555 70.8468 27.6733 70.8435 27.6906C70.8468 27.7188 70.8468 27.7474 70.8435 27.7756C70.8469 27.8028 70.8469 27.8303 70.8435 27.8575V27.9098H70.8992C71.1897 27.8967 71.4027 27.8902 71.5381 27.8902H71.9477L71.4824 28.6004C71.0892 29.2026 70.8009 29.6411 70.6141 29.9095V29.988L71.1187 29.9684H72.3016L72.7734 29.988V29.6869C72.6358 29.6869 72.4949 29.7066 72.3507 29.7098C72.2066 29.7131 72.0591 29.7098 71.9084 29.7098H71.4726L72.3114 28.4007L72.7963 27.6578V27.6218H72.3475L71.8265 27.6382Z" fill="white"/>
<path d="M73.9497 27.6218H73.2125C73.2125 27.8346 73.2321 28.0407 73.2387 28.2338C73.2452 28.4269 73.2387 28.62 73.2387 28.8098V29.3335C73.2421 29.552 73.2333 29.7705 73.2125 29.988L73.4025 29.9684H73.7629L73.9497 29.988C73.9497 29.736 73.93 29.5167 73.9235 29.3335C73.9169 29.1502 73.9235 28.9702 73.9235 28.8066V28.2306C73.9235 28.0342 73.9366 27.8346 73.9497 27.6218Z" fill="white"/>
<path d="M73.586 26.3487C73.4863 26.3452 73.3892 26.3809 73.3156 26.4483C73.242 26.5156 73.1979 26.6092 73.1928 26.7087C73.1913 26.7639 73.2017 26.8187 73.2231 26.8695C73.2446 26.9203 73.2767 26.9659 73.3173 27.0033C73.3516 27.0388 73.3929 27.0667 73.4386 27.0853C73.4843 27.1039 73.5334 27.1127 73.5827 27.1113C73.6325 27.1168 73.6829 27.1123 73.7309 27.0981C73.7789 27.0839 73.8236 27.0603 73.8624 27.0287C73.9012 26.9971 73.9333 26.958 73.9568 26.9139C73.9803 26.8697 73.9947 26.8213 73.9993 26.7715C74.0039 26.7217 73.9985 26.6715 73.9834 26.6238C73.9683 26.5762 73.9439 26.5319 73.9115 26.4938C73.8791 26.4557 73.8395 26.4243 73.7948 26.4017C73.7502 26.379 73.7015 26.3655 73.6516 26.3618H73.5827L73.586 26.3487Z" fill="white"/>
<path d="M76.7512 29.1567V28.5349C76.7573 28.3715 76.7452 28.208 76.7152 28.0473C76.6962 27.9591 76.6557 27.8771 76.5972 27.8084C76.5274 27.7291 76.4398 27.6674 76.3416 27.6284C76.2375 27.5867 76.1262 27.5656 76.014 27.5662C75.8661 27.564 75.72 27.5977 75.588 27.6644C75.4583 27.7385 75.3465 27.8402 75.2604 27.9622V27.6349H74.5624C74.5755 27.8291 74.5854 28.0255 74.5919 28.224C74.5985 28.4225 74.5985 28.6222 74.5919 28.8229V29.3858C74.5963 29.5935 74.5864 29.8013 74.5624 30.0076L74.7525 29.988H75.0801L75.2636 30.0076C75.2636 29.7502 75.2571 29.5211 75.244 29.3204V28.8C75.2305 28.5859 75.2641 28.3714 75.3423 28.1716C75.371 28.1106 75.4179 28.0599 75.4765 28.0266C75.5352 27.9932 75.6027 27.9787 75.6699 27.9851C75.734 27.9761 75.7993 27.9861 75.8576 28.0141C75.9159 28.0421 75.9646 28.0866 75.9976 28.1422C76.0733 28.3663 76.1023 28.6035 76.0828 28.8393V29.4938C76.0888 29.6623 76.08 29.8309 76.0566 29.9978L76.2499 29.9782H76.5972L76.7938 29.9978C76.7938 29.8702 76.7741 29.736 76.7676 29.5985C76.761 29.4611 76.7512 29.3105 76.7512 29.1567Z" fill="white"/>
<path d="M78.4387 27.5564C78.2792 27.5483 78.1197 27.5732 77.9703 27.6295C77.8209 27.6858 77.6847 27.7723 77.5704 27.8836C77.4594 28.0003 77.3732 28.1381 77.3169 28.2888C77.2606 28.4395 77.2354 28.6 77.2427 28.7607C77.2222 29.1069 77.34 29.4471 77.5704 29.7065C77.6912 29.8212 77.8346 29.9094 77.9914 29.9658C78.1482 30.0221 78.315 30.0453 78.4813 30.0338C78.635 30.034 78.7881 30.0142 78.9367 29.9749C79.0673 29.9396 79.1913 29.8832 79.3037 29.808L79.4118 29.5265L79.3627 29.4905C79.2714 29.5656 79.1684 29.6252 79.0579 29.6673C78.9531 29.7064 78.8422 29.7263 78.7303 29.7262C78.6245 29.7295 78.5193 29.7082 78.4232 29.6639C78.3271 29.6196 78.2426 29.5535 78.1765 29.4709C78.0322 29.2742 77.9605 29.0337 77.9734 28.7902H79.4937C79.497 28.7707 79.497 28.7508 79.4937 28.7313C79.497 28.6986 79.497 28.6657 79.4937 28.6331C79.5136 28.3358 79.4146 28.0427 79.2185 27.8182C79.1139 27.7228 78.9905 27.6502 78.8562 27.6052C78.7219 27.5601 78.5797 27.5435 78.4387 27.5564ZM78.8155 28.5022V28.5676H77.9734V28.5251C77.9629 28.3314 78.0036 28.1384 78.0913 27.9655C78.1235 27.9065 78.1708 27.8572 78.2284 27.8227C78.286 27.7882 78.3518 27.7697 78.419 27.7691C78.478 27.7689 78.5358 27.7846 78.5866 27.8146C78.6373 27.8446 78.6791 27.8876 78.7074 27.9393C78.7822 28.0986 78.8159 28.2741 78.8057 28.4498L78.8155 28.5022Z" fill="white"/>
<path d="M60.129 10.4727C60.3671 10.8464 60.5858 11.232 60.7843 11.628L61.4396 10.9964C61.1087 10.6235 60.7322 10.2937 60.319 10.0145C60.4575 9.69776 60.5672 9.36916 60.6467 9.03273L59.6997 8.83636C59.5022 9.98615 59.1076 11.0933 58.5333 12.1091L58.8609 12.3775C59.3708 11.805 59.7977 11.1638 60.129 10.4727Z" fill="white"/>
<path d="M67.4719 8.74145C67.1766 8.03015 66.7744 7.36799 66.2792 6.77782L65.9056 6.96436C66.1549 7.66474 66.3574 8.38086 66.5118 9.108L67.4719 8.74145Z" fill="white"/>
<path d="M63.7693 8.20473H61.6919L62.1605 7.55019C61.563 7.16054 60.9086 6.86577 60.2207 6.67637L60.0602 7.03637C60.5125 7.39608 60.9405 7.7853 61.3413 8.20146H58.7397V8.7251H63.7693V8.20473Z" fill="white"/>
<path d="M60.8531 14.6749V17.7284H61.8558V14.4556C62.2718 14.9267 62.6613 15.4205 63.0222 15.9349L63.7136 15.1658C63.1457 14.6721 62.5222 14.2459 61.8558 13.896V13.464H63.7922V12.9371H61.8558V11.8407H61.6592C61.9499 11.4462 62.2033 11.0254 62.4161 10.584C62.6651 10.9338 62.8843 11.3038 63.0714 11.6902L63.6186 11.1895C63.5136 11.484 63.3921 11.7725 63.2549 12.0535L63.5825 12.2956C63.7595 12.0633 63.9102 11.808 64.0839 11.5495V17.6727H65.1094V16.7727H69.0414V16.236H67.2556V14.22H68.6089V13.6964H67.2556V11.8767H68.599V11.3531H67.2556V9.792H68.8939V9.26509H65.0537C65.2668 8.53893 65.4073 7.79347 65.4731 7.03964L64.4115 6.83018C64.2379 8.532 64.0839 9.792 63.6874 10.98C63.379 10.6428 63.0263 10.3488 62.6389 10.1062C62.7789 9.77872 62.8886 9.43912 62.9665 9.09164L62.0196 8.85928C61.9262 9.89782 61.6371 10.9094 61.1677 11.8407H60.8662V12.9371H58.6676V13.464H60.5943C60.0735 14.6384 59.3328 15.7026 58.412 16.5993L58.6578 16.9265C59.5121 16.3058 60.2545 15.5444 60.8531 14.6749ZM65.0767 9.792H66.2038V11.3531H65.0701L65.0767 9.792ZM65.0767 11.8767H66.2038V13.6964H65.0701L65.0767 11.8767ZM65.0767 14.22H66.2038V16.236H65.0701L65.0767 14.22Z" fill="white"/>
<path d="M79.9655 13.1956C79.3416 12.6661 78.6413 12.2336 77.8882 11.9127L77.6785 12.24C78.2425 12.7854 78.7763 13.3611 79.2774 13.9647L79.9655 13.1956Z" fill="white"/>
<path d="M78.0815 11.3531H75.9223V11.8767H81.4302V11.3531H79.1301V9.33709H81.581V8.81018H79.1301V6.85309H78.0815V8.81018H75.6765V9.33709H78.0815V11.3531Z" fill="white"/>
<path d="M82.0036 15.6535C81.6101 14.8072 81.0774 14.0329 80.4276 13.3625L80.0999 13.5818C80.4923 14.3985 80.821 15.2443 81.0829 16.1116L82.0036 15.6535Z" fill="white"/>
<path d="M77.0166 16.0364C77.0166 17.2964 77.2492 17.424 78.9564 17.424C80.7749 17.424 80.6831 16.6778 80.1458 14.7665H79.7264C79.7264 16.3178 79.7264 16.4684 78.8843 16.4684C78.1503 16.4684 78.0455 16.3178 78.0455 15.8498V12.996H77.0166V16.0364Z" fill="white"/>
<path d="M75.4307 8.81019H73.74L74.3462 8.34546C73.8271 7.73018 73.2224 7.19235 72.5506 6.74837L72.259 7.03964C72.5277 7.42255 72.9602 8.14582 73.3435 8.81019H71.5447V9.33709H75.4307V8.81019Z" fill="white"/>
<path d="M74.1725 17.496H75.0507V16.0855L75.8338 16.668C76.3712 15.9578 76.6398 14.9302 76.7086 13.6964L76.2991 13.6145C76.142 14.5109 75.7051 15.3346 75.0507 15.9676V13.6767H71.9117V17.6727H72.8226V16.8218H74.166L74.1725 17.496ZM74.1725 16.2949H72.8422V14.1742H74.1725V16.2949Z" fill="white"/>
<path d="M75.1621 12.0404H71.8822V12.5313H75.1621V12.0404Z" fill="white"/>
<path d="M75.1621 10.4302H71.8822V10.9211H75.1621V10.4302Z" fill="white"/>
<path d="M54.3524 16.9822L54.2508 16.9298C54.099 16.8216 53.9338 16.7336 53.7593 16.668C53.4873 16.5993 53.199 16.632 52.927 16.5731C52.5437 16.4913 52.1636 16.3964 51.7769 16.3375C51.2933 16.2456 50.7952 16.2624 50.3189 16.3865C50.0865 16.4401 49.872 16.5528 49.6963 16.7138C49.5992 16.8567 49.5416 17.0227 49.5292 17.1949C49.4898 17.3589 49.47 17.527 49.4702 17.6956C49.4927 18.3253 49.6802 18.9381 50.0141 19.4727C50.1825 19.7615 50.3754 20.0352 50.5908 20.2909C50.788 20.5527 51.0169 20.7891 51.2723 20.9946C51.5056 21.1263 51.7044 21.3113 51.8523 21.5346C51.9637 21.7146 51.9735 21.7669 52.18 21.8618C52.5353 21.9658 52.9041 22.0165 53.2744 22.0124C53.7631 22.0447 54.254 22.0161 54.7357 21.9273C55.0929 21.8651 55.1584 21.6 55.45 21.4429C55.7416 21.2858 55.8563 21.2596 55.9808 20.9618C56.5444 19.62 55.8498 18.4778 55.0273 17.5091C54.8334 17.2971 54.6052 17.119 54.3524 16.9822Z" fill="white"/>
</g>
<defs>
<clipPath id="clip0_1107_324">
<rect width="98" height="36" fill="white"/>
</clipPath>
</defs>
</svg>
