<?xml version="1.0" encoding="utf-8"?>
<!-- Generator: Adobe Illustrator 27.5.0, SVG Export Plug-In . SVG Version: 6.00 Build 0)  -->
<svg version="1.1" id="_層_1" xmlns="http://www.w3.org/2000/svg" xmlns:xlink="http://www.w3.org/1999/xlink" x="0px" y="0px"
	 viewBox="0 0 170.4 46.8" style="enable-background:new 0 0 170.4 46.8;" xml:space="preserve">
<style type="text/css">
	.st0{fill:#FFFFFF;}
</style>
<g>
	<g>
		<path class="st0" d="M69.1,34.6v-1.8h5.2v-8.9c0.1-1.2,1-1.8,1-1.8L72,21.8v10.1h-5.2v10.3l2.3-0.7v-5.9h2.3l0,0v6.6l2.3-0.7v-5.9
			h1.7h0.1c0-0.9,0.3-0.9,0.3-0.9L69.1,34.6L69.1,34.6z M70.8,21.4H60.7v9.4h10.1V21.4z M68.4,29.8h-5.3v-1.9h5.3V29.8z M68.4,27
			h-5.3v-1.9h5.3V27z M68.4,24.2h-5.3v-1.9h5.3V24.2z M59.5,31.9v-9.6L57,21.8c0,0,0.1,3.9,0.1,4.9v1.6c0,1.3-0.2,4.4-0.2,4.4h5.8
			v1.8c0,0-4.7,0-4.9,0c-0.9,0-1.5,0-2.3-0.2c0.2,0.4,0.3,0.7,0.3,1.1c0.4,0,0.7,0,1.5,0H58c0,0,0,0.8,0,1.4c0,2.5-1,4.6-1.7,5.6
			c0,0,0.9-0.5,1.5-0.9c2.2-1.4,2.6-3.3,2.6-4.5c0-0.4,0-1.6,0-1.6h2.3V42l2.3-0.7v-9.6h-5.5V31.9z"/>
		<path class="st0" d="M134.5,30.2c0,0,1-1.3,1.6-1.9c0.1-0.1,0.1-0.2,0-0.4c-0.4-0.7-1.3-1.6-2.1-2.2c0.9-0.7,1.4-1.4,2.2-2.7
			c0.5-1.1,0.9-0.9,1-1.1c-0.6-0.2-2-0.8-2.4-1.1c-0.2-0.1-0.2,0-0.3,0.2c0,0.1,0,0.2-0.1,0.5c-0.1,1.4-0.4,2.7-0.9,3.9
			c-0.4-0.2-0.6-0.4-0.7-0.4c-0.1,0-0.2,0-0.2,0.1v0.1c0.8,1,1.4,2.7,1.6,4.6C134.1,30.3,134.3,30.4,134.5,30.2z M140,25.4
			c0,0.1,0,0.1,0,0.1c1,0.7,2,2.2,2.6,4.1c0.1,0.3,0.2,0.6,0.3,0.9c0.1,0.1,0.1,0.1,0.3-0.1c0.3-0.8,0.8-1.4,1.3-2.1
			c0.1-0.1,0-0.2,0-0.4c-0.8-1-1.8-1.7-3.1-2.2c1-0.6,1.7-1.4,2.4-2.8c0.4-0.7,1-0.8,1-0.9c-0.2-0.1-1.9-0.8-2.4-1.1
			c-0.2-0.1-0.2,0-0.2,0.1c-0.3,2.1-0.7,3.6-1.2,4.6c-0.4-0.1-0.7-0.2-0.8-0.2C140.1,25.2,140,25.3,140,25.4z M136.4,25.2
			c0,0.1,0,0.1,0,0.2c0.1,0.1,0.1,0.1,0.2,0.2c0.1,0.1,0.2,0.3,0.4,0.5c0.5,0.7,0.9,1.6,1.3,2.6c0.2,0.5,0.3,0.9,0.4,1.4
			c0.1,0.3,0.2,0.3,0.4-0.1c0.4-0.5,0.8-1.1,1.3-1.6c0.1-0.2,0.1-0.2,0-0.4c-0.5-0.9-1.5-1.7-2.5-2.3c1-0.7,1.5-1.2,2.2-2.6
			c0.6-0.9,1-0.9,1-1.1c-0.5-0.2-1.9-0.8-2.4-1.1c-0.2-0.1-0.2,0-0.3,0.2c0,0.1,0,0.2-0.1,0.5c-0.2,1.6-0.5,2.9-0.9,4
			c-0.4-0.2-0.7-0.3-0.8-0.3C136.5,25.1,136.4,25.1,136.4,25.2z M138.7,32.1c0.7-0.8,1.1-0.5,1.2-0.6c0-0.2-1.8-1.1-2.4-1.3
			c-0.1,0-0.2,0-0.2,0.2c-0.1,0.6-0.2,1.1-0.4,1.8h-4.4c0.1,0.7,0.2,1,0.2,1.3v8.9l2.2-0.7v-0.6h7.2v1.4l2.2-0.7v-0.6V34
			c0-1.2,0.7-1.7,0.7-1.7h-6.3V32.1z M142.1,40h-7.2v-7.1h7.2V40z M135.7,39.3c0.9-0.3,1.7-0.8,2.6-1.6c0.1-0.1,0.2-0.2,0.3-0.3
			c0.4,0.5,0.9,1.2,1.3,2c0,0.1,0.1,0.2,0.2,0c0.3-0.4,0.8-1.2,1.2-1.6c0,0,0.2-0.1,0-0.3c-0.2-0.4-0.8-0.8-1.6-1.4
			c0.3-0.4,0.4-0.6,0.7-1c0.5-0.7,0.8-0.5,0.9-0.7c-0.2-0.1-1.7-0.9-2.3-1.2c-0.1,0-0.2,0.1-0.2,0.2c-0.2,0.7-0.4,1.3-0.6,1.8
			c-0.7-0.4-1.5-0.8-2.3-1.1c-0.1,0-0.1,0-0.1,0c0,0.1,0,0.1,0,0.2c0.7,0.6,1.4,1.2,1.9,1.9c-0.3,0.9-1,1.8-2.1,2.7
			c-0.1,0.1-0.1,0.1-0.1,0.2C135.5,39.3,135.6,39.3,135.7,39.3z M125.1,21.6c0.1,0.5,0.1,1.2,0.1,1.6c0,0.3,0,6.3,0,6.3
			c0,5.9-0.5,10.1-1.2,12.6c0,0.1,0,0.2,0,0.2l0,0c1.9-2.2,3-5.1,3.2-8.8h2.5v5.7c0,0.2-0.1,0.4-0.2,0.5c-0.2,0.1-1,0.2-2.2,0.2
			c-0.2,0-0.3,0-0.4,0.2c0,0.2,0.1,0.2,0.2,0.3c0.6,0.1,1,0.4,1.3,0.8c0.2,0.4,0.4,0.7,0.4,1c0,0.1,0.1,0.2,0.2,0.2
			c0.6,0,1.2-0.1,1.8-0.5s0.9-1,0.9-1.9V23.2c0-1.3,0.9-1.7,0.9-1.7h-7.5V21.6z M127.5,22.5h2.3l-0.1,4.4h-2.4L127.5,22.5z
			 M129.7,32.5h-2.4c0-0.9,0.1-1.9,0.1-3.1v-1.2l0,0v-0.4h2.4v1.1l0,0L129.7,32.5L129.7,32.5z M124.1,42.2L124.1,42.2
			C124.1,42.3,124.1,42.3,124.1,42.2z"/>
		<path class="st0" d="M120.2,23.9L120.2,23.9h-7.7v-1.7c4,0,7.8,0,7.8,0c0.1-0.5,0.4-0.9,0.4-0.9h-15.2c0,0-2.4-0.1-2.7-0.1
			c0.2,0.4,0.3,0.7,0.3,1.1c0,0,3.4,0,7.1,0V24h-6.5v-0.3c0-0.1,0-0.1,0-0.2s0-0.2,0-0.2v-0.1l0,0c0-0.2-0.1-0.2-0.2-0.2
			c0,0-0.3,1.7-1.9,2.9c0,0-0.1,0-0.1,0.1c-0.3,0.2-0.6,0.4-1,0.6c0,0-0.2,0,0,0.3c0.1,0.3,1,1.7,1,1.7s2.5-0.1,2.5-3.5
			c0.8,0,3.4,0,6.4,0v5l2.3-0.7v-4.3h7.1c-0.2,1.4-0.6,3.9-0.6,3.9c0,0.1,0.1,0,0.2,0c0.4-0.2,1-1.1,1.7-1.9
			c0.9-1.3,2.2-1.2,2.2-1.2S120.7,23.9,120.2,23.9z M113.5,29.1c1.1,0,2.9,0,4.8,0v-1h-4.1c0,0-0.3,0-0.7,0
			C113.5,28.1,113.5,29.1,113.5,29.1z M118.3,26.8v-1h-4.1c0,0-0.3,0-0.7,0v1C114.6,26.8,116.3,26.8,118.3,26.8z M121,37.2
			c-0.1,0-0.2,0.2-0.2,0.4c-0.2,1.2-0.7,2-1.6,2.2c-0.5,0.2-1.4,0.1-4.7,0.1c-0.8,0-1.4-0.1-1.6-0.2c-0.2-0.2-0.4-0.4-0.4-0.6v-1
			h6.6v-6c0-1.3,0.8-1.7,0.8-1.7h-16.5c0.2,1.2,0.2,1,0.2,1.9v3.3c0,0.7-0.1,2.5-0.1,2.5h6.8V40c0,0.6,0.3,1.1,0.8,1.6
			c0.6,0.6,2.3,0.9,5,0.9c2.6,0,4.3-0.2,5.2-0.5c0.8-0.2,1.6-0.7,1.2-1C120.7,39.1,121.1,37.2,121,37.2z M110.2,37h-4.6v-2.4h4.6V37
			z M110.2,33.6h-4.6v-2.4h4.6V33.6z M112.5,31.2h4.5v2.4h-4.5V31.2z M112.5,34.6h4.5V37h-4.5V34.6z M109.2,26.8v-1h-4.1
			c0,0-0.3,0-0.7,0V26l0,0v0.6l0,0v0.2C105.6,26.8,107.3,26.8,109.2,26.8z M104.4,29L104.4,29L104.4,29c1.1,0.1,2.9,0.1,4.8,0.1v-1
			h-4.1c0,0-0.3,0-0.7,0v0.3l0,0C104.4,28.4,104.4,29,104.4,29z"/>
		<path class="st0" d="M88.1,37.2c-0.6-0.9-2.5-1.9-3.5-2.2v-1c1.9,0,3.5,0,3.5,0c0.1-0.5,0.4-0.9,0.4-0.9h-3.8v-0.2
			c0-1.4,0.8-1.7,0.8-1.7l-3.1-0.7v1.9V33h-0.9c0,0-2.4-0.1-2.7-0.1c0.2,0.4,0.3,0.7,0.3,1c0,0,0.9,0,2.1,0c0,0.4-0.1,0.9-0.3,1.5
			c-0.6,2.8-2.5,5.1-3.4,6.3c0,0,1-0.5,1.7-0.8c2.1-1.1,3-2.7,3.3-4v5.3l2.3-0.7v-5.7c0.7,0.7,1.3,1.8,1.8,3
			c0.1,0.3,0.2,0.5,0.3,0.8c0.1,0.1,0.1,0.1,0.3-0.1c0.3-0.7,0.8-1.3,1.3-1.9C88.2,37.5,88.2,37.4,88.1,37.2z M97.1,28.6
			c-1,0-4.5,0.2-4.5,0.2s-0.4,0-0.9,0c0-0.6,0-0.9,0-1.3c0,0,0-2.8,0-2.9c2.3-0.2,3.2-0.3,5.8-0.7c1.6-0.3,1.6-0.1,2-0.2
			c-0.1-0.3-1.4-1.9-1.9-2.4c-0.4-0.5-0.5-0.2-1.1,0c-0.5,0.2-4.9,2.2-4.9,2.2s-1.6-0.7-2.2-1c-0.1,0-0.2,0.1-0.2,0.2
			c0,0.5,0,0.7,0,1.4v3.4v2.3c0,3.2-0.6,8.8-1.8,11.6c-0.3,0.6-0.4,1-0.4,1.1c0.1,0.1,0.2,0.1,0.3,0c2-1.6,3.3-4.2,3.9-7.8
			c0.2-1.4,0.3-3.4,0.4-5c0.8,0,1.6,0,2.6,0v12.6l2.3-0.7V29.7c1.7,0,2.5,0,2.5,0c0.1-0.8,0.5-1.4,0.6-1.4
			C99.2,28.3,97.4,28.6,97.1,28.6z M88.1,29.1h-2.9c-0.3,0.3-0.5,0.6-0.7,0.9c1.8,0,3.3,0,3.3,0C87.8,29.5,88.1,29.1,88.1,29.1z
			 M81.5,30c-0.1-0.3-0.3-0.6-0.4-0.9c-0.6,0-2.3-0.1-2.6-0.1c0.2,0.4,0.2,0.7,0.3,1C78.8,30,80,30,81.5,30z M88.6,24
			c0-0.5,0.4-0.9,0.4-0.9h-4.1c0-0.1,0,0.1,0-0.1c0-1.2,0.6-1.7,0.6-1.7l-3-0.7v2.3c-1,0-3.4,0-3.8-0.1c0.2,0.4,0.3,1,0.3,1h9.6V24z
			 M82.7,30.3L82.7,30.3L82.7,30.3L82.7,30.3z M82.9,30.3L82.9,30.3c0.7-0.8,4-5,5-6.2l0,0l0,0l0,0l0,0l0,0c-1.2,1-4.1,3-7.2,1.5
			l0,0l0,0l0,0l0,0c0.3,0.6,1.8,3.9,2.2,4.6C82.7,30.4,82.8,30.4,82.9,30.3z"/>
	</g>
	<g>
		<g>
			<path class="st0" d="M17.7,46.1L17.7,46.1L17.7,46.1L17.7,46.1z M51,0.4c-0.1-0.1-0.2-0.2-0.4-0.1c0,0,0,0-0.1,0l0,0
				C42.9,7.4,23.2,22,1,9.2V9.1c-0.1,0-0.2,0-0.2,0C0.6,9.2,0.6,9.3,0.6,9.5l0,0c2.2,4.8,14.3,30.7,17.1,36.6c0.2,0.4,0.7,0.6,1,0.4
				c0.2-0.1,0.4-0.4,0.4-0.4c0.9-1.3,2.7-3.8,5-7.1c-2.9-6.3-6.6-14.1-7.5-16.1c0,0-0.2-0.4-0.3-1c-0.1-1.1,0.5-1.8,1.6-1.6
				c0.7,0.1,1.2,0.4,1.2,0.4c3.9,2.3,7.6,3.1,11.1,3.1c1.7,0,3.4-0.2,5-0.6C41.5,14.1,48,4.9,51,0.6l0,0C51,0.5,51,0.5,51,0.4z"/>
			<path class="st0" d="M51,16.5c-4.1,5.9-18.2,26-20.9,29.8c0,0-0.1,0.2-0.3,0.2c-0.3,0.1-0.6,0-0.7-0.3l0,0
				c-1.8-3.9-9.7-20.9-11.2-24l0,0c0-0.1,0-0.2,0.1-0.2s0.1,0,0.2,0l0,0c14.5,8.4,27.4-1.2,32.5-5.8l0,0l0,0c0.1,0,0.2,0,0.2,0.1
				C51,16.4,51,16.4,51,16.5L51,16.5z"/>
		</g>
	</g>
</g>
</svg>
