<svg width="25" height="25" viewBox="0 0 25 25" fill="none" xmlns="http://www.w3.org/2000/svg">
<path d="M6.74807 10.3438V4.25C6.74807 4.05109 6.66905 3.86032 6.5284 3.71967C6.38775 3.57902 6.19698 3.5 5.99807 3.5C5.79916 3.5 5.60839 3.57902 5.46774 3.71967C5.32709 3.86032 5.24807 4.05109 5.24807 4.25V10.3438C4.60276 10.509 4.03079 10.8843 3.62234 11.4105C3.21389 11.9367 2.99219 12.5839 2.99219 13.25C2.99219 13.9161 3.21389 14.5633 3.62234 15.0895C4.03079 15.6157 4.60276 15.991 5.24807 16.1562V20.75C5.24807 20.9489 5.32709 21.1397 5.46774 21.2803C5.60839 21.421 5.79916 21.5 5.99807 21.5C6.19698 21.5 6.38775 21.421 6.5284 21.2803C6.66905 21.1397 6.74807 20.9489 6.74807 20.75V16.1562C7.39338 15.991 7.96535 15.6157 8.3738 15.0895C8.78225 14.5633 9.00395 13.9161 9.00395 13.25C9.00395 12.5839 8.78225 11.9367 8.3738 11.4105C7.96535 10.8843 7.39338 10.509 6.74807 10.3438ZM5.99807 14.75C5.7014 14.75 5.41139 14.662 5.16471 14.4972C4.91804 14.3324 4.72578 14.0981 4.61225 13.824C4.49872 13.5499 4.46901 13.2483 4.52689 12.9574C4.58477 12.6664 4.72763 12.3991 4.93741 12.1893C5.14719 11.9796 5.41446 11.8367 5.70543 11.7788C5.99641 11.7209 6.29801 11.7506 6.5721 11.8642C6.84618 11.9777 7.08045 12.17 7.24527 12.4166C7.4101 12.6633 7.49807 12.9533 7.49807 13.25C7.49807 13.6478 7.34003 14.0294 7.05873 14.3107C6.77743 14.592 6.39589 14.75 5.99807 14.75ZM13.4981 5.84375V4.25C13.4981 4.05109 13.4191 3.86032 13.2784 3.71967C13.1377 3.57902 12.947 3.5 12.7481 3.5C12.5492 3.5 12.3584 3.57902 12.2177 3.71967C12.0771 3.86032 11.9981 4.05109 11.9981 4.25V5.84375C11.3528 6.00898 10.7808 6.38428 10.3723 6.91048C9.96389 7.43669 9.74219 8.08387 9.74219 8.75C9.74219 9.41613 9.96389 10.0633 10.3723 10.5895C10.7808 11.1157 11.3528 11.491 11.9981 11.6562V20.75C11.9981 20.9489 12.0771 21.1397 12.2177 21.2803C12.3584 21.421 12.5492 21.5 12.7481 21.5C12.947 21.5 13.1377 21.421 13.2784 21.2803C13.4191 21.1397 13.4981 20.9489 13.4981 20.75V11.6562C14.1434 11.491 14.7153 11.1157 15.1238 10.5895C15.5323 10.0633 15.754 9.41613 15.754 8.75C15.754 8.08387 15.5323 7.43669 15.1238 6.91048C14.7153 6.38428 14.1434 6.00898 13.4981 5.84375ZM12.7481 10.25C12.4514 10.25 12.1614 10.162 11.9147 9.9972C11.668 9.83238 11.4758 9.59811 11.3623 9.32403C11.2487 9.04994 11.219 8.74834 11.2769 8.45736C11.3348 8.16639 11.4776 7.89912 11.6874 7.68934C11.8972 7.47956 12.1645 7.3367 12.4554 7.27882C12.7464 7.22094 13.048 7.25065 13.3221 7.36418C13.5962 7.47771 13.8305 7.66997 13.9953 7.91665C14.1601 8.16332 14.2481 8.45333 14.2481 8.75C14.2481 9.14782 14.09 9.52936 13.8087 9.81066C13.5274 10.092 13.1459 10.25 12.7481 10.25ZM22.4981 16.25C22.4974 15.5849 22.2762 14.9388 21.8691 14.4129C21.4619 13.887 20.8918 13.511 20.2481 13.3438V4.25C20.2481 4.05109 20.1691 3.86032 20.0284 3.71967C19.8877 3.57902 19.697 3.5 19.4981 3.5C19.2992 3.5 19.1084 3.57902 18.9677 3.71967C18.8271 3.86032 18.7481 4.05109 18.7481 4.25V13.3438C18.1028 13.509 17.5308 13.8843 17.1223 14.4105C16.7139 14.9367 16.4922 15.5839 16.4922 16.25C16.4922 16.9161 16.7139 17.5633 17.1223 18.0895C17.5308 18.6157 18.1028 18.991 18.7481 19.1562V20.75C18.7481 20.9489 18.8271 21.1397 18.9677 21.2803C19.1084 21.421 19.2992 21.5 19.4981 21.5C19.697 21.5 19.8877 21.421 20.0284 21.2803C20.1691 21.1397 20.2481 20.9489 20.2481 20.75V19.1562C20.8918 18.989 21.4619 18.613 21.8691 18.0871C22.2762 17.5612 22.4974 16.9151 22.4981 16.25ZM19.4981 17.75C19.2014 17.75 18.9114 17.662 18.6647 17.4972C18.418 17.3324 18.2258 17.0981 18.1123 16.824C17.9987 16.5499 17.969 16.2483 18.0269 15.9574C18.0848 15.6664 18.2276 15.3991 18.4374 15.1893C18.6472 14.9796 18.9145 14.8367 19.2054 14.7788C19.4964 14.7209 19.798 14.7506 20.0721 14.8642C20.3462 14.9777 20.5805 15.17 20.7453 15.4166C20.9101 15.6633 20.9981 15.9533 20.9981 16.25C20.9981 16.6478 20.84 17.0294 20.5587 17.3107C20.2774 17.592 19.8959 17.75 19.4981 17.75Z" fill="#4F4F4F"/>
</svg>
