<svg id="adjustments-horizontal" xmlns="http://www.w3.org/2000/svg" width="23.163" height="23.163" viewBox="0 0 23.163 23.163">
  <path id="パス_1090518" data-name="パス 1090518" d="M0,0H23.163V23.163H0Z" fill="none"/>
  <path id="楕円形_152" data-name="楕円形 152" d="M1.9-1A2.9,2.9,0,1,1-1,1.9,2.9,2.9,0,0,1,1.9-1Zm0,3.861A.965.965,0,1,0,.93,1.9.966.966,0,0,0,1.9,2.861Z" transform="translate(11.617 3.895)" fill="#FF729E"/>
  <path id="線_143" data-name="線 143" d="M7.686.93H-.035A.965.965,0,0,1-1-.035.965.965,0,0,1-.035-1H7.686a.965.965,0,0,1,.965.965A.965.965,0,0,1,7.686.93Z" transform="translate(3.895 5.826)" fill="#FF729E"/>
  <path id="線_144" data-name="線 144" d="M3.826.93H-.035A.965.965,0,0,1-1-.035.965.965,0,0,1-.035-1H3.826a.965.965,0,0,1,.965.965A.965.965,0,0,1,3.826.93Z" transform="translate(15.477 5.826)" fill="#FF729E"/>
  <path id="楕円形_153" data-name="楕円形 153" d="M1.9-1A2.9,2.9,0,1,1-1,1.9,2.9,2.9,0,0,1,1.9-1Zm0,3.861A.965.965,0,1,0,.93,1.9.966.966,0,0,0,1.9,2.861Z" transform="translate(5.826 9.686)" fill="#FF729E"/>
  <path id="線_145" data-name="線 145" d="M1.9.93H-.035A.965.965,0,0,1-1-.035.965.965,0,0,1-.035-1H1.9a.965.965,0,0,1,.965.965A.965.965,0,0,1,1.9.93Z" transform="translate(3.895 11.617)" fill="#FF729E"/>
  <path id="線_146" data-name="線 146" d="M9.617.93H-.035A.965.965,0,0,1-1-.035.965.965,0,0,1-.035-1H9.617a.965.965,0,0,1,.965.965A.965.965,0,0,1,9.617.93Z" transform="translate(9.686 11.617)" fill="#FF729E"/>
  <path id="楕円形_154" data-name="楕円形 154" d="M1.9-1A2.9,2.9,0,1,1-1,1.9,2.9,2.9,0,0,1,1.9-1Zm0,3.861A.965.965,0,1,0,.93,1.9.966.966,0,0,0,1.9,2.861Z" transform="translate(14.512 15.477)" fill="#FF729E"/>
  <path id="線_147" data-name="線 147" d="M10.582.93H-.035A.965.965,0,0,1-1-.035.965.965,0,0,1-.035-1H10.582a.965.965,0,0,1,.965.965A.965.965,0,0,1,10.582.93Z" transform="translate(3.895 17.407)" fill="#FF729E"/>
  <path id="線_148" data-name="線 148" d="M.93.93H-.035A.965.965,0,0,1-1-.035.965.965,0,0,1-.035-1H.93A.965.965,0,0,1,1.9-.035.965.965,0,0,1,.93.93Z" transform="translate(18.373 17.407)" fill="#FF729E"/>
</svg>
