<svg width="24" height="24" viewBox="0 0 24 24" fill="none" xmlns="http://www.w3.org/2000/svg">
<path d="M4.97914 21.9451C1.84413 21.9451 0 20.6542 0 18.5203C0 17.73 0.289791 16.8342 0.84303 15.8068L8.19319 3.05598C9.35236 1.02744 10.6169 0 12.0395 0C13.3041 0 14.5423 0.790339 15.5434 2.52909L22.9199 15.3063C23.5785 16.4654 24 17.5192 24 18.6257C24 20.5225 22.5774 21.9451 19.7058 21.9451H4.97914ZM4.66301 20.4962H19.8639C21.5236 20.4962 22.5247 19.6531 22.5247 18.5467C22.5247 17.7563 22.3139 17.045 21.8661 16.3074L14.2261 3.08233C13.6202 2.05488 12.8035 1.52799 12.0395 1.52799C11.1965 1.52799 10.3008 2.2393 9.58946 3.4775L2.0022 16.6498C1.68606 17.2294 1.52799 17.809 1.52799 18.3095C1.52799 19.7322 2.68716 20.4962 4.66301 20.4962ZM11.3809 13.6202L11.0911 7.35016L11.0384 5.21625H13.067L13.0143 7.35016L12.7245 13.6202H11.3809ZM12.0395 18.652C11.1701 18.652 10.4588 17.9671 10.4588 16.9923C10.4588 15.9912 11.1701 15.3326 12.0395 15.3326C12.9089 15.3326 13.6465 15.9912 13.6465 16.9923C13.6465 17.9671 12.9089 18.652 12.0395 18.652Z" fill="#888888"/>
</svg>
