<svg width="25" height="25" viewBox="0 0 25 25" fill="none" xmlns="http://www.w3.org/2000/svg">
<path d="M21.5687 20.5273L15.482 14.4406C16.4266 13.2195 16.9375 11.7266 16.9375 10.1562C16.9375 8.27656 16.2039 6.51406 14.8773 5.18516C13.5508 3.85625 11.7836 3.125 9.90625 3.125C8.02891 3.125 6.26172 3.85859 4.93516 5.18516C3.60625 6.51172 2.875 8.27656 2.875 10.1562C2.875 12.0336 3.60859 13.8008 4.93516 15.1273C6.26172 16.4562 8.02656 17.1875 9.90625 17.1875C11.4766 17.1875 12.9672 16.6766 14.1883 15.7344L20.275 21.8187C20.2928 21.8366 20.314 21.8508 20.3374 21.8604C20.3607 21.8701 20.3857 21.8751 20.4109 21.8751C20.4362 21.8751 20.4612 21.8701 20.4845 21.8604C20.5078 21.8508 20.529 21.8366 20.5469 21.8187L21.5687 20.7992C21.5866 20.7814 21.6008 20.7602 21.6104 20.7369C21.6201 20.7135 21.6251 20.6885 21.6251 20.6633C21.6251 20.638 21.6201 20.613 21.6104 20.5897C21.6008 20.5664 21.5866 20.5452 21.5687 20.5273ZM13.6188 13.8688C12.625 14.8602 11.3078 15.4062 9.90625 15.4062C8.50469 15.4062 7.1875 14.8602 6.19375 13.8688C5.20234 12.875 4.65625 11.5578 4.65625 10.1562C4.65625 8.75469 5.20234 7.43516 6.19375 6.44375C7.1875 5.45234 8.50469 4.90625 9.90625 4.90625C11.3078 4.90625 12.6273 5.45 13.6188 6.44375C14.6102 7.4375 15.1562 8.75469 15.1562 10.1562C15.1562 11.5578 14.6102 12.8773 13.6188 13.8688Z" fill="#4F4F4F"/>
</svg>
