<svg width="26" height="26" viewBox="0 0 26 26" fill="none" xmlns="http://www.w3.org/2000/svg">
<path fill-rule="evenodd" clip-rule="evenodd" d="M0 1.95C0 0.873044 0.873043 0 1.95 0H12.35C13.4269 0 14.3 0.873043 14.3 1.95V11.7H24.0499C25.1269 11.7 25.9999 12.5731 25.9999 13.65V24.05C25.9999 25.127 25.1269 26 24.0499 26H13.6499C12.573 26 11.6999 25.127 11.6999 24.05V14.3H1.95C0.873044 14.3 0 13.4269 0 12.35V1.95ZM17.6666 3.99991C18.2356 3.99991 18.7991 4.112 19.3249 4.32977C19.8506 4.54754 20.3283 4.86673 20.7307 5.26911C21.1331 5.6715 21.4523 6.1492 21.67 6.67495C21.8878 7.20069 21.9999 7.76418 21.9999 8.33324H20.7174C20.7174 7.9326 20.6385 7.53588 20.4852 7.16574C20.3318 6.79559 20.1071 6.45927 19.8238 6.17598C19.5405 5.89268 19.2042 5.66796 18.8341 5.51464C18.4639 5.36132 18.0672 5.28241 17.6666 5.28241V3.99991ZM8.33379 21.9999C7.76473 21.9999 7.20124 21.8878 6.67549 21.67C6.14975 21.4523 5.67205 21.1331 5.26966 20.7307C4.86728 20.3283 4.54808 19.8506 4.33031 19.3249C4.11254 18.7991 4.00046 18.2356 4.00046 17.6666H5.28296C5.28296 18.0672 5.36187 18.4639 5.51519 18.8341C5.66851 19.2042 5.89323 19.5405 6.17653 19.8238C6.45982 20.1071 6.79614 20.3318 7.16628 20.4852C7.53643 20.6385 7.93315 20.7174 8.33379 20.7174V21.9999Z" fill="white"/>
<path d="M2.8819 3.7014H11.5277V8.83709H10.2104V4.90859H4.14688V8.88824H2.8819V3.7014ZM3.54052 7.10814H10.9422V8.31533H3.54052V7.10814ZM6.50956 1.9213H7.83727V11.5277H6.50956V1.9213Z" fill="#156A70"/>
<path d="M15.3702 23.0554L18.191 15.3702H20.1921L23.0554 23.0554H21.3204L20.6711 21.1005H17.6907L17.0414 23.0554H15.3702ZM18.0313 19.9213H20.3304L20.0324 19.0628C19.7663 18.256 19.4683 17.3562 19.1915 16.5287H19.1489C18.8935 17.3665 18.5954 18.256 18.3293 19.0628L18.0313 19.9213Z" fill="#156A70"/>
</svg>
