<svg width="24" height="25" viewBox="0 0 24 25" fill="none" xmlns="http://www.w3.org/2000/svg">
<path d="M20.82 7.5H3.18C3.081 7.5 3 7.55114 3 7.61364V8.52273C3 8.58523 3.081 8.63636 3.18 8.63636H20.82C20.919 8.63636 21 8.58523 21 8.52273V7.61364C21 7.55114 20.919 7.5 20.82 7.5ZM20.82 16.3636H3.18C3.081 16.3636 3 16.4148 3 16.4773V17.3864C3 17.4489 3.081 17.5 3.18 17.5H20.82C20.919 17.5 21 17.4489 21 17.3864V16.4773C21 16.4148 20.919 16.3636 20.82 16.3636ZM20.82 11.9318H3.18C3.081 11.9318 3 11.983 3 12.0455V12.9545C3 13.017 3.081 13.0682 3.18 13.0682H20.82C20.919 13.0682 21 13.017 21 12.9545V12.0455C21 11.983 20.919 11.9318 20.82 11.9318Z" fill="#156A70"/>
</svg>
