<svg width="50" height="50" viewBox="0 0 50 50" fill="none" xmlns="http://www.w3.org/2000/svg">
<rect width="50" height="50" rx="25" fill="#06C755"/>
<path fill-rule="evenodd" clip-rule="evenodd" d="M37.0023 23.7889C37.0023 18.4143 31.6175 14 25.0009 14C18.3842 14 13 18.4143 13 23.7889C13 28.5996 17.268 32.6386 23.06 33.3898C23.4563 33.4735 23.9786 33.6506 24.1033 33.9844C24.1778 34.3282 24.1778 34.6839 24.1033 35.0277L23.9256 36.0711L23.9213 36.0955C23.8644 36.4172 23.7178 37.2468 24.9689 36.718C28.4352 34.8841 31.6024 32.5338 34.362 29.7477C35.9647 28.1617 36.8858 26.0132 36.9294 23.7588L37.0023 23.7889ZM22.3298 20.9877H21.4136C21.3446 20.9877 21.2784 21.0151 21.2296 21.0639C21.1808 21.1127 21.1533 21.1789 21.1533 21.2479V26.905C21.1563 26.972 21.185 27.0353 21.2335 27.0816C21.282 27.128 21.3465 27.1538 21.4136 27.1538H22.3298C22.3969 27.1538 22.4614 27.128 22.5099 27.0816C22.5584 27.0353 22.5871 26.972 22.5901 26.905V21.2479C22.5901 21.2137 22.5833 21.1799 22.5702 21.1483C22.5572 21.1167 22.538 21.088 22.5138 21.0639C22.4897 21.0397 22.461 21.0206 22.4294 21.0075C22.3978 20.9944 22.364 20.9877 22.3298 20.9877ZM27.7026 20.9883H28.6213L28.6098 20.9762C28.6788 20.9762 28.745 21.0036 28.7938 21.0524C28.8426 21.1012 28.8701 21.1674 28.8701 21.2364V26.9501C28.8671 27.0172 28.8384 27.0804 28.7899 27.1268C28.7414 27.1731 28.6769 27.199 28.6098 27.1989H27.5574L27.5008 27.1423L24.8985 23.6352V27.0303C24.8955 27.0973 24.8668 27.1606 24.8183 27.2069C24.7698 27.2533 24.7053 27.2791 24.6382 27.279H23.722C23.6549 27.2791 23.5904 27.2533 23.5419 27.2069C23.4934 27.1606 23.4647 27.0973 23.4618 27.0303V21.3732C23.4618 21.3042 23.4892 21.238 23.538 21.1892C23.5868 21.1404 23.653 21.113 23.722 21.113H24.8521L27.4424 24.643V21.2485C27.4424 21.1795 27.4698 21.1133 27.5186 21.0645C27.5674 21.0157 27.6336 20.9883 27.7026 20.9883ZM20.1353 25.7285H17.6577V21.2028C17.6577 21.1683 17.6508 21.1342 17.6376 21.1025C17.6243 21.0707 17.6049 21.0419 17.5804 21.0177C17.5559 20.9935 17.5269 20.9744 17.4949 20.9615C17.463 20.9486 17.4289 20.9421 17.3944 20.9425H16.4908C16.4218 20.9425 16.3556 20.9699 16.3068 21.0187C16.258 21.0675 16.2306 21.1337 16.2306 21.2028V26.8598C16.2293 26.893 16.2347 26.926 16.2464 26.9571C16.2581 26.9881 16.2759 27.0165 16.2987 27.0405C16.3227 27.0634 16.3511 27.0811 16.3822 27.0928C16.4132 27.1045 16.4463 27.1099 16.4794 27.1086H20.1227C20.1917 27.1086 20.2579 27.0812 20.3067 27.0324C20.3555 26.9836 20.3829 26.9174 20.3829 26.8484V25.9773C20.3829 25.9083 20.3555 25.8421 20.3067 25.7933C20.2579 25.7445 20.1917 25.7171 20.1227 25.7171L20.1353 25.7285ZM33.8394 22.3259C33.7906 22.3747 33.7244 22.4021 33.6553 22.4021H31.1777V23.4316H33.6553C33.7244 23.4316 33.7906 23.459 33.8394 23.5078C33.8882 23.5566 33.9156 23.6228 33.9156 23.6918V24.5081C33.9049 24.569 33.8728 24.6241 33.8251 24.6635C33.7774 24.7029 33.7172 24.724 33.6553 24.7231H31.1777V25.7171H33.6553C33.7244 25.7171 33.7906 25.7445 33.8394 25.7933C33.8882 25.8421 33.9156 25.9083 33.9156 25.9773V26.8706C33.9156 26.9397 33.8882 27.0058 33.8394 27.0546C33.7906 27.1034 33.7244 27.1309 33.6553 27.1309H30.0006C29.9675 27.1321 29.9344 27.1268 29.9034 27.1151C29.8724 27.1034 29.844 27.0856 29.8199 27.0628C29.7971 27.0387 29.7793 27.0103 29.7676 26.9793C29.7559 26.9483 29.7506 26.9152 29.7518 26.8821V21.225C29.7506 21.1919 29.7559 21.1588 29.7676 21.1278C29.7793 21.0967 29.7971 21.0684 29.8199 21.0443C29.844 21.0215 29.8724 21.0037 29.9034 20.992C29.9344 20.9803 29.9675 20.975 30.0006 20.9762H33.6553C33.6897 20.9762 33.7237 20.983 33.7554 20.9962C33.787 21.0094 33.8158 21.0287 33.84 21.0531C33.8642 21.0774 33.8833 21.1063 33.8963 21.1381C33.9093 21.1699 33.9158 21.2039 33.9156 21.2383V22.1419C33.9156 22.2109 33.8882 22.2771 33.8394 22.3259Z" fill="white"/>
</svg>
