<svg width="61" height="60" viewBox="0 0 61 60" fill="none" xmlns="http://www.w3.org/2000/svg">
<g clip-path="url(#clip0_391_787)">
<path d="M50.7934 40.9598L45.6573 32.8923H48.3302L39.3814 16.4462L30.4326 0L21.4838 16.4462L12.535 32.8923H15.2078L10.0718 40.9598H13.2818L10.0718 46.1219L18.6013 47.2114C26.4495 48.2231 34.3895 48.2231 42.2508 47.2114L50.7803 46.1219L47.5703 40.9598H50.7803H50.7934Z" fill="#156A70"/>
<path d="M22.2174 49.2348L24.6806 45.0065H21.9161L26.266 37.7043H24.2352L29.0961 28.1712L25.4668 21.0506L17.8806 6.1738L10.2944 21.0506L2.70825 35.9274H4.97493L0.625 43.2296H3.35026L0.625 47.8859L7.85741 48.8716C12.9542 49.572 22.2174 49.2218 22.2174 49.2218V49.2348Z" fill="#8DCFCC"/>
<path d="M19.2826 58.8975H15.2996L16.4264 22.8923H18.0248L19.2826 58.8975Z" fill="#156A70"/>
<path d="M17.946 38.8197L16.4131 40.0649L10.0847 31.5435L10.7005 31.0376L17.946 38.8197Z" fill="#156A70"/>
<path d="M16.2822 29.7925L17.8152 31.0376L24.1435 22.5032L23.5277 21.9974L16.2822 29.7925Z" fill="#156A70"/>
<path d="M58.7727 44.3321L54.4227 37.0298H56.6894L49.1032 22.1531L41.5171 7.27628L33.9309 22.1531L26.3447 37.0298H28.6114L24.2615 44.3321H26.9867L24.2615 49.0013L31.4939 49.987C38.1498 50.895 44.8843 50.895 51.5534 49.987L58.7858 49.0013L56.0605 44.3321H58.7858H58.7727Z" fill="#8DCFCC"/>
<path fill-rule="evenodd" clip-rule="evenodd" d="M44.7009 60H40.7309L41.1685 45.8503L35.5032 38.2101L36.119 37.7043L41.2497 43.2241L41.8446 23.9818H43.4562L43.8704 35.9668L48.7495 30.7263L49.3653 31.2321L43.9587 38.5234L44.7009 60Z" fill="#156A70"/>
</g>
<defs>
<clipPath id="clip0_391_787">
<rect width="59.0909" height="60" fill="white" transform="translate(0.625)"/>
</clipPath>
</defs>
</svg>
