<svg width="61" height="60" viewBox="0 0 61 60" fill="none" xmlns="http://www.w3.org/2000/svg">
<g clip-path="url(#clip0_391_781)">
<path d="M53.0924 43.012L47.3952 34.5381H50.3705L40.4305 17.2691L30.477 0L20.5369 17.2691L10.5968 34.5381H13.5722L7.875 43.012H11.4374L7.875 48.4337L17.3481 49.585C26.074 50.6426 34.8934 50.6426 43.6059 49.585L53.079 48.4337L49.5166 43.012H53.079H53.0924Z" fill="#8DCFCC"/>
<path d="M41.2976 29.3976L40.6705 28.8755L32.0246 38.6211L31.4909 22.8246H29.8498L29.5563 32.597L24.0192 26.5729L23.3921 27.095L29.4629 35.3949L28.7024 60H32.7585L32.1314 41.5529L41.2976 29.3976Z" fill="#156A70"/>
</g>
<defs>
<clipPath id="clip0_391_781">
<rect width="45.2174" height="60" fill="white" transform="translate(7.875)"/>
</clipPath>
</defs>
</svg>
