<svg width="64" height="60" viewBox="0 0 64 60" fill="none" xmlns="http://www.w3.org/2000/svg">
<path d="M50.7751 37.599C50.7751 52.6489 42.317 59 31.8751 59C21.4332 59 12.9751 52.6489 12.9751 37.599C12.9751 25.337 25.5315 8.67312 30.1748 2.9089C31.0467 1.8399 32.7035 1.8399 33.5754 2.9089C38.2187 8.65216 50.7751 25.337 50.7751 37.599Z" fill="#8DCFCC"/>
<path d="M41.9282 26.3393C41.7352 26.4666 41.518 26.5728 41.325 26.7001C44.4138 34.023 44.3414 42.0039 41.9524 49.5179C42.2902 49.3693 42.6522 49.2419 42.99 49.0721C46.5857 41.8766 46.465 33.1316 41.9282 26.3605V26.3393Z" fill="#156A70"/>
<path d="M24.5249 24.6126C24.0226 24.1697 23.5705 23.6847 23.1435 23.1786C19.4516 30.876 17.9195 39.6069 20.7073 47.3466C21.3352 47.7472 21.9631 48.1268 22.6161 48.4643C20.6571 40.5981 21.9882 32.4577 24.5249 24.6126Z" fill="#156A70"/>
<path d="M28.6749 27.7033C28.4245 27.5998 28.1741 27.4963 27.9237 27.3929C24.9691 34.781 24.5935 43.1626 27.9988 50.4059C28.2492 50.4679 28.4996 50.5093 28.725 50.5714C26.8721 43.0177 27.2727 35.3398 28.6498 27.724L28.6749 27.7033Z" fill="#156A70"/>
</svg>
