<svg width="18" height="16" viewBox="0 0 18 16" fill="none" xmlns="http://www.w3.org/2000/svg">
<path d="M17.7031 5.5H11.1719C11.0773 5.5 11 5.57734 11 5.67188V8.07812C11 8.17266 11.0773 8.25 11.1719 8.25H12.2031C12.2977 8.25 12.375 8.17266 12.375 8.07812V6.875H13.6641V13.75H12.6758C12.5813 13.75 12.5039 13.8273 12.5039 13.9219V14.9531C12.5039 15.0477 12.5813 15.125 12.6758 15.125H16.1992C16.2938 15.125 16.3711 15.0477 16.3711 14.9531V13.9219C16.3711 13.8273 16.2938 13.75 16.1992 13.75H15.2109V6.875H16.5V8.07812C16.5 8.17266 16.5773 8.25 16.6719 8.25H17.7031C17.7977 8.25 17.875 8.17266 17.875 8.07812V5.67188C17.875 5.57734 17.7977 5.5 17.7031 5.5ZM12.0312 2.92188V0.171875C12.0312 0.0773437 11.9539 0 11.8594 0H0.171875C0.0773437 0 0 0.0773437 0 0.171875V2.92188C0 3.01641 0.0773437 3.09375 0.171875 3.09375H1.375C1.46953 3.09375 1.54688 3.01641 1.54688 2.92188V1.54688H5.15625V13.5781H3.17969C3.08516 13.5781 3.00781 13.6555 3.00781 13.75V14.9531C3.00781 15.0477 3.08516 15.125 3.17969 15.125H8.85156C8.94609 15.125 9.02344 15.0477 9.02344 14.9531V13.75C9.02344 13.6555 8.94609 13.5781 8.85156 13.5781H6.875V1.54688H10.4844V2.92188C10.4844 3.01641 10.5617 3.09375 10.6562 3.09375H11.8594C11.9539 3.09375 12.0312 3.01641 12.0312 2.92188Z" fill="white"/>
</svg>
