<svg width="44" height="44" viewBox="0 0 44 44" fill="none" xmlns="http://www.w3.org/2000/svg">
<rect x="0.5" y="0.5" width="43" height="43" rx="21.5" fill="#156A70"/>
<rect x="0.5" y="0.5" width="43" height="43" rx="21.5" stroke="#156A70"/>
<path fill-rule="evenodd" clip-rule="evenodd" d="M9 10.95C9 9.87304 9.87304 9 10.95 9H21.35C22.4269 9 23.3 9.87304 23.3 10.95V20.7H33.0499C34.1269 20.7 34.9999 21.5731 34.9999 22.65V33.05C34.9999 34.127 34.1269 35 33.0499 35H22.6499C21.573 35 20.6999 34.127 20.6999 33.05V23.3H10.95C9.87304 23.3 9 22.4269 9 21.35V10.95ZM26.6666 12.9999C27.2356 12.9999 27.7991 13.112 28.3249 13.3298C28.8506 13.5475 29.3283 13.8667 29.7307 14.2691C30.1331 14.6715 30.4523 15.1492 30.67 15.6749C30.8878 16.2007 30.9999 16.7642 30.9999 17.3332H29.7174C29.7174 16.9326 29.6385 16.5359 29.4852 16.1657C29.3318 15.7956 29.1071 15.4593 28.8238 15.176C28.5405 14.8927 28.2042 14.668 27.8341 14.5146C27.4639 14.3613 27.0672 14.2824 26.6666 14.2824V12.9999ZM17.3338 30.9999C16.7647 30.9999 16.2012 30.8878 15.6755 30.67C15.1498 30.4523 14.672 30.1331 14.2697 29.7307C13.8673 29.3283 13.5481 28.8506 13.3303 28.3249C13.1125 27.7991 13.0005 27.2356 13.0005 26.6666H14.283C14.283 27.0672 14.3619 27.4639 14.5152 27.8341C14.6685 28.2042 14.8932 28.5405 15.1765 28.8238C15.4598 29.1071 15.7961 29.3318 16.1663 29.4852C16.5364 29.6385 16.9331 29.7174 17.3338 29.7174V30.9999Z" fill="white"/>
<path d="M11.8819 12.7014H20.5277V17.8371H19.2104V13.9086H13.1469V17.8882H11.8819V12.7014ZM12.5405 16.1081H19.9422V17.3153H12.5405V16.1081ZM15.5096 10.9213H16.8373V20.5277H15.5096V10.9213Z" fill="#156A70"/>
<path d="M24.3702 32.0554L27.191 24.3702H29.1921L32.0554 32.0554H30.3204L29.6711 30.1005H26.6907L26.0414 32.0554H24.3702ZM27.0313 28.9213H29.3304L29.0324 28.0628C28.7663 27.256 28.4683 26.3562 28.1915 25.5287H28.1489C27.8935 26.3665 27.5954 27.256 27.3293 28.0628L27.0313 28.9213Z" fill="#156A70"/>
</svg>
