<svg width="44" height="44" viewBox="0 0 44 44" fill="none" xmlns="http://www.w3.org/2000/svg">
<rect x="0.5" y="0.5" width="43" height="43" rx="21.5" fill="#165359"/>
<rect x="0.5" y="0.5" width="43" height="43" rx="21.5" stroke="#165359"/>
<path d="M30.7031 19.5H24.1719C24.0773 19.5 24 19.5773 24 19.6719V22.0781C24 22.1727 24.0773 22.25 24.1719 22.25H25.2031C25.2977 22.25 25.375 22.1727 25.375 22.0781V20.875H26.6641V27.75H25.6758C25.5813 27.75 25.5039 27.8273 25.5039 27.9219V28.9531C25.5039 29.0477 25.5813 29.125 25.6758 29.125H29.1992C29.2938 29.125 29.3711 29.0477 29.3711 28.9531V27.9219C29.3711 27.8273 29.2938 27.75 29.1992 27.75H28.2109V20.875H29.5V22.0781C29.5 22.1727 29.5773 22.25 29.6719 22.25H30.7031C30.7977 22.25 30.875 22.1727 30.875 22.0781V19.6719C30.875 19.5773 30.7977 19.5 30.7031 19.5ZM25.0312 16.9219V14.1719C25.0312 14.0773 24.9539 14 24.8594 14H13.1719C13.0773 14 13 14.0773 13 14.1719V16.9219C13 17.0164 13.0773 17.0938 13.1719 17.0938H14.375C14.4695 17.0938 14.5469 17.0164 14.5469 16.9219V15.5469H18.1562V27.5781H16.1797C16.0852 27.5781 16.0078 27.6555 16.0078 27.75V28.9531C16.0078 29.0477 16.0852 29.125 16.1797 29.125H21.8516C21.9461 29.125 22.0234 29.0477 22.0234 28.9531V27.75C22.0234 27.6555 21.9461 27.5781 21.8516 27.5781H19.875V15.5469H23.4844V16.9219C23.4844 17.0164 23.5617 17.0938 23.6562 17.0938H24.8594C24.9539 17.0938 25.0312 17.0164 25.0312 16.9219Z" fill="white"/>
</svg>
