<svg width="61" height="60" viewBox="0 0 61 60" fill="none" xmlns="http://www.w3.org/2000/svg">
<g clip-path="url(#clip0_391_774)">
<path d="M20.2547 22.8715C29.1148 29.8258 28.995 43.0284 28.995 43.0284C28.995 43.0284 16.8274 42.3375 8.86533 34.3768C0.888283 26.4313 0.125 14.22 0.125 14.22C0.125 14.22 10.9756 15.5868 20.2547 22.8715Z" fill="#8DCFCC"/>
<path d="M52.2527 29.5254C42.764 40.3999 27.2889 42.3675 27.2889 42.3675C27.2889 42.3675 27.2589 37.516 28.8603 31.3428C30.9556 23.3071 35.5802 16.3678 43.0933 12.9132C53.435 8.13684 59.9903 3.01501 59.9903 3.01501C59.9903 3.01501 61.7264 18.6659 52.2377 29.5404L52.2527 29.5254Z" fill="#8DCFCC"/>
<path d="M27.753 36.72C26.9298 43.6442 27.2142 50.7937 28.3666 57.6429H31.5245C29.9231 51.5748 29.2346 43.1485 29.3992 36.72H27.753Z" fill="#156A70"/>
</g>
<defs>
<clipPath id="clip0_391_774">
<rect width="60" height="54.6429" fill="white" transform="translate(0.125 3)"/>
</clipPath>
</defs>
</svg>
