<svg xmlns="http://www.w3.org/2000/svg" xmlns:xlink="http://www.w3.org/1999/xlink" width="43.75" height="50.001" viewBox="0 0 43.75 50.001">
  <defs>
    <clipPath id="clip-path">
      <rect id="長方形_258" data-name="長方形 258" width="43.75" height="50.001" fill="none"/>
    </clipPath>
  </defs>
  <g id="グループ_701" data-name="グループ 701" transform="translate(0 -0.001)">
    <g id="グループ_557" data-name="グループ 557" transform="translate(0 0.001)" clip-path="url(#clip-path)">
      <path id="パス_417" data-name="パス 417" d="M37.855,822.857c-2.612.277-4.426-.4-7.28-1.379-.824-.283-1.984-.692-3.338-1.18,3.6-1.28,6.706-2.321,8.219-2.729,2.506-.675,2.941-.282,4.86-.427,1.746-.131,4.054-1.139,3.28-3.508-.39-1.193-.638-.814-1.43-1.353-.769-.524-.635-1.476-1.12-2.142-1.112-1.526-2.8-.511-3.514.515a11.307,11.307,0,0,1-2.131,2.188c-.71.61-7.438,3.224-13.527,5.489-6.089-2.265-12.817-4.879-13.526-5.488a11.341,11.341,0,0,1-2.13-2.188c-.712-1.026-2.4-2.042-3.514-.515-.486.666-.352,1.62-1.121,2.142-.792.539-1.04.161-1.43,1.353-.774,2.368,1.534,3.377,3.279,3.508,1.92.145,2.355-.25,4.861.428,1.513.407,4.618,1.449,8.217,2.728-1.353.488-2.512.9-3.336,1.18-2.855.979-4.668,1.656-7.28,1.379C3.72,822.626.713,821.4.026,824.782c-.245,1.2,1.387,1.791,1.735,2.975a2.96,2.96,0,0,0,1.8,2.421c2.488,1.191,3.158-1.762,6.246-3.159,2.57-1.162,7.3-3.007,12.067-4.774,4.769,1.766,9.5,3.613,12.069,4.775,3.089,1.4,3.759,4.35,6.247,3.159a2.959,2.959,0,0,0,1.8-2.421c.348-1.185,1.98-1.775,1.735-2.975-.688-3.383-3.694-2.157-5.869-1.926" transform="translate(0 -780.455)" fill="#fff"/>
      <path id="パス_418" data-name="パス 418" d="M246.846,19.85a4.3,4.3,0,0,1-.2-3.786,8.834,8.834,0,0,0,.946-5.346,11.9,11.9,0,0,0-3.341-7.072C240.694.217,237.155,0,233.777,0s-6.915.216-10.466,3.646a11.912,11.912,0,0,0-3.341,7.072,8.842,8.842,0,0,0,.947,5.347,4.306,4.306,0,0,1-.205,3.786,3.771,3.771,0,0,0-.959,2.569,3.127,3.127,0,0,0,1.688,2.637c1,.426.968.13,2.352.31,1.282.167,1.727,1.39,2.005,2.559s.278,2.152,1.115,2.653a16.953,16.953,0,0,0,13.734,0c.835-.5.835-1.485,1.115-2.653s.724-2.392,2-2.559c1.387-.181,1.352.113,2.353-.311a3.129,3.129,0,0,0,1.688-2.637,3.77,3.77,0,0,0-.959-2.568M226.32,22.808a3.8,3.8,0,0,1-2.62-1.678,3.839,3.839,0,0,1-.363-2.528c.3-1.6,1.066-2.853,2.864-2.918,1.9-.066,5.585.117,5.889,2.6a4.024,4.024,0,0,1-2.056,4,6.67,6.67,0,0,1-3.715.521m9.764,4.71a1.607,1.607,0,0,1-1.462-.108,2.545,2.545,0,0,0-.83-.436,2.6,2.6,0,0,0-.856.436,1.6,1.6,0,0,1-1.462.108c-.482-.09-.7-.91-.411-1.782a19.592,19.592,0,0,1,1.2-2.337c.234-.446.691-1.54,1.5-1.058h.035c.809-.482,1.259.662,1.493,1.108a19.6,19.6,0,0,1,1.205,2.288c.294.872.071,1.693-.411,1.782m7.772-6.388a3.792,3.792,0,0,1-2.617,1.678,6.677,6.677,0,0,1-3.717-.521,4.027,4.027,0,0,1-2.057-4c.3-2.487,3.984-2.671,5.889-2.6,1.8.064,2.563,1.313,2.863,2.917a3.842,3.842,0,0,1-.362,2.529" transform="translate(-211.903 -0.001)" fill="#fff"/>
    </g>
  </g>
</svg>
