<svg xmlns="http://www.w3.org/2000/svg" xmlns:xlink="http://www.w3.org/1999/xlink" width="203.06" height="203.06" viewBox="0 0 203.06 203.06">
  <defs>
    <clipPath id="clip-path">
      <rect id="長方形_245" data-name="長方形 245" width="143.585" height="143.585" fill="none"/>
    </clipPath>
  </defs>
  <g id="グループ_738" data-name="グループ 738" transform="translate(-248.23 -5524.97)">
    <g id="グループ_684" data-name="グループ 684" transform="translate(248.23 5626.5) rotate(-45)">
      <g id="グループ_546" data-name="グループ 546" clip-path="url(#clip-path)">
        <path id="パス_400" data-name="パス 400" d="M0,71.792a71.74,71.74,0,0,0,71.793,71.793,71.471,71.471,0,0,0,41.825-13.44l26.726,4.806-5.795-28.272A71.8,71.8,0,1,0,0,71.792" fill="#ffda00"/>
        <path id="パス_401" data-name="パス 401" d="M60.24,138.694A67.854,67.854,0,0,1,4.87,83.243a68.745,68.745,0,0,1-.961-11.45,67.883,67.883,0,1,1,127.224,32.985l-.705,1.267,4.927,24.037-22.673-4.076-1.344.964a67.413,67.413,0,0,1-39.546,12.706,68.281,68.281,0,0,1-11.552-.982m71.789-11.858-4.349-21.215,1.176-2.111A65.281,65.281,0,1,0,6.515,71.793,65.986,65.986,0,0,0,7.44,82.807a65.289,65.289,0,0,0,102.378,42.046l2.239-1.608Z" fill="#fff"/>
      </g>
    </g>
    <path id="パス_552" data-name="パス 552" d="M-30.625-22.19c1.085-1.19,2.065-2.415,2.065-3.43a2.174,2.174,0,0,0-2.485-2.1H-39.13a2.33,2.33,0,0,0-2.275-2,2.26,2.26,0,0,0-1.715.945,32.366,32.366,0,0,1-5.355,4.585c-2.415,1.61-2.695,1.785-2.695,2.8a2.03,2.03,0,0,0,2.1,1.925,4.218,4.218,0,0,0,1.645-.385c.315,1.19.84,1.19,2.73,1.19H-26.32c.42,0,.875.07.875.77v1.225H-45.15c-1.33,0-2.8,0-2.8,1.75s1.47,1.75,2.8,1.75h19.705v.84c0,.455,0,1.155-.805,1.155H-45.5c-1.155,0-2.8.035-2.8,1.995,0,1.785,1.89,1.785,2.8,1.785h8.925a1.889,1.889,0,0,0-.28,1.05,1.245,1.245,0,0,0,.175.665c.07.07,1.96,2.31,2.31,2.73.77.91,1.015,1.19,1.82,1.19a2.153,2.153,0,0,0,2.17-2c0-.8-.63-1.68-2.555-3.64h8.19A3.368,3.368,0,0,0-21.14-10.99v-7.98a3.253,3.253,0,0,0-3.57-3.22Zm-13.265,0c.525-.42,1.435-1.19,2.555-2.2h6.685c.105,0,.49,0,.49.21a7.687,7.687,0,0,1-1.855,1.995ZM-51.52.7a2,2,0,0,0,1.89,1.89,2.556,2.556,0,0,0,2.135-1.3C-46.1-.6-45.01-3.08-45.01-4.165c0-1.505-1.54-1.96-2.31-1.96a1.5,1.5,0,0,0-1.19.56c-.315.35-1.26,2.45-1.54,2.9C-51.38-.455-51.52-.21-51.52.7Zm12.285-4.62c0-1.4,0-2.8-1.995-2.8-2.03,0-2.03,1.715-2.03,2.8V-.805c0,2.03,1.085,3.57,5.005,3.57h7.7c4.62,0,4.935-4.48,4.935-4.725,0-1.575-1.61-1.96-2.205-1.96a1.654,1.654,0,0,0-1.61,1.19c-.28.945-.56,1.785-2.2,1.785H-37.8c-1.33,0-1.435-.56-1.435-1.33Zm13.685-.595A1.694,1.694,0,0,0-25.2-3.5c.21.315,1.155,1.785,1.365,2.135,1.785,3.045,1.89,3.115,2.8,3.115a2.22,2.22,0,0,0,2.31-2.03c0-1.12-.98-2.555-2.1-4.235-1.19-1.82-1.75-2.1-2.52-2.1A2.209,2.209,0,0,0-25.55-4.515ZM-12.81-21.49h-.63c-1.785,0-2.8,0-2.8,2.205,0,1.89,1.3,1.89,2.8,1.89h.63v12.18c-.35.07-2.2.21-2.59.35A2.053,2.053,0,0,0-16.625-2.9a2.022,2.022,0,0,0,2.1,2.17A24.353,24.353,0,0,0-6.86-2.45,1.837,1.837,0,0,0-5.495-4.13c0-.84-.49-2.275-1.855-2.275a4.876,4.876,0,0,0-1.33.28V-17.4c1.82,0,2.03,0,2.52-.455v2.73c0,1.82.945,3.01,2.835,3.01h15.75c1.89,0,2.835-1.19,2.835-3.01v-7.595c0-1.82-.945-2.975-2.835-2.975h-1.47a4.915,4.915,0,0,0,.63-1.995,2.143,2.143,0,0,0-2.24-1.96,1.783,1.783,0,0,0-1.68.98c-.21.42-1.12,2.52-1.33,2.975H2.94C2.73-26.11,1.75-28.1,1.5-28.525A1.855,1.855,0,0,0-.175-29.54c-.7,0-2.275.56-2.275,1.89,0,.385.1.56.77,1.96H-3.325c-1.925,0-2.835,1.19-2.835,2.975v1.68c-.49-.455-.7-.455-2.52-.455V-25.9c0-1.785,0-2.8-2.2-2.8-1.925,0-1.925,1.3-1.925,2.8Zm15.26.84H-2.065v-.595c0-.35,0-.805.8-.805H2.45Zm4.06-1.4h3.85c.805,0,.805.455.805.805v.595H6.51Zm0,4.76h4.655v.7c0,.35,0,.84-.805.84H6.51ZM2.45-15.75H-1.26c-.8,0-.8-.49-.8-.84v-.7H2.45Zm-3.5,4.9c-2.485,0-3.92.525-3.92,4.13v4.55c0,3.43,1.225,4.13,3.92,4.13H10.08C12.6,1.96,14,1.435,14-2.17V-6.72c0-3.43-1.225-4.13-3.92-4.13Zm.245,4.725c0-1.015,0-1.26.84-1.26H9c.84,0,.84.245.84,1.26ZM9.835-2.94v.63c0,.735-.35.8-.84.8H.035c-.455,0-.84-.035-.84-.8v-.63ZM37.03-24.22v-2.1c0-1.82,0-2.8-2.31-2.8-1.96,0-1.96,1.26-1.96,2.8v2.1H23.45a3.153,3.153,0,0,0-3.465,3.43V-10.5A3.146,3.146,0,0,0,23.45-7.07h9.31V.175c0,1.855,0,2.8,2.345,2.8,1.925,0,1.925-1.225,1.925-2.8V-7.07h9.555A3.153,3.153,0,0,0,50.05-10.5V-20.79a3.16,3.16,0,0,0-3.465-3.43Zm7.735,4.165c.91,0,1.12,0,1.12,1.05v6.65c0,1.015-.21,1.015-1.12,1.015H37.03v-8.715ZM25.27-11.34c-.91,0-1.12,0-1.12-1.015V-19c0-1.05.21-1.05,1.12-1.05h7.49v8.715Z" transform="matrix(0.966, -0.259, 0.259, 0.966, 359.82, 5653.66)"/>
    <path id="パス_551" data-name="パス 551" d="M-35.8-14.768l3.094-.1c.442-.026,2.028-.078,2.028-1.638a1.789,1.789,0,0,0-.78-1.43c-.364-.234-.624-.234-1.586-.208l-2.756.078v-.676c0-1.326,0-2.782-1.716-2.782s-1.716,1.456-1.716,2.782v.78l-4.316.13c-.754.026-2.106.078-2.106,1.69,0,.364.13,1.716,2,1.638l4.42-.156v2.574c-3.042.91-6.864,3.276-6.864,7.228A6.3,6.3,0,0,0-39.572,1.3a3.858,3.858,0,0,0,3.51-1.664,5.254,5.254,0,0,0,.26-2.288V-9.178a8.935,8.935,0,0,1,2.028-.208c1.378,0,6.006.182,6.006,3.536,0,2.548-2.418,3.3-4.16,3.536-1.4.208-2.548.364-2.548,1.846a1.708,1.708,0,0,0,1.95,1.82C-27.846,1.352-24-1.56-24-5.876c0-4.368-4.16-6.89-9.594-6.89a13.123,13.123,0,0,0-2.21.156ZM-39.234-3.562c0,.962-.026,1.248-.6,1.248a2.545,2.545,0,0,1-2.574-2.652c0-.728.286-2.6,3.172-3.38Zm15.99-10.79c0-.624-1.248-2.366-1.768-3.094-1.9-2.652-2.6-3.016-3.3-3.016A1.69,1.69,0,0,0-29.978-18.8a1.882,1.882,0,0,0,.6,1.352A28.88,28.88,0,0,1-27.4-14.82c1.326,2.08,1.482,2.314,2.366,2.314A1.8,1.8,0,0,0-23.244-14.352Zm19.786,3.224v9.282c0,.468,0,.884-.676.884-.234,0-1.482-.26-1.768-.26A1.283,1.283,0,0,0-7.15.156a1.343,1.343,0,0,0,.78,1.3,12.13,12.13,0,0,0,3.276.52c1.794,0,2.626-.52,2.626-2.652v-18.46a1.982,1.982,0,0,0-2.21-1.976H-8.554c-1.924,0-2.262.858-2.262,2.6v4.6c0,1.638.338,2.782,2.7,2.782Zm0-3.822v1.04H-7.436c-.468,0-.468-.078-.468-.572v-.468ZM-7.9-17.576c0-.884,0-.936.6-.936h3.2c.65,0,.65.234.65.936ZM-15.5-9.906A1.843,1.843,0,0,0-17.368-8.06v5.2a2.19,2.19,0,0,0,.728,1.69,2.923,2.923,0,0,0,1.43.52h7.254A1.879,1.879,0,0,0-6.526-1.4a2.551,2.551,0,0,0,.338-1.508V-7.826c0-2.054-2.158-2.08-2.314-2.08Zm5.8,2.782c.182,0,.65,0,.65.494v2.34c0,.468,0,.65-.624.65H-13.7c-.52,0-.7-.1-.7-.624V-6.6c0-.338.156-.52.572-.52Zm-10.114-4h5.018a2.423,2.423,0,0,0,1.69-.65,2.735,2.735,0,0,0,.572-1.846v-5.1a2.4,2.4,0,0,0-2.236-2.392H-20.54c-1.768,0-2.392.936-2.392,2.314V-.078c0,1.378,0,2.106,1.69,2.106,1.43,0,1.43-.962,1.43-2.106Zm0-6.448v-.468c0-.468.234-.468.494-.468h3.25c.182,0,.494.052.494.442v.494Zm4.238,2.626v.572c0,.364-.1.468-.416.468h-3.822v-1.04ZM16.64-12.012c1.014,0,2.08,0,2.08-1.482a2.469,2.469,0,0,0-.078-.546,13.556,13.556,0,0,0,3.51,1.586A1.812,1.812,0,0,0,23.738-14.3c0-.78-.52-1.118-1.248-1.456a44.18,44.18,0,0,1-8.268-4.914C12.48-22,12.428-22.048,11.674-22.048c-.962,0-1.248.234-2.34,1.144A32.736,32.736,0,0,1,1.586-16.12c-1.3.546-1.95.858-1.95,1.95A1.558,1.558,0,0,0,.988-12.532c.988,0,3.25-1.2,3.718-1.43a1.321,1.321,0,0,0-.078.442c0,1.508,1.04,1.508,2.08,1.508ZM6.4-14.95A37.571,37.571,0,0,0,11.1-18.46c.312-.26.442-.312.546-.312.26,0,.6.286.858.494a41.1,41.1,0,0,0,4.576,3.328Zm14.222,7.8a2.347,2.347,0,0,0-2.47-2.47H5.044a2.361,2.361,0,0,0-2.47,2.47v6.11a2.368,2.368,0,0,0,2.47,2.5h13.1a2.382,2.382,0,0,0,2.47-2.5ZM17.5-2.106a.517.517,0,0,1-.572.572H6.266a.5.5,0,0,1-.546-.572V-6.084a.5.5,0,0,1,.546-.572h10.66a.509.509,0,0,1,.572.572ZM31.486-12.454l7.306-.286c-.052,2.652-.156,3.224-1.248,3.224-.182,0-.988-.156-1.17-.156A1.678,1.678,0,0,0,34.71-7.93c0,1.4,1.066,1.872,3.068,1.872,4.056,0,4.264-2.782,4.42-6.812l1.612-.052c1.508-.052,2.7-.1,2.7-1.768,0-1.638-1.456-1.56-2.808-1.534L42.25-16.2c.026-.494.078-2.964.078-3.094A1.592,1.592,0,0,0,40.56-21.06a1.468,1.468,0,0,0-1.586,1.248c-.052.286-.1,3.224-.13,3.718l-7.358.234v-2.314c0-1.326,0-2.756-1.742-2.756S28-19.5,28-18.174v2.418l-2.236.052c-1.352.026-2.73.078-2.73,1.768,0,1.82,1.534,1.768,2.834,1.716l2.132-.1v7.176c0,4,1.118,5.85,9,5.85,7.618,0,7.878-1.066,7.878-2.262a1.665,1.665,0,0,0-1.638-1.82,15.091,15.091,0,0,0-1.664.234,36.175,36.175,0,0,1-4.914.338c-5.1,0-5.174-.7-5.174-3.692Z" transform="matrix(0.966, -0.259, 0.259, 0.966, 346.674, 5616.658)"/>
  </g>
</svg>
