<svg xmlns="http://www.w3.org/2000/svg" xmlns:xlink="http://www.w3.org/1999/xlink" width="203.06" height="203.06" viewBox="0 0 203.06 203.06">
  <defs>
    <clipPath id="clip-path">
      <rect id="長方形_245" data-name="長方形 245" width="143.585" height="143.585" fill="none"/>
    </clipPath>
  </defs>
  <g id="グループ_732" data-name="グループ 732" transform="translate(-214.874 -3084.94)">
    <g id="グループ_594" data-name="グループ 594" transform="translate(214.874 3186.47) rotate(-45)">
      <g id="グループ_546" data-name="グループ 546" clip-path="url(#clip-path)">
        <path id="パス_400" data-name="パス 400" d="M0,71.792a71.74,71.74,0,0,0,71.793,71.793,71.471,71.471,0,0,0,41.825-13.44l26.726,4.806-5.795-28.272A71.8,71.8,0,1,0,0,71.792" fill="#ffda00"/>
        <path id="パス_401" data-name="パス 401" d="M60.24,138.694A67.854,67.854,0,0,1,4.87,83.243a68.745,68.745,0,0,1-.961-11.45,67.883,67.883,0,1,1,127.224,32.985l-.705,1.267,4.927,24.037-22.673-4.076-1.344.964a67.413,67.413,0,0,1-39.546,12.706,68.281,68.281,0,0,1-11.552-.982m71.789-11.858-4.349-21.215,1.176-2.111A65.281,65.281,0,1,0,6.515,71.793,65.986,65.986,0,0,0,7.44,82.807a65.289,65.289,0,0,0,102.378,42.046l2.239-1.608Z" fill="#fff"/>
      </g>
    </g>
    <path id="パス_513" data-name="パス 513" d="M-24.08-21.92a4.633,4.633,0,0,0,1.2-2.32,1.948,1.948,0,0,0-2.04-1.92v-2.2c0-2.04,0-4.24-2.68-4.24-2.64,0-2.64,2.2-2.64,4.24v2.52l-3.2.2c-2.52.16-4.12.28-4.12,2.6a2.4,2.4,0,0,0,2.6,2.56c.4,0,.52-.04,1.92-.16l2.8-.24v.36a66.227,66.227,0,0,1-4.48,7.24c-3.24,4.44-3.6,4.92-3.6,5.92a2.375,2.375,0,0,0,2.48,2.32c1.64,0,2.32-1,3.28-2.4l2.32-3.4v8.52c0,2.04,0,4.24,2.64,4.24,2.68,0,2.68-2.2,2.68-4.24v-13.4c1.92-1.92,4.84-4.84,9.6-4.84,3.4,0,7.72,1.96,7.72,7.16,0,2.96-1.32,8.32-8.84,8.56-1.8.08-3.92.12-3.92,2.76A2.724,2.724,0,0,0-17.24.72C-9.08.72-2.12-4.6-2.12-13.2c0-6.92-5.12-12.12-12.36-12.12A14.947,14.947,0,0,0-24.08-21.92ZM26-24.36c-1.64,0-4.4.04-4.92.04-.76,0-4.6-.16-4.92-.16a2.519,2.519,0,0,0-2.6,2.68c0,2.88,2.12,2.88,6.64,2.88.36,0,5.24-.08,6-.08a58.407,58.407,0,0,1-.24,8.2,9.819,9.819,0,0,1-5.88,7.52c-1.44.64-2.44,1.12-2.44,2.76a2.651,2.651,0,0,0,2.64,2.8c1.72,0,6.64-2.16,9.44-7,1.24-2.16,2-4.64,1.72-14.52,4.44-.12,6.08-.48,6.08-2.96a2.266,2.266,0,0,0-2.48-2.56c-.56,0-3.12.2-3.72.2-.12-5.04-.16-5.6-.28-6.16a2.5,2.5,0,0,0-2.56-1.92A2.532,2.532,0,0,0,25.72-30C25.72-29.2,26-25.28,26-24.36ZM9.4-10c-.08-1.04-.16-2-.16-4.56,0-.32.04-5.04.28-8.8.08-.92.72-5.48.72-5.76a2.651,2.651,0,0,0-2.88-2.64,2.509,2.509,0,0,0-2.48,2.08c-.52,2.08-.92,8.72-.92,12.64,0,.68.04,9.84.96,12.96C5.36-2.64,6.08-.92,8.2-.92a3.1,3.1,0,0,0,2.64-1.32,38.557,38.557,0,0,0,1.04-4.48c.2-.8,1.64-4.44,1.64-5.32a1.78,1.78,0,0,0-1.84-1.8C10.4-13.84,10.04-12.76,9.4-10Z" transform="matrix(0.966, -0.259, 0.259, 0.966, 326.626, 3221.287)" fill="#6b95c8"/>
    <path id="パス_512" data-name="パス 512" d="M-37.665-4.779c-.324.216-1.971,1.161-2.349,1.4-.486.3-1.026.621-1.026,1.323a1.616,1.616,0,0,0,.054.324,2.77,2.77,0,0,1-1.7-2.916v-5.778a1.985,1.985,0,0,0-1.971-2.214h-2.025c-.972,0-2.16.027-2.16,1.593,0,1.377,1.107,1.377,2.16,1.377h.432c.567,0,.567.135.567.756v5.049c0,.324.027.4.027.594-.972.729-2.673,2.187-2.943,2.4A1.351,1.351,0,0,0-49.221.243c0,.432.675,1.7,1.647,1.7a1.772,1.772,0,0,0,1.215-.621c.54-.459,1.4-1.215,1.944-1.674.27.324,1.512,1.863,4.941,1.863h13.419c1.188,0,2.16,0,2.16-1.485C-23.9-1.35-25-1.35-25.6-1.35a2.117,2.117,0,0,0,.405-1.161,1.111,1.111,0,0,0-.783-1.053c-1.188-.594-1.35-.675-2.3-1.215h2c1.107,0,2.16,0,2.16-1.377-.027-1.4-1.053-1.4-2.16-1.4H-28.62V-8.91h1.539c.972,0,2.133,0,2.133-1.323,0-1.35-1.161-1.35-2.133-1.35H-28.62a1.511,1.511,0,0,0-.3-1.053h2.511c1.512,0,2.349-2,2.349-2.781,0-.972-1.053-1.377-1.62-1.4a1.567,1.567,0,0,0,.567-1.188v-2.619a1.764,1.764,0,0,0-1.809-1.7h-4.023c-.972,0-2.187,0-2.187,1.323,0,1.134.918,1.134,2.187,1.134h2.673c.405,0,.405.054.405.459,0,.513-.081.513-.648.513h-2.673a1.583,1.583,0,0,0-1.674,1.674v2.646a2.043,2.043,0,0,0,1.566,1.89,1.389,1.389,0,0,0-.378,1.107H-34.56a1.356,1.356,0,0,0-.4-1.134,2.791,2.791,0,0,0,1.809-2.349c0-1.161-1.269-1.431-1.62-1.431-.7,0-.972.486-1.215.945a.551.551,0,0,1-.567.378h-1.809c-.513,0-.513-.189-.513-.648,0-.594,0-.675.486-.675h2.565a1.778,1.778,0,0,0,1.863-1.62v-2.565a1.784,1.784,0,0,0-1.944-1.647h-3.942c-.945,0-2.133,0-2.133,1.269,0,1.188.945,1.188,2.133,1.188h2.646c.378,0,.432.027.432.432,0,.54-.054.54-.594.54H-40.2a1.449,1.449,0,0,0-1.458,1.647v2.727c0,1.08.837,1.89,2.295,1.89h2.052a1.511,1.511,0,0,0-.3,1.053H-39.5c-1,0-2.16,0-2.16,1.35,0,1.323,1.161,1.323,2.16,1.323h1.89v1.35h-2.511c-1.107,0-2.133,0-2.133,1.4,0,1.377,1.026,1.377,2.133,1.377Zm5.913,0a.925.925,0,0,0-.108.486c0,.675.405,1,.972,1.377A15.359,15.359,0,0,0-28.08-1.35h-9.5c2.808-1.539,2.97-1.971,2.97-2.457a2.039,2.039,0,0,0-.351-.972Zm.081-2.781H-34.56V-8.91h2.889Zm2.322-7.614C-30-15.174-30-15.255-30-16.2c0-.243.243-.3.486-.3h2.727a.918.918,0,0,0,.27-.027c-.054.081-.459.81-.54.918-.243.4-.324.432-.621.432ZM-42.5-17.82c0-.594-.918-1.485-2-2.511-1.674-1.62-1.863-1.809-2.457-1.809a1.976,1.976,0,0,0-1.728,1.7c0,.405,0,.594,2,2.43,1.809,1.674,2,1.836,2.565,1.836A1.79,1.79,0,0,0-42.5-17.82ZM-5.13-13.473c3.375-.054,4.779-.081,4.779-1.782,0-1.755-1.485-1.755-2.268-1.755-.081,0-2.241.054-2.619.081l-.054-1.755c-.027-1.3-.081-2.808-1.7-2.808a1.634,1.634,0,0,0-1.431.837c-.243.4-.216.918-.189,2.079l.054,1.728c-.837,0-4.968,0-5.886.108a1.653,1.653,0,0,0-1.674,1.674c0,1.782,1.7,1.782,2.3,1.782.324,0,2.727-.054,5.4-.108L-8.208-7.8a10.571,10.571,0,0,0-2.268-.27c-2.889,0-5.427,1.4-5.427,4.509,0,2.916,2.214,4.86,5.913,4.86,3.861,0,4.644-2.376,4.968-3.4C-2.943-.432-2.7-.243-2.16-.243A1.908,1.908,0,0,0-.405-2.214c0-1.539-2.349-2.97-4.482-4.077ZM-8.316-4.212a1.572,1.572,0,0,1,.081.513,1.851,1.851,0,0,1-2.052,1.728c-1.593,0-2.241-.945-2.241-1.647,0-.918,1.08-1.08,1.755-1.08A8.065,8.065,0,0,1-8.316-4.212ZM-19.791-5.886c0-2.754.027-4.1.243-6.777.081-.891.864-7.128.864-7.317A1.773,1.773,0,0,0-20.6-21.762a1.647,1.647,0,0,0-1.62,1.215,89.659,89.659,0,0,0-.945,13.365,36.1,36.1,0,0,0,.432,6.453A2.046,2.046,0,0,0-20.79.972,1.916,1.916,0,0,0-19.17.027a30.325,30.325,0,0,0,.864-3.267c.378-1.161,1.215-2.646,1.215-3.375a.973.973,0,0,0-1.053-1C-19.008-7.614-19.278-7.02-19.791-5.886ZM-5.157-22.842a.875.875,0,0,0-.675.891c0,.378.918,3.51,2.16,3.51A1.049,1.049,0,0,0-2.565-19.6c0-.243-.918-3.294-2.241-3.294A1.2,1.2,0,0,0-5.157-22.842Zm2.943-.837a.892.892,0,0,0-.7.837c0,.351.081.486.729,1.593.972,1.647,1.053,1.836,1.593,1.836A1.152,1.152,0,0,0,.567-20.6c0-.648-1.269-3.132-2.376-3.132A1.634,1.634,0,0,0-2.214-23.679ZM8.8-10.368c1.782-2.268,5.022-4.671,7.155-4.671,1.566,0,1.566,1.62,1.566,2.079,0,.837-.837,8.208-.837,9.774,0,3.321,2.106,3.537,3.321,3.537a9.435,9.435,0,0,0,3.672-.7A1.691,1.691,0,0,0,24.786-2a1.782,1.782,0,0,0-1.728-1.944,1.75,1.75,0,0,0-.783.189,2.638,2.638,0,0,1-1.053.324c-.81,0-.81-.675-.81-1.161,0-.54.756-8.856.756-9.963,0-2.727-2.268-4.023-4.455-4.023-3.159,0-5.454,2.052-6.831,3.267A2.006,2.006,0,0,0,8.8-17.28v-1.863C8.8-20.493,8.8-22,7.02-22s-1.782,1.512-1.782,2.862v1.7l-2.025.135c-1.35.081-2.754.162-2.754,1.809A1.69,1.69,0,0,0,2.214-13.77a9.017,9.017,0,0,0,1.269-.108l1.755-.189v.243A39.323,39.323,0,0,1,1.3-7.641C.243-6.264.081-5.94.081-5.4A1.962,1.962,0,0,0,1.944-3.564c.864,0,1.134-.378,2.079-1.62L5.238-6.777V-1.35c0,1.35,0,2.862,1.782,2.862S8.8,0,8.8-1.35ZM36.45-12.609a68.474,68.474,0,0,0,6.4-4A3.239,3.239,0,0,0,44.577-19.2c0-1.512-1.107-2.133-2.538-2.133-.081,0-2,.108-2.268.108-1,.054-4.374.216-6.48.216-.378,0-2.241-.054-2.646-.054-.783,0-2.349,0-2.349,1.809a1.716,1.716,0,0,0,1.782,1.782c.216,0,5.94-.189,9.342-.648-7.047,4.59-7.83,5.076-12.69,8.451a2.493,2.493,0,0,0-1.35,2.052,1.812,1.812,0,0,0,1.809,1.89c.756,0,.972-.135,2.943-1.539a12.552,12.552,0,0,1,8.343-2.754c.891,0,5.373,0,5.373,3.834,0,1.215-.7,2.673-3.294,3.7-.162-1.161-.675-4.806-5.562-4.806-3.213,0-4.968,1.863-4.968,4,0,4.455,6.048,4.455,7.074,4.455,5.157,0,10.233-2.4,10.233-7.56,0-2.457-1.62-6.723-7.938-6.723A7.466,7.466,0,0,0,36.45-12.609Zm.432,10.557c-.3.027-.459.054-.7.054-1.512,0-2.727-.729-2.727-1.485,0-.459.513-.864,1.377-.864C36.72-4.347,36.828-2.7,36.882-2.052Z" transform="matrix(0.966, -0.259, 0.259, 0.966, 315.238, 3178.787)" fill="#6b95c8"/>
  </g>
</svg>
