<svg id="コンポーネント_68_1" data-name="コンポーネント 68 – 1" xmlns="http://www.w3.org/2000/svg" xmlns:xlink="http://www.w3.org/1999/xlink" width="87.15" height="86.471" viewBox="0 0 87.15 86.471">
  <defs>
    <clipPath id="clip-path">
      <rect id="長方形_320" data-name="長方形 320" width="87.15" height="86.471" fill="none"/>
    </clipPath>
  </defs>
  <g id="グループ_664" data-name="グループ 664">
    <path id="パス_486" data-name="パス 486" d="M0,153.942l7.717,7.542V146.292Z" transform="translate(0 -75.013)" fill="#f4b002"/>
    <g id="グループ_663" data-name="グループ 663">
      <g id="グループ_662" data-name="グループ 662" clip-path="url(#clip-path)">
        <path id="パス_487" data-name="パス 487" d="M0,9.47V78.929L79.63,0H9.47A9.47,9.47,0,0,0,0,9.47" fill="#ffda00"/>
        <path id="パス_488" data-name="パス 488" d="M155.084,0,162.6,7.83H147.151Z" transform="translate(-75.453 0)" fill="#f4b002"/>
      </g>
    </g>
  </g>
  <path id="パス_574" data-name="パス 574" d="M-19.608-6.6h-.744c-1.1,0-1.92,0-1.92,1.344,0,1.248.936,1.248,1.92,1.248H-3.6c1.08,0,1.92,0,1.92-1.344C-1.68-6.6-2.568-6.6-3.84-6.6v-3.576h.984c1.152,0,1.92,0,1.92-1.44,0-1.3-.888-1.3-1.92-1.3H-3.84v-3.024c1.3,0,2.088,0,2.088-1.392,0-1.248-.936-1.248-1.92-1.248H-17.28a1.5,1.5,0,0,0,.048-.384c0-1.08-1.224-1.416-1.7-1.416a1.078,1.078,0,0,0-.984.624A13.758,13.758,0,0,1-22.176-16.8c-.576.552-.84.84-.84,1.3A1.6,1.6,0,0,0-21.5-14.016c.552,0,.7-.144,1.9-1.392v2.5h-1.44c-1.152,0-1.92,0-1.92,1.44,0,1.3.912,1.3,1.92,1.3h1.44Zm8.616-9.336v3.024h-1.56v-3.024Zm0,5.76V-6.6h-1.56v-3.576Zm-5.784,0h1.512V-6.6h-1.512Zm0-5.76h1.512v3.024h-1.512Zm10.248,0v3.024H-8.28v-3.024Zm0,5.76V-6.6H-8.28v-3.576ZM-19.56-3.6a.978.978,0,0,0-.96.336c-.216.312-.864,1.368-1.056,1.608C-22.728-.1-22.848.1-22.848.5c0,.768.96,1.368,1.488,1.368.456,0,.768-.072,1.872-1.656a5.853,5.853,0,0,0,1.2-2.544C-18.288-3.312-19.344-3.552-19.56-3.6Zm5.208.024c-.288,0-1.584,0-1.584,1.2,0,.312.7,2.544.864,3.072.192.648.384,1.272,1.3,1.272.864,0,1.464-.48,1.464-1.2A29.988,29.988,0,0,0-13.2-2.448C-13.536-3.5-14.16-3.576-14.352-3.576Zm4.92-.168A1.222,1.222,0,0,0-10.8-2.592,26.391,26.391,0,0,0-9.576.888a1.131,1.131,0,0,0,1.1.816c.048,0,1.464,0,1.464-1.224A14.56,14.56,0,0,0-8.232-2.736C-8.352-3.024-8.688-3.744-9.432-3.744Zm4.968.264a1.236,1.236,0,0,0-1.1,1.2c0,.264.216.624.72,1.536C-3.432,1.728-3.36,1.872-2.784,1.872c.288,0,1.536-.312,1.536-1.3C-1.248-.168-2.28-1.608-2.9-2.5-3.288-3.072-3.72-3.6-4.464-3.48Zm14.3-7.128c.96,0,1.752,0,1.9-.96a23.225,23.225,0,0,1,2.4,2.016c.576.552.744.7,1.3.7a1.387,1.387,0,0,0,1.392-1.368c0-.432,0-.84-1.944-2.328-1.128-.864-1.824-1.392-2.4-1.392a1.349,1.349,0,0,0-1.176.864c-.312-.216-.576-.216-1.464-.216H7.872v-4.8c0-1.128,0-1.92-1.392-1.92-1.272,0-1.272.936-1.272,1.92v4.8H2.976c-1.152,0-1.92,0-1.92,1.416,0,1.272.912,1.272,1.92,1.272H4.608A25.1,25.1,0,0,1,1.44-4.68C.624-3.6.552-3.48.552-3.1A1.435,1.435,0,0,0,1.944-1.752a1.357,1.357,0,0,0,1.1-.672,17.831,17.831,0,0,0,2.16-3.552V0c0,1.128,0,1.92,1.416,1.92C7.872,1.92,7.872.984,7.872,0V-6.672c.5.792,1.512,2.184,2.4,2.184a1.034,1.034,0,0,0,.408-.072c.072.336.24,1.152,1.128,1.152a6.235,6.235,0,0,0,1.008-.144L18.6-4.608V-.144c0,.96,0,1.992,1.416,1.992,1.392,0,1.392-1.032,1.392-1.992V-5.136c1.32-.24,1.968-.36,1.968-1.44a1.338,1.338,0,0,0-1.224-1.44,3.652,3.652,0,0,0-.744.1V-18.264c0-.96,0-1.992-1.392-1.992-1.416,0-1.416,1.032-1.416,1.992V-7.416L12.336-6.264a3.319,3.319,0,0,0-.768.168,2.739,2.739,0,0,0-.648-1.08,26.017,26.017,0,0,1-2.736-3.432ZM4.656-14.88a1.076,1.076,0,0,0,.024-.288,12.927,12.927,0,0,0-.744-2.808c-.36-.936-.6-1.608-1.44-1.608a1.261,1.261,0,0,0-1.3,1.176c0,.216.624,2.088.72,2.472.408,1.416.552,1.92,1.44,1.92A1.256,1.256,0,0,0,4.656-14.88Zm7.368-3.7a1.242,1.242,0,0,0-1.344-1.176,1.026,1.026,0,0,0-.936.48,9.121,9.121,0,0,0-.456,1.728c-.072.36-.6,2.088-.6,2.472,0,.912.96,1.128,1.32,1.128.768,0,1.056-.72,1.2-1.056A19.026,19.026,0,0,0,12.024-18.576Zm5.856,3.288c0-.5,0-.816-1.776-2.232-1.488-1.2-1.752-1.2-2.064-1.2A1.448,1.448,0,0,0,12.7-17.328c0,.552.168.7,1.8,2.016,1.44,1.2,1.584,1.32,2.088,1.32A1.318,1.318,0,0,0,17.88-15.288Z" transform="translate(33.575 33.948) rotate(-45)" fill="#6b95c8"/>
</svg>
