<svg xmlns="http://www.w3.org/2000/svg" width="50" height="50" viewBox="0 0 50 50">
  <g id="グループ_740" data-name="グループ 740" transform="translate(-588 -5985)">
    <path id="パス_556" data-name="パス 556" d="M25,0A25,25,0,1,1,0,25,25,25,0,0,1,25,0Z" transform="translate(588 5985)" fill="#c8806b"/>
    <path id="パス_555" data-name="パス 555" d="M16.744-6.524c-.028-.476-.028-.868-.028-1.26,0-.644.028-1.232.112-2.324l.672-8.484c.112-1.54.2-2.38.392-4H10.108c.2,1.792.28,2.632.392,4l.672,8.484c.14,1.708.14,1.792.14,2.044a12.448,12.448,0,0,1-.056,1.54Zm.56,7.84V-4.872H10.7V1.316Z" transform="translate(599 6021)"/>
  </g>
</svg>
