<svg id="コンポーネント_62_1" data-name="コンポーネント 62 – 1" xmlns="http://www.w3.org/2000/svg" xmlns:xlink="http://www.w3.org/1999/xlink" width="68.41" height="65.164" viewBox="0 0 68.41 65.164">
  <defs>
    <clipPath id="clip-path">
      <rect id="長方形_241" data-name="長方形 241" width="68.41" height="65.164" fill="none"/>
    </clipPath>
  </defs>
  <g id="グループ_542" data-name="グループ 542" clip-path="url(#clip-path)">
    <path id="パス_397" data-name="パス 397" d="M68.41,26.692a24.1,24.1,0,0,1-5,15.3,49.772,49.772,0,0,1-7.3,7.7A127.109,127.109,0,0,1,37.7,62.813c-1.333.792-2.763,1.421-4.163,2.093a2.739,2.739,0,0,1-1.057.256c-.9.039-1.368-.405-1.264-1.469.1-.988.285-1.966.451-2.947a11.025,11.025,0,0,0,.173-3.334,2.089,2.089,0,0,0-1.216-1.618,8.588,8.588,0,0,0-2.875-.831,38.654,38.654,0,0,1-8.774-2.371,33.65,33.65,0,0,1-9.4-5.581A26.117,26.117,0,0,1,.523,32.546,21.685,21.685,0,0,1,.053,26.3,24.066,24.066,0,0,1,5.477,12.71a32.325,32.325,0,0,1,12.6-9.43A39.3,39.3,0,0,1,31.93.062,39.631,39.631,0,0,1,53.057,4.593,29.9,29.9,0,0,1,65.25,16.081,22.438,22.438,0,0,1,68.41,26.692M34.105,26.8l6.75,9.2a1.868,1.868,0,0,0,3.456-1.153q0-6.6,0-13.21a2.442,2.442,0,0,0-.009-.32,1.845,1.845,0,0,0-1.2-1.607,1.735,1.735,0,0,0-1.918.38,2.093,2.093,0,0,0-.612,1.621q0,3.661,0,7.319v.6c-.143-.175-.219-.26-.285-.353q-2.189-2.983-4.377-5.965-1.043-1.43-2.088-2.857a1.846,1.846,0,0,0-1.9-.847A1.707,1.707,0,0,0,30.5,20.846a3.5,3.5,0,0,0-.127.992q-.01,6.42,0,12.839a3.193,3.193,0,0,0,.124.949,1.866,1.866,0,0,0,2,1.268,1.967,1.967,0,0,0,1.6-1.867c.014-1.609,0-3.221,0-4.832Zm16.2-3.531h.477c1.5,0,3.007.009,4.51,0a1.8,1.8,0,0,0,1.768-1.835A1.779,1.779,0,0,0,55.29,19.6q-3.453-.011-6.9,0a1.748,1.748,0,0,0-1.747,1.752q-.007,6.879,0,13.758A1.791,1.791,0,0,0,48.4,36.9q3.45.01,6.9,0a1.826,1.826,0,0,0,1.752-1.773,1.749,1.749,0,0,0-1.683-1.9c-1.517-.028-3.037-.014-4.556-.019H50.3V30.087h.483q2.21,0,4.418,0a1.822,1.822,0,0,0,1.856-1.757,1.76,1.76,0,0,0-1.766-1.925c-1.487-.023-2.977-.011-4.464-.014H50.3ZM15.874,33.2V32.6q0-5.546,0-11.094a1.862,1.862,0,0,0-1.959-1.911,1.831,1.831,0,0,0-1.736,1.975q-.007,6.676,0,13.351c0,.108.007.214.014.322A1.832,1.832,0,0,0,13.924,36.9c2.334.014,4.666.018,7,0a1.852,1.852,0,0,0,1.69-2.242,1.769,1.769,0,0,0-1.853-1.444c-1.609-.014-3.218,0-4.885,0m12.061-4.947q0-3.336,0-6.672a1.945,1.945,0,0,0-1.259-1.9,1.884,1.884,0,0,0-2.486,1.934q-.027,6.623,0,13.251a2.449,2.449,0,0,0,.237,1.013,1.859,1.859,0,0,0,1.994.99,1.976,1.976,0,0,0,1.508-1.9c.007-2.24,0-4.48,0-6.72" transform="translate(0 0)" fill="#fff" fill-rule="evenodd"/>
  </g>
</svg>
