<svg xmlns="http://www.w3.org/2000/svg" xmlns:xlink="http://www.w3.org/1999/xlink" width="37.618" height="35.833" viewBox="0 0 37.618 35.833">
  <defs>
    <clipPath id="clip-path">
      <rect id="長方形_241" data-name="長方形 241" width="37.618" height="35.833" fill="#fff"/>
    </clipPath>
  </defs>
  <g id="グループ_542" data-name="グループ 542" clip-path="url(#clip-path)">
    <path id="パス_397" data-name="パス 397" d="M37.618,14.677a13.254,13.254,0,0,1-2.748,8.413,27.369,27.369,0,0,1-4.012,4.233A69.9,69.9,0,0,1,20.729,34.54c-.733.435-1.519.781-2.289,1.151a1.506,1.506,0,0,1-.581.141c-.5.022-.752-.223-.695-.808.053-.543.157-1.081.248-1.62a6.063,6.063,0,0,0,.095-1.833,1.149,1.149,0,0,0-.668-.89,4.723,4.723,0,0,0-1.581-.457,21.255,21.255,0,0,1-4.825-1.3A18.5,18.5,0,0,1,5.264,25.85,14.361,14.361,0,0,1,.288,17.9a11.924,11.924,0,0,1-.258-3.435A13.233,13.233,0,0,1,3.012,6.989,17.775,17.775,0,0,1,9.943,1.8,21.612,21.612,0,0,1,17.558.034,21.792,21.792,0,0,1,29.175,2.525a16.443,16.443,0,0,1,6.7,6.317,12.338,12.338,0,0,1,1.738,5.835m-18.864.062L22.466,19.8a1.027,1.027,0,0,0,1.9-.634q0-3.631,0-7.264a1.343,1.343,0,0,0-.005-.176,1.015,1.015,0,0,0-.662-.884.954.954,0,0,0-1.054.209,1.151,1.151,0,0,0-.337.891q0,2.013,0,4.024V16.3c-.078-.1-.12-.143-.157-.194q-1.2-1.641-2.407-3.28-.573-.786-1.148-1.571a1.015,1.015,0,0,0-1.047-.466.938.938,0,0,0-.776.679,1.925,1.925,0,0,0-.07.546q-.006,3.53,0,7.06a1.756,1.756,0,0,0,.068.522,1.026,1.026,0,0,0,1.1.7,1.081,1.081,0,0,0,.88-1.027c.008-.885,0-1.771,0-2.657ZM27.661,12.8h.262c.827,0,1.653,0,2.48,0a.99.99,0,0,0,.972-1.009.978.978,0,0,0-.972-1.011q-1.9-.006-3.8,0a.961.961,0,0,0-.961.963q0,3.783,0,7.565a.985.985,0,0,0,.97.986q1.9.006,3.8,0a1,1,0,0,0,.963-.975.961.961,0,0,0-.925-1.047c-.834-.015-1.67-.008-2.505-.01h-.285V16.544h.266q1.215,0,2.429,0a1,1,0,0,0,1.02-.966A.968.968,0,0,0,30.4,14.52c-.818-.013-1.637-.006-2.455-.008h-.287ZM8.729,18.258v-.333q0-3.05,0-6.1a1.024,1.024,0,0,0-1.077-1.051A1.007,1.007,0,0,0,6.7,11.86q0,3.671,0,7.341c0,.06,0,.118.008.177a1.007,1.007,0,0,0,.953.91c1.284.007,2.566.01,3.848,0a1.019,1.019,0,0,0,.929-1.233.972.972,0,0,0-1.019-.794c-.885-.008-1.77,0-2.686,0m6.632-2.72q0-1.834,0-3.669a1.069,1.069,0,0,0-.693-1.043A1.036,1.036,0,0,0,13.3,11.89q-.015,3.642,0,7.287a1.347,1.347,0,0,0,.13.557,1.022,1.022,0,0,0,1.1.544,1.087,1.087,0,0,0,.829-1.044c0-1.232,0-2.463,0-3.7" transform="translate(0 0)" fill="#fff" fill-rule="evenodd"/>
  </g>
</svg>
