<svg id="コンポーネント_63_2" data-name="コンポーネント 63 – 2" xmlns="http://www.w3.org/2000/svg" xmlns:xlink="http://www.w3.org/1999/xlink" width="56" height="66" viewBox="0 0 56 66">
  <defs>
    <clipPath id="clip-path">
      <rect id="長方形_240" data-name="長方形 240" width="36.293" height="28.487" fill="#6b95c8"/>
    </clipPath>
  </defs>
  <g id="コンポーネント_60_1" data-name="コンポーネント 60 – 1">
    <circle id="楕円形_7" data-name="楕円形 7" cx="28" cy="28" r="28" fill="#fff"/>
    <path id="多角形_9" data-name="多角形 9" d="M6.5,0,13,12H0Z" transform="translate(35 66) rotate(180)" fill="#fff"/>
  </g>
  <g id="グループ_541" data-name="グループ 541" transform="translate(9.411 14.212)">
    <g id="グループ_540" data-name="グループ 540" clip-path="url(#clip-path)">
      <path id="パス_396" data-name="パス 396" d="M36.2,4.056a5.02,5.02,0,0,0-1.039-2.2,4.327,4.327,0,0,0-.342-.379A5.023,5.023,0,0,0,31.259,0H5.034A5.03,5.03,0,0,0,1.475,1.475a4.421,4.421,0,0,0-.342.379A4.961,4.961,0,0,0,.1,4.056a4.869,4.869,0,0,0-.1.979V23.453a5.005,5.005,0,0,0,.417,2,4.934,4.934,0,0,0,1.058,1.56c.113.112.225.216.347.319a5.03,5.03,0,0,0,3.212,1.157H31.259a5,5,0,0,0,3.213-1.161,4.347,4.347,0,0,0,.347-.314,5.038,5.038,0,0,0,1.063-1.56v0a4.981,4.981,0,0,0,.412-1.995V5.035a5.174,5.174,0,0,0-.094-.979M3.3,3.3a2.432,2.432,0,0,1,1.738-.721H31.259a2.419,2.419,0,0,1,1.958.979L19.472,15.534a2.017,2.017,0,0,1-2.65,0L3.082,3.55A1.858,1.858,0,0,1,3.3,3.3M2.576,23.453V6.215l9.947,8.677L2.581,23.56a.735.735,0,0,1-.005-.107m28.683,2.458H5.034a2.425,2.425,0,0,1-1.217-.323l10.489-9.141.979.852a4.358,4.358,0,0,0,5.727,0l.979-.852,10.485,9.141a2.428,2.428,0,0,1-1.218.323m2.459-2.458a.767.767,0,0,1,0,.107L23.771,14.9l9.947-8.678Z" transform="translate(0)" fill="#6b95c8"/>
    </g>
  </g>
</svg>
