<svg id="グループ_799" data-name="グループ 799" xmlns="http://www.w3.org/2000/svg" xmlns:xlink="http://www.w3.org/1999/xlink" width="33.234" height="36.653" viewBox="0 0 33.234 36.653">
  <defs>
    <clipPath id="clip-path">
      <rect id="長方形_237" data-name="長方形 237" width="33.234" height="36.653" fill="none"/>
    </clipPath>
  </defs>
  <g id="グループ_538" data-name="グループ 538" clip-path="url(#clip-path)">
    <path id="パス_395" data-name="パス 395" d="M32.513,28.658a33.676,33.676,0,0,0-6.952-4.377c-1.121-.365-2.6.621-3.1,1.96s-1.206,1.147-1.206,1.147-2.666-1.251-7.267-6.71S8.6,12.38,8.6,12.38s-.07-.727,1.336-.995S12.566,9.827,12.4,8.66A33.614,33.614,0,0,0,9.263,1.067C8.2-.52,5.817.044,5.276.368S-.934,3.639.133,10.068A33.176,33.176,0,0,0,7.715,25.962a33.168,33.168,0,0,0,14.38,10.167c6.154,2.143,10.019-2.945,10.431-3.424s1.37-2.727-.013-4.047" transform="translate(0 0)" fill="#fff"/>
  </g>
</svg>
