<svg xmlns="http://www.w3.org/2000/svg" xmlns:xlink="http://www.w3.org/1999/xlink" width="25.558" height="28.188" viewBox="0 0 25.558 28.188">
  <defs>
    <clipPath id="clip-path">
      <rect id="長方形_237" data-name="長方形 237" width="25.558" height="28.188" fill="#fff"/>
    </clipPath>
  </defs>
  <g id="グループ_719" data-name="グループ 719" transform="translate(0)">
    <g id="グループ_538" data-name="グループ 538" transform="translate(0)" clip-path="url(#clip-path)">
      <path id="パス_395" data-name="パス 395" d="M25,22.039a25.9,25.9,0,0,0-5.346-3.366,2.195,2.195,0,0,0-2.386,1.508c-.386,1.03-.928.882-.928.882s-2.05-.962-5.588-5.16S6.616,9.521,6.616,9.521s-.054-.559,1.027-.765,2.02-1.2,1.89-2.1A25.85,25.85,0,0,0,7.123.821C6.3-.4,4.474.033,4.058.283S-.719,2.8.1,7.743A25.513,25.513,0,0,0,5.933,19.966a25.507,25.507,0,0,0,11.058,7.819c4.732,1.648,7.705-2.265,8.022-2.633s1.054-2.1-.01-3.113" transform="translate(0 0)" fill="#fff"/>
    </g>
  </g>
</svg>
