<svg id="グループ_539" data-name="グループ 539" xmlns="http://www.w3.org/2000/svg" xmlns:xlink="http://www.w3.org/1999/xlink" width="31.102" height="34.302" viewBox="0 0 31.102 34.302">
  <defs>
    <clipPath id="clip-path">
      <rect id="長方形_237" data-name="長方形 237" width="31.102" height="34.302" fill="#3b9688"/>
    </clipPath>
  </defs>
  <g id="グループ_538" data-name="グループ 538" clip-path="url(#clip-path)">
    <path id="パス_395" data-name="パス 395" d="M30.427,26.82a31.516,31.516,0,0,0-6.506-4.1c-1.049-.341-2.435.581-2.9,1.835s-1.129,1.073-1.129,1.073-2.5-1.171-6.8-6.279-5.036-7.766-5.036-7.766-.066-.681,1.25-.931S11.76,9.2,11.6,8.1A31.458,31.458,0,0,0,8.669,1C7.67-.487,5.444.041,4.938.345S-.875,3.406.125,9.422A31.048,31.048,0,0,0,7.22,24.3a31.04,31.04,0,0,0,13.457,9.515c5.759,2.005,9.377-2.756,9.762-3.2s1.282-2.552-.012-3.788" transform="translate(0 0)" fill="#3b9688"/>
  </g>
</svg>
