<svg xmlns="http://www.w3.org/2000/svg" xmlns:xlink="http://www.w3.org/1999/xlink" width="241.403" height="241.403" viewBox="0 0 241.403 241.403">
  <defs>
    <clipPath id="clip-path">
      <rect id="長方形_15" data-name="長方形 15" width="241.403" height="241.403" fill="none"/>
    </clipPath>
  </defs>
  <g id="グループ_836" data-name="グループ 836" transform="translate(-98.42 -10879)">
    <g id="グループ_683" data-name="グループ 683" transform="translate(98.42 10879)">
      <g id="グループ_10" data-name="グループ 10" transform="translate(0 0)" clip-path="url(#clip-path)">
        <path id="パス_12" data-name="パス 12" d="M225.067,148.712c2.525-9.442,16.458-17.712,16.458-27.95s-13.933-18.506-16.458-27.948c-2.616-9.77,5.242-23.888.292-32.441-5.021-8.682-21.216-8.9-28.26-15.946s-7.263-23.239-15.946-28.262c-8.555-4.948-22.671,2.91-32.441.294C139.271,13.934,131,0,120.763,0s-18.508,13.935-27.949,16.46c-9.772,2.616-23.888-5.242-32.441-.294-8.682,5.023-8.9,21.216-15.947,28.262S21.189,51.69,16.166,60.372c-4.95,8.553,2.909,22.671.292,32.441C13.933,102.255,0,110.525,0,120.762s13.933,18.508,16.458,27.95c2.616,9.77-5.242,23.888-.292,32.441,5.023,8.682,21.216,8.9,28.26,15.947s7.265,23.237,15.947,28.26c8.553,4.95,22.669-2.91,32.441-.294,9.441,2.525,17.711,16.459,27.949,16.459s18.508-13.935,27.95-16.459c9.77-2.616,23.886,5.243,32.441.294,8.682-5.023,8.9-21.216,15.946-28.26s23.239-7.265,28.26-15.947c4.95-8.553-2.909-22.671-.292-32.441" transform="translate(0.567 -0.276)" fill="#ffda00"/>
        <path id="パス_13" data-name="パス 13" d="M118.244,231.436c-2.483,0-5.5-2.188-10.914-6.785-4.34-3.686-9.25-7.857-15.081-9.417a25.317,25.317,0,0,0-6.607-.8,66.186,66.186,0,0,0-11.63,1.38,54.072,54.072,0,0,1-8.855,1.136,7.389,7.389,0,0,1-3.484-.64c-2.066-1.194-3.548-4.542-5.91-11.138-1.945-5.432-4.149-11.585-8.5-15.941s-10.509-6.557-15.94-8.5c-6.6-2.365-9.943-3.847-11.12-5.882-1.131-1.954-.748-5.541.477-12.357,1.028-5.727,2.192-12.217.577-18.252-1.558-5.825-5.729-10.735-9.409-15.069-4.6-5.42-6.793-8.437-6.793-10.923s2.191-5.5,6.794-10.923c3.68-4.334,7.849-9.246,9.408-15.07,1.615-6.034.451-12.521-.577-18.246-1.224-6.818-1.608-10.406-.477-12.36,1.178-2.038,4.525-3.52,11.122-5.882,5.431-1.945,11.583-4.149,15.938-8.5s6.559-10.509,8.5-15.938c2.362-6.6,3.845-9.944,5.88-11.123a7.3,7.3,0,0,1,3.514-.656,54.2,54.2,0,0,1,8.829,1.131,66.279,66.279,0,0,0,11.655,1.385,25.286,25.286,0,0,0,6.611-.806c5.825-1.558,10.735-5.729,15.069-9.408,5.419-4.6,8.435-6.793,10.921-6.793s5.5,2.189,10.92,6.79c4.337,3.682,9.247,7.854,15.075,9.412a25.328,25.328,0,0,0,6.608.8,66.24,66.24,0,0,0,11.636-1.382,54.378,54.378,0,0,1,8.847-1.134,7.286,7.286,0,0,1,3.516.658c2.033,1.176,3.515,4.521,5.877,11.114,1.947,5.437,4.151,11.591,8.506,15.946s10.509,6.559,15.937,8.5c6.6,2.363,9.947,3.845,11.125,5.882,1.131,1.956.748,5.543-.477,12.355-1.028,5.726-2.194,12.214-.577,18.253,1.558,5.823,5.727,10.735,9.406,15.067,4.6,5.42,6.8,8.438,6.8,10.924s-2.191,5.5-6.794,10.921c-3.679,4.335-7.849,9.246-9.408,15.072-1.617,6.036-.451,12.526.577,18.252,1.223,6.814,1.606,10.4.477,12.354-1.178,2.036-4.523,3.519-11.113,5.88-5.438,1.947-11.592,4.149-15.949,8.5s-6.557,10.509-8.5,15.938c-2.362,6.6-3.845,9.947-5.882,11.125a7.293,7.293,0,0,1-3.512.656,54.05,54.05,0,0,1-8.843-1.133,66.2,66.2,0,0,0-11.643-1.383,25.219,25.219,0,0,0-6.61.808c-5.826,1.557-10.737,5.727-15.069,9.406-5.422,4.6-8.437,6.793-10.923,6.793m-32.6-22.053a30.205,30.205,0,0,1,7.912.977c6.926,1.852,12.3,6.414,17.035,10.439,1.7,1.442,6.133,5.206,7.654,5.579,1.523-.373,5.961-4.142,7.653-5.577,4.741-4.026,10.112-8.588,17.033-10.439a30.235,30.235,0,0,1,7.915-.979,70.066,70.066,0,0,1,12.523,1.46,51.346,51.346,0,0,0,7.963,1.056,7.272,7.272,0,0,0,1.026-.06c1.076-1.281,2.906-6.391,3.616-8.374,2.125-5.931,4.53-12.65,9.686-17.807s11.877-7.563,17.807-9.685c2.008-.719,7.209-2.582,8.413-3.653.285-1.6-.7-7.089-1.034-8.942-1.121-6.244-2.393-13.322-.486-20.446,1.852-6.925,6.414-12.3,10.437-17.035,1.439-1.69,5.209-6.132,5.58-7.654-.372-1.524-4.143-5.964-5.58-7.654-4.025-4.741-8.585-10.112-10.436-17.032-1.909-7.127-.637-14.2.484-20.45.333-1.851,1.319-7.344,1.034-8.942-1.2-1.07-6.409-2.934-8.413-3.652-5.933-2.123-12.652-4.53-17.807-9.686s-7.563-11.876-9.686-17.805c-.712-1.986-2.541-7.1-3.617-8.372a6.968,6.968,0,0,0-1.026-.061,51.463,51.463,0,0,0-7.936,1.05,70.128,70.128,0,0,1-12.547,1.466,30.234,30.234,0,0,1-7.914-.977c-6.923-1.852-12.3-6.414-17.033-10.437-1.695-1.439-6.133-5.207-7.656-5.58-1.522.372-5.963,4.143-7.654,5.58-4.74,4.023-10.11,8.585-17.03,10.436a30.192,30.192,0,0,1-7.917.979,70.011,70.011,0,0,1-12.535-1.463,51.45,51.45,0,0,0-7.95-1.053,6.984,6.984,0,0,0-1.026.061c-1.076,1.278-2.907,6.39-3.616,8.372-2.125,5.93-4.531,12.65-9.686,17.805s-11.876,7.563-17.8,9.686c-2.006.718-7.212,2.582-8.416,3.653-.285,1.6.7,7.091,1.034,8.942,1.121,6.247,2.392,13.325.486,20.446-1.852,6.923-6.412,12.294-10.436,17.032-1.439,1.693-5.21,6.133-5.582,7.657.372,1.522,4.142,5.964,5.579,7.654,4.025,4.74,8.586,10.11,10.437,17.032,1.908,7.124.637,14.2-.484,20.444-.333,1.857-1.319,7.35-1.034,8.946,1.2,1.071,6.4,2.934,8.405,3.65,5.936,2.125,12.656,4.531,17.814,9.688s7.561,11.876,9.685,17.805c.71,1.984,2.54,7.092,3.617,8.374a7.192,7.192,0,0,0,1.026.061,51.313,51.313,0,0,0,7.95-1.053,70.084,70.084,0,0,1,12.535-1.463" transform="translate(3.086 2.243)" fill="#fff"/>
      </g>
    </g>
    <path id="パス_572" data-name="パス 572" d="M-25.036-19.228v1.716H-33.88a29.553,29.553,0,0,1-4.4-.22v4.444a40.881,40.881,0,0,1,4.4-.176h8.844v1.672H-36.344a42.987,42.987,0,0,1-5.456-.264v4.928a51.19,51.19,0,0,1,5.5-.264H-29C-32.56-4.664-36.7-2.948-42.812-1.76a19.043,19.043,0,0,1,3.08,5.06,40.566,40.566,0,0,0,8.58-3.564A25.946,25.946,0,0,0-24.9-4.928c-.088,1.584-.088,1.716-.088,2.772V-.4A32.378,32.378,0,0,1-25.256,4h5.9a29.769,29.769,0,0,1-.264-4.4V-2.2c0-1.1,0-1.32-.088-2.816C-15.884-1.188-11,1.408-4.048,3.3a20.76,20.76,0,0,1,2.9-5.28c-6.424-1.056-11-2.772-14.388-5.412h7.964a50.645,50.645,0,0,1,5.412.264v-4.928a41.119,41.119,0,0,1-5.456.264H-19.58v-1.672h9.372a40.881,40.881,0,0,1,4.4.176v-4.444a31.028,31.028,0,0,1-4.4.22H-19.58v-1.716H-8.14a42.483,42.483,0,0,1,4.4.176v-4.664a38.845,38.845,0,0,1-4.4.176h-4.576c.44-.836.484-.924,1.276-2.6h4.048c2.156,0,4,.088,5.368.22v-5.1a37.565,37.565,0,0,1-5.06.264H-7.7a36.093,36.093,0,0,0,2.464-3.916l-5.324-1.892a24.358,24.358,0,0,1-2.992,5.808H-15.62v-2.992a21.8,21.8,0,0,1,.22-3.344h-5.676a19.668,19.668,0,0,1,.176,3.08v3.256h-2.6v-3.256a27.666,27.666,0,0,1,.132-3.08H-29a23.124,23.124,0,0,1,.22,3.344v2.992h-1.936a29.255,29.255,0,0,0-3.124-5.72l-5.28,1.892a18.107,18.107,0,0,1,2.684,3.828h-.66a38.2,38.2,0,0,1-5.016-.264v5.1c1.364-.132,3.168-.22,5.28-.22h4.356a22.532,22.532,0,0,1,1.32,2.6h-4.84a37.986,37.986,0,0,1-4.356-.176v4.664a41.581,41.581,0,0,1,4.356-.176Zm-.4-4.312c-.4-1.1-.616-1.584-1.056-2.6h8.976a24.835,24.835,0,0,1-1.144,2.6Zm38.5,6.2a17.654,17.654,0,0,1-5.5,3.784,43.313,43.313,0,0,1-6.6,2.376A22.8,22.8,0,0,1,3.784-5.808a36.553,36.553,0,0,0,9.592-5.06c0,4.092-1.32,6.336-4.752,8.1A20.706,20.706,0,0,1,2.816-.792,16.155,16.155,0,0,1,6.248,4.18C11.176,2.6,13.464,1.364,15.576-.836q3.3-3.564,3.564-9.9a14.652,14.652,0,0,1,.176-1.936h-3.74A22.056,22.056,0,0,0,19.8-17.336h4.048a28.364,28.364,0,0,0,4.532,4.664h-2.9a25.471,25.471,0,0,1,.176,3.52V-1.32a40.88,40.88,0,0,1-.264,5.06h6.336a41.629,41.629,0,0,1-.264-5.016V-10.3a45.029,45.029,0,0,0,8.976,4.532A24.224,24.224,0,0,1,43.12-11.44a43.315,43.315,0,0,1-6.688-2.332,20.424,20.424,0,0,1-5.676-3.564h3.3c2.2,0,3.52.044,4.928.176a34.543,34.543,0,0,1-.22-4.8v-9.152a35.184,35.184,0,0,1,.22-4.884c-1.408.132-2.684.176-4.928.176H10.076c-2.288,0-3.564-.044-4.972-.176a36.366,36.366,0,0,1,.22,4.884v9.152a35.723,35.723,0,0,1-.22,4.8c1.364-.132,2.772-.176,4.84-.176Zm-2.2-13.816H19.1v2.6H10.868Zm0,6.82H19.1v2.64H10.868Zm13.684-6.82H33.22v2.6H24.552Zm0,6.82H33.22v2.64H24.552Zm-84.568,75.46c-1.672.132-2.816.176-3.652.176h-.66l1.144,5.412c1.628-.308,1.628-.308,5.324-.836,2.816-.4,5.72-.88,9.064-1.5a31.733,31.733,0,0,1-.22,4.488h5.676a31.808,31.808,0,0,1-.264-4.224,14.4,14.4,0,0,1,2.156,3.872,32.564,32.564,0,0,0,6.6-3.96c2.244,1.54,4.224,2.464,8.932,4.224a22.307,22.307,0,0,1,2.552-5.236,32.138,32.138,0,0,1-7.612-2.464,40.374,40.374,0,0,0,4.8-6.82,16.609,16.609,0,0,1,.88-1.5l-2.684-2.948A20.022,20.022,0,0,1-31.24,40h-7.524a26.274,26.274,0,0,1-3.7-.176v4.84a24.893,24.893,0,0,1,3.432-.176h.968l-4.136,1.76a29.744,29.744,0,0,0,3.432,4.84,29.3,29.3,0,0,1-4.84,2.332V38.368h15.048a35.969,35.969,0,0,1,4.884.22v-4.8a33.022,33.022,0,0,1-4.8.22H-59.356a33.022,33.022,0,0,1-4.8-.22v4.8a34.919,34.919,0,0,1,4.136-.22Zm5.236-12.76H-48.8v1.5H-54.78Zm0,4.972H-48.8v1.672H-54.78Zm0,5.148H-48.8V49.9c-3.608.528-3.608.528-5.984.792Zm22.748-4a21.848,21.848,0,0,1-2.948,3.652,15.039,15.039,0,0,1-2.6-3.652Zm3.872-21.648a31.134,31.134,0,0,1,.176-3.96,45.829,45.829,0,0,1-4.664.176H-55a46.385,46.385,0,0,1-4.664-.176,31.579,31.579,0,0,1,.176,3.96V28.82a31.251,31.251,0,0,1-.176,3.916c1.32-.088,2.464-.132,4.444-.132h23.408c2.86.044,2.86.044,3.828.132a32.03,32.03,0,0,1-.176-3.96ZM-54.032,22.7H-33.66v1.628H-54.032Zm0,4.8H-33.66v1.628H-54.032ZM15,38.676a38.655,38.655,0,0,1,4.972.22v-5.72A31.745,31.745,0,0,1,15,33.4H-1.1c.792-1.628.792-1.672.924-1.936,1.144-2.244,1.144-2.244,1.5-2.992l-6.248-.88A31.045,31.045,0,0,1-7.436,33.4h-7.436a33.881,33.881,0,0,1-5.016-.22V38.9a47.253,47.253,0,0,1,5.016-.22h4.4a60.447,60.447,0,0,1-5.06,7A101.658,101.658,0,0,1-4,49.28c-4.708,2.332-8.8,3.388-15.884,4.092a18.607,18.607,0,0,1,2.728,5.544,62.007,62.007,0,0,0,11.572-3.08,30.717,30.717,0,0,0,7.744-4,84.825,84.825,0,0,1,12.936,7.04l4.312-4.8a129.444,129.444,0,0,0-12.8-6.2,24.906,24.906,0,0,0,5.28-9.2Zm-9.24,0A18.451,18.451,0,0,1,1.1,45.76a75.98,75.98,0,0,0-7.92-2.552c1.364-1.98,1.76-2.6,2.9-4.532ZM-3.344,21.648H-14.256c-2.376,0-3.652-.044-5.148-.176.088,1.1.176,2.288.176,3.388v3.608a17.385,17.385,0,0,1-.22,3.3h5.72V26.884H13.684v4.884H19.4a24.886,24.886,0,0,1-.22-3.3V24.86a28.631,28.631,0,0,1,.176-3.388c-1.5.132-2.816.176-5.192.176H2.6v-.616a21.289,21.289,0,0,1,.176-3.168H-3.52a23.118,23.118,0,0,1,.176,3.212ZM52.272,28.38c.264-1.012.264-1.012.528-2.332h7.524a38.982,38.982,0,0,1,4.092.176V20.812a29.47,29.47,0,0,1-4.8.264h-5.9c.132-.7.132-.7.528-3.036l-5.72-.308a30.124,30.124,0,0,1-.308,3.344H40.876a33.715,33.715,0,0,1-4.84-.22v5.368a38.776,38.776,0,0,1,4.136-.176h7.26c-.176.88-.176.924-.528,2.332h-.572c-1.848,0-2.464,0-3.476-.088a32.082,32.082,0,0,1,.132,3.476v14.96c0,1.452-.044,2.332-.088,3.432,1.672-.088,2.332-.088,3.608-.088h11.88c1.276,0,2.024,0,3.7.088a34.716,34.716,0,0,1-.176-4V32.6a40.16,40.16,0,0,1,.176-4.312c-.88.044-1.628.088-3.7.088ZM48.18,32.472h8.536v1.936H48.18Zm0,5.764h8.536v1.892H48.18Zm0,5.72h8.536v1.98H48.18ZM27.06,53.724a38.467,38.467,0,0,1-.264,5.1h6.072a38.193,38.193,0,0,1-.264-5.06V28.732a68.3,68.3,0,0,0,3.652-9.9l-5.94-1.364A25.3,25.3,0,0,1,28.6,23.76a29.648,29.648,0,0,1-6.116,10.3,33.422,33.422,0,0,1,2.068,6.556,31.664,31.664,0,0,0,2.6-3.7c-.088,2.288-.088,3.212-.088,4.664Zm13.464,5.148V56.98H59.092a41.382,41.382,0,0,1,5.06.264v-5.5a38.24,38.24,0,0,1-4.972.22H40.524V34.056a40,40,0,0,1,.22-5.148H34.892a40.419,40.419,0,0,1,.22,5.148V53.372a44.53,44.53,0,0,1-.22,5.5Z" transform="translate(215.126 10980.83)"/>
  </g>
</svg>
