<svg xmlns="http://www.w3.org/2000/svg" xmlns:xlink="http://www.w3.org/1999/xlink" width="242.506" height="241.403" viewBox="0 0 242.506 241.403">
  <defs>
    <clipPath id="clip-path">
      <rect id="長方形_15" data-name="長方形 15" width="242.506" height="241.403" fill="none"/>
    </clipPath>
  </defs>
  <g id="グループ_835" data-name="グループ 835" transform="translate(-416.075 -10879)">
    <g id="グループ_716" data-name="グループ 716" transform="translate(416.074 10879)">
      <g id="グループ_10" data-name="グループ 10" transform="translate(0 0)" clip-path="url(#clip-path)">
        <path id="パス_12" data-name="パス 12" d="M225.067,148.712c2.525-9.442,16.458-17.712,16.458-27.95s-13.933-18.506-16.458-27.948c-2.616-9.77,5.242-23.888.292-32.441-5.021-8.682-21.216-8.9-28.26-15.946s-7.263-23.239-15.946-28.262c-8.555-4.948-22.671,2.91-32.441.294C139.271,13.934,131,0,120.763,0s-18.508,13.935-27.949,16.46c-9.772,2.616-23.888-5.242-32.441-.294-8.682,5.023-8.9,21.216-15.947,28.262S21.189,51.69,16.166,60.372c-4.95,8.553,2.909,22.671.292,32.441C13.933,102.255,0,110.525,0,120.762s13.933,18.508,16.458,27.95c2.616,9.77-5.242,23.888-.292,32.441,5.023,8.682,21.216,8.9,28.26,15.947s7.265,23.237,15.947,28.26c8.553,4.95,22.669-2.91,32.441-.294,9.441,2.525,17.711,16.459,27.949,16.459s18.508-13.935,27.95-16.459c9.77-2.616,23.886,5.243,32.441.294,8.682-5.023,8.9-21.216,15.946-28.26s23.239-7.265,28.26-15.947c4.95-8.553-2.909-22.671-.292-32.441" transform="translate(1.175 -0.276)" fill="#ffda00"/>
        <path id="パス_13" data-name="パス 13" d="M118.244,231.436c-2.483,0-5.5-2.188-10.914-6.785-4.34-3.686-9.25-7.857-15.081-9.417a25.317,25.317,0,0,0-6.607-.8,66.186,66.186,0,0,0-11.63,1.38,54.072,54.072,0,0,1-8.855,1.136,7.389,7.389,0,0,1-3.484-.64c-2.066-1.194-3.548-4.542-5.91-11.138-1.945-5.432-4.149-11.585-8.5-15.941s-10.509-6.557-15.94-8.5c-6.6-2.365-9.943-3.847-11.12-5.882-1.131-1.954-.748-5.541.477-12.357,1.028-5.727,2.192-12.217.577-18.252-1.558-5.825-5.729-10.735-9.409-15.069-4.6-5.42-6.793-8.437-6.793-10.923s2.191-5.5,6.794-10.923c3.68-4.334,7.849-9.246,9.408-15.07,1.615-6.034.451-12.521-.577-18.246-1.224-6.818-1.608-10.406-.477-12.36,1.178-2.038,4.525-3.52,11.122-5.882,5.431-1.945,11.583-4.149,15.938-8.5s6.559-10.509,8.5-15.938c2.362-6.6,3.845-9.944,5.88-11.123a7.3,7.3,0,0,1,3.514-.656,54.2,54.2,0,0,1,8.829,1.131,66.279,66.279,0,0,0,11.655,1.385,25.286,25.286,0,0,0,6.611-.806c5.825-1.558,10.735-5.729,15.069-9.408,5.419-4.6,8.435-6.793,10.921-6.793s5.5,2.189,10.92,6.79c4.337,3.682,9.247,7.854,15.075,9.412a25.328,25.328,0,0,0,6.608.8,66.24,66.24,0,0,0,11.636-1.382,54.378,54.378,0,0,1,8.847-1.134,7.286,7.286,0,0,1,3.516.658c2.033,1.176,3.515,4.521,5.877,11.114,1.947,5.437,4.151,11.591,8.506,15.946s10.509,6.559,15.937,8.5c6.6,2.363,9.947,3.845,11.125,5.882,1.131,1.956.748,5.543-.477,12.355-1.028,5.726-2.194,12.214-.577,18.253,1.558,5.823,5.727,10.735,9.406,15.067,4.6,5.42,6.8,8.438,6.8,10.924s-2.191,5.5-6.794,10.921c-3.679,4.335-7.849,9.246-9.408,15.072-1.617,6.036-.451,12.526.577,18.252,1.223,6.814,1.606,10.4.477,12.354-1.178,2.036-4.523,3.519-11.113,5.88-5.438,1.947-11.592,4.149-15.949,8.5s-6.557,10.509-8.5,15.938c-2.362,6.6-3.845,9.947-5.882,11.125a7.293,7.293,0,0,1-3.512.656,54.05,54.05,0,0,1-8.843-1.133,66.2,66.2,0,0,0-11.643-1.383,25.219,25.219,0,0,0-6.61.808c-5.826,1.557-10.737,5.727-15.069,9.406-5.422,4.6-8.437,6.793-10.923,6.793m-32.6-22.053a30.205,30.205,0,0,1,7.912.977c6.926,1.852,12.3,6.414,17.035,10.439,1.7,1.442,6.133,5.206,7.654,5.579,1.523-.373,5.961-4.142,7.653-5.577,4.741-4.026,10.112-8.588,17.033-10.439a30.235,30.235,0,0,1,7.915-.979,70.066,70.066,0,0,1,12.523,1.46,51.346,51.346,0,0,0,7.963,1.056,7.272,7.272,0,0,0,1.026-.06c1.076-1.281,2.906-6.391,3.616-8.374,2.125-5.931,4.53-12.65,9.686-17.807s11.877-7.563,17.807-9.685c2.008-.719,7.209-2.582,8.413-3.653.285-1.6-.7-7.089-1.034-8.942-1.121-6.244-2.393-13.322-.486-20.446,1.852-6.925,6.414-12.3,10.437-17.035,1.439-1.69,5.209-6.132,5.58-7.654-.372-1.524-4.143-5.964-5.58-7.654-4.025-4.741-8.585-10.112-10.436-17.032-1.909-7.127-.637-14.2.484-20.45.333-1.851,1.319-7.344,1.034-8.942-1.2-1.07-6.409-2.934-8.413-3.652-5.933-2.123-12.652-4.53-17.807-9.686s-7.563-11.876-9.686-17.805c-.712-1.986-2.541-7.1-3.617-8.372a6.968,6.968,0,0,0-1.026-.061,51.463,51.463,0,0,0-7.936,1.05,70.128,70.128,0,0,1-12.547,1.466,30.234,30.234,0,0,1-7.914-.977c-6.923-1.852-12.3-6.414-17.033-10.437-1.695-1.439-6.133-5.207-7.656-5.58-1.522.372-5.963,4.143-7.654,5.58-4.74,4.023-10.11,8.585-17.03,10.436a30.192,30.192,0,0,1-7.917.979,70.011,70.011,0,0,1-12.535-1.463,51.45,51.45,0,0,0-7.95-1.053,6.984,6.984,0,0,0-1.026.061c-1.076,1.278-2.907,6.39-3.616,8.372-2.125,5.93-4.531,12.65-9.686,17.805s-11.876,7.563-17.8,9.686c-2.006.718-7.212,2.582-8.416,3.653-.285,1.6.7,7.091,1.034,8.942,1.121,6.247,2.392,13.325.486,20.446-1.852,6.923-6.412,12.294-10.436,17.032-1.439,1.693-5.21,6.133-5.582,7.657.372,1.522,4.142,5.964,5.579,7.654,4.025,4.74,8.586,10.11,10.437,17.032,1.908,7.124.637,14.2-.484,20.444-.333,1.857-1.319,7.35-1.034,8.946,1.2,1.071,6.4,2.934,8.405,3.65,5.936,2.125,12.656,4.531,17.814,9.688s7.561,11.876,9.685,17.805c.71,1.984,2.54,7.092,3.617,8.374a7.192,7.192,0,0,0,1.026.061,51.313,51.313,0,0,0,7.95-1.053,70.084,70.084,0,0,1,12.535-1.463" transform="translate(3.693 2.243)" fill="#fff"/>
      </g>
    </g>
    <path id="パス_573" data-name="パス 573" d="M-35.6-23.5h-1.98a27.913,27.913,0,0,1-4.312-.22v5.676a28.616,28.616,0,0,1,4.312-.22h1.716v5.1h-.924a27.567,27.567,0,0,1-4.312-.22v5.588a23.005,23.005,0,0,1,3.784-.22H-7.744l-4.4,2.112A47.334,47.334,0,0,1-6.82,3.52L-1.8.4a53.88,53.88,0,0,0-5.632-8.4h.7a25.832,25.832,0,0,1,4.092.22v-5.588a24.734,24.734,0,0,1-4.18.22h-.616v-5.1h1.452a28.263,28.263,0,0,1,4.312.22v-5.676a27.913,27.913,0,0,1-4.312.22H-7.436v-5.016a34.349,34.349,0,0,1,4.136.264v-5.676a44.228,44.228,0,0,1-5.632.264H-29.92c.616-.924.968-1.5,1.452-2.244a9.32,9.32,0,0,1,.748-1.188l-6.028-.968a14.22,14.22,0,0,1-.968,2.068c-1.716,2.86-3.96,5.1-7.964,7.876A23.534,23.534,0,0,1-39.072-24.2,28.669,28.669,0,0,0-35.6-27.06Zm4.884-5.016h2.86V-23.5h-2.86Zm7.656,0h2.772V-23.5h-2.772ZM-30.712-18.26h2.86v5.1h-2.86Zm7.656,0h2.772v5.1h-2.772Zm7.568,5.1v-5.1h2.9v5.1Zm0-10.34v-5.016h2.9V-23.5Zm2.2,25.828a62.042,62.042,0,0,0-2.6-9.372L-21.032-5.9a55.29,55.29,0,0,1,1.98,9.46Zm-10.34.924a74.419,74.419,0,0,0-1.1-9.944l-5.148.572a71.929,71.929,0,0,1,.528,8.008c0,.4,0,1.012-.044,1.8Zm-13.948.572A29.207,29.207,0,0,0-31.9-5.588l-4.84-2.376A20.689,20.689,0,0,1-42.152.264Zm57.64-7.172A36.431,36.431,0,0,1,24.244-4.4l8.624-1.892V-1.54A33.709,33.709,0,0,1,32.6,3.872h6.248A34.078,34.078,0,0,1,38.588-1.5V-7.524c2.156-.44,3.168-.616,4.356-.748l-.7-5.9a33.633,33.633,0,0,1-3.652,1.012V-31.768a33.454,33.454,0,0,1,.264-5.324H32.6a32.476,32.476,0,0,1,.264,5.324v19.844l-9.416,1.98a25.909,25.909,0,0,1-4.18.616c.44-.88.616-1.188,1.32-2.42a23.97,23.97,0,0,1-5.544-5.764h1.32a19.382,19.382,0,0,1,3.52.22v-5.5a16.7,16.7,0,0,1-3.432.22h-1.8v-2.816l3.564,1.936A51.706,51.706,0,0,0,21.516-33L17.38-34.892a49.158,49.158,0,0,1-2.728,9.2v-7.348a23.605,23.605,0,0,1,.22-4.048H8.932A25.164,25.164,0,0,1,9.152-33v10.428H6.424a22.11,22.11,0,0,1-4-.22v5.5a23.922,23.922,0,0,1,4.048-.22h1.98a29.836,29.836,0,0,1-6.82,10.6A21.367,21.367,0,0,1,4.18-1.364C6.292-3.7,7.392-5.544,9.328-9.988,9.24-8.756,9.2-7.172,9.2-5.5V-.66a33.321,33.321,0,0,1-.264,4.576h5.94a29.847,29.847,0,0,1-.22-4.444v-6.82a37.137,37.137,0,0,0-.22-4.268,32.261,32.261,0,0,0,3.7,5.148c.484-1.276.616-1.628,1.056-2.64Zm-18-29.568a39.338,39.338,0,0,1,2.6,9.416l4.092-1.936a56.657,56.657,0,0,0-2.64-9.46ZM21.56-30.4a43,43,0,0,1,7.656,6.688l3.52-4.356a41.2,41.2,0,0,0-7.568-6.292ZM20.2-19.536A42.642,42.642,0,0,1,27.852-12.8l3.476-4.224A44.847,44.847,0,0,0,23.8-23.364ZM-52.1,45.364a8.747,8.747,0,0,1-4.136,5.984c-1.98,1.232-4.224,1.98-8.184,2.684a20.359,20.359,0,0,1,3.036,5.192c5.148-1.276,8.272-2.816,11-5.368a13.55,13.55,0,0,0,4.312-8.492h3.344v8.8c0,3.608,1.232,4.224,8.888,4.224,5.192,0,7.128-.308,8.316-1.408,1.32-1.144,1.716-2.684,2.2-8.1a19.75,19.75,0,0,1-5.368-2.112c-.088,2.816-.308,5.06-.66,5.588-.44.66-1.232.836-4.312.836-3.036,0-3.388-.132-3.388-1.276V45.364h3.74a44.893,44.893,0,0,1,4.62.176,34.226,34.226,0,0,1-.22-4.752V24.508a49.319,49.319,0,0,1,.22-5.28,42.76,42.76,0,0,1-4.62.176H-54.516a42.376,42.376,0,0,1-4.576-.176,49.319,49.319,0,0,1,.22,5.28v16.28a44.732,44.732,0,0,1-.22,4.752,42.119,42.119,0,0,1,4.664-.176Zm-1.276-20.988h18.92v2.376h-18.92Zm0,6.82h18.92V33.66h-18.92Zm0,6.908h18.92v2.508h-18.92Zm47.476-3.7a24.8,24.8,0,0,1,3.74-.22H16.236a28.309,28.309,0,0,1,4.092.22v-4.4a25.832,25.832,0,0,1-4.092.22H9.328V28.864H14.7A34.6,34.6,0,0,1,18.26,29V25.344a26.89,26.89,0,0,1-3.608.176H9.328V24.244h5.94a34.716,34.716,0,0,1,4,.176V20.2a41.489,41.489,0,0,1-4.444.22h-5.5a10.489,10.489,0,0,1,.22-2.64H3.872a10.371,10.371,0,0,1,.264,2.64H-.572a30.737,30.737,0,0,1-4.356-.22V24.42a33.424,33.424,0,0,1,3.96-.176h5.1V25.52H-.7a26.432,26.432,0,0,1-3.476-.176V29a34.2,34.2,0,0,1,3.52-.132h4.8v1.364H-2.156a29.223,29.223,0,0,1-3.7-.176v-1.32c-.088,0-.792.088-2.112.22H-9.372V23.76c1.628-.528,2.552-.836,3.74-1.276a6.852,6.852,0,0,1,.66-.264L-7.92,17.556c-2.112,1.32-7.128,2.684-12.452,3.388a23.57,23.57,0,0,1,1.892,4.928c1.98-.352,2.552-.484,3.74-.748v3.828h-1.936a17.669,17.669,0,0,1-3.3-.22v5.544a15.978,15.978,0,0,1,3.124-.22h1.716a27.4,27.4,0,0,1-5.808,11.176,22.632,22.632,0,0,1,2.6,5.28,24.525,24.525,0,0,0,3.828-7.568c-.132,1.716-.22,3.476-.22,5.412v5.192A44.01,44.01,0,0,1-15,58.784h5.852a39.041,39.041,0,0,1-.22-5.236V45.012c0-1.408-.088-3.256-.22-4.444A23.828,23.828,0,0,0-6.556,45.1,15.323,15.323,0,0,1-5.5,42.68c.792-1.452.792-1.452,1.188-2.288A19.109,19.109,0,0,1-9.24,34.056h1.848a10.876,10.876,0,0,1,1.5.132ZM.352,52.184a22.176,22.176,0,0,1-8.14,2.552,20.766,20.766,0,0,1,2.552,4.4,25.046,25.046,0,0,0,10.3-4.752l-2.376-2.2h7.832l-2.288,2.2a26.389,26.389,0,0,0,10.34,4.752,19.749,19.749,0,0,1,2.772-4.664,30.019,30.019,0,0,1-8.228-2.288h1.276c1.408,0,2.156.044,3.652.088a27.06,27.06,0,0,1-.176-3.916V39.072a24.583,24.583,0,0,1,.176-3.784,36.949,36.949,0,0,1-3.7.088H-.7c-1.892,0-2.64,0-3.608-.088a24.275,24.275,0,0,1,.132,3.564V48.4a33.258,33.258,0,0,1-.176,3.872c1.1-.044,2.244-.088,3.7-.088ZM1.012,38.9h11.66v1.276H1.012Zm0,4.092h11.66v1.32H1.012Zm0,4.136h11.66v1.408H1.012ZM31.2,18.832a9.571,9.571,0,0,1-.088,1.54c-.088.792-.264,2.552-.572,5.324-.352,3.168-.616,8.008-.616,11.748,0,.924.044,2.244.088,3.828.044,2.332.044,2.332.044,2.508a4.56,4.56,0,0,1-.044.7L36.3,44.4v-.66a19.791,19.791,0,0,1,5.676-14.212,6.142,6.142,0,0,1,4.4-2.068c3.476,0,5.412,3.3,5.412,9.2,0,9.768-5.1,14.212-17.424,15.18a21.955,21.955,0,0,1,3.036,6.38,41.283,41.283,0,0,0,9.064-2.42c7.832-3.3,11.88-9.592,11.88-18.436,0-4.664-.7-7.788-2.376-10.692-2.068-3.564-5.236-5.5-8.888-5.5A10.621,10.621,0,0,0,39.82,24.2,17.756,17.756,0,0,0,35.9,30.008c.88-6.688,1.276-8.888,1.936-10.868Z" transform="translate(538.395 10980.83)"/>
  </g>
</svg>
