<svg xmlns="http://www.w3.org/2000/svg" xmlns:xlink="http://www.w3.org/1999/xlink" width="140" height="140" viewBox="0 0 140 140">
  <defs>
    <clipPath id="clip-path">
      <rect id="長方形_15" data-name="長方形 15" width="140" height="140" fill="none"/>
    </clipPath>
  </defs>
  <g id="グループ_685" data-name="グループ 685" transform="translate(-204 -487.395)">
    <g id="グループ_11" data-name="グループ 11" transform="translate(204 487.395)">
      <g id="グループ_10" data-name="グループ 10" clip-path="url(#clip-path)">
        <path id="パス_12" data-name="パス 12" d="M130.46,86.2C131.924,80.727,140,75.933,140,70s-8.076-10.727-9.54-16.2c-1.517-5.663,3.038-13.846.169-18.8-2.911-5.033-12.3-5.16-16.381-9.243s-4.21-13.47-9.243-16.382c-4.959-2.868-13.141,1.687-18.8.17C80.728,8.076,75.934,0,70,0S59.272,8.076,53.8,9.54C48.135,11.056,39.953,6.5,35,9.37c-5.033,2.912-5.16,12.3-9.244,16.382s-13.469,4.21-16.381,9.243C6.5,39.952,11.056,48.135,9.54,53.8,8.076,59.272,0,64.066,0,70S8.076,80.727,9.54,86.2c1.517,5.663-3.038,13.846-.169,18.8,2.912,5.033,12.3,5.16,16.381,9.244S29.963,127.718,35,130.629c4.958,2.869,13.14-1.687,18.8-.17C59.272,131.923,64.066,140,70,140s10.728-8.077,16.2-9.541c5.663-1.517,13.846,3.039,18.8.17,5.033-2.912,5.16-12.3,9.243-16.381s13.47-4.211,16.381-9.244c2.869-4.958-1.686-13.141-.169-18.8" transform="translate(0 0)" fill="#ffda00"/>
        <path id="パス_13" data-name="パス 13" d="M70.664,136.276c-1.439,0-3.187-1.268-6.326-3.933-2.515-2.137-5.362-4.554-8.742-5.458a14.675,14.675,0,0,0-3.83-.466,38.365,38.365,0,0,0-6.741.8,31.34,31.34,0,0,1-5.133.658,4.283,4.283,0,0,1-2.02-.371c-1.2-.692-2.057-2.633-3.426-6.456-1.127-3.149-2.405-6.715-4.929-9.24s-6.092-3.8-9.239-4.928c-3.824-1.371-5.763-2.23-6.446-3.409-.656-1.133-.433-3.212.276-7.163.6-3.32,1.271-7.082.334-10.58-.9-3.376-3.321-6.223-5.454-8.735-2.667-3.142-3.937-4.89-3.937-6.331s1.27-3.19,3.938-6.331c2.133-2.512,4.55-5.359,5.453-8.736.936-3.5.261-7.258-.334-10.576-.71-3.952-.932-6.032-.276-7.164.683-1.181,2.623-2.04,6.447-3.409,3.148-1.127,6.714-2.405,9.238-4.929s3.8-6.092,4.929-9.238c1.369-3.824,2.229-5.764,3.408-6.448a4.229,4.229,0,0,1,2.037-.38,31.415,31.415,0,0,1,5.118.656,38.419,38.419,0,0,0,6.756.8,14.657,14.657,0,0,0,3.832-.467c3.376-.9,6.223-3.321,8.735-5.453,3.141-2.668,4.889-3.937,6.33-3.937s3.189,1.269,6.33,3.936c2.514,2.134,5.36,4.552,8.738,5.456a14.682,14.682,0,0,0,3.831.466,38.4,38.4,0,0,0,6.745-.8,31.52,31.52,0,0,1,5.128-.658,4.224,4.224,0,0,1,2.038.381c1.179.682,2.038,2.621,3.407,6.442,1.128,3.151,2.406,6.719,4.93,9.243s6.092,3.8,9.238,4.928c3.825,1.37,5.766,2.229,6.449,3.409.656,1.134.433,3.213-.276,7.162-.6,3.319-1.272,7.08-.334,10.58.9,3.375,3.32,6.223,5.452,8.734,2.669,3.142,3.939,4.891,3.939,6.332s-1.27,3.19-3.938,6.33c-2.132,2.513-4.55,5.359-5.453,8.736-.937,3.5-.261,7.261.334,10.58.709,3.95.931,6.029.276,7.161-.683,1.18-2.621,2.039-6.442,3.408-3.152,1.128-6.72,2.405-9.245,4.929s-3.8,6.092-4.928,9.238c-1.369,3.825-2.229,5.766-3.409,6.449a4.228,4.228,0,0,1-2.036.38,31.33,31.33,0,0,1-5.126-.657,38.369,38.369,0,0,0-6.749-.8,14.618,14.618,0,0,0-3.831.468c-3.377.9-6.224,3.32-8.735,5.452-3.143,2.668-4.89,3.937-6.331,3.937m-18.9-12.783a17.509,17.509,0,0,1,4.586.566c4.015,1.074,7.128,3.718,9.874,6.051.984.836,3.555,3.018,4.437,3.234.883-.216,3.455-2.4,4.436-3.233,2.748-2.334,5.861-4.978,9.873-6.051a17.527,17.527,0,0,1,4.588-.567,40.614,40.614,0,0,1,7.259.846,29.763,29.763,0,0,0,4.616.612,4.218,4.218,0,0,0,.595-.035,26.216,26.216,0,0,0,2.1-4.854c1.232-3.438,2.626-7.333,5.615-10.322s6.885-4.384,10.322-5.614a25.265,25.265,0,0,0,4.876-2.118,26.855,26.855,0,0,0-.6-5.183c-.65-3.619-1.387-7.722-.281-11.851,1.074-4.014,3.718-7.127,6.05-9.874.834-.98,3.019-3.554,3.235-4.437-.215-.883-2.4-3.457-3.235-4.437-2.333-2.748-4.976-5.861-6.049-9.873-1.107-4.131-.369-8.234.281-11.854a26.84,26.84,0,0,0,.6-5.183,25.36,25.36,0,0,0-4.876-2.117c-3.439-1.231-7.334-2.626-10.322-5.615s-4.384-6.884-5.615-10.321a26.136,26.136,0,0,0-2.1-4.853,4.038,4.038,0,0,0-.6-.036,29.83,29.83,0,0,0-4.6.609,40.65,40.65,0,0,1-7.273.849,17.525,17.525,0,0,1-4.587-.566c-4.013-1.074-7.127-3.718-9.873-6.05-.982-.834-3.555-3.018-4.438-3.235-.882.215-3.456,2.4-4.437,3.235-2.747,2.332-5.86,4.976-9.872,6.049a17.5,17.5,0,0,1-4.589.567,40.581,40.581,0,0,1-7.266-.848,29.823,29.823,0,0,0-4.608-.611,4.048,4.048,0,0,0-.595.036,26.1,26.1,0,0,0-2.1,4.853C35.97,24.7,34.575,28.6,31.587,31.586S24.7,35.97,21.267,37.2a25.254,25.254,0,0,0-4.878,2.118,26.84,26.84,0,0,0,.6,5.183c.65,3.621,1.386,7.724.281,11.851-1.074,4.013-3.717,7.126-6.049,9.873-.834.982-3.02,3.555-3.236,4.439.215.883,2.4,3.457,3.234,4.437,2.333,2.747,4.977,5.86,6.05,9.873,1.106,4.129.369,8.232-.281,11.85a26.9,26.9,0,0,0-.6,5.186,25.208,25.208,0,0,0,4.872,2.116c3.441,1.232,7.336,2.627,10.326,5.616s4.383,6.884,5.614,10.321a26.131,26.131,0,0,0,2.1,4.854,4.167,4.167,0,0,0,.595.036,29.743,29.743,0,0,0,4.608-.611,40.625,40.625,0,0,1,7.266-.848" transform="translate(-0.664 -0.664)" fill="#fff"/>
      </g>
    </g>
    <path id="パス_517" data-name="パス 517" d="M18.96.936a2.551,2.551,0,0,0,2.688-2.712c.072-2.232.1-4.416.1-6.576,0-2.592-.048-5.16-.1-7.68a2.553,2.553,0,0,0-2.688-2.592c-1.368-.048-2.76-.048-4.152-.048s-2.76,0-4.08.048a2.6,2.6,0,0,0-2.64,2.544c-.048,2.448-.072,4.872-.072,7.248,0,2.4.024,4.776.072,7.176A2.521,2.521,0,0,0,10.776.936c1.536.048,3,.072,4.416.072C16.464,1.008,17.712.984,18.96.936ZM3.456.48V.528a1.02,1.02,0,0,0,1.1,1.008A1.1,1.1,0,0,0,5.736.48L6-13.824a22.365,22.365,0,0,0,1.8-4.32,1.27,1.27,0,0,0-1.32-1.128,1.006,1.006,0,0,0-1.008.744A21.238,21.238,0,0,1,.792-9.984a1.151,1.151,0,0,0-.336.792A1.061,1.061,0,0,0,1.512-8.16a1.453,1.453,0,0,0,1.056-.5A17.237,17.237,0,0,0,3.72-10.032Zm14.856-1.7c-1.272.024-2.544.048-3.792.048-1.032,0-2.04-.024-3.048-.048-.744-.024-1.152-.24-1.176-1.056-.048-1.968-.072-4.08-.072-6.192,0-2.376.024-4.776.072-7.056a.978.978,0,0,1,1.08-1.056c1.008-.048,2.112-.048,3.288-.048s2.4,0,3.576.048c.672.024,1.128.216,1.152,1.08.048,1.992.072,4.224.072,6.48s-.024,4.536-.072,6.672C19.368-1.584,19.008-1.248,18.312-1.224ZM17.9-11.592a.88.88,0,0,0,.936-.936.88.88,0,0,0-.936-.936H17.88l-2.04.024V-15.1A1.013,1.013,0,0,0,14.76-16.1a.974.974,0,0,0-1.056.984v.024l.024,1.656-1.992-.024h-.024a.957.957,0,0,0-.984.984.884.884,0,0,0,.984.888h.024l1.992-.024.024,1.872h-.288c-1.2,0-1.776.648-1.8,1.416-.024.624-.024,1.32-.024,2.016s0,1.392.024,2.016c.072,1.536,1.464,1.584,3.048,1.584,3.24,0,3.264-.5,3.264-3.216,0-.816-.024-1.632-.072-2.424-.048-.816-.768-1.344-1.776-1.392-.1,0-.192-.024-.312-.024v-1.848l2.064.024Zm-3.24,7.128c-.672,0-1.08-.048-1.08-.5-.024-.48-.024-1.008-.024-1.512,0-1.632.072-1.656,1.2-1.656.624,0,1.2.048,1.2.5,0,.6.024,1.224.024,1.824C15.984-4.464,15.96-4.464,14.664-4.464Zm19.968-9.888c.072-1.032.1-2.064.1-2.9a1.244,1.244,0,0,0-1.32-1.272,1.237,1.237,0,0,0-1.344,1.2v.072c.048.72.1,1.536.1,2.256,0,1.8-.216,10.224-8.4,13.872A1.305,1.305,0,0,0,22.872.048a1.38,1.38,0,0,0,1.392,1.32,1.556,1.556,0,0,0,.7-.168A16.108,16.108,0,0,0,33.6-8.784c2.088,5.472,7.152,9.84,9.192,9.84A1.53,1.53,0,0,0,44.376-.408a1.23,1.23,0,0,0-.936-1.176c-4.008-1.488-8.328-6.6-8.784-12.48a.468.468,0,0,0-.024-.192Z" transform="translate(224.982 552.09)" fill="#595857"/>
    <path id="パス_516" data-name="パス 516" d="M14.544-9.12A2.53,2.53,0,0,0,12-11.664,2.53,2.53,0,0,0,9.456-9.12,2.53,2.53,0,0,0,12-6.576,2.53,2.53,0,0,0,14.544-9.12Z" transform="translate(262.902 552.09)" fill="#595857"/>
    <path id="パス_515" data-name="パス 515" d="M21.5-7.92a1.043,1.043,0,0,0,1.152-1.032A1.057,1.057,0,0,0,21.5-9.984l-5.568.024v-3.288l4.176.024a1.057,1.057,0,0,0,1.152-1.032,1.061,1.061,0,0,0-1.152-1.056l-4.152.024v-2.736a1.1,1.1,0,0,0-1.2-1.056,1.065,1.065,0,0,0-1.176,1.056v2.736l-3.672-.024A1.049,1.049,0,0,0,8.784-14.28a1.053,1.053,0,0,0,1.128,1.056l3.672-.024.024,3.288-5.04-.024A1,1,0,0,0,7.512-8.952,1.014,1.014,0,0,0,8.568-7.92h4.1a39.694,39.694,0,0,1-1.944,6.144C9.864-1.7,9-1.632,8.184-1.608A1.019,1.019,0,0,0,7.224-.48,1.124,1.124,0,0,0,8.3.744,78.786,78.786,0,0,0,19.464-1.08,12.129,12.129,0,0,1,20.04.192a1.133,1.133,0,0,0,1.056.816A1.373,1.373,0,0,0,22.44-.336c0-.888-1.512-3.216-4.056-5.712a1.306,1.306,0,0,0-.912-.408,1.066,1.066,0,0,0-1.1.984A1.142,1.142,0,0,0,16.7-4.7a23.322,23.322,0,0,1,1.608,1.848c-1.656.312-3.456.624-5.28.84a49.114,49.114,0,0,0,2.16-5.9ZM6.744-14.712a1.353,1.353,0,0,0,1.272-1.3c0-1.368-3.072-2.64-3.624-2.64A1.287,1.287,0,0,0,3.1-17.5a.819.819,0,0,0,.5.72A8.315,8.315,0,0,1,5.9-15.1,1.179,1.179,0,0,0,6.744-14.712Zm-1.32,5.04A1.276,1.276,0,0,0,6.6-10.992c0-1.632-3.552-2.136-3.912-2.136a1.231,1.231,0,0,0-1.2,1.176.847.847,0,0,0,.624.816,9.112,9.112,0,0,1,2.64,1.224A1.151,1.151,0,0,0,5.424-9.672ZM4.392.552C5.9-1.3,7.944-5.352,7.944-6.072a1.126,1.126,0,0,0-1.176-1.08,1.031,1.031,0,0,0-.984.624A23.873,23.873,0,0,1,2.3-.84a1.176,1.176,0,0,0-.312.768A1.288,1.288,0,0,0,3.264,1.152,1.412,1.412,0,0,0,4.392.552Zm30.24-14.9c.072-1.032.1-2.064.1-2.9a1.244,1.244,0,0,0-1.32-1.272,1.237,1.237,0,0,0-1.344,1.2v.072c.048.72.1,1.536.1,2.256,0,1.8-.216,10.224-8.4,13.872A1.305,1.305,0,0,0,22.872.048a1.38,1.38,0,0,0,1.392,1.32,1.556,1.556,0,0,0,.7-.168A16.108,16.108,0,0,0,33.6-8.784c2.088,5.472,7.152,9.84,9.192,9.84A1.53,1.53,0,0,0,44.376-.408a1.23,1.23,0,0,0-.936-1.176c-4.008-1.488-8.328-6.6-8.784-12.48a.468.468,0,0,0-.024-.192Z" transform="translate(281.861 552.09)" fill="#595857"/>
    <path id="パス_514" data-name="パス 514" d="M15.84.684c7.92,0,13.9-5.58,13.9-13.968a13.547,13.547,0,0,0-13.9-13.968A13.518,13.518,0,0,0,1.98-13.284C1.98-4.9,7.92.684,15.84.684Zm0-3.78c-5.328,0-9.648-4-9.648-10.188,0-6.228,4.32-10.26,9.648-10.26s9.648,4.032,9.648,10.26C25.488-7.092,21.168-3.1,15.84-3.1ZM31.14-1.4A1.867,1.867,0,0,0,33.228.324c1.044,0,2.052-.54,2.052-1.692V-1.44c-.072-1.656-.072-3.24-.072-4.68,0-2.34.036-4.248.072-5.184,0-.54.4-.576.684-.576s.5-.036.756-.036a1.775,1.775,0,0,1,1.512.72C40.86-8.136,46.944-1.62,48.168-.36a2.224,2.224,0,0,0,1.62.72A2.5,2.5,0,0,0,52.2-2.016a2.2,2.2,0,0,0-.612-1.476c-.612-.684-7.2-6.948-10.26-10.08a.884.884,0,0,1-.324-.54.866.866,0,0,1,.324-.576c2.52-2.664,6.912-7.056,8.5-9a1.767,1.767,0,0,0,.4-1.116A2.413,2.413,0,0,0,47.88-27a1.776,1.776,0,0,0-1.476.756c-1.476,1.944-5.652,6.552-8.244,9.36a2.482,2.482,0,0,1-1.944,1.044c-.864,0-.936-.4-.936-.72-.036-.9-.072-2.484-.072-4.428,0-1.26.036-2.664.072-4.1v-.072a1.931,1.931,0,0,0-2.088-1.872,1.864,1.864,0,0,0-2.052,1.944c.072,2.736.108,6.552.108,10.584,0,4.5-.036,9.252-.108,13.068Z" transform="translate(246.173 589.856)" fill="#595857"/>
  </g>
</svg>
