<svg xmlns="http://www.w3.org/2000/svg" xmlns:xlink="http://www.w3.org/1999/xlink" width="426.131" height="253.345" viewBox="0 0 426.131 253.345">
  <defs>
    <clipPath id="clip-path">
      <rect id="長方形_15" data-name="長方形 15" width="240.267" height="240.267" fill="none"/>
    </clipPath>
    <clipPath id="clip-path-2">
      <rect id="長方形_290" data-name="長方形 290" width="87.152" height="94.419" fill="none"/>
    </clipPath>
  </defs>
  <g id="グループ_735" data-name="グループ 735" transform="translate(-272 -3674)">
    <g id="グループ_588" data-name="グループ 588" transform="translate(365 3674)">
      <g id="グループ_10" data-name="グループ 10" clip-path="url(#clip-path)">
        <path id="パス_12" data-name="パス 12" d="M223.894,147.937c2.512-9.393,16.372-17.62,16.372-27.8s-13.86-18.41-16.372-27.8c-2.6-9.719,5.214-23.763.291-32.272-5-8.637-21.105-8.856-28.113-15.862s-7.225-23.118-15.862-28.114c-8.51-4.922-22.553,2.895-32.272.292C138.545,13.861,130.318,0,120.133,0s-18.412,13.862-27.8,16.374c-9.721,2.6-23.763-5.214-32.272-.292-8.637,5-8.856,21.105-15.864,28.114S21.078,51.42,16.082,60.057c-4.924,8.509,2.893,22.553.291,32.272C13.86,101.722,0,109.949,0,120.132s13.86,18.412,16.372,27.8c2.6,9.719-5.214,23.763-.291,32.272,5,8.637,21.105,8.856,28.113,15.864s7.227,23.116,15.864,28.113c8.509,4.924,22.551-2.895,32.272-.292,9.391,2.512,17.618,16.374,27.8,16.374s18.412-13.862,27.8-16.374c9.719-2.6,23.762,5.216,32.272.292,8.637-5,8.855-21.105,15.862-28.113s23.118-7.227,28.113-15.864c4.924-8.509-2.893-22.553-.291-32.272" transform="translate(0 0)" fill="#ffda00"/>
        <path id="パス_13" data-name="パス 13" d="M117.654,230.257c-2.47,0-5.469-2.176-10.857-6.75-4.317-3.667-9.2-7.816-15-9.368a25.185,25.185,0,0,0-6.572-.8,65.842,65.842,0,0,0-11.569,1.373,53.786,53.786,0,0,1-8.808,1.13,7.35,7.35,0,0,1-3.466-.637c-2.056-1.188-3.53-4.518-5.879-11.08-1.935-5.4-4.128-11.525-8.46-15.858s-10.454-6.523-15.856-8.457c-6.564-2.352-9.891-3.827-11.062-5.851-1.125-1.944-.744-5.513.474-12.292,1.023-5.7,2.181-12.154.574-18.157-1.55-5.794-5.7-10.679-9.36-14.99-4.578-5.392-6.757-8.393-6.757-10.866s2.179-5.475,6.759-10.866c3.661-4.311,7.808-9.2,9.359-14.992,1.607-6,.449-12.456-.574-18.151-1.218-6.783-1.6-10.351-.474-12.3,1.172-2.027,4.5-3.5,11.064-5.851,5.4-1.935,11.523-4.128,15.855-8.46s6.525-10.454,8.46-15.855c2.349-6.564,3.825-9.892,5.849-11.065a7.258,7.258,0,0,1,3.5-.653,53.913,53.913,0,0,1,8.783,1.125A65.933,65.933,0,0,0,85.223,21.97a25.154,25.154,0,0,0,6.577-.8c5.794-1.55,10.679-5.7,14.99-9.359,5.39-4.579,8.391-6.757,10.864-6.757s5.472,2.178,10.863,6.754c4.314,3.663,9.2,7.813,15,9.363a25.2,25.2,0,0,0,6.574.8A65.894,65.894,0,0,0,161.663,20.6a54.1,54.1,0,0,1,8.8-1.128,7.248,7.248,0,0,1,3.5.654c2.023,1.17,3.5,4.5,5.846,11.056,1.936,5.408,4.129,11.53,8.461,15.862s10.454,6.525,15.853,8.458c6.565,2.351,9.9,3.825,11.067,5.851,1.125,1.945.744,5.514-.474,12.291-1.023,5.7-2.182,12.151-.574,18.158,1.55,5.793,5.7,10.679,9.357,14.989,4.581,5.392,6.76,8.394,6.76,10.867s-2.179,5.474-6.759,10.864c-3.66,4.313-7.808,9.2-9.359,14.993-1.608,6-.449,12.461.574,18.157,1.216,6.778,1.6,10.347.474,12.289-1.172,2.026-4.5,3.5-11.055,5.849-5.41,1.936-11.532,4.128-15.865,8.46s-6.523,10.454-8.458,15.855c-2.349,6.565-3.825,9.9-5.851,11.067a7.255,7.255,0,0,1-3.494.653,53.77,53.77,0,0,1-8.8-1.127,65.848,65.848,0,0,0-11.583-1.376,25.086,25.086,0,0,0-6.575.8c-5.8,1.549-10.681,5.7-14.99,9.357-5.393,4.579-8.393,6.757-10.866,6.757M85.223,208.318a30.048,30.048,0,0,1,7.871.972c6.89,1.842,12.233,6.38,16.946,10.384,1.689,1.434,6.1,5.179,7.614,5.55,1.515-.371,5.93-4.12,7.613-5.548,4.717-4.005,10.059-8.543,16.945-10.384a30.079,30.079,0,0,1,7.874-.973,69.7,69.7,0,0,1,12.458,1.452,51.078,51.078,0,0,0,7.922,1.051,7.237,7.237,0,0,0,1.021-.06c1.07-1.275,2.89-6.358,3.6-8.33,2.114-5.9,4.506-12.584,9.636-17.714s11.815-7.524,17.714-9.634c2-.716,7.172-2.568,8.369-3.634.283-1.588-.7-7.052-1.029-8.895-1.115-6.212-2.381-13.252-.483-20.339,1.842-6.888,6.38-12.231,10.383-16.946,1.431-1.681,5.182-6.1,5.551-7.614-.37-1.516-4.122-5.933-5.551-7.614-4-4.717-8.54-10.059-10.381-16.943-1.9-7.09-.634-14.13.481-20.343.331-1.841,1.312-7.306,1.029-8.895-1.2-1.064-6.376-2.919-8.369-3.633-5.9-2.112-12.586-4.506-17.714-9.636s-7.524-11.814-9.636-17.712c-.708-1.975-2.528-7.058-3.6-8.328a6.931,6.931,0,0,0-1.021-.061,51.194,51.194,0,0,0-7.895,1.045,69.763,69.763,0,0,1-12.482,1.458,30.076,30.076,0,0,1-7.872-.972c-6.887-1.842-12.231-6.38-16.945-10.383-1.686-1.431-6.1-5.18-7.616-5.551-1.515.37-5.931,4.122-7.614,5.551-4.715,4-10.058,8.54-16.942,10.381a30.035,30.035,0,0,1-7.875.973,69.646,69.646,0,0,1-12.47-1.455,51.182,51.182,0,0,0-7.908-1.048,6.947,6.947,0,0,0-1.021.061c-1.07,1.272-2.892,6.356-3.6,8.328-2.114,5.9-4.508,12.584-9.636,17.712S38.777,58.113,32.88,60.225c-2,.714-7.175,2.568-8.372,3.634-.283,1.589.7,7.054,1.029,8.895,1.115,6.215,2.379,13.255.483,20.339-1.842,6.887-6.379,12.23-10.381,16.943-1.431,1.684-5.183,6.1-5.553,7.617.37,1.515,4.12,5.933,5.55,7.614,4,4.715,8.542,10.058,10.383,16.943,1.9,7.087.634,14.127-.481,20.337-.331,1.847-1.312,7.312-1.029,8.9,1.2,1.066,6.37,2.919,8.361,3.631,5.9,2.114,12.59,4.508,17.721,9.637s7.522,11.814,9.634,17.712c.707,1.974,2.527,7.055,3.6,8.33a7.153,7.153,0,0,0,1.021.061,51.044,51.044,0,0,0,7.908-1.048,69.72,69.72,0,0,1,12.47-1.455" transform="translate(2.479 2.479)" fill="#fff"/>
      </g>
    </g>
    <path id="パス_545" data-name="パス 545" d="M-35.278-27.094v2.418H-47.74a41.643,41.643,0,0,1-6.2-.31v6.262a57.605,57.605,0,0,1,6.2-.248h12.462v2.356H-51.212a60.572,60.572,0,0,1-7.688-.372v6.944a72.132,72.132,0,0,1,7.75-.372h10.292C-45.88-6.572-51.708-4.154-60.326-2.48a26.833,26.833,0,0,1,4.34,7.13A57.162,57.162,0,0,0-43.9-.372a36.561,36.561,0,0,0,8.8-6.572c-.124,2.232-.124,2.418-.124,3.906v2.48a45.625,45.625,0,0,1-.372,6.2h8.308a41.947,41.947,0,0,1-.372-6.2V-3.1c0-1.55,0-1.86-.124-3.968C-22.382-1.674-15.5,1.984-5.7,4.65A29.252,29.252,0,0,1-1.612-2.79c-9.052-1.488-15.5-3.906-20.274-7.626h11.222a71.363,71.363,0,0,1,7.626.372v-6.944a57.941,57.941,0,0,1-7.688.372H-27.59v-2.356h13.206a57.605,57.605,0,0,1,6.2.248v-6.262a43.722,43.722,0,0,1-6.2.31H-27.59v-2.418h16.12a59.863,59.863,0,0,1,6.2.248v-6.572a54.736,54.736,0,0,1-6.2.248h-6.448c.62-1.178.682-1.3,1.8-3.658h5.7c3.038,0,5.642.124,7.564.31V-43.71a52.933,52.933,0,0,1-7.13.372h-.868a50.857,50.857,0,0,0,3.472-5.518l-7.5-2.666A34.323,34.323,0,0,1-19.1-43.338H-22.01v-4.216a30.718,30.718,0,0,1,.31-4.712h-8a27.714,27.714,0,0,1,.248,4.34v4.588h-3.658v-4.588a38.984,38.984,0,0,1,.186-4.34h-7.936a32.584,32.584,0,0,1,.31,4.712v4.216h-2.728a41.222,41.222,0,0,0-4.4-8.06l-7.44,2.666a25.514,25.514,0,0,1,3.782,5.394h-.93a53.83,53.83,0,0,1-7.068-.372v7.192c1.922-.186,4.464-.31,7.44-.31h6.138A31.749,31.749,0,0,1-43.9-33.17h-6.82a53.526,53.526,0,0,1-6.138-.248v6.572a58.592,58.592,0,0,1,6.138-.248Zm-.558-6.076c-.558-1.55-.868-2.232-1.488-3.658h12.648a35,35,0,0,1-1.612,3.658Zm54.25,8.742a24.876,24.876,0,0,1-7.75,5.332,61.031,61.031,0,0,1-9.3,3.348A32.13,32.13,0,0,1,5.332-8.184a51.506,51.506,0,0,0,13.516-7.13c0,5.766-1.86,8.928-6.7,11.408C9.858-2.666,8.308-2.17,3.968-1.116A22.764,22.764,0,0,1,8.8,5.89c6.944-2.232,10.168-3.968,13.144-7.068Q26.6-6.2,26.97-15.128a20.646,20.646,0,0,1,.248-2.728h-5.27A31.078,31.078,0,0,0,27.9-24.428h5.7a39.967,39.967,0,0,0,6.386,6.572H35.9a35.892,35.892,0,0,1,.248,4.96V-1.86a57.6,57.6,0,0,1-.372,7.13H44.7A58.659,58.659,0,0,1,44.33-1.8v-12.71A63.45,63.45,0,0,0,56.978-8.122a34.133,34.133,0,0,1,3.782-8,61.034,61.034,0,0,1-9.424-3.286,28.779,28.779,0,0,1-8-5.022h4.65c3.1,0,4.96.062,6.944.248a48.674,48.674,0,0,1-.31-6.758v-12.9a49.577,49.577,0,0,1,.31-6.882c-1.984.186-3.782.248-6.944.248H14.2c-3.224,0-5.022-.062-7.006-.248a51.243,51.243,0,0,1,.31,6.882v12.9a50.337,50.337,0,0,1-.31,6.758c1.922-.186,3.906-.248,6.82-.248ZM15.314-43.9H26.908v3.658H15.314Zm0,9.61H26.908v3.72H15.314ZM34.6-43.9H46.81v3.658H34.6Zm0,9.61H46.81v3.72H34.6Z" transform="translate(486 3779)" fill="#6b95c8"/>
    <path id="パス_544" data-name="パス 544" d="M-76.212-5.1c-2.2.174-3.712.232-4.814.232h-.87l1.508,7.134c2.146-.406,2.146-.406,7.018-1.1C-69.658.638-65.83,0-61.422-.812a41.829,41.829,0,0,1-.29,5.916h7.482a41.93,41.93,0,0,1-.348-5.568,18.976,18.976,0,0,1,2.842,5.1,42.924,42.924,0,0,0,8.7-5.22c2.958,2.03,5.568,3.248,11.774,5.568a29.4,29.4,0,0,1,3.364-6.9A42.363,42.363,0,0,1-37.932-5.162a53.221,53.221,0,0,0,6.322-8.99,21.893,21.893,0,0,1,1.16-1.972l-3.538-3.886a26.393,26.393,0,0,1-4.292.232H-48.2a34.634,34.634,0,0,1-4.872-.232v6.38a32.814,32.814,0,0,1,4.524-.232h1.276l-5.452,2.32A39.208,39.208,0,0,0-48.2-5.162a38.628,38.628,0,0,1-6.38,3.074V-21.924h19.836a47.412,47.412,0,0,1,6.438.29v-6.322a43.53,43.53,0,0,1-6.322.29H-75.342a43.53,43.53,0,0,1-6.322-.29v6.322a46.029,46.029,0,0,1,5.452-.29Zm6.9-16.82h7.888v1.972H-69.31Zm0,6.554h7.888v2.2H-69.31Zm0,6.786h7.888v1.856c-4.756.7-4.756.7-7.888,1.044Zm29.986-5.278A28.8,28.8,0,0,1-43.21-9.048a19.823,19.823,0,0,1-3.422-4.814Zm5.1-28.536a41.041,41.041,0,0,1,.232-5.22,60.411,60.411,0,0,1-6.148.232H-69.6a61.144,61.144,0,0,1-6.148-.232,41.627,41.627,0,0,1,.232,5.22v7.888a41.194,41.194,0,0,1-.232,5.162c1.74-.116,3.248-.174,5.858-.174h30.856c3.77.058,3.77.058,5.046.174a42.222,42.222,0,0,1-.232-5.22Zm-34.1-.174H-41.47v2.146H-68.324Zm0,6.322H-41.47V-34.1H-68.324Zm88.1,14.732a50.954,50.954,0,0,1,6.554.29v-7.54a41.844,41.844,0,0,1-6.554.29H-1.45c1.044-2.146,1.044-2.2,1.218-2.552,1.508-2.958,1.508-2.958,1.972-3.944L-6.5-36.134A40.923,40.923,0,0,1-9.8-28.478h-9.8a44.661,44.661,0,0,1-6.612-.29v7.54a62.288,62.288,0,0,1,6.612-.29h5.8a79.68,79.68,0,0,1-6.67,9.222A134,134,0,0,1-5.278-7.54c-6.206,3.074-11.6,4.466-20.938,5.394a24.528,24.528,0,0,1,3.6,7.308A81.737,81.737,0,0,0-7.366,1.1,40.491,40.491,0,0,0,2.842-4.176,111.816,111.816,0,0,1,19.894,5.1l5.684-6.322A170.632,170.632,0,0,0,8.7-9.4c3.306-3.77,4.93-6.554,6.96-12.122Zm-12.18,0A24.322,24.322,0,0,1,1.45-12.18,100.156,100.156,0,0,0-8.99-15.544c1.8-2.61,2.32-3.422,3.828-5.974ZM-4.408-43.964H-18.792c-3.132,0-4.814-.058-6.786-.232.116,1.45.232,3.016.232,4.466v4.756a22.917,22.917,0,0,1-.29,4.35h7.54v-6.438H18.038v6.438h7.54a32.8,32.8,0,0,1-.29-4.35V-39.73A37.741,37.741,0,0,1,25.52-44.2c-1.972.174-3.712.232-6.844.232H3.422v-.812a28.062,28.062,0,0,1,.232-4.176H-4.64a30.473,30.473,0,0,1,.232,4.234ZM66-35.09c.348-1.334.348-1.334.7-3.074h9.918a51.386,51.386,0,0,1,5.394.232v-7.134a38.846,38.846,0,0,1-6.322.348H67.918c.174-.928.174-.928.7-4l-7.54-.406a39.709,39.709,0,0,1-.406,4.408H50.982a44.442,44.442,0,0,1-6.38-.29v7.076a51.114,51.114,0,0,1,5.452-.232h9.57c-.232,1.16-.232,1.218-.7,3.074h-.754c-2.436,0-3.248,0-4.582-.116a42.288,42.288,0,0,1,.174,4.582V-10.9c0,1.914-.058,3.074-.116,4.524,2.2-.116,3.074-.116,4.756-.116h15.66c1.682,0,2.668,0,4.872.116a45.761,45.761,0,0,1-.232-5.278V-29.522a52.937,52.937,0,0,1,.232-5.684c-1.16.058-2.146.116-4.872.116ZM60.61-29.7H71.862v2.552H60.61Zm0,7.6H71.862V-19.6H60.61Zm0,7.54H71.862v2.61H60.61ZM32.77-1.682a50.706,50.706,0,0,1-.348,6.728h8a50.345,50.345,0,0,1-.348-6.67v-33a90.026,90.026,0,0,0,4.814-13.05l-7.83-1.8A33.352,33.352,0,0,1,34.8-41.18a39.081,39.081,0,0,1-8.062,13.572,44.057,44.057,0,0,1,2.726,8.642,41.739,41.739,0,0,0,3.422-4.872c-.116,3.016-.116,4.234-.116,6.148ZM50.518,5.1V2.61H74.994a54.549,54.549,0,0,1,6.67.348v-7.25A50.407,50.407,0,0,1,75.11-4H50.518V-27.608a52.726,52.726,0,0,1,.29-6.786H43.094a53.281,53.281,0,0,1,.29,6.786V-2.146a58.7,58.7,0,0,1-.29,7.25Z" transform="translate(486 3843)" fill="#6b95c8"/>
    <g id="グループ_601" data-name="グループ 601" transform="translate(613.213 3815.742) rotate(13)">
      <rect id="長方形_289" data-name="長方形 289" width="7.356" height="90.232" transform="translate(0 4.187)" fill="#fff"/>
      <g id="グループ_600" data-name="グループ 600">
        <g id="グループ_599" data-name="グループ 599" clip-path="url(#clip-path-2)">
          <path id="パス_464" data-name="パス 464" d="M42.592,4.488C24.749-3.666,8.825,1.227,0,4.1V54.37C4.413,49,11.607,47.08,18.706,47.08s14.581,2.59,20.625,5.564Z" transform="translate(11.849 0)" fill="#fff"/>
          <path id="パス_465" data-name="パス 465" d="M50.362,0c-3.07,4.413-13.526,10.456-29.834,5.372l-2.878,42.88S2.494,42.784.192,42.3L0,48.156c1.535-.1,8.154,2.014,9.976,2.782s11.991,4.413,17.363,3.933,17.075-.576,23.214-4.6Z" transform="translate(36.598 8.901)" fill="#fff"/>
        </g>
      </g>
    </g>
    <g id="グループ_604" data-name="グループ 604" transform="translate(378.158 3907.74) rotate(167)">
      <rect id="長方形_289-2" data-name="長方形 289" width="7.357" height="90.232" transform="translate(0 0)" fill="#fff"/>
      <g id="グループ_600-2" data-name="グループ 600" transform="translate(0 0)">
        <g id="グループ_599-2" data-name="グループ 599" clip-path="url(#clip-path-2)">
          <path id="パス_464-2" data-name="パス 464" d="M42.592,49.882C24.749,58.036,8.825,53.144,0,50.266V0C4.413,5.372,11.607,7.29,18.706,7.29S33.287,4.7,39.33,1.727Z" transform="translate(11.849 40.048)" fill="#fff"/>
          <path id="パス_465-2" data-name="パス 465" d="M50.362,54.914c-3.07-4.413-13.526-10.456-29.834-5.372L17.651,6.662S2.494,12.13.192,12.61L0,6.758c1.535.1,8.154-2.014,9.976-2.782S21.967-.436,27.339.043s17.075.576,23.214,4.6Z" transform="translate(36.598 30.604)" fill="#fff"/>
        </g>
      </g>
    </g>
  </g>
</svg>
