<svg xmlns="http://www.w3.org/2000/svg" xmlns:xlink="http://www.w3.org/1999/xlink" width="759.5" height="240.267" viewBox="0 0 759.5 240.267">
  <defs>
    <clipPath id="clip-path">
      <rect id="長方形_15" data-name="長方形 15" width="240.267" height="240.267" fill="none"/>
    </clipPath>
  </defs>
  <g id="グループ_737" data-name="グループ 737" transform="translate(-337.5 -4053)">
    <g id="グループ_588" data-name="グループ 588" transform="translate(600 4053)">
      <g id="グループ_10" data-name="グループ 10" clip-path="url(#clip-path)">
        <path id="パス_12" data-name="パス 12" d="M223.894,147.937c2.512-9.393,16.372-17.62,16.372-27.8s-13.86-18.41-16.372-27.8c-2.6-9.719,5.214-23.763.291-32.272-5-8.637-21.105-8.856-28.113-15.862s-7.225-23.118-15.862-28.114c-8.51-4.922-22.553,2.895-32.272.292C138.545,13.861,130.318,0,120.133,0s-18.412,13.862-27.8,16.374c-9.721,2.6-23.763-5.214-32.272-.292-8.637,5-8.856,21.105-15.864,28.114S21.078,51.42,16.082,60.057c-4.924,8.509,2.893,22.553.291,32.272C13.86,101.722,0,109.949,0,120.132s13.86,18.412,16.372,27.8c2.6,9.719-5.214,23.763-.291,32.272,5,8.637,21.105,8.856,28.113,15.864s7.227,23.116,15.864,28.113c8.509,4.924,22.551-2.895,32.272-.292,9.391,2.512,17.618,16.374,27.8,16.374s18.412-13.862,27.8-16.374c9.719-2.6,23.762,5.216,32.272.292,8.637-5,8.855-21.105,15.862-28.113s23.118-7.227,28.113-15.864c4.924-8.509-2.893-22.553-.291-32.272" transform="translate(0 0)" fill="#ffda00"/>
        <path id="パス_13" data-name="パス 13" d="M117.654,230.257c-2.47,0-5.469-2.176-10.857-6.75-4.317-3.667-9.2-7.816-15-9.368a25.185,25.185,0,0,0-6.572-.8,65.842,65.842,0,0,0-11.569,1.373,53.786,53.786,0,0,1-8.808,1.13,7.35,7.35,0,0,1-3.466-.637c-2.056-1.188-3.53-4.518-5.879-11.08-1.935-5.4-4.128-11.525-8.46-15.858s-10.454-6.523-15.856-8.457c-6.564-2.352-9.891-3.827-11.062-5.851-1.125-1.944-.744-5.513.474-12.292,1.023-5.7,2.181-12.154.574-18.157-1.55-5.794-5.7-10.679-9.36-14.99-4.578-5.392-6.757-8.393-6.757-10.866s2.179-5.475,6.759-10.866c3.661-4.311,7.808-9.2,9.359-14.992,1.607-6,.449-12.456-.574-18.151-1.218-6.783-1.6-10.351-.474-12.3,1.172-2.027,4.5-3.5,11.064-5.851,5.4-1.935,11.523-4.128,15.855-8.46s6.525-10.454,8.46-15.855c2.349-6.564,3.825-9.892,5.849-11.065a7.258,7.258,0,0,1,3.5-.653,53.913,53.913,0,0,1,8.783,1.125A65.933,65.933,0,0,0,85.223,21.97a25.154,25.154,0,0,0,6.577-.8c5.794-1.55,10.679-5.7,14.99-9.359,5.39-4.579,8.391-6.757,10.864-6.757s5.472,2.178,10.863,6.754c4.314,3.663,9.2,7.813,15,9.363a25.2,25.2,0,0,0,6.574.8A65.894,65.894,0,0,0,161.663,20.6a54.1,54.1,0,0,1,8.8-1.128,7.248,7.248,0,0,1,3.5.654c2.023,1.17,3.5,4.5,5.846,11.056,1.936,5.408,4.129,11.53,8.461,15.862s10.454,6.525,15.853,8.458c6.565,2.351,9.9,3.825,11.067,5.851,1.125,1.945.744,5.514-.474,12.291-1.023,5.7-2.182,12.151-.574,18.158,1.55,5.793,5.7,10.679,9.357,14.989,4.581,5.392,6.76,8.394,6.76,10.867s-2.179,5.474-6.759,10.864c-3.66,4.313-7.808,9.2-9.359,14.993-1.608,6-.449,12.461.574,18.157,1.216,6.778,1.6,10.347.474,12.289-1.172,2.026-4.5,3.5-11.055,5.849-5.41,1.936-11.532,4.128-15.865,8.46s-6.523,10.454-8.458,15.855c-2.349,6.565-3.825,9.9-5.851,11.067a7.255,7.255,0,0,1-3.494.653,53.77,53.77,0,0,1-8.8-1.127,65.848,65.848,0,0,0-11.583-1.376,25.086,25.086,0,0,0-6.575.8c-5.8,1.549-10.681,5.7-14.99,9.357-5.393,4.579-8.393,6.757-10.866,6.757M85.223,208.318a30.048,30.048,0,0,1,7.871.972c6.89,1.842,12.233,6.38,16.946,10.384,1.689,1.434,6.1,5.179,7.614,5.55,1.515-.371,5.93-4.12,7.613-5.548,4.717-4.005,10.059-8.543,16.945-10.384a30.079,30.079,0,0,1,7.874-.973,69.7,69.7,0,0,1,12.458,1.452,51.078,51.078,0,0,0,7.922,1.051,7.237,7.237,0,0,0,1.021-.06c1.07-1.275,2.89-6.358,3.6-8.33,2.114-5.9,4.506-12.584,9.636-17.714s11.815-7.524,17.714-9.634c2-.716,7.172-2.568,8.369-3.634.283-1.588-.7-7.052-1.029-8.895-1.115-6.212-2.381-13.252-.483-20.339,1.842-6.888,6.38-12.231,10.383-16.946,1.431-1.681,5.182-6.1,5.551-7.614-.37-1.516-4.122-5.933-5.551-7.614-4-4.717-8.54-10.059-10.381-16.943-1.9-7.09-.634-14.13.481-20.343.331-1.841,1.312-7.306,1.029-8.895-1.2-1.064-6.376-2.919-8.369-3.633-5.9-2.112-12.586-4.506-17.714-9.636s-7.524-11.814-9.636-17.712c-.708-1.975-2.528-7.058-3.6-8.328a6.931,6.931,0,0,0-1.021-.061,51.194,51.194,0,0,0-7.895,1.045,69.763,69.763,0,0,1-12.482,1.458,30.076,30.076,0,0,1-7.872-.972c-6.887-1.842-12.231-6.38-16.945-10.383-1.686-1.431-6.1-5.18-7.616-5.551-1.515.37-5.931,4.122-7.614,5.551-4.715,4-10.058,8.54-16.942,10.381a30.035,30.035,0,0,1-7.875.973,69.646,69.646,0,0,1-12.47-1.455,51.182,51.182,0,0,0-7.908-1.048,6.947,6.947,0,0,0-1.021.061c-1.07,1.272-2.892,6.356-3.6,8.328-2.114,5.9-4.508,12.584-9.636,17.712S38.777,58.113,32.88,60.225c-2,.714-7.175,2.568-8.372,3.634-.283,1.589.7,7.054,1.029,8.895,1.115,6.215,2.379,13.255.483,20.339-1.842,6.887-6.379,12.23-10.381,16.943-1.431,1.684-5.183,6.1-5.553,7.617.37,1.515,4.12,5.933,5.55,7.614,4,4.715,8.542,10.058,10.383,16.943,1.9,7.087.634,14.127-.481,20.337-.331,1.847-1.312,7.312-1.029,8.9,1.2,1.066,6.37,2.919,8.361,3.631,5.9,2.114,12.59,4.508,17.721,9.637s7.522,11.814,9.634,17.712c.707,1.974,2.527,7.055,3.6,8.33a7.153,7.153,0,0,0,1.021.061,51.044,51.044,0,0,0,7.908-1.048,69.72,69.72,0,0,1,12.47-1.455" transform="translate(2.479 2.479)" fill="#fff"/>
      </g>
    </g>
    <path id="パス_550" data-name="パス 550" d="M-52.2-23.951h1.376v13.072c0,.344-.172.473-.645.473h-.3a.954.954,0,0,0-.387-.043,13.546,13.546,0,0,1,1.032,5.074h.645a3.657,3.657,0,0,0,2.795-.9c.688-.6.946-1.505.946-3.311V-25.671a30.785,30.785,0,0,1,.086-3.44,23.187,23.187,0,0,1-2.838.129h-2.451v-3.44a23.787,23.787,0,0,1,.258-3.87h-5.676a24.919,24.919,0,0,1,.258,3.87v3.44H-59c-1.548,0-2.365-.043-3.44-.129.086,1.075.129,1.849.129,3.784v16c0,1.548-.043,3.139-.172,4.6h4.429c-.086-1.333-.129-2.107-.129-4.3V-23.951h1.333V-.172A20.182,20.182,0,0,1-57.1,3.784h5.117A25.313,25.313,0,0,1-52.2-.172Zm5.633-6.364a37.047,37.047,0,0,1,4.128-.172h15.308a28.316,28.316,0,0,1,4.214.215v-5.16a28.67,28.67,0,0,1-4.214.215H-42.441a35.183,35.183,0,0,1-4.128-.215Zm2.193,8.6a23.251,23.251,0,0,1-.172,3.182c1.2-.086,2.537-.129,4.3-.129h11.223c2.021,0,3.01.043,4.257.129a18.125,18.125,0,0,1-.215-3.225v-3.913a17.914,17.914,0,0,1,.215-3.182c-1.161.086-2.365.129-4.128.129h-11.4c-1.978,0-2.967-.043-4.257-.129a23.512,23.512,0,0,1,.172,3.225Zm5.246-3.053h8.772v2.15H-39.13ZM-45.408-1.376A43.269,43.269,0,0,1-45.623,3.7h5.289V2.021H-28.6v1.72h5.418c-.129-1.5-.215-3.053-.215-5.16V-12.513c0-1.591.086-3.1.215-4.515a43.72,43.72,0,0,1-4.558.172H-41.022a43.72,43.72,0,0,1-4.558-.172c.129,1.505.172,2.666.172,4.558Zm4.945-10.965h3.7v2.709h-3.7Zm8.342,0h3.827v2.709h-3.827Zm-8.342,7.009h3.7v2.881h-3.7Zm8.342-.043h3.827v2.924h-3.827Zm21.113,8.127c.473-.086.731-.086,1.419-.172C5.117.86,5.117.86,12.814-.6c.645,1.5.946,2.236,1.72,4.429L19.823.989A54.715,54.715,0,0,0,15.738-7.4c-2.021-3.655-2.021-3.655-5.246-8.729L5.547-13.631a80.982,80.982,0,0,1,4.945,8.256c-4.773.774-6.665,1.032-12.3,1.5C-1.161-5.246-.731-6.106-.559-6.536c1.333-3.1,3.4-8.858,4.343-11.954,1.247-4.3,1.247-4.3,1.634-5.418l-6.45-1.505c-.3,4.128-3.827,15.308-7.009,22.059-1.978.086-2.064.086-2.924.086a9.353,9.353,0,0,1-1.075-.043ZM-1.462-31.82H-11.825c-1.978,0-3.225-.043-4.6-.172a54.194,54.194,0,0,1,.215,6.278c0,13.846-.9,19.178-4.171,24.639a26.78,26.78,0,0,1,4.429,4.816c4.128-6.966,5.5-14.319,5.5-30.229h24.94a32.735,32.735,0,0,1,5.16.258v-5.848a39.459,39.459,0,0,1-5.16.258H4.3v-1.892a11.819,11.819,0,0,1,.172-2.365H-1.677a11.535,11.535,0,0,1,.215,2.322Zm26.961-.3a22.843,22.843,0,0,1,.172,2.881c.258,13.029.86,18.49,2.623,22.876C30.1-1.892,32.637.387,35.776.387c3.956,0,6.751-3.827,9.03-12.255a21.154,21.154,0,0,1-5.074-4.644,35.968,35.968,0,0,1-2.279,7.654C36.98-7.7,36.464-7.1,35.9-7.1c-2.193,0-3.784-7.611-3.784-17.888a50.465,50.465,0,0,1,.387-7.1Zm21.586,4.343A38.035,38.035,0,0,1,53.277-16.77,43.9,43.9,0,0,1,55.9-3.913l6.493-2.408c-1.161-9.761-4.3-17.415-9.8-24.037Z" transform="translate(721 4156)" fill="#6b95c8"/>
    <path id="パス_549" data-name="パス 549" d="M-68.58-1.98a35.73,35.73,0,0,1,2.745,5.805,35.779,35.779,0,0,0,8.73-8.19A36.079,36.079,0,0,0-48.735,3.6,28.32,28.32,0,0,1-45.45-2.43a26.144,26.144,0,0,1-8.19-7.335,53.649,53.649,0,0,0,6.075-21.69c.09-1.3.18-2.25.27-2.97a36.207,36.207,0,0,1-3.78.225H-62.6c-1.215,0-1.89-.045-3.015-.09V-36.9a29.8,29.8,0,0,1-4.32.225h-13.5a32.032,32.032,0,0,1-4.275-.27v5.715c1.035-.09,1.4-.135,2.7-.18V-7.7c-1.71.27-2.16.315-3.195.405l1.44,6.03c.675-.225,1.755-.54,3.15-.855,1.665-.315,5.9-1.485,9.4-2.565V-.99a40.489,40.489,0,0,1-.27,4.95h6.12a34.041,34.041,0,0,1-.225-5Zm0-29.43c.5,0,.5,0,1.485.045v2.835a26.193,26.193,0,0,1,4.365-.225h1.17L-66.6-26.64c1.755,8.28,3.33,12.735,5.985,17.28a29.162,29.162,0,0,1-4.5,4.68A26.406,26.406,0,0,1-68.58-2.2Zm14.94,2.655a45.958,45.958,0,0,1-3.6,13.41,42.406,42.406,0,0,1-3.555-10.35c-.5-2.2-.5-2.2-.675-3.06ZM-79.335-31.41h5.13v4.185h-5.13Zm0,8.91h5.13v4h-5.13Zm0,8.82h5.13v3.735c-2.25.585-2.925.72-5.13,1.17ZM-4.5-25.335a11.7,11.7,0,0,1-2.565.18H-9.4c.585-2.115,1.08-4.185,1.44-5.94.855-4.275.855-4.275,1.17-5.58a28.572,28.572,0,0,1-3.96.18h-12.96a35.894,35.894,0,0,1-5.535-.315v5.76a24.515,24.515,0,0,1,3.78-.18c-.09,3.375-.09,5.13-.135,5.265a73.9,73.9,0,0,1-1.08,10.485c-1.08,5.67-3.105,10.4-5.8,13.59V-13.05c1.3-.45,2.025-.72,4.23-1.575l-.045-5.13c-2.34.765-2.97.945-4.185,1.305v-6.165h1.935a12.845,12.845,0,0,1,2.25.135v-5.58a19.446,19.446,0,0,1-2.25.135H-32.49V-33.39a25.257,25.257,0,0,1,.27-4.545h-6.21a25.214,25.214,0,0,1,.27,4.59v3.42h-1.8a20.22,20.22,0,0,1-3.285-.27v5.76a25.59,25.59,0,0,1,3.24-.18h1.845V-17.1c-4.1.9-4.1.9-5.535.99l1.035,5.94a10.186,10.186,0,0,1,2.16-.63c1.35-.36,1.4-.36,2.34-.585v8.37c0,.945-.27,1.17-1.305,1.17-1.17,0-2.16-.09-4.05-.27a15.84,15.84,0,0,1,1.26,5.58c1.17.045,1.755.045,2.3.045,5.445,0,6.885-.675,7.38-3.42a26.363,26.363,0,0,1,3.06,3.915A28.417,28.417,0,0,0-26.37-.5a27.7,27.7,0,0,1,3.6,4.5A36.4,36.4,0,0,0-12.78-3.33,38.267,38.267,0,0,0-3.825,3.735,25.083,25.083,0,0,1-.72-2.16,28.527,28.527,0,0,1-9.09-7.785C-6.7-11.2-5.22-14.4-2.25-22.455Zm-16.7,8.55A36.754,36.754,0,0,0-16.47-7.74,32.607,32.607,0,0,1-26.055-.99,42.019,42.019,0,0,0-21.2-16.785ZM-13.95-31.23a67.347,67.347,0,0,1-2.79,11.34,22.124,22.124,0,0,1,2.79-.09h4.59a28.969,28.969,0,0,1-3.6,7.875,37.715,37.715,0,0,1-4.725-8.91A33.62,33.62,0,0,1-19.8-31.23ZM35.685-4.005c0,1.575-.225,1.755-2.61,1.755A54.143,54.143,0,0,1,27.5-2.7,16.845,16.845,0,0,1,29.2,3.285c1.8.045,3.105.09,4.23.09,6.615,0,8.19-.99,8.19-5.13V-27.72a30.9,30.9,0,0,1,.225-4.545c-1.62.135-2.7.18-5.445.18H25.29c.045-.945.09-1.215.135-2.3a21.634,21.634,0,0,1,.315-3.78H19.17a18.327,18.327,0,0,1,.315,3.87,20,20,0,0,1-.09,2.205H8.82c-2.565,0-3.825-.045-5.58-.18a41.81,41.81,0,0,1,.18,4.5V-1.89a41.182,41.182,0,0,1-.315,5.67h6.48A39.709,39.709,0,0,1,9.36-1.755v-9.36a17.758,17.758,0,0,1,3.06,5.04c5.13-3.51,7.83-6.615,9.99-11.7A34.009,34.009,0,0,0,32.625-7.155a29.249,29.249,0,0,1,3.06-5.13Zm0-22.68v13.77A27.565,27.565,0,0,1,24.39-24.57a20.757,20.757,0,0,0,.36-2.115Zm-26.325,0H18.9a21.41,21.41,0,0,1-3.51,9.72A18.338,18.338,0,0,1,9.36-11.61ZM52.83-35.1c-1.935,0-3.465-.045-5.175-.18a29.025,29.025,0,0,1,.18,3.42v3.51a21.923,21.923,0,0,1-.225,3.51h5.85v-4.905H81.585v4.905h5.8a21.357,21.357,0,0,1-.225-3.465V-31.86a27.556,27.556,0,0,1,.18-3.42c-1.665.135-3.285.18-5.175.18H70.11a14.9,14.9,0,0,1,.225-3.06h-6.48a14.9,14.9,0,0,1,.225,3.06Zm.4,34.335a35.488,35.488,0,0,1-.27,4.68H58.9V1.98H76.05V3.915h5.94A33.372,33.372,0,0,1,81.72-.72V-8.55c2.43,1.215,2.43,1.215,4.5,2.16a24.462,24.462,0,0,1,2.61-5.8,44.831,44.831,0,0,1-9.585-3.825,29.278,29.278,0,0,1-9.09-7.335h-5.4c-4.23,4.95-11.025,9.27-18.36,11.745a16.687,16.687,0,0,1,2.7,5.355c1.755-.855,2.385-1.17,4.14-2.16Zm7.38-12.15a44.318,44.318,0,0,0,6.93-5.9,41.8,41.8,0,0,0,6.795,5.9ZM58.9-7.785H76.05V-3.15H58.9Zm1.035-21.87a23.713,23.713,0,0,1-5.985,5.085,36.3,36.3,0,0,1-6.165,2.925,14.311,14.311,0,0,1,3.78,4.635,37.684,37.684,0,0,0,6.75-3.96,35.79,35.79,0,0,0,6.615-6.12Zm9.9,2.61c5.13,5.265,7.83,7.065,14.805,9.9A20.247,20.247,0,0,1,87.39-22.23c-6.345-2.16-8.19-3.195-12.69-7.425Z" transform="translate(721 4207)" fill="#6b95c8"/>
    <g id="コンポーネント_65_1" data-name="コンポーネント 65 – 1" transform="translate(340.5 4097.5)">
      <line id="線_10" data-name="線 10" y2="150" fill="none" stroke="#fff" stroke-width="6"/>
      <line id="線_11" data-name="線 11" x2="185" transform="translate(20 75)" fill="none" stroke="#fff" stroke-width="6"/>
      <path id="パス_472" data-name="パス 472" d="M9359.349,4822.281l-21.268,37.051h0l21.268,35.794" transform="translate(-9320.081 -4784.332)" fill="none" stroke="#fff" stroke-width="6"/>
    </g>
    <g id="コンポーネント_66_1" data-name="コンポーネント 66 – 1" transform="translate(889 4097.5)">
      <line id="線_10-2" data-name="線 10" y2="150" transform="translate(205)" fill="none" stroke="#fff" stroke-width="6"/>
      <line id="線_11-2" data-name="線 11" x1="185" transform="translate(0 75)" fill="none" stroke="#fff" stroke-width="6"/>
      <path id="パス_472-2" data-name="パス 472" d="M9338.081,4822.281l21.268,37.051h0l-21.268,35.794" transform="translate(-9172.349 -4784.332)" fill="none" stroke="#fff" stroke-width="6"/>
    </g>
  </g>
</svg>
