<svg xmlns="http://www.w3.org/2000/svg" xmlns:xlink="http://www.w3.org/1999/xlink" width="140" height="140" viewBox="0 0 140 140">
  <defs>
    <clipPath id="clip-path">
      <rect id="長方形_15" data-name="長方形 15" width="140" height="140" fill="none"/>
    </clipPath>
  </defs>
  <g id="グループ_689" data-name="グループ 689" transform="translate(-472.069 -625.5)">
    <g id="グループ_681" data-name="グループ 681" transform="translate(472.069 625.5)">
      <g id="グループ_10" data-name="グループ 10" clip-path="url(#clip-path)">
        <path id="パス_12" data-name="パス 12" d="M130.46,86.2C131.924,80.727,140,75.933,140,70s-8.076-10.727-9.54-16.2c-1.517-5.663,3.038-13.846.169-18.8-2.911-5.033-12.3-5.16-16.381-9.243s-4.21-13.47-9.243-16.382c-4.959-2.868-13.141,1.687-18.8.17C80.728,8.076,75.934,0,70,0S59.272,8.076,53.8,9.54C48.135,11.056,39.953,6.5,35,9.37c-5.033,2.912-5.16,12.3-9.244,16.382s-13.469,4.21-16.381,9.243C6.5,39.952,11.056,48.135,9.54,53.8,8.076,59.272,0,64.066,0,70S8.076,80.727,9.54,86.2c1.517,5.663-3.038,13.846-.169,18.8,2.912,5.033,12.3,5.16,16.381,9.244S29.963,127.718,35,130.629c4.958,2.869,13.14-1.687,18.8-.17C59.272,131.923,64.066,140,70,140s10.728-8.077,16.2-9.541c5.663-1.517,13.846,3.039,18.8.17,5.033-2.912,5.16-12.3,9.243-16.381s13.47-4.211,16.381-9.244c2.869-4.958-1.686-13.141-.169-18.8" transform="translate(0 0)" fill="#ffda00"/>
        <path id="パス_13" data-name="パス 13" d="M70.664,136.276c-1.439,0-3.187-1.268-6.326-3.933-2.515-2.137-5.362-4.554-8.742-5.458a14.675,14.675,0,0,0-3.83-.466,38.365,38.365,0,0,0-6.741.8,31.341,31.341,0,0,1-5.133.658,4.283,4.283,0,0,1-2.019-.371c-1.2-.692-2.057-2.633-3.426-6.456-1.127-3.149-2.405-6.715-4.929-9.24s-6.092-3.8-9.239-4.928c-3.824-1.371-5.763-2.23-6.446-3.409-.656-1.133-.433-3.212.276-7.163.6-3.32,1.271-7.082.334-10.58-.9-3.376-3.321-6.223-5.454-8.735-2.667-3.142-3.937-4.89-3.937-6.331s1.27-3.19,3.938-6.331c2.133-2.512,4.55-5.359,5.453-8.736.936-3.5.261-7.258-.334-10.576-.71-3.952-.932-6.032-.276-7.164.683-1.181,2.623-2.04,6.447-3.409,3.148-1.127,6.714-2.405,9.238-4.929s3.8-6.092,4.929-9.238c1.369-3.824,2.229-5.764,3.408-6.448a4.229,4.229,0,0,1,2.037-.38,31.415,31.415,0,0,1,5.118.656,38.419,38.419,0,0,0,6.756.8,14.657,14.657,0,0,0,3.832-.467c3.376-.9,6.223-3.321,8.735-5.453,3.141-2.668,4.889-3.937,6.33-3.937s3.189,1.269,6.33,3.936c2.514,2.134,5.36,4.552,8.738,5.456a14.682,14.682,0,0,0,3.831.466,38.4,38.4,0,0,0,6.745-.8,31.52,31.52,0,0,1,5.128-.658,4.224,4.224,0,0,1,2.038.381c1.179.682,2.038,2.621,3.407,6.442,1.128,3.151,2.406,6.719,4.93,9.243s6.092,3.8,9.238,4.928c3.825,1.37,5.766,2.229,6.449,3.409.656,1.134.433,3.213-.276,7.162-.6,3.319-1.272,7.08-.334,10.58.9,3.375,3.32,6.223,5.452,8.734,2.669,3.142,3.939,4.891,3.939,6.332s-1.27,3.19-3.938,6.33c-2.132,2.513-4.55,5.359-5.453,8.736-.937,3.5-.261,7.261.334,10.58.709,3.95.931,6.029.276,7.161-.683,1.18-2.621,2.039-6.442,3.408-3.152,1.128-6.72,2.405-9.245,4.929s-3.8,6.092-4.928,9.238c-1.369,3.825-2.229,5.766-3.409,6.449a4.228,4.228,0,0,1-2.036.38,31.331,31.331,0,0,1-5.126-.657,38.368,38.368,0,0,0-6.749-.8,14.617,14.617,0,0,0-3.831.468c-3.377.9-6.224,3.32-8.735,5.452-3.143,2.668-4.89,3.937-6.331,3.937m-18.9-12.783a17.508,17.508,0,0,1,4.586.566c4.015,1.074,7.128,3.718,9.874,6.051.984.836,3.555,3.018,4.437,3.234.883-.216,3.455-2.4,4.436-3.233,2.748-2.334,5.861-4.978,9.873-6.051a17.527,17.527,0,0,1,4.588-.567,40.613,40.613,0,0,1,7.259.846,29.764,29.764,0,0,0,4.616.612,4.216,4.216,0,0,0,.595-.035,26.215,26.215,0,0,0,2.1-4.854c1.232-3.438,2.626-7.333,5.615-10.322s6.885-4.384,10.322-5.614a25.266,25.266,0,0,0,4.876-2.118,26.856,26.856,0,0,0-.6-5.183c-.65-3.619-1.387-7.722-.281-11.851,1.074-4.014,3.718-7.127,6.05-9.874.834-.98,3.019-3.554,3.235-4.437-.215-.883-2.4-3.457-3.235-4.437-2.333-2.748-4.976-5.861-6.049-9.873-1.107-4.131-.369-8.233.281-11.854a26.841,26.841,0,0,0,.6-5.183,25.361,25.361,0,0,0-4.876-2.117c-3.439-1.231-7.334-2.626-10.322-5.615s-4.384-6.884-5.615-10.321a26.136,26.136,0,0,0-2.1-4.853,4.038,4.038,0,0,0-.6-.036,29.83,29.83,0,0,0-4.6.609,40.65,40.65,0,0,1-7.273.849,17.525,17.525,0,0,1-4.587-.566c-4.013-1.074-7.127-3.718-9.873-6.05-.982-.834-3.555-3.018-4.438-3.235-.882.215-3.456,2.4-4.437,3.235-2.747,2.332-5.86,4.976-9.872,6.049a17.5,17.5,0,0,1-4.589.567,40.581,40.581,0,0,1-7.266-.848,29.823,29.823,0,0,0-4.608-.611,4.048,4.048,0,0,0-.595.036,26.1,26.1,0,0,0-2.1,4.853C35.97,24.7,34.575,28.6,31.587,31.586S24.7,35.97,21.267,37.2a25.254,25.254,0,0,0-4.878,2.118,26.84,26.84,0,0,0,.6,5.183c.65,3.621,1.386,7.724.281,11.851-1.074,4.013-3.717,7.126-6.049,9.873-.834.982-3.02,3.555-3.236,4.439.215.883,2.4,3.457,3.234,4.437,2.333,2.747,4.977,5.86,6.05,9.873,1.106,4.129.369,8.232-.281,11.85a26.9,26.9,0,0,0-.6,5.186,25.208,25.208,0,0,0,4.872,2.116c3.441,1.232,7.336,2.627,10.326,5.616s4.383,6.884,5.614,10.321a26.132,26.132,0,0,0,2.1,4.854,4.169,4.169,0,0,0,.595.036,29.743,29.743,0,0,0,4.608-.611,40.625,40.625,0,0,1,7.266-.848" transform="translate(-0.664 -0.664)" fill="#fff"/>
      </g>
    </g>
    <path id="パス_527" data-name="パス 527" d="M16.56-12.24c2.424-.072,2.448-1.632,2.448-3.744,0-1.44-.048-3.192-2.28-3.264-1.248-.048-3.144-.072-4.944-.072-1.56,0-3.024.024-3.984.072-2.328.1-2.52,1.248-2.52,3.456,0,2.256.12,3.528,2.592,3.552,1.512.024,3.1.048,4.7.048C13.9-12.192,15.216-12.216,16.56-12.24ZM13.032-6.36c1.488-.024,2.664-.048,3.792-.048h.768a.328.328,0,0,1,.36.312,7.539,7.539,0,0,1-1.344,2.712,9.044,9.044,0,0,1-1.776-2.4.71.71,0,0,0-.648-.384,1.129,1.129,0,0,0-1.152.96,8.145,8.145,0,0,0,2.184,3.192,9.042,9.042,0,0,1-2.4,1.3.917.917,0,0,0-.672.888A1.065,1.065,0,0,0,13.2,1.224,8.119,8.119,0,0,0,16.7-.7c1.224.912,3.336,2.04,4.344,2.04a1.182,1.182,0,0,0,1.2-1.176,1,1,0,0,0-.792-.96,11.271,11.271,0,0,1-3.312-1.392c.12-.144,2.16-2.736,2.16-4.464A1.449,1.449,0,0,0,18.7-8.184c-.984-.048-1.92-.048-2.832-.048-.936,0-1.872,0-2.856.024a.873.873,0,0,0-.816.96.824.824,0,0,0,.816.888Zm8.52-2.952a.912.912,0,0,0,.936-.96.912.912,0,0,0-.936-.96H2.5a.962.962,0,0,0-.984,1.008.9.9,0,0,0,.984.912H4.68V-1.92c-.792.168-1.56.336-2.256.432A.972.972,0,0,0,1.56-.5.983.983,0,0,0,2.568.5a54.361,54.361,0,0,0,7.2-1.968V.672a.942.942,0,0,0,.984.984.93.93,0,0,0,.984-.984V-9.312ZM7.392-16.44V-16.7c0-.48.24-.864,1.056-.888.792-.024,2.352-.048,3.936-.048,1.3,0,2.592.024,3.48.048.744.024.936.24.984.816,0,.1.024.216.024.336Zm9.48,1.488c0,.12-.024.24-.024.36-.024.576-.408.792-.984.792-1.032.024-2.16.024-3.264.024-1.488,0-2.976,0-4.128-.024-.744,0-1.032-.144-1.08-.768,0-.12-.024-.24-.024-.384Zm-7.1,6.84H6.648v-1.2h3.12Zm0,2.616H6.648V-6.672h3.12Zm0,2.28c-.84.24-1.968.528-3.12.816V-4.032h3.12ZM42.96-16.3a1.027,1.027,0,0,0,1.1-1.032,1.032,1.032,0,0,0-1.1-1.056H33.072a1.027,1.027,0,0,0-1.1,1.032,1.032,1.032,0,0,0,1.1,1.056Zm-7.248,1.92a2.167,2.167,0,0,0-2.328,2.088c-.048.48-.072,1.392-.072,2.208,0,.48.024.912.024,1.224.1,2.256,2.184,2.28,4.608,2.28,4.272,0,4.752-.7,4.752-3.1,0-.888-.024-2.112-.072-2.712a2.3,2.3,0,0,0-2.4-1.992c-.744-.048-1.488-.048-2.232-.048S36.48-14.424,35.712-14.376ZM43.584.648a.973.973,0,0,0,1.056-.96A1,1,0,0,0,43.584-1.32H40.272A16.553,16.553,0,0,0,42-4.872a1.219,1.219,0,0,0-1.272-1.08.968.968,0,0,0-1.008.768A20.562,20.562,0,0,1,38.136-1.32H31.944a.985.985,0,0,0-1.08.984.985.985,0,0,0,1.08.984ZM36.264-1.8a1.206,1.206,0,0,0,1.152-1.176c0-.744-1.488-2.952-2.4-2.952a1.1,1.1,0,0,0-1.128.936.793.793,0,0,0,.264.576A7.558,7.558,0,0,1,35.4-2.424.946.946,0,0,0,36.264-1.8Zm-4.68-6.72a1.007,1.007,0,0,0,1.08-1.032,1,1,0,0,0-1.08-1.008H29.3v-3.624l1.776.048h.048a1,1,0,0,0,1.08-1.008,1.049,1.049,0,0,0-1.128-1.032H27.216a20.982,20.982,0,0,0,.6-2.448c0-.624-.672-1.008-1.272-1.008a.853.853,0,0,0-.936.7,13.789,13.789,0,0,1-2.256,6.072,1.393,1.393,0,0,0-.288.768,1.028,1.028,0,0,0,1.1.936c.72,0,1.272-.24,2.328-2.976l.7-.024v3.6h-3a1,1,0,0,0-1.08,1.008,1.007,1.007,0,0,0,1.08,1.032h2.952c-.168,2.688-.96,5.592-3.936,7.488a1.108,1.108,0,0,0-.576.936,1.163,1.163,0,0,0,1.152,1.128c.984,0,3.7-2.256,4.776-5.688a11.976,11.976,0,0,1,1.9,2.184,1.039,1.039,0,0,0,.888.576A1.234,1.234,0,0,0,32.5-3.12c0-1.08-2.232-2.76-3.456-3.552.1-.624.168-1.248.216-1.848Zm8.976-.888c0,.864-.768.912-2.616.912-2.5,0-2.568-.144-2.568-1.416,0-2.232.048-2.52.96-2.544.576-.024,1.152-.048,1.752-.048,1.776,0,2.352.024,2.424.792C40.56-11.28,40.56-9.912,40.56-9.408ZM56.9-.984v-.048c-.048-1.488-.048-3-.048-4.488,0-3.432.072-6.648.072-8.568,0-.528,0-.96-.024-1.272a2.556,2.556,0,0,0-2.784-2.568c-.5,0-.7,0-1.176.024A1.4,1.4,0,0,0,51.7-16.44a1.2,1.2,0,0,0,1.224,1.272h.336c.816,0,.936.264.936,3.624,0,3.168-.1,8.28-.1,10.512A1.336,1.336,0,0,0,55.512.288,1.292,1.292,0,0,0,56.9-.984Zm26.616-1.2c.048-1.272.072-3.912.072-6.552,0-2.4-.024-4.8-.072-6.264a2.912,2.912,0,0,0-2.928-2.808c-.816-.024-2.064-.048-3.336-.048-1.536,0-3.1.024-4.008.048-1.8.072-2.952,1.08-3,2.616-.048,1.608-.072,3.96-.072,6.288,0,2.616.024,5.232.072,6.792C70.32-.336,71.352.72,73.44.792c.984.048,2.232.048,3.48.048,1.272,0,2.568,0,3.624-.048A2.975,2.975,0,0,0,83.52-2.184ZM72.432-10.248c0-1.512.024-2.88.048-3.864.072-1.656.408-1.68,4.464-1.68,3.84,0,4.2.024,4.248,1.68.024.96.048,2.352.048,3.864ZM81.24-8.136c0,1.92,0,3.816-.048,5.016-.048,1.032-.456,1.656-1.8,1.7-.624.024-1.584.024-2.52.024-4.08,0-4.344-.1-4.392-1.656-.048-1.152-.048-3.072-.048-5.088Z" transform="translate(497.295 681.664)" fill="#595857"/>
    <path id="パス_526" data-name="パス 526" d="M-33.8-6.474a27.049,27.049,0,0,1,6.084,5.226c1.222,1.534,3.172-.494,2.132-1.95-1.2-1.664-4.5-3.848-6.656-5.148a41.608,41.608,0,0,0,2.886-4.42c1.014-1.768-.312-3.25-2.652-3.25-2.626,0-6.448.052-8.346.13a1.262,1.262,0,0,0,0,2.522c2.288-.052,5.876-.182,7.514-.156.572,0,.676.416.442.858A21.138,21.138,0,0,1-43.29-2.99a1.342,1.342,0,1,0,.832,2.522A21.965,21.965,0,0,0-33.8-6.474ZM.156-16.2A2.774,2.774,0,0,0-2.6-18.954,2.752,2.752,0,0,0-5.33-16.2a2.73,2.73,0,0,0,2.73,2.73A2.752,2.752,0,0,0,.156-16.2ZM-14.638-8.034A50.413,50.413,0,0,0-5.408-10.4,1.409,1.409,0,1,0-6.37-13a50.911,50.911,0,0,1-8.19,2.418c.052-1.924.1-3.874.13-5.278.026-1.534-2.652-1.9-2.652-.078-.026,3.094-.208,8.892-.182,11.492a3.845,3.845,0,0,0,3.692,3.9A28.139,28.139,0,0,0-4.524-.91c2.548-.676,1.43-3.484-.546-2.808a23.5,23.5,0,0,1-7.566.7c-1.56-.208-2.132-.832-2.08-2.106C-14.69-5.85-14.664-6.89-14.638-8.034ZM-1.248-16.2A1.332,1.332,0,0,1-2.6-14.9a1.287,1.287,0,0,1-1.3-1.3A1.332,1.332,0,0,1-2.6-17.55,1.377,1.377,0,0,1-1.248-16.2ZM19.162-8.58a1.255,1.255,0,0,0,1.326-1.274,1.261,1.261,0,0,0-1.326-1.3H2.834A1.326,1.326,0,0,0,1.456-9.828,1.252,1.252,0,0,0,2.834-8.58ZM41.99-16.614c.962.962,2.392-.806,1.248-1.82a8.886,8.886,0,0,0-2.782-1.352c-1.274-.338-2.184,1.352-.78,1.794A9.4,9.4,0,0,1,41.99-16.614Zm-2.34,2.5c.936.988,2.392-.7,1.3-1.768a8.688,8.688,0,0,0-2.73-1.456c-1.274-.39-2.236,1.274-.858,1.768A9.8,9.8,0,0,1,39.65-14.118ZM33.566-9.75a16.116,16.116,0,0,1,5.07,2.106c1.482,1.092,2.964-1.17,1.612-2.314-1.4-1.2-4.784-2.028-6.24-2.262a2.674,2.674,0,0,0-.442-.026c.026-2.548.052-4.81.078-6.084a1.352,1.352,0,0,0-2.7-.026c.1,3.744.026,13.936-.156,18.148a1.414,1.414,0,1,0,2.808-.1C33.54-2.418,33.54-6.162,33.566-9.75ZM-3.874,8.06c.52,0,.754.208.754.806,0,.546-.208,2.782-1.456,2.782a2.513,2.513,0,0,1-1.066-.286,1.4,1.4,0,0,0-.546-.13A1.193,1.193,0,0,0-7.28,12.506a1.02,1.02,0,0,0,.728,1.04,6.873,6.873,0,0,0,2.028.338c3.51,0,3.744-3.874,3.744-5.356,0-1.638-.676-2.522-2.34-2.548-1.3-.026-2.574-.026-3.822-.026-1.274,0-2.522,0-3.77.026A1.1,1.1,0,0,0-11.83,7.072a1.016,1.016,0,0,0,1.066,1.04h.026c.858-.026,1.69-.052,2.522-.052a5.4,5.4,0,0,1-3.406,4.264.963.963,0,0,0-.546.884,1.136,1.136,0,0,0,1.118,1.17c.806,0,4.55-1.794,5.148-6.318Zm2.912,14.9A1,1,0,0,0,.1,21.944.982.982,0,0,0-.962,20.93l-3.874.026V18.72l2.964.026A1.018,1.018,0,0,0-.78,17.732a1,1,0,0,0-1.092-1.014l-2.964.026.026-1.456a1.131,1.131,0,0,0-1.2-1.144,1.131,1.131,0,0,0-1.2,1.144v1.456h-1.17a4.365,4.365,0,0,0,.364-1.274c0-.6-.65-.988-1.248-.988a.925.925,0,0,0-.962.676,10.047,10.047,0,0,1-1.82,3.8.916.916,0,0,0-.182.546A1.179,1.179,0,0,0-11,20.54c.572,0,.988-.312,1.794-1.82h2.028v2.236l-3.848-.026A1.066,1.066,0,0,0-12.142,22c0,.494.338.962,1.118.962l3.848-.026L-7.2,26.546a1.138,1.138,0,0,0,1.17,1.2,1.166,1.166,0,0,0,1.222-1.2l-.026-3.614ZM-14.586,21.4c0,1.43-.026,2.418-.026,2.418,0,1.17-.546,1.482-1.274,1.482a6.95,6.95,0,0,1-1.222-.182.72.72,0,0,0-.234-.026,1.056,1.056,0,0,0-.962,1.144c0,1.2,1.222,1.3,2.418,1.3,2.5,0,3.458-1.482,3.458-3.016v-.1c-.078-2.21-.078-3.224-.078-8.32V13.052c-.026-1.43-.676-2.184-2.288-2.236-.156,0-.312-.026-.494-.026A6.685,6.685,0,0,0-14.2,8.008c0-1.378-1.664-1.378-2.314-1.378h-1.56a3.745,3.745,0,0,0,.26-1.014,1.116,1.116,0,0,0-1.222-.988,1.094,1.094,0,0,0-1.144.832,21.224,21.224,0,0,1-3.458,7.176,1.247,1.247,0,0,0-.26.728,1.1,1.1,0,0,0,1.17.988,1.149,1.149,0,0,0,.962-.494c.026.858.052,1.716.052,2.574,0,3.354-.286,6.734-1.846,9.724a.967.967,0,0,0-.13.52,1.1,1.1,0,0,0,1.144,1.014,1.259,1.259,0,0,0,1.118-.754A17.166,17.166,0,0,0-19.89,21.4ZM-19.474,9.724c.182-.364.364-.754.546-1.118.338-.026.832-.026,1.248-.026.468,0,.832,0,.832.364a7.277,7.277,0,0,1-.78,1.846c-.7,0-1.352.026-1.82.026a4.943,4.943,0,0,0-.65.078Zm3.172,5.434V12.636h.78c.832.026.91.26.91,2.522Zm-1.794,0H-19.63c0-.572-.026-1.118-.026-1.638,0-.494.182-.858.884-.858h.676Zm3.51,4.394H-16.3V16.926h1.716Zm-3.51,0h-1.638c.052-.884.1-1.768.1-2.626H-18.1Zm40.43-1.508a1.146,1.146,0,0,0-.026-2.288H20.332c0-.65.026-1.326.026-2,0-.962-.026-1.924-.052-2.73C20.28,9.776,19.292,8.84,17.55,8.788c-.728-.026-1.56-.026-2.444-.026V6.11a1.221,1.221,0,0,0-1.3-1.222,1.165,1.165,0,0,0-1.222,1.248v.026c0,.806.026,1.69.026,2.6-1.378,0-2.678,0-3.64.026A1.1,1.1,0,0,0,7.826,9.932,1.062,1.062,0,0,0,8.944,11.05H8.97c.936-.026,2.288-.026,3.666-.026,0,.6-.026,1.222-.026,1.872a23.368,23.368,0,0,1-.1,2.86h-5.2A1.1,1.1,0,0,0,6.162,16.9,1.082,1.082,0,0,0,7.28,18.044h.026l4.784-.052a10.412,10.412,0,0,1-7.1,7.358,1.122,1.122,0,0,0-.858,1.092,1.32,1.32,0,0,0,1.274,1.326,12.753,12.753,0,0,0,8.5-7.8c2.522,4.992,6.942,7.488,8.19,7.488A1.452,1.452,0,0,0,23.556,26a1.24,1.24,0,0,0-.884-1.2,12.142,12.142,0,0,1-7.2-6.812l6.838.052ZM5.9,10.348a1.439,1.439,0,0,0,1.326-1.4c0-1.534-3.744-3.25-4.186-3.25a1.3,1.3,0,0,0-1.3,1.17.961.961,0,0,0,.494.806A12.045,12.045,0,0,1,5.044,9.906,1.119,1.119,0,0,0,5.9,10.348ZM4.524,15.86a1.378,1.378,0,0,0,1.2-1.43,1.328,1.328,0,0,0-.546-1.092,10.628,10.628,0,0,0-4-1.638A1.282,1.282,0,0,0-.078,12.948a.864.864,0,0,0,.65.858A11.421,11.421,0,0,1,3.8,15.574,1.084,1.084,0,0,0,4.524,15.86ZM3.12,26.442a24.253,24.253,0,0,0,3.25-7.1,1.2,1.2,0,0,0-1.248-1.2,1.1,1.1,0,0,0-1.066.754,25.2,25.2,0,0,1-3.3,6.292,1.261,1.261,0,0,0-.26.754A1.342,1.342,0,0,0,1.846,27.2,1.515,1.515,0,0,0,3.12,26.442Zm11.8-10.686a25.486,25.486,0,0,0,.182-2.99V11.024c.65,0,1.248.026,1.716.026,1.118.026,1.118.52,1.118,2.418,0,.754,0,1.534-.026,2.288Z" transform="translate(538.719 710.43)" fill="#595857"/>
  </g>
</svg>
