<svg xmlns="http://www.w3.org/2000/svg" xmlns:xlink="http://www.w3.org/1999/xlink" width="349.289" height="240.267" viewBox="0 0 349.289 240.267">
  <defs>
    <clipPath id="clip-path">
      <rect id="長方形_15" data-name="長方形 15" width="240.267" height="240.267" fill="none"/>
    </clipPath>
    <clipPath id="clip-path-2">
      <rect id="長方形_301" data-name="長方形 301" width="40.386" height="55.436" fill="none"/>
    </clipPath>
  </defs>
  <g id="グループ_736" data-name="グループ 736" transform="translate(-792.807 -3674)">
    <g id="グループ_588" data-name="グループ 588" transform="translate(847 3674)">
      <g id="グループ_10" data-name="グループ 10" clip-path="url(#clip-path)">
        <path id="パス_12" data-name="パス 12" d="M223.894,147.937c2.512-9.393,16.372-17.62,16.372-27.8s-13.86-18.41-16.372-27.8c-2.6-9.719,5.214-23.763.291-32.272-5-8.637-21.105-8.856-28.113-15.862s-7.225-23.118-15.862-28.114c-8.51-4.922-22.553,2.895-32.272.292C138.545,13.861,130.318,0,120.133,0s-18.412,13.862-27.8,16.374c-9.721,2.6-23.763-5.214-32.272-.292-8.637,5-8.856,21.105-15.864,28.114S21.078,51.42,16.082,60.057c-4.924,8.509,2.893,22.553.291,32.272C13.86,101.722,0,109.949,0,120.132s13.86,18.412,16.372,27.8c2.6,9.719-5.214,23.763-.291,32.272,5,8.637,21.105,8.856,28.113,15.864s7.227,23.116,15.864,28.113c8.509,4.924,22.551-2.895,32.272-.292,9.391,2.512,17.618,16.374,27.8,16.374s18.412-13.862,27.8-16.374c9.719-2.6,23.762,5.216,32.272.292,8.637-5,8.855-21.105,15.862-28.113s23.118-7.227,28.113-15.864c4.924-8.509-2.893-22.553-.291-32.272" transform="translate(0 0)" fill="#ffda00"/>
        <path id="パス_13" data-name="パス 13" d="M117.654,230.257c-2.47,0-5.469-2.176-10.857-6.75-4.317-3.667-9.2-7.816-15-9.368a25.185,25.185,0,0,0-6.572-.8,65.842,65.842,0,0,0-11.569,1.373,53.786,53.786,0,0,1-8.808,1.13,7.35,7.35,0,0,1-3.466-.637c-2.056-1.188-3.53-4.518-5.879-11.08-1.935-5.4-4.128-11.525-8.46-15.858s-10.454-6.523-15.856-8.457c-6.564-2.352-9.891-3.827-11.062-5.851-1.125-1.944-.744-5.513.474-12.292,1.023-5.7,2.181-12.154.574-18.157-1.55-5.794-5.7-10.679-9.36-14.99-4.578-5.392-6.757-8.393-6.757-10.866s2.179-5.475,6.759-10.866c3.661-4.311,7.808-9.2,9.359-14.992,1.607-6,.449-12.456-.574-18.151-1.218-6.783-1.6-10.351-.474-12.3,1.172-2.027,4.5-3.5,11.064-5.851,5.4-1.935,11.523-4.128,15.855-8.46s6.525-10.454,8.46-15.855c2.349-6.564,3.825-9.892,5.849-11.065a7.258,7.258,0,0,1,3.5-.653,53.913,53.913,0,0,1,8.783,1.125A65.933,65.933,0,0,0,85.223,21.97a25.154,25.154,0,0,0,6.577-.8c5.794-1.55,10.679-5.7,14.99-9.359,5.39-4.579,8.391-6.757,10.864-6.757s5.472,2.178,10.863,6.754c4.314,3.663,9.2,7.813,15,9.363a25.2,25.2,0,0,0,6.574.8A65.894,65.894,0,0,0,161.663,20.6a54.1,54.1,0,0,1,8.8-1.128,7.248,7.248,0,0,1,3.5.654c2.023,1.17,3.5,4.5,5.846,11.056,1.936,5.408,4.129,11.53,8.461,15.862s10.454,6.525,15.853,8.458c6.565,2.351,9.9,3.825,11.067,5.851,1.125,1.945.744,5.514-.474,12.291-1.023,5.7-2.182,12.151-.574,18.158,1.55,5.793,5.7,10.679,9.357,14.989,4.581,5.392,6.76,8.394,6.76,10.867s-2.179,5.474-6.759,10.864c-3.66,4.313-7.808,9.2-9.359,14.993-1.608,6-.449,12.461.574,18.157,1.216,6.778,1.6,10.347.474,12.289-1.172,2.026-4.5,3.5-11.055,5.849-5.41,1.936-11.532,4.128-15.865,8.46s-6.523,10.454-8.458,15.855c-2.349,6.565-3.825,9.9-5.851,11.067a7.255,7.255,0,0,1-3.494.653,53.77,53.77,0,0,1-8.8-1.127,65.848,65.848,0,0,0-11.583-1.376,25.086,25.086,0,0,0-6.575.8c-5.8,1.549-10.681,5.7-14.99,9.357-5.393,4.579-8.393,6.757-10.866,6.757M85.223,208.318a30.048,30.048,0,0,1,7.871.972c6.89,1.842,12.233,6.38,16.946,10.384,1.689,1.434,6.1,5.179,7.614,5.55,1.515-.371,5.93-4.12,7.613-5.548,4.717-4.005,10.059-8.543,16.945-10.384a30.079,30.079,0,0,1,7.874-.973,69.7,69.7,0,0,1,12.458,1.452,51.078,51.078,0,0,0,7.922,1.051,7.237,7.237,0,0,0,1.021-.06c1.07-1.275,2.89-6.358,3.6-8.33,2.114-5.9,4.506-12.584,9.636-17.714s11.815-7.524,17.714-9.634c2-.716,7.172-2.568,8.369-3.634.283-1.588-.7-7.052-1.029-8.895-1.115-6.212-2.381-13.252-.483-20.339,1.842-6.888,6.38-12.231,10.383-16.946,1.431-1.681,5.182-6.1,5.551-7.614-.37-1.516-4.122-5.933-5.551-7.614-4-4.717-8.54-10.059-10.381-16.943-1.9-7.09-.634-14.13.481-20.343.331-1.841,1.312-7.306,1.029-8.895-1.2-1.064-6.376-2.919-8.369-3.633-5.9-2.112-12.586-4.506-17.714-9.636s-7.524-11.814-9.636-17.712c-.708-1.975-2.528-7.058-3.6-8.328a6.931,6.931,0,0,0-1.021-.061,51.194,51.194,0,0,0-7.895,1.045,69.763,69.763,0,0,1-12.482,1.458,30.076,30.076,0,0,1-7.872-.972c-6.887-1.842-12.231-6.38-16.945-10.383-1.686-1.431-6.1-5.18-7.616-5.551-1.515.37-5.931,4.122-7.614,5.551-4.715,4-10.058,8.54-16.942,10.381a30.035,30.035,0,0,1-7.875.973,69.646,69.646,0,0,1-12.47-1.455,51.182,51.182,0,0,0-7.908-1.048,6.947,6.947,0,0,0-1.021.061c-1.07,1.272-2.892,6.356-3.6,8.328-2.114,5.9-4.508,12.584-9.636,17.712S38.777,58.113,32.88,60.225c-2,.714-7.175,2.568-8.372,3.634-.283,1.589.7,7.054,1.029,8.895,1.115,6.215,2.379,13.255.483,20.339-1.842,6.887-6.379,12.23-10.381,16.943-1.431,1.684-5.183,6.1-5.553,7.617.37,1.515,4.12,5.933,5.55,7.614,4,4.715,8.542,10.058,10.383,16.943,1.9,7.087.634,14.127-.481,20.337-.331,1.847-1.312,7.312-1.029,8.9,1.2,1.066,6.37,2.919,8.361,3.631,5.9,2.114,12.59,4.508,17.721,9.637s7.522,11.814,9.634,17.712c.707,1.974,2.527,7.055,3.6,8.33a7.153,7.153,0,0,0,1.021.061,51.044,51.044,0,0,0,7.908-1.048,69.72,69.72,0,0,1,12.47-1.455" transform="translate(2.479 2.479)" fill="#fff"/>
      </g>
    </g>
    <path id="パス_548" data-name="パス 548" d="M-44.694-31.59v7.956H-55.458a73.072,73.072,0,0,1-9.2-.468v10.218a68.113,68.113,0,0,1,9.2-.468h10.764V-5.07H-62.712a88.544,88.544,0,0,1-10.53-.468V4.836a89.57,89.57,0,0,1,10.3-.468h47.58a94.152,94.152,0,0,1,10.53.468V-5.538a95.324,95.324,0,0,1-10.686.468h-18.72v-9.282h11.778a69.429,69.429,0,0,1,9.282.468V-24.1a66.544,66.544,0,0,1-9.2.468H-34.242V-31.59h10.218a66.9,66.9,0,0,1,8.892.468V-36.5a65.19,65.19,0,0,0,8.424,4.212,44.917,44.917,0,0,1,5.382-10.53,66.034,66.034,0,0,1-18.8-9.282,53.616,53.616,0,0,1-13.728-13.1h-11.31A50.991,50.991,0,0,1-58.11-51.87a69.02,69.02,0,0,1-18.33,9.516A36.03,36.03,0,0,1-70.9-32.6a65.2,65.2,0,0,0,7.8-3.822v5.3a66.029,66.029,0,0,1,9.126-.468Zm-11.232-9.2c8.112-5.538,12.4-9.516,16.692-15.522,5.148,6.552,8.892,9.906,17.082,15.522H-55.926ZM33.54-41.808v6.4H27.612a35.023,35.023,0,0,1-6.552-.39v9.126a36.057,36.057,0,0,1,6.552-.39H33.54v7.8H25.272a45.2,45.2,0,0,1-7.254-.39v9.282a42.32,42.32,0,0,1,7.254-.39H52.728a47.008,47.008,0,0,1,7.254.39v-9.282a44.609,44.609,0,0,1-7.254.39h-1.56l5.46-2.262a26.2,26.2,0,0,0-3.276-5.46,17.078,17.078,0,0,1,3.588.312V-35.8a33.587,33.587,0,0,1-6.474.39H43.29v-6.4H52.1a43.076,43.076,0,0,1,7.1.39v-9.2a41.846,41.846,0,0,1-7.176.39H26.052a40.356,40.356,0,0,1-7.02-.39v9.2a43.187,43.187,0,0,1,7.02-.39Zm9.75,14.742H51.4l-4.914,2.028a29.881,29.881,0,0,1,3.2,5.772h-6.4ZM5.07-3.822A79.368,79.368,0,0,1,4.6,6.63h10.53V2.34H62.946V6.63H73.4A84.416,84.416,0,0,1,72.93-3.822V-54.444a80.739,80.739,0,0,1,.39-9.282,79.523,79.523,0,0,1-9.126.39H13.806c-4.29,0-6.552-.078-9.2-.312a92.456,92.456,0,0,1,.468,9.282ZM15.132-54.21H62.868v47.5H15.132Z" transform="translate(965 3796)" fill="#6b95c8"/>
    <path id="パス_547" data-name="パス 547" d="M-48.992-13.2a20.18,20.18,0,0,1-3.572.684v-.931a13.274,13.274,0,0,1,.114-2.2h-2.812a14.542,14.542,0,0,1,.114,2.356v.95a1.864,1.864,0,0,1-.38.019c-.7.019-.76.019-.931.019a12.629,12.629,0,0,1-2.394-.171l.019,2.527c.209-.019.38-.019.475-.019h.323c.988.038,1.026.038,1.2.038.247,0,.76-.019,1.71-.038v2.6a10.817,10.817,0,0,0-2.793,1.634,4.284,4.284,0,0,0-1.691,3,3.174,3.174,0,0,0,1.6,2.622A6.311,6.311,0,0,0-54.634.969,2.048,2.048,0,0,0-52.886.19c.266-.38.323-.779.323-2.2V-5.586A10.75,10.75,0,0,1-49.276-6.1c1.995,0,3.23.95,3.23,2.451A1.711,1.711,0,0,1-47.7-1.786c-.874,0-1.254-.589-1.254-1.957a5.721,5.721,0,0,1,.1-1.045,9.371,9.371,0,0,1-2.508,1.026,3.563,3.563,0,0,0-.019.4c0,2.736,1.273,4.256,3.572,4.256a4.4,4.4,0,0,0,4.522-4.541A4.549,4.549,0,0,0-45.21-7.41a7.112,7.112,0,0,0-4.028-1.026,12.766,12.766,0,0,0-3.344.4v-2.071c.874-.1,1.387-.171,2.337-.323A12.062,12.062,0,0,1-48.9-10.64ZM-55.128-2.432c0,.627-.076.779-.361.779a2.158,2.158,0,0,1-1.045-.361.922.922,0,0,1-.532-.741c0-.627.779-1.425,1.938-2Zm12.692-8a16.254,16.254,0,0,0-3.8-4.085l-2.09,1.482a16.688,16.688,0,0,1,3.781,4.275Zm8.873-3.4v.589h-4.617a23.06,23.06,0,0,1-2.47-.076,12.886,12.886,0,0,1,.076,1.634v1.235a9.13,9.13,0,0,1-.095,1.539h2.318v-2.6h4.788v1.729a11.909,11.909,0,0,1-.1,1.767h2.584a13.318,13.318,0,0,1-.076-1.767v-1.729H-26.1v2.6h2.318a8.994,8.994,0,0,1-.095-1.539v-1.235a12.326,12.326,0,0,1,.076-1.634,23.06,23.06,0,0,1-2.47.076H-31.15v-.589h4.237c.912,0,1.368.019,2.014.057v-2.033a19.576,19.576,0,0,1-2.242.114H-37.269a20.912,20.912,0,0,1-2.261-.114v2.033c.646-.038,1.159-.057,2.052-.057Zm8.3,11.191V-5.757a16.351,16.351,0,0,1,.076-1.9,16.671,16.671,0,0,1-1.938.076H-37.4a16.616,16.616,0,0,1-1.881-.076,14.414,14.414,0,0,1,.1,1.9v3.363a15.926,15.926,0,0,1-.114,2h2.489v-.836h3.287V-.057c0,1.349.589,1.558,4.351,1.558,4.351,0,5.111-.19,5.567-1.425a6.584,6.584,0,0,0,.285-1.767A8.39,8.39,0,0,1-25.26-2.3Zm-5.909,1.406h5.377c-.038.418-.133.589-.342.684a8.379,8.379,0,0,1-2.432.209,17.428,17.428,0,0,1-2.28-.114c-.247-.057-.323-.133-.323-.342Zm-2.356-4.75v.76h-3.268v-.76Zm2.356,0h3.515v.76h-3.515Zm-2.356,2.261v.817h-3.268v-.817Zm2.356,0h3.515v.817h-3.515Zm-6.5-6.1c.285-.019.513-.038.912-.038h1.634a5.777,5.777,0,0,1,.893.038v-1.235c-.209.019-.494.038-.893.038h-1.634a5.659,5.659,0,0,1-.912-.038Zm0,1.71a6.455,6.455,0,0,1,.912-.038h1.634a5.272,5.272,0,0,1,.893.038V-9.348c-.228.019-.456.038-.893.038h-1.634a5.659,5.659,0,0,1-.912-.038Zm7.239-1.729a6.735,6.735,0,0,1,.912-.038h1.881a4.284,4.284,0,0,1,.8.038h.095v-1.235c-.228.019-.456.038-.893.038h-1.881a5.659,5.659,0,0,1-.912-.038Zm0,1.729a6.455,6.455,0,0,1,.912-.038h1.881a5.272,5.272,0,0,1,.893.038V-9.348c-.19.019-.475.038-.893.038h-1.881a5.788,5.788,0,0,1-.912-.038Zm19.494-2.622h-1.5a17.022,17.022,0,0,1-2.185-.114V-8.4a16.9,16.9,0,0,1,2.166-.114h1.52v2.147H-12.8c-.57,0-.988-.019-1.406-.057.038.551.057.855.057,1.444v4.56a17.587,17.587,0,0,1-.076,1.995h2.47V.76h4.142v.817h2.527c-.057-.513-.095-1.311-.095-2.09V-4.826q0-1,.057-1.6a12.8,12.8,0,0,1-1.406.057H-8.559V-8.512H-6.64A17.755,17.755,0,0,1-4.474-8.4v-2.451a16.7,16.7,0,0,1-2.166.114H-8.559v-2.394c1.083-.209,2.546-.551,3.363-.779.285-.076.342-.1.551-.152l-1.349-2.185c-1.6.817-5.415,1.52-8.911,1.634a8.533,8.533,0,0,1,.8,2.223c1.672-.152,1.995-.19,3.173-.342Zm-.817,6.555h4.142v2.736h-4.142Zm-9.5-9.4c.456-.038.931-.057,1.653-.057h2.812c.779,0,1.178.019,1.653.057v-2.033a12.834,12.834,0,0,1-1.653.076H-19.6a12.647,12.647,0,0,1-1.653-.076Zm-.589,2.831A11.851,11.851,0,0,1-20.3-10.83h4.009a9.331,9.331,0,0,1,1.463.057v-2.185a10.284,10.284,0,0,1-1.539.076H-20.3a8.6,8.6,0,0,1-1.539-.1Zm.646,2.66A7.169,7.169,0,0,1-20-8.151h3.686a9.8,9.8,0,0,1,1.159.057v-2a8.361,8.361,0,0,1-1.159.057H-20a9.622,9.622,0,0,1-1.2-.057Zm0,2.679a6.811,6.811,0,0,1,1.178-.057h3.667a6.936,6.936,0,0,1,1.2.057V-7.41a6.241,6.241,0,0,1-1.159.057H-20a7.169,7.169,0,0,1-1.2-.057ZM-18.933.779h1.672v.589h2.223A13.356,13.356,0,0,1-15.1-.076V-3.4a11.711,11.711,0,0,1,.038-1.311,6.16,6.16,0,0,1-1.216.057h-3.534c-.608,0-.969-.019-1.444-.057a11.749,11.749,0,0,1,.076,1.463V-.171a12.831,12.831,0,0,1-.1,1.786h2.337Zm-.057-3.572h1.729v1.634H-18.99ZM12.436-7.714a10.184,10.184,0,0,0-1.6-2.565l-1.615.722A12.151,12.151,0,0,1,10.8-6.916Zm2.2-1.045a9.784,9.784,0,0,0-1.577-2.432l-1.577.684a12.606,12.606,0,0,1,1.539,2.546ZM-2.289-10.6A27.365,27.365,0,0,1,.5-10.944c4.237-.323,4.313-.342,6.213-.551C4.076-9.975,2.708-7.885,2.708-5.32a5.176,5.176,0,0,0,3,4.845A12.5,12.5,0,0,0,10.308.7,4.623,4.623,0,0,1,10.973.8l.4-3.078c-.228.019-.361.019-.475.019A12.4,12.4,0,0,1,8.085-2.7a2.965,2.965,0,0,1-2.47-2.888c0-1.729,1.292-3.5,3.439-4.712A8.754,8.754,0,0,1,13.1-11.457a4.145,4.145,0,0,1,.456.019L13.4-14.345a11.2,11.2,0,0,1-2.128.171c-5.225.228-8.493.38-9.8.475-2.7.171-2.812.171-3.173.171-.076,0-.3,0-.741-.019Zm25.745-4.769c-4.484,0-7.372,3.135-7.372,8.018,0,4.921,2.888,8.094,7.372,8.094,4.446,0,7.372-3.211,7.372-8.113a8.3,8.3,0,0,0-2.185-6.023A6.945,6.945,0,0,0,23.456-15.371Zm.019,13.357c-2.546,0-4.142-2.071-4.142-5.377,0-3.211,1.6-5.244,4.123-5.244a3.711,3.711,0,0,1,2.7,1.064,5.816,5.816,0,0,1,1.406,4.218C27.559-4.047,26-2.014,23.475-2.014ZM40.308-8.835,44.337-13c.608-.627,1.539-1.577,2.033-2.052H42.037a10.432,10.432,0,0,1-1.558,1.976l-4.313,4.56v-3.914a16.13,16.13,0,0,1,.171-2.622H32.9a18.225,18.225,0,0,1,.152,2.622v10.2A18.744,18.744,0,0,1,32.9.4h3.439a15.424,15.424,0,0,1-.171-2.622V-4.864L38.142-6.84l3.382,5.054A18.737,18.737,0,0,1,42.778.4h4.2a23.883,23.883,0,0,1-1.957-2.6ZM51.88-4.123c-.019-.475-.038-.665-.038-.874,0-.228,0-.228.057-1.368l.323-6.251c.038-.988.114-1.881.19-2.432h-3.7c.076.646.152,1.577.19,2.432l.323,6.251c.057,1.1.057,1.1.057,1.349,0,.209-.019.418-.038.893ZM52.183.4V-2.679H48.934V.4Zm6.46-4.522c-.019-.475-.038-.665-.038-.874,0-.228,0-.228.057-1.368l.323-6.251c.038-.988.114-1.881.19-2.432h-3.7c.076.646.152,1.577.19,2.432l.323,6.251c.057,1.1.057,1.1.057,1.349,0,.209-.019.418-.038.893ZM58.947.4V-2.679H55.7V.4Z" transform="translate(966 3861)" fill="#6b95c8"/>
    <path id="パス_546" data-name="パス 546" d="M-63.084-21.392A16.426,16.426,0,0,1-60.7-17.36l2.52-1.092A14.315,14.315,0,0,0-60.62-22.4Zm3.416-1.316a16.37,16.37,0,0,1,2.38,3.892l2.436-1.092a15.243,15.243,0,0,0-2.464-3.808Zm-12.936.5a11.731,11.731,0,0,1,.448,1.848,74.657,74.657,0,0,0,1.792,7.476,17.424,17.424,0,0,0-3.864,2.464A6.8,6.8,0,0,0-76.72-5.18a6.072,6.072,0,0,0,1.232,3.724C-74,.42-70.9,1.344-66.052,1.344A68.1,68.1,0,0,0-59.024.9c1.6-.168,1.736-.168,2.352-.2l-.336-4.564a33.665,33.665,0,0,1-9.38,1.2c-4.144,0-5.992-.812-5.992-2.66,0-1.792,1.96-3.416,5.8-4.816a60.43,60.43,0,0,1,9.632-2.66l-1.4-4.256a6.305,6.305,0,0,1-1.12.42c-4.368,1.372-5.544,1.764-7.084,2.324a47.3,47.3,0,0,1-1.708-8.568Zm24.388,4.676a4.854,4.854,0,0,1,.98.084,52.589,52.589,0,0,0,5.8.336,24.9,24.9,0,0,0,3.192-.168c-.812.476-2.716,1.652-3.7,2.3l2.856,2.128a52.538,52.538,0,0,1,7.644-4.788l-.14-3.7a37.573,37.573,0,0,1-7.336.5,42.015,42.015,0,0,1-9.044-.7Zm2.24,5.936c-2.66,2.128-3.808,4.088-3.808,6.384s1.232,3.92,3.752,4.872a21.522,21.522,0,0,0,7.364.924A44.117,44.117,0,0,0-32.34.14a24.023,24.023,0,0,1,2.52-.252L-30.128-4.7a29.92,29.92,0,0,1-9.1,1.232c-4.368,0-6.3-.728-6.3-2.352,0-1.092.812-2.268,2.52-3.64Zm42.448.224a15.007,15.007,0,0,0-2.352-3.78l-2.38,1.064a17.907,17.907,0,0,1,2.324,3.892Zm3.248-1.54A14.419,14.419,0,0,0-2.6-16.492l-2.324,1.008A18.577,18.577,0,0,1-2.66-11.732Zm-24.948-2.716a40.327,40.327,0,0,1,4.116-.5c6.244-.476,6.356-.5,9.156-.812-3.892,2.24-5.908,5.32-5.908,9.1A7.628,7.628,0,0,0-13.44-.7,18.424,18.424,0,0,0-6.664,1.036a6.812,6.812,0,0,1,.98.14L-5.1-3.36c-.336.028-.532.028-.7.028A18.27,18.27,0,0,1-9.94-3.976c-2.352-.672-3.64-2.184-3.64-4.256,0-2.548,1.9-5.152,5.068-6.944a12.9,12.9,0,0,1,5.964-1.708,6.109,6.109,0,0,1,.672.028L-2.1-21.14a16.5,16.5,0,0,1-3.136.252c-7.7.336-12.516.56-14.448.7-3.976.252-4.144.252-4.676.252-.112,0-.448,0-1.092-.028ZM1.9-8.54c.5.056.784.112,1.092.168,1.456.308,2.436.448,3.78.616-.084,1.2-.084,1.484-.084,2.184,0,2.828.952,4.7,3,5.964a10.311,10.311,0,0,0,5.32,1.26A10.414,10.414,0,0,0,21.5-.28,6.744,6.744,0,0,0,24.276-5.6a9.15,9.15,0,0,0-2.436-6.132,12.26,12.26,0,0,1-4.144.812,6.8,6.8,0,0,1,2.436,4.7c0,2.548-1.9,4-5.236,4a4.87,4.87,0,0,1-3.276-.98,3.29,3.29,0,0,1-.952-2.632c0-.532.028-1.148.084-1.68.98.028,1.2.028,1.512.028a34.869,34.869,0,0,0,4.312-.28,7.474,7.474,0,0,1,.9-.084l.084-3.836a21.124,21.124,0,0,1-5.572.616c-.2,0-.532,0-.98-.028.2-1.54.28-2.1.476-3.444h.42a39.768,39.768,0,0,0,4.228-.168c1.624-.14,1.624-.14,2.044-.168l.14-3.92a26.8,26.8,0,0,1-6.244.644,22,22,0,0,1,.868-4.424L8.512-22.96v.336a30.368,30.368,0,0,1-.476,4.34,19.436,19.436,0,0,1-5.068-.98l-.308,3.7c.42.056.56.084.98.168a29.6,29.6,0,0,0,3.948.672c-.28,1.764-.28,1.764-.476,3.416a19.125,19.125,0,0,1-4.9-1.036ZM32.172-19.6h-2.3a21.485,21.485,0,0,1-2.856-.168v3.584a19.58,19.58,0,0,1,2.66-.14h4.844A22.2,22.2,0,0,1,33.6-11c-1.148-1.288-1.148-1.288-3.724-3.892l-2.38,2.52a50.717,50.717,0,0,1,4.62,4.956A18,18,0,0,1,26.684-.98a11.3,11.3,0,0,1,2.464,3.192A30.3,30.3,0,0,0,34.5-4.4,44.2,44.2,0,0,1,37.576.112l2.548-3.024c-1.6-2.212-2.464-3.3-3.892-5.04a29.6,29.6,0,0,0,1.848-8.372,18.175,18.175,0,0,1,1.988.084v-3.5a19.377,19.377,0,0,1-2.744.14H35.7v-1.428a16.1,16.1,0,0,1,.14-2.548H32a16.112,16.112,0,0,1,.168,2.548Zm14.476,4.732V-1.9c0,.56-.224.644-1.568.644a29.281,29.281,0,0,1-3.472-.308,12.972,12.972,0,0,1,1.036,3.64c.784.028,1.148.028,1.624.028.5,0,1.092-.028,2.072-.056A6.011,6.011,0,0,0,49,1.6c.952-.56,1.26-1.26,1.26-3.136V-14.868h.2a15,15,0,0,1,1.876.084,3.109,3.109,0,0,0,.644.056v-3.7a15.16,15.16,0,0,1-2.548.168H50.26V-20.02a27.878,27.878,0,0,1,.14-3.444H46.452a20.5,20.5,0,0,1,.2,3.444v1.764h-3.36a16.788,16.788,0,0,1-2.66-.14v3.668a16.613,16.613,0,0,1,2.632-.14ZM39-11.816A26.365,26.365,0,0,1,42.84-4.872l3.052-1.96a38.342,38.342,0,0,0-3.864-6.58ZM66.64-17.724l-2.184,1.9a25.658,25.658,0,0,1,7.028,5.012l2.548-2.716a40.687,40.687,0,0,0-6.328-4.2h8.148a29.36,29.36,0,0,1,3.416.14v-3.7a26.369,26.369,0,0,1-3.416.168H68.936v-1.064a7.349,7.349,0,0,1,.112-1.54H65.072a7.863,7.863,0,0,1,.14,1.484v1.12h-7c-1.288,0-2.016-.028-3-.112.084.98.112,2.1.112,3.92A90.438,90.438,0,0,1,54.74-6.132,17.7,17.7,0,0,1,53-.644,14.713,14.713,0,0,1,55.972,2.3a24.686,24.686,0,0,0,2.128-6.8c.588-3.164.784-6.3.784-13.216ZM61.628.616c1.316-3.64,1.792-6.076,2.156-11.48l-3.36-.84a42.584,42.584,0,0,1-.5,5.264,18.018,18.018,0,0,1-1.512,5.124Zm3.108-13.748a15.515,15.515,0,0,1,.168,2.66V-.056a1.715,1.715,0,0,0,1.12,1.848,11.583,11.583,0,0,0,3.724.364c2.492,0,3.612-.336,4.228-1.232.588-.84.812-2.24,1.036-6.048a12.6,12.6,0,0,1-3.332-1.12,22.59,22.59,0,0,1-.224,4.2c-.168.532-.5.672-1.68.672-1.148,0-1.344-.112-1.344-.756v-8.316a16.751,16.751,0,0,1,.14-2.688ZM79.8-1.512a51.274,51.274,0,0,0-3.584-10.36L73.08-10.36A33.769,33.769,0,0,1,76.3.168Z" transform="translate(965 3836)" fill="#6b95c8"/>
    <g id="グループ_611" data-name="グループ 611" transform="translate(1079.902 3841.957)">
      <g id="グループ_610" data-name="グループ 610" clip-path="url(#clip-path-2)">
        <path id="パス_480" data-name="パス 480" d="M20.193,0A20.193,20.193,0,0,0,0,20.193C0,25.575,6.294,39.3,20.192,55.434v0h0v0C34.091,39.3,40.385,25.575,40.385,20.193h0A20.193,20.193,0,0,0,20.193,0m0,33.244A13.052,13.052,0,1,1,33.245,20.193,13.052,13.052,0,0,1,20.193,33.244" fill="#fff" fill-rule="evenodd"/>
        <path id="パス_481" data-name="パス 481" d="M44.685,65.954h16.8v-10.9h-16.8Zm8.4-1.915A3.536,3.536,0,1,1,56.619,60.5a3.536,3.536,0,0,1-3.536,3.536" transform="translate(-32.89 -40.52)" fill="#fff"/>
      </g>
    </g>
    <g id="グループ_616" data-name="グループ 616" transform="translate(813 3841.957)">
      <g id="グループ_610-2" data-name="グループ 610" clip-path="url(#clip-path-2)">
        <path id="パス_480-2" data-name="パス 480" d="M20.193,0A20.193,20.193,0,0,0,0,20.193C0,25.575,6.294,39.3,20.192,55.434v0h0v0C34.091,39.3,40.385,25.575,40.385,20.193h0A20.193,20.193,0,0,0,20.193,0m0,33.244A13.052,13.052,0,1,1,33.245,20.193,13.052,13.052,0,0,1,20.193,33.244" fill="#fff" fill-rule="evenodd"/>
        <path id="パス_481-2" data-name="パス 481" d="M44.685,65.954h16.8v-10.9h-16.8Zm8.4-1.915A3.536,3.536,0,1,1,56.619,60.5a3.536,3.536,0,0,1-3.536,3.536" transform="translate(-32.89 -40.52)" fill="#fff"/>
      </g>
    </g>
    <g id="グループ_612" data-name="グループ 612" transform="translate(1101.709 3766.51)">
      <g id="グループ_610-3" data-name="グループ 610" clip-path="url(#clip-path-2)">
        <path id="パス_480-3" data-name="パス 480" d="M20.193,0A20.193,20.193,0,0,0,0,20.193C0,25.575,6.294,39.3,20.192,55.434v0h0v0C34.091,39.3,40.385,25.575,40.385,20.193h0A20.193,20.193,0,0,0,20.193,0m0,33.244A13.052,13.052,0,1,1,33.245,20.193,13.052,13.052,0,0,1,20.193,33.244" fill="#fff" fill-rule="evenodd"/>
        <path id="パス_481-3" data-name="パス 481" d="M44.685,65.954h16.8v-10.9h-16.8Zm8.4-1.915A3.536,3.536,0,1,1,56.619,60.5a3.536,3.536,0,0,1-3.536,3.536" transform="translate(-32.89 -40.52)" fill="#fff"/>
      </g>
    </g>
    <g id="グループ_615" data-name="グループ 615" transform="translate(792.807 3766.51)">
      <g id="グループ_610-4" data-name="グループ 610" clip-path="url(#clip-path-2)">
        <path id="パス_480-4" data-name="パス 480" d="M20.193,0A20.193,20.193,0,0,0,0,20.193C0,25.575,6.294,39.3,20.192,55.434v0h0v0C34.091,39.3,40.385,25.575,40.385,20.193h0A20.193,20.193,0,0,0,20.193,0m0,33.244A13.052,13.052,0,1,1,33.245,20.193,13.052,13.052,0,0,1,20.193,33.244" fill="#fff" fill-rule="evenodd"/>
        <path id="パス_481-4" data-name="パス 481" d="M44.685,65.954h16.8v-10.9h-16.8Zm8.4-1.915A3.536,3.536,0,1,1,56.619,60.5a3.536,3.536,0,0,1-3.536,3.536" transform="translate(-32.89 -40.52)" fill="#fff"/>
      </g>
    </g>
    <g id="グループ_613" data-name="グループ 613" transform="translate(1079.903 3691.063)">
      <g id="グループ_610-5" data-name="グループ 610" clip-path="url(#clip-path-2)">
        <path id="パス_480-5" data-name="パス 480" d="M20.193,0A20.193,20.193,0,0,0,0,20.193C0,25.575,6.294,39.3,20.192,55.434v0h0v0C34.091,39.3,40.385,25.575,40.385,20.193h0A20.193,20.193,0,0,0,20.193,0m0,33.244A13.052,13.052,0,1,1,33.245,20.193,13.052,13.052,0,0,1,20.193,33.244" fill="#fff" fill-rule="evenodd"/>
        <path id="パス_481-5" data-name="パス 481" d="M44.685,65.954h16.8v-10.9h-16.8Zm8.4-1.915A3.536,3.536,0,1,1,56.619,60.5a3.536,3.536,0,0,1-3.536,3.536" transform="translate(-32.89 -40.52)" fill="#fff"/>
      </g>
    </g>
    <g id="グループ_614" data-name="グループ 614" transform="translate(813 3691.063)">
      <g id="グループ_610-6" data-name="グループ 610" clip-path="url(#clip-path-2)">
        <path id="パス_480-6" data-name="パス 480" d="M20.193,0A20.193,20.193,0,0,0,0,20.193C0,25.575,6.294,39.3,20.192,55.434v0h0v0C34.091,39.3,40.385,25.575,40.385,20.193h0A20.193,20.193,0,0,0,20.193,0m0,33.244A13.052,13.052,0,1,1,33.245,20.193,13.052,13.052,0,0,1,20.193,33.244" fill="#fff" fill-rule="evenodd"/>
        <path id="パス_481-6" data-name="パス 481" d="M44.685,65.954h16.8v-10.9h-16.8Zm8.4-1.915A3.536,3.536,0,1,1,56.619,60.5a3.536,3.536,0,0,1-3.536,3.536" transform="translate(-32.89 -40.52)" fill="#fff"/>
      </g>
    </g>
  </g>
</svg>
