<svg xmlns="http://www.w3.org/2000/svg" xmlns:xlink="http://www.w3.org/1999/xlink" width="369.866" height="240.267" viewBox="0 0 369.866 240.267">
  <defs>
    <clipPath id="clip-path">
      <rect id="長方形_15" data-name="長方形 15" width="240.267" height="240.267" fill="none"/>
    </clipPath>
    <clipPath id="clip-path-2">
      <rect id="長方形_287" data-name="長方形 287" width="57.594" height="149.184" fill="none"/>
    </clipPath>
  </defs>
  <g id="グループ_734" data-name="グループ 734" transform="translate(-299.932 -3288)">
    <g id="グループ_588" data-name="グループ 588" transform="translate(365 3288)">
      <g id="グループ_10" data-name="グループ 10" clip-path="url(#clip-path)">
        <path id="パス_12" data-name="パス 12" d="M223.894,147.937c2.512-9.393,16.372-17.62,16.372-27.8s-13.86-18.41-16.372-27.8c-2.6-9.719,5.214-23.763.291-32.272-5-8.637-21.105-8.856-28.113-15.862s-7.225-23.118-15.862-28.114c-8.51-4.922-22.553,2.895-32.272.292C138.545,13.861,130.318,0,120.133,0s-18.412,13.862-27.8,16.374c-9.721,2.6-23.763-5.214-32.272-.292-8.637,5-8.856,21.105-15.864,28.114S21.078,51.42,16.082,60.057c-4.924,8.509,2.893,22.553.291,32.272C13.86,101.722,0,109.949,0,120.132s13.86,18.412,16.372,27.8c2.6,9.719-5.214,23.763-.291,32.272,5,8.637,21.105,8.856,28.113,15.864s7.227,23.116,15.864,28.113c8.509,4.924,22.551-2.895,32.272-.292,9.391,2.512,17.618,16.374,27.8,16.374s18.412-13.862,27.8-16.374c9.719-2.6,23.762,5.216,32.272.292,8.637-5,8.855-21.105,15.862-28.113s23.118-7.227,28.113-15.864c4.924-8.509-2.893-22.553-.291-32.272" transform="translate(0 0)" fill="#ffda00"/>
        <path id="パス_13" data-name="パス 13" d="M117.654,230.257c-2.47,0-5.469-2.176-10.857-6.75-4.317-3.667-9.2-7.816-15-9.368a25.185,25.185,0,0,0-6.572-.8,65.842,65.842,0,0,0-11.569,1.373,53.786,53.786,0,0,1-8.808,1.13,7.35,7.35,0,0,1-3.466-.637c-2.056-1.188-3.53-4.518-5.879-11.08-1.935-5.4-4.128-11.525-8.46-15.858s-10.454-6.523-15.856-8.457c-6.564-2.352-9.891-3.827-11.062-5.851-1.125-1.944-.744-5.513.474-12.292,1.023-5.7,2.181-12.154.574-18.157-1.55-5.794-5.7-10.679-9.36-14.99-4.578-5.392-6.757-8.393-6.757-10.866s2.179-5.475,6.759-10.866c3.661-4.311,7.808-9.2,9.359-14.992,1.607-6,.449-12.456-.574-18.151-1.218-6.783-1.6-10.351-.474-12.3,1.172-2.027,4.5-3.5,11.064-5.851,5.4-1.935,11.523-4.128,15.855-8.46s6.525-10.454,8.46-15.855c2.349-6.564,3.825-9.892,5.849-11.065a7.258,7.258,0,0,1,3.5-.653,53.913,53.913,0,0,1,8.783,1.125A65.933,65.933,0,0,0,85.223,21.97a25.154,25.154,0,0,0,6.577-.8c5.794-1.55,10.679-5.7,14.99-9.359,5.39-4.579,8.391-6.757,10.864-6.757s5.472,2.178,10.863,6.754c4.314,3.663,9.2,7.813,15,9.363a25.2,25.2,0,0,0,6.574.8A65.894,65.894,0,0,0,161.663,20.6a54.1,54.1,0,0,1,8.8-1.128,7.248,7.248,0,0,1,3.5.654c2.023,1.17,3.5,4.5,5.846,11.056,1.936,5.408,4.129,11.53,8.461,15.862s10.454,6.525,15.853,8.458c6.565,2.351,9.9,3.825,11.067,5.851,1.125,1.945.744,5.514-.474,12.291-1.023,5.7-2.182,12.151-.574,18.158,1.55,5.793,5.7,10.679,9.357,14.989,4.581,5.392,6.76,8.394,6.76,10.867s-2.179,5.474-6.759,10.864c-3.66,4.313-7.808,9.2-9.359,14.993-1.608,6-.449,12.461.574,18.157,1.216,6.778,1.6,10.347.474,12.289-1.172,2.026-4.5,3.5-11.055,5.849-5.41,1.936-11.532,4.128-15.865,8.46s-6.523,10.454-8.458,15.855c-2.349,6.565-3.825,9.9-5.851,11.067a7.255,7.255,0,0,1-3.494.653,53.77,53.77,0,0,1-8.8-1.127,65.848,65.848,0,0,0-11.583-1.376,25.086,25.086,0,0,0-6.575.8c-5.8,1.549-10.681,5.7-14.99,9.357-5.393,4.579-8.393,6.757-10.866,6.757M85.223,208.318a30.048,30.048,0,0,1,7.871.972c6.89,1.842,12.233,6.38,16.946,10.384,1.689,1.434,6.1,5.179,7.614,5.55,1.515-.371,5.93-4.12,7.613-5.548,4.717-4.005,10.059-8.543,16.945-10.384a30.079,30.079,0,0,1,7.874-.973,69.7,69.7,0,0,1,12.458,1.452,51.078,51.078,0,0,0,7.922,1.051,7.237,7.237,0,0,0,1.021-.06c1.07-1.275,2.89-6.358,3.6-8.33,2.114-5.9,4.506-12.584,9.636-17.714s11.815-7.524,17.714-9.634c2-.716,7.172-2.568,8.369-3.634.283-1.588-.7-7.052-1.029-8.895-1.115-6.212-2.381-13.252-.483-20.339,1.842-6.888,6.38-12.231,10.383-16.946,1.431-1.681,5.182-6.1,5.551-7.614-.37-1.516-4.122-5.933-5.551-7.614-4-4.717-8.54-10.059-10.381-16.943-1.9-7.09-.634-14.13.481-20.343.331-1.841,1.312-7.306,1.029-8.895-1.2-1.064-6.376-2.919-8.369-3.633-5.9-2.112-12.586-4.506-17.714-9.636s-7.524-11.814-9.636-17.712c-.708-1.975-2.528-7.058-3.6-8.328a6.931,6.931,0,0,0-1.021-.061,51.194,51.194,0,0,0-7.895,1.045,69.763,69.763,0,0,1-12.482,1.458,30.076,30.076,0,0,1-7.872-.972c-6.887-1.842-12.231-6.38-16.945-10.383-1.686-1.431-6.1-5.18-7.616-5.551-1.515.37-5.931,4.122-7.614,5.551-4.715,4-10.058,8.54-16.942,10.381a30.035,30.035,0,0,1-7.875.973,69.646,69.646,0,0,1-12.47-1.455,51.182,51.182,0,0,0-7.908-1.048,6.947,6.947,0,0,0-1.021.061c-1.07,1.272-2.892,6.356-3.6,8.328-2.114,5.9-4.508,12.584-9.636,17.712S38.777,58.113,32.88,60.225c-2,.714-7.175,2.568-8.372,3.634-.283,1.589.7,7.054,1.029,8.895,1.115,6.215,2.379,13.255.483,20.339-1.842,6.887-6.379,12.23-10.381,16.943-1.431,1.684-5.183,6.1-5.553,7.617.37,1.515,4.12,5.933,5.55,7.614,4,4.715,8.542,10.058,10.383,16.943,1.9,7.087.634,14.127-.481,20.337-.331,1.847-1.312,7.312-1.029,8.9,1.2,1.066,6.37,2.919,8.361,3.631,5.9,2.114,12.59,4.508,17.721,9.637s7.522,11.814,9.634,17.712c.707,1.974,2.527,7.055,3.6,8.33a7.153,7.153,0,0,0,1.021.061,51.044,51.044,0,0,0,7.908-1.048,69.72,69.72,0,0,1,12.47-1.455" transform="translate(2.479 2.479)" fill="#fff"/>
      </g>
    </g>
    <path id="パス_540" data-name="パス 540" d="M-44.96-11.26a12.923,12.923,0,0,1,1.74,2.48l1.6-.94a11.611,11.611,0,0,0-1.78-2.42Zm-2.28,1.24a10.988,10.988,0,0,1,1.78,2.56l1.64-.96a10.03,10.03,0,0,0-1.78-2.52Zm-8.98-2.48a3.467,3.467,0,0,1,.7.06,37.564,37.564,0,0,0,4.14.24,17.789,17.789,0,0,0,2.28-.12c-.58.34-1.94,1.18-2.64,1.64l2.04,1.52a37.527,37.527,0,0,1,5.46-3.42l-.1-2.64a26.838,26.838,0,0,1-5.24.36,30.011,30.011,0,0,1-6.46-.5Zm1.6,4.24c-1.9,1.52-2.72,2.92-2.72,4.56A3.565,3.565,0,0,0-54.66-.22,15.373,15.373,0,0,0-49.4.44,31.512,31.512,0,0,0-44.88.12a17.16,17.16,0,0,1,1.8-.18l-.22-3.28a21.372,21.372,0,0,1-6.5.88c-3.12,0-4.5-.52-4.5-1.68,0-.78.58-1.62,1.8-2.6Zm21.72-2.76a8.333,8.333,0,0,1,1.22.08v-2.54a7.851,7.851,0,0,1-1.26.1h-1v-1.5a14.819,14.819,0,0,1,.1-2.08h-2.74a14.1,14.1,0,0,1,.12,2.1v1.48H-37.5a7.288,7.288,0,0,1-1.5-.1v2.56a7.211,7.211,0,0,1,1.46-.1h.82A15.7,15.7,0,0,1-39.58-5.2a11.181,11.181,0,0,1,1.14,2.78,16.582,16.582,0,0,0,1.06-1.82,14.76,14.76,0,0,0,1.04-2.5c-.06.58-.1,1.84-.1,2.7v3.3a17.734,17.734,0,0,1-.14,2.52h2.76a21.638,21.638,0,0,1-.12-2.52V-5.42c0-1-.02-1.52-.08-2.38a13.14,13.14,0,0,0,1.68,2.84,10.39,10.39,0,0,1,1.1-2.52,9.872,9.872,0,0,1-2.54-3.54Zm4.32,12.74V.66h4.44V1.68h2.68a23.656,23.656,0,0,1-.1-2.58V-14.28c0-.86.02-1.44.06-2.06a14.257,14.257,0,0,1-1.84.08h-6.02c-.76,0-1.3-.02-1.86-.06.06.94.08,1.44.08,2.1V-.9c0,.96-.04,1.82-.12,2.62Zm0-15.52h4.44v2.42h-4.44Zm0,4.74h4.44v2.54h-4.44Zm0,4.86h4.44v2.48h-4.44ZM-7.94-16.78a4.94,4.94,0,0,1,.08.88,7.962,7.962,0,0,1-.6,3.52A6.038,6.038,0,0,1-12.5-9.22a8.313,8.313,0,0,1,1.36,2.14,8,8,0,0,1-1.28,3.22l2.12.96A13.867,13.867,0,0,0-8.92-6.6l-1.96-.6a7.689,7.689,0,0,0,4.32-4.28A6.839,6.839,0,0,0-5-9.26,10.26,10.26,0,0,0-1.84-7.1,10.825,10.825,0,0,1-.54-9.44a7.67,7.67,0,0,1-3.24-1.82,5.152,5.152,0,0,1-1.18-1.68,7.682,7.682,0,0,1,2.04,1.12A16.517,16.517,0,0,0-.84-15.3l-2.28-.88A10.023,10.023,0,0,1-4.98-13a8.721,8.721,0,0,1-.4-2.64,6.8,6.8,0,0,1,.08-1.14Zm-4.12,4.18,1.98.76a12.834,12.834,0,0,0,1.34-3.64l-2.24-.5a8.286,8.286,0,0,1-1.08,3.04v-.68a11,11,0,0,1-1.62.08h-4a8.917,8.917,0,0,1-1.62-.1v2.38a12.087,12.087,0,0,1,1.62-.08h4.08a9.541,9.541,0,0,1,1.54.06ZM-12.5-.32a8.227,8.227,0,0,1,1,2.26A8.644,8.644,0,0,0-8.6.16,7.028,7.028,0,0,0-6.56-2.78,10.244,10.244,0,0,0-1.7,1.9,10.542,10.542,0,0,1-.38-.66,7.575,7.575,0,0,1-4.8-4.26a9.135,9.135,0,0,1,2,1.16A16.377,16.377,0,0,0-.94-6.4l-2.3-.82a9.873,9.873,0,0,1-1.58,2.9A8.512,8.512,0,0,1-5.4-7.6a9.115,9.115,0,0,1,.06-1.1H-7.98A6.172,6.172,0,0,1-7.9-7.54c0,2.4-.46,3.96-1.56,5.18A6.774,6.774,0,0,1-12.5-.46V-3.54a11.942,11.942,0,0,1,.04-1.38,5.662,5.662,0,0,1-1.18.06h-3.68a12.931,12.931,0,0,1-1.38-.06,12.459,12.459,0,0,1,.08,1.52V-.24c0,.6-.04,1.26-.1,1.96h2.44V.78h1.6v.7h2.22A11.129,11.129,0,0,1-12.5.18ZM-16.36-3h1.68v1.74h-1.68Zm-2.22-11.34c.48-.04.92-.06,1.7-.06h2.64c.8,0,1.14.02,1.7.06v-2.1a12.452,12.452,0,0,1-1.7.08h-2.64a12.452,12.452,0,0,1-1.7-.08Zm.02,5.9a6.685,6.685,0,0,1,1.22-.06h3.6a6.55,6.55,0,0,1,1.18.06v-2.08a6.209,6.209,0,0,1-1.18.06h-3.6a9.633,9.633,0,0,1-1.22-.06Zm0,2.82a8.866,8.866,0,0,1,1.2-.06h3.58a8.6,8.6,0,0,1,1.22.06V-7.7a8.335,8.335,0,0,1-1.18.06h-3.6a9.207,9.207,0,0,1-1.22-.06Zm27.1-7.66v.74h-4a13.882,13.882,0,0,1-1.94-.08v1.8a14.843,14.843,0,0,1,1.94-.08h4v.74H3.02a12.592,12.592,0,0,1-2.04-.1v2.1a13.216,13.216,0,0,1,2.04-.1H4.64a11.649,11.649,0,0,1-1.48,3.6A11.268,11.268,0,0,1,.48-1.74,10.6,10.6,0,0,1,2.46.46,14.712,14.712,0,0,0,5.18-3.3c-.06.78-.1,1.54-.1,2.04v.92a14.745,14.745,0,0,1-.12,2.08H7.62V1.06H14.8v.68h2.68a12.989,12.989,0,0,1-.12-2.16V-5.58a14.85,14.85,0,0,1,.08-2.06c-.62.06-1.2.08-1.9.08H7.02c.06-.2.06-.2.2-.7h9.74a14.14,14.14,0,0,1,2.08.1v-2.1a13.171,13.171,0,0,1-2.08.1h-5.8v-.74H15.5a14.843,14.843,0,0,1,1.94.08v-1.8a14.261,14.261,0,0,1-1.94.08H11.16v-.74h5.18a14.856,14.856,0,0,1,2.06.1v-2.1a14,14,0,0,1-2.06.1H14.08c.44-.54.6-.76,1.14-1.52l-2.66-.5a15.065,15.065,0,0,1-1.22,2.02H8.68A19.527,19.527,0,0,0,7.36-17.2l-2.5.5a8.069,8.069,0,0,1,1.16,1.52H3.66a13.538,13.538,0,0,1-2.04-.1v2.1a14.545,14.545,0,0,1,2.04-.1Zm6.28,7.44v.72H7.62v-.72Zm0,2.18v.72H7.62v-.72Zm0,2.18v.72H7.62v-.72Zm14.04-9.9h-4.2A21.944,21.944,0,0,1,22-11.5v2.6c.76-.06,1.7-.1,2.66-.1h4.2v2.1H23.54a21.276,21.276,0,0,1-2.6-.12v2.64a22.2,22.2,0,0,1,2.6-.12h5.32v2.8c0,.48-.18.62-.74.62a25.994,25.994,0,0,1-3.28-.26,7.212,7.212,0,0,1,.72,2.56c1.22.08,2.1.12,2.72.12A6.266,6.266,0,0,0,30.72.96c.54-.26.82-.9.82-1.88V-4.5h4.84A22.344,22.344,0,0,1,39-4.38V-7.02a21.649,21.649,0,0,1-2.62.12H31.54V-9h3.88c1.1,0,1.92.04,2.64.1v-2.6a22.553,22.553,0,0,1-2.68.12H31.54v-2.24a56.32,56.32,0,0,0,6.06-1L35.72-17a13.482,13.482,0,0,1-2.96.76,61.245,61.245,0,0,1-9.48.74H21.92a9.883,9.883,0,0,1,.84,2.4c2.66-.04,3.88-.1,6.1-.28Zm19.7,2.02v1.64h-4.5a20.552,20.552,0,0,1-2.3-.1v2.56a18.46,18.46,0,0,1,2.28-.12h4.52v4.14H43.72a22.892,22.892,0,0,1-2.56-.12V1.26a25.549,25.549,0,0,1,2.6-.12H56.4a23.963,23.963,0,0,1,2.48.12V-1.36a19.8,19.8,0,0,1-2.42.12h-1.4a31.949,31.949,0,0,0,1.62-3.1L54.16-5.2a13.49,13.49,0,0,1-1.42,3.12l2.28.84h-3.8V-5.38h4.8a16.872,16.872,0,0,1,2.3.12V-7.82a18.886,18.886,0,0,1-2.28.1H51.22V-9.36H53a19.4,19.4,0,0,1,2.04.08v-.94a20.008,20.008,0,0,0,3.34,1.68A11.858,11.858,0,0,1,59.6-11.2a16.569,16.569,0,0,1-5.32-2.64,11.681,11.681,0,0,1-2.86-2.84H48.5c-1.34,2.26-4.46,4.42-8.04,5.6A9,9,0,0,1,41.78-8.6a21.166,21.166,0,0,0,3.16-1.58v.9a19.814,19.814,0,0,1,2-.08Zm-1.52-2.22a13.678,13.678,0,0,0,2.94-2.82,13.937,13.937,0,0,0,2.98,2.82ZM43.28-4.32A16.69,16.69,0,0,1,44.8-1.26l2.38-.82A20.026,20.026,0,0,0,45.7-5.2Z" transform="translate(486 3352)" fill="#6b95c8"/>
    <path id="パス_539" data-name="パス 539" d="M-5.64-5.84H5.76v4.32c0,.4-.16.48-1,.48-.52,0-1.68-.08-2.86-.2A8.968,8.968,0,0,1,2.66,1.3c.9.04,1.82.06,2.48.06a5.472,5.472,0,0,0,2.32-.3A1.947,1.947,0,0,0,8.4-.9V-13.78a21.894,21.894,0,0,1,.08-2.34,20.946,20.946,0,0,1-2.34.08H-6c-1.14,0-1.7-.02-2.4-.08a18.346,18.346,0,0,1,.08,2V-.94a17.43,17.43,0,0,1-.14,2.5h2.92a16.3,16.3,0,0,1-.1-2.4ZM-1.38-8.3H-5.64v-5.24h4.26Zm2.62,0v-5.24H5.76V-8.3Z" transform="translate(536 3475)" fill="#6b95c8"/>
    <path id="パス_538" data-name="パス 538" d="M-.068,5.13c16.065,0,29.3-7.155,36.99-19.845,4.995-8.235,8.235-23.22,8.235-37.4a89.25,89.25,0,0,0-5.265-31.05,39.14,39.14,0,0,0-9.315-14.31c-7.695-7.695-18.36-11.745-30.51-11.745-16.065,0-29.16,7.02-36.855,19.98-5.13,8.37-8.37,23.085-8.37,37.4a89.03,89.03,0,0,0,5.265,30.915,40.946,40.946,0,0,0,9.315,14.31C-22.883,1.08-12.353,5.13-.068,5.13ZM.067-90.18c14.58,0,22.14,13.1,22.14,38.61,0,14.85-3.105,26.46-8.775,32.265A18,18,0,0,1,.067-13.9c-14.715,0-22.275-13.23-22.275-38.88C-22.208-76.41-13.973-90.18.067-90.18Z" transform="translate(486 3476)" fill="#6b95c8"/>
    <g id="グループ_596" data-name="グループ 596" transform="translate(299.932 3371.408)">
      <g id="グループ_595" data-name="グループ 595" transform="translate(0)" clip-path="url(#clip-path-2)">
        <path id="パス_461" data-name="パス 461" d="M57.946,65.425A10.939,10.939,0,1,0,68.885,54.486,10.939,10.939,0,0,0,57.946,65.425" transform="translate(-40.087 -37.694)" fill="#fff"/>
        <path id="パス_462" data-name="パス 462" d="M54.536,41.432c2.732-5.109,3.286-10.619,2.985-16.189C56.968,15.5,51.564,6.362,42.77,1.9A34,34,0,0,0,39.132.29a4.47,4.47,0,0,0-3.319,8.3c7.349,3.149,11.373,9.817,11.144,17.751a27,27,0,0,1-.5,4.819,12.7,12.7,0,0,1-7.739,8.888,26.013,26.013,0,0,1-9.923,1.72,26.012,26.012,0,0,1-9.923-1.72,12.7,12.7,0,0,1-7.739-8.888,26.976,26.976,0,0,1-.5-4.819c-.229-7.933,3.795-14.6,11.144-17.751A4.47,4.47,0,0,0,18.462.29,34,34,0,0,0,14.824,1.9C6.03,6.362.626,15.5.073,25.244c-.3,5.57.253,11.08,2.985,16.189,2.756,5.224,6.247,9.447,11.514,11.819a4.972,4.972,0,0,0,.819.292c-.007,5.681-.4,22.085-1.73,30.788a103.1,103.1,0,0,0-2.953,11.886C7.82,111.64,6.394,127.175,5.334,142.78a6.035,6.035,0,0,0,12.019,1.052l.011-.1.389-3.583a387.975,387.975,0,0,1,6.223-39.263c.487-2.231,1.1-4.591,1.7-6.782l.446-1.461,2.679-7.01,2.679,7.01.446,1.461c.594,2.191,1.209,4.551,1.7,6.782a388.059,388.059,0,0,1,6.223,39.263l.389,3.583.011.1a6.035,6.035,0,0,0,12.019-1.052c-1.061-15.6-2.486-31.14-5.374-46.562a103.035,103.035,0,0,0-2.954-11.886c-1.333-8.7-1.722-25.107-1.73-30.788a4.972,4.972,0,0,0,.819-.292c5.267-2.372,8.758-6.6,11.514-11.819" transform="translate(0 0)" fill="#fff"/>
      </g>
    </g>
    <g id="グループ_605" data-name="グループ 605" transform="translate(612.203 3371.408)">
      <g id="グループ_595-2" data-name="グループ 595" transform="translate(0)" clip-path="url(#clip-path-2)">
        <path id="パス_461-2" data-name="パス 461" d="M57.946,65.425A10.939,10.939,0,1,0,68.885,54.486,10.939,10.939,0,0,0,57.946,65.425" transform="translate(-40.087 -37.694)" fill="#fff"/>
        <path id="パス_462-2" data-name="パス 462" d="M54.536,41.432c2.732-5.109,3.286-10.619,2.985-16.189C56.968,15.5,51.564,6.362,42.77,1.9A34,34,0,0,0,39.132.29a4.47,4.47,0,0,0-3.319,8.3c7.349,3.149,11.373,9.817,11.144,17.751a27,27,0,0,1-.5,4.819,12.7,12.7,0,0,1-7.739,8.888,26.013,26.013,0,0,1-9.923,1.72,26.012,26.012,0,0,1-9.923-1.72,12.7,12.7,0,0,1-7.739-8.888,26.976,26.976,0,0,1-.5-4.819c-.229-7.933,3.795-14.6,11.144-17.751A4.47,4.47,0,0,0,18.462.29,34,34,0,0,0,14.824,1.9C6.03,6.362.626,15.5.073,25.244c-.3,5.57.253,11.08,2.985,16.189,2.756,5.224,6.247,9.447,11.514,11.819a4.972,4.972,0,0,0,.819.292c-.007,5.681-.4,22.085-1.73,30.788a103.1,103.1,0,0,0-2.953,11.886C7.82,111.64,6.394,127.175,5.334,142.78a6.035,6.035,0,0,0,12.019,1.052l.011-.1.389-3.583a387.975,387.975,0,0,1,6.223-39.263c.487-2.231,1.1-4.591,1.7-6.782l.446-1.461,2.679-7.01,2.679,7.01.446,1.461c.594,2.191,1.209,4.551,1.7,6.782a388.059,388.059,0,0,1,6.223,39.263l.389,3.583.011.1a6.035,6.035,0,0,0,12.019-1.052c-1.061-15.6-2.486-31.14-5.374-46.562a103.035,103.035,0,0,0-2.954-11.886c-1.333-8.7-1.722-25.107-1.73-30.788a4.972,4.972,0,0,0,.819-.292c5.267-2.372,8.758-6.6,11.514-11.819" transform="translate(0 0)" fill="#fff"/>
      </g>
    </g>
  </g>
</svg>
