<svg xmlns="http://www.w3.org/2000/svg" xmlns:xlink="http://www.w3.org/1999/xlink" width="428" height="255.464" viewBox="0 0 428 255.464">
  <defs>
    <clipPath id="clip-path">
      <rect id="長方形_15" data-name="長方形 15" width="240.267" height="240.267" fill="none"/>
    </clipPath>
    <clipPath id="clip-path-2">
      <rect id="長方形_288" data-name="長方形 288" width="114.358" height="80.539" transform="translate(0 0)" fill="none"/>
    </clipPath>
  </defs>
  <g id="グループ_733" data-name="グループ 733" transform="translate(-753 -3288)">
    <g id="グループ_588" data-name="グループ 588" transform="translate(847 3288)">
      <g id="グループ_10" data-name="グループ 10" clip-path="url(#clip-path)">
        <path id="パス_12" data-name="パス 12" d="M223.894,147.937c2.512-9.393,16.372-17.62,16.372-27.8s-13.86-18.41-16.372-27.8c-2.6-9.719,5.214-23.763.291-32.272-5-8.637-21.105-8.856-28.113-15.862s-7.225-23.118-15.862-28.114c-8.51-4.922-22.553,2.895-32.272.292C138.545,13.861,130.318,0,120.133,0s-18.412,13.862-27.8,16.374c-9.721,2.6-23.763-5.214-32.272-.292-8.637,5-8.856,21.105-15.864,28.114S21.078,51.42,16.082,60.057c-4.924,8.509,2.893,22.553.291,32.272C13.86,101.722,0,109.949,0,120.132s13.86,18.412,16.372,27.8c2.6,9.719-5.214,23.763-.291,32.272,5,8.637,21.105,8.856,28.113,15.864s7.227,23.116,15.864,28.113c8.509,4.924,22.551-2.895,32.272-.292,9.391,2.512,17.618,16.374,27.8,16.374s18.412-13.862,27.8-16.374c9.719-2.6,23.762,5.216,32.272.292,8.637-5,8.855-21.105,15.862-28.113s23.118-7.227,28.113-15.864c4.924-8.509-2.893-22.553-.291-32.272" transform="translate(0 0)" fill="#ffda00"/>
        <path id="パス_13" data-name="パス 13" d="M117.654,230.257c-2.47,0-5.469-2.176-10.857-6.75-4.317-3.667-9.2-7.816-15-9.368a25.185,25.185,0,0,0-6.572-.8,65.842,65.842,0,0,0-11.569,1.373,53.786,53.786,0,0,1-8.808,1.13,7.35,7.35,0,0,1-3.466-.637c-2.056-1.188-3.53-4.518-5.879-11.08-1.935-5.4-4.128-11.525-8.46-15.858s-10.454-6.523-15.856-8.457c-6.564-2.352-9.891-3.827-11.062-5.851-1.125-1.944-.744-5.513.474-12.292,1.023-5.7,2.181-12.154.574-18.157-1.55-5.794-5.7-10.679-9.36-14.99-4.578-5.392-6.757-8.393-6.757-10.866s2.179-5.475,6.759-10.866c3.661-4.311,7.808-9.2,9.359-14.992,1.607-6,.449-12.456-.574-18.151-1.218-6.783-1.6-10.351-.474-12.3,1.172-2.027,4.5-3.5,11.064-5.851,5.4-1.935,11.523-4.128,15.855-8.46s6.525-10.454,8.46-15.855c2.349-6.564,3.825-9.892,5.849-11.065a7.258,7.258,0,0,1,3.5-.653,53.913,53.913,0,0,1,8.783,1.125A65.933,65.933,0,0,0,85.223,21.97a25.154,25.154,0,0,0,6.577-.8c5.794-1.55,10.679-5.7,14.99-9.359,5.39-4.579,8.391-6.757,10.864-6.757s5.472,2.178,10.863,6.754c4.314,3.663,9.2,7.813,15,9.363a25.2,25.2,0,0,0,6.574.8A65.894,65.894,0,0,0,161.663,20.6a54.1,54.1,0,0,1,8.8-1.128,7.248,7.248,0,0,1,3.5.654c2.023,1.17,3.5,4.5,5.846,11.056,1.936,5.408,4.129,11.53,8.461,15.862s10.454,6.525,15.853,8.458c6.565,2.351,9.9,3.825,11.067,5.851,1.125,1.945.744,5.514-.474,12.291-1.023,5.7-2.182,12.151-.574,18.158,1.55,5.793,5.7,10.679,9.357,14.989,4.581,5.392,6.76,8.394,6.76,10.867s-2.179,5.474-6.759,10.864c-3.66,4.313-7.808,9.2-9.359,14.993-1.608,6-.449,12.461.574,18.157,1.216,6.778,1.6,10.347.474,12.289-1.172,2.026-4.5,3.5-11.055,5.849-5.41,1.936-11.532,4.128-15.865,8.46s-6.523,10.454-8.458,15.855c-2.349,6.565-3.825,9.9-5.851,11.067a7.255,7.255,0,0,1-3.494.653,53.77,53.77,0,0,1-8.8-1.127,65.848,65.848,0,0,0-11.583-1.376,25.086,25.086,0,0,0-6.575.8c-5.8,1.549-10.681,5.7-14.99,9.357-5.393,4.579-8.393,6.757-10.866,6.757M85.223,208.318a30.048,30.048,0,0,1,7.871.972c6.89,1.842,12.233,6.38,16.946,10.384,1.689,1.434,6.1,5.179,7.614,5.55,1.515-.371,5.93-4.12,7.613-5.548,4.717-4.005,10.059-8.543,16.945-10.384a30.079,30.079,0,0,1,7.874-.973,69.7,69.7,0,0,1,12.458,1.452,51.078,51.078,0,0,0,7.922,1.051,7.237,7.237,0,0,0,1.021-.06c1.07-1.275,2.89-6.358,3.6-8.33,2.114-5.9,4.506-12.584,9.636-17.714s11.815-7.524,17.714-9.634c2-.716,7.172-2.568,8.369-3.634.283-1.588-.7-7.052-1.029-8.895-1.115-6.212-2.381-13.252-.483-20.339,1.842-6.888,6.38-12.231,10.383-16.946,1.431-1.681,5.182-6.1,5.551-7.614-.37-1.516-4.122-5.933-5.551-7.614-4-4.717-8.54-10.059-10.381-16.943-1.9-7.09-.634-14.13.481-20.343.331-1.841,1.312-7.306,1.029-8.895-1.2-1.064-6.376-2.919-8.369-3.633-5.9-2.112-12.586-4.506-17.714-9.636s-7.524-11.814-9.636-17.712c-.708-1.975-2.528-7.058-3.6-8.328a6.931,6.931,0,0,0-1.021-.061,51.194,51.194,0,0,0-7.895,1.045,69.763,69.763,0,0,1-12.482,1.458,30.076,30.076,0,0,1-7.872-.972c-6.887-1.842-12.231-6.38-16.945-10.383-1.686-1.431-6.1-5.18-7.616-5.551-1.515.37-5.931,4.122-7.614,5.551-4.715,4-10.058,8.54-16.942,10.381a30.035,30.035,0,0,1-7.875.973,69.646,69.646,0,0,1-12.47-1.455,51.182,51.182,0,0,0-7.908-1.048,6.947,6.947,0,0,0-1.021.061c-1.07,1.272-2.892,6.356-3.6,8.328-2.114,5.9-4.508,12.584-9.636,17.712S38.777,58.113,32.88,60.225c-2,.714-7.175,2.568-8.372,3.634-.283,1.589.7,7.054,1.029,8.895,1.115,6.215,2.379,13.255.483,20.339-1.842,6.887-6.379,12.23-10.381,16.943-1.431,1.684-5.183,6.1-5.553,7.617.37,1.515,4.12,5.933,5.55,7.614,4,4.715,8.542,10.058,10.383,16.943,1.9,7.087.634,14.127-.481,20.337-.331,1.847-1.312,7.312-1.029,8.9,1.2,1.066,6.37,2.919,8.361,3.631,5.9,2.114,12.59,4.508,17.721,9.637s7.522,11.814,9.634,17.712c.707,1.974,2.527,7.055,3.6,8.33a7.153,7.153,0,0,0,1.021.061,51.044,51.044,0,0,0,7.908-1.048,69.72,69.72,0,0,1,12.47-1.455" transform="translate(2.479 2.479)" fill="#fff"/>
      </g>
    </g>
    <path id="パス_543" data-name="パス 543" d="M-18.777-14.421v1.287H-25.41a22.165,22.165,0,0,1-3.3-.165v3.333a30.661,30.661,0,0,1,3.3-.132h6.633v1.254h-8.481a32.24,32.24,0,0,1-4.092-.2v3.7a38.393,38.393,0,0,1,4.125-.2h5.478C-24.42-3.5-27.522-2.211-32.109-1.32a14.282,14.282,0,0,1,2.31,3.8A30.425,30.425,0,0,0-23.364-.2a19.46,19.46,0,0,0,4.686-3.5c-.066,1.188-.066,1.287-.066,2.079V-.3a24.284,24.284,0,0,1-.2,3.3h4.422a22.327,22.327,0,0,1-.2-3.3V-1.65c0-.825,0-.99-.066-2.112C-11.913-.891-8.25,1.056-3.036,2.475A15.57,15.57,0,0,1-.858-1.485c-4.818-.792-8.25-2.079-10.791-4.059h5.973a37.984,37.984,0,0,1,4.059.2v-3.7a30.839,30.839,0,0,1-4.092.2h-8.976V-10.1h7.029a30.661,30.661,0,0,1,3.3.132V-13.3a23.271,23.271,0,0,1-3.3.165h-7.029v-1.287H-6.1a31.862,31.862,0,0,1,3.3.132v-3.5a29.134,29.134,0,0,1-3.3.132H-9.537c.33-.627.363-.693.957-1.947h3.036c1.617,0,3,.066,4.026.165v-3.828a28.174,28.174,0,0,1-3.8.2h-.462A27.07,27.07,0,0,0-3.927-26L-7.92-27.423a18.269,18.269,0,0,1-2.244,4.356h-1.551v-2.244a16.35,16.35,0,0,1,.165-2.508h-4.257a14.751,14.751,0,0,1,.132,2.31v2.442h-1.947v-2.442a20.749,20.749,0,0,1,.1-2.31h-4.224a17.343,17.343,0,0,1,.165,2.508v2.244h-1.452a21.941,21.941,0,0,0-2.343-4.29l-3.96,1.419a13.58,13.58,0,0,1,2.013,2.871h-.5a28.652,28.652,0,0,1-3.762-.2v3.828c1.023-.1,2.376-.165,3.96-.165h3.267a16.9,16.9,0,0,1,.99,1.947h-3.63a28.49,28.49,0,0,1-3.267-.132v3.5a31.186,31.186,0,0,1,3.267-.132Zm-.3-3.234c-.3-.825-.462-1.188-.792-1.947h6.732a18.627,18.627,0,0,1-.858,1.947ZM9.8-13a13.241,13.241,0,0,1-4.125,2.838A32.485,32.485,0,0,1,.726-8.382,17.1,17.1,0,0,1,2.838-4.356a27.415,27.415,0,0,0,7.194-3.8c0,3.069-.99,4.752-3.564,6.072A15.529,15.529,0,0,1,2.112-.594,12.116,12.116,0,0,1,4.686,3.135c3.7-1.188,5.412-2.112,7-3.762a11.237,11.237,0,0,0,2.673-7.425A10.989,10.989,0,0,1,14.487-9.5H11.682A16.542,16.542,0,0,0,14.85-13h3.036a21.273,21.273,0,0,0,3.4,3.5H19.107a19.1,19.1,0,0,1,.132,2.64V-.99a30.66,30.66,0,0,1-.2,3.8h4.752a31.221,31.221,0,0,1-.2-3.762V-7.722a33.771,33.771,0,0,0,6.732,3.4A18.168,18.168,0,0,1,32.34-8.58a32.486,32.486,0,0,1-5.016-1.749A15.318,15.318,0,0,1,23.067-13h2.475c1.65,0,2.64.033,3.7.132a25.907,25.907,0,0,1-.165-3.6v-6.864a26.388,26.388,0,0,1,.165-3.663c-1.056.1-2.013.132-3.7.132H7.557c-1.716,0-2.673-.033-3.729-.132a27.274,27.274,0,0,1,.165,3.663v6.864a26.792,26.792,0,0,1-.165,3.6c1.023-.1,2.079-.132,3.63-.132ZM8.151-23.364h6.171v1.947H8.151Zm0,5.115h6.171v1.98H8.151Zm10.263-5.115h6.5v1.947h-6.5Zm0,5.115h6.5v1.98h-6.5Z" transform="translate(968 3361)" fill="#6b95c8"/>
    <path id="パス_542" data-name="パス 542" d="M-40.62-1.54a44.628,44.628,0,0,0-6.5-5.54,26.065,26.065,0,0,0,3.02-5.44,3.288,3.288,0,0,1,.66-1.12l-1.54-1.6a3,3,0,0,1-1.68.24l-6.82.12h-.38A14.893,14.893,0,0,1-56.3-15l.04,3.04a18.016,18.016,0,0,1,2.8-.18l5.84-.1c-.46,1.02-.8,1.74-1.06,2.18a18.459,18.459,0,0,1-5.24,5.78,18.071,18.071,0,0,1-4.44,2.44A9.045,9.045,0,0,1-56.44.82a23.01,23.01,0,0,0,7.46-5.58,35.618,35.618,0,0,1,5.94,5.82Zm7.44-11.58a15.292,15.292,0,0,1,.12-2.5h-3.22a18.691,18.691,0,0,1,.12,2.48v8.76c0,2.52.24,3.44,1.12,4.08.86.62,2.22.86,4.88.86,1.54,0,3.9-.12,5.68-.3C-23.2.14-22.88.1-22.46.1l-.12-3.16a14.665,14.665,0,0,1-3.32.62,36.8,36.8,0,0,1-3.84.22c-1.74,0-2.82-.16-3.12-.46-.3-.28-.32-.48-.32-2.08V-7.18a34.252,34.252,0,0,0,9.38-3.1c.66-.32.66-.32.96-.46L-24.7-13.4c-1.46,1.24-5.26,2.78-8.48,3.42Zm10.58-4.04a2.215,2.215,0,0,0-2.22,2.22,2.228,2.228,0,0,0,2.22,2.22,2.228,2.228,0,0,0,2.22-2.22A2.215,2.215,0,0,0-22.6-17.16Zm0,1.24a.982.982,0,0,1,.98.98.982.982,0,0,1-.98.98.982.982,0,0,1-.98-.98A.982.982,0,0,1-22.6-15.92Zm3.38,9.94c.78-.08,1.92-.12,3.66-.12h10.1c1.56,0,2.88.04,3.68.1V-9.28a26.257,26.257,0,0,1-3.66.14H-15.56a24.982,24.982,0,0,1-3.66-.16Zm30.52-8.3a13.69,13.69,0,0,1,1.78,2.96l1.74-.86a11.8,11.8,0,0,0-1.78-2.86Zm2.38-1.06a15.311,15.311,0,0,1,1.76,2.84l1.74-.86a13.184,13.184,0,0,0-1.82-2.76ZM7.48,1.06a24.749,24.749,0,0,1-.12-2.78V-7.48a6.861,6.861,0,0,0,.76.36,43.921,43.921,0,0,1,6.7,3.64l1.64-2.88a48.2,48.2,0,0,0-9.1-4.2V-13.6a17.62,17.62,0,0,1,.12-2.68H4.22a17.461,17.461,0,0,1,.12,2.68V-1.76a20.669,20.669,0,0,1-.12,2.82ZM27.74-15.88a4.218,4.218,0,0,1-1.02.08H24.9a6.884,6.884,0,0,1,.4-.9l-2.54-.44a9.592,9.592,0,0,1-2.84,5.26,6.12,6.12,0,0,1,1.2,1.08c.02.5.02.54.02,1.36,0,5.7-.22,7.46-1.14,9.16a7.711,7.711,0,0,1,1.88,1.9,12.029,12.029,0,0,0,1.2-4.76h3.86v1.98c0,.36-.14.42-.9.42a12.321,12.321,0,0,1-1.62-.12,6.687,6.687,0,0,1,.56,2.34c.88.04.88.04,1.16.04a4.644,4.644,0,0,0,2.06-.28c.58-.32.8-.8.8-1.74V-10.98a8.069,8.069,0,0,1,1.16,1.52,10.293,10.293,0,0,1-.14,1.26,9.5,9.5,0,0,1-.96,2.76A9.147,9.147,0,0,1,31.14-4.4c.24-.68.32-.86.5-1.4h1.4v1.52H31.26a12.212,12.212,0,0,1-1.86-.1v2.52a11.742,11.742,0,0,1,1.86-.1h1.78V-.34a14.436,14.436,0,0,1-.12,2.06h2.7A11.851,11.851,0,0,1,35.5-.34V-1.96h1.36a11.537,11.537,0,0,1,1.9.1V-4.38a13.041,13.041,0,0,1-1.94.1H35.5V-5.8h1.14a13.709,13.709,0,0,1,1.74.08V-8.18a9.185,9.185,0,0,1-1.74.1H35.5c0-.7,0-.88.04-1.46H32.96a7.331,7.331,0,0,1,.1,1.46h-.88c.08-.42.1-.5.18-1.02L30.9-9.42a6.561,6.561,0,0,0,2.46-2.72,8.246,8.246,0,0,1,.44,2.16c.64.02,1.06.04,1.34.04a6.543,6.543,0,0,0,1.26-.08,1.9,1.9,0,0,0,1.04-.58c.38-.48.56-1.52.74-3.94.08-.98.12-1.44.16-1.84a13.855,13.855,0,0,1-1.76.08h-5.1a16.133,16.133,0,0,1-2.14-.1v2.46a9.606,9.606,0,0,1,1.72-.1h.36A3.357,3.357,0,0,1,30.2-12a5.223,5.223,0,0,1-1.2.76c0-.52.02-.7.04-1.04a10.222,10.222,0,0,1-1.58.08c.2-.36.56-1.06.86-1.72a4.546,4.546,0,0,1,.44-.82ZM23.22-12.2A15.189,15.189,0,0,0,24-13.64h1.7a9.346,9.346,0,0,1-.62,1.44Zm0,7,.02-1.48h1V-5.2Zm3.72,0h-.98V-6.68h.98Zm0-3.46h-.98v-1.4h.98Zm-2.7-1.4v1.4h-.96v-1.4Zm11.4-3.98a3.153,3.153,0,0,0-.02.38c-.04.3-.06.5-.06.54a3.9,3.9,0,0,1-.12.7c-.08.2-.3.3-.74.3a8.045,8.045,0,0,1-1.3-.12,8.059,8.059,0,0,0,.56-1.8ZM56.5-6.06a19.041,19.041,0,0,1,2.3.12V-8.66a11.755,11.755,0,0,1-1.54.12v-4.04a10.427,10.427,0,0,1,.08-1.56,14.137,14.137,0,0,1-1.9.08H52.4v-.96a9.067,9.067,0,0,1,.12-1.8H49.68a11.708,11.708,0,0,1,.12,1.86v.9H48.46c-.88,0-1.56-.04-2.2-.1v2.62a21.471,21.471,0,0,1,2.2-.1H49.8c0,1.34-.04,2.2-.1,3.1H47.74c-.92,0-1.66-.04-2.3-.1v2.7a18.261,18.261,0,0,1,2.32-.12h1.62a7.288,7.288,0,0,1-1.22,2.68,8.7,8.7,0,0,1-4.02,2.9,9.066,9.066,0,0,1,1.62,2.4C48.78.3,50.44-1.46,51.44-4.12a12.844,12.844,0,0,0,6.14,5.88A11.483,11.483,0,0,1,58.9-.96a10.607,10.607,0,0,1-3.84-2.32,9.186,9.186,0,0,1-2.1-2.78ZM52.26-8.54c.08-1.04.1-1.78.12-3.1h2.36v3.1ZM40.7-14.86a17.968,17.968,0,0,1,3.56,2.82l1.66-2.1a18.47,18.47,0,0,0-3.6-2.62Zm-.66,5.04A22.2,22.2,0,0,1,43.7-7.1l1.5-2.18a20.743,20.743,0,0,0-3.66-2.48ZM42.96-6.3a23.685,23.685,0,0,1-2.08,4.92,8.243,8.243,0,0,1-.8,1.12l2.24,1.98a31.534,31.534,0,0,0,2.74-6.54Z" transform="translate(968 3479)" fill="#6b95c8"/>
    <path id="パス_541" data-name="パス 541" d="M-72.576-7.392c-3.192.252-5.376.336-6.972.336h-1.26l2.184,10.332c3.108-.588,3.108-.588,10.164-1.6C-63.084.924-57.54,0-51.156-1.176a60.58,60.58,0,0,1-.42,8.568H-40.74a60.725,60.725,0,0,1-.5-8.064A27.483,27.483,0,0,1-37.128,6.72C-31,3.7-28.56,2.268-24.528-.84c4.284,2.94,8.064,4.7,17.052,8.064a42.587,42.587,0,0,1,4.872-10c-6.636-1.512-10.668-2.772-14.532-4.7A77.078,77.078,0,0,0-7.98-20.5,31.7,31.7,0,0,1-6.3-23.352l-5.124-5.628a38.224,38.224,0,0,1-6.216.336H-32a50.159,50.159,0,0,1-7.056-.336v9.24a47.523,47.523,0,0,1,6.552-.336h1.848l-7.9,3.36A56.783,56.783,0,0,0-32-7.476a55.944,55.944,0,0,1-9.24,4.452V-31.752h28.728a68.666,68.666,0,0,1,9.324.42v-9.156a63.044,63.044,0,0,1-9.156.42H-71.316a63.044,63.044,0,0,1-9.156-.42v9.156a66.662,66.662,0,0,1,7.9-.42Zm10-24.36h11.424V-28.9H-62.58Zm0,9.492h11.424v3.192H-62.58Zm0,9.828h11.424v2.688c-6.888,1.008-6.888,1.008-11.424,1.512Zm43.428-7.644A41.71,41.71,0,0,1-24.78-13.1a28.71,28.71,0,0,1-4.956-6.972ZM-11.76-61.4a59.438,59.438,0,0,1,.336-7.56,87.492,87.492,0,0,1-8.9.336H-63a88.554,88.554,0,0,1-8.9-.336,60.288,60.288,0,0,1,.336,7.56V-49.98A59.661,59.661,0,0,1-71.9-42.5c2.52-.168,4.7-.252,8.484-.252h44.688c5.46.084,5.46.084,7.308.252a61.148,61.148,0,0,1-.336-7.56Zm-49.392-.252H-22.26v3.108H-61.152Zm0,9.156H-22.26v3.108H-61.152ZM17.64-51.24c-.084,8.232-.084,8.232-.336,12.1H12.1a48.5,48.5,0,0,1-8.82-.5V-28.56a48.645,48.645,0,0,1,8.652-.5h4.284C14.2-18.144,9.744-10.164,2.016-3.7a63.223,63.223,0,0,1,6.972,9.24C15.708-.924,19.74-6.888,22.764-14.868A47.7,47.7,0,0,0,31.836-3.36a49.616,49.616,0,0,1,6.72-9.744,36.4,36.4,0,0,1-7.98-7.644A33.287,33.287,0,0,1,26.124-27.8c.084-.588.168-.756.252-1.26h2.6a62.656,62.656,0,0,1,7.644.336V-39.564a43.179,43.179,0,0,1-7.308.42H27.384c.252-4.2.252-4.2.42-12.1a62.655,62.655,0,0,1,7.644.336V-61.4a46.281,46.281,0,0,1-7.728.42H19.068c.42-1.6.756-2.52,1.008-3.78.672-2.436,1.176-4.2,1.512-5.124l-10.416-1.68A30.253,30.253,0,0,1,10-65.184a49.228,49.228,0,0,1-8.232,17.3,43.522,43.522,0,0,1,8.064,6.972A62.649,62.649,0,0,0,15.456-51.24ZM69.552-5.8a115.135,115.135,0,0,0,5.712-14.448l-10.5-3.7A88.13,88.13,0,0,1,58.884-5.8H43.428c-4.2,0-5.8-.084-8.9-.336V4.788a64.888,64.888,0,0,1,8.9-.42h28.9a63.412,63.412,0,0,1,8.9.42V-6.132a87.491,87.491,0,0,1-8.9.336ZM37.128-57.288c3.024-.252,5.124-.336,8.9-.336H71.064c3.864,0,5.88.084,8.9.336V-68.124a64.147,64.147,0,0,1-8.9.42H46.032a64.888,64.888,0,0,1-8.9-.42ZM76.692-44.352a80.071,80.071,0,0,1,.336-8.4c-2.352.168-5.04.252-8.988.252H47.712c-3.948,0-6.636-.084-8.988-.252a79.051,79.051,0,0,1,.336,8.4V-32a75.994,75.994,0,0,1-.336,8.148c2.436-.168,4.956-.252,8.316-.252H68.628c3.444,0,5.964.084,8.4.252A75.994,75.994,0,0,1,76.692-32ZM49.308-42.84h16.8v8.988h-16.8ZM56.7-10A82.249,82.249,0,0,0,49.9-23.94l-9.408,4.2A62.327,62.327,0,0,1,46.956-5.88Z" transform="translate(968 3443)" fill="#6b95c8"/>
    <g id="グループ_598" data-name="グループ 598" transform="translate(1041.694 3473.715) rotate(-30)">
      <g id="グループ_597" data-name="グループ 597" transform="translate(0 0)" clip-path="url(#clip-path-2)">
        <path id="パス_463" data-name="パス 463" d="M42.529,14.909a1.655,1.655,0,0,1,1.636-1.659h3.271a1.659,1.659,0,0,1,0,3.317H44.164a1.655,1.655,0,0,1-1.636-1.659M26.444,27.748h3.271a1.659,1.659,0,0,0,0-3.317H26.444a1.659,1.659,0,0,0,0,3.317m2.045,9.583a1.6,1.6,0,0,0,1.636,1.6H33.4a1.6,1.6,0,1,0,0-3.194H30.124a1.6,1.6,0,0,0-1.636,1.6M15.676,50.108h3.271a1.722,1.722,0,0,0,0-3.44H15.676a1.722,1.722,0,0,0,0,3.44m16.493,7.863H15.676a1.722,1.722,0,0,0,0,3.44H32.169a1.722,1.722,0,0,0,0-3.44m-27.262,0H1.636a1.722,1.722,0,0,0,0,3.44H4.907a1.722,1.722,0,0,0,0-3.44M114.357,46.44a34.1,34.1,0,0,1-34.081,34.1,34.217,34.217,0,0,1-22.05-8.07H40.06a1.72,1.72,0,1,1,0-3.44H62.428a28.463,28.463,0,0,0,17.848,6.251,28.863,28.863,0,1,0-27.9-36.351H40.893a1.6,1.6,0,1,1,0-3.194h7.049a31.231,31.231,0,0,1,3.847-7.986H36.8a1.659,1.659,0,0,1,0-3.317H54.241c.613-.614,1.259-1.4,1.937-2.083a32.33,32.33,0,0,1,7.716-5.78H54.388a1.659,1.659,0,0,1,0-3.317H72.411a41.577,41.577,0,0,1,7.865-.9,34.333,34.333,0,0,1,7.954.937l1-3.1-4.568-1.47a1.636,1.636,0,0,1-1.056-2.058l1.777-5.519A1.636,1.636,0,0,1,87.44.079l14.066,4.528a1.636,1.636,0,0,1,1.056,2.058c-.007.021-.015.041-.022.061s-.008.033-.013.05l-1.741,5.408a1.634,1.634,0,0,1-2.058,1.056l-4.568-1.47-1,3.1A34.151,34.151,0,0,1,114.357,46.44M98.172,9.625l.774-2.405L87.995,3.694,87.221,6.1ZM37.894,59.691a1.71,1.71,0,0,0,1.636,1.72H55.468a29.608,29.608,0,0,1-4.088-14.743H29.716a1.722,1.722,0,0,0,0,3.44H46.392a35.807,35.807,0,0,0,1.8,7.863H39.53a1.71,1.71,0,0,0-1.636,1.72M29.17,69.029H25.9a1.722,1.722,0,0,0,0,3.44H29.17a1.722,1.722,0,0,0,0-3.44M79.245,28.549a2.634,2.634,0,0,0-2.641,2.59v15.3c0,.008.066.016.066.024,0,.077.036.154.044.23,0,.042.028.082.034.123s.019.085.028.128.025.089.037.134.02.075.031.112.03.085.045.127.026.075.042.112.036.077.054.115.035.077.055.114.042.072.064.108.043.074.067.11.056.077.085.115.043.06.066.089q.081.1.172.19L90.206,60.98a2.585,2.585,0,1,0,3.65-3.663L81.887,45.362V31.139a2.634,2.634,0,0,0-2.641-2.59" transform="translate(0 0)" fill="#fff"/>
      </g>
    </g>
    <g id="グループ_606" data-name="グループ 606" transform="translate(852.037 3543.464) rotate(-150)">
      <g id="グループ_597-2" data-name="グループ 597" transform="translate(0 0)" clip-path="url(#clip-path-2)">
        <path id="パス_463-2" data-name="パス 463" d="M42.529,65.629a1.655,1.655,0,0,0,1.636,1.659h3.271a1.659,1.659,0,0,0,0-3.317H44.164a1.655,1.655,0,0,0-1.636,1.659M26.444,52.791h3.271a1.659,1.659,0,0,1,0,3.317H26.444a1.659,1.659,0,0,1,0-3.317m2.045-9.583a1.6,1.6,0,0,1,1.636-1.6H33.4a1.6,1.6,0,1,1,0,3.194H30.124a1.6,1.6,0,0,1-1.636-1.6M15.676,30.43h3.271a1.722,1.722,0,0,1,0,3.44H15.676a1.722,1.722,0,0,1,0-3.44m16.494-7.863H15.676a1.722,1.722,0,0,1,0-3.44H32.169a1.722,1.722,0,0,1,0,3.44m-27.262,0H1.636a1.722,1.722,0,0,1,0-3.44H4.907a1.722,1.722,0,0,1,0,3.44M114.358,34.1A34.1,34.1,0,0,0,80.277,0a34.217,34.217,0,0,0-22.05,8.07H40.061A1.77,1.77,0,0,0,38.3,9.79a1.77,1.77,0,0,0,1.757,1.72H62.429A28.463,28.463,0,0,1,80.277,5.259a28.863,28.863,0,1,1-27.9,36.351H40.893a1.6,1.6,0,1,0,0,3.194h7.049a31.23,31.23,0,0,0,3.847,7.986H36.8a1.659,1.659,0,0,0,0,3.317H54.241c.613.614,1.259,1.4,1.937,2.083a32.33,32.33,0,0,0,7.716,5.78H54.388a1.659,1.659,0,0,0,0,3.317H72.412a41.577,41.577,0,0,0,7.865.9,34.333,34.333,0,0,0,7.954-.937l1,3.1-4.568,1.47a1.636,1.636,0,0,0-1.056,2.058L85.382,79.4A1.636,1.636,0,0,0,87.44,80.46l14.066-4.528a1.636,1.636,0,0,0,1.056-2.058c-.007-.021-.015-.041-.022-.061s-.008-.033-.013-.05l-1.741-5.408A1.634,1.634,0,0,0,98.727,67.3l-4.568,1.47-1-3.1A34.151,34.151,0,0,0,114.358,34.1M98.173,70.914l.774,2.405L87.995,76.844l-.774-2.405ZM37.894,20.847a1.71,1.71,0,0,1,1.636-1.72H55.469A29.608,29.608,0,0,0,51.381,33.87H29.716a1.722,1.722,0,0,1,0-3.44H46.392a35.807,35.807,0,0,1,1.8-7.863H39.53a1.71,1.71,0,0,1-1.636-1.72M29.17,11.51H25.9a1.722,1.722,0,0,1,0-3.44H29.17a1.722,1.722,0,0,1,0,3.44M79.245,51.989A2.634,2.634,0,0,1,76.6,49.4V34.1c0-.008.066-.016.066-.024,0-.077.036-.154.044-.23,0-.042.028-.082.034-.123s.019-.085.028-.128.025-.089.037-.134.02-.075.031-.112.03-.085.045-.127.026-.075.042-.112.036-.077.054-.115.035-.077.055-.114.042-.072.064-.108.043-.074.067-.11.056-.077.085-.115.043-.06.066-.089q.081-.1.172-.19L90.206,19.558a2.585,2.585,0,1,1,3.65,3.663L81.887,35.177V49.4a2.634,2.634,0,0,1-2.641,2.59" transform="translate(0 0)" fill="#fff"/>
      </g>
    </g>
  </g>
</svg>
