<svg xmlns="http://www.w3.org/2000/svg" xmlns:xlink="http://www.w3.org/1999/xlink" width="140" height="140" viewBox="0 0 140 140">
  <defs>
    <clipPath id="clip-path">
      <rect id="長方形_15" data-name="長方形 15" width="140" height="140" fill="none"/>
    </clipPath>
  </defs>
  <g id="グループ_690" data-name="グループ 690" transform="translate(-650.471 -625.5)">
    <g id="グループ_682" data-name="グループ 682" transform="translate(650.471 625.5)">
      <g id="グループ_10" data-name="グループ 10" clip-path="url(#clip-path)">
        <path id="パス_12" data-name="パス 12" d="M130.46,86.2C131.924,80.727,140,75.933,140,70s-8.076-10.727-9.54-16.2c-1.517-5.663,3.038-13.846.169-18.8-2.911-5.033-12.3-5.16-16.381-9.243s-4.21-13.47-9.243-16.382c-4.959-2.868-13.141,1.687-18.8.17C80.728,8.076,75.934,0,70,0S59.272,8.076,53.8,9.54C48.135,11.056,39.953,6.5,35,9.37c-5.033,2.912-5.16,12.3-9.244,16.382s-13.469,4.21-16.381,9.243C6.5,39.952,11.056,48.135,9.54,53.8,8.076,59.272,0,64.066,0,70S8.076,80.727,9.54,86.2c1.517,5.663-3.038,13.846-.169,18.8,2.912,5.033,12.3,5.16,16.381,9.244S29.963,127.718,35,130.629c4.958,2.869,13.14-1.687,18.8-.17C59.272,131.923,64.066,140,70,140s10.728-8.077,16.2-9.541c5.663-1.517,13.846,3.039,18.8.17,5.033-2.912,5.16-12.3,9.243-16.381s13.47-4.211,16.381-9.244c2.869-4.958-1.686-13.141-.169-18.8" transform="translate(0 0)" fill="#ffda00"/>
        <path id="パス_13" data-name="パス 13" d="M70.664,136.276c-1.439,0-3.187-1.268-6.326-3.933-2.515-2.137-5.362-4.554-8.742-5.458a14.675,14.675,0,0,0-3.83-.466,38.365,38.365,0,0,0-6.741.8,31.341,31.341,0,0,1-5.133.658,4.283,4.283,0,0,1-2.019-.371c-1.2-.692-2.057-2.633-3.426-6.456-1.127-3.149-2.405-6.715-4.929-9.24s-6.092-3.8-9.239-4.928c-3.824-1.371-5.763-2.23-6.446-3.409-.656-1.133-.433-3.212.276-7.163.6-3.32,1.271-7.082.334-10.58-.9-3.376-3.321-6.223-5.454-8.735-2.667-3.142-3.937-4.89-3.937-6.331s1.27-3.19,3.938-6.331c2.133-2.512,4.55-5.359,5.453-8.736.936-3.5.261-7.258-.334-10.576-.71-3.952-.932-6.032-.276-7.164.683-1.181,2.623-2.04,6.447-3.409,3.148-1.127,6.714-2.405,9.238-4.929s3.8-6.092,4.929-9.238c1.369-3.824,2.229-5.764,3.408-6.448a4.229,4.229,0,0,1,2.037-.38,31.415,31.415,0,0,1,5.118.656,38.419,38.419,0,0,0,6.756.8,14.657,14.657,0,0,0,3.832-.467c3.376-.9,6.223-3.321,8.735-5.453,3.141-2.668,4.889-3.937,6.33-3.937s3.189,1.269,6.33,3.936c2.514,2.134,5.36,4.552,8.738,5.456a14.682,14.682,0,0,0,3.831.466,38.4,38.4,0,0,0,6.745-.8,31.52,31.52,0,0,1,5.128-.658,4.224,4.224,0,0,1,2.038.381c1.179.682,2.038,2.621,3.407,6.442,1.128,3.151,2.406,6.719,4.93,9.243s6.092,3.8,9.238,4.928c3.825,1.37,5.766,2.229,6.449,3.409.656,1.134.433,3.213-.276,7.162-.6,3.319-1.272,7.08-.334,10.58.9,3.375,3.32,6.223,5.452,8.734,2.669,3.142,3.939,4.891,3.939,6.332s-1.27,3.19-3.938,6.33c-2.132,2.513-4.55,5.359-5.453,8.736-.937,3.5-.261,7.261.334,10.58.709,3.95.931,6.029.276,7.161-.683,1.18-2.621,2.039-6.442,3.408-3.152,1.128-6.72,2.405-9.245,4.929s-3.8,6.092-4.928,9.238c-1.369,3.825-2.229,5.766-3.409,6.449a4.228,4.228,0,0,1-2.036.38,31.331,31.331,0,0,1-5.126-.657,38.368,38.368,0,0,0-6.749-.8,14.617,14.617,0,0,0-3.831.468c-3.377.9-6.224,3.32-8.735,5.452-3.143,2.668-4.89,3.937-6.331,3.937m-18.9-12.783a17.508,17.508,0,0,1,4.586.566c4.015,1.074,7.128,3.718,9.874,6.051.984.836,3.555,3.018,4.437,3.234.883-.216,3.455-2.4,4.436-3.233,2.748-2.334,5.861-4.978,9.873-6.051a17.527,17.527,0,0,1,4.588-.567,40.613,40.613,0,0,1,7.259.846,29.764,29.764,0,0,0,4.616.612,4.216,4.216,0,0,0,.595-.035,26.215,26.215,0,0,0,2.1-4.854c1.232-3.438,2.626-7.333,5.615-10.322s6.885-4.384,10.322-5.614a25.266,25.266,0,0,0,4.876-2.118,26.856,26.856,0,0,0-.6-5.183c-.65-3.619-1.387-7.722-.281-11.851,1.074-4.014,3.718-7.127,6.05-9.874.834-.98,3.019-3.554,3.235-4.437-.215-.883-2.4-3.457-3.235-4.437-2.333-2.748-4.976-5.861-6.049-9.873-1.107-4.131-.369-8.233.281-11.854a26.841,26.841,0,0,0,.6-5.183,25.361,25.361,0,0,0-4.876-2.117c-3.439-1.231-7.334-2.626-10.322-5.615s-4.384-6.884-5.615-10.321a26.136,26.136,0,0,0-2.1-4.853,4.038,4.038,0,0,0-.6-.036,29.83,29.83,0,0,0-4.6.609,40.65,40.65,0,0,1-7.273.849,17.525,17.525,0,0,1-4.587-.566c-4.013-1.074-7.127-3.718-9.873-6.05-.982-.834-3.555-3.018-4.438-3.235-.882.215-3.456,2.4-4.437,3.235-2.747,2.332-5.86,4.976-9.872,6.049a17.5,17.5,0,0,1-4.589.567,40.581,40.581,0,0,1-7.266-.848,29.823,29.823,0,0,0-4.608-.611,4.048,4.048,0,0,0-.595.036,26.1,26.1,0,0,0-2.1,4.853C35.97,24.7,34.575,28.6,31.587,31.586S24.7,35.97,21.267,37.2a25.254,25.254,0,0,0-4.878,2.118,26.84,26.84,0,0,0,.6,5.183c.65,3.621,1.386,7.724.281,11.851-1.074,4.013-3.717,7.126-6.049,9.873-.834.982-3.02,3.555-3.236,4.439.215.883,2.4,3.457,3.234,4.437,2.333,2.747,4.977,5.86,6.05,9.873,1.106,4.129.369,8.232-.281,11.85a26.9,26.9,0,0,0-.6,5.186,25.208,25.208,0,0,0,4.872,2.116c3.441,1.232,7.336,2.627,10.326,5.616s4.383,6.884,5.614,10.321a26.132,26.132,0,0,0,2.1,4.854,4.169,4.169,0,0,0,.595.036,29.743,29.743,0,0,0,4.608-.611,40.625,40.625,0,0,1,7.266-.848" transform="translate(-0.664 -0.664)" fill="#fff"/>
      </g>
    </g>
    <path id="パス_530" data-name="パス 530" d="M20.976-4.56a.823.823,0,0,0,.864-.888.847.847,0,0,0-.888-.912L13.1-6.312l.024-1.056,5.376.024a.774.774,0,0,0,.816-.792.779.779,0,0,0-.816-.816l-5.352.024V-9.96l6.576.024a.836.836,0,0,0,.888-.864.842.842,0,0,0-.888-.888l-4.176.024a4.809,4.809,0,0,0,.432-1.176.928.928,0,0,0-.6-.792l5.784.024a.949.949,0,0,0,.984-1.008.924.924,0,0,0-.96-.984h-.024l-3.264.048c1.152-1.464,1.152-1.944,1.152-2.016a1.214,1.214,0,0,0-1.248-1.08,1.051,1.051,0,0,0-1.008.72,14,14,0,0,1-1.2,2.4l-.816.024.048-3.192v-.024a.989.989,0,0,0-1.056-.984A1,1,0,0,0,12.7-18.7V-15.5H11.3V-18.7a1.013,1.013,0,0,0-1.08-1.008.974.974,0,0,0-1.056.984v.024L9.192-15.5l-.84-.024a7.552,7.552,0,0,0-1.944-2.88.911.911,0,0,0-.552-.144c-.576,0-1.2.456-1.2.96a.778.778,0,0,0,.216.5A9.45,9.45,0,0,1,6.12-15.552L2.976-15.6H2.952a.944.944,0,0,0-.984.984.968.968,0,0,0,1.008,1.008l5.5-.024a.732.732,0,0,0-.6.624.542.542,0,0,0,.12.36,6.272,6.272,0,0,1,.48.984l-4.2-.024a.857.857,0,0,0-.912.864.862.862,0,0,0,.912.888L10.9-9.96v1.032L5.5-8.952a.788.788,0,0,0-.816.792.793.793,0,0,0,.816.816l5.424-.024.024,1.056L3.1-6.36a.881.881,0,0,0-.912.912.842.842,0,0,0,.888.888H3.1l5.832-.12H9.72A23.959,23.959,0,0,1,2.256-.816c-.576.216-.84.576-.84.96A1.16,1.16,0,0,0,2.64,1.224c.768,0,5.328-2.064,8.3-4.464L10.9.864V.888c0,.624.552.912,1.128.912A1.014,1.014,0,0,0,13.152.888V.864L13.1-3.264a25.892,25.892,0,0,0,8.3,4.392A1.337,1.337,0,0,0,22.68-.192a.966.966,0,0,0-.744-.936A27.534,27.534,0,0,1,14.184-4.68h.72l6.048.12Zm-6.864-9.072a.591.591,0,0,0-.24.408,6.972,6.972,0,0,1-.5,1.56h-2.64l-.024-.072a2.766,2.766,0,0,0-1.224-1.9ZM35.016.528a1.156,1.156,0,0,0,2.3,0v-6.84a1.384,1.384,0,0,0-.072-.336c2.256,1.7,4.944,3.24,5.736,3.24a1.348,1.348,0,0,0,1.344-1.3,1.073,1.073,0,0,0-.72-1.008,27.926,27.926,0,0,1-7.368-4.2c.624.024,1.248.024,1.8.024h.648A2.476,2.476,0,0,0,41.3-12.144c.048-.72.072-1.7.072-2.64,0-.816-.024-1.608-.072-2.184a2.393,2.393,0,0,0-2.472-1.992c-1.536-.024-3.84-.048-5.976-.048-1.776,0-3.408.024-4.416.048-1.872.048-2.544,1.128-2.592,2.16-.024.648-.048,1.44-.048,2.256,0,.84.024,1.68.048,2.424.072,2.208,2.328,2.232,3.288,2.232.528,0,1.2,0,1.872-.024a24.5,24.5,0,0,1-7.344,4.584A1.086,1.086,0,0,0,22.92-4.32a1.127,1.127,0,0,0,1.152,1.1c.864,0,4.152-2.04,5.592-3.072l-.024.072c-.1,2.928-1.368,5.256-5.568,5.832A.947.947,0,0,0,23.3.624a1.094,1.094,0,0,0,1.1,1.152.984.984,0,0,0,.264-.024c6.144-1.032,7.32-5.184,7.32-7.992a1.063,1.063,0,0,0-1.008-1.08,24.278,24.278,0,0,0,2.664-2.568,30.143,30.143,0,0,0,2.736,2.544c-.072,0-.144-.024-.216-.024a1.071,1.071,0,0,0-1.152,1.056ZM34.608-15.36v-1.9c1.32,0,2.544.024,3.336.048.816.024,1.152.36,1.176.96,0,.264.024.552.024.888Zm4.536,1.728c0,1.1,0,1.944-1.176,1.944-.936.024-2.136.048-3.36.048v-1.992ZM32.472-15.36h-4.56c0-.984.048-1.8,1.224-1.848.816-.024,2.016-.048,3.336-.048Zm0,3.72c-1.248,0-2.424-.024-3.312-.048-1.152-.048-1.248-.7-1.248-1.944h4.56Z" transform="translate(696.054 676.087)" fill="#595857"/>
    <path id="パス_529" data-name="パス 529" d="M20.76-3.1v.168c0,1.7-.456,1.992-1.824,1.992-1.008,0-1.128-.336-1.152-.936,0-.36.024-2.856.048-5.76a.973.973,0,0,0,.216.12A9.767,9.767,0,0,1,20.52-5.88a1.091,1.091,0,0,0,.744.336A1.154,1.154,0,0,0,22.3-6.768a1.3,1.3,0,0,0-.5-1.032A8.032,8.032,0,0,0,18.5-9.384a1.092,1.092,0,0,0-.672.24l.024-2.112a.789.789,0,0,0,.408.1A10.64,10.64,0,0,0,21.84-13.3a1.179,1.179,0,0,0,.408-.888,1.235,1.235,0,0,0-1.1-1.248,1,1,0,0,0-.768.36,12.711,12.711,0,0,1-2.52,2.04c.024-2.592.024-4.728.024-5.112a1.012,1.012,0,0,0-1.056-1.032,1.013,1.013,0,0,0-1.056.984c-.048.744-.072,15.6-.072,16.56,0,1.92.72,2.76,3.216,2.76,1.752,0,3.936-.1,3.936-4.1V-3.1A1.053,1.053,0,0,0,21.72-4.08a.9.9,0,0,0-.96.96ZM12.336-9.072A11.049,11.049,0,0,1,9-7.152a1.01,1.01,0,0,0-.7.984,1.074,1.074,0,0,0,1.056,1.1c.144,0,.936,0,2.832-1.656A7.9,7.9,0,0,1,8.5-.672,1.1,1.1,0,0,0,7.968.24,1.127,1.127,0,0,0,9.1,1.368c.936,0,5.28-2.592,5.28-10.56,0-1.824.072-5.088.072-7.392,0-.576-.024-1.1-.024-1.512A1.1,1.1,0,0,0,13.3-19.2a1.013,1.013,0,0,0-1.056,1.032v.048c.024,1.176.048,3.072.072,4.9-.12-.144-1.272-1.68-2.064-1.68a1.092,1.092,0,0,0-1.08.96.842.842,0,0,0,.264.6A9.65,9.65,0,0,1,10.9-11.5a.9.9,0,0,0,.768.48,1.031,1.031,0,0,0,.672-.264ZM4.608-1.608c0,.624-.48.792-.984.792a3.731,3.731,0,0,1-.768-.1A.664.664,0,0,0,2.64-.936,1.01,1.01,0,0,0,1.7.168c0,.936.648,1.3,2.16,1.3,2.064,0,3.048-1.176,3.048-2.688v-.1c-.024-.84-.1-3.024-.1-3.408V-7.32c2.664-1.176,3-1.344,3-2.064a.976.976,0,0,0-.912-.984.914.914,0,0,0-.408.1c-.528.264-1.056.5-1.656.744v-3.144H8.088a1,1,0,0,0,1.056-1.056,1,1,0,0,0-1.056-1.056H6.84v-3.744a1.062,1.062,0,0,0-1.1-1.128,1.1,1.1,0,0,0-1.152,1.128l.024,3.744H2.592a1.019,1.019,0,0,0-1.056,1.056,1.019,1.019,0,0,0,1.056,1.056H4.608v3.96c-.864.288-1.728.552-2.592.816a1.051,1.051,0,0,0-.792,1.032A1.121,1.121,0,0,0,2.376-5.712a8.472,8.472,0,0,0,2.232-.72ZM42.072-14.3a1.121,1.121,0,0,0,1.056-1.08,1.091,1.091,0,0,0-.384-.816c-.024-.024-2.064-1.68-2.928-1.68a.942.942,0,0,0-.96.936.888.888,0,0,0,.5.792,8.09,8.09,0,0,1,1.92,1.464A1.082,1.082,0,0,0,42.072-14.3Zm.84,2.544a1.018,1.018,0,0,0,.96-1.032.932.932,0,0,0-.96-.96h-.168l-4.2.5v-.744c0-1.56.048-3.1.1-4.464V-18.5a1.068,1.068,0,0,0-1.128-1.128,1.115,1.115,0,0,0-1.176,1.1c0,1.824.024,3.7.072,5.544l-1.3.144a1.082,1.082,0,0,0-.984,1.08.906.906,0,0,0,.984.936c.048,0,.12-.024.192-.024l1.176-.144a29.914,29.914,0,0,0,1.176,7.224A12.356,12.356,0,0,1,32.3-.48a1,1,0,0,0-.768.96,1.123,1.123,0,0,0,1.152,1.08,12.668,12.668,0,0,0,5.76-3.312c.792,1.656,1.632,2.9,3.192,2.9,2.64,0,3.288-3.576,3.288-3.96a1.146,1.146,0,0,0-1.2-1.152.977.977,0,0,0-1.008.816c-.24,1.32-.576,1.9-.984,1.9-.6,0-1.32-1.416-1.7-2.28A15.521,15.521,0,0,0,42.816-9.48a1.134,1.134,0,0,0-1.224-1.032,1,1,0,0,0-1.032.792A13.2,13.2,0,0,1,39.264-6a32.14,32.14,0,0,1-.648-5.232ZM28.584-15.12a1.116,1.116,0,0,0,1.128-1.152c0-.888-.888-3-1.992-3a.942.942,0,0,0-1.008.816.832.832,0,0,0,.168.48,4.331,4.331,0,0,1,.84,2.088A.835.835,0,0,0,28.584-15.12ZM26.592-15.7c0-.792-1.344-3.072-2.448-3.072a1.037,1.037,0,0,0-1.08.888.711.711,0,0,0,.264.552,4.5,4.5,0,0,1,1.224,2.016.88.88,0,0,0,.888.672A1.116,1.116,0,0,0,26.592-15.7ZM34.128-2.52a.912.912,0,0,0,.936-.96.936.936,0,0,0-.96-.984l-4.248.024V-5.9c.552,0,1.1-.024,1.632-.048a2.364,2.364,0,0,0,2.424-2.184c.024-.552.048-1.344.048-2.136s-.024-1.584-.048-2.112A2.22,2.22,0,0,0,31.9-14.3a16.338,16.338,0,0,0,1.92-3.744c0-.6-.7-1.032-1.3-1.032a.828.828,0,0,0-.84.528,25.216,25.216,0,0,1-2.016,4.176c-1.224,0-2.448.024-3.528.048a2.149,2.149,0,0,0-2.4,2.112c-.024.6-.024,1.464-.024,2.328,0,.648,0,1.272.024,1.776C23.832-5.9,25.848-5.9,27.768-5.9V-4.44l-3.984-.024a.957.957,0,0,0-.984.984.918.918,0,0,0,.96.96h.024l3.984-.072V.7A.987.987,0,0,0,28.8,1.752,1.019,1.019,0,0,0,29.856.7V-2.592L34.1-2.52ZM32.04-10.992H29.76v-1.7c1.68,0,2.256.144,2.28,1.032Zm0,2.328c-.024.792-.264,1.08-2.28,1.08V-9.336h2.28Zm-4.176-2.328H25.608c0-.24.024-.456.024-.648.072-.96.72-1.056,2.232-1.056Zm0,3.408c-2.232,0-2.256-.24-2.256-1.752h2.256Z" transform="translate(698.285 738.543)" fill="#595857"/>
    <path id="パス_528" data-name="パス 528" d="M-32.46-15.81c3.131-.093,3.162-2.108,3.162-4.836,0-1.86-.062-4.123-2.945-4.216-1.612-.062-4.061-.093-6.386-.093-2.015,0-3.906.031-5.146.093-3.007.124-3.255,1.612-3.255,4.464,0,2.914.155,4.557,3.348,4.588,1.953.031,4,.062,6.076.062C-35.9-15.748-34.2-15.779-32.46-15.81Zm-4.557,7.6c1.922-.031,3.441-.062,4.9-.062h.992a.424.424,0,0,1,.465.4,9.738,9.738,0,0,1-1.736,3.5,11.682,11.682,0,0,1-2.294-3.1.916.916,0,0,0-.837-.5,1.458,1.458,0,0,0-1.488,1.24c0,.62,1.271,2.573,2.821,4.123A11.679,11.679,0,0,1-37.3-.93,1.184,1.184,0,0,0-38.164.217,1.375,1.375,0,0,0-36.8,1.581,10.487,10.487,0,0,0-32.274-.9c1.581,1.178,4.309,2.635,5.611,2.635A1.527,1.527,0,0,0-25.113.217a1.293,1.293,0,0,0-1.023-1.24,14.558,14.558,0,0,1-4.278-1.8c.155-.186,2.79-3.534,2.79-5.766A1.872,1.872,0,0,0-29.7-10.571c-1.271-.062-2.48-.062-3.658-.062-1.209,0-2.418,0-3.689.031A1.128,1.128,0,0,0-38.1-9.362a1.065,1.065,0,0,0,1.054,1.147Zm11-3.813a1.178,1.178,0,0,0,1.209-1.24,1.178,1.178,0,0,0-1.209-1.24H-50.626a1.243,1.243,0,0,0-1.271,1.3,1.164,1.164,0,0,0,1.271,1.178h2.821V-2.48c-1.023.217-2.015.434-2.914.558A1.255,1.255,0,0,0-51.835-.651a1.269,1.269,0,0,0,1.3,1.3c1.209,0,6.913-1.767,9.3-2.542V.868a1.217,1.217,0,0,0,1.271,1.271A1.2,1.2,0,0,0-38.691.868v-12.9ZM-44.3-21.235v-.341c0-.62.31-1.116,1.364-1.147,1.023-.031,3.038-.062,5.084-.062,1.674,0,3.348.031,4.5.062.961.031,1.209.31,1.271,1.054,0,.124.031.279.031.434Zm12.245,1.922c0,.155-.031.31-.031.465-.031.744-.527,1.023-1.271,1.023-1.333.031-2.79.031-4.216.031-1.922,0-3.844,0-5.332-.031-.961,0-1.333-.186-1.4-.992,0-.155-.031-.31-.031-.5Zm-9.176,8.835h-4.03v-1.55h4.03Zm0,3.379h-4.03V-8.618h4.03Zm0,2.945c-1.085.31-2.542.682-4.03,1.054V-5.208h4.03ZM-8.807-24.118a1.451,1.451,0,0,0-1.581-1.4A1.462,1.462,0,0,0-12-24.118v2.263c-2.356,0-4.681.031-7.006.062-2.387.031-3.5,1.55-3.565,3.069,0,.5-.031.961-.031,1.395,0,.4.031.806.031,1.209a1.453,1.453,0,0,0,1.55,1.457,1.444,1.444,0,0,0,1.55-1.4v-1.488c.093-1.147.31-1.643,1.984-1.674,1.86-.031,4-.062,6.169-.062,2.666,0,5.394.031,7.812.062,1.829.031,1.891.434,1.891,3.131v.062a1.4,1.4,0,0,0,1.55,1.333c1.643,0,1.7-1.24,1.7-2.387,0-.5,0-1.023-.031-1.488a3.552,3.552,0,0,0-3.472-3.224c-2.325-.031-4.65-.062-6.944-.062ZM1.082-11.067A1.292,1.292,0,0,0,2.446-12.4a1.286,1.286,0,0,0-1.364-1.3h-12.8c.434-1.457.868-3.224.868-3.41a1.41,1.41,0,0,0-1.55-1.271,1.49,1.49,0,0,0-1.55,1.147c-.248,1.178-.558,2.356-.9,3.534h-7.13a1.259,1.259,0,0,0-1.333,1.3,1.267,1.267,0,0,0,1.333,1.333h6.293a45.058,45.058,0,0,1-2.48,5.921,1.74,1.74,0,0,0-.186.713c0,.744.682,1.178,1.457,1.178,1.3,0,1.674-.837,2.17-2.046a24.306,24.306,0,0,1,4.185.992c-2.48,2.48-6.324,3.441-10.974,3.441A1.43,1.43,0,0,0-23.129.5a1.586,1.586,0,0,0,1.736,1.55c3.317,0,9.858-.775,13.671-5.177A20.731,20.731,0,0,1-2.111,1.054a1.635,1.635,0,0,0,1.178.527A1.73,1.73,0,0,0,.772-.062c0-1.488-3.906-4-6.944-5.332A16.473,16.473,0,0,0-4.4-11.067Zm-8.618,0A12.884,12.884,0,0,1-8.931-6.479,27.043,27.043,0,0,0-13.8-7.626c.434-1.147.9-2.294,1.271-3.441Zm37.2-8.215A1.229,1.229,0,0,0,31-20.522a1.229,1.229,0,0,0-1.333-1.24H23.9l.186-2.294v-.124a1.308,1.308,0,0,0-1.426-1.24,1.476,1.476,0,0,0-1.581,1.333l-.186,2.325H13.885a1.257,1.257,0,0,0-1.364,1.24,1.257,1.257,0,0,0,1.364,1.24h6.82l-.124,1.55c-.217,0-.4.031-.589.031A2.227,2.227,0,0,0,17.7-15.345c-.031,1.271-.031,2.6-.031,3.968,0,1.829,0,3.751.031,5.673a2.434,2.434,0,0,0,2.356,2.542c.62.062,1.612.093,2.635.093,1.209,0,2.449-.031,3.224-.093a2.455,2.455,0,0,0,2.6-2.542c.031-1.767.062-3.5.062-5.27,0-1.457-.031-2.945-.062-4.5A2.437,2.437,0,0,0,26.006-17.7c-.62-.031-1.519-.062-2.449-.062l.124-1.519Zm-14.105,3.72a1.34,1.34,0,0,0-1.4-1.426,1.412,1.412,0,0,0-1.457,1.457c0,1.612-.031,4.092-.031,6.572s.031,4.96.031,6.541a3.221,3.221,0,0,0,3.379,3.5c1.891.062,4.061.093,6.262.093,2.573,0,5.177-.031,7.5-.093a1.341,1.341,0,0,0,1.364-1.4,1.259,1.259,0,0,0-1.3-1.333H29.85c-2.139.093-4.464.124-6.665.124-2.418,0-4.712-.031-6.479-.124a1.111,1.111,0,0,1-1.147-1.271c-.031-1.4-.031-3.813-.031-6.262s0-4.9.031-6.355ZM7.158.868A1.349,1.349,0,0,0,8.584,2.232,1.462,1.462,0,0,0,10.134.837l.4-19.716q1.116-2.046,2.139-4.185a1.655,1.655,0,0,0,.155-.62,1.724,1.724,0,0,0-1.736-1.55,1.332,1.332,0,0,0-1.3.93A28.972,28.972,0,0,1,3.686-14.043a1.475,1.475,0,0,0-.434.992A1.446,1.446,0,0,0,4.74-11.687,1.811,1.811,0,0,0,6.135-12.4q.7-.837,1.4-1.767l-.372,15ZM20.3-13.547c0-.465.031-.9.031-1.3s.186-.806.713-.806c.5-.031,1.271-.031,2.015-.031.775,0,1.519,0,1.953.031.837,0,.837.744.837,2.108Zm5.611,3.968H20.271V-11.5h5.642Zm-.062,2.015c0,1.891-.093,2.2-.93,2.232-.465,0-1.178.031-1.891.031-2.635,0-2.7-.093-2.7-.837,0-.465-.031-.93-.031-1.426Zm22.431-4.244a1.174,1.174,0,1,0,.408-2.3,14.488,14.488,0,0,0-6.312.144,1.13,1.13,0,1,0,.336,2.232A12.158,12.158,0,0,1,48.282-11.808Zm1.3,10.944c1.584-.408,1.464-2.952-.48-2.544-1.872.384-4.752.768-6.048-.408a1.188,1.188,0,0,0-1.7,1.656C43.074-.288,47.01-.216,49.578-.864ZM36.882.288c.6-.528.312-1.272.456-1.92a12.1,12.1,0,0,1,1.416-3.36.962.962,0,0,0-1.68-.936c-.1.168-.36.648-.408.768-.1.216-.192.288-.264-.024-.576-2.232.864-7.872,1.248-9.816a1.167,1.167,0,1,0-2.328-.144c-.432,2.856-2.328,9.96-.408,14.688C35.394.72,36.282.816,36.882.288Z" transform="translate(721.057 706.624)" fill="#595857"/>
  </g>
</svg>
