<svg xmlns="http://www.w3.org/2000/svg" xmlns:xlink="http://www.w3.org/1999/xlink" width="140" height="140" viewBox="0 0 140 140">
  <defs>
    <clipPath id="clip-path">
      <rect id="長方形_15" data-name="長方形 15" width="140" height="140" fill="none"/>
    </clipPath>
  </defs>
  <g id="グループ_688" data-name="グループ 688" transform="translate(-293.668 -625.5)">
    <g id="グループ_683" data-name="グループ 683" transform="translate(293.668 625.5)">
      <g id="グループ_10" data-name="グループ 10" clip-path="url(#clip-path)">
        <path id="パス_12" data-name="パス 12" d="M130.46,86.2C131.924,80.727,140,75.933,140,70s-8.076-10.727-9.54-16.2c-1.517-5.663,3.038-13.846.169-18.8-2.911-5.033-12.3-5.16-16.381-9.243s-4.21-13.47-9.243-16.382c-4.959-2.868-13.141,1.687-18.8.17C80.728,8.076,75.934,0,70,0S59.272,8.076,53.8,9.54C48.135,11.056,39.953,6.5,35,9.37c-5.033,2.912-5.16,12.3-9.244,16.382s-13.469,4.21-16.381,9.243C6.5,39.952,11.056,48.135,9.54,53.8,8.076,59.272,0,64.066,0,70S8.076,80.727,9.54,86.2c1.517,5.663-3.038,13.846-.169,18.8,2.912,5.033,12.3,5.16,16.381,9.244S29.963,127.718,35,130.629c4.958,2.869,13.14-1.687,18.8-.17C59.272,131.923,64.066,140,70,140s10.728-8.077,16.2-9.541c5.663-1.517,13.846,3.039,18.8.17,5.033-2.912,5.16-12.3,9.243-16.381s13.47-4.211,16.381-9.244c2.869-4.958-1.686-13.141-.169-18.8" transform="translate(0 0)" fill="#ffda00"/>
        <path id="パス_13" data-name="パス 13" d="M70.664,136.276c-1.439,0-3.187-1.268-6.326-3.933-2.515-2.137-5.362-4.554-8.742-5.458a14.675,14.675,0,0,0-3.83-.466,38.365,38.365,0,0,0-6.741.8,31.342,31.342,0,0,1-5.133.658,4.283,4.283,0,0,1-2.02-.371c-1.2-.692-2.057-2.633-3.426-6.456-1.127-3.149-2.405-6.715-4.929-9.24s-6.092-3.8-9.239-4.928c-3.824-1.371-5.763-2.23-6.446-3.409-.656-1.133-.433-3.212.276-7.163.6-3.32,1.271-7.082.334-10.58-.9-3.376-3.321-6.223-5.454-8.735-2.667-3.142-3.937-4.89-3.937-6.331s1.27-3.19,3.938-6.331c2.133-2.512,4.55-5.359,5.453-8.736.936-3.5.261-7.258-.334-10.576-.71-3.952-.932-6.032-.276-7.164.683-1.181,2.623-2.04,6.447-3.409,3.148-1.127,6.714-2.405,9.238-4.929s3.8-6.092,4.929-9.238c1.369-3.824,2.229-5.764,3.408-6.448a4.229,4.229,0,0,1,2.037-.38,31.415,31.415,0,0,1,5.118.656,38.418,38.418,0,0,0,6.756.8,14.657,14.657,0,0,0,3.832-.467c3.376-.9,6.223-3.321,8.735-5.453,3.141-2.668,4.889-3.937,6.33-3.937s3.189,1.269,6.33,3.936c2.514,2.134,5.36,4.552,8.738,5.456a14.682,14.682,0,0,0,3.831.466,38.4,38.4,0,0,0,6.745-.8,31.52,31.52,0,0,1,5.128-.658,4.224,4.224,0,0,1,2.038.381c1.179.682,2.038,2.621,3.407,6.442,1.128,3.151,2.406,6.719,4.93,9.243s6.092,3.8,9.238,4.928c3.825,1.37,5.766,2.229,6.449,3.409.656,1.134.433,3.213-.276,7.162-.6,3.319-1.272,7.08-.334,10.58.9,3.375,3.32,6.223,5.452,8.734,2.669,3.142,3.939,4.891,3.939,6.332s-1.27,3.19-3.938,6.33c-2.132,2.513-4.55,5.359-5.453,8.736-.937,3.5-.261,7.261.334,10.58.709,3.95.931,6.029.276,7.161-.683,1.18-2.621,2.039-6.442,3.408-3.152,1.128-6.72,2.405-9.245,4.929s-3.8,6.092-4.928,9.238c-1.369,3.825-2.229,5.766-3.409,6.449a4.228,4.228,0,0,1-2.036.38,31.33,31.33,0,0,1-5.126-.657,38.37,38.37,0,0,0-6.749-.8,14.617,14.617,0,0,0-3.831.468c-3.377.9-6.224,3.32-8.735,5.452-3.143,2.668-4.89,3.937-6.331,3.937m-18.9-12.783a17.509,17.509,0,0,1,4.586.566c4.015,1.074,7.128,3.718,9.874,6.051.984.836,3.555,3.018,4.437,3.234.883-.216,3.455-2.4,4.436-3.233,2.748-2.334,5.861-4.978,9.873-6.051a17.527,17.527,0,0,1,4.588-.567,40.613,40.613,0,0,1,7.259.846,29.763,29.763,0,0,0,4.616.612,4.216,4.216,0,0,0,.595-.035,26.216,26.216,0,0,0,2.1-4.854c1.232-3.438,2.626-7.333,5.615-10.322s6.885-4.384,10.322-5.614a25.266,25.266,0,0,0,4.876-2.118,26.856,26.856,0,0,0-.6-5.183c-.65-3.619-1.387-7.722-.281-11.851,1.074-4.014,3.718-7.127,6.05-9.874.834-.98,3.019-3.554,3.235-4.437-.215-.883-2.4-3.457-3.235-4.437-2.333-2.748-4.976-5.861-6.049-9.873-1.107-4.131-.369-8.233.281-11.854a26.84,26.84,0,0,0,.6-5.183,25.36,25.36,0,0,0-4.876-2.117c-3.439-1.231-7.334-2.626-10.322-5.615s-4.384-6.884-5.615-10.321a26.136,26.136,0,0,0-2.1-4.853,4.039,4.039,0,0,0-.6-.036,29.83,29.83,0,0,0-4.6.609,40.65,40.65,0,0,1-7.273.849,17.525,17.525,0,0,1-4.587-.566c-4.013-1.074-7.127-3.718-9.873-6.05-.982-.834-3.555-3.018-4.438-3.235-.882.215-3.456,2.4-4.437,3.235-2.747,2.332-5.86,4.976-9.872,6.049a17.5,17.5,0,0,1-4.589.567,40.582,40.582,0,0,1-7.266-.848,29.823,29.823,0,0,0-4.608-.611,4.049,4.049,0,0,0-.595.036,26.1,26.1,0,0,0-2.1,4.853C35.97,24.7,34.575,28.6,31.587,31.586S24.7,35.97,21.267,37.2a25.254,25.254,0,0,0-4.878,2.118,26.84,26.84,0,0,0,.6,5.183c.65,3.621,1.386,7.724.281,11.851-1.074,4.013-3.717,7.126-6.049,9.873-.834.982-3.02,3.555-3.236,4.439.215.883,2.4,3.457,3.234,4.437,2.333,2.747,4.977,5.86,6.05,9.873,1.106,4.129.369,8.232-.281,11.85a26.9,26.9,0,0,0-.6,5.186,25.208,25.208,0,0,0,4.872,2.116c3.441,1.232,7.336,2.627,10.326,5.616s4.383,6.884,5.614,10.321a26.132,26.132,0,0,0,2.1,4.854,4.169,4.169,0,0,0,.595.036,29.743,29.743,0,0,0,4.608-.611,40.625,40.625,0,0,1,7.266-.848" transform="translate(-0.664 -0.664)" fill="#fff"/>
      </g>
    </g>
    <path id="パス_525" data-name="パス 525" d="M20.544.648a1.007,1.007,0,0,0,1.08-1.032,1.064,1.064,0,0,0-1.08-1.1l-7.3.024V-4.536l4.392.024a1.015,1.015,0,0,0,1.1-1.032A1.046,1.046,0,0,0,17.64-6.6l-4.392.024V-9.384l4.44.024a1.028,1.028,0,0,0,1.1-1.032,1.4,1.4,0,0,0-.1-.432c1.368.984,1.872,1.008,1.992,1.008a1.42,1.42,0,0,0,1.392-1.368,1.086,1.086,0,0,0-.648-.984,26.711,26.711,0,0,1-7.248-5.592,3.346,3.346,0,0,0-2.352-1.128A2.735,2.735,0,0,0,9.7-17.76,23.687,23.687,0,0,1,2.64-11.472a1.2,1.2,0,0,0-.744,1.08,1.236,1.236,0,0,0,1.272,1.2c.648,0,1.272-.432,2.3-1.248v.048A1.02,1.02,0,0,0,6.552-9.36l4.32-.024v2.808L6.336-6.6a1.02,1.02,0,0,0-1.08,1.032,1.025,1.025,0,0,0,1.08,1.056l4.536-.024v3.072l-7.32-.024A1.053,1.053,0,0,0,2.424-.432,1.058,1.058,0,0,0,3.552.648ZM6.72-11.448A37.294,37.294,0,0,0,11.352-16.2c.264-.336.456-.5.672-.5s.432.168.72.5a38.544,38.544,0,0,0,5.112,4.752Zm36.6,9.456c.072-1.824.1-3.888.1-6.024,0-2.616-.048-5.3-.1-7.752a2.88,2.88,0,0,0-2.928-2.808c-2.256-.048-4.536-.072-6.792-.072s-4.464.024-6.552.072c-1.8.048-2.976,1.08-3,2.616-.048,2.352-.1,5.136-.1,7.848,0,2.232.024,4.392.1,6.192.072,1.776,1.1,2.856,3.192,2.9,2.16.048,4.368.072,6.576.072s4.416-.024,6.528-.072A2.96,2.96,0,0,0,43.32-1.992Zm-2.328-.864c-.024,1.032-.456,1.68-1.8,1.7-1.944.024-3.84.048-5.664.048s-3.576-.024-5.232-.048c-1.488-.024-1.968-.264-2.016-1.632-.048-1.8-.072-3.84-.072-5.928s.024-4.224.072-6.168c.024-1.224.408-1.608,1.776-1.632,1.68-.024,3.576-.048,5.52-.048,1.92,0,3.912.024,5.712.048,1.176.024,1.656.264,1.7,1.632.072,1.944.1,4.1.1,6.264C41.088-6.648,41.064-4.656,40.992-2.856ZM38.136-5.28a.976.976,0,0,0,.912-.984c0-1.056-2.448-1.824-2.592-1.824a.956.956,0,0,0-.984.864A.719.719,0,0,0,35.9-6.6a13.06,13.06,0,0,1,1.632,1.08A.917.917,0,0,0,38.136-5.28Zm.72,2.136a.92.92,0,0,0,.984-.936.915.915,0,0,0-.984-.912h-4.3V-8.5l2.9.024a.915.915,0,0,0,.984-.912.911.911,0,0,0-.984-.888l-2.9.024V-12.7h3.6a.92.92,0,0,0,.984-.936.915.915,0,0,0-.984-.912H28.9a.966.966,0,0,0-1.032.96A.914.914,0,0,0,28.9-12.7h3.528v2.448l-2.832-.024a.962.962,0,0,0-1.032.936.889.889,0,0,0,1.008.864h.024L32.424-8.5v3.5H28.272a.966.966,0,0,0-1.032.96.914.914,0,0,0,1.032.888ZM58.44-5.232a1.262,1.262,0,0,0,1.224-1.224c0-1.344-3.336-3.432-4.176-3.432a1.018,1.018,0,0,0-1.056.96.936.936,0,0,0,.528.84,8.6,8.6,0,0,1,2.616,2.376A1.047,1.047,0,0,0,58.44-5.232ZM60.7-2.5c0,1.032-.672,1.536-1.944,1.536A9.329,9.329,0,0,1,56.568-1.3a1.652,1.652,0,0,0-.312-.048,1.031,1.031,0,0,0-.984,1.1A1.232,1.232,0,0,0,56.28.984a11.619,11.619,0,0,0,2.544.312c2.9,0,4.224-1.488,4.224-3.384v-.048L63-5.592v-6.6h2.064a1.061,1.061,0,0,0,1.152-1.056A1.061,1.061,0,0,0,65.064-14.3H63V-18.36a1.087,1.087,0,0,0-1.152-1.128A1.087,1.087,0,0,0,60.7-18.36V-14.3H55.368a1.171,1.171,0,0,0-.672.192v-.1a.974.974,0,0,0-1.008-1.032h-2.5l.024-3.264a1.069,1.069,0,0,0-1.176-1.008A1.048,1.048,0,0,0,48.888-18.5l.024,3.264H45.936a1.038,1.038,0,0,0-1.056,1.08.982.982,0,0,0,1.056,1.008H50.52a26.394,26.394,0,0,1-.864,4.224c-2.136-1.2-2.52-1.224-2.712-1.224A1.131,1.131,0,0,0,45.816-9.1a.891.891,0,0,0,.6.84,20.412,20.412,0,0,1,2.52,1.464A15.624,15.624,0,0,1,44.76-.576a1.033,1.033,0,0,0-.408.792A1.22,1.22,0,0,0,45.6,1.344c1.3,0,3.648-3.216,5.112-6.768a8.575,8.575,0,0,1,1.032,1.08,1.119,1.119,0,0,0,.888.48,1.306,1.306,0,0,0,1.224-1.272c0-.36-.1-1.008-2.28-2.592a32.447,32.447,0,0,0,1.248-5.424h.864a1,1,0,0,0,.552-.168v.1a1.009,1.009,0,0,0,1.128,1.032H60.7Zm19.7-7.752a1.185,1.185,0,0,0,1.128-1.176,1.174,1.174,0,0,0-.432-.912,10.679,10.679,0,0,0-4.56-1.752,1.024,1.024,0,0,0-1.1,1.008,1,1,0,0,0,.84.96,9.159,9.159,0,0,1,3.384,1.584A1.128,1.128,0,0,0,80.4-10.248ZM87.384-3.96c0-1.2-3.528-4.392-4.56-4.392a1.115,1.115,0,0,0-1.152,1.008.934.934,0,0,0,.456.792,9.532,9.532,0,0,1,2.928,3.264,1.086,1.086,0,0,0,.984.648A1.4,1.4,0,0,0,87.384-3.96ZM85.608-14.808a1.053,1.053,0,0,0,1.128-1.056A1.022,1.022,0,0,0,85.608-16.9c-1.488-.024-4.3-.048-7.176-.048v-1.68A1.163,1.163,0,0,0,77.184-19.8a1.163,1.163,0,0,0-1.248,1.176v1.68c-1.92,0-3.7.024-4.92.048-2.184.048-3.12,1.032-3.12,2.976v.072c.024,1.008.048,2.112.048,3.264,0,3.6-.288,7.608-2.064,10.368a1.008,1.008,0,0,0-.144.5A1.122,1.122,0,0,0,66.912,1.3,1.322,1.322,0,0,0,68.04.624C70.392-3.144,70.152-9.312,70.2-13.7c0-.672.312-1.08,1.152-1.1,1.44-.024,4.7-.048,7.848-.048,2.592,0,5.088.024,6.384.048Zm-1.8,12.1a1.187,1.187,0,0,0-1.272-1.1,1.068,1.068,0,0,0-1.128,1.128c0,1.8-.984,1.944-2.568,1.944-1.344,0-1.728-.216-1.728-.792.024-2.088.1-5.184.192-8.016V-9.6a1.085,1.085,0,0,0-1.176-1.008,1.052,1.052,0,0,0-1.152,1.032c-.048,2.856-.168,6.192-.168,8.28C74.808.7,76.056,1.32,78.7,1.32,81.024,1.32,83.808,1.152,83.808-2.712ZM70.776-1.368c1.8,0,3.168-4.728,3.168-5.376a1.006,1.006,0,0,0-1.08-1.032,1.056,1.056,0,0,0-1.08.792,8.98,8.98,0,0,1-1.776,3.768,1.305,1.305,0,0,0-.336.84A1.053,1.053,0,0,0,70.776-1.368Z" transform="translate(316.839 687.336)" fill="#595857"/>
    <path id="パス_524" data-name="パス 524" d="M15.84.684c7.92,0,13.9-5.58,13.9-13.968a13.547,13.547,0,0,0-13.9-13.968A13.518,13.518,0,0,0,1.98-13.284C1.98-4.9,7.92.684,15.84.684Zm0-3.78c-5.328,0-9.648-4-9.648-10.188,0-6.228,4.32-10.26,9.648-10.26s9.648,4.032,9.648,10.26C25.488-7.092,21.168-3.1,15.84-3.1ZM31.14-1.4A1.867,1.867,0,0,0,33.228.324c1.044,0,2.052-.54,2.052-1.692V-1.44c-.072-1.656-.072-3.24-.072-4.68,0-2.34.036-4.248.072-5.184,0-.54.4-.576.684-.576s.5-.036.756-.036a1.775,1.775,0,0,1,1.512.72C40.86-8.136,46.944-1.62,48.168-.36a2.224,2.224,0,0,0,1.62.72A2.5,2.5,0,0,0,52.2-2.016a2.2,2.2,0,0,0-.612-1.476c-.612-.684-7.2-6.948-10.26-10.08a.884.884,0,0,1-.324-.54.866.866,0,0,1,.324-.576c2.52-2.664,6.912-7.056,8.5-9a1.767,1.767,0,0,0,.4-1.116A2.413,2.413,0,0,0,47.88-27a1.776,1.776,0,0,0-1.476.756c-1.476,1.944-5.652,6.552-8.244,9.36a2.482,2.482,0,0,1-1.944,1.044c-.864,0-.936-.4-.936-.72-.036-.9-.072-2.484-.072-4.428,0-1.26.036-2.664.072-4.1v-.072a1.931,1.931,0,0,0-2.088-1.872,1.864,1.864,0,0,0-2.052,1.944c.072,2.736.108,6.552.108,10.584,0,4.5-.036,9.252-.108,13.068Z" transform="translate(335.63 725.274)" fill="#595857"/>
  </g>
</svg>
