<svg xmlns="http://www.w3.org/2000/svg" width="120.715" height="29.841" viewBox="0 0 120.715 29.841">
  <g id="グループ_844" data-name="グループ 844" transform="translate(-94.886 -12505.268)">
    <path id="パス_575" data-name="パス 575" d="M10.122-3.12a7.945,7.945,0,0,0,2.593-.352,2.506,2.506,0,0,0,1.89-2.5,1.848,1.848,0,0,0-.937-1.655,10.081,10.081,0,0,0-2.944-1.011L8.438-9.155a14.44,14.44,0,0,1-4.658-1.655A5.265,5.265,0,0,1,1.6-15.483,6.24,6.24,0,0,1,3.706-20.3q2.109-1.919,6.2-1.919a9.421,9.421,0,0,1,5.823,1.809,6.459,6.459,0,0,1,2.527,5.251H13.916a3.1,3.1,0,0,0-1.7-2.769,5.7,5.7,0,0,0-2.622-.542,4.9,4.9,0,0,0-2.783.7,2.239,2.239,0,0,0-1.04,1.963A1.858,1.858,0,0,0,6.8-14.077a12.552,12.552,0,0,0,2.813.894l3.721.894a9.619,9.619,0,0,1,3.691,1.567,5.279,5.279,0,0,1,1.934,4.409A6.223,6.223,0,0,1,16.692-1.4,9.482,9.482,0,0,1,10.3.557,10.371,10.371,0,0,1,3.662-1.37a6.4,6.4,0,0,1-2.417-5.3H5.552a4.434,4.434,0,0,0,.806,2.212A4.636,4.636,0,0,0,10.122-3.12ZM37.983-21.592v3.823h-6.46V0H26.982V-17.769H20.493v-3.823ZM55.649-9.434H45.161v5.552H57.114V0H40.752V-21.592H56.587v3.823H45.161v4.585H55.649ZM69.8-7.764H65.215V0H60.732V-21.592h9.4a7.66,7.66,0,0,1,5.186,1.67q1.934,1.67,1.934,5.171,0,3.823-1.934,5.405A8.515,8.515,0,0,1,69.8-7.764Zm2.109-4.5a3.123,3.123,0,0,0,.879-2.461,2.922,2.922,0,0,0-.886-2.4,3.846,3.846,0,0,0-2.483-.718h-4.2v6.357h4.2A3.674,3.674,0,0,0,71.909-12.261Z" transform="translate(93.641 12533.668)" fill="#fff"/>
    <path id="パス_576" data-name="パス 576" d="M12.56.44a9.674,9.674,0,0,0,8-3.92c1.8-2.48,2.64-5.92,2.64-11s-.84-8.52-2.64-11a9.674,9.674,0,0,0-8-3.92,9.727,9.727,0,0,0-8,3.92c-1.8,2.48-2.64,5.92-2.64,11s.84,8.52,2.64,11A9.727,9.727,0,0,0,12.56.44Zm0-5.68A3.588,3.588,0,0,1,9.64-6.8c-.96-1.36-1.36-3.68-1.36-7.64,0-3.72.36-6.28,1.36-7.72a3.488,3.488,0,0,1,2.92-1.56,3.436,3.436,0,0,1,2.92,1.56c1.04,1.48,1.36,4,1.36,7.64,0,4.08-.4,6.36-1.36,7.72A3.532,3.532,0,0,1,12.56-5.24ZM33.6,0h6.36V-29.4L27.72-24.96v5.76l5.88-2.12Z" transform="translate(175.641 12534.668)" fill="#fff"/>
  </g>
</svg>
