<svg xmlns="http://www.w3.org/2000/svg" xmlns:xlink="http://www.w3.org/1999/xlink" width="140" height="140" viewBox="0 0 140 140">
  <defs>
    <clipPath id="clip-path">
      <rect id="長方形_15" data-name="長方形 15" width="140" height="140" fill="none"/>
    </clipPath>
  </defs>
  <g id="グループ_686" data-name="グループ 686" transform="translate(-382.402 -487.395)">
    <g id="グループ_531" data-name="グループ 531" transform="translate(382.402 487.395)">
      <g id="グループ_10" data-name="グループ 10" clip-path="url(#clip-path)">
        <path id="パス_12" data-name="パス 12" d="M130.46,86.2C131.924,80.727,140,75.933,140,70s-8.076-10.727-9.54-16.2c-1.517-5.663,3.038-13.846.169-18.8-2.911-5.033-12.3-5.16-16.381-9.243s-4.21-13.47-9.243-16.382c-4.959-2.868-13.141,1.687-18.8.17C80.728,8.076,75.934,0,70,0S59.272,8.076,53.8,9.54C48.135,11.056,39.953,6.5,35,9.37c-5.033,2.912-5.16,12.3-9.244,16.382s-13.469,4.21-16.381,9.243C6.5,39.952,11.056,48.135,9.54,53.8,8.076,59.272,0,64.066,0,70S8.076,80.727,9.54,86.2c1.517,5.663-3.038,13.846-.169,18.8,2.912,5.033,12.3,5.16,16.381,9.244S29.963,127.718,35,130.629c4.958,2.869,13.14-1.687,18.8-.17C59.272,131.923,64.066,140,70,140s10.728-8.077,16.2-9.541c5.663-1.517,13.846,3.039,18.8.17,5.033-2.912,5.16-12.3,9.243-16.381s13.47-4.211,16.381-9.244c2.869-4.958-1.686-13.141-.169-18.8" transform="translate(0 0)" fill="#ffda00"/>
        <path id="パス_13" data-name="パス 13" d="M70.664,136.276c-1.439,0-3.187-1.268-6.326-3.933-2.515-2.137-5.362-4.554-8.742-5.458a14.675,14.675,0,0,0-3.83-.466,38.365,38.365,0,0,0-6.741.8,31.341,31.341,0,0,1-5.133.658,4.283,4.283,0,0,1-2.019-.371c-1.2-.692-2.057-2.633-3.426-6.456-1.127-3.149-2.405-6.715-4.929-9.24s-6.092-3.8-9.239-4.928c-3.824-1.371-5.763-2.23-6.446-3.409-.656-1.133-.433-3.212.276-7.163.6-3.32,1.271-7.082.334-10.58-.9-3.376-3.321-6.223-5.454-8.735-2.667-3.142-3.937-4.89-3.937-6.331s1.27-3.19,3.938-6.331c2.133-2.512,4.55-5.359,5.453-8.736.936-3.5.261-7.258-.334-10.576-.71-3.952-.932-6.032-.276-7.164.683-1.181,2.623-2.04,6.447-3.409,3.148-1.127,6.714-2.405,9.238-4.929s3.8-6.092,4.929-9.238c1.369-3.824,2.229-5.764,3.408-6.448a4.229,4.229,0,0,1,2.037-.38,31.415,31.415,0,0,1,5.118.656,38.419,38.419,0,0,0,6.756.8,14.657,14.657,0,0,0,3.832-.467c3.376-.9,6.223-3.321,8.735-5.453,3.141-2.668,4.889-3.937,6.33-3.937s3.189,1.269,6.33,3.936c2.514,2.134,5.36,4.552,8.738,5.456a14.682,14.682,0,0,0,3.831.466,38.4,38.4,0,0,0,6.745-.8,31.52,31.52,0,0,1,5.128-.658,4.224,4.224,0,0,1,2.038.381c1.179.682,2.038,2.621,3.407,6.442,1.128,3.151,2.406,6.719,4.93,9.243s6.092,3.8,9.238,4.928c3.825,1.37,5.766,2.229,6.449,3.409.656,1.134.433,3.213-.276,7.162-.6,3.319-1.272,7.08-.334,10.58.9,3.375,3.32,6.223,5.452,8.734,2.669,3.142,3.939,4.891,3.939,6.332s-1.27,3.19-3.938,6.33c-2.132,2.513-4.55,5.359-5.453,8.736-.937,3.5-.261,7.261.334,10.58.709,3.95.931,6.029.276,7.161-.683,1.18-2.621,2.039-6.442,3.408-3.152,1.128-6.72,2.405-9.245,4.929s-3.8,6.092-4.928,9.238c-1.369,3.825-2.229,5.766-3.409,6.449a4.228,4.228,0,0,1-2.036.38,31.331,31.331,0,0,1-5.126-.657,38.368,38.368,0,0,0-6.749-.8,14.617,14.617,0,0,0-3.831.468c-3.377.9-6.224,3.32-8.735,5.452-3.143,2.668-4.89,3.937-6.331,3.937m-18.9-12.783a17.508,17.508,0,0,1,4.586.566c4.015,1.074,7.128,3.718,9.874,6.051.984.836,3.555,3.018,4.437,3.234.883-.216,3.455-2.4,4.436-3.233,2.748-2.334,5.861-4.978,9.873-6.051a17.527,17.527,0,0,1,4.588-.567,40.613,40.613,0,0,1,7.259.846,29.764,29.764,0,0,0,4.616.612,4.216,4.216,0,0,0,.595-.035,26.215,26.215,0,0,0,2.1-4.854c1.232-3.438,2.626-7.333,5.615-10.322s6.885-4.384,10.322-5.614a25.266,25.266,0,0,0,4.876-2.118,26.856,26.856,0,0,0-.6-5.183c-.65-3.619-1.387-7.722-.281-11.851,1.074-4.014,3.718-7.127,6.05-9.874.834-.98,3.019-3.554,3.235-4.437-.215-.883-2.4-3.457-3.235-4.437-2.333-2.748-4.976-5.861-6.049-9.873-1.107-4.131-.369-8.233.281-11.854a26.841,26.841,0,0,0,.6-5.183,25.361,25.361,0,0,0-4.876-2.117c-3.439-1.231-7.334-2.626-10.322-5.615s-4.384-6.884-5.615-10.321a26.136,26.136,0,0,0-2.1-4.853,4.038,4.038,0,0,0-.6-.036,29.83,29.83,0,0,0-4.6.609,40.65,40.65,0,0,1-7.273.849,17.525,17.525,0,0,1-4.587-.566c-4.013-1.074-7.127-3.718-9.873-6.05-.982-.834-3.555-3.018-4.438-3.235-.882.215-3.456,2.4-4.437,3.235-2.747,2.332-5.86,4.976-9.872,6.049a17.5,17.5,0,0,1-4.589.567,40.581,40.581,0,0,1-7.266-.848,29.823,29.823,0,0,0-4.608-.611,4.048,4.048,0,0,0-.595.036,26.1,26.1,0,0,0-2.1,4.853C35.97,24.7,34.575,28.6,31.587,31.586S24.7,35.97,21.267,37.2a25.254,25.254,0,0,0-4.878,2.118,26.84,26.84,0,0,0,.6,5.183c.65,3.621,1.386,7.724.281,11.851-1.074,4.013-3.717,7.126-6.049,9.873-.834.982-3.02,3.555-3.236,4.439.215.883,2.4,3.457,3.234,4.437,2.333,2.747,4.977,5.86,6.05,9.873,1.106,4.129.369,8.232-.281,11.85a26.9,26.9,0,0,0-.6,5.186,25.208,25.208,0,0,0,4.872,2.116c3.441,1.232,7.336,2.627,10.326,5.616s4.383,6.884,5.614,10.321a26.132,26.132,0,0,0,2.1,4.854,4.169,4.169,0,0,0,.595.036,29.743,29.743,0,0,0,4.608-.611,40.625,40.625,0,0,1,7.266-.848" transform="translate(-0.664 -0.664)" fill="#fff"/>
      </g>
    </g>
    <path id="パス_521" data-name="パス 521" d="M12.048-2.136c.072,3.024,1.416,3.144,5.424,3.144,2.88,0,4.152-.552,4.2-3.192.024-1.944.048-4.176.048-6.408,0-2.568-.024-5.112-.072-7.128-.072-2.688-2.088-2.712-4.68-2.712-3.24,0-4.9.1-4.92,2.856C12.024-13.656,12-11.232,12-8.808,12-6.408,12.024-4.008,12.048-2.136ZM7.776.576s-.072-5.64-.1-9.384A11.806,11.806,0,0,1,9.192-7.2a.917.917,0,0,0,.744.408,1.247,1.247,0,0,0,1.152-1.2c0-1.056-2.688-2.76-3.168-2.76a1.021,1.021,0,0,0-.264.048c0-.528.024-1.1.024-1.7l2.352.048h.024a1,1,0,0,0,1.032-1.056,1,1,0,0,0-1.056-1.056H7.7c.024-2.16.072-4.056.072-4.056v-.024A1.092,1.092,0,0,0,6.6-19.608a1.065,1.065,0,0,0-1.176,1.056v.024L5.5-14.472H2.76a1.025,1.025,0,0,0-1.08,1.056A1.019,1.019,0,0,0,2.736-12.36H2.76l2.76-.048v.312A21.354,21.354,0,0,1,1.344-6.36a1.122,1.122,0,0,0-.384.792A1.213,1.213,0,0,0,2.184-4.44,1.209,1.209,0,0,0,3.1-4.872,22.248,22.248,0,0,0,5.52-8.184l-.1,8.76V.6A1.057,1.057,0,0,0,6.6,1.608,1.069,1.069,0,0,0,7.776.6Zm6.36-13.248c0-3.168.024-3.552,1.272-3.624.456-.024.96-.048,1.464-.048,2.424,0,2.544.072,2.592,1.488.024.648.024,1.392.048,2.184Zm5.4,5.568H14.112v-3.528h5.424Zm-.024,2.04c-.024.84-.024,1.656-.048,2.376-.024,1.032-.1,1.56-2.328,1.56-2.568,0-2.928-.12-2.952-1.488-.024-.72-.048-1.56-.048-2.448ZM38.448-16.272a14.586,14.586,0,0,0,.072-1.464c0-.72-.024-1.68-1.056-1.68a1.11,1.11,0,0,0-1.128,1.128v.048c0,.264.024.528.024.768,0,3.36-.96,5.976-4.392,7.416a1.006,1.006,0,0,0-.7.936,1.07,1.07,0,0,0,1.056,1.08,8.625,8.625,0,0,0,5.352-5.04C39.1-10.272,42.048-8.232,43.3-8.232a1.157,1.157,0,0,0,1.176-1.152,1.1,1.1,0,0,0-.888-1.056,7.577,7.577,0,0,1-3.792-2.616c3.192-1.968,3.384-2.952,3.384-3.192a1.3,1.3,0,0,0-1.2-1.248.848.848,0,0,0-.72.408,12.06,12.06,0,0,1-2.4,2.424,5.769,5.769,0,0,1-.384-1.536Zm-5.088,3.84c1.056,0,1.368-1.248,1.368-3.168,0-.384,0-.768-.024-1.128-.024-.5-.552-.792-1.08-.792a.818.818,0,0,0-.912.816,9.6,9.6,0,0,1-.264,3,.914.914,0,0,0-.1.408A.942.942,0,0,0,33.36-12.432ZM29.688-16.92a.938.938,0,0,0,.984-.96.938.938,0,0,0-.984-.96h-4.8a.918.918,0,0,0-.96.96.918.918,0,0,0,.96.96ZM36.36-9.072v.384c0,3.648-1.008,6.816-5.112,8.136a1,1,0,0,0-.768.984,1.12,1.12,0,0,0,1.1,1.128,9.064,9.064,0,0,0,6.1-5.472c1.608,3.384,4.68,5.256,5.808,5.256a1.166,1.166,0,0,0,1.176-1.2,1.123,1.123,0,0,0-.888-1.1,8.072,8.072,0,0,1-3.984-2.952c1.272-.816,3-2.232,3-3.024a1.24,1.24,0,0,0-1.128-1.176.785.785,0,0,0-.7.384A12.733,12.733,0,0,1,38.88-5.52a5.468,5.468,0,0,1-.408-1.608c0-.048-.024-.1-.024-.144.048-.6.1-1.2.1-1.824a1.03,1.03,0,0,0-1.032-1.152A1.135,1.135,0,0,0,36.36-9.1Zm-5.76-4.56a.969.969,0,0,0,1.032-.984A.957.957,0,0,0,30.6-15.6H23.9a.969.969,0,0,0-1.032.984.957.957,0,0,0,1.032.984Zm-.864,3.12a.938.938,0,0,0,.984-.96.938.938,0,0,0-.984-.96h-4.8a.918.918,0,0,0-.96.96.918.918,0,0,0,.96.96ZM33.144-2.9c.792,0,1.368-.552,1.368-3.192,0-.384,0-.768-.024-1.128-.024-.5-.552-.792-1.08-.792A.818.818,0,0,0,32.5-7.2a9.769,9.769,0,0,1-.264,3.024.914.914,0,0,0-.1.408A.942.942,0,0,0,33.144-2.9ZM29.736-7.416a.938.938,0,0,0,.984-.96.938.938,0,0,0-.984-.96h-4.8a.918.918,0,0,0-.96.96.918.918,0,0,0,.96.96ZM30.72-.888c.024-.528.024-1.152.024-1.776s0-1.272-.024-1.824a1.906,1.906,0,0,0-1.92-1.7c-.552-.024-1.2-.048-1.824-.048-.528,0-1.032.024-1.488.048a1.787,1.787,0,0,0-1.752,1.824c0,.528-.024,1.1-.024,1.68,0,.6.024,1.2.024,1.824a1.829,1.829,0,0,0,1.776,1.9c.48.024,1.032.048,1.584.048s1.128-.024,1.632-.048A1.942,1.942,0,0,0,30.72-.888Zm-1.992-.5c-.024.36-.216.6-1.584.6-1.344,0-1.44-.264-1.464-.576,0-.36-.024-.816-.024-1.248,0-1.824,0-1.848,1.536-1.848,1.032,0,1.488.072,1.536.648.024.336.024.792.024,1.224S28.752-1.728,28.728-1.392Z" transform="translate(401.438 552.09)" fill="#595857"/>
    <path id="パス_520" data-name="パス 520" d="M14.544-9.12A2.53,2.53,0,0,0,12-11.664,2.53,2.53,0,0,0,9.456-9.12,2.53,2.53,0,0,0,12-6.576,2.53,2.53,0,0,0,14.544-9.12Z" transform="translate(439.358 552.09)" fill="#595857"/>
    <path id="パス_519" data-name="パス 519" d="M12.384-5.3c-.024,1.3-.024,3.1-.024,3.744,0,2.664,2.088,2.9,4.512,2.9,2.736,0,5.52-.312,5.52-4.44a1.2,1.2,0,0,0-1.272-1.3,1.068,1.068,0,0,0-1.128,1.128c0,2.16-1.152,2.448-3,2.448-2.064,0-2.352-.312-2.352-1.632,0-.768.024-1.9.048-2.856.408,0,.816-.048,1.224-.048A2.561,2.561,0,0,0,18.528-7.8c.048-1.176.072-2.952.072-4.7,0-1.584-.024-3.12-.072-4.176a2.491,2.491,0,0,0-2.5-2.184c-1.224-.048-2.736-.048-4.2-.048-1.488,0-2.928,0-4.032.048a2.429,2.429,0,0,0-2.64,2.352c-.048.936-.072,2.592-.072,4.3,0,1.68.024,3.408.072,4.464.048,1.368,1.08,2.352,2.808,2.4C9.36-5.328,10.9-5.3,12.384-5.3ZM10.608-3.288a1.181,1.181,0,0,0,.12-.48A1.258,1.258,0,0,0,9.456-4.9a1.148,1.148,0,0,0-1.08.72C7.416-2.136,5.424-.936,2.3-.5A1.1,1.1,0,0,0,1.224.576,1.165,1.165,0,0,0,2.448,1.7S8.472,1.224,10.608-3.288ZM7.3-14.9c0-.36.024-.672.024-.936A1.1,1.1,0,0,1,8.448-16.9c1.008-.024,2.4-.048,3.744-.048,1.128,0,2.184.024,2.976.048.792.048,1.1.408,1.128,1.032,0,.264.048.6.048.96Zm9.072,3.72h-9.1v-1.872h9.1Zm-.024,1.848c0,1.08,0,1.968-1.152,2.016-1.032.048-2.112.072-3.192.072-1.224,0-2.424-.024-3.528-.072-.7-.024-1.128-.288-1.152-1.056,0-.288-.024-.6-.024-.96ZM43.512-11.5a.8.8,0,0,0,.84-.816.8.8,0,0,0-.84-.792l-5.3.024v-.888l3.432.024a.757.757,0,0,0,.84-.72.76.76,0,0,0-.84-.744l-3.432.024v-.864l4.536.024a.814.814,0,0,0,.888-.816.81.81,0,0,0-.888-.792H38.232v-.912a1.1,1.1,0,0,0-1.2-1.056A1.028,1.028,0,0,0,35.9-18.792v.048l.024.912H31.9a.806.806,0,0,0-.864.816.8.8,0,0,0,.864.792l4.032-.024v.864l-3.288-.024a.726.726,0,0,0-.792.72.731.731,0,0,0,.792.744l3.288-.024v.888L31.32-13.1a.9.9,0,0,0-.264.024.934.934,0,0,0-.984-.936H28.488c.024-1.272.048-2.352.072-2.856,2.208-.648,2.352-1.032,2.352-1.464a1.234,1.234,0,0,0-1.1-1.152.863.863,0,0,0-.264.048A23.036,23.036,0,0,1,23.928-18a.886.886,0,0,0-.768.936,1.031,1.031,0,0,0,.984,1.1A21.48,21.48,0,0,0,26.28-16.3l.048,2.28H24.12a.994.994,0,0,0-1.032,1.032A.968.968,0,0,0,24.1-11.976h.024l2.232-.048.024.384a20.725,20.725,0,0,1-3.72,5.808,1.06,1.06,0,0,0-.336.768,1.208,1.208,0,0,0,1.2,1.128c.384,0,1.008-.048,2.832-3.624L26.256.7V.72a1.162,1.162,0,0,0,2.3,0V.7s-.1-5.592-.12-9.36c.36.456.768,1.008,1.056,1.464a.872.872,0,0,0,.768.456,1.177,1.177,0,0,0,1.1-1.152c0-.864-2.136-2.76-2.808-2.76h-.12c0-.432.024-.912.024-1.368l1.608.048a1.146,1.146,0,0,0,.432-.1.8.8,0,0,0,.816.576ZM39.936-2.16c2.376,0,2.376-1.272,2.376-4.392,0-.84-.024-1.68-.072-2.352-.072-1.08-.84-1.752-2.16-1.776-1.08-.024-2.136-.048-3.192-.048-.864,0-1.7.024-2.52.048-1.68.072-2.112.984-2.136,1.92-.024.7-.024,1.512-.024,2.3,0,.816,0,1.632.024,2.328.048,1.272.648,1.9,2.136,1.968l.5.024c-.048.024-.072.024-.12.048A11.9,11.9,0,0,1,30.624-.552,1.037,1.037,0,0,0,29.64.48a1.131,1.131,0,0,0,1.152,1.128A12.251,12.251,0,0,0,35.9-.456a.963.963,0,0,0,.432-.792,1.047,1.047,0,0,0-.5-.888c.624.024,1.272.024,1.92.024h.792a1.081,1.081,0,0,0-.432.84A.926.926,0,0,0,38.52-.5a12.267,12.267,0,0,0,4.848,1.968A1.126,1.126,0,0,0,44.448.288a1.017,1.017,0,0,0-.864-1.032A14.375,14.375,0,0,1,39.648-2.16ZM40.224-8.3H34.176l.024-.24c.048-.672.336-.72,2.928-.72,2.472,0,3.1,0,3.1.648Zm.024,2.328h-6.12V-6.96h6.12Zm-.024,1.7c-.048.72-.384.72-3.024.72-2.592,0-2.952,0-3-.648,0-.144-.024-.288-.024-.456h6.048Z" transform="translate(458.318 552.09)" fill="#595857"/>
    <path id="パス_518" data-name="パス 518" d="M31.536-6.912a1.413,1.413,0,0,0,1.476-1.476,1.4,1.4,0,0,0-1.476-1.476h-4V-14.58H32.4a1.415,1.415,0,0,0,1.476-1.476A1.407,1.407,0,0,0,32.4-17.5H27.54V-22h2.124a1.415,1.415,0,0,0,1.476-1.476,1.407,1.407,0,0,0-1.476-1.44H11.34c1.512-2.3,1.692-2.808,1.692-3.132a1.851,1.851,0,0,0-1.872-1.692,1.419,1.419,0,0,0-1.3.828A22.74,22.74,0,0,1,4-21.276a1.6,1.6,0,0,0-.648,1.224,1.748,1.748,0,0,0,1.8,1.584c.756,0,1.512-.468,3.6-2.952V-17.5H3.78a1.5,1.5,0,0,0-1.512,1.512,1.371,1.371,0,0,0,1.512,1.4H8.748v4.716H4.5A1.511,1.511,0,0,0,2.952-8.316,1.4,1.4,0,0,0,4.5-6.912ZM32.724.108c0-1.872-4.1-5.544-5.616-5.544-.936,0-1.836.648-1.836,1.368a1.121,1.121,0,0,0,.5.9A13,13,0,0,1,29.2,1.008a1.667,1.667,0,0,0,1.548,1.008A1.982,1.982,0,0,0,32.724.108ZM24.48.432c0-.828-1.62-5.868-3.924-5.868a1.437,1.437,0,0,0-1.584,1.26,1.371,1.371,0,0,0,.216.684A11.944,11.944,0,0,1,20.952.864a1.581,1.581,0,0,0,1.62,1.4A1.878,1.878,0,0,0,24.48.432ZM17.136.4a10.691,10.691,0,0,0-1.3-5.148,1.762,1.762,0,0,0-1.476-.684c-.756,0-1.512.4-1.512,1.152a1.413,1.413,0,0,0,.108.5,11.8,11.8,0,0,1,.684,4.1v.4a1.511,1.511,0,0,0,1.548,1.62A1.909,1.909,0,0,0,17.136.4ZM5.508,2.52c2.412,0,5.436-4.536,5.436-6.444A1.652,1.652,0,0,0,9.18-5.436,1.555,1.555,0,0,0,7.6-4.212,7.741,7.741,0,0,1,4.608-.576,1.858,1.858,0,0,0,3.6.936,1.76,1.76,0,0,0,5.508,2.52ZM24.588-17.5H22V-22h2.592Zm-5.22,0H16.812V-22h2.556Zm5.22,7.632H22V-14.58h2.592ZM14.148-17.5H11.664V-22h2.484Zm5.22,7.632H16.812V-14.58h2.556Zm-5.22,0H11.664V-14.58h2.484ZM55.3-19.656a1.751,1.751,0,0,0,1.62-1.8,1.955,1.955,0,0,0-.54-1.368c-.54-.576-3.24-2.628-4.464-2.628A1.739,1.739,0,0,0,50.148-23.9,1.1,1.1,0,0,0,50.8-22.9a14.433,14.433,0,0,1,3.312,2.628A1.6,1.6,0,0,0,55.3-19.656ZM58.5,1.008c0,.936.864,1.4,1.728,1.4s1.728-.468,1.728-1.4L61.884-8.28l4.248-1.188a1.466,1.466,0,0,0,1.152-1.44,1.6,1.6,0,0,0-1.548-1.62,2.824,2.824,0,0,0-.5.072l-3.348.936.072-16.092a1.632,1.632,0,0,0-1.764-1.548A1.549,1.549,0,0,0,58.5-27.612l.072,17.028L48.564-7.812A1.611,1.611,0,0,0,47.34-6.264a1.5,1.5,0,0,0,1.512,1.548,1.684,1.684,0,0,0,.576-.072l9.144-2.556Zm-3.528-13.5a1.714,1.714,0,0,0,1.584-1.764,1.938,1.938,0,0,0-.72-1.476c-.648-.54-3.132-2.124-4.536-2.124a1.7,1.7,0,0,0-1.8,1.476,1.306,1.306,0,0,0,.828,1.152,19.521,19.521,0,0,1,3.528,2.268A1.681,1.681,0,0,0,54.972-12.492Zm-16.56-6.876a1.682,1.682,0,0,0,1.656-1.692c0-.828-1.8-4.428-3.42-4.428-.828,0-1.692.576-1.692,1.332a1.244,1.244,0,0,0,.324.756,15.364,15.364,0,0,1,1.944,3.2A1.278,1.278,0,0,0,38.412-19.368ZM43.74,1.044s-.144-6.516-.18-11.772a14.655,14.655,0,0,1,2.088,2.3,1.436,1.436,0,0,0,1.152.612A1.766,1.766,0,0,0,48.456-9.54c0-1.368-3.312-3.672-4.176-3.672a1.639,1.639,0,0,0-.72.18v-1.836l3.852.072h.036a1.466,1.466,0,0,0,1.44-1.548,1.444,1.444,0,0,0-1.476-1.512H43.6l.036-2.3a1.442,1.442,0,0,0,1.332.828,1.5,1.5,0,0,0,1.116-.54c1.188-1.368,2.628-3.528,2.628-4.212a1.715,1.715,0,0,0-1.692-1.548,1.214,1.214,0,0,0-1.152.756,26.29,26.29,0,0,1-2.052,3.492,1.459,1.459,0,0,0-.18.324c.036-3.492.108-6.48.108-6.48v-.036a1.607,1.607,0,0,0-1.728-1.584,1.607,1.607,0,0,0-1.728,1.584v.036l.108,9.684H36.36a1.557,1.557,0,0,0-1.584,1.62,1.408,1.408,0,0,0,1.548,1.44h.036l4.068-.072v.108a30.926,30.926,0,0,1-6.192,7.776,1.486,1.486,0,0,0-.612,1.152,1.743,1.743,0,0,0,1.764,1.62c.576,0,1.764-.252,5.04-5.58L40.284,1.044V1.08a1.75,1.75,0,0,0,3.456,0Z" transform="translate(418.168 586.511)" fill="#595857"/>
  </g>
</svg>
