<svg xmlns="http://www.w3.org/2000/svg" xmlns:xlink="http://www.w3.org/1999/xlink" width="140" height="140" viewBox="0 0 140 140">
  <defs>
    <clipPath id="clip-path">
      <rect id="長方形_15" data-name="長方形 15" width="140" height="140" fill="none"/>
    </clipPath>
  </defs>
  <g id="グループ_687" data-name="グループ 687" transform="translate(-561.737 -487.395)">
    <g id="グループ_532" data-name="グループ 532" transform="translate(561.737 487.395)">
      <g id="グループ_10" data-name="グループ 10" clip-path="url(#clip-path)">
        <path id="パス_12" data-name="パス 12" d="M130.46,86.2C131.924,80.727,140,75.933,140,70s-8.076-10.727-9.54-16.2c-1.517-5.663,3.038-13.846.169-18.8-2.911-5.033-12.3-5.16-16.381-9.243s-4.21-13.47-9.243-16.382c-4.959-2.868-13.141,1.687-18.8.17C80.728,8.076,75.934,0,70,0S59.272,8.076,53.8,9.54C48.135,11.056,39.953,6.5,35,9.37c-5.033,2.912-5.16,12.3-9.244,16.382s-13.469,4.21-16.381,9.243C6.5,39.952,11.056,48.135,9.54,53.8,8.076,59.272,0,64.066,0,70S8.076,80.727,9.54,86.2c1.517,5.663-3.038,13.846-.169,18.8,2.912,5.033,12.3,5.16,16.381,9.244S29.963,127.718,35,130.629c4.958,2.869,13.14-1.687,18.8-.17C59.272,131.923,64.066,140,70,140s10.728-8.077,16.2-9.541c5.663-1.517,13.846,3.039,18.8.17,5.033-2.912,5.16-12.3,9.243-16.381s13.47-4.211,16.381-9.244c2.869-4.958-1.686-13.141-.169-18.8" transform="translate(0 0)" fill="#ffda00"/>
        <path id="パス_13" data-name="パス 13" d="M70.664,136.276c-1.439,0-3.187-1.268-6.326-3.933-2.515-2.137-5.362-4.554-8.742-5.458a14.675,14.675,0,0,0-3.83-.466,38.365,38.365,0,0,0-6.741.8,31.341,31.341,0,0,1-5.133.658,4.283,4.283,0,0,1-2.019-.371c-1.2-.692-2.057-2.633-3.426-6.456-1.127-3.149-2.405-6.715-4.929-9.24s-6.092-3.8-9.239-4.928c-3.824-1.371-5.763-2.23-6.446-3.409-.656-1.133-.433-3.212.276-7.163.6-3.32,1.271-7.082.334-10.58-.9-3.376-3.321-6.223-5.454-8.735-2.667-3.142-3.937-4.89-3.937-6.331s1.27-3.19,3.938-6.331c2.133-2.512,4.55-5.359,5.453-8.736.936-3.5.261-7.258-.334-10.576-.71-3.952-.932-6.032-.276-7.164.683-1.181,2.623-2.04,6.447-3.409,3.148-1.127,6.714-2.405,9.238-4.929s3.8-6.092,4.929-9.238c1.369-3.824,2.229-5.764,3.408-6.448a4.229,4.229,0,0,1,2.037-.38,31.415,31.415,0,0,1,5.118.656,38.419,38.419,0,0,0,6.756.8,14.657,14.657,0,0,0,3.832-.467c3.376-.9,6.223-3.321,8.735-5.453,3.141-2.668,4.889-3.937,6.33-3.937s3.189,1.269,6.33,3.936c2.514,2.134,5.36,4.552,8.738,5.456a14.682,14.682,0,0,0,3.831.466,38.4,38.4,0,0,0,6.745-.8,31.52,31.52,0,0,1,5.128-.658,4.224,4.224,0,0,1,2.038.381c1.179.682,2.038,2.621,3.407,6.442,1.128,3.151,2.406,6.719,4.93,9.243s6.092,3.8,9.238,4.928c3.825,1.37,5.766,2.229,6.449,3.409.656,1.134.433,3.213-.276,7.162-.6,3.319-1.272,7.08-.334,10.58.9,3.375,3.32,6.223,5.452,8.734,2.669,3.142,3.939,4.891,3.939,6.332s-1.27,3.19-3.938,6.33c-2.132,2.513-4.55,5.359-5.453,8.736-.937,3.5-.261,7.261.334,10.58.709,3.95.931,6.029.276,7.161-.683,1.18-2.621,2.039-6.442,3.408-3.152,1.128-6.72,2.405-9.245,4.929s-3.8,6.092-4.928,9.238c-1.369,3.825-2.229,5.766-3.409,6.449a4.228,4.228,0,0,1-2.036.38,31.331,31.331,0,0,1-5.126-.657,38.368,38.368,0,0,0-6.749-.8,14.617,14.617,0,0,0-3.831.468c-3.377.9-6.224,3.32-8.735,5.452-3.143,2.668-4.89,3.937-6.331,3.937m-18.9-12.783a17.508,17.508,0,0,1,4.586.566c4.015,1.074,7.128,3.718,9.874,6.051.984.836,3.555,3.018,4.437,3.234.883-.216,3.455-2.4,4.436-3.233,2.748-2.334,5.861-4.978,9.873-6.051a17.527,17.527,0,0,1,4.588-.567,40.613,40.613,0,0,1,7.259.846,29.764,29.764,0,0,0,4.616.612,4.216,4.216,0,0,0,.595-.035,26.215,26.215,0,0,0,2.1-4.854c1.232-3.438,2.626-7.333,5.615-10.322s6.885-4.384,10.322-5.614a25.266,25.266,0,0,0,4.876-2.118,26.856,26.856,0,0,0-.6-5.183c-.65-3.619-1.387-7.722-.281-11.851,1.074-4.014,3.718-7.127,6.05-9.874.834-.98,3.019-3.554,3.235-4.437-.215-.883-2.4-3.457-3.235-4.437-2.333-2.748-4.976-5.861-6.049-9.873-1.107-4.131-.369-8.233.281-11.854a26.841,26.841,0,0,0,.6-5.183,25.361,25.361,0,0,0-4.876-2.117c-3.439-1.231-7.334-2.626-10.322-5.615s-4.384-6.884-5.615-10.321a26.136,26.136,0,0,0-2.1-4.853,4.038,4.038,0,0,0-.6-.036,29.83,29.83,0,0,0-4.6.609,40.65,40.65,0,0,1-7.273.849,17.525,17.525,0,0,1-4.587-.566c-4.013-1.074-7.127-3.718-9.873-6.05-.982-.834-3.555-3.018-4.438-3.235-.882.215-3.456,2.4-4.437,3.235-2.747,2.332-5.86,4.976-9.872,6.049a17.5,17.5,0,0,1-4.589.567,40.581,40.581,0,0,1-7.266-.848,29.823,29.823,0,0,0-4.608-.611,4.048,4.048,0,0,0-.595.036,26.1,26.1,0,0,0-2.1,4.853C35.97,24.7,34.575,28.6,31.587,31.586S24.7,35.97,21.267,37.2a25.254,25.254,0,0,0-4.878,2.118,26.84,26.84,0,0,0,.6,5.183c.65,3.621,1.386,7.724.281,11.851-1.074,4.013-3.717,7.126-6.049,9.873-.834.982-3.02,3.555-3.236,4.439.215.883,2.4,3.457,3.234,4.437,2.333,2.747,4.977,5.86,6.05,9.873,1.106,4.129.369,8.232-.281,11.85a26.9,26.9,0,0,0-.6,5.186,25.208,25.208,0,0,0,4.872,2.116c3.441,1.232,7.336,2.627,10.326,5.616s4.383,6.884,5.614,10.321a26.132,26.132,0,0,0,2.1,4.854,4.169,4.169,0,0,0,.595.036,29.743,29.743,0,0,0,4.608-.611,40.625,40.625,0,0,1,7.266-.848" transform="translate(-0.664 -0.664)" fill="#fff"/>
      </g>
    </g>
    <path id="パス_523" data-name="パス 523" d="M18.312-14.88c.5,0,.864.264.888.936.048,1.08.1,2.28.1,3.528,0,7.968-1.752,8.9-3.048,8.9a4.977,4.977,0,0,1-1.344-.24,1.631,1.631,0,0,0-.456-.072,1.106,1.106,0,0,0-1.08,1.152,1.155,1.155,0,0,0,.816,1.1,6.993,6.993,0,0,0,2.136.36C20.9.792,21.7-4.656,21.7-10.32c0-1.368-.048-2.712-.1-3.936a2.565,2.565,0,0,0-2.64-2.712c-1.368-.024-2.856-.024-4.32-.024-1.08,0-2.136,0-3.144.024a1.027,1.027,0,0,0-1.032,1.056A1.013,1.013,0,0,0,11.5-14.856h.024c.84,0,1.7-.024,2.616-.024-.072,5.5-.72,10.536-5.664,13.728a1.1,1.1,0,0,0-.552.936A1.215,1.215,0,0,0,9.12.96,1.431,1.431,0,0,0,9.888.72c5.52-3.576,6.384-9.36,6.552-15.6Zm-7.92,6.528a4.754,4.754,0,0,0,1.488-2.256,1.06,1.06,0,0,0-1.1-.96.846.846,0,0,0-.816.456A9.577,9.577,0,0,1,8.88-9.336a1.5,1.5,0,0,0-.6-.168,1.046,1.046,0,0,0-1.032.96.632.632,0,0,0,.36.576A6.075,6.075,0,0,1,9.48-6.288a.851.851,0,0,0,.72.432,1.172,1.172,0,0,0,1.056-1.152A1.808,1.808,0,0,0,10.392-8.352ZM7.176.7s-.1-6.264-.12-10.008c1.416-1.824,2.688-4.032,2.688-5.088,0-.96-.648-1.656-1.944-1.68H7.152l.024-2.376A1.083,1.083,0,0,0,6-19.536a1.076,1.076,0,0,0-1.152,1.08l.024,2.4c-.672.024-1.344.024-2.016.048a.974.974,0,0,0-1.008,1.032A1.008,1.008,0,0,0,2.88-13.944H2.9c1.368-.024,2.28-.12,3.552-.12H6.84c.144,0,.456.024.456.264a13.9,13.9,0,0,1-5.52,6.336,1.156,1.156,0,0,0-.624.984A1.143,1.143,0,0,0,2.3-5.376c.72,0,2.3-1.344,2.664-1.68L4.872.7V.72A1.045,1.045,0,0,0,6.024,1.7,1.03,1.03,0,0,0,7.176.72Zm33.84-2.928c0,1.08-.672,1.392-1.584,1.392a8.054,8.054,0,0,1-1.44-.168.664.664,0,0,0-.216-.024,1.01,1.01,0,0,0-.936,1.1c0,.96.672,1.3,2.5,1.3,3.048,0,3.96-1.776,3.96-3.192v-.048l-.048-3.384c0-.312-.024-1.08-.024-8.5v-2.592c-.024-2.208-1.872-2.424-3.792-2.424-2.136,0-4.128,0-4.128,2.424,0,1.7.048,3.1.048,4.8,0,.528.048,1.272.048,2.112,0,2.328-.312,5.472-2.568,7.776a1.4,1.4,0,0,0,.1-.456c0-.984-1.872-1.992-2.376-1.992A1.054,1.054,0,0,0,29.5-3.12a.774.774,0,0,0,.384.672,4.466,4.466,0,0,1,1.3,1.224.726.726,0,0,0,.624.336.6.6,0,0,0,.192-.024,6.8,6.8,0,0,1-.672.48,1.048,1.048,0,0,0-.528.864,1.189,1.189,0,0,0,1.176,1.152,1.287,1.287,0,0,0,.72-.24,11,11,0,0,0,4.584-7.656h3.744ZM33.6-4.56a.886.886,0,0,0,.912-.936.868.868,0,0,0-.888-.936H32.592v-7.776h1.2a.907.907,0,0,0,.888-.984.915.915,0,0,0-.888-1.008h-.024l-1.176.024v-2.16a.933.933,0,0,0-1.008-.912.941.941,0,0,0-1.032.912v2.16h-3.12v-2.16a.933.933,0,0,0-1.008-.912.941.941,0,0,0-1.032.912v2.16L24.36-16.2h-.024a.957.957,0,0,0-.984.984.962.962,0,0,0,.984,1.008h1.056v7.776H23.928a.9.9,0,0,0-.96.936.912.912,0,0,0,.96.936ZM24.144,1.08c1.152,0,3.768-3.192,3.768-4.032A1.223,1.223,0,0,0,26.736-4.1a.833.833,0,0,0-.744.432A8.155,8.155,0,0,1,23.376-.864a1.044,1.044,0,0,0-.528.84A1.266,1.266,0,0,0,24.144,1.08ZM37.512-13.608c0-.84,0-1.656.024-2.4,0-.792.6-.792,1.848-.792,1.2,0,1.56.144,1.584.792.024.72.048,1.536.048,2.4ZM41.04-8.352H37.488c.024-.5.048-.984.048-1.44,0-.6-.024-1.152-.024-1.632v-.144H41.04ZM30.552-12.768h-3.12v-1.464h3.12Zm0,3.1h-3.12V-11.04h3.12Zm0,3.264h-3.12V-7.944h3.12ZM51.96-1.7A13.681,13.681,0,0,1,46.248-.336,1.129,1.129,0,0,0,45.024.744,1.146,1.146,0,0,0,46.3,1.824,18.3,18.3,0,0,0,52.9.168a.98.98,0,0,0,.6-.912,1.129,1.129,0,0,0-.552-.96c.744,0,1.488.024,2.232.024S56.688-1.7,57.432-1.7a1.126,1.126,0,0,0-.6.96.953.953,0,0,0,.624.888,20.393,20.393,0,0,0,6.5,1.608A1.169,1.169,0,0,0,65.232.6,1.116,1.116,0,0,0,64.056-.5a16.624,16.624,0,0,1-5.664-1.2c.408,0,.816-.024,1.2-.024,1.512-.024,2.352-.816,2.4-1.728.048-.864.072-1.752.072-2.616s-.024-1.728-.072-2.52a.639.639,0,0,0-.072-.288h.12a2.743,2.743,0,0,0,2.736-1.3,4.208,4.208,0,0,0,.408-1.512c0-1.032-.936-1.464-2.016-1.464h-4.56v-1.032h3.216c2.136-.024,2.256-.672,2.256-2.016,0-1.2-.072-1.992-2.256-1.992H58.632l.024-.7v-.024a1.033,1.033,0,0,0-1.08-1.032,1.025,1.025,0,0,0-1.08,1.056v.7H54v-.648A1.078,1.078,0,0,0,52.872-19.9a.989.989,0,0,0-1.056.984v.072l.024.648c-1.752,0-3.36-.024-4.56-.024a.806.806,0,0,0-.864.816.782.782,0,0,0,.84.792c1.224,0,2.88-.024,4.656-.024V-15.6c-1.224,0-2.328.024-3.1.024-1.392,0-1.9.1-2.376.888a4.471,4.471,0,0,0-.48,1.776c0,.816.456,1.152,2.064,1.152h2.424c-.912.768-2.352,1.248-4.656,1.464a.834.834,0,0,0-.744.912.977.977,0,0,0,.96,1.032A19.028,19.028,0,0,0,48.7-8.88a1.262,1.262,0,0,0-.1.408c-.048.864-.072,1.728-.072,2.64,0,.768.024,1.584.072,2.4.048.96.84,1.68,2.5,1.7Zm9.192-14.9c.408,0,.576.1.576.528,0,.36-.072.5-.576.5H58.608v-1.032Zm1.464,4.824c.216,0,.336.072.336.216a1.1,1.1,0,0,1-1.032,1.032,9.8,9.8,0,0,1-1.632-.288c-.072,0-.12-.024-.192-.024a.856.856,0,0,0-.84.672l-.744-.024a.887.887,0,0,0,.144-.5l-.024-1.08ZM56.5-15.576h-2.52c.024-.336.048-.7.048-1.056H56.5Zm0,2.424H53.568c.1-.336.168-.672.24-1.032H56.5Zm0,2.448a.875.875,0,0,0,.12.5c-1.752,0-3.432,0-5.112.024a5.539,5.539,0,0,0,1.488-1.608h3.5Zm-4.728-3.48a4.329,4.329,0,0,1-.312,1.032h-2.4c-.432,0-.6-.12-.6-.432,0-.6.288-.6.816-.6Zm8.088,6.432H50.664v-.216c.024-.36.216-.744.936-.768,1.1-.024,2.376-.048,3.648-.048s2.544.024,3.624.048c.744.024.96.288.984.72ZM59.9-5.52H50.616V-6.5H59.9Zm-.048,1.536c-.024.528-.36.72-.96.744-1.152.024-2.424.024-3.672.024s-2.472,0-3.576-.024c-.672-.024-.96-.216-.984-.744v-.288h9.192ZM83.4-2.184c0,.816-.36,1.32-1.584,1.32A7.806,7.806,0,0,1,80.3-1.032a.9.9,0,0,0-.24-.024,1.027,1.027,0,0,0-1.032,1.1c0,1.224,1.224,1.416,2.808,1.416,2.9,0,3.912-1.536,3.912-3.216V-1.8L85.7-5.088c-.048-2.64,0-7.416-.072-10.944A2.774,2.774,0,0,0,82.776-18.7c-1.9-.048-3.6-.072-5.28-.072-1.92,0-3.816.024-5.88.072-2.184.048-3.12.936-3.12,2.928v.072c.024,1.32.072,2.9.072,4.608,0,3.888-.312,8.28-2.184,10.8a1.218,1.218,0,0,0-.24.7,1.177,1.177,0,0,0,1.224,1.1c1.92,0,2.976-4.3,3.288-7.464H75.72V0A1.107,1.107,0,0,0,76.9,1.128,1.1,1.1,0,0,0,78.048,0V-5.952H83.4ZM78.024-13.32V-16.7c1.3,0,2.592,0,3.888.048A1.286,1.286,0,0,1,83.3-15.264c.024.576.024,1.248.048,1.944ZM83.4-7.992H78.048l-.024-3.288H83.4ZM75.744-13.32h-4.9v-2.16A1.043,1.043,0,0,1,72-16.656c1.272-.024,2.52-.048,3.744-.048ZM75.72-7.992H70.8c.048-1.1.072-2.232.072-3.288h4.872Z" transform="translate(586.632 552.09)" fill="#595857"/>
    <path id="パス_522" data-name="パス 522" d="M18.036.684c8.712,0,9.036-9.792,9.036-13.86,0-1.548-.108-3.132-.252-4.716-.576-6.012-3.96-9.324-8.784-9.324-4.9,0-8.352,3.456-8.856,9.72C9.072-16.128,9-14.832,9-13.536c0,1.62.108,3.2.252,4.86C9.828-2.628,13.248.684,18.036.684Zm0-3.78c-2.34,0-4.284-2.124-4.716-5.8a37.293,37.293,0,0,1-.252-4.5c0-1.3.072-2.628.18-3.96.36-3.852,2.268-6.156,4.788-6.156,4.932,0,4.932,7.128,4.932,9.9a38.4,38.4,0,0,1-.324,5.076C22.14-5.112,20.268-3.1,18.036-3.1ZM60.624-3.42c0,1.584-1.08,2.052-2.52,2.052a12.843,12.843,0,0,1-2.232-.252,1,1,0,0,0-.324-.036A1.607,1.607,0,0,0,54.036.108C54.036,2.016,55.8,2.16,58,2.16c4.86,0,6.336-2.7,6.336-4.824v-.072L64.26-7.812c-.072-4.068,0-9.972-.144-15.264a4.3,4.3,0,0,0-4.392-4.1c-2.88-.072-6.084-.072-9.252-.072s-6.264,0-9.036.072c-2.736.036-4.5,1.548-4.536,3.816-.036,2.232-.216,12.852-.216,24.444a1.693,1.693,0,0,0,1.872,1.584,1.649,1.649,0,0,0,1.8-1.584V1.044c-.036-3.024-.036-6.012-.036-8.928v-3.6h20.3ZM52.308-14.58v-9.576c1.98,0,3.924.036,5.688.072s2.448.324,2.52,2.3.108,4.536.108,7.164Zm-3.6,0-8.352-.036c.036-2.484.036-4.9.108-7.164.036-1.764.576-2.268,2.628-2.3,1.584-.036,3.528-.072,5.616-.072Z" transform="translate(596.669 586.511)" fill="#595857"/>
  </g>
</svg>
