<svg width="112" height="40" viewBox="0 0 112 40" fill="none" xmlns="http://www.w3.org/2000/svg">
<path d="M111.765 0H0V39.9185H111.765V0Z" fill="#D80F18"/>
<path d="M27.0963 6.05825C27.6934 7.73791 25.2807 8.28646 24.1691 8.72822C23.7856 8.87871 23.4021 9.03891 23.0234 9.20882C22.7661 9.32532 22.5282 9.48552 22.2612 9.59232C22.0088 9.68941 21.737 9.72339 21.47 9.78165C20.8777 9.90786 20.2855 10.0535 19.6981 10.2088C18.5184 10.5195 17.3534 10.8691 16.1786 11.1943C15.5087 11.3788 14.8387 11.5584 14.164 11.7234C13.4504 11.8934 12.7222 11.7089 12.1057 11.3545C11.528 11.0244 11.494 10.505 11.2318 9.96126C11.1008 9.68941 11.1202 9.39329 11.3775 9.17969C11.4454 9.12144 11.7416 9.14085 11.8338 9.12629C11.9891 9.10687 12.1445 9.0826 12.295 9.05833C12.6008 9.00978 12.9018 8.95638 13.2076 8.91269C13.5135 8.869 13.8144 8.83017 14.1251 8.81075C14.4601 8.79133 14.7416 8.869 15.0378 8.67482C15.3533 8.47094 15.6543 8.2719 16.0038 8.11656C16.6689 7.82043 17.3873 7.66509 18.1058 7.55829C18.3582 7.51945 18.6107 7.48547 18.8631 7.45635C18.9942 7.44178 19.1398 7.46606 19.266 7.42722C19.4165 7.38353 19.4602 7.301 19.5864 7.20877C19.8437 7.01944 20.1981 7.01459 20.4554 6.82041C21.1836 6.25243 22.1544 6.04369 22.737 5.33493C23.1545 4.99997 23.6885 4.85919 24.2225 4.83007C24.7856 4.80094 25.3584 4.7621 25.8681 5.03396C26.339 5.28639 26.9215 5.52426 27.106 6.06311" fill="white"/>
<path d="M46.9955 14.7671C47.0732 14.5001 47.1363 14.2185 47.1363 13.937C47.1363 13.6457 46.9615 13.3933 46.9373 13.1069C46.9227 12.8787 47.0538 12.6263 46.7771 12.5001C46.1945 12.102 45.6605 12.7379 45.078 12.8302C44.6023 13.0583 44.243 13.4661 43.845 13.7962C43.5634 14.0292 43.2139 14.1506 42.9129 14.3545C42.6265 14.5438 42.4032 14.8108 42.1216 15.0147C41.5197 15.4516 40.8206 15.7283 40.1992 16.1312C39.6749 16.471 38.4856 16.3351 37.9079 16.2283C36.8593 16.0341 35.937 15.5244 34.9564 15.1409C34.5292 14.971 34.0826 14.8399 33.6894 14.5972C33.2379 14.3205 32.9903 13.8253 32.5437 13.5341C32.1408 13.2719 31.7379 13.0389 31.8544 12.4952C32.2185 12.1166 32.7282 12.0486 33.2136 11.9321C34.8884 11.6262 36.7089 11.8641 38.3351 11.3204C39.2575 11.0874 40.2284 10.8738 41.1264 10.568C41.3643 10.4854 41.6119 10.3738 41.8643 10.2913C42.1362 10.2039 42.3109 10.0048 42.5634 9.88349C43.1216 9.61163 43.709 9.77183 44.2722 9.62134C45.0634 9.4126 45.8499 9.17473 46.6314 8.93201C47.0829 8.79123 47.5295 8.60676 47.9955 8.49996C48.3645 8.41743 48.7528 8.42228 49.0829 8.2184C49.8839 7.71838 50.8937 7.94169 51.7384 7.57275C52.452 7.26206 53.2578 6.95623 54.02 6.77176C54.418 6.67467 54.8258 6.62612 55.2336 6.67952C55.9181 6.7669 56.6317 6.93196 57.3113 7.07274C57.889 7.18924 58.4812 7.27663 59.0007 7.56789C59.2822 7.72809 59.5104 7.96596 59.6512 8.25238C59.69 8.62132 59.5589 8.97084 59.3987 9.29609C59.3162 9.46115 59.2191 9.62134 59.1317 9.78154C58.8405 10.2961 58.3647 10.4175 57.8162 10.5583C57.2628 10.7039 56.6899 10.7573 56.1268 10.6311C55.8307 10.5631 55.5248 10.4223 55.287 10.233C54.3209 9.63591 53.1461 9.80096 52.0976 10.0631C51.9519 10.0971 51.8112 10.1408 51.6704 10.1845C51.515 10.2379 51.3743 10.2573 51.248 10.3592C51.1267 10.4515 51.0053 10.5291 50.8694 10.5971C50.5199 10.7816 50.214 10.9369 50.2189 11.3544C50.2189 11.8496 50.1315 12.4224 50.3403 12.8933C50.8014 13.835 50.1946 14.7768 50.6315 15.7186C50.8257 16.9905 51.2141 18.7818 51.1655 20.243C51.1655 22.2721 51.3354 24.7916 51.6752 26.7431C51.7529 27.1946 51.8985 27.6364 52.0102 28.0781C52.0782 28.3548 52.0976 28.6412 52.1655 28.9228C52.3112 29.5199 52.4568 29.9568 52.4277 30.583C52.3986 31.2966 52.3112 32.0054 52.2044 32.7093C52.0879 33.486 51.8403 34.2482 51.0442 34.588C50.2626 35.4181 48.8791 35.2628 47.8887 34.9424C47.4616 34.8064 46.9324 34.2142 46.714 33.8404C46.5829 33.6122 46.6023 33.3355 46.5392 33.0831C46.3839 32.4326 46.1071 31.8209 46.3353 31.1462C46.8208 25.7285 47.3062 20.5925 47.0149 15.1943" fill="white"/>
<path d="M19.8683 12.4661C20.3538 12.9855 20.5722 13.5972 20.8635 14.2089C21.1111 14.4759 21.4266 14.4564 21.747 14.3399C22.0237 14.238 22.3296 14.1943 22.5674 14.0098C22.8053 13.8254 22.9995 13.5778 23.2228 13.3836C23.7131 12.9564 24.2325 12.5632 24.8684 12.3642C25.2422 12.2428 25.6306 12.1942 26.0238 12.2331C26.6549 12.4661 27.4559 12.4467 27.7714 13.0826C28.0627 13.4855 27.9899 13.9564 27.8442 14.3788C27.286 15.4856 25.9025 15.8885 24.9316 16.5924C24.1548 16.9905 23.1111 17.2769 22.7228 18.1216C22.6985 19.4663 23.815 20.5488 24.6888 21.3255C26.0238 22.6702 27.2617 24.7188 29.0579 25.5198C29.587 25.7577 30.0288 26.2383 30.4754 26.5927C30.7181 26.7868 30.9705 26.9713 31.2424 27.1266C31.5482 27.2966 31.8783 27.3597 32.1744 27.5538C32.4706 27.748 32.8492 27.8354 33.0871 28.1073C33.1842 28.2141 33.3444 28.2383 33.4657 28.3014C33.7279 28.4374 33.9026 28.7092 34.2085 28.7675C34.3784 28.8014 34.524 28.7675 34.6842 28.8354C34.8396 28.9034 34.9901 29.0345 35.1308 29.1267C35.8056 29.5587 36.4998 29.9617 37.262 30.2335C37.5532 30.3355 37.8736 30.3549 38.1697 30.4617C38.4513 30.5636 38.6309 30.7821 38.8736 30.9471C39.2863 31.2287 39.8445 31.4811 40.0436 31.9666C40.1747 32.2821 40.0047 32.7578 39.7911 33.0103C39.4902 33.3647 38.9416 33.4569 38.5047 33.5249C38.0581 33.5928 37.6018 33.7919 37.1552 33.8404C36.9076 33.8647 36.6551 33.8647 36.4076 33.8792C35.8736 33.9181 35.3444 33.9715 34.8153 34.0249C33.7424 34.1317 32.6647 34.2385 31.5822 34.219C30.99 34.2093 30.3006 34.2967 29.7666 33.9957C29.0385 33.588 28.3782 32.9812 27.7083 32.486C26.8297 31.8355 26.2326 30.9374 25.6063 30.0588C24.951 29.1413 24.3199 28.2043 23.6597 27.2917C23.1257 26.5538 22.5917 25.7043 21.8684 25.1266C21.6111 24.9227 21.4412 24.6363 21.1887 24.4275C20.9703 24.2431 20.7713 24.044 20.5819 23.8353C20.1887 23.4081 19.7761 23.0246 19.1596 22.9712C18.9314 23.3062 18.7712 23.6848 18.679 24.0732C18.6159 24.3402 18.6304 24.612 18.5819 24.879C18.543 25.1023 18.4557 25.3159 18.4168 25.5392C18.3246 26.0198 18.3197 26.5393 18.0673 26.9762C17.9168 27.2383 17.8294 27.4567 17.7566 27.7529C17.6838 28.0441 17.5333 28.3597 17.4168 28.6364C17.3488 28.7917 17.2421 28.9325 17.1692 29.0879C17.0382 29.3694 16.9653 29.6753 16.8148 29.952C16.6449 30.2675 16.4605 30.5733 16.2566 30.8695C15.8488 31.4617 15.3779 32.0151 14.8682 32.5248C14.5818 32.8112 14.2808 33.088 13.975 33.3549C13.7322 33.5637 13.5284 33.7919 13.2468 33.9569C12.9604 34.122 12.64 34.1851 12.3244 34.2822C11.6594 34.486 11.0526 34.7773 10.3438 34.8113C9.92147 34.8307 9.50885 34.7142 9.1399 34.52C8.98456 34.4375 8.70785 34.4472 8.52823 34.3841C8.31949 34.3064 8.11074 34.1996 7.93113 34.0686C7.72724 33.9229 7.51851 33.7579 7.36802 33.5588C7.28549 33.4472 7.21267 33.3307 7.19325 33.1948C7.14956 32.9083 7.20297 32.8112 7.01849 32.5685C6.77577 32.2578 6.90683 32.0491 6.83887 31.7141C6.80488 31.5539 6.72722 31.3986 6.71266 31.2335C6.68839 30.9617 6.92626 30.7529 7.07675 30.5539C7.24665 30.3306 7.39714 30.0927 7.68356 30.0005C8.00881 29.8937 8.46998 29.9034 8.80008 29.9714C8.98941 30.0102 9.17388 30.0733 9.33408 30.1753C9.60108 30.3355 9.71759 30.5733 10.0526 30.384C10.305 30.2432 10.4506 29.9811 10.6691 29.7966C10.8341 29.6558 10.8972 29.4277 11.0623 29.2772C11.2467 29.1073 11.4166 28.9228 11.572 28.7238C11.8875 28.3208 12.1303 27.8645 12.2953 27.3839C13.1691 26.4859 13.2662 25.2188 12.9264 23.9906C12.0283 23.9227 11.0817 24.3693 10.1351 24.0635C9.50398 23.6168 8.58163 23.379 8.26609 22.6945C7.82918 22.2479 7.4651 21.6799 7.39228 21.044C7.65928 20.3401 8.67873 20.5488 9.26127 20.4323C9.79526 20.2187 10.4263 20.1702 10.9603 19.9129C11.2613 19.7672 11.6157 19.7236 11.9264 19.5585C12.2274 19.3983 12.5138 19.209 12.8002 19.0245C13.0866 18.84 13.3779 18.6604 13.6934 18.5245C14.0284 18.3789 14.3973 18.3303 14.7274 18.1604C15.009 18.0148 15.2663 17.806 15.5139 17.607C16.0236 17.1992 16.4168 16.6215 16.3294 15.9565C16.3003 15.7332 16.1886 15.5293 16.1886 15.2817C16.1886 15.039 16.2372 14.8011 16.2906 14.5632C16.344 14.3254 16.4022 14.0923 16.4265 13.8496C16.4702 13.4904 16.3731 13.2477 16.5964 12.9224C16.7954 12.636 17.0867 12.403 17.4168 12.2768C17.6838 12.1748 18.0139 12.2282 18.2906 12.2331C18.5188 12.2331 18.8052 12.0826 19.0236 12.1408C19.1547 12.1797 19.2518 12.2913 19.3974 12.3302C19.5576 12.369 19.7275 12.3593 19.8635 12.4661" fill="white"/>
<path d="M70.1507 24.2189L70.0681 24.2286C70.005 24.0344 69.8885 23.8791 69.704 23.7723C69.5244 23.6655 69.2963 23.6121 69.0293 23.6121C68.6215 23.6121 68.3059 23.7528 68.0778 24.0295C67.8496 24.3063 67.7379 24.6995 67.7379 25.1995C67.7379 25.7432 67.8545 26.1558 68.0875 26.4374C68.3205 26.7238 68.6555 26.8646 69.0972 26.8646C69.2865 26.8646 69.4807 26.8306 69.6701 26.7578C69.8643 26.6849 70.039 26.5879 70.1944 26.4568L70.2623 26.4714L70.1312 26.9325C69.9516 27.0199 69.7623 27.083 69.5633 27.1267C69.3642 27.1704 69.1603 27.1898 68.9419 27.1898C68.2768 27.1898 67.7622 27.0151 67.3933 26.6704C67.0243 26.3257 66.8398 25.8403 66.8398 25.2189C66.8398 24.6315 67.0389 24.1606 67.437 23.8062C67.835 23.4519 68.3642 23.2771 69.0341 23.2771C69.2429 23.2771 69.4516 23.3014 69.6604 23.3451C69.8691 23.3888 70.0778 23.4567 70.2963 23.5538C70.2623 23.6557 70.2332 23.7577 70.2089 23.8693C70.1846 23.981 70.1652 24.0975 70.1507 24.2189Z" fill="white"/>
<path d="M71.3799 25.8015C71.3799 26.219 71.4236 26.5151 71.5158 26.685C71.6081 26.8549 71.7537 26.9423 71.9673 26.9423C72.1809 26.9423 72.3314 26.8549 72.4236 26.685C72.5159 26.5151 72.5596 26.219 72.5596 25.8064C72.5596 25.3937 72.5159 25.0927 72.4236 24.9228C72.3314 24.7481 72.1809 24.6607 71.9673 24.6607C71.7537 24.6607 71.6081 24.7481 71.5158 24.918C71.4285 25.0879 71.3799 25.384 71.3799 25.8064V25.8015ZM70.5449 25.8064C70.5449 25.3694 70.6711 25.0248 70.9236 24.7821C71.176 24.5393 71.5255 24.418 71.9722 24.418C72.4188 24.418 72.778 24.5393 73.0208 24.7772C73.2683 25.0199 73.3897 25.3597 73.3897 25.8064C73.3897 26.253 73.2635 26.5831 73.0159 26.8258C72.7635 27.0685 72.4188 27.1899 71.9673 27.1899C71.5158 27.1899 71.1663 27.0685 70.9187 26.8258C70.6711 26.5831 70.5449 26.2433 70.5449 25.8064Z" fill="white"/>
<path d="M73.8887 27.1171C73.8984 26.8258 73.9081 26.5637 73.9129 26.3452C73.9178 26.1219 73.9226 25.9423 73.9226 25.7967C73.9226 25.651 73.9226 25.4714 73.9129 25.2578C73.9081 25.0394 73.8984 24.7821 73.8887 24.486C73.9518 24.4908 74.01 24.5005 74.078 24.5005C74.1411 24.5005 74.2139 24.5054 74.2867 24.5054C74.3644 24.5054 74.4372 24.5054 74.5003 24.5005C74.5634 24.5005 74.6266 24.4908 74.68 24.486V24.85C74.7965 24.7044 74.9227 24.5928 75.0538 24.5296C75.1897 24.4617 75.3402 24.4277 75.5101 24.4277C75.6994 24.4277 75.8645 24.4714 75.9956 24.5588C76.1315 24.6462 76.2286 24.7724 76.2965 24.9374C76.4082 24.7627 76.5344 24.6364 76.6849 24.5491C76.8305 24.4665 77.0053 24.4229 77.1995 24.4229C77.3354 24.4229 77.4616 24.4423 77.5684 24.4908C77.6801 24.5345 77.7723 24.5976 77.85 24.6898C77.9277 24.7772 77.9811 24.8889 78.0151 25.0248C78.0442 25.1656 78.0636 25.4132 78.0636 25.7724V26.1122C78.0636 26.2676 78.0636 26.4278 78.0685 26.5928C78.0685 26.7579 78.0782 26.9326 78.0879 27.1171C78.0054 27.1074 77.9277 27.1025 77.8597 27.0977C77.7918 27.0977 77.7238 27.0928 77.6607 27.0928C77.5976 27.0928 77.5296 27.0928 77.4616 27.0977C77.3937 27.0977 77.3209 27.1074 77.248 27.1171C77.2626 26.8792 77.2772 26.6559 77.2869 26.452C77.2966 26.2481 77.3014 26.0588 77.3014 25.8792C77.3014 25.4666 77.2675 25.1996 77.1995 25.0734C77.1315 24.9471 77.015 24.884 76.8451 24.884C76.6752 24.884 76.5587 24.9471 76.4859 25.0734C76.413 25.1996 76.3791 25.4229 76.3791 25.7481V26.6171C76.3791 26.6996 76.3839 26.8501 76.3985 27.0637C76.3985 27.088 76.3985 27.1074 76.3985 27.1171C76.3208 27.1074 76.2431 27.1025 76.1752 27.0977C76.1072 27.0977 76.0392 27.0928 75.9761 27.0928C75.913 27.0928 75.8451 27.0928 75.7771 27.1025C75.7091 27.1025 75.6363 27.1122 75.5538 27.1219C75.5684 26.9132 75.5781 26.7142 75.5878 26.5248C75.5926 26.3307 75.5975 26.151 75.5975 25.9763C75.5975 25.4957 75.5635 25.1947 75.5004 25.0685C75.4373 24.9471 75.3159 24.884 75.146 24.884C74.9761 24.884 74.8596 24.9471 74.7916 25.0734C74.7237 25.1996 74.6848 25.4229 74.6848 25.7481V26.6171C74.6848 26.7045 74.6897 26.8549 74.7042 27.0685C74.7042 27.0928 74.7042 27.1074 74.7042 27.1219C74.6363 27.1122 74.5634 27.1074 74.5003 27.1025C74.4324 27.1025 74.3644 27.0977 74.3013 27.0977C74.2382 27.0977 74.1751 27.0977 74.112 27.1025C74.044 27.1025 73.9712 27.1122 73.8887 27.1219" fill="white"/>
<path d="M78.8066 27.1171C78.8163 26.8258 78.8261 26.5637 78.8309 26.3452C78.8358 26.1219 78.8406 25.9423 78.8406 25.7967C78.8406 25.651 78.8406 25.4714 78.8309 25.2578C78.8261 25.0394 78.8163 24.7821 78.8066 24.486C78.8697 24.4908 78.928 24.5005 78.996 24.5005C79.0591 24.5005 79.1319 24.5054 79.2047 24.5054C79.2824 24.5054 79.3552 24.5054 79.4183 24.5005C79.4814 24.5005 79.5445 24.4908 79.5979 24.486V24.85C79.7144 24.7044 79.8407 24.5928 79.9717 24.5296C80.1076 24.4617 80.2581 24.4277 80.428 24.4277C80.6174 24.4277 80.7824 24.4714 80.9135 24.5588C81.0494 24.6462 81.1465 24.7724 81.2145 24.9374C81.3261 24.7627 81.4523 24.6364 81.6028 24.5491C81.7484 24.4665 81.9232 24.4229 82.1174 24.4229C82.2533 24.4229 82.3795 24.4423 82.4863 24.4908C82.598 24.5345 82.6902 24.5976 82.7679 24.6898C82.8456 24.7772 82.899 24.8889 82.9329 25.0248C82.9621 25.1656 82.9815 25.4132 82.9815 25.7724V26.1122C82.9815 26.2676 82.9815 26.4278 82.9863 26.5928C82.9863 26.7579 82.9961 26.9326 83.0058 27.1171C82.9232 27.1074 82.8456 27.1025 82.7776 27.0977C82.7096 27.0977 82.6417 27.0928 82.5786 27.0928C82.5155 27.0928 82.4475 27.0928 82.3795 27.0977C82.3116 27.0977 82.2388 27.1074 82.1659 27.1171C82.1805 26.8792 82.1951 26.6559 82.2048 26.452C82.2145 26.2481 82.2193 26.0588 82.2193 25.8792C82.2193 25.4666 82.1853 25.1996 82.1174 25.0734C82.0494 24.9471 81.9329 24.884 81.763 24.884C81.5931 24.884 81.4766 24.9471 81.4038 25.0734C81.331 25.1996 81.297 25.4229 81.297 25.7481V26.6171C81.297 26.6996 81.3018 26.8501 81.3164 27.0637C81.3164 27.088 81.3164 27.1074 81.3164 27.1171C81.2387 27.1074 81.1611 27.1025 81.0931 27.0977C81.0251 27.0977 80.9572 27.0928 80.8941 27.0928C80.831 27.0928 80.763 27.0928 80.695 27.1025C80.6271 27.1025 80.5543 27.1122 80.4717 27.1219C80.4863 26.9132 80.496 26.7142 80.5057 26.5248C80.5106 26.3307 80.5154 26.151 80.5154 25.9763C80.5154 25.4957 80.4814 25.1947 80.4183 25.0685C80.3552 24.9471 80.2339 24.884 80.064 24.884C79.8941 24.884 79.7775 24.9471 79.7096 25.0734C79.6416 25.1996 79.6028 25.4229 79.6028 25.7481V26.6171C79.6028 26.7045 79.6076 26.8549 79.6222 27.0685C79.6222 27.0928 79.6222 27.1074 79.6222 27.1219C79.5542 27.1122 79.4814 27.1074 79.4183 27.1025C79.3503 27.1025 79.2824 27.0977 79.2193 27.0977C79.1562 27.0977 79.0931 27.0977 79.03 27.1025C78.962 27.1025 78.8892 27.1122 78.8066 27.1219" fill="white"/>
<path d="M84.3701 25.8015C84.3701 26.219 84.4138 26.5151 84.5061 26.685C84.5983 26.8549 84.7439 26.9423 84.9575 26.9423C85.1711 26.9423 85.3216 26.8549 85.4139 26.685C85.5061 26.5151 85.5498 26.219 85.5498 25.8064C85.5498 25.3937 85.5061 25.0927 85.4139 24.9228C85.3216 24.7481 85.1711 24.6607 84.9575 24.6607C84.7439 24.6607 84.5983 24.7481 84.5061 24.918C84.4187 25.0879 84.3701 25.384 84.3701 25.8064V25.8015ZM83.5352 25.8064C83.5352 25.3694 83.6614 25.0248 83.9138 24.7821C84.1662 24.5393 84.5158 24.418 84.9624 24.418C85.409 24.418 85.7634 24.5393 86.011 24.7772C86.2585 25.0199 86.3799 25.3597 86.3799 25.8064C86.3799 26.253 86.2537 26.5831 86.0061 26.8258C85.7537 27.0685 85.409 27.1899 84.9575 27.1899C84.5061 27.1899 84.1565 27.0685 83.9089 26.8258C83.6614 26.5831 83.5352 26.2433 83.5352 25.8064Z" fill="white"/>
<path d="M86.8789 27.1171C86.8935 26.8744 86.9032 26.6462 86.9129 26.4278C86.9226 26.2093 86.9226 26.0054 86.9226 25.8064C86.9226 25.5831 86.9226 25.3598 86.9129 25.1413C86.9032 24.9229 86.8935 24.7044 86.8789 24.486C86.9372 24.4908 87.0003 24.5006 87.0634 24.5006C87.1265 24.5006 87.1945 24.5054 87.2673 24.5054C87.3401 24.5054 87.4081 24.5054 87.4712 24.5006C87.5343 24.5006 87.5925 24.4908 87.6459 24.486V24.8646C87.7624 24.7141 87.8935 24.6074 88.0343 24.5345C88.1799 24.4617 88.3401 24.4277 88.5198 24.4277C88.6557 24.4277 88.7868 24.452 88.8984 24.4957C89.0149 24.5442 89.1072 24.6073 89.1897 24.6947C89.2528 24.7675 89.2965 24.8549 89.3256 24.9617C89.3499 25.0637 89.3644 25.2481 89.3644 25.5006C89.3644 25.5346 89.3644 25.6316 89.3644 25.7821C89.3644 25.9375 89.3644 26.0685 89.3644 26.1851C89.3644 26.355 89.3645 26.52 89.3742 26.6705C89.379 26.821 89.3887 26.9715 89.4033 27.1123C89.3256 27.1026 89.2479 27.0977 89.18 27.0928C89.112 27.0928 89.0441 27.088 88.9809 27.088C88.9178 27.088 88.8499 27.088 88.7819 27.0928C88.7139 27.0928 88.6411 27.1026 88.5634 27.1123C88.578 26.9569 88.5877 26.7676 88.5974 26.554C88.6071 26.3404 88.612 26.0977 88.612 25.8307C88.612 25.4326 88.578 25.1753 88.5149 25.0588C88.4518 24.9423 88.3304 24.8841 88.1605 24.8841C87.9906 24.8841 87.8644 24.952 87.7916 25.0928C87.7187 25.2287 87.6799 25.4617 87.6799 25.7918C87.6799 25.9472 87.6799 26.1317 87.6896 26.355C87.6945 26.5734 87.7042 26.8307 87.7139 27.1171C87.6459 27.1074 87.5731 27.1026 87.5051 27.0977C87.4372 27.0977 87.3692 27.0928 87.3061 27.0928C87.243 27.0928 87.175 27.0928 87.1119 27.0977C87.044 27.0977 86.9711 27.1074 86.8935 27.1171" fill="white"/>
<path d="M90.9433 27.117C90.7831 26.515 90.5986 25.8985 90.4045 25.2723C90.2103 24.646 89.9967 24.0052 89.7637 23.3547C89.8365 23.3644 89.9093 23.3693 89.9918 23.3693C90.0744 23.3693 90.1569 23.3742 90.2491 23.3742C90.3414 23.3742 90.4239 23.3742 90.5016 23.3693C90.5792 23.3693 90.652 23.3596 90.7249 23.3547C90.8317 23.8159 90.953 24.2771 91.0792 24.7334C91.2055 25.1946 91.3414 25.6509 91.487 26.1024C91.6666 25.6024 91.8365 25.1266 91.9967 24.6752C92.1569 24.2237 92.3074 23.7819 92.453 23.3547C92.4967 23.3644 92.5404 23.3693 92.589 23.3693C92.6327 23.3693 92.6812 23.3742 92.7346 23.3742C92.788 23.3742 92.8414 23.3742 92.8899 23.3693C92.9385 23.3693 92.9822 23.3596 93.0259 23.3547C93.1569 23.7916 93.3026 24.2334 93.4531 24.6849C93.6036 25.1363 93.7637 25.5975 93.9337 26.0635C94.0939 25.6218 94.2395 25.1752 94.3803 24.7286C94.5162 24.2771 94.6473 23.8208 94.7638 23.3547C94.8026 23.3644 94.8415 23.3693 94.8851 23.3693C94.9288 23.3693 94.9725 23.3742 95.0259 23.3742C95.0793 23.3742 95.123 23.3742 95.1618 23.3693C95.2007 23.3644 95.2444 23.3596 95.2832 23.3547C95.0793 23.913 94.8754 24.5052 94.6618 25.1266C94.4482 25.7529 94.2298 26.4131 93.9968 27.117C93.9434 27.1073 93.8948 27.1024 93.8463 27.0975C93.7977 27.0975 93.7492 27.0927 93.7055 27.0927C93.6618 27.0927 93.6181 27.0927 93.5696 27.0975C93.521 27.0975 93.4676 27.1073 93.4142 27.117C93.2832 26.6898 93.1424 26.2577 92.9919 25.816C92.8414 25.3742 92.6764 24.9179 92.5016 24.4518C92.3317 24.8693 92.1666 25.3014 92.0064 25.748C91.8462 26.1946 91.686 26.6509 91.5307 27.117C91.4773 27.1073 91.4288 27.1024 91.3802 27.0975C91.3317 27.0975 91.288 27.0927 91.2394 27.0927C91.1909 27.0927 91.1472 27.0927 91.1035 27.0975C91.055 27.0975 91.0064 27.1073 90.953 27.117" fill="white"/>
<path d="M96.2246 25.5345H97.1858C97.1858 25.5345 97.1858 25.4908 97.1858 25.4617C97.1858 25.4325 97.1858 25.4131 97.1858 25.4034C97.1858 25.1558 97.147 24.9665 97.0742 24.8403C97.0014 24.7141 96.8897 24.651 96.7441 24.651C96.579 24.651 96.448 24.7238 96.3557 24.8694C96.2635 25.015 96.2198 25.2189 96.2198 25.4908V25.5393L96.2246 25.5345ZM96.2246 25.8063C96.2246 26.1219 96.3023 26.3743 96.4577 26.5636C96.613 26.7481 96.8217 26.8452 97.0887 26.8452C97.2198 26.8452 97.346 26.8258 97.4674 26.7821C97.5887 26.7384 97.7052 26.6753 97.8169 26.5879L97.8703 26.6267L97.7441 26.9374C97.6276 27.02 97.4868 27.0782 97.3266 27.1219C97.1664 27.1656 96.9916 27.185 96.8072 27.185C96.3654 27.185 96.0208 27.0588 95.7683 26.8064C95.5207 26.5539 95.3945 26.2044 95.3945 25.7578C95.3945 25.3549 95.5207 25.0296 95.7683 24.7869C96.0159 24.5393 96.346 24.4131 96.7586 24.4131C97.147 24.4131 97.448 24.5199 97.6518 24.7286C97.8606 24.9374 97.9625 25.2384 97.9625 25.6316C97.9625 25.6801 97.9625 25.7141 97.9625 25.7384C97.9625 25.7626 97.9625 25.7869 97.9625 25.8063H96.2246Z" fill="white"/>
<path d="M99.8213 25.6655C99.5592 25.7189 99.3698 25.7966 99.2533 25.9034C99.1368 26.0102 99.0786 26.1558 99.0786 26.3451C99.0786 26.5005 99.1077 26.6218 99.1659 26.6995C99.2242 26.7772 99.3116 26.816 99.4281 26.816C99.5543 26.816 99.6514 26.7723 99.7194 26.685C99.7873 26.5976 99.8213 26.4714 99.8213 26.3063V25.6655ZM99.8456 26.7675C99.7631 26.8986 99.6563 27.0005 99.5252 27.0733C99.3941 27.1461 99.2436 27.1801 99.0786 27.1801C98.8407 27.1801 98.6514 27.1122 98.5203 26.9762C98.3844 26.8403 98.3164 26.651 98.3164 26.418C98.3164 26.2432 98.365 26.1024 98.462 25.9859C98.5591 25.8743 98.7096 25.782 98.9135 25.7189C98.9815 25.6995 99.0737 25.6655 99.1999 25.6315C99.4961 25.5442 99.6999 25.4665 99.8067 25.3937V25.3597C99.8067 25.3597 99.8116 25.3257 99.8116 25.3014C99.8116 25.1364 99.763 25.0005 99.666 24.9034C99.5689 24.8063 99.4378 24.7577 99.2776 24.7577C99.1514 24.7577 99.0349 24.7917 98.9281 24.8597C98.8261 24.9276 98.729 25.0344 98.6368 25.1801C98.6077 25.0927 98.5834 25.0247 98.5688 24.9713C98.5494 24.9179 98.53 24.8694 98.5154 24.8257C98.6853 24.6849 98.8504 24.5781 99.0155 24.5101C99.1805 24.4422 99.3504 24.4082 99.53 24.4082C99.8698 24.4082 100.132 24.4859 100.312 24.6364C100.496 24.7869 100.583 25.0053 100.583 25.2917V25.3208L100.564 26.282V26.3888C100.564 26.6121 100.588 26.7578 100.642 26.8209C100.69 26.884 100.792 26.918 100.938 26.918H100.957V27.0539C100.86 27.0927 100.763 27.1219 100.656 27.1461C100.554 27.1655 100.452 27.1753 100.36 27.1753C100.224 27.1753 100.113 27.1413 100.025 27.0733C99.9378 27.0054 99.8796 26.9083 99.8504 26.7772" fill="white"/>
<path d="M101.336 27.117C101.351 26.8063 101.36 26.4811 101.37 26.1461C101.375 25.8063 101.38 25.4471 101.38 25.0636C101.38 24.6558 101.38 24.282 101.37 23.9422C101.36 23.6024 101.351 23.2868 101.336 22.9858C101.428 23.0004 101.506 23.0101 101.569 23.015C101.632 23.0198 101.695 23.0247 101.758 23.0247C101.821 23.0247 101.884 23.0247 101.952 23.015C102.02 23.0101 102.098 23.0004 102.181 22.9858C102.166 23.2965 102.156 23.6218 102.147 23.9567C102.142 24.2917 102.137 24.6558 102.137 25.0393C102.137 25.4471 102.137 25.8209 102.147 26.1607C102.156 26.5005 102.166 26.816 102.181 27.117C102.117 27.1024 102.05 27.0976 101.982 27.0879C101.914 27.083 101.836 27.0782 101.763 27.0782C101.69 27.0782 101.617 27.0782 101.545 27.0879C101.477 27.0927 101.404 27.1024 101.336 27.117Z" fill="white"/>
<path d="M102.958 24.7918H102.856C102.778 24.7918 102.725 24.7918 102.681 24.7918C102.642 24.7918 102.603 24.7918 102.574 24.7918C102.574 24.7724 102.579 24.753 102.579 24.7336C102.579 24.7142 102.579 24.685 102.579 24.6462C102.579 24.6074 102.579 24.5782 102.579 24.554C102.579 24.5345 102.579 24.5151 102.579 24.5006C102.584 24.5006 102.598 24.5006 102.613 24.5054C102.749 24.52 102.841 24.5248 102.899 24.5248H102.963C102.963 24.4957 102.963 24.4714 102.963 24.4423C102.963 24.4132 102.963 24.3695 102.963 24.3112C102.963 24.2384 102.963 24.1656 102.958 24.0831C102.958 24.0005 102.948 23.9035 102.943 23.7821C103.074 23.7335 103.205 23.6802 103.332 23.6316C103.458 23.5782 103.584 23.52 103.7 23.4666L103.764 23.5102C103.754 23.719 103.744 23.8937 103.739 24.0345C103.734 24.1753 103.73 24.2821 103.73 24.3549V24.5297C103.832 24.5297 103.929 24.5297 104.021 24.5248C104.113 24.5248 104.196 24.5151 104.283 24.5103C104.278 24.5491 104.273 24.5831 104.273 24.5976C104.273 24.6171 104.273 24.6316 104.273 24.651C104.273 24.6802 104.273 24.7239 104.283 24.7773C104.283 24.787 104.283 24.7918 104.283 24.7918C104.239 24.7918 104.181 24.7918 104.108 24.7918C104.035 24.7918 103.909 24.7918 103.72 24.7918C103.72 24.821 103.72 24.8598 103.72 24.918C103.705 25.2967 103.7 25.5685 103.7 25.7287V25.952C103.7 26.3744 103.72 26.6365 103.764 26.7336C103.807 26.8356 103.89 26.8841 104.011 26.8841C104.074 26.8841 104.181 26.8647 104.336 26.8259V27.0297C104.21 27.0831 104.099 27.122 103.992 27.1462C103.885 27.1705 103.783 27.1851 103.686 27.1851C103.443 27.1851 103.259 27.122 103.132 26.9958C103.006 26.8695 102.943 26.6899 102.943 26.4521C102.943 26.4424 102.943 26.287 102.953 25.9812C102.958 25.6753 102.963 25.3744 102.963 25.0831V24.7918H102.958Z" fill="white"/>
<path d="M104.695 27.117C104.71 26.9228 104.724 26.685 104.729 26.3985C104.734 26.1121 104.739 25.6995 104.739 25.1558C104.739 24.583 104.739 24.1364 104.729 23.816C104.724 23.4956 104.71 23.2189 104.695 22.9858C104.773 23.0004 104.846 23.0101 104.914 23.0198C104.982 23.0295 105.045 23.0295 105.108 23.0295C105.176 23.0295 105.239 23.0295 105.312 23.0198C105.38 23.015 105.453 23.0004 105.525 22.9858C105.506 23.1363 105.491 23.2965 105.482 23.4713C105.472 23.6412 105.467 23.8305 105.467 24.0296V24.8839C105.569 24.7335 105.695 24.6169 105.841 24.5393C105.987 24.4616 106.152 24.4228 106.341 24.4228C106.477 24.4228 106.603 24.447 106.715 24.4907C106.826 24.5393 106.924 24.6024 107.001 24.6898C107.069 24.7626 107.113 24.8548 107.142 24.9616C107.171 25.0733 107.186 25.248 107.186 25.4908C107.186 25.5247 107.186 25.6218 107.186 25.7723C107.186 25.9277 107.186 26.0587 107.186 26.1752C107.186 26.3791 107.186 26.5539 107.195 26.6995C107.2 26.8452 107.21 26.9811 107.22 27.1073C107.142 27.0976 107.069 27.0927 106.996 27.0879C106.928 27.0879 106.86 27.083 106.797 27.083C106.734 27.083 106.666 27.083 106.598 27.0879C106.53 27.0879 106.458 27.0976 106.38 27.1073C106.394 26.952 106.404 26.7626 106.409 26.549C106.414 26.3306 106.419 26.0927 106.419 25.8257C106.419 25.4276 106.385 25.1704 106.322 25.0539C106.258 24.9373 106.137 24.8791 105.967 24.8791C105.797 24.8791 105.671 24.9471 105.598 25.0878C105.525 25.2238 105.487 25.4568 105.487 25.7869C105.487 25.9568 105.487 26.1558 105.496 26.3791C105.501 26.6024 105.511 26.8452 105.521 27.1073C105.448 27.0976 105.375 27.0927 105.307 27.0879C105.239 27.0879 105.171 27.083 105.108 27.083C105.045 27.083 104.977 27.083 104.909 27.0879C104.841 27.0879 104.768 27.0976 104.695 27.1073" fill="white"/>
<path d="M66.957 33.2578C67.0056 32.9763 67.0444 32.7336 67.0784 32.5297C67.1124 32.3258 67.1318 32.185 67.1463 32.0976L67.5104 29.4956C67.5493 29.5053 67.5832 29.5102 67.6269 29.5102C67.6658 29.5102 67.7095 29.515 67.7532 29.515C67.7968 29.515 67.8454 29.515 67.8842 29.5102C67.9279 29.5102 67.9667 29.5005 68.0056 29.4956C68.2095 29.9325 68.4182 30.3694 68.6415 30.7966C68.86 31.2238 69.0833 31.6461 69.3163 32.0685C69.5396 31.6607 69.7581 31.2432 69.9765 30.816C70.195 30.3888 70.4037 29.9471 70.6124 29.4956C70.6513 29.5053 70.695 29.5102 70.7387 29.5102C70.7823 29.5102 70.826 29.515 70.8746 29.515C70.9231 29.515 70.9668 29.515 71.0105 29.5102C71.0542 29.5102 71.0979 29.5005 71.1319 29.4956L71.4571 32.1267C71.4911 32.418 71.5251 32.6462 71.5494 32.8112C71.5785 32.9763 71.6076 33.1268 71.6367 33.253C71.5445 33.2433 71.4571 33.2384 71.3794 33.2336C71.3018 33.2287 71.229 33.2239 71.1513 33.2239C71.0736 33.2239 71.0057 33.2239 70.928 33.2287C70.8503 33.2287 70.7678 33.2384 70.6853 33.2481C70.6853 33.2336 70.6853 33.219 70.6804 33.1899C70.6658 32.8064 70.6513 32.5636 70.6416 32.4763L70.4571 30.7189C70.2435 31.1122 70.0299 31.5199 69.8212 31.9374C69.6076 32.3549 69.3891 32.7918 69.1707 33.2481C69.1561 33.2481 69.1415 33.2433 69.127 33.2384C69.1124 33.2384 69.0881 33.2384 69.0493 33.2384C69.0202 33.2384 68.9959 33.2384 68.9813 33.2384C68.9668 33.2384 68.9522 33.2384 68.9376 33.2481C68.7192 32.8015 68.5056 32.3743 68.292 31.9665C68.0833 31.5588 67.8745 31.1753 67.6706 30.8063L67.5347 31.9471V31.9908C67.4619 32.5831 67.4231 33.0006 67.4231 33.2433C67.3794 33.2336 67.3405 33.2287 67.3017 33.2239C67.2629 33.2239 67.2289 33.219 67.1949 33.219C67.1561 33.219 67.1221 33.219 67.0832 33.2239C67.0444 33.2239 67.0056 33.2336 66.9619 33.2433" fill="white"/>
<path d="M73.5499 31.8064C73.2877 31.8598 73.0984 31.9375 72.9819 32.0443C72.8654 32.1511 72.8071 32.2967 72.8071 32.486C72.8071 32.6414 72.8362 32.7627 72.8945 32.8404C72.9527 32.9181 73.0401 32.9569 73.1566 32.9569C73.2829 32.9569 73.38 32.9132 73.4479 32.8258C73.5159 32.7385 73.5499 32.6122 73.5499 32.4472V31.8064ZM73.5741 32.9084C73.4916 33.0394 73.3848 33.1414 73.2537 33.2142C73.1227 33.287 72.9722 33.321 72.8071 33.321C72.5692 33.321 72.3799 33.253 72.2488 33.1171C72.1129 32.9812 72.0449 32.7919 72.0449 32.5588C72.0449 32.3841 72.0935 32.2433 72.1906 32.1268C72.2877 32.0151 72.4382 31.9229 72.6421 31.8598C72.71 31.8404 72.8023 31.8064 72.9285 31.7724C73.2246 31.685 73.4285 31.6074 73.5353 31.5345V31.5006C73.5353 31.5006 73.5402 31.4666 73.5402 31.4423C73.5402 31.2772 73.4916 31.1413 73.3945 31.0442C73.2974 30.9471 73.1664 30.8986 73.0062 30.8986C72.8799 30.8986 72.7634 30.9326 72.6566 31.0005C72.5547 31.0685 72.4576 31.1753 72.3653 31.3209C72.3362 31.2336 72.3119 31.1656 72.2974 31.1122C72.278 31.0588 72.2585 31.0103 72.244 30.9666C72.4139 30.8258 72.5789 30.719 72.744 30.651C72.9091 30.5831 73.079 30.5491 73.2586 30.5491C73.5984 30.5491 73.8606 30.6267 74.0402 30.7772C74.2247 30.9277 74.3121 31.1462 74.3121 31.4326V31.4617L74.2926 32.4229V32.5297C74.2926 32.753 74.3169 32.8987 74.3703 32.9618C74.4237 33.0249 74.5208 33.0589 74.6664 33.0589H74.6859V33.1948C74.5888 33.2336 74.4917 33.2627 74.3849 33.287C74.2829 33.3064 74.181 33.3161 74.0887 33.3161C73.9528 33.3161 73.8412 33.2822 73.7538 33.2142C73.6664 33.1462 73.6081 33.0491 73.579 32.9181" fill="white"/>
<path d="M75.7041 31.4229C75.7041 31.6511 75.7381 31.8161 75.806 31.9229C75.874 32.0297 75.9808 32.0831 76.1264 32.0831C76.2721 32.0831 76.3886 32.0249 76.4517 31.9181C76.5197 31.8064 76.5536 31.6219 76.5536 31.3647C76.5536 31.1656 76.5197 31.0151 76.4517 30.9229C76.3837 30.8258 76.2818 30.7773 76.141 30.7773C76.0002 30.7773 75.8934 30.8355 75.8206 30.9472C75.7429 31.0588 75.7041 31.219 75.7041 31.4278V31.4229ZM75.7041 33.423C75.6119 33.4715 75.5391 33.5346 75.4857 33.622C75.4323 33.7094 75.408 33.8065 75.408 33.9133C75.408 34.1026 75.4711 34.2531 75.6022 34.3647C75.7332 34.4764 75.908 34.5346 76.1264 34.5346C76.3837 34.5346 76.5828 34.4812 76.7284 34.3793C76.874 34.2773 76.9468 34.1366 76.9468 33.9521C76.9468 33.787 76.8983 33.6657 76.8061 33.588C76.709 33.5055 76.5585 33.4618 76.3546 33.4521L75.6992 33.4181L75.7041 33.423ZM75.4565 33.389V33.3453C75.3497 33.3113 75.2575 33.2579 75.1944 33.1802C75.1313 33.1074 75.0973 33.0152 75.0973 32.9084C75.0973 32.787 75.1458 32.6705 75.2429 32.5637C75.34 32.4569 75.4808 32.3695 75.6653 32.2919V32.2239C75.4226 32.1754 75.2429 32.088 75.1167 31.9569C74.9954 31.8258 74.9323 31.6511 74.9323 31.4423C74.9323 31.1753 75.039 30.9617 75.2478 30.7967C75.4614 30.6365 75.7429 30.554 76.0973 30.554C76.1313 30.554 76.2575 30.5637 76.476 30.5782C76.6944 30.5928 76.8983 30.6025 77.0828 30.6025C77.1604 30.6025 77.2381 30.6025 77.3255 30.6025C77.408 30.6025 77.5003 30.5976 77.5925 30.5879V30.8549C77.476 30.8501 77.3207 30.8452 77.1216 30.8355C77.0779 30.8355 77.0536 30.8355 77.0342 30.8355C77.1313 30.8986 77.2041 30.9714 77.2527 31.0685C77.3012 31.1608 77.3255 31.2724 77.3255 31.3986C77.3255 31.6851 77.2138 31.9084 76.9905 32.0686C76.7672 32.2288 76.4517 32.3113 76.0488 32.3113H75.9517C75.8789 32.3161 75.8158 32.3453 75.7721 32.3938C75.7235 32.4424 75.7041 32.5006 75.7041 32.5734C75.7041 32.7385 75.9711 32.8356 76.51 32.855H76.5391C76.5391 32.855 76.5779 32.855 76.607 32.8598C76.9517 32.8744 77.175 32.9132 77.2721 32.9666C77.3886 33.0297 77.476 33.1171 77.5342 33.2288C77.5925 33.3404 77.6265 33.4666 77.6265 33.6171C77.6265 33.9569 77.4808 34.2337 77.1944 34.4521C76.908 34.6657 76.5342 34.7774 76.0731 34.7774C75.6944 34.7774 75.3983 34.7142 75.1847 34.588C74.9711 34.4618 74.8691 34.2871 74.8691 34.0686C74.8691 33.9084 74.9177 33.7725 75.0148 33.6608C75.1119 33.5492 75.2575 33.4666 75.4468 33.3987" fill="white"/>
<path d="M79.3252 31.8064C79.063 31.8598 78.8737 31.9375 78.7572 32.0443C78.6407 32.1511 78.5825 32.2967 78.5825 32.486C78.5825 32.6414 78.6116 32.7627 78.6698 32.8404C78.7281 32.9181 78.8155 32.9569 78.932 32.9569C79.0582 32.9569 79.1553 32.9132 79.2232 32.8258C79.2912 32.7385 79.3252 32.6122 79.3252 32.4472V31.8064ZM79.3495 32.9084C79.2669 33.0394 79.1601 33.1414 79.0291 33.2142C78.898 33.287 78.7475 33.321 78.5825 33.321C78.3446 33.321 78.1553 33.253 78.0242 33.1171C77.8883 32.9812 77.8203 32.7919 77.8203 32.5588C77.8203 32.3841 77.8689 32.2433 77.966 32.1268C78.063 32.0151 78.2135 31.9229 78.4174 31.8598C78.4854 31.8404 78.5776 31.8064 78.7038 31.7724C78.9999 31.685 79.2038 31.6074 79.3106 31.5345V31.5006C79.3106 31.5006 79.3155 31.4666 79.3155 31.4423C79.3155 31.2772 79.2669 31.1413 79.1698 31.0442C79.0727 30.9471 78.9417 30.8986 78.7815 30.8986C78.6553 30.8986 78.5388 30.9326 78.432 31.0005C78.33 31.0685 78.2329 31.1753 78.1407 31.3209C78.1116 31.2336 78.0873 31.1656 78.0728 31.1122C78.0533 31.0588 78.0339 31.0103 78.0193 30.9666C78.1892 30.8258 78.3543 30.719 78.5193 30.651C78.6844 30.5831 78.8543 30.5491 79.0339 30.5491C79.3737 30.5491 79.6359 30.6267 79.8155 30.7772C79.9999 30.9277 80.0873 31.1462 80.0873 31.4326V31.4617L80.0679 32.4229V32.5297C80.0679 32.753 80.0922 32.8987 80.1456 32.9618C80.1941 33.0249 80.2961 33.0589 80.4417 33.0589H80.4611V33.1948C80.364 33.2336 80.2669 33.2627 80.1601 33.287C80.0582 33.3064 79.9563 33.3161 79.864 33.3161C79.7281 33.3161 79.6164 33.2822 79.5291 33.2142C79.4417 33.1462 79.3834 33.0491 79.3543 32.9181" fill="white"/>
<path d="M80.5254 33.2581V33.1707C80.7341 32.86 81.0642 32.3697 81.5157 31.7047L82.0449 30.9182C81.9284 30.9182 81.8361 30.9085 81.7681 30.9085C81.7002 30.9085 81.6371 30.9085 81.5788 30.9085C81.4235 30.9085 81.1856 30.9134 80.8507 30.9279C80.8215 30.9279 80.8021 30.9279 80.7875 30.9279C80.7875 30.9085 80.7924 30.8891 80.7972 30.8697C80.7972 30.8503 80.7972 30.8211 80.7972 30.7774C80.7972 30.7338 80.7972 30.7046 80.7972 30.6852C80.7972 30.6658 80.7972 30.6464 80.7875 30.627C80.9574 30.6318 81.1322 30.6415 81.3215 30.6415C81.506 30.6415 81.705 30.6464 81.9138 30.6464C82.1225 30.6464 82.3216 30.6464 82.506 30.6415C82.6857 30.6415 82.8556 30.6318 83.0206 30.627V30.6949C82.8896 30.8891 82.7051 31.1609 82.4672 31.5153C82.2293 31.8697 81.9089 32.3454 81.5109 32.9523C81.6468 32.9523 81.7487 32.962 81.8167 32.962C81.8847 32.962 81.9478 32.962 82.0109 32.962C82.1808 32.962 82.3507 32.962 82.5157 32.9523C82.6808 32.9474 82.841 32.9377 83.0012 32.928C83.0012 32.962 82.9964 32.9911 82.9915 33.0154C82.9915 33.0396 82.9915 33.0639 82.9915 33.0833C82.9915 33.1028 82.9915 33.127 82.9915 33.1513C82.9915 33.1756 82.9915 33.2144 83.0012 33.2629C82.8361 33.2532 82.6565 33.2484 82.4624 33.2435C82.2682 33.2435 82.0449 33.2387 81.7924 33.2387C81.54 33.2387 81.3118 33.2387 81.1128 33.2435C80.9089 33.2435 80.7196 33.2532 80.5351 33.2629" fill="white"/>
<path d="M83.4902 33.2579C83.5048 32.9763 83.5145 32.7336 83.5194 32.5249C83.5242 32.3161 83.5291 32.1219 83.5291 31.9423C83.5291 31.7336 83.5291 31.5248 83.5194 31.3064C83.5097 31.0928 83.4999 30.8646 83.4902 30.6268C83.5534 30.6316 83.6213 30.6365 83.6941 30.6413C83.7621 30.6413 83.8349 30.6413 83.9126 30.6413C83.9903 30.6413 84.0583 30.6413 84.1311 30.6413C84.2039 30.6413 84.2719 30.6365 84.3302 30.6268C84.3156 30.8646 84.3059 31.0928 84.301 31.3064C84.2962 31.5248 84.2913 31.7336 84.2913 31.9423C84.2913 32.1219 84.2913 32.3161 84.301 32.5249C84.3059 32.7336 84.3156 32.9763 84.3302 33.2579C84.2573 33.2482 84.1845 33.2433 84.1165 33.2385C84.0486 33.2385 83.9757 33.2336 83.9078 33.2336C83.8398 33.2336 83.7718 33.2336 83.7039 33.2385C83.6359 33.2385 83.5631 33.2482 83.4902 33.2579ZM83.4902 29.6316C83.4902 29.5151 83.5291 29.418 83.6165 29.3355C83.699 29.2529 83.801 29.2141 83.9223 29.2141C84.0437 29.2141 84.1408 29.2529 84.2233 29.3355C84.3059 29.418 84.3447 29.5151 84.3447 29.6316C84.3447 29.7481 84.301 29.8452 84.2185 29.9277C84.136 30.0054 84.034 30.0491 83.9126 30.0491C83.7912 30.0491 83.6893 30.0102 83.6116 29.9277C83.5291 29.85 83.4902 29.7481 83.4902 29.6316Z" fill="white"/>
<path d="M85.0449 33.258C85.0595 33.0153 85.0692 32.7871 85.0789 32.5687C85.0886 32.3502 85.0886 32.1463 85.0886 31.9473C85.0886 31.724 85.0886 31.5007 85.0789 31.2822C85.0692 31.0638 85.0595 30.8453 85.0449 30.6269C85.1032 30.6317 85.1663 30.6414 85.2294 30.6414C85.2925 30.6414 85.3605 30.6463 85.4333 30.6463C85.5061 30.6463 85.5741 30.6463 85.6372 30.6414C85.7003 30.6414 85.7586 30.6317 85.812 30.6269V31.0055C85.9285 30.855 86.0595 30.7482 86.2003 30.6754C86.346 30.6026 86.5062 30.5686 86.6858 30.5686C86.8217 30.5686 86.9528 30.5929 87.0645 30.6366C87.181 30.6851 87.2732 30.7482 87.3557 30.8356C87.4188 30.9084 87.4625 30.9958 87.4917 31.1026C87.5159 31.2045 87.5305 31.389 87.5305 31.6414C87.5305 31.6754 87.5305 31.7725 87.5305 31.923C87.5305 32.0784 87.5305 32.2094 87.5305 32.3259C87.5305 32.4958 87.5305 32.6609 87.5402 32.8114C87.5451 32.9619 87.5548 33.1124 87.5693 33.2531C87.4917 33.2434 87.414 33.2386 87.346 33.2337C87.2781 33.2337 87.2101 33.2289 87.147 33.2289C87.0839 33.2289 87.0159 33.2289 86.9479 33.2337C86.88 33.2337 86.8072 33.2434 86.7295 33.2531C86.744 33.0978 86.7538 32.9085 86.7635 32.6949C86.7732 32.4813 86.778 32.2385 86.778 31.9716C86.778 31.5735 86.744 31.3162 86.6809 31.1997C86.6178 31.0832 86.4965 31.0249 86.3266 31.0249C86.1566 31.0249 86.0304 31.0929 85.9576 31.2337C85.8848 31.3696 85.8459 31.6026 85.8459 31.9327C85.8459 32.0881 85.8459 32.2725 85.8557 32.4958C85.8605 32.7143 85.8702 32.9716 85.8799 33.258C85.812 33.2483 85.7391 33.2434 85.6712 33.2386C85.6032 33.2386 85.5352 33.2337 85.4721 33.2337C85.409 33.2337 85.3459 33.2337 85.278 33.2386C85.21 33.2386 85.1372 33.2483 85.0595 33.258" fill="white"/>
<path d="M88.918 31.6753H89.8793C89.8793 31.6753 89.8793 31.6316 89.8793 31.6025C89.8793 31.5734 89.8793 31.554 89.8793 31.5443C89.8793 31.2967 89.8404 31.1074 89.7676 30.9811C89.6948 30.8549 89.5831 30.7918 89.4375 30.7918C89.2724 30.7918 89.1413 30.8646 89.0491 31.0103C88.9569 31.1559 88.9132 31.3598 88.9132 31.6316V31.6802L88.918 31.6753ZM88.918 31.9472C88.918 32.2627 88.9957 32.5152 89.1511 32.7045C89.3064 32.889 89.5152 32.986 89.7822 32.986C89.9132 32.986 90.0395 32.9666 90.1608 32.9229C90.2822 32.8792 90.3987 32.8161 90.5104 32.7288L90.5638 32.7676L90.4375 33.0783C90.321 33.1608 90.1802 33.2191 90.02 33.2627C89.8598 33.3064 89.6851 33.3259 89.5006 33.3259C89.0588 33.3259 88.7141 33.1996 88.4617 32.9472C88.2141 32.6948 88.0879 32.3453 88.0879 31.8986C88.0879 31.4957 88.2141 31.1705 88.4617 30.9229C88.7093 30.6753 89.0394 30.554 89.452 30.554C89.8404 30.554 90.1414 30.6608 90.3453 30.8695C90.5541 31.0782 90.656 31.3792 90.656 31.7724C90.656 31.821 90.656 31.855 90.656 31.8792C90.656 31.9035 90.656 31.9278 90.656 31.9472H88.918Z" fill="white"/>
<path d="M75.8496 10.0925C75.7428 9.56332 75.437 8.43708 75.1554 7.71376L75.5826 7.50502C76.1312 8.08756 76.6992 9.09244 76.9419 9.68954L75.8496 10.0925ZM75.505 15.7674H74.2136V18.0053H75.505V15.7674ZM75.505 13.1702H74.2136V15.1848H75.505V13.1702ZM75.505 10.8546H74.2136V12.5877H75.505V10.8546ZM72.7233 9.67983H66.9852V9.09729H69.9513C69.4707 8.60699 68.995 8.20407 68.4852 7.806L68.6697 7.40308C69.4173 7.61182 70.3203 7.98562 70.8786 8.37397L70.3445 9.09729H72.7136V9.67983H72.7233ZM67.1308 13.7139L66.7716 13.4178C67.3978 12.4372 67.8639 11.0245 68.1017 9.77207L69.1794 10.0196C69.1115 10.3449 68.9659 10.7187 68.7911 11.1168C69.296 11.4517 69.7377 11.8158 70.0678 12.1896L69.3105 12.8887C69.0969 12.476 68.8445 12.0343 68.5629 11.6071C68.1648 12.3935 67.6308 13.1945 67.126 13.7139H67.1308ZM78.6799 18.0053V18.6024H74.2088V19.583H73.0388L73.0534 12.811C72.8689 13.0974 72.6796 13.379 72.4806 13.6362L72.1068 13.3644C72.267 13.0391 72.4126 12.7285 72.534 12.4081L71.9077 12.9615C71.7087 12.5634 71.4708 12.1362 71.1747 11.7333C70.9368 12.2236 70.631 12.7042 70.3106 13.1265H70.5387V14.3401H72.7476V14.9227H70.5387V15.3887C71.3397 15.8256 72.097 16.2819 72.6553 16.7965L71.8689 17.6509C71.4951 17.1072 70.9368 16.4616 70.5387 16.0101V19.6558H69.3931V16.2674C68.8882 17.0053 67.9949 18.015 66.9027 18.7771L66.6211 18.4034C67.5823 17.4713 68.4853 16.3353 69.1115 14.9275H66.9172V14.345H69.3931V13.1314H69.7377C70.2814 12.175 70.563 11.0003 70.7086 9.82061L71.7864 10.0779C71.7184 10.4274 71.5873 10.8012 71.4271 11.2041C71.8932 11.5003 72.3204 11.8255 72.6262 12.175C73.0922 10.8546 73.2524 9.46138 73.4515 7.57298L74.6651 7.806C74.5874 8.66039 74.4272 9.48565 74.1845 10.2769H78.5099V10.8595H76.6458V12.5925H78.175V13.1751H76.6458V15.1897H78.1895V15.7722H76.6458V18.0101H78.6799V18.0053Z" fill="white"/>
<path d="M93.5163 17.3593L92.4629 17.8642C92.1328 16.8302 91.7833 15.937 91.3464 15.0583L91.7202 14.8107C92.4677 15.5583 93.0794 16.4273 93.5163 17.3545V17.3593ZM88.8026 13.2039C89.4531 13.4757 90.6667 14.1214 91.1716 14.6262L90.3852 15.4903C89.9191 14.9224 89.0793 14.0583 88.5599 13.5777L88.7978 13.2039H88.8026ZM91.4095 16.3593C92.0211 18.4807 92.1279 19.306 90.0502 19.306C88.1084 19.306 87.8414 19.1652 87.8414 17.7671V14.4078H89.0114V17.5632C89.0114 18.0778 89.1327 18.2477 89.9725 18.2477C90.9289 18.2477 90.9434 18.0778 90.9289 16.3593H91.4095ZM89.0405 10.3494H86.2977V9.7669H89.0405V7.59695H90.2395V9.7669H93.0357V10.3494H90.2395V12.5874H92.861V13.1699H86.5793V12.5874H89.0405V10.3494ZM84.5695 15.7137H83.05V18.0681H84.5695V15.7137ZM87.0162 15.0923L87.4822 15.1845C87.4045 16.5535 87.0938 17.6943 86.4822 18.4807L85.5889 17.8351V19.3982H84.5792V18.6361H83.05V19.5778H82.0112V15.1457H85.5889V17.704C86.2686 17.0292 86.788 16.2574 87.0113 15.0923H87.0162ZM85.7055 13.8884H81.9675V13.3447H85.7055V13.8884ZM81.9675 11.5631H85.7055V12.1068H81.9675V11.5631ZM86.0161 10.3494H81.584V9.7669H83.618C83.1811 9.02902 82.686 8.22803 82.3801 7.80084L82.7151 7.47559C83.3413 7.87851 84.22 8.5727 84.7637 9.24747L84.0743 9.76205H86.0161V10.3446V10.3494Z" fill="white"/>
<path d="M62.7434 19.4225C62.457 19.107 62.1463 18.9128 61.9861 18.8303C61.9473 18.8157 61.9084 18.7963 61.8696 18.772C61.6851 18.6701 61.5104 18.5293 61.3065 18.4808C61.0006 18.4031 60.6705 18.4419 60.3598 18.3788C59.9229 18.2866 59.486 18.1846 59.0443 18.1167C58.4909 18.0341 57.9229 18.0147 57.3841 18.1701C57.1414 18.238 56.8501 18.3351 56.6753 18.5196C56.5297 18.6749 56.5297 18.8594 56.486 19.0536C56.4423 19.2381 56.418 19.4225 56.418 19.607C56.4132 20.3012 56.685 20.9857 57.0394 21.5779C57.2287 21.8935 57.452 22.1944 57.6948 22.4711C57.9181 22.7284 58.1851 23.0634 58.4715 23.2527C58.7579 23.4372 58.9521 23.5683 59.1317 23.8498C59.2579 24.0489 59.2724 24.1071 59.5103 24.1945C59.8987 24.3401 60.3453 24.3353 60.7579 24.3644C61.2968 24.4032 61.8793 24.4129 62.4133 24.3207C62.8211 24.2527 62.8987 23.9712 63.2288 23.7867C63.5395 23.6119 63.6949 23.5828 63.8356 23.2527C64.4764 21.7624 63.6851 20.4954 62.7482 19.4274" fill="white"/>
</svg>
