<svg width="83" height="40" viewBox="0 0 83 40" fill="none" xmlns="http://www.w3.org/2000/svg">
<path d="M52.8779 25.7336C53.0575 25.7482 53.2371 25.7579 53.4167 25.7579C53.5963 25.7579 53.7759 25.7482 53.9555 25.7336C61.5771 25.4764 67.6937 19.8112 67.6937 12.879C67.6937 5.94675 61.5819 0.276706 53.9555 0.019418C53.7759 0.00485449 53.6012 0 53.4167 0C53.2322 0 53.0574 0.00970898 52.8827 0.019418C45.2563 0.276706 39.1396 5.94189 39.1396 12.8741C39.1396 19.8063 45.2515 25.4764 52.8779 25.7288V25.7336ZM53.5332 12.7625V7.63611H61.9509C62.4849 9.19926 62.781 10.9372 62.7956 12.7625H53.5381H53.5332ZM62.7956 12.9906C62.7858 14.6945 62.5188 16.3208 62.0528 17.8014H53.5332V12.9906H62.7956V12.9906ZM53.2953 12.7625H44.0378C44.0524 10.9372 44.3485 9.19926 44.8825 7.63611H53.2953V12.7625ZM53.2953 12.9906V17.8014H44.7806C44.3146 16.3208 44.0475 14.6945 44.0378 12.9906H53.2953V12.9906ZM53.2953 18.0587V25.5006C49.5477 25.4375 46.3194 22.3986 44.8631 18.0587H53.2953ZM53.5332 25.5006V18.0587H61.9654C60.5091 22.3986 57.2809 25.4375 53.5332 25.5006ZM55.9216 25.3113C58.7518 24.2919 61.0673 21.5879 62.2324 18.0587H66.2082C64.3344 21.7869 60.5236 24.5589 55.9264 25.3113H55.9216ZM66.3296 17.8014H62.3101C62.7713 16.3159 63.0383 14.6945 63.048 12.9906H67.451C67.4316 14.6994 67.0286 16.3208 66.3247 17.8014H66.3296ZM67.4558 12.7625H63.048C63.0334 10.9372 62.7422 9.20411 62.2179 7.63611H66.184C66.9801 9.19926 67.4364 10.9323 67.4558 12.7625V12.7625ZM66.0577 7.38368H62.1256C60.9266 4.00981 58.6692 1.43693 55.9264 0.446613C60.3926 1.17479 64.1305 3.81563 66.0577 7.38368ZM61.8635 7.38368H53.5332V0.252433C57.1935 0.315542 60.3586 3.20882 61.8635 7.37882V7.38368ZM53.3002 0.257288V7.38368H44.9747C46.4796 3.20882 49.6399 0.315542 53.3002 0.257288V0.257288ZM50.9118 0.446613C48.169 1.43693 45.9117 4.00981 44.7126 7.38368H40.7805C42.7077 3.81077 46.4408 1.17479 50.9118 0.446613V0.446613ZM40.6494 7.64096H44.6155C44.0912 9.20896 43.7951 10.942 43.7854 12.7673H39.3775C39.397 10.9372 39.8484 9.20896 40.6494 7.64096V7.64096ZM39.3824 12.9955H43.7854C43.7951 14.6994 44.0621 16.3208 44.5281 17.8063H40.5086C39.8096 16.3256 39.4018 14.7042 39.3824 12.9955ZM44.6009 18.0636C45.766 21.5928 48.0816 24.2967 50.9118 25.3162C46.3146 24.5686 42.499 21.7918 40.63 18.0636H44.6058H44.6009Z" fill="#595757"/>
<path d="M40.9457 3.44181L42.2612 3.44666V2.45149L38.5621 2.46605L38.5573 3.43695L39.8388 3.44181L35.4844 17.5781L31.8289 3.42239H33.0425L33.0474 2.45634L26.3579 2.43693V3.40782L27.5278 3.41268L30.1784 12.811L28.0036 18.3014L24.2365 3.40782H25.3482L25.353 2.43693L18.7461 2.42236V3.39326H19.9645L25.4793 23.2627L27.1249 23.2675L30.6299 14.413L33.1299 23.2821L34.7902 23.287L40.9457 3.44181Z" fill="#595757"/>
<path d="M17.4352 22.8502H18.3721V16.4325H17.3915L17.3381 16.6607C17.1779 17.3743 16.9206 18.0831 16.5711 18.7627C16.2313 19.4278 15.8041 20.0297 15.2895 20.5492C14.7944 21.0589 14.207 21.4812 13.5516 21.7968C12.9011 22.1074 12.1681 22.2628 11.372 22.2628C10.3574 22.2628 9.47384 22.122 8.74566 21.8453C8.03691 21.5734 7.46893 21.1074 7.01746 20.4181C6.56114 19.7287 6.22134 18.7627 5.99803 17.5588C5.77958 16.3257 5.66793 14.7529 5.66793 12.8791C5.66793 11.4421 5.72617 10.1071 5.83782 8.90322C5.94948 7.71873 6.20191 6.69443 6.59512 5.84975C6.96892 5.02449 7.53691 4.37399 8.27965 3.91281C9.02239 3.45163 10.0661 3.21376 11.3817 3.21376C12.3526 3.21376 13.1681 3.38367 13.8089 3.71377C14.4594 4.05359 15.0128 4.49049 15.4449 5.01478C15.8866 5.55363 16.2556 6.14587 16.5371 6.78667C16.809 7.4129 17.0614 8.04883 17.2847 8.67992L17.3527 8.8741H18.2217V2.67491H17.241L17.1876 2.90307C17.1342 3.15065 17.0614 3.18463 17.0614 3.18463C17.008 3.20891 16.8818 3.2526 16.5954 3.2526C16.3769 3.2526 16.1002 3.1992 15.775 3.09725C15.4158 2.9856 15.008 2.86909 14.5614 2.75258C14.0953 2.62637 13.605 2.50986 13.1002 2.40306C12.5613 2.29141 11.9739 2.23315 11.3525 2.23315C10.1146 2.23315 8.83792 2.48559 7.55148 2.98075C6.2796 3.47105 5.09994 4.18951 4.05137 5.11187C3.01251 6.02451 2.14841 7.1459 1.47849 8.44205C0.808573 9.74791 0.46875 11.2188 0.46875 12.8111C0.46875 14.282 0.774581 15.6655 1.37654 16.9277C1.9785 18.1899 2.78434 19.2967 3.77466 20.219C4.76983 21.1511 5.93493 21.8938 7.24564 22.423C8.55636 22.957 9.93501 23.2288 11.3477 23.2288C11.969 23.2288 12.571 23.1754 13.1293 23.0735C13.6778 22.9715 14.1924 22.8599 14.6633 22.7385C15.1293 22.6172 15.542 22.5055 15.9012 22.4036C16.2216 22.3113 16.4983 22.2676 16.7022 22.2676C16.974 22.2676 17.0954 22.3162 17.1391 22.3453C17.2168 22.3939 17.2944 22.5055 17.3673 22.6657L17.4449 22.8405L17.4352 22.8502Z" fill="#595757"/>
<path d="M65.703 2.65063V3.62153H68.3099V21.8501H65.703V22.821H75.6304V21.8501H72.9993V13.3354H74.6013C75.2081 13.3354 75.7226 13.4373 76.1256 13.6363C76.5333 13.8402 76.8683 14.1072 77.145 14.4519C77.4266 14.8014 77.6499 15.2141 77.8198 15.6752C78.0043 16.185 78.1548 16.6801 78.2761 17.185L78.3295 17.4083H79.2179V8.26728H78.3198L78.2713 8.50029C78.1499 9.09254 77.98 9.6411 77.7761 10.1411C77.5819 10.6071 77.3343 11.0149 77.0382 11.3499C76.7469 11.6703 76.3829 11.9227 75.946 12.0975C75.4945 12.2771 74.9314 12.3645 74.2809 12.3645H72.9896V3.62639H76.9703C77.6839 3.62639 78.3101 3.72348 78.8344 3.9128C79.3538 4.10213 79.8101 4.37398 80.1936 4.71865C80.5868 5.07302 80.9315 5.50993 81.2276 6.00994C81.5238 6.51481 81.8102 7.10706 82.0675 7.75756L82.1403 7.94203H82.9995V2.65063H65.6836H65.703Z" fill="#595757"/>
<path d="M2.29372 27.9814C2.83257 27.9814 3.23064 28.3164 3.35686 28.8746L3.38113 28.9911H4.02679L3.99766 28.8164C3.83746 27.9329 3.18695 27.3892 2.29372 27.3892C1.82283 27.3892 1.3665 27.5736 1.0461 27.8892C0.575211 28.3455 0.575195 28.8067 0.575195 29.8164C0.575195 30.8261 0.575211 31.2825 1.0461 31.7436C1.37135 32.064 1.82768 32.2436 2.29372 32.2436C3.1821 32.2436 3.83746 31.6951 3.99766 30.8116L4.02679 30.6368H3.39085L3.36655 30.7533C3.24519 31.3116 2.84228 31.6465 2.29372 31.6465C1.99759 31.6465 1.73058 31.5397 1.52669 31.3456C1.24513 31.0689 1.216 30.7922 1.216 29.8164C1.216 28.8407 1.24513 28.5591 1.52669 28.2872C1.73058 28.0882 2.00245 27.9814 2.29372 27.9814V27.9814Z" fill="#595757"/>
<path d="M5.47335 28.8599C5.0947 28.8599 4.7646 28.9909 4.51216 29.2337C4.13351 29.6026 4.08496 30.1317 4.08496 30.5541C4.08496 30.9764 4.13351 31.5056 4.51216 31.8745C4.75974 32.1172 5.08984 32.2483 5.47335 32.2483C5.85686 32.2483 6.18696 32.1221 6.4394 31.8794C6.82291 31.5104 6.87146 30.9813 6.87146 30.5589C6.87146 30.1366 6.82291 29.6123 6.4394 29.2385C6.18696 28.9958 5.852 28.8647 5.47335 28.8647V28.8599ZM6.0122 31.4522C5.72578 31.7337 5.22578 31.7337 4.9345 31.4522C4.7209 31.2434 4.70147 30.8793 4.70147 30.5492C4.70147 30.2191 4.7209 29.8599 4.9345 29.6511C5.07529 29.5104 5.26461 29.4375 5.47335 29.4375C5.6821 29.4375 5.87142 29.5152 6.0122 29.6511C6.2258 29.8599 6.24523 30.224 6.24523 30.5541C6.24523 30.8842 6.2258 31.2483 6.0122 31.457V31.4522Z" fill="#595757"/>
<path d="M10.5656 28.855C10.1384 28.855 9.76949 29.0103 9.50735 29.3016C9.27919 29.0152 8.92483 28.855 8.49278 28.855C8.20151 28.855 7.93449 28.9327 7.71118 29.0783V28.8938H7.08496V32.1997H7.71118V30.1851C7.71118 29.6997 7.97333 29.4278 8.44421 29.4278C8.9151 29.4278 9.16267 29.6802 9.16267 30.1851V32.1997H9.78406V30.1269C9.78406 29.6997 10.0656 29.4327 10.522 29.4327C10.9783 29.4327 11.2404 29.6851 11.2404 30.19V32.2046H11.8569V30.1317C11.8569 29.7385 11.7307 29.4132 11.488 29.1899C11.2598 28.9763 10.9297 28.8598 10.5656 28.8598V28.855Z" fill="#595757"/>
<path d="M15.6975 28.855C15.2752 28.855 14.9062 29.0103 14.6441 29.3016C14.4159 29.0103 14.0615 28.855 13.6295 28.855C13.3333 28.855 13.0663 28.9327 12.843 29.0783V28.8938H12.2217V32.1997H12.843V30.1851C12.843 29.6997 13.1052 29.4278 13.5809 29.4278C14.0567 29.4278 14.2994 29.6802 14.2994 30.1851V32.1997H14.9208V30.1269C14.9208 29.6997 15.2023 29.4327 15.6587 29.4327C16.115 29.4327 16.3723 29.6851 16.3723 30.19V32.2046H16.9888V30.1317C16.9888 29.7385 16.8577 29.4132 16.615 29.1899C16.382 28.9763 16.0616 28.8598 15.6878 28.8598L15.6975 28.855Z" fill="#595757"/>
<path d="M18.5662 28.8599C18.1875 28.8599 17.8574 28.9909 17.6049 29.2337C17.2263 29.6026 17.1777 30.1317 17.1777 30.5541C17.1777 30.9764 17.2263 31.5104 17.6049 31.8745C17.8525 32.1172 18.1826 32.2483 18.571 32.2483C18.9594 32.2483 19.2846 32.1221 19.5322 31.8794C19.9157 31.5104 19.9643 30.9813 19.9643 30.5589C19.9643 30.1366 19.9157 29.6123 19.5322 29.2385C19.2798 28.9958 18.9448 28.8647 18.571 28.8647L18.5662 28.8599ZM19.1002 31.4522C18.8137 31.7337 18.3137 31.7337 18.0224 31.4522C17.8088 31.2483 17.7943 30.8939 17.7943 30.5492C17.7943 30.2046 17.8137 29.855 18.0273 29.6511C18.1681 29.5104 18.3574 29.4375 18.5662 29.4375C18.7749 29.4375 18.9594 29.5104 19.1002 29.6511C19.3138 29.8599 19.3332 30.224 19.3332 30.5541C19.3332 30.8842 19.3138 31.2483 19.1002 31.457V31.4522Z" fill="#595757"/>
<path d="M21.5613 28.855C21.27 28.855 21.0127 28.9278 20.7991 29.0734V28.8938H20.1777V32.1997H20.7991V30.1851C20.7991 29.6997 21.0564 29.4278 21.5273 29.4278C21.9982 29.4278 22.2312 29.6802 22.2312 30.1851V32.1997H22.8477V30.1269C22.8477 29.7336 22.7215 29.4084 22.4837 29.1851C22.2555 28.9715 21.9351 28.855 21.5613 28.855V28.855Z" fill="#595757"/>
<path d="M27.3191 27.4231L26.455 30.8941L25.4986 27.4231H24.9112L23.95 30.8941L23.0859 27.4231H22.416L23.6442 32.2048H24.2267L25.2025 28.695L26.1831 32.2048H26.7608L27.9938 27.4231H27.3191Z" fill="#595757"/>
<path d="M29.6248 31.3405C29.3821 31.5784 29.1927 31.6609 28.8821 31.6609C28.3578 31.6609 28.0762 31.36 28.0374 30.7677H30.1636V30.4813C30.1636 29.4813 29.6345 28.8647 28.785 28.8647C27.9354 28.8647 27.4111 29.5152 27.4111 30.5541C27.4111 31.593 27.9257 32.2435 28.8626 32.2435C29.4403 32.2435 29.7558 32.0493 30.0714 31.7386L30.1927 31.6221L29.717 31.258L29.6248 31.3454V31.3405ZM28.1247 29.8502C28.2315 29.5929 28.484 29.4327 28.785 29.4327C29.0859 29.4327 29.3384 29.5929 29.4452 29.8502C29.4986 29.9764 29.518 30.0492 29.5325 30.2143H28.0374C28.0471 30.059 28.0713 29.9861 28.1247 29.8502V29.8502Z" fill="#595757"/>
<path d="M31.7324 28.8599C31.1498 28.8599 30.8003 29.0104 30.5236 29.3841L30.4411 29.4958L30.9071 29.8842L30.9993 29.7531C31.145 29.5443 31.3052 29.4327 31.7324 29.4327C32.3732 29.4327 32.4605 29.7191 32.4605 30.0249V30.2143H31.6062C30.8489 30.2143 30.3828 30.6026 30.3828 31.2289C30.3828 31.491 30.4848 31.7483 30.6498 31.923C30.878 32.1512 31.1644 32.2434 31.6693 32.2434C32.0139 32.2434 32.2518 32.1949 32.4654 32.0638V32.2095H33.0819V29.9958C33.0819 29.5735 32.9071 28.8599 31.7372 28.8599H31.7324ZM32.4605 31.0104C32.4605 31.2434 32.4168 31.4036 32.3343 31.4813C32.1644 31.6415 31.9605 31.6706 31.6693 31.6706C31.0867 31.6706 31.0042 31.457 31.0042 31.2289C31.0042 31.0153 31.077 30.7725 31.645 30.7725H32.4605V31.0153V31.0104Z" fill="#595757"/>
<path d="M34.0473 31.2628V27.4277H33.4404V31.2725C33.4404 31.8599 33.7609 32.2094 34.3046 32.2094H34.7221V31.6317H34.358C34.1298 31.6317 34.0473 31.5783 34.0473 31.2676V31.2628Z" fill="#595757"/>
<path d="M35.367 27.9133H34.7505V28.8794H34.333V29.4134H34.7505V31.2629C34.7505 31.8358 35.0952 32.2047 35.6292 32.2047H36.0515V31.627H35.6826C35.5175 31.627 35.3622 31.5833 35.3622 31.2726V29.4134H36.0515V28.8794H35.3622V27.9133H35.367Z" fill="#595757"/>
<path d="M37.572 28.8355C37.2856 28.8355 37.0234 28.9132 36.805 29.0588V27.4277H36.1885V32.2045H36.805V30.1754C36.805 29.6851 37.0622 29.4132 37.5331 29.4132C38.004 29.4132 38.237 29.6705 38.237 30.1754V32.2045H38.8584V30.1171C38.8584 29.3404 38.3535 28.8355 37.5671 28.8355H37.572Z" fill="#595757"/>
<path d="M42.2511 30.0931H44.324V29.496H42.2511V28.0202H44.6832V27.4231H41.6104V32.2048H44.6832V31.6077H42.2511V30.0931Z" fill="#595757"/>
<path d="M46.8096 31.3357C46.5814 31.5881 46.4164 31.6706 46.13 31.6706C45.829 31.6706 45.5911 31.5541 45.4358 31.3308C45.2999 31.1366 45.2513 30.9279 45.2513 30.5541C45.2513 30.1803 45.2999 29.9667 45.4358 29.7774C45.596 29.5541 45.8338 29.4375 46.1348 29.4375C46.4358 29.4375 46.5863 29.5201 46.8144 29.7677L46.9115 29.8745L47.3581 29.4812L47.2562 29.3696C46.9067 28.9909 46.6105 28.8599 46.1348 28.8599C45.227 28.8599 44.6396 29.5249 44.6396 30.5541C44.6396 31.5832 45.227 32.2434 46.1348 32.2434C46.6105 32.2434 46.9067 32.1124 47.2562 31.7337L47.3581 31.6221L46.9115 31.2289L46.8144 31.3357H46.8096Z" fill="#595757"/>
<path d="M48.6257 28.8598C48.247 28.8598 47.9169 28.9909 47.6645 29.2336C47.2809 29.6074 47.2324 30.1366 47.2324 30.5492C47.2324 30.9618 47.281 31.5007 47.6596 31.8696C47.9072 32.1123 48.2373 32.2434 48.6208 32.2434C49.0043 32.2434 49.3393 32.1172 49.582 31.8696C49.9607 31.5007 50.0092 30.9715 50.0092 30.5492C50.0092 30.1269 49.9607 29.6026 49.582 29.2288C49.3296 28.9861 48.9995 28.855 48.6208 28.855L48.6257 28.8598ZM49.1694 31.4521C48.8781 31.7337 48.383 31.7337 48.0868 31.4521C47.8732 31.2434 47.8538 30.8793 47.8538 30.5492C47.8538 30.2191 47.8732 29.8599 48.0868 29.6511C48.2325 29.5103 48.4218 29.4327 48.6257 29.4327C48.8296 29.4327 49.0238 29.5055 49.1645 29.6463C49.3781 29.855 49.3975 30.2191 49.3975 30.5443C49.3975 30.8696 49.3781 31.2385 49.1645 31.4473L49.1694 31.4521Z" fill="#595757"/>
<path d="M51.6208 28.855C51.3296 28.855 51.0723 28.9278 50.8538 29.0734V28.8938H50.2373V32.1997H50.8538V30.1851C50.8538 29.6997 51.1111 29.4278 51.582 29.4278C52.0529 29.4278 52.2859 29.6802 52.2859 30.1851V32.1997H52.9073V30.1269C52.9073 29.7336 52.7811 29.4084 52.5384 29.1851C52.3053 28.9666 51.9946 28.855 51.6208 28.855V28.855Z" fill="#595757"/>
<path d="M54.4753 28.8598C54.0966 28.8598 53.7616 28.9909 53.5092 29.2336C53.1306 29.6074 53.0771 30.1366 53.0771 30.5492C53.0771 30.9618 53.1257 31.4958 53.5092 31.8696C53.7568 32.1123 54.0918 32.2434 54.4753 32.2434C54.8588 32.2434 55.1889 32.1123 55.4365 31.8696C55.82 31.491 55.8637 30.9376 55.8637 30.5492C55.8637 30.1317 55.8151 29.6074 55.4316 29.2288C55.1792 28.9861 54.8491 28.855 54.4704 28.855L54.4753 28.8598ZM55.0141 31.4521C54.7228 31.7337 54.2277 31.7337 53.9316 31.4521C53.718 31.2482 53.7034 30.8939 53.7034 30.5492C53.7034 30.2045 53.7228 29.855 53.9364 29.6511C54.0821 29.5103 54.2665 29.4375 54.4801 29.4375C54.6937 29.4375 54.8733 29.5103 55.019 29.6511C55.2326 29.8599 55.252 30.2094 55.252 30.5492C55.252 30.889 55.2326 31.2482 55.019 31.4521H55.0141Z" fill="#595757"/>
<path d="M59.5626 28.855C59.1354 28.855 58.7713 29.0103 58.5043 29.3016C58.2762 29.0152 57.9218 28.855 57.4849 28.855C57.1937 28.855 56.9267 28.9327 56.7034 29.0783V28.8938H56.082V32.1997H56.7034V30.1851C56.7034 29.6997 56.9655 29.4278 57.4412 29.4278C57.917 29.4278 58.1548 29.6802 58.1548 30.1851V32.1997H58.7762V30.1269C58.7762 29.6997 59.0578 29.4327 59.5141 29.4327C59.9704 29.4327 60.2276 29.6851 60.2276 30.19V32.2046H60.8441V30.1317C60.8441 29.7385 60.7131 29.4132 60.4704 29.1899C60.2422 28.9763 59.917 28.8598 59.548 28.8598L59.5626 28.855Z" fill="#595757"/>
<path d="M61.8198 27.4231H61.1787V28.1127H61.8198V27.4231Z" fill="#595757"/>
<path d="M61.7857 28.8745H61.2129V32.2047H61.7857V28.8745Z" fill="#595757"/>
<path d="M67.5627 28.0202H69.9947V27.4231H66.9219V32.2048H67.5627V30.1659H69.6306V29.5736H67.5627V28.0202Z" fill="#595757"/>
<path d="M71.1891 28.8598C70.8154 28.8598 70.4707 28.9909 70.228 29.2336C69.8493 29.6026 69.8008 30.1317 69.8008 30.5541C69.8008 30.9764 69.8493 31.5055 70.228 31.8696C70.4707 32.1123 70.8056 32.2434 71.1891 32.2434C71.5727 32.2434 71.9076 32.1123 72.1503 31.8696C72.529 31.5007 72.5824 30.9715 72.5824 30.5492C72.5824 30.1269 72.5338 29.6074 72.1503 29.2288C71.8979 28.9861 71.5678 28.855 71.1891 28.855V28.8598ZM71.7328 31.4521C71.4416 31.7337 70.9416 31.7337 70.6503 31.4521C70.4367 31.2482 70.4221 30.8793 70.4221 30.5492C70.4221 30.2191 70.4416 29.8599 70.6503 29.6511C70.7959 29.5103 70.9853 29.4327 71.194 29.4327C71.4028 29.4327 71.5921 29.5055 71.7328 29.6463C71.9464 29.855 71.961 30.2045 71.961 30.5443C71.961 30.8842 71.9416 31.2434 71.7328 31.4473V31.4521Z" fill="#595757"/>
<path d="M77.1117 30.9133C77.1117 31.3988 76.8544 31.6658 76.3835 31.6658C75.9126 31.6658 75.6796 31.4133 75.6796 30.9133V28.8987H75.0582V29.2531L74.9951 29.19C74.7669 28.9618 74.5096 28.8599 74.1601 28.8599C73.8785 28.8599 73.6163 28.9424 73.4125 29.0832V28.8938H72.7959V32.1998H73.4125V30.1948C73.4125 29.8113 73.6212 29.4278 74.0824 29.4278C74.3009 29.4278 74.4028 29.4715 74.5533 29.6269L74.6552 29.7337L75.0533 29.3307V30.9667C75.0533 31.3599 75.1796 31.6852 75.4223 31.9085C75.6456 32.1269 75.9563 32.2386 76.3447 32.2386C76.6359 32.2386 76.8932 32.1658 77.1068 32.0201V32.2046H77.7283V28.8987H77.1068V30.9133H77.1117Z" fill="#595757"/>
<path d="M81.6116 28.855C81.1844 28.855 80.8203 29.0103 80.5582 29.3016C80.3251 29.0152 79.9756 28.855 79.5387 28.855C79.2474 28.855 78.9804 28.9327 78.7571 29.0783V28.8938H78.1357V32.1997H78.7571V30.1851C78.7571 29.6997 79.0193 29.4278 79.495 29.4278C79.9708 29.4278 80.2135 29.6802 80.2135 30.1851V32.1997H80.8397V30.1269C80.8397 29.6997 81.1213 29.4327 81.5776 29.4327C82.034 29.4327 82.2961 29.6851 82.2961 30.19V32.2046H82.9126V30.1317C82.9126 29.7385 82.7864 29.4132 82.5437 29.1899C82.3107 28.9763 81.9902 28.8598 81.6164 28.8598L81.6116 28.855Z" fill="#595757"/>
<path d="M63.5138 29.5008C63.8051 29.5008 63.9653 29.5785 64.1983 29.8309L64.2954 29.9377L64.742 29.5445L64.64 29.4328C64.2857 29.0542 63.9944 28.9231 63.5186 28.9231C62.5963 28.9231 62.0234 29.5687 62.0234 30.6125C62.0234 31.6562 62.5963 32.3018 63.5186 32.3018C63.9944 32.3018 64.2905 32.1707 64.64 31.7921L64.742 31.6804L64.2954 31.2872L64.1983 31.394C63.9604 31.6513 63.8002 31.729 63.5138 31.729C63.2274 31.729 62.9749 31.6125 62.8196 31.3892C62.6837 31.1901 62.6303 30.9814 62.6303 30.6125C62.6303 30.2435 62.6788 30.0299 62.8147 29.8357C62.9749 29.6124 63.2128 29.4959 63.5089 29.4959L63.5138 29.5008Z" fill="#595757"/>
<path d="M30.3441 39.9185C29.6596 39.9185 29.1644 39.7632 28.7275 39.336L29.1887 38.8942C29.5237 39.2146 29.8878 39.3166 30.3586 39.3166C30.9557 39.3166 31.3004 39.069 31.3004 38.637C31.3004 38.4428 31.2422 38.2826 31.1208 38.1758C31.0043 38.0738 30.8926 38.0253 30.6208 37.9913L30.0819 37.9185C29.713 37.8699 29.4169 37.7437 29.213 37.5641C28.9897 37.3554 28.8829 37.0787 28.8829 36.7146C28.8829 35.9427 29.4557 35.4136 30.4072 35.4136C31.0091 35.4136 31.4364 35.5641 31.8247 35.9184L31.3829 36.3408C31.1014 36.0786 30.7761 36.001 30.3878 36.001C29.8538 36.001 29.5528 36.3019 29.5528 36.6903C29.5528 36.8505 29.6062 36.9961 29.7276 37.1029C29.8441 37.2049 30.0334 37.2777 30.2421 37.3068L30.7616 37.3796C31.1839 37.4428 31.4218 37.5398 31.6159 37.7097C31.8684 37.9233 31.9849 38.2389 31.9849 38.6175C31.9849 39.4331 31.3004 39.9185 30.3441 39.9185" fill="#00A0D2"/>
<path d="M34.4846 39.9185C33.5525 39.9185 32.8486 39.3019 32.8486 38.3844V35.4426H33.538V38.3553C33.538 38.9476 33.9069 39.3165 34.4846 39.3165C35.0623 39.3165 35.4312 38.9476 35.4312 38.3553V35.4426H36.1254V38.3844C36.1254 39.3019 35.4118 39.9185 34.4846 39.9185Z" fill="#00A0D2"/>
<path d="M40.5821 39.8796V36.9135L39.5287 39.0738H39.0141L37.9364 36.9135V39.8796H37.2471V35.4426H37.9364L39.2714 38.2048L40.5821 35.4426H41.2714V39.8796H40.5821Z" fill="#00A0D2"/>
<path d="M45.796 39.8796V36.9135L44.7426 39.0738H44.2329L43.1503 36.9135V39.8796H42.4561V35.4426H43.1503L44.4901 38.2048L45.796 35.4426H46.4902V39.8796H45.796Z" fill="#00A0D2"/>
<path d="M47.6738 39.8796V35.4426H50.5914V36.0446H48.368V37.3456H50.2662V37.9427H48.368V39.2777H50.5914V39.8796H47.6738Z" fill="#00A0D2"/>
<path d="M53.2565 36.0446H52.2323V37.4378H53.2565C53.7225 37.4378 54.0332 37.1805 54.0332 36.7436C54.0332 36.3067 53.7177 36.0446 53.2565 36.0446ZM54.0575 39.8796L53.0963 38.0106H52.2323V39.8796H51.5381V35.4426H53.3099C54.1788 35.4426 54.7274 35.9863 54.7274 36.7388C54.7274 37.3747 54.3293 37.7776 53.8196 37.9184L54.8681 39.8796H54.0575Z" fill="#00A0D2"/>
<path d="M82.5488 37.2776H56.6016V37.4475H82.5488V37.2776Z" fill="#00A0D2"/>
<path d="M26.9063 37.2776H0.963867V37.4475H26.9063V37.2776Z" fill="#00A0D2"/>
<path d="M62.2469 16.3401L62.2129 16.476C62.0236 17.2624 61.7517 17.9955 61.4071 18.6557C61.0527 19.3256 60.6109 19.9227 60.0915 20.4178C59.5672 20.9179 58.9555 21.3062 58.2856 21.5829C57.606 21.8596 56.8341 21.9956 55.9943 21.9956H51.5087V13.2283H53.2369C53.868 13.2283 54.402 13.3351 54.8195 13.539C55.2467 13.7478 55.5914 14.0245 55.8875 14.3886C56.1788 14.7575 56.4118 15.1799 56.5817 15.6507C56.7565 16.1362 56.9166 16.6508 57.0477 17.175L57.0817 17.3061H57.7662V8.37871H57.0768L57.0477 8.51949C56.9118 9.14572 56.7468 9.69428 56.5429 10.1846C56.3438 10.6652 56.0865 11.0875 55.7807 11.4322C55.4749 11.7671 55.0914 12.0293 54.6399 12.2138C54.1787 12.3982 53.601 12.4905 52.9263 12.4905H51.5087V3.48053H56.5477C57.4409 3.48053 58.208 3.64558 58.8245 3.97083C59.441 4.30094 59.9556 4.6893 60.3536 5.13591C60.742 5.57767 61.0527 6.03885 61.276 6.51459C61.509 7.00974 61.6595 7.39325 61.7469 7.68937L61.7857 7.81559H62.4605V2.73779H44.426V3.47568H47.0377V21.9956H44.1348V22.7334H62.9265V16.3401H62.242H62.2469Z" fill="#009FD1"/>
</svg>
