<svg width="200" height="10" viewBox="0 0 200 10" fill="none" xmlns="http://www.w3.org/2000/svg">
<path d="M8.54367 2.30746V2.73951H0.130859V2.30746H2.73286C2.45615 1.77832 2.12119 1.25403 1.81051 0.783148L2.0775 0.564697C2.57751 0.909366 3.13092 1.44821 3.56297 2.04046L3.15035 2.30746H5.28146C5.51933 1.74919 5.75234 1.11811 5.93196 0.598679L6.86403 0.943347C6.49994 1.47249 6.10673 1.94337 5.77177 2.30746H8.54367ZM0.829906 3.62302H4.28144V8.67655C4.28144 9.57948 3.49501 9.81735 2.19886 9.33676L2.25713 8.99208C3.30084 9.08917 3.43676 9.04063 3.43676 8.47265V7.02602H1.68914V9.59889H0.825047V3.62302H0.829906ZM1.694 4.05507V5.09879H3.44161V4.05507H1.694ZM3.44161 6.59882V5.53569H1.694V6.59882H3.44161ZM5.95624 7.89497H5.15039V3.50166H5.95624V7.89497ZM6.92714 3.13757H7.79123V8.67169C7.79123 9.6523 7.01452 9.90958 5.47079 9.29306L5.53875 8.94839C6.75722 9.08432 6.93198 9.04549 6.93198 8.51635V3.13272L6.92714 3.13757Z" fill="#595757"/>
<path d="M23.2573 4.87033V5.27326H18.9999C18.8834 7.64225 18.1261 8.9384 17.5532 9.61803L17.2863 9.41414C17.7766 8.62771 18.1892 7.25389 18.1892 4.68586V2.92853C17.9902 3.07417 17.7863 3.18582 17.6115 3.28291L17.5435 3.1664V8.20052H15.9318V8.98695H15.126V1.35082H17.5435V2.92368C18.0533 2.52076 18.8203 1.54015 19.1164 0.554688L20.0096 0.850812C19.9126 1.03528 19.8058 1.2149 19.6941 1.37995H20.8155L21.0825 1.26344L21.8495 1.74404C21.534 2.079 21.2524 2.30231 20.9272 2.50134H23.2476V2.92368H21.8204V3.36544C21.8204 3.5402 21.8495 3.60331 22.1845 3.60331C22.5194 3.60331 22.7525 3.57418 22.9321 3.41884L23.2185 3.93827C22.9903 4.1373 22.5971 4.17614 22.0486 4.17614C21.2815 4.17614 21.0874 4.07905 21.0874 3.29262V2.91883H20.4903C20.4223 3.73438 19.8931 4.38488 19.1067 4.69557L18.9999 4.52081V4.85577H20.8204C20.6747 4.50139 20.4854 4.09847 20.3495 3.83147L20.5533 3.647C20.8883 3.89458 21.233 4.26838 21.4854 4.63732L21.1213 4.85577H23.2525L23.2573 4.87033ZM16.7523 1.79259H15.927V3.41398H16.7523V1.79259ZM16.7523 3.84603H15.927V5.55482H16.7523V3.84603ZM16.7523 5.98687H15.927V7.78303H16.7523V5.98687ZM18.7086 2.5159H20.3592C20.5145 2.29745 20.6941 2.05473 20.7912 1.82657H19.3737C19.1601 2.08385 18.9417 2.31687 18.7135 2.5159H18.7086ZM19.7718 2.93825H19.0048V4.4043C19.5436 4.00138 19.7426 3.47224 19.7718 2.93825ZM19.0824 7.55001H22.8787V9.56463H22.0922V9.0452H19.8689V9.58405H19.0824V7.55001ZM22.8641 6.15192H19.0921V5.76841H22.8641V6.15192ZM19.0921 6.64222H22.8641V7.02573H19.0921V6.64222ZM19.8689 8.68596H22.0922V7.91895H19.8689V8.68596Z" fill="#595757"/>
<path d="M38.0881 8.29255L37.7531 9.22461C36.5443 9.29257 35.4035 9.3217 34.1947 9.30228C31.9422 9.27316 31.0393 8.47702 30.6364 7.26826C30.5005 8.15177 30.2335 8.87994 29.6849 9.57899L29.4082 9.38481C29.9568 8.1275 30.0053 6.90903 29.947 5.06919L30.7432 5.09832C30.7432 5.66629 30.7335 6.17115 30.7043 6.63233C30.8597 7.00612 31.0296 7.30224 31.2238 7.54497V4.27306H29.6218V3.85072H31.1558V2.60312H29.8111V2.19049H31.1558V0.705025H31.9617V2.19049H33.1899V2.37982C33.554 1.83126 33.7821 1.2196 33.9277 0.612793L34.6656 0.831242C34.6074 1.01571 34.5297 1.20504 34.4375 1.39921H37.5443C37.5249 2.6371 37.4667 3.43323 37.3696 3.93324C37.1948 4.84588 36.3356 4.62258 35.6123 4.12742L35.6996 3.84101C36.5152 4.04005 36.6511 4.00606 36.7045 3.7245C36.7531 3.49634 36.8113 2.86041 36.8113 1.78757H34.219C34.1122 1.96233 33.9909 2.12253 33.8549 2.28758H34.1608V3.13226H34.5734C34.6316 2.84584 34.6608 2.49147 34.6608 2.0303L35.3307 2.05942C35.3307 2.48176 35.3016 2.83613 35.2336 3.13226H35.8016V2.28758H36.389V3.51576H35.1219C34.9569 3.91868 34.6996 4.19539 34.3258 4.38956L34.7482 4.55462C34.6899 4.69054 34.6219 4.8119 34.5491 4.94783H37.5686C37.5298 6.01096 37.4812 6.74883 37.4036 7.33622C37.2676 8.39935 36.52 8.3411 35.5637 7.70031L35.6608 7.39448C36.6317 7.62264 36.7045 7.57895 36.7433 7.21972C36.8016 6.71971 36.8307 6.17601 36.8501 5.32162H34.3064C34.1802 5.48667 34.0394 5.65658 33.8841 5.81192H34.1219V6.66631H34.5443C34.5928 6.37019 34.6219 6.0061 34.6219 5.53522L35.2919 5.54493C35.2919 5.98668 35.253 6.36048 35.1948 6.66631H35.7822V5.81192H36.4132V7.04981H35.088C34.7918 7.9139 34.1559 8.19061 33.1607 8.32654L33.0539 8.03041C33.7821 7.82167 34.2239 7.65662 34.4472 7.04981H33.486V6.1663C33.2821 6.33135 33.0636 6.49155 32.8258 6.63718L32.6607 6.39931C33.253 5.84105 33.6413 5.28764 33.9374 4.56918C33.7627 4.62744 33.5831 4.67598 33.3695 4.72452L33.2821 4.41869C33.8792 4.20024 34.2433 3.97694 34.4423 3.52547H33.6073V2.56429C33.4035 2.77303 33.185 2.96721 32.9471 3.14197L32.7578 2.92352C32.8549 2.82643 32.9423 2.72448 33.0151 2.61769H31.952V3.86528H33.3501V4.28762H32.0151V5.54493H33.0782V5.95755H32.0151V8.1809C32.5636 8.41877 33.2433 8.46731 34.185 8.47702C35.7773 8.49644 37.1317 8.39935 38.0783 8.30226L38.0881 8.29255Z" fill="#595757"/>
<path d="M48.3935 6.58862H51.9228C51.8548 7.39447 51.6946 8.32654 51.5198 8.84111C51.2722 9.579 50.2528 9.98192 48.612 8.79257L48.7673 8.48674C50.1509 8.94791 50.5441 8.88966 50.6849 8.45761C50.7819 8.17119 50.8596 7.76827 50.9421 7.02067H48.2673C47.6702 8.72946 46.107 9.45763 44.2963 9.67609L44.1992 9.34113C45.6556 8.99646 46.8158 8.3411 47.3158 7.02067H44.641V6.58862H47.4517C47.5197 6.35075 47.5585 6.09832 47.578 5.82161L48.5003 5.88957C48.4809 6.13715 48.4421 6.37017 48.3935 6.58862ZM45.6313 2.8458H44.5002V2.41375H46.2187V1.8749H44.8012V1.44285H46.2187V0.685547H47.044V1.44285H48.3692V1.8749H47.044V2.41375H48.6362V2.8458H47.5731C47.5828 3.17105 47.6605 3.25843 47.9275 3.25843C48.1945 3.25843 48.3207 3.24872 48.476 3.07396L48.8013 3.52543C48.6265 3.71961 48.2527 3.81185 47.6993 3.81185C47.3935 3.81185 47.1799 3.79243 47.0585 3.68563V4.27303H48.2867V4.70508H47.0585V5.15655C47.6265 5.11771 48.1411 5.05945 48.5926 5.01091L48.6508 5.34587C47.5974 5.642 46.0633 5.88472 44.6895 6.03521L44.5148 5.25849C45.1216 5.25849 45.7138 5.23907 46.2721 5.20995V4.70022H44.9759V4.26817H46.2721V3.53999H46.9517C46.9032 3.4429 46.8838 3.31183 46.8838 3.12736V2.84094H46.4032C46.2284 3.53999 45.5876 4.07884 44.3983 4.31671L44.3012 4.02059C45.2624 3.6565 45.5002 3.31183 45.6362 2.84094L45.6313 2.8458ZM51.782 5.88472C51.3014 5.63714 51.0732 5.16625 50.9567 4.50118L50.4373 5.06916C50.2625 4.841 50.112 4.63711 49.9567 4.4575C49.7188 5.03518 49.3499 5.4818 48.7964 5.88472L48.5586 5.63714C49.0392 5.14684 49.2867 4.61284 49.4227 3.84583C49.2139 3.62737 48.9809 3.40407 48.7236 3.15649L48.8887 2.87007C49.0974 2.97687 49.311 3.08852 49.5003 3.20503C49.5198 2.93803 49.5295 2.63706 49.5392 2.31181H48.7528V1.87975H49.5489V0.70011H50.3742C50.3742 1.12245 50.3742 1.51567 50.3547 1.87975H51.6412C51.6412 3.40407 51.6509 4.69051 51.9276 4.98663C52.1266 5.20509 52.1364 5.01576 52.1461 3.65165H52.4907C52.9422 5.67597 52.5296 6.27794 51.782 5.88472ZM50.9276 4.31186C50.8499 3.75359 50.8402 3.08367 50.8402 2.30695H50.3402C50.3111 2.82638 50.2625 3.26814 50.1751 3.66136C50.4518 3.8701 50.7043 4.09341 50.9227 4.31186H50.9276Z" fill="#595757"/>
<path d="M62.4482 5.07431C62.4482 4.68097 62.7639 4.39446 63.1572 4.38475C63.5408 4.37503 63.8467 4.68097 63.8564 5.07431C63.8661 5.44823 63.5408 5.77359 63.1572 5.76387C62.7639 5.75416 62.4482 5.44823 62.4482 5.07431Z" fill="#595757"/>
<path d="M77.2252 7.53543L77.3709 7.85097C76.6039 8.35098 75.0116 8.95294 73.7737 9.29761L73.4873 8.33642C73.6621 8.317 73.832 8.28787 74.0067 8.25875V5.02565H74.7543V8.13253C74.9194 8.1034 75.0796 8.07428 75.2349 8.03544V4.07417H74.1038V1.18575H76.9631V4.07417H76.0602V5.69558H77.2786V6.12762H76.0602V7.85582C76.4922 7.74902 76.8951 7.64708 77.2301 7.53057L77.2252 7.53543ZM74.8854 3.65183H76.1718V1.62751H74.8854V3.65183ZM82.303 3.97708L81.8127 4.80235C80.9195 4.45768 80.1039 3.6227 79.6331 2.40422H79.2204C78.9631 2.98191 78.6427 3.43823 78.2981 3.81203H80.3806V4.24408H78.2495V3.87028C77.7786 4.36059 77.2495 4.70526 76.7446 4.95283L76.5796 4.70526C77.2981 4.2635 77.9631 3.56445 78.4 2.40422H77.2301V1.97217H78.5457C78.6622 1.58867 78.7447 1.15662 78.8126 0.676025L79.6962 0.811951C79.6185 1.23429 79.5117 1.62751 79.3903 1.97217H81.8661V2.40422H80.0166C80.5942 3.26832 81.2836 3.67125 82.2981 3.97708H82.303ZM77.3514 5.10818H81.5457V5.54023H79.2156C79.0991 5.84606 78.968 6.16161 78.8224 6.49171H81.4486C81.3224 7.66165 81.2302 8.23933 81.0942 8.68594C80.8175 9.618 79.9923 10.0112 78.5408 8.80245L78.6767 8.49662C79.9729 8.94808 80.1525 8.88012 80.2981 8.41895C80.3855 8.14224 80.4826 7.60339 80.5457 6.92376H78.6282C78.4922 7.21018 78.3515 7.50145 78.1961 7.74902L77.4388 7.49174C77.7932 6.88978 78.0893 6.17617 78.3223 5.54508H77.3514V5.11303V5.10818Z" fill="#595757"/>
<path d="M90.648 3.08866V9.59366H89.7839V4.33626C89.3907 4.82656 88.9489 5.29745 88.4586 5.71008L88.2305 5.43337C89.2451 4.27315 90.1771 2.63234 90.7354 0.627441L91.6869 0.942983C91.4393 1.63232 91.0898 2.3702 90.6529 3.09352L90.648 3.08866ZM96.1142 9.58395C94.2743 9.45773 93.3228 7.02079 92.9879 4.33626C92.3568 4.43335 91.7112 4.53044 91.0801 4.61297L90.9927 4.07412C91.6335 3.98674 92.2888 3.88965 92.9393 3.79741C92.852 2.89448 92.8131 1.90902 92.7743 0.860454H93.6578C93.6966 1.92358 93.7452 2.87506 93.8131 3.66149C94.7938 3.51586 95.7792 3.35566 96.7695 3.1809L96.8472 3.71003C95.8569 3.88479 94.8617 4.04499 93.8617 4.20034C94.0801 5.98678 94.687 8.21984 95.8181 8.47713C96.2016 8.56451 96.3375 8.2781 96.3472 6.67612H96.7307C97.1336 8.42373 96.988 9.6422 96.119 9.58395H96.1142ZM95.5559 3.0207C95.1336 2.38962 94.6627 1.78281 94.2112 1.20998L94.4297 0.942983C95.0705 1.31678 95.6676 1.75853 96.2695 2.34107L95.5511 3.0207H95.5559Z" fill="#595757"/>
<path d="M103.691 2.98189C103.492 2.37993 103.211 1.6372 103.031 1.21486L103.308 1.03039C103.653 1.36535 104.133 2.08381 104.391 2.62266L103.691 2.97703V2.98189ZM108.065 8.03542C106.779 8.52572 104.725 9.10826 103.279 9.28302L103.085 8.38008C103.682 8.35096 104.4 8.28299 105.119 8.1859V6.91888H103.565V6.48683H105.119V5.49652H103.25V5.06447H104.565C104.347 4.56445 104.094 4.09357 103.876 3.69064L104.041 3.56443H103.09V3.13238H104.614V0.724551H105.361V3.13238H105.813V0.724551H106.58V3.13238H107.769V3.56443H106.541L107.201 3.82172C106.973 4.20522 106.633 4.70523 106.318 5.05961H107.832V5.49166H105.963V6.48198H107.556V6.91403H105.963V8.05483C106.75 7.93833 107.488 7.80726 107.978 7.69075L108.065 8.0257V8.03542ZM105.274 4.76349L104.793 5.06932H105.886C106.031 4.65669 106.211 4.05473 106.318 3.57414H104.235C104.638 3.91881 104.963 4.30231 105.269 4.76349H105.274ZM107.06 3.09354L106.774 2.92849C107.012 2.37022 107.245 1.62263 107.376 1.01097L108.221 1.30709C107.944 1.88478 107.493 2.62266 107.06 3.09354ZM111.609 3.59356H110.667V8.70533C110.667 9.67623 109.497 10.0209 107.954 9.05971L108.051 8.71504C109.614 9.03058 109.808 8.90922 109.808 8.31212V3.59356H107.978V3.16151H109.808V0.714844H110.672V3.16151H111.614V3.59356H111.609ZM108.512 6.59363C108.425 5.97226 108.303 5.30719 108.051 4.30231L108.376 4.16639C108.934 5.09845 109.23 5.89459 109.366 6.37033L108.512 6.58878V6.59363Z" fill="#595757"/>
<path d="M121.24 2.70041H117.861V2.26836H119.454C119.167 1.73922 118.774 1.15668 118.531 0.850852L118.759 0.603271C119.23 0.889686 119.871 1.3897 120.284 1.85088L119.784 2.27322H121.23V2.70527L121.24 2.70041ZM120.992 8.76367H118.988V9.54039H118.23V6.29759H120.992V8.76367ZM120.925 3.97714H118.24V3.57422H120.925V3.97714ZM118.24 4.8995H120.925V5.31213H118.24V4.8995ZM120.255 6.72964H118.988V8.32191H120.255V6.72964ZM126.357 8.61804L125.837 9.60835C125.289 9.38019 124.187 8.76367 123.794 6.67138C123.507 8.32191 122.42 9.23456 120.667 9.64719L120.551 9.32194C122.784 8.55493 123.027 7.02091 122.997 4.57424L123.929 4.60337C123.929 4.92863 123.929 5.30242 123.92 5.59369C123.988 6.00632 124.075 6.37041 124.177 6.67624C124.493 6.28303 124.735 5.85098 125.012 5.2296L125.789 5.78787C125.454 6.21021 124.915 6.71993 124.342 7.07431C124.794 8.04521 125.502 8.38987 126.357 8.62774V8.61804ZM123.046 0.714926L123.959 0.763471C123.968 1.5499 123.929 2.3072 123.74 2.97712C124.546 3.3412 125.391 3.80238 126.012 4.26356L125.4 5.00144C124.939 4.46259 124.269 3.80238 123.619 3.32179C123.274 4.1956 122.585 4.88493 121.25 5.21989L121.124 4.90435C122.823 4.17618 123.06 3.00624 123.051 0.710071L123.046 0.714926ZM121.405 5.48204C121.827 5.88496 122.289 6.4675 122.624 7.04518L121.857 7.46752C121.628 6.73935 121.376 6.11312 121.138 5.66651L121.405 5.48204ZM121.915 3.21013C121.711 2.54992 121.463 1.98195 121.158 1.40426L121.425 1.2295C121.876 1.64213 122.318 2.18098 122.692 2.77323L121.915 3.20528V3.21013ZM124.313 2.99168L124.109 2.76352C124.493 2.33147 124.895 1.72951 125.124 1.16154L125.929 1.65184C125.604 2.0936 124.798 2.7441 124.308 2.99654L124.313 2.99168Z" fill="#595757"/>
<path d="M136.003 5.07431C136.003 4.68097 136.319 4.39446 136.712 4.38475C137.096 4.37503 137.402 4.68097 137.411 5.07431C137.421 5.44823 137.096 5.77359 136.712 5.76387C136.319 5.75416 136.003 5.44823 136.003 5.07431Z" fill="#595757"/>
<path d="M150.251 8.16168L151.066 8.73936C150.115 9.25879 148.421 9.6423 147.275 9.75395L147.197 9.40928C148.192 9.18112 149.319 8.86072 150.246 8.16168H150.251ZM155.673 3.32661V3.75866H154.081L153.964 4.62275H148.581L148.746 3.75866H147.222V3.32661H148.824L148.979 2.49164H154.256L154.139 3.32661H155.673ZM148.304 3.02078H147.489V1.60327H151.654C151.183 1.37511 150.571 1.11296 150.1 0.933346L150.178 0.598389C150.707 0.627516 151.673 0.744022 152.328 0.991601L152.052 1.60327H155.363V3.02078H154.547V2.03046H148.314V3.02078H148.304ZM154.319 8.05488H148.469V5.0451H154.319V8.05488ZM153.513 5.47229H149.275V5.89463H153.513V5.47229ZM153.513 6.30726H149.275V6.74902H153.513V6.30726ZM153.513 7.16165H149.275V7.62283H153.513V7.16165ZM149.425 4.21498H150.93L151.008 3.7538H149.523L149.425 4.21498ZM149.61 3.32176H151.086L151.154 2.8897H149.697L149.61 3.32176ZM153.285 3.7538H151.78L151.712 4.21498H153.217L153.285 3.7538ZM153.411 2.8897H151.916L151.848 3.32176H153.343L153.411 2.8897ZM151.974 8.23449C152.935 8.33158 154.498 8.56945 155.571 8.91412L155.188 9.70055C154.178 9.31705 152.877 8.86558 151.896 8.57916L151.974 8.23449Z" fill="#595757"/>
<path d="M165.708 7.69069C165.096 8.09362 163.13 8.95771 162.004 9.25384L161.718 8.30236C161.863 8.28294 162.014 8.26352 162.179 8.2344V5.03043H162.927V8.08876C163.082 8.05964 163.223 8.0208 163.378 7.98196V4.16633H162.295V1.19052H165.116V4.16633H164.203V5.42364H165.509V5.85569H164.203V7.78293C164.732 7.63729 165.223 7.49651 165.587 7.36059L165.713 7.68584L165.708 7.69069ZM163.082 3.73913H164.349V1.62742H163.082V3.73913ZM169.538 9.61793C168.626 9.61793 167.888 9.22471 167.315 8.58392C166.49 8.99655 165.504 9.35093 164.417 9.54511L164.291 9.21986C165.354 8.89461 166.228 8.5111 166.936 8.08876C166.65 7.647 166.407 7.11786 166.237 6.55474L164.931 6.70038L164.854 6.26832C165.286 6.21978 165.708 6.18094 166.121 6.1324C166.014 5.71005 165.936 5.27801 165.902 4.82654L166.708 4.74886C166.747 5.19062 166.825 5.62267 166.927 6.03531C167.281 5.98676 167.645 5.94793 167.999 5.89938C167.674 5.53529 167.398 5.23917 167.087 4.92848L167.281 4.66148C167.655 4.82654 168.247 5.12266 168.66 5.45762L168.325 5.86055C168.912 5.78287 169.504 5.7052 170.116 5.62268L170.213 6.05473C169.111 6.21007 168.092 6.33143 167.048 6.45765C167.194 6.89941 167.383 7.30233 167.626 7.63729C168.174 7.23437 168.611 6.81203 168.961 6.36056L169.631 6.87028C169.334 7.24408 168.796 7.71497 168.077 8.15672C168.47 8.5111 168.961 8.7247 169.543 8.74412C169.878 8.75383 169.917 8.38974 169.898 7.53535H170.252C170.665 8.74412 170.626 9.65676 169.533 9.62764L169.538 9.61793ZM165.262 2.28763C165.626 2.2488 165.99 2.21967 166.354 2.18083C166.198 1.70995 166.106 1.22935 166.058 0.763321L166.786 0.705066C166.854 1.15653 166.98 1.63713 167.15 2.0886C167.611 2.04006 168.082 1.9818 168.548 1.92355C168.203 1.54975 167.907 1.25363 167.577 0.928376L167.771 0.661377C168.184 0.82643 168.752 1.15168 169.165 1.48664L168.762 1.89928C169.184 1.84102 169.606 1.78277 170.038 1.7148L170.116 2.13715C169.165 2.28278 168.247 2.39443 167.325 2.51094C167.461 2.79736 167.611 3.07892 167.796 3.3265C168.228 3.04979 168.572 2.7391 168.839 2.44298L169.47 2.99154C169.165 3.28766 168.752 3.57893 168.252 3.83622C168.616 4.14205 169.029 4.32652 169.5 4.2974C169.718 4.28769 169.728 3.99156 169.713 3.30223H170.058C170.47 4.36536 170.49 5.15179 169.529 5.15179C168.742 5.15179 168.053 4.77799 167.495 4.18089C166.786 4.47701 165.97 4.70032 165.116 4.81198L165.029 4.47701C165.805 4.29254 166.504 4.02555 167.121 3.71971C166.883 3.38475 166.669 3.00124 166.509 2.59832C166.116 2.64687 165.723 2.6857 165.32 2.72454L165.262 2.29249V2.28763Z" fill="#595757"/>
<path d="M176.519 9.36067C177.863 8.67133 178.708 7.98685 179.456 7.09847L180.436 7.62761C179.868 8.18588 178.116 9.24901 176.684 9.68106L176.519 9.36552V9.36067ZM176.674 6.49166H177.499V2.25369H179.465V0.709961H180.329V2.25369H181.383V0.709961H182.247V2.25369H184.232V6.49166H185.067V6.97226H176.674V6.49166ZM179.465 2.71001H178.344V4.28287H179.465V2.71001ZM179.465 4.71492H178.344V6.49166H179.465V4.71492ZM181.383 2.71001H180.329V4.28287H181.383V2.71001ZM181.383 4.71492H180.329V6.49166H181.383V4.71492ZM181.431 7.45771L181.587 7.14216C182.63 7.448 184.203 8.12277 185.126 8.70531L184.494 9.63737C183.562 8.86065 182.46 8.09364 181.436 7.45771H181.431ZM183.388 2.71001H182.247V4.28287H183.388V2.71001ZM183.388 4.71492H182.247V6.49166H183.388V4.71492Z" fill="#595757"/>
<path d="M191.514 3.53521L191.301 3.27792C191.951 2.58859 192.48 1.66623 192.786 0.573975L193.728 0.899224C193.582 1.17593 193.442 1.43807 193.286 1.67594H195.791V2.10799H194.485C194.704 2.35557 194.917 2.68568 195.146 3.05947L194.408 3.37501C194.291 2.91384 194.179 2.51092 194.024 2.10799H192.99C192.577 2.66626 192.097 3.13229 191.514 3.53521ZM194.121 7.72949H196.116V8.16153H194.121V9.55477H193.296V8.16153H191.33V7.72949H193.296V7.1518H191.82V4.67601H193.296V4.11775H191.456V3.6857H193.296V2.81189H194.121V3.6857H196.019V4.11775H194.121V4.67601H195.645V7.1518H194.121V7.72949ZM193.315 5.11292H192.607V5.6906H193.315V5.11292ZM193.315 6.10323H192.607V6.72461H193.315V6.10323ZM194.102 5.6906H194.859V5.11292H194.102V5.6906ZM194.859 6.72461V6.10323H194.102V6.72461H194.859ZM195.301 3.06918C195.84 2.38955 196.175 1.48662 196.364 0.641937L197.286 0.938061C197.18 1.19535 197.053 1.44778 196.922 1.67594H199.675V2.10799H198.063C198.281 2.36528 198.524 2.71966 198.714 3.0886L197.937 3.38472C197.82 2.89442 197.718 2.50121 197.573 2.10799H196.641C196.325 2.55946 195.961 2.94296 195.548 3.27792L195.301 3.06918ZM198.349 9.32176C196.883 9.32176 196.286 9.28292 196.286 8.21979V3.54977H199.252V6.05469C199.252 6.88966 198.752 7.25375 197.354 6.61296L197.422 6.26829C198.364 6.42363 198.466 6.29741 198.466 5.9042V3.98668H197.112V8.00619C197.112 8.62757 197.379 8.58388 198.165 8.58388C199.286 8.58388 199.306 8.51591 199.286 7.10811H199.631C200.015 8.56446 200.199 9.33147 198.345 9.33147L198.349 9.32176Z" fill="#595757"/>
</svg>
