<!--?xml version="1.0" encoding="utf-8"?-->
<!-- Generator: Adobe Illustrator 26.2.1, SVG Export Plug-In . SVG Version: 6.00 Build 0)  -->
<svg version="1.1" xmlns="http://www.w3.org/2000/svg" xmlns:xlink="http://www.w3.org/1999/xlink" x="0px" y="0px" viewBox="0 0 996.6 418" style="" xml:space="preserve">
<style type="text/css">
	.st0{fill:#595757;}
	.st1{fill:#D80F18;}
	.st2{fill:#FFFFFF;}
	.st3{fill:#00A0D2;}
	.st4{fill:#009FD1;}
	.st5{fill:url(#SVGID_1_);}
	.st6{fill:url(#SVGID_00000032633328912977715820000012196353394854755756_);}
	.st7{fill:none;stroke:#00A0D2;stroke-width:8.5039;stroke-miterlimit:10;}
</style>
<g id="other-title">
	<g>
		<g>
			<g>
				<g>
					<g>
						<path class="st0 qbCVWdHo_0" d="M309.9,101.6v0.9h-17.3v-0.9h5.4c-0.6-1.1-1.3-2.2-1.9-3.1l0.6-0.5c1,0.7,2.2,1.8,3.1,3l-0.8,0.6h4.4
							c0.5-1.1,1-2.5,1.3-3.5l1.9,0.7c-0.8,1.1-1.6,2.1-2.3,2.8H309.9z M294,104.3h7.1v10.4c0,1.9-1.6,2.4-4.3,1.4l0.1-0.7
							c2.2,0.2,2.4,0.1,2.4-1.1v-3h-3.6v5.3H294V104.3z M295.8,105.2v2.2h3.6v-2.2H295.8z M299.4,110.4v-2.2h-3.6v2.2H299.4z
							 M304.5,113.1h-1.7V104h1.7V113.1z M306.5,103.3h1.8v11.4c0,2-1.6,2.5-4.8,1.3l0.1-0.7c2.5,0.3,2.9,0.2,2.9-0.9V103.3z"></path>
						<path class="st0 qbCVWdHo_1" d="M340.2,106.9v0.8h-8.8c-0.2,4.9-1.8,7.5-3,9l-0.6-0.4c1-1.6,1.9-4.4,1.9-9.7v-3.6
							c-0.4,0.3-0.8,0.5-1.2,0.7l-0.1-0.2v10.4h-3.3v1.6h-1.7V99.6h5v3.2c1-0.8,2.6-2.8,3.2-4.9l1.8,0.6c-0.2,0.4-0.4,0.8-0.7,1.1
							h2.3l0.6-0.2l1.6,1c-0.7,0.7-1.2,1.1-1.9,1.6h4.8v0.9h-2.9v0.9c0,0.4,0.1,0.5,0.8,0.5c0.7,0,1.2-0.1,1.5-0.4l0.6,1.1
							c-0.5,0.4-1.3,0.5-2.4,0.5c-1.6,0-2-0.2-2-1.8v-0.8h-1.2c-0.1,1.7-1.2,3-2.8,3.7l-0.2-0.4v0.3v0.4h3.8c-0.3-0.7-0.7-1.6-1-2.1
							l0.4-0.4c0.7,0.5,1.4,1.3,1.9,2l-0.8,0.5H340.2z M326.8,100.5h-1.7v3.3h1.7V100.5z M326.8,104.7h-1.7v3.5h1.7V104.7z
							 M326.8,109.1h-1.7v3.7h1.7V109.1z M330.8,102h3.4c0.3-0.5,0.7-0.9,0.9-1.4h-2.9C331.7,101.1,331.3,101.6,330.8,102z
							 M333,102.9h-1.6v3C332.5,105.1,332.9,104,333,102.9z M331.6,112.4h7.8v4.2h-1.6v-1.1h-4.6v1.1h-1.6V112.4z M339.4,109.5h-7.8
							v-0.8h7.8V109.5z M331.6,110.5h7.8v0.8h-7.8V110.5z M333.2,114.7h4.6v-1.6h-4.6V114.7z"></path>
						<path class="st0 qbCVWdHo_2" d="M370.7,113.9l-0.7,1.9c-2.5,0.1-4.8,0.2-7.3,0.2c-4.6-0.1-6.5-1.7-7.3-4.2c-0.3,1.8-0.8,3.3-2,4.8
							l-0.6-0.4c1.1-2.6,1.2-5.1,1.1-8.9l1.6,0.1c0,1.2,0,2.2-0.1,3.2c0.3,0.8,0.7,1.4,1.1,1.9v-6.7h-3.3v-0.9h3.2v-2.6h-2.8v-0.8
							h2.8v-3.1h1.7v3.1h2.5v0.4c0.8-1.1,1.2-2.4,1.5-3.6l1.5,0.5c-0.1,0.4-0.3,0.8-0.5,1.2h6.4c0,2.5-0.2,4.2-0.4,5.2
							c-0.4,1.9-2.1,1.4-3.6,0.4l0.2-0.6c1.7,0.4,2,0.3,2.1-0.2c0.1-0.5,0.2-1.8,0.2-4h-5.3c-0.2,0.4-0.5,0.7-0.8,1h0.6v1.7h0.8
							c0.1-0.6,0.2-1.3,0.2-2.3l1.4,0.1c0,0.9-0.1,1.6-0.2,2.2h1.2v-1.7h1.2v2.5h-2.6c-0.3,0.8-0.9,1.4-1.6,1.8l0.9,0.3
							c-0.1,0.3-0.3,0.5-0.4,0.8h6.2c-0.1,2.2-0.2,3.7-0.3,4.9c-0.3,2.2-1.8,2.1-3.8,0.8l0.2-0.6c2,0.5,2.2,0.4,2.2-0.4
							c0.1-1,0.2-2.2,0.2-3.9h-5.2c-0.3,0.3-0.6,0.7-0.9,1h0.5v1.8h0.9c0.1-0.6,0.2-1.4,0.2-2.3l1.4,0c0,0.9-0.1,1.7-0.2,2.3h1.2
							v-1.8h1.3v2.5h-2.7c-0.6,1.8-1.9,2.4-4,2.6l-0.2-0.6c1.5-0.4,2.4-0.8,2.9-2h-2v-1.8c-0.4,0.3-0.9,0.7-1.4,1l-0.3-0.5
							c1.2-1.1,2-2.3,2.6-3.8c-0.4,0.1-0.7,0.2-1.2,0.3l-0.2-0.6c1.2-0.5,2-0.9,2.4-1.8h-1.7v-2c-0.4,0.4-0.9,0.8-1.4,1.2l-0.4-0.5
							c0.2-0.2,0.4-0.4,0.5-0.6h-2.2v2.6h2.9v0.9h-2.7v2.6h2.2v0.8h-2.2v4.6c1.1,0.5,2.5,0.6,4.5,0.6
							C366,114.3,368.8,114.1,370.7,113.9z"></path>
						<path class="st0 qbCVWdHo_3" d="M392,110.4h7.3c-0.1,1.7-0.5,3.6-0.8,4.6c-0.5,1.5-2.6,2.4-6-0.1l0.3-0.6c2.8,0.9,3.7,0.8,4-0.1
							c0.2-0.6,0.4-1.4,0.5-3h-5.5c-1.2,3.5-4.4,5-8.2,5.5l-0.2-0.7c3-0.7,5.4-2.1,6.4-4.8h-5.5v-0.9h5.8c0.1-0.5,0.2-1,0.3-1.6
							l1.9,0.1C392.1,109.5,392.1,109.9,392,110.4z M386.3,102.7h-2.3v-0.9h3.5v-1.1h-2.9v-0.9h2.9v-1.6h1.7v1.6h2.7v0.9h-2.7v1.1
							h3.3v0.9h-2.2c0,0.7,0.2,0.8,0.7,0.8c0.6,0,0.8,0,1.1-0.4l0.7,0.9c-0.4,0.4-1.1,0.6-2.3,0.6c-0.6,0-1.1,0-1.3-0.3v1.2h2.5v0.9
							h-2.5v0.9c1.2-0.1,2.2-0.2,3.2-0.3l0.1,0.7c-2.2,0.6-5.3,1.1-8.2,1.4l-0.4-1.6c1.2,0,2.5,0,3.6-0.1v-1h-2.7v-0.9h2.7v-1.5h1.4
							c-0.1-0.2-0.1-0.5-0.1-0.9v-0.6h-1c-0.4,1.4-1.7,2.5-4.1,3l-0.2-0.6C385.5,104.4,386,103.6,386.3,102.7z M398.9,108.9
							c-1-0.5-1.5-1.5-1.7-2.8l-1.1,1.2c-0.4-0.5-0.7-0.9-1-1.3c-0.5,1.2-1.2,2.1-2.4,2.9l-0.5-0.5c1-1,1.5-2.1,1.8-3.7
							c-0.4-0.5-0.9-0.9-1.4-1.4l0.3-0.6c0.4,0.2,0.9,0.5,1.3,0.7c0-0.6,0.1-1.2,0.1-1.8h-1.6v-0.9h1.6v-2.4h1.7c0,0.9,0,1.7,0,2.4
							h2.6c0,3.1,0,5.8,0.6,6.4c0.4,0.5,0.4,0.1,0.5-2.7h0.7C401.3,108.5,400.5,109.8,398.9,108.9z M397.2,105.7
							c-0.2-1.1-0.2-2.5-0.2-4.1h-1c-0.1,1.1-0.2,2-0.3,2.8C396.2,104.8,396.7,105.2,397.2,105.7z"></path>
						<path class="st0 qbCVWdHo_4" d="M420.9,107.3c0-0.8,0.7-1.4,1.5-1.4c0.8,0,1.4,0.6,1.4,1.4c0,0.8-0.7,1.4-1.4,1.4
							C421.6,108.7,420.9,108,420.9,107.3z"></path>
						<path class="st0 qbCVWdHo_5" d="M451.3,112.3l0.3,0.7c-1.6,1-4.9,2.3-7.4,3l-0.6-2c0.4,0,0.7-0.1,1.1-0.2v-6.7h1.5v6.4
							c0.3-0.1,0.7-0.1,1-0.2v-8.2h-2.3v-5.9h5.9v5.9h-1.9v3.3h2.5v0.9h-2.5v3.6C449.8,112.8,450.7,112.6,451.3,112.3z M446.5,104.3
							h2.6v-4.2h-2.6V104.3z M461.8,105l-1,1.7c-1.8-0.7-3.5-2.4-4.5-4.9h-0.9c-0.5,1.2-1.2,2.1-1.9,2.9h4.3v0.9h-4.4v-0.8
							c-1,1-2.1,1.7-3.1,2.2l-0.3-0.5c1.5-0.9,2.8-2.4,3.8-4.7h-2.4v-0.9h2.7c0.2-0.8,0.4-1.7,0.6-2.7l1.8,0.3
							c-0.2,0.9-0.4,1.7-0.6,2.4h5.1v0.9h-3.8C458.3,103.6,459.7,104.4,461.8,105z M451.6,107.3h8.6v0.9h-4.8
							c-0.2,0.6-0.5,1.3-0.8,2h5.4c-0.3,2.4-0.5,3.6-0.7,4.5c-0.6,1.9-2.3,2.7-5.3,0.2l0.3-0.6c2.7,0.9,3,0.8,3.3-0.2
							c0.2-0.6,0.4-1.7,0.5-3.1h-4c-0.3,0.6-0.6,1.2-0.9,1.7l-1.6-0.5c0.7-1.2,1.3-2.7,1.8-4h-2V107.3z"></path>
						<path class="st0 qbCVWdHo_6" d="M479,103.2v13.4h-1.8v-10.8c-0.8,1-1.7,2-2.7,2.8L474,108c2.1-2.4,4-5.8,5.2-9.9l2,0.7
							C480.6,100.2,479.9,101.7,479,103.2z M490.3,116.6c-3.8-0.3-5.8-5.3-6.4-10.8c-1.3,0.2-2.6,0.4-3.9,0.6l-0.2-1.1
							c1.3-0.2,2.7-0.4,4-0.6c-0.2-1.9-0.3-3.9-0.3-6h1.8c0.1,2.2,0.2,4.1,0.3,5.8c2-0.3,4.1-0.6,6.1-1l0.2,1.1
							c-2,0.4-4.1,0.7-6.1,1c0.5,3.7,1.7,8.3,4,8.8c0.8,0.2,1.1-0.4,1.1-3.7h0.8C492.4,114.2,492.1,116.7,490.3,116.6z M489.1,103
							c-0.9-1.3-1.8-2.5-2.8-3.7l0.5-0.6c1.3,0.8,2.5,1.7,3.8,2.9L489.1,103z"></path>
						<path class="st0 qbCVWdHo_7" d="M505.9,103c-0.4-1.2-1-2.8-1.4-3.6l0.6-0.4c0.7,0.7,1.7,2.2,2.2,3.3L505.9,103z M514.9,113.4
							c-2.6,1-6.9,2.2-9.9,2.6l-0.4-1.9c1.2-0.1,2.7-0.2,4.2-0.4v-2.6h-3.2v-0.9h3.2v-2H505v-0.9h2.7c-0.5-1-1-2-1.4-2.8l0.3-0.3h-2
							v-0.9h3.1v-5h1.5v5h0.9v-5h1.6v5h2.5v0.9h-2.5l1.4,0.5c-0.5,0.8-1.2,1.8-1.8,2.5h3.1v0.9h-3.9v2h3.3v0.9h-3.3v2.4
							c1.6-0.2,3.1-0.5,4.2-0.8L514.9,113.4z M509.1,106.6l-1,0.6h2.3c0.3-0.9,0.7-2.1,0.9-3.1H507
							C507.8,104.9,508.5,105.7,509.1,106.6z M512.8,103.2l-0.6-0.3c0.5-1.1,1-2.7,1.2-4l1.7,0.6
							C514.6,100.7,513.7,102.2,512.8,103.2z M522.2,104.2h-1.9v10.5c0,2-2.4,2.7-5.6,0.7l0.2-0.7c3.2,0.7,3.6,0.4,3.6-0.8v-9.7
							h-3.8v-0.9h3.8v-5h1.8v5h1.9V104.2z M515.8,110.4c-0.2-1.3-0.4-2.6-0.9-4.7l0.7-0.3c1.1,1.9,1.8,3.6,2,4.5L515.8,110.4z"></path>
						<path class="st0 qbCVWdHo_8" d="M542,102.4h-7v-0.9h3.3c-0.6-1.1-1.4-2.3-1.9-2.9l0.5-0.5c1,0.6,2.3,1.6,3.1,2.6l-1,0.9h3V102.4z
							 M541.5,114.9h-4.1v1.6h-1.6v-6.7h5.7V114.9z M541.4,105h-5.5v-0.8h5.5V105z M535.8,106.9h5.5v0.8h-5.5V106.9z M540,110.7
							h-2.6v3.3h2.6V110.7z M552.6,114.6l-1.1,2c-1.1-0.5-3.4-1.7-4.2-6c-0.6,3.4-2.8,5.3-6.4,6.1l-0.2-0.7c4.6-1.6,5.1-4.7,5-9.8
							l1.9,0.1c0,0.7,0,1.4,0,2c0.1,0.9,0.3,1.6,0.5,2.2c0.7-0.8,1.1-1.7,1.7-3l1.6,1.1c-0.7,0.9-1.8,1.9-3,2.6
							C549.3,113.4,550.8,114.1,552.6,114.6z M545.7,98.3l1.9,0.1c0,1.6-0.1,3.2-0.5,4.6c1.7,0.8,3.4,1.7,4.7,2.6l-1.3,1.5
							c-0.9-1.1-2.3-2.5-3.7-3.5c-0.7,1.8-2.1,3.2-4.9,3.9l-0.3-0.7C545.3,105.4,545.8,103,545.7,98.3z M542.4,108.1
							c0.9,0.8,1.8,2,2.5,3.2l-1.6,0.9c-0.5-1.5-1-2.8-1.5-3.7L542.4,108.1z M543.4,103.4c-0.4-1.4-0.9-2.5-1.6-3.7l0.6-0.4
							c0.9,0.8,1.8,2,2.6,3.2L543.4,103.4z M548.3,103l-0.4-0.5c0.8-0.9,1.6-2.1,2.1-3.3l1.7,1C551,101.1,549.4,102.5,548.3,103z"></path>
						<path class="st0 qbCVWdHo_9" d="M572.4,107.3c0-0.8,0.7-1.4,1.5-1.4c0.8,0,1.4,0.6,1.4,1.4c0,0.8-0.7,1.4-1.4,1.4
							C573.1,108.7,572.4,108,572.4,107.3z"></path>
						<path class="st0 qbCVWdHo_10" d="M601.8,113.6l1.7,1.2c-2,1.1-5.5,1.9-7.8,2.1l-0.2-0.7C597.6,115.7,599.9,115.1,601.8,113.6z
							 M612.9,103.7v0.9h-3.3l-0.2,1.8h-11.1l0.3-1.8h-3.1v-0.9h3.3l0.3-1.7H610l-0.2,1.7H612.9z M597.8,103h-1.7v-2.9h8.6
							c-1-0.5-2.2-1-3.2-1.4l0.2-0.7c1.1,0.1,3.1,0.3,4.4,0.8l-0.6,1.3h6.8v2.9h-1.7v-2h-12.8V103z M610.2,113.4h-12.1v-6.2h12.1
							V113.4z M608.5,108.1h-8.7v0.9h8.7V108.1z M608.5,109.8h-8.7v0.9h8.7V109.8z M608.5,111.6h-8.7v0.9h8.7V111.6z M600.1,105.5
							h3.1l0.2-0.9h-3.1L600.1,105.5z M600.5,103.7h3l0.1-0.9h-3L600.5,103.7z M608,104.6h-3.1l-0.1,0.9h3.1L608,104.6z
							 M608.3,102.8h-3.1l-0.1,0.9h3.1L608.3,102.8z M605.3,113.8c2,0.2,5.2,0.7,7.4,1.4l-0.8,1.6c-2.1-0.8-4.8-1.7-6.8-2.3
							L605.3,113.8z"></path>
						<path class="st0 qbCVWdHo_11" d="M633.6,112.7c-1.3,0.8-5.3,2.6-7.6,3.2l-0.6-2c0.3,0,0.6-0.1,0.9-0.1v-6.6h1.5v6.3
							c0.3-0.1,0.6-0.1,0.9-0.2v-7.9h-2.2v-6.1h5.8v6.1h-1.9v2.6h2.7v0.9h-2.7v4c1.1-0.3,2.1-0.6,2.8-0.9L633.6,112.7z M628.2,104.5
							h2.6v-4.3h-2.6V104.5z M641.5,116.6c-1.9,0-3.4-0.8-4.6-2.1c-1.7,0.8-3.7,1.6-6,2l-0.3-0.7c2.2-0.7,4-1.5,5.5-2.3
							c-0.6-0.9-1.1-2-1.4-3.2l-2.7,0.3l-0.2-0.9c0.9-0.1,1.8-0.2,2.6-0.3c-0.2-0.9-0.4-1.8-0.5-2.7l1.7-0.2
							c0.1,0.9,0.2,1.8,0.5,2.6c0.7-0.1,1.5-0.2,2.2-0.3c-0.7-0.8-1.2-1.4-1.9-2l0.4-0.6c0.8,0.3,2,0.9,2.8,1.6l-0.7,0.8
							c1.2-0.2,2.4-0.3,3.7-0.5l0.2,0.9c-2.3,0.3-4.4,0.6-6.5,0.8c0.3,0.9,0.7,1.7,1.2,2.4c1.1-0.8,2-1.7,2.7-2.6l1.4,1
							c-0.6,0.8-1.7,1.7-3.2,2.6c0.8,0.7,1.8,1.2,3,1.2c0.7,0,0.8-0.7,0.7-2.5h0.7C643.8,114.8,643.8,116.7,641.5,116.6z
							 M632.7,101.5c0.8-0.1,1.5-0.1,2.3-0.2c-0.3-1-0.5-2-0.6-2.9l1.5-0.1c0.1,0.9,0.4,1.9,0.8,2.8c0.9-0.1,1.9-0.2,2.9-0.3
							c-0.7-0.8-1.3-1.4-2-2.1l0.4-0.6c0.9,0.3,2,1,2.9,1.7l-0.8,0.8c0.9-0.1,1.7-0.2,2.6-0.4l0.2,0.9c-2,0.3-3.9,0.5-5.8,0.8
							c0.3,0.6,0.6,1.2,1,1.7c0.9-0.6,1.6-1.2,2.2-1.8l1.3,1.1c-0.6,0.6-1.5,1.2-2.5,1.7c0.8,0.6,1.6,1,2.6,0.9
							c0.5,0,0.5-0.6,0.4-2.1h0.7c0.9,2.2,0.9,3.8-1.1,3.8c-1.6,0-3-0.8-4.2-2c-1.5,0.6-3.1,1.1-4.9,1.3l-0.2-0.7
							c1.6-0.4,3-0.9,4.3-1.6c-0.5-0.7-0.9-1.5-1.3-2.3c-0.8,0.1-1.6,0.2-2.5,0.3L632.7,101.5z"></path>
						<path class="st0 qbCVWdHo_12" d="M655.9,116.1c2.8-1.4,4.5-2.8,6-4.7l2,1.1c-1.2,1.1-4.8,3.3-7.7,4.2L655.9,116.1z M656.2,110.2h1.7v-8.7
							h4.1v-3.2h1.8v3.2h2.2v-3.2h1.8v3.2h4.1v8.7h1.7v1h-17.3V110.2z M662,102.4h-2.3v3.2h2.3V102.4z M662,106.5h-2.3v3.7h2.3
							V106.5z M665.9,102.4h-2.2v3.2h2.2V102.4z M665.9,106.5h-2.2v3.7h2.2V106.5z M666,112.2l0.3-0.7c2.2,0.6,5.4,2,7.3,3.2
							l-1.3,1.9C670.4,115.1,668.1,113.5,666,112.2z M670,102.4h-2.4v3.2h2.4V102.4z M670,106.5h-2.4v3.7h2.4V106.5z"></path>
						<path class="st0 qbCVWdHo_13" d="M686.8,104.1l-0.4-0.5c1.3-1.4,2.4-3.3,3.1-5.6l1.9,0.7c-0.3,0.6-0.6,1.1-0.9,1.6h5.2v0.9h-2.7
							c0.5,0.5,0.9,1.2,1.4,2l-1.5,0.7c-0.2-0.9-0.5-1.8-0.8-2.6h-2.1C689,102.3,688,103.3,686.8,104.1z M692.2,112.7h4.1v0.9h-4.1
							v2.9h-1.7v-2.9h-4.1v-0.9h4.1v-1.2h-3v-5.1h3v-1.1h-3.8v-0.9h3.8v-1.8h1.7v1.8h3.9v0.9h-3.9v1.1h3.1v5.1h-3.1V112.7z
							 M690.5,107.3H689v1.2h1.5V107.3z M690.5,109.4H689v1.3h1.5V109.4z M692.1,108.5h1.6v-1.2h-1.6V108.5z M693.7,110.7v-1.3h-1.6
							v1.3H693.7z M694.6,103.1c1.1-1.4,1.8-3.3,2.2-5l1.9,0.6c-0.2,0.5-0.5,1-0.8,1.5h5.7v0.9h-3.3c0.5,0.5,0.9,1.3,1.3,2l-1.6,0.6
							c-0.2-1-0.5-1.8-0.8-2.6h-1.9c-0.7,0.9-1.4,1.7-2.3,2.4L694.6,103.1z M700.9,116c-3,0-4.2-0.1-4.2-2.3v-9.6h6.1v5.2
							c0,1.7-1,2.5-3.9,1.1l0.1-0.7c1.9,0.3,2.2,0.1,2.2-0.8v-4h-2.8v8.3c0,1.3,0.6,1.2,2.2,1.2c2.3,0,2.4-0.1,2.3-3h0.7
							C704.3,114.4,704.7,116,700.9,116z"></path>
					</g>
					<g>
						<g>
							<g>
								<g>
									<path class="st1 qbCVWdHo_14" width="230.2" height="82.2" d="M292.3 0 L522.5 0 L522.5 82.2 L292.3 82.2 Z"></path>
									<g>
										<path class="st2 qbCVWdHo_15" d="M348.1,12.5c1.2,3.5-3.7,4.6-6,5.5c-0.8,0.3-1.6,0.6-2.4,1c-0.5,0.2-1,0.6-1.6,0.8
											c-0.5,0.2-1.1,0.3-1.6,0.4c-1.2,0.3-2.4,0.6-3.7,0.9c-2.4,0.6-4.8,1.4-7.3,2c-1.4,0.4-2.8,0.8-4.2,1.1
											c-1.5,0.3-3,0-4.2-0.8c-1.2-0.7-1.3-1.8-1.8-2.9c-0.3-0.6-0.2-1.2,0.3-1.6c0.1-0.1,0.7-0.1,0.9-0.1c0.3,0,0.6-0.1,1-0.1
											c0.6-0.1,1.3-0.2,1.9-0.3c0.6-0.1,1.3-0.2,1.9-0.2c0.7,0,1.3,0.1,1.9-0.3c0.6-0.4,1.3-0.8,2-1.1c1.4-0.6,2.9-0.9,4.3-1.2
											c0.5-0.1,1-0.1,1.6-0.2c0.3,0,0.6,0,0.8-0.1c0.3-0.1,0.4-0.3,0.7-0.4c0.5-0.4,1.3-0.4,1.8-0.8c1.5-1.2,3.5-1.6,4.7-3.1
											c0.9-0.7,2-1,3.1-1c1.2-0.1,2.3-0.1,3.4,0.4C346.5,10.9,347.7,11.4,348.1,12.5"></path>
										<path class="st2 qbCVWdHo_16" d="M389.1,30.4c0.2-0.6,0.3-1.1,0.3-1.7c0-0.6-0.4-1.1-0.4-1.7c0-0.5,0.2-1-0.3-1.2
											c-1.2-0.8-2.3,0.5-3.5,0.7c-1,0.5-1.7,1.3-2.5,2c-0.6,0.5-1.3,0.7-1.9,1.1c-0.6,0.4-1,0.9-1.6,1.4c-1.2,0.9-2.7,1.5-4,2.3
											c-1.1,0.7-3.5,0.4-4.7,0.2c-2.2-0.4-4.1-1.4-6.1-2.2c-0.9-0.3-1.8-0.6-2.6-1.1c-0.9-0.6-1.4-1.6-2.4-2.2
											c-0.8-0.5-1.7-1-1.4-2.1c0.8-0.8,1.8-0.9,2.8-1.2c3.4-0.6,7.2-0.1,10.5-1.3c1.9-0.5,3.9-0.9,5.7-1.6
											c0.5-0.2,1-0.4,1.5-0.6c0.6-0.2,0.9-0.6,1.4-0.8c1.1-0.6,2.4-0.2,3.5-0.5c1.6-0.4,3.2-0.9,4.9-1.4
											c0.9-0.3,1.8-0.7,2.8-0.9c0.8-0.2,1.6-0.2,2.2-0.6c1.6-1,3.7-0.6,5.5-1.3c1.5-0.6,3.1-1.3,4.7-1.6
											c0.8-0.2,1.7-0.3,2.5-0.2c1.4,0.2,2.9,0.5,4.3,0.8c1.2,0.2,2.4,0.4,3.5,1c0.6,0.3,1.1,0.8,1.3,1.4
											c0.1,0.8-0.2,1.5-0.5,2.2c-0.2,0.3-0.4,0.7-0.6,1c-0.6,1.1-1.6,1.3-2.7,1.6c-1.1,0.3-2.3,0.4-3.5,0.1
											c-0.6-0.1-1.2-0.4-1.7-0.8c-2-1.2-4.4-0.9-6.6-0.3c-0.3,0.1-0.6,0.2-0.9,0.3c-0.3,0.1-0.6,0.1-0.9,0.4
											c-0.2,0.2-0.5,0.3-0.8,0.5c-0.7,0.4-1.3,0.7-1.3,1.6c0,1-0.2,2.2,0.2,3.2c1,1.9-0.3,3.9,0.6,5.8c0.4,2.6,1.2,6.3,1.1,9.3
											c0,4.2,0.3,9.4,1,13.4c0.2,0.9,0.5,1.8,0.7,2.8c0.1,0.6,0.2,1.2,0.3,1.7c0.3,1.2,0.6,2.1,0.5,3.4
											c-0.1,1.5-0.2,2.9-0.5,4.4c-0.2,1.6-0.7,3.2-2.4,3.9c-1.6,1.7-4.5,1.4-6.5,0.7c-0.9-0.3-2-1.5-2.4-2.3
											c-0.3-0.5-0.2-1-0.4-1.6c-0.3-1.3-0.9-2.6-0.4-4c1-11.2,2-21.7,1.4-32.9"></path>
										<path class="st2 qbCVWdHo_17" d="M333.2,25.7c1,1.1,1.4,2.3,2,3.6c0.5,0.5,1.2,0.5,1.8,0.3c0.6-0.2,1.2-0.3,1.7-0.7
											c0.5-0.4,0.9-0.9,1.4-1.3c1-0.9,2.1-1.7,3.4-2.1c0.8-0.2,1.6-0.3,2.4-0.3c1.3,0.5,2.9,0.4,3.6,1.7
											c0.6,0.8,0.4,1.8,0.1,2.7c-1.1,2.3-4,3.1-6,4.6c-1.6,0.8-3.7,1.4-4.5,3.2c0,2.8,2.3,5,4,6.6c2.7,2.8,5.3,7,9,8.6
											c1.1,0.5,2,1.5,2.9,2.2c0.5,0.4,1,0.8,1.6,1.1c0.6,0.4,1.3,0.5,1.9,0.9c0.6,0.4,1.4,0.6,1.9,1.1c0.2,0.2,0.5,0.3,0.8,0.4
											c0.5,0.3,0.9,0.8,1.5,1c0.3,0.1,0.7,0,1,0.1c0.3,0.1,0.6,0.4,0.9,0.6c1.4,0.9,2.8,1.7,4.4,2.3c0.6,0.2,1.3,0.2,1.9,0.5
											c0.6,0.2,1,0.7,1.4,1c0.9,0.6,2,1.1,2.4,2.1c0.3,0.7-0.1,1.6-0.5,2.1c-0.6,0.7-1.7,0.9-2.7,1.1c-0.9,0.1-1.9,0.6-2.8,0.7
											c-0.5,0.1-1,0-1.5,0.1c-1.1,0.1-2.2,0.2-3.3,0.3c-2.2,0.2-4.4,0.4-6.7,0.4c-1.2,0-2.6,0.2-3.7-0.5
											c-1.5-0.8-2.9-2.1-4.2-3.1c-1.8-1.3-3-3.2-4.3-5c-1.4-1.9-2.6-3.8-4-5.7c-1.1-1.5-2.2-3.3-3.7-4.5c-0.5-0.4-0.9-1-1.4-1.4
											c-0.5-0.4-0.9-0.8-1.3-1.2c-0.8-0.9-1.7-1.7-2.9-1.8c-0.5,0.7-0.8,1.5-1,2.3c-0.1,0.5-0.1,1.1-0.2,1.7
											c-0.1,0.5-0.3,0.9-0.3,1.4c-0.2,1-0.2,2.1-0.7,3c-0.3,0.5-0.5,1-0.6,1.6c-0.1,0.6-0.5,1.2-0.7,1.8
											c-0.1,0.3-0.4,0.6-0.5,0.9c-0.3,0.6-0.4,1.2-0.7,1.8c-0.3,0.6-0.7,1.3-1.2,1.9c-0.8,1.2-1.8,2.4-2.9,3.4
											c-0.6,0.6-1.2,1.2-1.8,1.7c-0.5,0.4-0.9,0.9-1.5,1.2c-0.6,0.3-1.3,0.5-1.9,0.7c-1.4,0.4-2.6,1-4.1,1.1
											c-0.9,0-1.7-0.2-2.5-0.6c-0.3-0.2-0.9-0.1-1.3-0.3c-0.4-0.2-0.9-0.4-1.2-0.6c-0.4-0.3-0.8-0.6-1.2-1.1
											c-0.2-0.2-0.3-0.5-0.4-0.8c-0.1-0.6,0-0.8-0.4-1.3c-0.5-0.6-0.2-1.1-0.4-1.8c-0.1-0.3-0.2-0.7-0.3-1c0-0.6,0.4-1,0.8-1.4
											c0.4-0.5,0.7-1,1.2-1.1c0.7-0.2,1.6-0.2,2.3-0.1c0.4,0.1,0.8,0.2,1.1,0.4c0.5,0.3,0.8,0.8,1.5,0.4
											c0.5-0.3,0.8-0.8,1.3-1.2c0.3-0.3,0.5-0.8,0.8-1.1c0.4-0.4,0.7-0.7,1-1.1c0.7-0.8,1.1-1.8,1.5-2.8c1.8-1.8,2-4.5,1.3-7
											c-1.9-0.1-3.8,0.8-5.7,0.1c-1.3-0.9-3.2-1.4-3.8-2.8c-0.9-0.9-1.6-2.1-1.8-3.4c0.6-1.5,2.6-1,3.8-1.3
											c1.1-0.4,2.4-0.5,3.5-1.1c0.6-0.3,1.4-0.4,2-0.7c0.6-0.3,1.2-0.7,1.8-1.1c0.6-0.4,1.2-0.8,1.8-1c0.7-0.3,1.5-0.4,2.1-0.8
											c0.6-0.3,1.1-0.7,1.6-1.1c1-0.8,1.9-2,1.7-3.4c-0.1-0.5-0.3-0.9-0.3-1.4c0-0.5,0.1-1,0.2-1.5c0.1-0.5,0.2-1,0.3-1.5
											c0.1-0.7-0.1-1.2,0.4-1.9c0.4-0.6,1-1.1,1.7-1.3c0.5-0.2,1.2-0.1,1.8-0.1c0.5,0,1.1-0.3,1.5-0.2c0.3,0.1,0.5,0.3,0.8,0.4
											C332.6,25.5,332.9,25.5,333.2,25.7"></path>
										<path class="st2 qbCVWdHo_18" d="M436.8,49.9l-0.2,0c-0.1-0.4-0.4-0.7-0.7-0.9c-0.4-0.2-0.8-0.3-1.4-0.3c-0.8,0-1.5,0.3-2,0.9
											c-0.5,0.6-0.7,1.4-0.7,2.4c0,1.1,0.2,2,0.7,2.6c0.5,0.6,1.2,0.9,2.1,0.9c0.4,0,0.8-0.1,1.2-0.2c0.4-0.1,0.8-0.4,1.1-0.6
											l0.1,0l-0.3,1c-0.4,0.2-0.8,0.3-1.2,0.4c-0.4,0.1-0.8,0.1-1.3,0.1c-1.4,0-2.4-0.4-3.2-1.1c-0.8-0.7-1.1-1.7-1.1-3
											c0-1.2,0.4-2.2,1.2-2.9c0.8-0.7,1.9-1.1,3.3-1.1c0.4,0,0.9,0,1.3,0.1c0.4,0.1,0.9,0.2,1.3,0.4c-0.1,0.2-0.1,0.4-0.2,0.7
											C436.9,49.4,436.8,49.6,436.8,49.9"></path>
										<path class="st2 qbCVWdHo_19" d="M439.3,53.1c0,0.9,0.1,1.5,0.3,1.8c0.2,0.4,0.5,0.5,0.9,0.5c0.4,0,0.7-0.2,0.9-0.5
											c0.2-0.4,0.3-1,0.3-1.8c0-0.9-0.1-1.5-0.3-1.8c-0.2-0.4-0.5-0.5-0.9-0.5c-0.4,0-0.7,0.2-0.9,0.5
											C439.4,51.7,439.3,52.3,439.3,53.1 M437.6,53.1c0-0.9,0.3-1.6,0.8-2.1c0.5-0.5,1.2-0.8,2.2-0.8c0.9,0,1.7,0.2,2.2,0.7
											c0.5,0.5,0.8,1.2,0.8,2.1c0,0.9-0.3,1.6-0.8,2.1c-0.5,0.5-1.2,0.8-2.2,0.8c-0.9,0-1.6-0.3-2.2-0.7
											C437.9,54.8,437.6,54,437.6,53.1"></path>
										<path class="st2 qbCVWdHo_20" d="M444.5,55.9c0-0.6,0-1.1,0.1-1.6c0-0.5,0-0.8,0-1.1c0-0.3,0-0.7,0-1.1c0-0.4,0-1-0.1-1.6
											c0.1,0,0.3,0,0.4,0c0.1,0,0.3,0,0.4,0c0.2,0,0.3,0,0.4,0c0.1,0,0.3,0,0.4,0v0.7c0.2-0.3,0.5-0.5,0.8-0.7
											c0.3-0.1,0.6-0.2,0.9-0.2c0.4,0,0.7,0.1,1,0.3c0.3,0.2,0.5,0.4,0.6,0.8c0.2-0.4,0.5-0.6,0.8-0.8c0.3-0.2,0.7-0.3,1.1-0.3
											c0.3,0,0.5,0,0.8,0.1c0.2,0.1,0.4,0.2,0.6,0.4c0.2,0.2,0.3,0.4,0.3,0.7c0.1,0.3,0.1,0.8,0.1,1.5v0.7c0,0.3,0,0.6,0,1
											c0,0.3,0,0.7,0,1.1c-0.2,0-0.3,0-0.5,0c-0.1,0-0.3,0-0.4,0c-0.1,0-0.3,0-0.4,0c-0.1,0-0.3,0-0.4,0c0-0.5,0.1-1,0.1-1.4
											c0-0.4,0-0.8,0-1.2c0-0.8-0.1-1.4-0.2-1.7c-0.1-0.3-0.4-0.4-0.7-0.4c-0.3,0-0.6,0.1-0.7,0.4c-0.1,0.3-0.2,0.7-0.2,1.4v1.8
											c0,0.2,0,0.5,0,0.9c0,0.1,0,0.1,0,0.1c-0.2,0-0.3,0-0.5,0c-0.1,0-0.3,0-0.4,0c-0.1,0-0.3,0-0.4,0c-0.1,0-0.3,0-0.5,0
											c0-0.4,0.1-0.8,0.1-1.2c0-0.4,0-0.8,0-1.1c0-1-0.1-1.6-0.2-1.9c-0.1-0.3-0.4-0.4-0.7-0.4c-0.3,0-0.6,0.1-0.7,0.4
											c-0.1,0.3-0.2,0.7-0.2,1.4v1.8c0,0.2,0,0.5,0,0.9c0,0,0,0.1,0,0.1c-0.1,0-0.3,0-0.4,0c-0.1,0-0.3,0-0.4,0
											c-0.1,0-0.3,0-0.4,0C444.8,55.8,444.6,55.8,444.5,55.9"></path>
										<path class="st2 qbCVWdHo_21" d="M454.6,55.9c0-0.6,0-1.1,0.1-1.6c0-0.5,0-0.8,0-1.1c0-0.3,0-0.7,0-1.1c0-0.4,0-1-0.1-1.6
											c0.1,0,0.3,0,0.4,0c0.1,0,0.3,0,0.4,0c0.2,0,0.3,0,0.4,0c0.1,0,0.3,0,0.4,0v0.7c0.2-0.3,0.5-0.5,0.8-0.7
											c0.3-0.1,0.6-0.2,0.9-0.2c0.4,0,0.7,0.1,1,0.3c0.3,0.2,0.5,0.4,0.6,0.8c0.2-0.4,0.5-0.6,0.8-0.8c0.3-0.2,0.7-0.3,1.1-0.3
											c0.3,0,0.5,0,0.8,0.1c0.2,0.1,0.4,0.2,0.6,0.4c0.2,0.2,0.3,0.4,0.3,0.7c0.1,0.3,0.1,0.8,0.1,1.5v0.7c0,0.3,0,0.6,0,1
											c0,0.3,0,0.7,0,1.1c-0.2,0-0.3,0-0.5,0c-0.1,0-0.3,0-0.4,0c-0.1,0-0.3,0-0.4,0c-0.1,0-0.3,0-0.4,0c0-0.5,0.1-1,0.1-1.4
											c0-0.4,0-0.8,0-1.2c0-0.8-0.1-1.4-0.2-1.7c-0.1-0.3-0.4-0.4-0.7-0.4c-0.3,0-0.6,0.1-0.7,0.4c-0.1,0.3-0.2,0.7-0.2,1.4v1.8
											c0,0.2,0,0.5,0,0.9c0,0.1,0,0.1,0,0.1c-0.2,0-0.3,0-0.5,0c-0.1,0-0.3,0-0.4,0c-0.1,0-0.3,0-0.4,0c-0.1,0-0.3,0-0.5,0
											c0-0.4,0.1-0.8,0.1-1.2c0-0.4,0-0.8,0-1.1c0-1-0.1-1.6-0.2-1.9c-0.1-0.3-0.4-0.4-0.7-0.4c-0.3,0-0.6,0.1-0.7,0.4
											c-0.1,0.3-0.2,0.7-0.2,1.4v1.8c0,0.2,0,0.5,0,0.9c0,0,0,0.1,0,0.1c-0.1,0-0.3,0-0.4,0c-0.1,0-0.3,0-0.4,0
											c-0.1,0-0.3,0-0.4,0C454.9,55.8,454.8,55.8,454.6,55.9"></path>
										<path class="st2 qbCVWdHo_22" d="M466.1,53.1c0,0.9,0.1,1.5,0.3,1.8c0.2,0.4,0.5,0.5,0.9,0.5c0.4,0,0.7-0.2,0.9-0.5
											c0.2-0.4,0.3-1,0.3-1.8c0-0.9-0.1-1.5-0.3-1.8c-0.2-0.4-0.5-0.5-0.9-0.5c-0.4,0-0.7,0.2-0.9,0.5
											C466.2,51.7,466.1,52.3,466.1,53.1 M464.4,53.1c0-0.9,0.3-1.6,0.8-2.1c0.5-0.5,1.2-0.8,2.2-0.8c0.9,0,1.7,0.2,2.2,0.7
											c0.5,0.5,0.8,1.2,0.8,2.1c0,0.9-0.3,1.6-0.8,2.1c-0.5,0.5-1.2,0.8-2.2,0.8c-0.9,0-1.6-0.3-2.2-0.7
											C464.6,54.8,464.4,54,464.4,53.1"></path>
										<path class="st2 qbCVWdHo_23" d="M471.2,55.9c0-0.5,0.1-1,0.1-1.4c0-0.4,0-0.9,0-1.3c0-0.5,0-0.9,0-1.4c0-0.5,0-0.9-0.1-1.3
											c0.1,0,0.2,0,0.4,0c0.1,0,0.3,0,0.4,0c0.2,0,0.3,0,0.4,0c0.1,0,0.2,0,0.4,0v0.8c0.2-0.3,0.5-0.5,0.8-0.7
											c0.3-0.1,0.6-0.2,1-0.2c0.3,0,0.5,0,0.8,0.1c0.2,0.1,0.4,0.2,0.6,0.4c0.1,0.1,0.2,0.3,0.3,0.5c0.1,0.2,0.1,0.6,0.1,1.1
											c0,0.1,0,0.3,0,0.6c0,0.3,0,0.6,0,0.8c0,0.4,0,0.7,0,1c0,0.3,0,0.6,0.1,0.9c-0.2,0-0.3,0-0.5,0c-0.1,0-0.3,0-0.4,0
											c-0.1,0-0.3,0-0.4,0c-0.1,0-0.3,0-0.5,0c0-0.3,0-0.7,0.1-1.2c0-0.4,0-0.9,0-1.5c0-0.8-0.1-1.4-0.2-1.6
											c-0.1-0.2-0.4-0.4-0.7-0.4c-0.4,0-0.6,0.1-0.8,0.4c-0.2,0.3-0.2,0.8-0.2,1.4c0,0.3,0,0.7,0,1.2c0,0.5,0,1,0,1.6
											c-0.1,0-0.3,0-0.4,0c-0.1,0-0.3,0-0.4,0c-0.1,0-0.3,0-0.4,0C471.5,55.8,471.4,55.8,471.2,55.9"></path>
										<path class="st2 qbCVWdHo_24" d="M479.6,55.9c-0.3-1.2-0.7-2.5-1.1-3.8c-0.4-1.3-0.8-2.6-1.3-3.9c0.1,0,0.3,0,0.5,0c0.2,0,0.3,0,0.5,0
											c0.2,0,0.4,0,0.5,0c0.2,0,0.3,0,0.5,0c0.2,0.9,0.5,1.9,0.7,2.8c0.3,0.9,0.5,1.9,0.8,2.8c0.4-1,0.7-2,1-2.9
											c0.3-0.9,0.6-1.8,0.9-2.7c0.1,0,0.2,0,0.3,0c0.1,0,0.2,0,0.3,0c0.1,0,0.2,0,0.3,0c0.1,0,0.2,0,0.3,0
											c0.3,0.9,0.6,1.8,0.9,2.7c0.3,0.9,0.6,1.9,1,2.8c0.3-0.9,0.6-1.8,0.9-2.8c0.3-0.9,0.5-1.9,0.8-2.8c0.1,0,0.2,0,0.3,0
											c0.1,0,0.2,0,0.3,0c0.1,0,0.2,0,0.3,0c0.1,0,0.2,0,0.2,0c-0.4,1.1-0.8,2.4-1.3,3.7c-0.4,1.3-0.9,2.7-1.4,4.1
											c-0.1,0-0.2,0-0.3,0c-0.1,0-0.2,0-0.3,0c-0.1,0-0.2,0-0.3,0c-0.1,0-0.2,0-0.3,0c-0.3-0.9-0.6-1.8-0.9-2.7
											c-0.3-0.9-0.6-1.8-1-2.8c-0.3,0.9-0.7,1.8-1,2.7c-0.3,0.9-0.7,1.9-1,2.8c-0.1,0-0.2,0-0.3,0c-0.1,0-0.2,0-0.3,0
											c-0.1,0-0.2,0-0.3,0C479.8,55.8,479.7,55.8,479.6,55.9"></path>
										<path class="st2 qbCVWdHo_25" d="M490.5,52.6h2c0,0,0-0.1,0-0.2c0-0.1,0-0.1,0-0.1c0-0.5-0.1-0.9-0.2-1.2c-0.2-0.3-0.4-0.4-0.7-0.4
											c-0.3,0-0.6,0.2-0.8,0.4C490.6,51.5,490.5,51.9,490.5,52.6L490.5,52.6z M490.5,53.2c0,0.7,0.2,1.2,0.5,1.6
											c0.3,0.4,0.8,0.6,1.3,0.6c0.3,0,0.5,0,0.8-0.1c0.2-0.1,0.5-0.2,0.7-0.4l0.1,0.1l-0.3,0.6c-0.2,0.2-0.5,0.3-0.9,0.4
											c-0.3,0.1-0.7,0.1-1.1,0.1c-0.9,0-1.6-0.3-2.1-0.8c-0.5-0.5-0.8-1.2-0.8-2.2c0-0.8,0.3-1.5,0.8-2c0.5-0.5,1.2-0.8,2-0.8
											c0.8,0,1.4,0.2,1.8,0.6c0.4,0.4,0.6,1.1,0.6,1.9c0,0.1,0,0.2,0,0.2c0,0.1,0,0.1,0,0.1L490.5,53.2z"></path>
										<path class="st2 qbCVWdHo_26" d="M497.9,52.9c-0.5,0.1-0.9,0.3-1.2,0.5c-0.2,0.2-0.4,0.5-0.4,0.9c0,0.3,0.1,0.6,0.2,0.7
											c0.1,0.2,0.3,0.2,0.5,0.2c0.3,0,0.5-0.1,0.6-0.3c0.1-0.2,0.2-0.4,0.2-0.8V52.9z M497.9,55.1c-0.2,0.3-0.4,0.5-0.7,0.6
											c-0.3,0.1-0.6,0.2-0.9,0.2c-0.5,0-0.9-0.1-1.2-0.4c-0.3-0.3-0.4-0.7-0.4-1.2c0-0.4,0.1-0.7,0.3-0.9
											c0.2-0.2,0.5-0.4,0.9-0.6c0.1,0,0.3-0.1,0.6-0.2c0.6-0.2,1-0.3,1.3-0.5c0,0,0,0,0-0.1c0,0,0-0.1,0-0.1
											c0-0.3-0.1-0.6-0.3-0.8c-0.2-0.2-0.5-0.3-0.8-0.3c-0.3,0-0.5,0.1-0.7,0.2c-0.2,0.1-0.4,0.4-0.6,0.7
											c-0.1-0.2-0.1-0.3-0.1-0.4c0-0.1-0.1-0.2-0.1-0.3c0.3-0.3,0.7-0.5,1-0.7c0.3-0.1,0.7-0.2,1.1-0.2c0.7,0,1.2,0.2,1.6,0.5
											c0.4,0.3,0.6,0.8,0.6,1.3v0.1l0,2v0.2c0,0.5,0.1,0.8,0.2,0.9c0.1,0.1,0.3,0.2,0.6,0.2h0v0.3c-0.2,0.1-0.4,0.1-0.6,0.2
											c-0.2,0-0.4,0.1-0.6,0.1c-0.3,0-0.5-0.1-0.7-0.2C498.1,55.6,498,55.4,497.9,55.1"></path>
										<path class="st2 qbCVWdHo_27" d="M501,55.9c0-0.6,0.1-1.3,0.1-2c0-0.7,0-1.4,0-2.2c0-0.8,0-1.6,0-2.3c0-0.7,0-1.4-0.1-2
											c0.2,0,0.3,0.1,0.5,0.1c0.1,0,0.3,0,0.4,0c0.1,0,0.3,0,0.4,0c0.1,0,0.3,0,0.5-0.1c0,0.6-0.1,1.3-0.1,2c0,0.7,0,1.4,0,2.2
											c0,0.8,0,1.6,0,2.3c0,0.7,0,1.4,0.1,2c-0.1,0-0.3,0-0.4-0.1c-0.1,0-0.3,0-0.5,0c-0.2,0-0.3,0-0.4,0
											C501.3,55.8,501.2,55.8,501,55.9"></path>
										<path class="st2 qbCVWdHo_28" d="M504.4,51.1h-0.2c-0.2,0-0.3,0-0.4,0c-0.1,0-0.2,0-0.2,0c0,0,0-0.1,0-0.1c0,0,0-0.1,0-0.2
											c0-0.1,0-0.1,0-0.2c0,0,0-0.1,0-0.1c0,0,0,0,0.1,0c0.3,0,0.5,0,0.6,0l0.1,0c0-0.1,0-0.1,0-0.2c0-0.1,0-0.1,0-0.3
											c0-0.1,0-0.3,0-0.5c0-0.2,0-0.4,0-0.6c0.3-0.1,0.5-0.2,0.8-0.3c0.3-0.1,0.5-0.2,0.8-0.3l0.1,0.1c0,0.4,0,0.8-0.1,1.1
											c0,0.3,0,0.5,0,0.7v0.4c0.2,0,0.4,0,0.6,0c0.2,0,0.4,0,0.5,0c0,0.1,0,0.1,0,0.2c0,0,0,0.1,0,0.1c0,0.1,0,0.2,0,0.3
											c0,0,0,0,0,0c-0.1,0-0.2,0-0.4,0c-0.1,0-0.4,0-0.8,0c0,0.1,0,0.1,0,0.3c0,0.8,0,1.3,0,1.7v0.5c0,0.9,0,1.4,0.1,1.6
											c0.1,0.2,0.3,0.3,0.5,0.3c0.1,0,0.3,0,0.7-0.1l0,0v0.4c-0.3,0.1-0.5,0.2-0.7,0.2c-0.2,0.1-0.4,0.1-0.6,0.1
											c-0.5,0-0.9-0.1-1.1-0.4c-0.3-0.3-0.4-0.6-0.4-1.1c0,0,0-0.3,0-1c0-0.6,0-1.2,0-1.9V51.1z"></path>
										<path class="st2 qbCVWdHo_29" d="M507.9,55.9c0-0.4,0.1-0.9,0.1-1.5c0-0.6,0-1.4,0-2.6c0-1.2,0-2.1,0-2.8c0-0.7,0-1.2-0.1-1.7
											c0.2,0,0.3,0.1,0.4,0.1c0.1,0,0.3,0,0.4,0c0.1,0,0.3,0,0.4,0c0.1,0,0.3,0,0.4-0.1c0,0.3-0.1,0.6-0.1,1c0,0.4,0,0.7,0,1.1
											v1.8c0.2-0.3,0.5-0.5,0.8-0.7c0.3-0.2,0.6-0.2,1-0.2c0.3,0,0.5,0,0.8,0.1c0.2,0.1,0.4,0.2,0.6,0.4
											c0.1,0.2,0.2,0.3,0.3,0.6c0.1,0.2,0.1,0.6,0.1,1.1c0,0.1,0,0.3,0,0.6c0,0.3,0,0.6,0,0.8c0,0.4,0,0.8,0,1.1
											c0,0.3,0,0.6,0.1,0.8c-0.2,0-0.3,0-0.5,0c-0.1,0-0.3,0-0.4,0c-0.1,0-0.3,0-0.4,0c-0.1,0-0.3,0-0.5,0c0-0.3,0-0.7,0.1-1.2
											c0-0.4,0-0.9,0-1.5c0-0.8-0.1-1.4-0.2-1.6c-0.1-0.2-0.4-0.4-0.7-0.4c-0.4,0-0.6,0.1-0.8,0.4c-0.2,0.3-0.2,0.8-0.2,1.4
											c0,0.4,0,0.8,0,1.2c0,0.5,0,1,0.1,1.5c-0.2,0-0.3,0-0.4,0c-0.1,0-0.3,0-0.4,0c-0.1,0-0.3,0-0.4,0
											C508.2,55.8,508.1,55.8,507.9,55.9"></path>
										<path class="st2 qbCVWdHo_30" d="M430.2,68.5c0.1-0.6,0.2-1.1,0.2-1.5c0.1-0.4,0.1-0.7,0.1-0.9l0.7-5.4c0.1,0,0.2,0,0.2,0
											c0.1,0,0.2,0,0.3,0c0.1,0,0.2,0,0.3,0s0.2,0,0.2,0c0.4,0.9,0.9,1.8,1.3,2.7c0.4,0.9,0.9,1.8,1.4,2.6
											c0.5-0.8,0.9-1.7,1.4-2.6c0.4-0.9,0.9-1.8,1.3-2.7c0.1,0,0.2,0,0.3,0c0.1,0,0.2,0,0.3,0c0.1,0,0.2,0,0.3,0
											c0.1,0,0.2,0,0.3,0l0.7,5.4c0.1,0.6,0.1,1.1,0.2,1.4c0.1,0.3,0.1,0.6,0.2,0.9c-0.2,0-0.4,0-0.5,0c-0.2,0-0.3,0-0.5,0
											c-0.1,0-0.3,0-0.5,0c-0.2,0-0.3,0-0.5,0c0,0,0-0.1,0-0.1c0-0.8-0.1-1.3-0.1-1.5l-0.4-3.6c-0.4,0.8-0.9,1.6-1.3,2.5
											c-0.4,0.9-0.9,1.8-1.3,2.7c0,0-0.1,0-0.1,0c0,0-0.1,0-0.2,0c-0.1,0-0.1,0-0.1,0c0,0-0.1,0-0.1,0c-0.5-0.9-0.9-1.8-1.3-2.6
											c-0.4-0.8-0.9-1.6-1.3-2.4l-0.3,2.4l0,0.1c-0.1,1.2-0.2,2.1-0.2,2.6c-0.1,0-0.2,0-0.3,0c-0.1,0-0.2,0-0.2,0
											c-0.1,0-0.2,0-0.2,0C430.4,68.5,430.3,68.5,430.2,68.5"></path>
										<path class="st2 qbCVWdHo_31" d="M443.8,65.5c-0.5,0.1-0.9,0.3-1.2,0.5c-0.2,0.2-0.4,0.5-0.4,0.9c0,0.3,0.1,0.6,0.2,0.7
											c0.1,0.2,0.3,0.2,0.5,0.2c0.3,0,0.5-0.1,0.6-0.3c0.1-0.2,0.2-0.4,0.2-0.8V65.5z M443.8,67.8c-0.2,0.3-0.4,0.5-0.7,0.6
											c-0.3,0.1-0.6,0.2-0.9,0.2c-0.5,0-0.9-0.1-1.2-0.4c-0.3-0.3-0.4-0.7-0.4-1.2c0-0.4,0.1-0.7,0.3-0.9
											c0.2-0.2,0.5-0.4,0.9-0.6c0.1,0,0.3-0.1,0.6-0.2c0.6-0.2,1-0.3,1.3-0.5c0,0,0,0,0-0.1c0,0,0-0.1,0-0.1
											c0-0.3-0.1-0.6-0.3-0.8c-0.2-0.2-0.5-0.3-0.8-0.3c-0.3,0-0.5,0.1-0.7,0.2c-0.2,0.1-0.4,0.4-0.6,0.7
											c-0.1-0.2-0.1-0.3-0.1-0.4c0-0.1-0.1-0.2-0.1-0.3c0.3-0.3,0.7-0.5,1-0.7c0.3-0.1,0.7-0.2,1.1-0.2c0.7,0,1.2,0.2,1.6,0.5
											c0.4,0.3,0.6,0.8,0.6,1.3v0.1l0,2V67c0,0.5,0.1,0.8,0.2,0.9c0.1,0.1,0.3,0.2,0.6,0.2h0v0.3c-0.2,0.1-0.4,0.1-0.6,0.2
											c-0.2,0-0.4,0.1-0.6,0.1c-0.3,0-0.5-0.1-0.7-0.2C444,68.3,443.9,68.1,443.8,67.8"></path>
										<path class="st2 qbCVWdHo_32" d="M448.2,64.7c0,0.5,0.1,0.8,0.2,1c0.1,0.2,0.4,0.3,0.7,0.3c0.3,0,0.5-0.1,0.7-0.3
											c0.1-0.2,0.2-0.6,0.2-1.1c0-0.4-0.1-0.7-0.2-0.9c-0.1-0.2-0.4-0.3-0.6-0.3s-0.5,0.1-0.7,0.3
											C448.3,64,448.2,64.3,448.2,64.7 M448.2,68.8c-0.2,0.1-0.3,0.2-0.4,0.4c-0.1,0.2-0.2,0.4-0.2,0.6c0,0.4,0.1,0.7,0.4,0.9
											c0.3,0.2,0.6,0.3,1.1,0.3c0.5,0,0.9-0.1,1.2-0.3c0.3-0.2,0.4-0.5,0.4-0.9c0-0.3-0.1-0.6-0.3-0.8c-0.2-0.2-0.5-0.3-0.9-0.3
											L448.2,68.8z M447.7,68.8L447.7,68.8c-0.2-0.2-0.4-0.3-0.5-0.4c-0.1-0.2-0.2-0.3-0.2-0.6c0-0.3,0.1-0.5,0.3-0.7
											c0.2-0.2,0.5-0.4,0.9-0.6v-0.1c-0.5-0.1-0.9-0.3-1.1-0.6c-0.3-0.3-0.4-0.6-0.4-1.1c0-0.6,0.2-1,0.7-1.3
											c0.4-0.3,1-0.5,1.8-0.5c0.1,0,0.3,0,0.8,0c0.5,0,0.9,0,1.3,0c0.2,0,0.3,0,0.5,0c0.2,0,0.4,0,0.6,0v0.6c-0.2,0-0.6,0-1,0
											c-0.1,0-0.1,0-0.2,0c0.2,0.1,0.4,0.3,0.5,0.5c0.1,0.2,0.2,0.4,0.2,0.7c0,0.6-0.2,1-0.7,1.4c-0.5,0.3-1.1,0.5-1.9,0.5h-0.2
											c-0.2,0-0.3,0.1-0.4,0.2c-0.1,0.1-0.1,0.2-0.1,0.4c0,0.3,0.6,0.5,1.7,0.6h0.1c0,0,0.1,0,0.1,0c0.7,0,1.2,0.1,1.4,0.2
											c0.2,0.1,0.4,0.3,0.5,0.5c0.1,0.2,0.2,0.5,0.2,0.8c0,0.7-0.3,1.3-0.9,1.7c-0.6,0.4-1.4,0.7-2.3,0.7
											c-0.8,0-1.4-0.1-1.8-0.4c-0.4-0.3-0.7-0.6-0.7-1.1c0-0.3,0.1-0.6,0.3-0.8C447,69.1,447.3,68.9,447.7,68.8"></path>
										<path class="st2 qbCVWdHo_33" d="M455.7,65.5c-0.5,0.1-0.9,0.3-1.2,0.5c-0.2,0.2-0.4,0.5-0.4,0.9c0,0.3,0.1,0.6,0.2,0.7
											c0.1,0.2,0.3,0.2,0.5,0.2c0.3,0,0.5-0.1,0.6-0.3c0.1-0.2,0.2-0.4,0.2-0.8V65.5z M455.7,67.8c-0.2,0.3-0.4,0.5-0.7,0.6
											c-0.3,0.1-0.6,0.2-0.9,0.2c-0.5,0-0.9-0.1-1.2-0.4c-0.3-0.3-0.4-0.7-0.4-1.2c0-0.4,0.1-0.7,0.3-0.9
											c0.2-0.2,0.5-0.4,0.9-0.6c0.1,0,0.3-0.1,0.6-0.2c0.6-0.2,1-0.3,1.3-0.5c0,0,0,0,0-0.1c0,0,0-0.1,0-0.1
											c0-0.3-0.1-0.6-0.3-0.8c-0.2-0.2-0.5-0.3-0.8-0.3c-0.3,0-0.5,0.1-0.7,0.2c-0.2,0.1-0.4,0.4-0.6,0.7
											c-0.1-0.2-0.1-0.3-0.1-0.4c0-0.1-0.1-0.2-0.1-0.3c0.3-0.3,0.7-0.5,1-0.7c0.3-0.1,0.7-0.2,1.1-0.2c0.7,0,1.2,0.2,1.6,0.5
											c0.4,0.3,0.6,0.8,0.6,1.3v0.1l0,2V67c0,0.5,0.1,0.8,0.2,0.9c0.1,0.1,0.3,0.2,0.6,0.2h0v0.3c-0.2,0.1-0.4,0.1-0.6,0.2
											c-0.2,0-0.4,0.1-0.6,0.1c-0.3,0-0.5-0.1-0.7-0.2C455.9,68.3,455.8,68.1,455.7,67.8"></path>
										<path class="st2 qbCVWdHo_34" d="M458.1,68.5l0-0.2c0.4-0.6,1.1-1.6,2-3l1.1-1.6c-0.2,0-0.4,0-0.6,0c-0.1,0-0.3,0-0.4,0
											c-0.3,0-0.8,0-1.5,0c-0.1,0-0.1,0-0.1,0c0,0,0-0.1,0-0.1c0,0,0-0.1,0-0.2c0-0.1,0-0.1,0-0.2c0,0,0-0.1,0-0.1
											c0.3,0,0.7,0,1.1,0c0.4,0,0.8,0,1.2,0c0.4,0,0.8,0,1.2,0c0.4,0,0.7,0,1.1,0v0.1c-0.3,0.4-0.7,1-1.1,1.7
											c-0.5,0.7-1.1,1.7-2,3c0.3,0,0.5,0,0.6,0c0.1,0,0.3,0,0.4,0c0.4,0,0.7,0,1,0c0.3,0,0.7,0,1-0.1c0,0.1,0,0.1,0,0.2
											c0,0.1,0,0.1,0,0.1c0,0,0,0.1,0,0.1c0,0.1,0,0.1,0,0.2c-0.3,0-0.7,0-1.1,0c-0.4,0-0.9,0-1.4,0c-0.5,0-1,0-1.4,0
											C458.9,68.5,458.5,68.5,458.1,68.5"></path>
										<path class="st2 qbCVWdHo_35" d="M464.3,68.5c0-0.6,0-1.1,0.1-1.5c0-0.4,0-0.8,0-1.2c0-0.4,0-0.9,0-1.3c0-0.4,0-0.9-0.1-1.4
											c0.1,0,0.3,0,0.4,0c0.1,0,0.3,0,0.4,0c0.2,0,0.3,0,0.4,0c0.1,0,0.3,0,0.4,0c0,0.5,0,1-0.1,1.4c0,0.4,0,0.9,0,1.3
											c0,0.4,0,0.8,0,1.2c0,0.4,0,0.9,0.1,1.5c-0.1,0-0.3,0-0.4,0c-0.1,0-0.3,0-0.4,0c-0.1,0-0.3,0-0.4,0
											C464.6,68.5,464.4,68.5,464.3,68.5 M464.3,61c0-0.2,0.1-0.4,0.3-0.6c0.2-0.2,0.4-0.2,0.6-0.2c0.2,0,0.4,0.1,0.6,0.3
											c0.2,0.2,0.3,0.4,0.3,0.6c0,0.2-0.1,0.4-0.3,0.6c-0.2,0.2-0.4,0.2-0.6,0.2s-0.5-0.1-0.6-0.2
											C464.3,61.5,464.3,61.3,464.3,61"></path>
										<path class="st2 qbCVWdHo_36" d="M467.5,68.5c0-0.5,0.1-1,0.1-1.4c0-0.4,0-0.9,0-1.3c0-0.5,0-0.9,0-1.4c0-0.5,0-0.9-0.1-1.3
											c0.1,0,0.2,0,0.4,0c0.1,0,0.3,0,0.4,0s0.3,0,0.4,0c0.1,0,0.2,0,0.4,0v0.8c0.2-0.3,0.5-0.5,0.8-0.7c0.3-0.1,0.6-0.2,1-0.2
											c0.3,0,0.5,0,0.8,0.1c0.2,0.1,0.4,0.2,0.6,0.4c0.1,0.1,0.2,0.3,0.3,0.5c0.1,0.2,0.1,0.6,0.1,1.1c0,0.1,0,0.3,0,0.6
											c0,0.3,0,0.6,0,0.8c0,0.4,0,0.7,0,1c0,0.3,0,0.6,0.1,0.9c-0.2,0-0.3,0-0.5,0c-0.1,0-0.3,0-0.4,0c-0.1,0-0.3,0-0.4,0
											c-0.1,0-0.3,0-0.5,0c0-0.3,0-0.7,0.1-1.2s0-0.9,0-1.5c0-0.8-0.1-1.4-0.2-1.6c-0.1-0.2-0.4-0.4-0.7-0.4
											c-0.4,0-0.6,0.1-0.8,0.4c-0.2,0.3-0.2,0.8-0.2,1.4c0,0.3,0,0.7,0,1.2c0,0.5,0,1,0,1.6c-0.1,0-0.3,0-0.4,0
											c-0.1,0-0.3,0-0.4,0c-0.1,0-0.3,0-0.4,0C467.8,68.5,467.6,68.5,467.5,68.5"></path>
										<path class="st2 qbCVWdHo_37" d="M475.4,65.3h2c0,0,0-0.1,0-0.2c0-0.1,0-0.1,0-0.1c0-0.5-0.1-0.9-0.2-1.2c-0.2-0.3-0.4-0.4-0.7-0.4
											c-0.3,0-0.6,0.2-0.8,0.4C475.5,64.2,475.4,64.6,475.4,65.3L475.4,65.3z M475.4,65.8c0,0.7,0.2,1.2,0.5,1.6
											c0.3,0.4,0.8,0.6,1.3,0.6c0.3,0,0.5,0,0.8-0.1c0.2-0.1,0.5-0.2,0.7-0.4l0.1,0.1l-0.3,0.6c-0.2,0.2-0.5,0.3-0.9,0.4
											c-0.3,0.1-0.7,0.1-1.1,0.1c-0.9,0-1.6-0.3-2.1-0.8c-0.5-0.5-0.8-1.2-0.8-2.2c0-0.8,0.3-1.5,0.8-2c0.5-0.5,1.2-0.8,2-0.8
											c0.8,0,1.4,0.2,1.8,0.6c0.4,0.4,0.6,1.1,0.6,1.9c0,0.1,0,0.2,0,0.2c0,0.1,0,0.1,0,0.1L475.4,65.8z"></path>
										<path class="st2 qbCVWdHo_38" d="M448.5,20.8c-0.2-1.1-0.8-3.4-1.4-4.9l0.9-0.4c1.1,1.2,2.3,3.3,2.8,4.5L448.5,20.8z M447.8,32.5h-2.7
											v4.6h2.7V32.5z M447.8,27.1h-2.7v4.2h2.7V27.1z M447.8,22.4h-2.7v3.6h2.7V22.4z M442.1,19.9h-11.8v-1.2h6.1
											c-1-1-2-1.8-3-2.7l0.4-0.8c1.5,0.4,3.4,1.2,4.6,2l-1.1,1.5h4.9V19.9z M430.6,28.2l-0.7-0.6c1.3-2,2.2-4.9,2.7-7.5l2.2,0.5
											c-0.1,0.7-0.4,1.4-0.8,2.3c1,0.7,1.9,1.4,2.6,2.2l-1.6,1.4c-0.4-0.9-1-1.8-1.5-2.6C432.7,25.5,431.6,27.2,430.6,28.2
											 M454.4,37.1v1.2h-9.2v2h-2.4l0-14c-0.4,0.6-0.8,1.2-1.2,1.7l-0.8-0.6c0.3-0.7,0.6-1.3,0.9-2l-1.3,1.1
											c-0.4-0.8-0.9-1.7-1.5-2.5c-0.5,1-1.1,2-1.8,2.9h0.5v2.5h4.6v1.2h-4.6v1c1.6,0.9,3.2,1.8,4.4,2.9l-1.6,1.8
											c-0.8-1.1-1.9-2.4-2.7-3.4v7.5h-2.4v-7c-1,1.5-2.9,3.6-5.1,5.2l-0.6-0.8c2-1.9,3.8-4.3,5.1-7.2h-4.5v-1.2h5.1V27h0.7
											c1.1-2,1.7-4.4,2-6.8l2.2,0.5c-0.1,0.7-0.4,1.5-0.7,2.3c1,0.6,1.8,1.3,2.5,2c1-2.7,1.3-5.6,1.7-9.5l2.5,0.5
											c-0.2,1.8-0.5,3.5-1,5.1h8.9v1.2h-3.8v3.6h3.2v1.2h-3.2v4.2h3.2v1.2h-3.2v4.6H454.4z"></path>
										<path class="st2 qbCVWdHo_39" d="M484.9,35.8l-2.2,1c-0.7-2.1-1.4-4-2.3-5.8l0.8-0.5C482.7,32.1,484,33.8,484.9,35.8 M475.2,27.2
											c1.3,0.6,3.8,1.9,4.9,2.9l-1.6,1.8c-1-1.2-2.7-3-3.8-3.9L475.2,27.2z M480.6,33.7c1.3,4.4,1.5,6.1-2.8,6.1
											c-4,0-4.6-0.3-4.6-3.2v-6.9h2.4v6.5c0,1.1,0.2,1.4,2,1.4c2,0,2-0.3,2-3.9H480.6z M475.7,21.3h-5.6v-1.2h5.6v-4.5h2.5v4.5
											h5.8v1.2h-5.8v4.6h5.4v1.2h-12.9v-1.2h5.1V21.3z M466.5,32.4h-3.1v4.8h3.1V32.4z M471.5,31.1l1,0.2
											c-0.2,2.8-0.8,5.2-2.1,6.8l-1.8-1.3V40h-2.1v-1.6h-3.2v1.9h-2.1v-9.1h7.4v5.3C470,35.1,471.1,33.5,471.5,31.1 M468.8,28.6
											h-7.7v-1.1h7.7V28.6z M461.1,23.8h7.7v1.1h-7.7V23.8z M469.5,21.3h-9.1v-1.2h4.2c-0.9-1.5-1.9-3.2-2.5-4l0.7-0.7
											c1.3,0.8,3.1,2.3,4.2,3.6l-1.4,1.1h4V21.3z"></path>
										<path class="st2 qbCVWdHo_40" d="M421.5,40c-0.6-0.7-1.2-1-1.6-1.2c-0.1,0-0.2-0.1-0.2-0.1l0,0h0c-0.4-0.2-0.7-0.5-1.2-0.6
											c-0.6-0.2-1.3-0.1-2-0.2c-0.9-0.2-1.8-0.4-2.7-0.5c-1.1-0.2-2.3-0.2-3.4,0.1c-0.5,0.1-1.1,0.3-1.5,0.7
											c-0.3,0.3-0.3,0.7-0.4,1.1c-0.1,0.4-0.1,0.8-0.1,1.1c0,1.4,0.6,2.8,1.3,4.1c0.4,0.7,0.8,1.3,1.4,1.8
											c0.5,0.5,1,1.2,1.6,1.6c0.6,0.4,1,0.7,1.4,1.2c0.3,0.4,0.3,0.5,0.8,0.7c0.8,0.3,1.7,0.3,2.6,0.4c1.1,0.1,2.3,0.1,3.4-0.1
											c0.8-0.1,1-0.7,1.7-1.1c0.6-0.4,1-0.4,1.3-1.1C425.1,44.8,423.5,42.2,421.5,40"></path>
									</g>
									<g>
										<g>
											<path class="st0 qbCVWdHo_41" d="M642.2,53c0.4,0,0.7,0,1.1,0c0.4,0,0.7,0,1.1,0c15.7-0.5,28.3-12.2,28.3-26.5S660.1,0.6,644.4,0
												c-0.4,0-0.7,0-1.1,0c-0.4,0-0.7,0-1.1,0c-15.7,0.5-28.3,12.2-28.3,26.5C613.9,40.8,626.5,52.5,642.2,53z M643.6,26.3
												V15.7h17.3c1.1,3.2,1.7,6.8,1.7,10.6H643.6z M662.6,26.8c0,3.5-0.6,6.9-1.5,9.9h-17.5v-9.9H662.6z M643.1,26.3H624
												c0-3.8,0.6-7.3,1.7-10.6h17.3V26.3z M643.1,26.8v9.9h-17.5c-1-3.1-1.5-6.4-1.5-9.9H643.1z M643.1,37.2v15.3
												c-7.7-0.1-14.4-6.4-17.4-15.3H643.1z M643.6,52.5V37.2h17.4C657.9,46.1,651.3,52.4,643.6,52.5z M648.5,52.1
												c5.8-2.1,10.6-7.7,13-14.9h8.2C665.8,44.9,658,50.6,648.5,52.1z M669.9,36.7h-8.3c1-3.1,1.5-6.4,1.5-9.9h9.1
												C672.2,30.3,671.4,33.6,669.9,36.7z M672.2,26.3h-9.1c0-3.8-0.6-7.3-1.7-10.6h8.2C671.3,19,672.2,22.5,672.2,26.3z
												 M669.4,15.2h-8.1c-2.5-6.9-7.1-12.3-12.8-14.3C657.7,2.4,665.4,7.9,669.4,15.2z M660.7,15.2h-17.2V0.5
												C651.1,0.6,657.6,6.6,660.7,15.2z M643.1,0.5v14.7h-17.1C629,6.6,635.5,0.6,643.1,0.5z M638.2,0.9
												c-5.7,2-10.3,7.3-12.8,14.3h-8.1C621.3,7.9,629,2.4,638.2,0.9z M617,15.7h8.2c-1.1,3.2-1.7,6.8-1.7,10.6h-9.1
												C614.4,22.5,615.4,19,617,15.7z M614.4,26.8h9.1c0,3.5,0.6,6.8,1.5,9.9h-8.3C615.3,33.6,614.5,30.3,614.4,26.8z
												 M625.2,37.2c2.4,7.3,7.2,12.8,13,14.9c-9.5-1.5-17.3-7.3-21.2-14.9H625.2z"></path>
											<path class="st0 qbCVWdHo_42" d="M617.6,7.1L620.3,7.1L620.3,5.1L612.7,5.1L612.7,7.1L615.4,7.1L606.4,36.2L598.9,7L
												601.3,7.1L601.4,5.1L587.6,5L587.6,7L590,7L595.4,26.4L591,37.7L583.2,7L585.5,7L585.5,5L571.9,5L571.9,7L574.4,7L
												585.8,47.9L589.2,47.9L596.4,29.7L601.5,48L605,48Z"></path>
											<path class="st0 qbCVWdHo_43" d="M569.2,47.1h1.9V33.8h-2l-0.1,0.5c-0.3,1.5-0.9,2.9-1.6,4.3c-0.7,1.4-1.6,2.6-2.6,3.7
												c-1,1.1-2.2,1.9-3.6,2.6c-1.3,0.6-2.9,1-4.5,1c-2.1,0-3.9-0.3-5.4-0.9c-1.5-0.6-2.6-1.5-3.6-2.9
												c-0.9-1.4-1.6-3.4-2.1-5.9c-0.5-2.5-0.7-5.8-0.7-9.6c0-3,0.1-5.7,0.3-8.2c0.2-2.4,0.8-4.6,1.6-6.3c0.8-1.7,1.9-3,3.5-4
												c1.5-1,3.7-1.4,6.4-1.4c2,0,3.7,0.3,5,1c1.3,0.7,2.5,1.6,3.4,2.7c0.9,1.1,1.7,2.3,2.2,3.7c0.6,1.3,1.1,2.6,1.5,3.9
												l0.1,0.4h1.8V5.5h-2L568.7,6c-0.1,0.5-0.3,0.6-0.3,0.6c-0.1,0.1-0.4,0.1-1,0.1c-0.5,0-1-0.1-1.7-0.3
												c-0.7-0.2-1.6-0.5-2.5-0.7c-1-0.3-2-0.5-3-0.7c-1.1-0.2-2.3-0.4-3.6-0.4c-2.5,0-5.2,0.5-7.8,1.5c-2.6,1-5,2.5-7.2,4.4
												c-2.1,1.9-3.9,4.2-5.3,6.9c-1.4,2.7-2.1,5.7-2.1,9c0,3,0.6,5.9,1.9,8.5c1.2,2.6,2.9,4.9,4.9,6.8c2,1.9,4.5,3.4,7.2,4.5
												c2.7,1.1,5.5,1.7,8.5,1.7c1.3,0,2.5-0.1,3.7-0.3c1.1-0.2,2.2-0.4,3.2-0.7c1-0.2,1.8-0.5,2.6-0.7c0.7-0.2,1.2-0.3,1.6-0.3
												c0.6,0,0.8,0.1,0.9,0.2c0.2,0.1,0.3,0.3,0.5,0.7L569.2,47.1z"></path>
											<path class="st0 qbCVWdHo_44" d="M668.6,5.5v2h5.4V45h-5.4v2h20.5v-2h-5.4V27.5h3.3c1.3,0,2.3,0.2,3.1,0.6c0.8,0.4,1.5,1,2.1,1.7
												c0.6,0.7,1,1.6,1.4,2.5c0.4,1.1,0.7,2.1,0.9,3.1l0.1,0.5h1.8V17h-1.8l-0.1,0.5c-0.3,1.2-0.6,2.4-1,3.4
												c-0.4,1-0.9,1.8-1.5,2.5c-0.6,0.7-1.4,1.2-2.2,1.5c-0.9,0.4-2.1,0.6-3.4,0.6h-2.7v-18h8.2c1.5,0,2.8,0.2,3.8,0.6
												c1.1,0.4,2,0.9,2.8,1.7c0.8,0.7,1.5,1.6,2.1,2.7c0.6,1,1.2,2.3,1.7,3.6l0.2,0.4h1.8V5.5H668.6z"></path>
											<path class="st0 qbCVWdHo_45" d="M538,57.6c1.1,0,1.9,0.7,2.2,1.8l0.1,0.2h1.3l-0.1-0.4c-0.3-1.8-1.7-2.9-3.5-2.9c-1,0-1.9,0.4-2.6,1
												c-1,0.9-1,1.9-1,4c0,2.1,0,3,1,4c0.7,0.7,1.6,1,2.6,1c1.8,0,3.2-1.1,3.5-3l0.1-0.4h-1.3l-0.1,0.2
												c-0.2,1.2-1.1,1.8-2.2,1.8c-0.6,0-1.2-0.2-1.6-0.6c-0.6-0.6-0.6-1.1-0.6-3.1c0-2,0.1-2.6,0.6-3.1
												C536.8,57.9,537.4,57.6,538,57.6z"></path>
											<path class="st0 qbCVWdHo_46" d="M544.6,59.4c-0.8,0-1.5,0.3-2,0.8c-0.8,0.8-0.9,1.9-0.9,2.7c0,0.9,0.1,2,0.9,2.7
												c0.5,0.5,1.2,0.8,2,0.8c0.8,0,1.5-0.3,2-0.8c0.8-0.8,0.9-1.9,0.9-2.7c0-0.9-0.1-1.9-0.9-2.7
												C546,59.7,545.3,59.4,544.6,59.4z M545.7,64.8c-0.6,0.6-1.6,0.6-2.2,0c-0.4-0.4-0.5-1.2-0.5-1.9c0-0.7,0-1.4,0.5-1.9
												c0.3-0.3,0.7-0.4,1.1-0.4c0.4,0,0.8,0.2,1.1,0.4l0,0c0.4,0.4,0.5,1.2,0.5,1.9C546.2,63.6,546.1,64.4,545.7,64.8z"></path>
											<path class="st0 qbCVWdHo_47" d="M555,59.4c-0.9,0-1.6,0.3-2.2,0.9c-0.5-0.6-1.2-0.9-2.1-0.9c-0.6,0-1.2,0.2-1.6,0.5v-0.4h-1.3v6.8
												h1.3v-4.2c0-1,0.5-1.6,1.5-1.6c1,0,1.5,0.5,1.5,1.6v4.2h1.3v-4.3c0-0.9,0.6-1.4,1.5-1.4c1,0,1.5,0.5,1.5,1.6v4.2h1.3
												v-4.3c0-0.8-0.3-1.5-0.8-1.9C556.5,59.7,555.8,59.4,555,59.4z"></path>
											<path class="st0 qbCVWdHo_48" d="M565.6,59.4c-0.9,0-1.6,0.3-2.2,0.9c-0.5-0.6-1.2-0.9-2.1-0.9c-0.6,0-1.2,0.2-1.6,0.5v-0.4h-1.3v6.8
												h1.3v-4.2c0-1,0.5-1.6,1.5-1.6c1,0,1.5,0.5,1.5,1.6v4.2h1.3v-4.3c0-0.9,0.6-1.4,1.5-1.4c1,0,1.5,0.5,1.5,1.6v4.2h1.3
												v-4.3c0-0.8-0.3-1.5-0.8-1.9C567.1,59.7,566.4,59.4,565.6,59.4z"></path>
											<path class="st0 qbCVWdHo_49" d="M571.5,59.4c-0.8,0-1.5,0.3-2,0.8c-0.8,0.8-0.9,1.9-0.9,2.7c0,0.9,0.1,2,0.9,2.7
												c0.5,0.5,1.2,0.8,2,0.8c0.8,0,1.5-0.3,2-0.8c0.8-0.8,0.9-1.9,0.9-2.7c0-0.9-0.1-1.9-0.9-2.7
												C573,59.7,572.3,59.4,571.5,59.4z M572.6,64.8c-0.6,0.6-1.6,0.6-2.2,0c-0.4-0.4-0.5-1.1-0.5-1.9c0-0.7,0-1.4,0.5-1.9
												c0.3-0.3,0.7-0.4,1.1-0.4c0.4,0,0.8,0.2,1.1,0.4l0,0c0.4,0.4,0.5,1.2,0.5,1.9C573.1,63.6,573.1,64.4,572.6,64.8z"></path>
											<path class="st0 qbCVWdHo_50" d="M577.7,59.4c-0.6,0-1.1,0.2-1.6,0.4v-0.4h-1.3v6.8h1.3v-4.2c0-1,0.5-1.6,1.5-1.6
												c1,0,1.5,0.5,1.5,1.6v4.2h1.3v-4.3c0-0.8-0.3-1.5-0.8-1.9C579.1,59.7,578.5,59.4,577.7,59.4z"></path>
											<path class="st0 qbCVWdHo_51" d="M589.6,56.5L587.8,63.6L585.8,56.5L584.6,56.5L582.6,63.6L580.8,56.5L579.5,56.5L582,66.3L
												583.2,66.3L585.2,59.1L587.2,66.3L588.4,66.3L590.9,56.5Z"></path>
											<path class="st0 qbCVWdHo_52" d="M594.3,64.6c-0.5,0.5-0.9,0.7-1.5,0.7c-1.1,0-1.7-0.6-1.7-1.8h4.4v-0.6c0-2.1-1.1-3.3-2.8-3.3
												c-1.7,0-2.8,1.3-2.8,3.5c0,2.2,1.1,3.5,3,3.5c1.2,0,1.8-0.4,2.5-1l0.2-0.2l-1-0.8L594.3,64.6z M591.2,61.5
												c0.2-0.5,0.7-0.9,1.4-0.9c0.6,0,1.1,0.3,1.4,0.9c0.1,0.3,0.2,0.4,0.2,0.7H591C591.1,61.9,591.1,61.8,591.2,61.5z"></path>
											<path class="st0 qbCVWdHo_53" d="M598.6,59.4c-1.2,0-1.9,0.3-2.5,1.1l-0.2,0.2l1,0.8l0.2-0.3c0.3-0.4,0.6-0.7,1.5-0.7
												c1.3,0,1.5,0.6,1.5,1.2v0.4h-1.8c-1.6,0-2.5,0.8-2.5,2.1c0,0.5,0.2,1.1,0.6,1.4c0.5,0.5,1.1,0.7,2.1,0.7
												c0.7,0,1.2-0.1,1.6-0.4v0.3h1.3v-4.6C601.4,60.9,601.1,59.4,598.6,59.4z M600.1,63.9c0,0.5-0.1,0.8-0.3,1
												c-0.3,0.3-0.8,0.4-1.4,0.4c-1.2,0-1.4-0.4-1.4-0.9c0-0.4,0.2-0.9,1.3-0.9h1.7V63.9z"></path>
											<path class="st0 qbCVWdHo_54" d="M603.4,64.4v-7.9h-1.2v7.9c0,1.2,0.7,1.9,1.8,1.9h0.9v-1.2h-0.7C603.6,65.1,603.4,65,603.4,64.4z"></path>
											<path class="st0 qbCVWdHo_55" d="M606.1,57.5h-1.3v2H604v1.1h0.9v3.8c0,1.2,0.7,1.9,1.8,1.9h0.9v-1.2h-0.8c-0.3,0-0.7-0.1-0.7-0.7
												v-3.8h1.4v-1.1h-1.4V57.5z"></path>
											<path class="st0 qbCVWdHo_56" d="M610.7,59.4c-0.6,0-1.1,0.2-1.6,0.5v-3.4h-1.3v9.8h1.3v-4.2c0-1,0.5-1.6,1.5-1.6
												c1,0,1.5,0.5,1.5,1.6v4.2h1.3V62C613.3,60.4,612.3,59.4,610.7,59.4z"></path>
											<path class="st0 qbCVWdHo_57" d="M620.3,62L624.6,62L624.6,60.8L620.3,60.8L620.3,57.7L625.3,57.7L625.3,56.5L619,56.5L
												619,66.3L625.3,66.3L625.3,65.1L620.3,65.1Z"></path>
											<path class="st0 qbCVWdHo_58" d="M629.7,64.5c-0.5,0.5-0.8,0.7-1.4,0.7c-0.6,0-1.1-0.2-1.4-0.7c-0.3-0.4-0.4-0.8-0.4-1.6
												c0-0.8,0.1-1.2,0.4-1.6c0.3-0.5,0.8-0.7,1.4-0.7c0.6,0,0.9,0.2,1.4,0.7l0.2,0.2l0.9-0.8l-0.2-0.2
												c-0.7-0.8-1.3-1.1-2.3-1.1c-1.9,0-3.1,1.4-3.1,3.5c0,2.1,1.2,3.5,3.1,3.5c1,0,1.6-0.3,2.3-1l0.2-0.2l-0.9-0.8L629.7,64.5
												z"></path>
											<path class="st0 qbCVWdHo_59" d="M633.4,59.4c-0.8,0-1.5,0.3-2,0.8c-0.8,0.8-0.9,1.9-0.9,2.7c0,0.9,0.1,2,0.9,2.7
												c0.5,0.5,1.2,0.8,2,0.8c0.8,0,1.5-0.3,2-0.8c0.8-0.8,0.9-1.9,0.9-2.7c0-0.9-0.1-1.9-0.9-2.7
												C634.9,59.7,634.2,59.4,633.4,59.4z M634.6,64.8c-0.6,0.6-1.6,0.6-2.2,0c-0.4-0.4-0.5-1.2-0.5-1.9c0-0.7,0-1.4,0.5-1.9
												c0.3-0.3,0.7-0.4,1.1-0.4c0.4,0,0.8,0.2,1.1,0.4c0.4,0.4,0.5,1.2,0.5,1.9C635,63.6,635,64.4,634.6,64.8z"></path>
											<path class="st0 qbCVWdHo_60" d="M639.6,59.4c-0.6,0-1.1,0.2-1.6,0.5v-0.4h-1.3v6.8h1.3v-4.2c0-1,0.5-1.6,1.5-1.6
												c1,0,1.5,0.5,1.5,1.6v4.2h1.3v-4.3c0-0.8-0.3-1.5-0.8-1.9C641,59.7,640.4,59.4,639.6,59.4z"></path>
											<path class="st0 qbCVWdHo_61" d="M645.5,59.4c-0.8,0-1.5,0.3-2,0.8c-0.8,0.8-0.9,1.9-0.9,2.7c0,0.9,0.1,2,0.9,2.7
												c0.5,0.5,1.2,0.8,2,0.8c0.8,0,1.5-0.3,2-0.8c0.8-0.8,0.9-1.9,0.9-2.7c0-0.9-0.1-1.9-0.9-2.7
												C647,59.7,646.3,59.4,645.5,59.4z M646.6,64.8c-0.6,0.6-1.6,0.6-2.2,0c-0.4-0.4-0.5-1.1-0.5-1.9c0-0.7,0-1.4,0.5-1.9
												c0.3-0.3,0.7-0.4,1.1-0.4c0.4,0,0.8,0.2,1.1,0.4l0,0c0.4,0.4,0.5,1.1,0.5,1.9C647.1,63.6,647.1,64.4,646.6,64.8z"></path>
											<path class="st0 qbCVWdHo_62" d="M656,59.4c-0.9,0-1.6,0.3-2.2,0.9c-0.5-0.6-1.2-0.9-2.1-0.9c-0.6,0-1.2,0.2-1.6,0.5v-0.4h-1.3v6.8
												h1.3v-4.2c0-1,0.5-1.6,1.5-1.6c1,0,1.5,0.5,1.5,1.6v4.2h1.3v-4.3c0-0.9,0.6-1.4,1.5-1.4c1,0,1.5,0.5,1.5,1.6v4.2h1.3
												v-4.3c0-0.8-0.3-1.5-0.8-1.9C657.4,59.7,656.7,59.4,656,59.4z"></path>
											<path class="st0 qbCVWdHo_63" width="1.3" height="1.4" d="M659.3 56.5 L660.5999999999999 56.5 L660.5999999999999 57.9 L659.3 57.9 Z"></path>
											<path class="st0 qbCVWdHo_64" width="1.2" height="6.9" d="M659.4 59.5 L660.6 59.5 L660.6 66.4 L659.4 66.4 Z"></path>
											<path class="st0 qbCVWdHo_65" d="M672.5,57.7L677.5,57.7L677.5,56.5L671.1,56.5L671.1,66.3L672.5,66.3L672.5,62.1L676.7,62.1L
												676.7,60.9L672.5,60.9Z"></path>
											<path class="st0 qbCVWdHo_66" d="M679.9,59.4c-0.8,0-1.5,0.3-2,0.8c-0.8,0.8-0.9,1.9-0.9,2.7c0,0.9,0.1,2,0.9,2.7
												c0.5,0.5,1.2,0.8,2,0.8c0.8,0,1.5-0.3,2-0.8c0.8-0.8,0.9-1.9,0.9-2.7c0-0.9-0.1-1.9-0.9-2.7
												C681.4,59.7,680.7,59.4,679.9,59.4z M681,64.8c-0.6,0.6-1.6,0.6-2.2,0c-0.4-0.4-0.5-1.2-0.5-1.9c0-0.7,0-1.4,0.5-1.9
												c0.3-0.3,0.7-0.4,1.1-0.4c0.4,0,0.8,0.2,1.1,0.4c0.4,0.4,0.5,1.2,0.5,1.9C681.5,63.6,681.5,64.4,681,64.8z"></path>
											<path class="st0 qbCVWdHo_67" d="M692.1,63.7c0,1-0.5,1.6-1.5,1.6c-1,0-1.5-0.5-1.5-1.6v-4.2h-1.3v0.7l-0.1-0.1
												c-0.5-0.5-1-0.7-1.7-0.7c-0.6,0-1.1,0.2-1.5,0.5v-0.4h-1.3v6.8h1.3v-4.1c0-0.8,0.4-1.6,1.4-1.6c0.4,0,0.7,0.1,1,0.4
												l0.2,0.2l0.8-0.8v3.4c0,0.8,0.3,1.5,0.8,1.9c0.5,0.4,1.1,0.7,1.9,0.7c0.6,0,1.1-0.2,1.6-0.4v0.4h1.3v-6.8h-1.3V63.7z"></path>
											<path class="st0 qbCVWdHo_68" d="M701.4,59.4c-0.9,0-1.6,0.3-2.2,0.9c-0.5-0.6-1.2-0.9-2.1-0.9c-0.6,0-1.2,0.2-1.6,0.5v-0.4h-1.3v6.8
												h1.3v-4.2c0-1,0.5-1.6,1.5-1.6c1,0,1.5,0.5,1.5,1.6v4.2h1.3v-4.3c0-0.9,0.6-1.4,1.5-1.4c1,0,1.5,0.5,1.5,1.6v4.2h1.3
												v-4.3c0-0.8-0.3-1.5-0.8-1.9C702.8,59.7,702.2,59.4,701.4,59.4z"></path>
											<path class="st0 qbCVWdHo_69" d="M664.1,60.8c0.6,0,0.9,0.2,1.4,0.7l0.2,0.2l0.9-0.8l-0.2-0.2c-0.7-0.8-1.3-1.1-2.3-1.1
												c-1.9,0-3.1,1.3-3.1,3.5c0,2.1,1.2,3.5,3.1,3.5c1,0,1.6-0.3,2.3-1l0.2-0.2l-0.9-0.8l-0.2,0.2c-0.5,0.5-0.8,0.7-1.4,0.7
												c-0.6,0-1.1-0.2-1.4-0.7c-0.3-0.4-0.4-0.8-0.4-1.6c0-0.8,0.1-1.2,0.4-1.6C663,61,663.5,60.8,664.1,60.8z"></path>
										</g>
										<path class="st3 qbCVWdHo_70" d="M595.8,82.2c-1.4,0-2.4-0.3-3.3-1.2l0.9-0.9c0.7,0.7,1.4,0.9,2.4,0.9c1.2,0,1.9-0.5,1.9-1.4
											c0-0.4-0.1-0.7-0.4-1c-0.2-0.2-0.5-0.3-1-0.4l-1.1-0.2c-0.8-0.1-1.4-0.4-1.8-0.7c-0.5-0.4-0.7-1-0.7-1.7
											c0-1.6,1.2-2.7,3.1-2.7c1.2,0,2.1,0.3,2.9,1l-0.9,0.9c-0.6-0.5-1.3-0.7-2-0.7c-1.1,0-1.7,0.6-1.7,1.4
											c0,0.3,0.1,0.6,0.4,0.8c0.2,0.2,0.6,0.4,1.1,0.4l1.1,0.2c0.9,0.1,1.4,0.3,1.8,0.7c0.5,0.4,0.8,1.1,0.8,1.9
											C599.2,81.2,597.8,82.2,595.8,82.2"></path>
										<path class="st3 qbCVWdHo_71" d="M604.3,82.2c-1.9,0-3.4-1.3-3.4-3.2V73h1.4v6c0,1.2,0.8,2,1.9,2c1.2,0,2-0.8,2-2v-6h1.4v6.1
											C607.7,81,606.2,82.2,604.3,82.2"></path>
									</g>
									<path class="st3 qbCVWdHo_72" d="M616.9,82.2L616.9,76L614.7,80.5L613.7,80.5L611.4,76L611.4,82.2L610,82.2L610,73L611.4,73L
										614.2,78.7L616.9,73L618.3,73L618.3,82.2Z"></path>
									<path class="st3 qbCVWdHo_73" d="M627.6,82.2L627.6,76L625.5,80.5L624.4,80.5L622.2,76L622.2,82.2L620.7,82.2L620.7,73L
										622.2,73L624.9,78.7L627.6,73L629.1,73L629.1,82.2Z"></path>
									<path class="st3 qbCVWdHo_74" d="M631.5,82.2L631.5,73L637.5,73L637.5,74.3L632.9,74.3L632.9,76.9L636.8,76.9L636.8,78.2L
										632.9,78.2L632.9,80.9L637.5,80.9L637.5,82.2Z"></path>
									<g>
										<path class="st3 qbCVWdHo_75" d="M643,74.3h-2.1v2.9h2.1c1,0,1.6-0.5,1.6-1.4C644.6,74.8,644,74.3,643,74.3 M644.6,82.2l-2-3.9h-1.8
											v3.9h-1.4V73h3.6c1.8,0,2.9,1.1,2.9,2.7c0,1.3-0.8,2.1-1.9,2.4l2.2,4H644.6z"></path>
									</g>
									<path class="st3 qbCVWdHo_76" width="53.5" height="0.4" d="M649.9 76.8 L703.4 76.8 L703.4 77.2 L649.9 77.2 Z"></path>
									<path class="st3 qbCVWdHo_77" width="53.4" height="0.4" d="M535.3 76.8 L588.6999999999999 76.8 L588.6999999999999 77.2 L535.3 77.2 Z"></path>
								</g>
							</g>
						</g>
						<path class="st4 qbCVWdHo_78" d="M661.5,33.7l-0.1,0.3c-0.4,1.6-1,3.1-1.7,4.5c-0.7,1.4-1.6,2.6-2.7,3.6c-1.1,1-2.3,1.8-3.7,2.4
							c-1.4,0.6-3,0.9-4.7,0.9h-9.2V27.3h3.6c1.3,0,2.4,0.2,3.3,0.6c0.9,0.4,1.6,1,2.2,1.7c0.6,0.8,1.1,1.6,1.4,2.6
							c0.4,1,0.7,2.1,1,3.1l0.1,0.3h1.4V17.3h-1.4l-0.1,0.3c-0.3,1.3-0.6,2.4-1,3.4c-0.4,1-0.9,1.9-1.6,2.6
							c-0.6,0.7-1.4,1.2-2.4,1.6c-1,0.4-2.1,0.6-3.5,0.6h-2.9V7.2h10.4c1.8,0,3.4,0.3,4.7,1c1.3,0.7,2.3,1.5,3.1,2.4
							c0.8,0.9,1.4,1.9,1.9,2.8c0.5,1,0.8,1.8,1,2.4l0.1,0.3h1.4V5.6h-37.2v1.5h5.4v38.1h-6v1.5h38.7V33.7H661.5z"></path>
					</g>
				</g>
			</g>
			<g>
				<g>
					<g>
						<linearGradient id="SVGID_1_" gradientUnits="userSpaceOnUse" x1="0" y1="416.4286" x2="420.2547" y2="416.4286">
							<stop offset="0" style="stop-color:#FFFFFF;stop-opacity:0"></stop>
							<stop offset="1" style="stop-color:#00A0D2"></stop>
						</linearGradient>
						<path class="st5 qbCVWdHo_79" d="M420.3,418C188.2,418,0,417.3,0,416.4c0-0.9,188.2-1.6,420.3-1.6V418z"></path>
						
							<linearGradient id="SVGID_00000085238238286702281080000016378378307359115655_" gradientUnits="userSpaceOnUse" x1="414.8694" y1="2384.9385" x2="835.1241" y2="2384.9385" gradientTransform="matrix(-1 0 0 -1 1411.4392 2718.3333)">
							<stop offset="0" style="stop-color:#FFFFFF;stop-opacity:0"></stop>
							<stop offset="1" style="stop-color:#00A0D2"></stop>
						</linearGradient>
						<path style="fill:url(#SVGID_00000085238238286702281080000016378378307359115655_);" d="M576.3,331.8
							c232.1,0,420.3,0.7,420.3,1.6c0,0.9-188.2,1.6-420.3,1.6V331.8z" class="qbCVWdHo_80"></path>
					</g>
					<g>
						<path class="st4 qbCVWdHo_81" d="M320,363.6c0,0,0,1.6,0,2.1c-0.5,20.4-1,27.4-2.6,29.5c-0.9,1.5-2,1.9-3.5,2.1c-1.5,0.2-3.8,0.2-6.1,0
							c-0.1-1.2-0.6-3.1-1.3-4.3c2.3,0.2,4.3,0.2,5.2,0.2c0.8,0,1.3-0.1,1.8-0.8c1.1-1.4,1.6-7.7,2-24.7h-5.8
							c-0.6,13.1-2.9,23.6-11.4,30.1c-0.7-1-2.2-2.7-3.3-3.4c0.3-0.2,0.6-0.4,0.9-0.7c-7.1,0.8-14.2,1.6-19.5,2.1l-0.6-3.9
							c2.9-0.2,6.4-0.5,10.3-0.8v-3.8h-9v-3.4h9v-2.5h-8.8v-14.9h8.8v-2.6h-10.2v-3.4H286v-2.8c-3,0.2-6,0.4-8.8,0.5
							c-0.1-0.9-0.6-2.4-1.1-3.3c7.3-0.4,16.1-1.3,21.2-2.4l2.2,3.5c-2.6,0.5-5.9,1-9.3,1.4v3.2h10v2.9h5.2c0-3.4,0-6.9,0-10.6h4.4
							c0,3.7,0,7.2-0.1,10.6H320z M281,372.7h5.1v-3H281V372.7z M286,378.5v-3H281v3H286z M290.2,390.8c3.1-0.3,6.2-0.6,9.3-0.9
							c4.1-5.6,5.3-13,5.7-22H300v-3.7h-9.8v2.6h9.2v14.9h-9.2v2.5h9.3v3.4h-9.3V390.8z M295.5,372.7v-3h-5.3v3H295.5z M290.2,375.5
							v3h5.3v-3H290.2z"></path>
						<path class="st4 qbCVWdHo_82" d="M332.5,367.4c-1.8-1.2-5-2.8-7.6-3.7l2.3-3.1c2.6,0.8,5.8,2.3,7.6,3.3L332.5,367.4z M370.1,392.5v3.7
							h-44.6v-3.7h5.4v-9.2h12.9c-0.5-0.6-1.9-1.8-2.7-2.3c2.6-1.5,5.1-3.7,7-6H344c-1.6,1.5-3.3,2.9-4.9,4c-0.6-0.7-2-2-2.8-2.6
							c2.8-1.6,5.5-3.8,7.5-6.3h-5.3v-3.2h31.3v3.2h-21.7c-0.4,0.6-0.9,1.3-1.4,1.9h21.4c0,0,0,0.9-0.1,1.5c-0.5,4.9-1,7.2-2,8.2
							c-0.6,0.7-1.5,1-2.5,1c-0.9,0.1-2.6,0.1-4.4,0c0-1-0.4-2.4-0.9-3.3c1.5,0.2,2.8,0.2,3.3,0.2c0.5,0,0.9,0,1.2-0.4
							c0.4-0.4,0.7-1.6,1-4.2h-3.9c-1.6,3.3-3.9,6.2-6.2,8.4h11.1v9.2H370.1z M325.8,379.5c2.7-2.8,6.5-7.6,9.7-12l2.4,3
							c-2.8,4-6.2,8.6-9.2,12.1L325.8,379.5z M336.2,359.9c-1.8-1.3-5.2-3.1-7.9-4.2l2.3-3c2.7,1,6,2.7,7.9,3.8L336.2,359.9z
							 M335.2,392.5h5.4v-5.7h-5.4V392.5z M365.5,365.1h-23.1v-11.5h23.1V365.1z M352.2,374.9c-2.1,3.3-5.3,6.3-8.4,8.4h8.9
							c-0.7-0.6-1.7-1.4-2.5-1.8c2.2-1.7,4.2-4.1,5.6-6.6H352.2z M350.3,386.8h-5.5v5.7h5.5V386.8z M361.1,356h-14.3v2.2h14.3V356z
							 M361.1,360.5h-14.3v2.2h14.3V360.5z M354.5,386.8v5.7h5.6v-5.7H354.5z"></path>
						<path class="st4 qbCVWdHo_83" d="M419.5,386.3h-44.6V382h4.7l-0.9-25.7c3.1-1,6.8-2.5,9.2-3.7l2.1,3.7c-2.2,0.9-4.7,1.6-7.1,2.3l0.1,5.3
							h6.1v3.8h-6l0.2,5.2h6v3.9h-5.9l0.2,5.2h26.9c0.1-1.5,0.2-3.3,0.3-5.1h-5.8v-3.8h6c0-1.7,0.1-3.5,0.1-5.3h-5.8V364h5.9
							c0-1.8,0.1-3.6,0.1-5.3H405v-4h10.7c0,8.7-0.3,20-0.7,27.3h4.5V386.3z M392.8,389.4c-4.1,2.9-10.1,6.1-14.9,8.2
							c-0.5-0.9-1.8-2.5-2.6-3.5c4.6-1.8,10.6-5,13.7-7.6L392.8,389.4z M396.3,371c-0.5,3.4-1.4,6.7-2.8,8.9
							c-0.7-0.5-2.2-1.5-3.1-1.9c1.4-2,2-4.7,2.3-7.6L396.3,371z M399.3,368.7h-7.7v-16h4v4.1h7.9v3.8h-7.9v4.5h6v0h1.5v12.7
							c0,1.7-0.3,2.5-1.5,3c-1.2,0.5-3,0.5-5.4,0.5c-0.1-0.9-0.6-2.1-1.1-3c1.6,0,3,0,3.5,0c0.5,0,0.6-0.1,0.6-0.6V368.7z
							 M415.3,397.4c-3.3-2.3-8.6-5.5-13.7-7.9l2.6-3.3c5.1,2.4,10.8,5.5,14.2,7.7L415.3,397.4z"></path>
						<path class="st4 qbCVWdHo_84" d="M463.7,354.7c-0.1,18.7-0.1,38,2.5,38c0.5,0,0.8-3.2,0.9-7.3c0.7,1.3,1.8,2.7,2.6,3.5
							c-0.4,6.1-1.3,8.7-4,8.7c-6.4,0-6.4-17.5-6.5-38.7h-25.5v12c0,8.1-0.8,19.5-6.3,26.8c-0.8-0.8-2.7-2-3.8-2.5
							c5.2-6.9,5.6-16.9,5.6-24.3v-16.3H463.7z M454.7,384.1c2.3,3.3,4.6,7.8,5.3,10.8l-3.8,1.3c-0.2-1-0.6-2.3-1.2-3.6
							c-7.8,0.6-15.7,1.2-21.4,1.6l-0.3-4.1c3-0.1,6.7-0.4,10.8-0.6v-6.1H436v-13.8h8.2v-4.1h-8.6v-3.7h21.6v3.7h-8.9v4.1h8.4v13.8
							h-8.4v5.8l5.2-0.3c-0.7-1.3-1.5-2.6-2.2-3.7L454.7,384.1z M444.1,379.8v-6.6h-4.5v6.6H444.1z M448.1,373.2v6.6h4.6v-6.6H448.1
							z"></path>
						<path class="st4 qbCVWdHo_85" d="M488.8,355.8c-1.3,4.1-2.8,9-4.2,12.9c2.9,4,3.7,7.5,3.7,10.4c0,2.9-0.6,5-1.9,6.1
							c-0.7,0.5-1.5,0.8-2.5,1c-0.8,0.1-2,0.1-3.1,0c0-1.1-0.3-2.9-1-4c0.9,0,1.7,0.1,2.4,0c0.5,0,0.9-0.1,1.3-0.4
							c0.6-0.5,0.9-1.7,0.9-3.2c0-2.5-0.6-5.8-3.6-9.5c1.1-3.2,2.2-7.4,3.1-10.6H479v39.1h-3.9v-43.3h10.2l0.5-0.1L488.8,355.8z
							 M497.9,383.7c-0.3,1.2-0.8,2.3-1.2,3.4c1.9,1.1,4.1,2.7,5.1,3.9l-2.4,3.1c-0.9-1.1-2.7-2.6-4.5-3.9c-1.9,3.1-4.4,5.7-7.2,7.6
							c-0.6-0.8-2.1-2.3-3-3c4.4-2.6,7.6-6.8,9.2-11.9L497.9,383.7z M495.2,364.1c-1.6,1.2-3.4,2.3-5.1,3.2c-0.6-0.8-2.1-2.4-3-3.1
							c5.8-3.1,11.1-7.8,13.9-12.4l4.4,1.5c-0.3,0.5-0.7,1.1-1,1.6c3.6,3.2,9.5,6.4,14.4,8.1c-0.7,1.1-1.6,3.1-2,4.3
							c-2.3-1-4.7-2.3-7.1-3.8v3.4h-14.6V364.1z M489.8,370h11.4v12.1h-11.4V370z M493.2,378.8h4.3v-5.6h-4.3V378.8z M509.4,363.3
							c-2.6-1.6-5.2-3.6-7.4-5.4c-1.8,1.9-3.8,3.8-5.9,5.4H509.4z M511.6,383.4c-0.3,1.5-0.7,2.9-1.2,4.2c3,2,6.4,4.5,8.1,6.2
							l-2.7,3.2c-1.6-1.6-4.3-3.9-7-5.9c-1.5,2.7-3.4,4.9-5.8,6.6c-0.5-0.7-2.1-2.3-3-3c4-2.5,6.5-6.7,7.5-11.8L511.6,383.4z
							 M503.9,370h11.7v12.1h-11.7V370z M507.3,378.8h4.6v-5.6h-4.6V378.8z"></path>
						<path class="st4 qbCVWdHo_86" d="M546.9,360.6v8.4l0.8-1c5.6,2.7,13.4,7.1,17.2,10.1l-3.4,4.2c-3.2-2.7-9.3-6.5-14.7-9.5v24.9H542v-37
							h-18.3v-4.7h43.6v4.7H546.9z"></path>
						<path class="st4 qbCVWdHo_87" d="M616.1,360c0,0,0,1.6,0,2.2c-0.7,22.3-1.3,29.9-3.3,32.4c-1.2,1.6-2.4,2.1-4.3,2.3
							c-1.7,0.2-4.6,0.1-7.5,0c-0.1-1.2-0.6-3.2-1.5-4.4c3.2,0.2,6,0.3,7.3,0.3c1,0,1.5-0.1,2.1-0.8c1.6-1.6,2.2-9.1,2.9-27.7h-11.7
							c-1.4,3.2-2.9,6-4.5,8.3c-0.7-0.7-2.5-1.9-3.6-2.6v22.7h-13.4v3.8h-4.2v-36.1h5.5c0.7-2.4,1.4-5.6,1.7-8l5,0.8
							c-0.8,2.5-1.8,5.1-2.6,7.2h7.9v9.3c3.3-4.2,5.9-10.8,7.4-17.3l4.4,1c-0.6,2.3-1.2,4.5-2,6.7H616.1z M578.6,364.2v9.4h9.2v-9.4
							H578.6z M587.8,388.5v-10.9h-9.2v10.9H587.8z M604.2,384.7c-1.4-3-4.6-7.9-7.2-11.4l3.6-2c2.6,3.4,6,8.1,7.5,11L604.2,384.7z"></path>
						<path class="st4 qbCVWdHo_88" d="M630.9,375c-2-1.7-5.9-4-9.1-5.3l2.4-3.5c3.2,1.2,7.2,3.3,9.2,4.9L630.9,375z M636,381.4
							c-2.5,5.1-5.8,11-8.7,15.7l-3.9-3.1c2.7-3.8,6.4-10,9.3-15.7L636,381.4z M633.6,361.7c-1.9-1.8-5.9-4.1-9.1-5.4l2.5-3.4
							c3.3,1.2,7.4,3.4,9.4,5.1L633.6,361.7z M650.8,378.8c-1.2,7.2-4.7,13.9-13.8,18.9c-0.8-0.9-2.5-2.6-3.7-3.3
							c8.1-4.2,11.4-9.7,12.7-15.6h-11v-4.3h11.7c0.1-1.7,0.2-3.6,0.2-5.3v-4.8h-9.3V360h9.3v-7.7h4.6v7.7H663v14.5h3.9v4.3H650.8z
							 M651.5,369.2c0,1.8,0,3.6-0.2,5.3h7.2v-10.2h-7V369.2z M656.6,379.6c3.5,4.9,8.3,11.7,10.6,15.6l-4.1,2.4
							c-2.1-4-6.7-10.9-10.3-16.1L656.6,379.6z"></path>
						<path class="st4 qbCVWdHo_89" d="M696.5,382c4,4.1,11.6,8.2,20.2,9.9c-0.9,1-2.3,2.9-2.9,4.1c-7-1.8-13.1-5.4-17.3-9.1v10.8h-4.9v-10.9
							c-4.7,4.3-11,7.7-17.5,9.5c-0.6-1.1-1.9-2.9-2.9-3.9c8.1-1.8,16.1-5.8,20.4-10.9v-3.9h-11v9.1h-4.8v-13h15.8v-3.2h-19.1v-4
							h19.1v-2.9h4c-0.8-0.7-2.2-1.8-3.1-2.4c2.7-2.2,4.9-5.6,6.1-9.2l4.2,1c-0.3,0.9-0.7,1.7-1,2.6H716v3.6h-9.7
							c1.6,1.2,3.3,2.7,4.3,3.8l-3.1,2.7c-1.1-1.3-3.3-3.4-5-4.8l2.1-1.7h-4.8c-1.1,1.6-2.3,3.1-3.5,4.3h0.2v2.9h18.3v4h-18.3v3.2
							h15.7v8.7c0,2.1-0.4,3-1.9,3.6c-1.5,0.6-3.6,0.6-6.3,0.6c-0.3-1.2-1-2.6-1.6-3.7c1.8,0.1,3.8,0.1,4.3,0c0.6,0,0.8-0.1,0.8-0.6
							v-4.8h-11V382z M679.4,359.2c-1.6,2.5-3.3,4.7-5,6.4c-0.6-0.7-2.2-2.3-3.1-3c2.9-2.6,5.7-6.6,7.2-10.6l4.1,1.2
							c-0.3,0.8-0.7,1.6-1.1,2.5h11.8v3.6h-8.3c1.5,1.3,3.1,2.9,4,3.9l-3,2.6c-1-1.3-3.1-3.5-4.7-5l1.8-1.5H679.4z"></path>
					</g>
				</g>
			</g>
		</g>
		<g>
			<path class="st3 qbCVWdHo_90" d="M30.3,261.6c-3.3,9.2-8.5,19.6-13.2,26.3c-2-1.6-5.9-4.4-8.4-5.8c4.8-6.1,9.3-15,12-23.4L30.3,261.6z
				 M47.1,253.1v44.3H35.3v-44.3H10.2v-10.3h25.1v-11.9H9.5v-10.2h14.2c-0.5-4.4-2.4-11.2-4.6-16.3l9.9-2.5
				c2.1,5.1,4.2,11.8,4.8,16.1l-9.7,2.7h20.7c2.4-5.5,5.1-13.5,6.4-19l11.2,2.4c-2.2,5.8-4.4,11.8-6.7,16.6h15.3v10.2H47.1v11.9
				h22.2v10.3H47.1z M69.1,201.6H11.6v-10.1h23.9c-1.4-3.7-3.1-7.8-4.7-11.1l12-3.1c2.2,4.4,4.8,9.9,6.5,14.2h19.7V201.6z
				 M59.8,257.7c4.3,6.1,8.8,14.4,10.9,19.6l-8.5,5.1c-2.1-5.5-6.5-14-10.5-20.3L59.8,257.7z M128.6,232.9h-13.3v64.7h-11.9v-64.7
				H88v3.1c0,18.8-1.7,45-13.3,61.6c-1.8-2.2-6.8-5.9-9.3-7.2c10.3-15.2,11.2-37.3,11.2-54.4v-45.2c14.5-2.5,30.6-6.5,40-10.6
				l9.5,8.9c-10.7,4.2-24.8,7.3-38.2,9.7v22.9h40.5V232.9z"></path>
			<path class="st3 qbCVWdHo_91" d="M175.6,242.1c-1.8,11-4.4,20.5-8.1,28.8c8.4,12.8,23.5,14.8,45.9,14.8c13.7,0,33.6-0.7,47.5-2
				c-1.7,2.6-3.3,8.1-3.9,11.4c-12.7,0.8-29.2,1.2-43.7,1.2c-24.7,0-40.4-2.6-50.5-16.1c-4.7,8-10.5,13.9-17,18.3
				c-1.6-2.4-5.6-6.5-8-8.2c12.3-7.6,21.2-21.3,25.5-40.5h-12.8c-3.3,0-6.8,0.9-7.8,2c-0.7-2.7-2.9-8.1-4.1-10.3
				c1.8-0.5,4.1-1.4,6.4-4.1c2.6-2.6,9.4-11.6,14.6-19.2h-19.1v-9.8h26.8l1.6-0.7l7.7,3.5c-5.1,7.3-14.2,20.1-21.4,29h12.4l2-0.3
				L175.6,242.1z M161.4,204.6c-3.4-5.4-10.7-14.4-16.6-20.8l9-5.6c6,6.3,13.2,14.5,17,19.7L161.4,204.6z M192.2,277.4h-10.9v-66.8
				h33.9c-7.1-3.3-14.9-6.8-21.6-9.3l7.7-6.5c5.2,1.7,11.2,4.1,17,6.7c5.1-2.6,10.3-6,14.6-9.2h-50.9v-9.3H244l2.4-0.7l7.3,5.9
				c-6.7,6.4-15.7,12.8-25,17.8c3.5,1.6,6.7,3.1,9.3,4.6h15.7v56c0,5.4-1.2,8-4.7,9.5c-3.5,1.7-9,1.7-17.1,1.7
				c-0.4-2.9-1.8-6.7-3.1-9.3c5.4,0.1,10.5,0.1,11.9,0.1c1.7-0.1,2.1-0.5,2.1-2.1V257h-20.5v20.1h-10.5V257h-19.5V277.4z
				 M192.2,219.8v9.4h19.5v-9.4H192.2z M211.7,247.9v-9.8h-19.5v9.8H211.7z M242.7,219.8h-20.5v9.4h20.5V219.8z M242.7,247.9v-9.8
				h-20.5v9.8H242.7z"></path>
			<path class="st3 qbCVWdHo_92" d="M306.4,285.8c0,5-1,8.1-4.1,9.7c-2.9,1.8-7.5,2.1-14.5,2c-0.3-2.5-1.6-7.2-2.9-9.7c4.6,0.1,9,0.1,10.3,0
				c1.3,0,1.8-0.5,1.8-2.1v-34.5c-3.1,3-6.4,6.1-9.5,9l-2.9-6.3c-1,15.6-3.4,32.2-8.4,44.8c-1.4-2.2-5.4-5.9-7.3-7.2
				c6.5-18.2,7.1-43.8,7.1-62.5v-46.1h30.3V285.8z M285.4,229.1c0,6-0.1,12.8-0.5,20.1c3.4-2.4,7.7-5.5,12.2-8.9v-15.4l-4.8,3.5
				c-1.6-2.6-4.1-6.3-6.8-9.5V229.1z M285.4,194v18.4l3.1-2c3,3.1,6.1,6.9,8.5,10.2V194H285.4z M357.5,281.5
				c-15.6,3.7-31.8,7.2-44.1,9.9l-2.7-10.5c6.5-1.2,15.2-2.7,24.4-4.6c2.6-6.5,5.5-15.6,6.8-22l11,3c-2.2,5.5-4.7,11.5-6.9,16.9
				l10.6-2.2L357.5,281.5z M328.9,199.9h-17.5v-9.8h17.5v-11.6h10.9v11.6h16.9v9.8h-16.9v9h15.7c8-6.8,16.3-17.9,20.9-28.4l10.6,3.5
				c-5.6,12.4-14.5,24.6-23.5,32.6c-1.8-2.2-5.1-5.4-7.8-7.2v9.2h-41.7v-9.7h15V199.9z M353.8,253H315v-27.7h38.8V253z M322.3,276
				c-0.8-4.8-3.4-12.4-5.9-18l8.5-2.7c2.9,5.4,5.5,12.8,6.4,17.5L322.3,276z M343.5,233.8h-18.4v10.7h18.4V233.8z M389.5,257.6
				c-6.1,17.3-16.9,32-31.2,41.4c-1.8-2.9-5-6.4-7.8-8.6c12.8-7.5,23.1-20.9,28.4-36L389.5,257.6z M387.8,220.2
				c-5.6,12.9-14.6,25.4-24.6,33.6c-1.8-2.6-5.2-5.9-8.1-7.8c8.6-6.8,17.4-18.2,22-29.3L387.8,220.2z"></path>
			<path class="st3 qbCVWdHo_93" d="M628.4,261.6c-3.3,9.2-8.5,19.6-13.2,26.3c-2-1.6-5.9-4.4-8.4-5.8c4.8-6.1,9.3-15,12-23.4L628.4,261.6z
				 M645.2,253.1v44.3h-11.8v-44.3h-25.1v-10.3h25.1v-11.9h-25.9v-10.2h14.2c-0.5-4.4-2.4-11.2-4.6-16.3l9.9-2.5
				c2.1,5.1,4.2,11.8,4.8,16.1l-9.7,2.7H643c2.4-5.5,5.1-13.5,6.4-19l11.2,2.4c-2.2,5.8-4.4,11.8-6.7,16.6h15.3v10.2h-24.1v11.9
				h22.2v10.3H645.2z M667.2,201.6h-57.5v-10.1h23.9c-1.4-3.7-3.1-7.8-4.7-11.1l12-3.1c2.2,4.4,4.8,9.9,6.5,14.2h19.7V201.6z
				 M657.9,257.7c4.3,6.1,8.8,14.4,10.9,19.6l-8.5,5.1c-2.1-5.5-6.5-14-10.5-20.3L657.9,257.7z M726.7,232.9h-13.3v64.7h-11.9v-64.7
				h-15.3v3.1c0,18.8-1.7,45-13.3,61.6c-1.8-2.2-6.8-5.9-9.3-7.2c10.3-15.2,11.2-37.3,11.2-54.4v-45.2c14.5-2.5,30.6-6.5,40-10.6
				l9.5,8.9c-10.7,4.2-24.8,7.3-38.2,9.7v22.9h40.5V232.9z"></path>
			<path class="st3 qbCVWdHo_94" d="M773.1,181.9c-2.9,8.6-6.3,17.4-10.2,25.8v90.5h-11.5v-69.3c-3.4,5.4-6.8,10.2-10.5,14.4
				c-1-3-4.2-9.8-6-12.8c10.9-12.7,20.9-32,26.9-51.6L773.1,181.9z M799.6,279l8.4,5.9c-8.1,5.9-20.9,10.7-32.6,13.5
				c-1.4-2.4-4.3-6.3-6.5-8.4c11.1-2.2,23.4-6.5,30.3-11h-20.8v-47.5H851V279H799.6z M798.1,193.5h-24.7v-9.2h83v9.2h-26.8v6.8h22.7
				v25.8h-76.2v-25.8h22V193.5z M786.7,218.6h11.4v-11h-11.4V218.6z M789.8,245.2h49.3v-6.3h-49.3V245.2z M789.8,258.4h49.3v-6.4
				h-49.3V258.4z M789.8,271.8h49.3v-6.5h-49.3V271.8z M819.8,193.5h-12v6.8h12V193.5z M807.7,218.6h12v-11h-12V218.6z M827.6,279.1
				c11.2,3.7,23.9,8.6,31.4,12.4l-10.5,6.9c-6.4-3.8-17.8-8.8-28.6-12.6L827.6,279.1z M829.6,207.6v11h11.8v-11H829.6z"></path>
			<path class="st3 qbCVWdHo_95" d="M907.5,182c-3.7,9.8-8.2,19.7-13.2,28.9v87.3H883v-69c-3.1,4.4-6.1,8.4-9.4,12c-1-3-4.4-9.4-6.5-12.4
				c11.6-12.2,22.6-31.1,29.2-50.2L907.5,182z M987.9,284.8v10.3h-87.1v-10.3h12v-72.6h22.4c0.7-3.1,1.4-6.9,2.1-10.7h-30.7V191
				h32.3c0.7-4.4,1.2-8.8,1.4-12.6l12.8,0.5c-0.7,3.8-1.4,8-2.2,12h33.6v10.5h-35.7c-0.8,3.8-1.7,7.6-2.6,10.7h31v72.6H987.9z
				 M923.7,221.4v9.3h42.2v-9.3H923.7z M965.9,239.4h-42.2v9.3h42.2V239.4z M923.7,257.2v9.5h42.2v-9.5H923.7z M923.7,284.8h42.2
				v-9.4h-42.2V284.8z"></path>
		</g>
	</g>
</g>
<g id="N">
	<path class="st7 qbCVWdHo_96" d="M500.4,193.2L526.3,234.6L552.3,192.9L586,192.9L526.4,286.9L470.2,197.6L412.9,291.4L443.9,291.4L
		470.2,250.6L495.8,291.4"></path>
	<g>
	</g>
	<g>
	</g>
	<g>
	</g>
	<g>
	</g>
	<g>
	</g>
	<g>
	</g>
	<g>
	</g>
	<g>
	</g>
	<g>
	</g>
	<g>
	</g>
	<g>
	</g>
	<g>
	</g>
	<g>
	</g>
	<g>
	</g>
	<g>
	</g>
</g>
<style data-made-with="vivus-instant">.qbCVWdHo_0{stroke-dasharray:187 189;stroke-dashoffset:188;animation:qbCVWdHo_draw 2000ms linear 0ms forwards;}.qbCVWdHo_1{stroke-dasharray:258 260;stroke-dashoffset:259;animation:qbCVWdHo_draw 2000ms linear 10ms forwards;}.qbCVWdHo_2{stroke-dasharray:251 253;stroke-dashoffset:252;animation:qbCVWdHo_draw 2000ms linear 20ms forwards;}.qbCVWdHo_3{stroke-dasharray:220 222;stroke-dashoffset:221;animation:qbCVWdHo_draw 2000ms linear 31ms forwards;}.qbCVWdHo_4{stroke-dasharray:9 11;stroke-dashoffset:10;animation:qbCVWdHo_draw 2000ms linear 41ms forwards;}.qbCVWdHo_5{stroke-dasharray:206 208;stroke-dashoffset:207;animation:qbCVWdHo_draw 2000ms linear 52ms forwards;}.qbCVWdHo_6{stroke-dasharray:134 136;stroke-dashoffset:135;animation:qbCVWdHo_draw 2000ms linear 62ms forwards;}.qbCVWdHo_7{stroke-dasharray:210 212;stroke-dashoffset:211;animation:qbCVWdHo_draw 2000ms linear 72ms forwards;}.qbCVWdHo_8{stroke-dasharray:209 211;stroke-dashoffset:210;animation:qbCVWdHo_draw 2000ms linear 83ms forwards;}.qbCVWdHo_9{stroke-dasharray:9 11;stroke-dashoffset:10;animation:qbCVWdHo_draw 2000ms linear 93ms forwards;}.qbCVWdHo_10{stroke-dasharray:257 259;stroke-dashoffset:258;animation:qbCVWdHo_draw 2000ms linear 104ms forwards;}.qbCVWdHo_11{stroke-dasharray:241 243;stroke-dashoffset:242;animation:qbCVWdHo_draw 2000ms linear 114ms forwards;}.qbCVWdHo_12{stroke-dasharray:175 177;stroke-dashoffset:176;animation:qbCVWdHo_draw 2000ms linear 125ms forwards;}.qbCVWdHo_13{stroke-dasharray:229 231;stroke-dashoffset:230;animation:qbCVWdHo_draw 2000ms linear 135ms forwards;}.qbCVWdHo_14{stroke-dasharray:625 627;stroke-dashoffset:626;animation:qbCVWdHo_draw 2000ms linear 145ms forwards;}.qbCVWdHo_15{stroke-dasharray:77 79;stroke-dashoffset:78;animation:qbCVWdHo_draw 2000ms linear 156ms forwards;}.qbCVWdHo_16{stroke-dasharray:224 226;stroke-dashoffset:225;animation:qbCVWdHo_draw 2000ms linear 166ms forwards;}.qbCVWdHo_17{stroke-dasharray:259 261;stroke-dashoffset:260;animation:qbCVWdHo_draw 2000ms linear 177ms forwards;}.qbCVWdHo_18{stroke-dasharray:37 39;stroke-dashoffset:38;animation:qbCVWdHo_draw 2000ms linear 187ms forwards;}.qbCVWdHo_19{stroke-dasharray:31 33;stroke-dashoffset:32;animation:qbCVWdHo_draw 2000ms linear 197ms forwards;}.qbCVWdHo_20{stroke-dasharray:47 49;stroke-dashoffset:48;animation:qbCVWdHo_draw 2000ms linear 208ms forwards;}.qbCVWdHo_21{stroke-dasharray:47 49;stroke-dashoffset:48;animation:qbCVWdHo_draw 2000ms linear 218ms forwards;}.qbCVWdHo_22{stroke-dasharray:31 33;stroke-dashoffset:32;animation:qbCVWdHo_draw 2000ms linear 229ms forwards;}.qbCVWdHo_23{stroke-dasharray:31 33;stroke-dashoffset:32;animation:qbCVWdHo_draw 2000ms linear 239ms forwards;}.qbCVWdHo_24{stroke-dasharray:59 61;stroke-dashoffset:60;animation:qbCVWdHo_draw 2000ms linear 250ms forwards;}.qbCVWdHo_25{stroke-dasharray:32 34;stroke-dashoffset:33;animation:qbCVWdHo_draw 2000ms linear 260ms forwards;}.qbCVWdHo_26{stroke-dasharray:32 34;stroke-dashoffset:33;animation:qbCVWdHo_draw 2000ms linear 270ms forwards;}.qbCVWdHo_27{stroke-dasharray:21 23;stroke-dashoffset:22;animation:qbCVWdHo_draw 2000ms linear 281ms forwards;}.qbCVWdHo_28{stroke-dasharray:24 26;stroke-dashoffset:25;animation:qbCVWdHo_draw 2000ms linear 291ms forwards;}.qbCVWdHo_29{stroke-dasharray:37 39;stroke-dashoffset:38;animation:qbCVWdHo_draw 2000ms linear 302ms forwards;}.qbCVWdHo_30{stroke-dasharray:56 58;stroke-dashoffset:57;animation:qbCVWdHo_draw 2000ms linear 312ms forwards;}.qbCVWdHo_31{stroke-dasharray:33 35;stroke-dashoffset:34;animation:qbCVWdHo_draw 2000ms linear 322ms forwards;}.qbCVWdHo_32{stroke-dasharray:51 53;stroke-dashoffset:52;animation:qbCVWdHo_draw 2000ms linear 333ms forwards;}.qbCVWdHo_33{stroke-dasharray:33 35;stroke-dashoffset:34;animation:qbCVWdHo_draw 2000ms linear 343ms forwards;}.qbCVWdHo_34{stroke-dasharray:28 30;stroke-dashoffset:29;animation:qbCVWdHo_draw 2000ms linear 354ms forwards;}.qbCVWdHo_35{stroke-dasharray:20 22;stroke-dashoffset:21;animation:qbCVWdHo_draw 2000ms linear 364ms forwards;}.qbCVWdHo_36{stroke-dasharray:31 33;stroke-dashoffset:32;animation:qbCVWdHo_draw 2000ms linear 375ms forwards;}.qbCVWdHo_37{stroke-dasharray:32 34;stroke-dashoffset:33;animation:qbCVWdHo_draw 2000ms linear 385ms forwards;}.qbCVWdHo_38{stroke-dasharray:314 316;stroke-dashoffset:315;animation:qbCVWdHo_draw 2000ms linear 395ms forwards;}.qbCVWdHo_39{stroke-dasharray:280 282;stroke-dashoffset:281;animation:qbCVWdHo_draw 2000ms linear 406ms forwards;}.qbCVWdHo_40{stroke-dasharray:47 49;stroke-dashoffset:48;animation:qbCVWdHo_draw 2000ms linear 416ms forwards;}.qbCVWdHo_41{stroke-dasharray:1004 1006;stroke-dashoffset:1005;animation:qbCVWdHo_draw 2000ms linear 427ms forwards;}.qbCVWdHo_42{stroke-dasharray:318 320;stroke-dashoffset:319;animation:qbCVWdHo_draw 2000ms linear 437ms forwards;}.qbCVWdHo_43{stroke-dasharray:220 222;stroke-dashoffset:221;animation:qbCVWdHo_draw 2000ms linear 447ms forwards;}.qbCVWdHo_44{stroke-dasharray:242 244;stroke-dashoffset:243;animation:qbCVWdHo_draw 2000ms linear 458ms forwards;}.qbCVWdHo_45{stroke-dasharray:45 47;stroke-dashoffset:46;animation:qbCVWdHo_draw 2000ms linear 468ms forwards;}.qbCVWdHo_46{stroke-dasharray:34 36;stroke-dashoffset:35;animation:qbCVWdHo_draw 2000ms linear 479ms forwards;}.qbCVWdHo_47{stroke-dasharray:55 57;stroke-dashoffset:56;animation:qbCVWdHo_draw 2000ms linear 489ms forwards;}.qbCVWdHo_48{stroke-dasharray:55 57;stroke-dashoffset:56;animation:qbCVWdHo_draw 2000ms linear 500ms forwards;}.qbCVWdHo_49{stroke-dasharray:34 36;stroke-dashoffset:35;animation:qbCVWdHo_draw 2000ms linear 510ms forwards;}.qbCVWdHo_50{stroke-dasharray:35 37;stroke-dashoffset:36;animation:qbCVWdHo_draw 2000ms linear 520ms forwards;}.qbCVWdHo_51{stroke-dasharray:71 73;stroke-dashoffset:72;animation:qbCVWdHo_draw 2000ms linear 531ms forwards;}.qbCVWdHo_52{stroke-dasharray:38 40;stroke-dashoffset:39;animation:qbCVWdHo_draw 2000ms linear 541ms forwards;}.qbCVWdHo_53{stroke-dasharray:39 41;stroke-dashoffset:40;animation:qbCVWdHo_draw 2000ms linear 552ms forwards;}.qbCVWdHo_54{stroke-dasharray:25 27;stroke-dashoffset:26;animation:qbCVWdHo_draw 2000ms linear 562ms forwards;}.qbCVWdHo_55{stroke-dasharray:27 29;stroke-dashoffset:28;animation:qbCVWdHo_draw 2000ms linear 572ms forwards;}.qbCVWdHo_56{stroke-dasharray:41 43;stroke-dashoffset:42;animation:qbCVWdHo_draw 2000ms linear 583ms forwards;}.qbCVWdHo_57{stroke-dasharray:51 53;stroke-dashoffset:52;animation:qbCVWdHo_draw 2000ms linear 593ms forwards;}.qbCVWdHo_58{stroke-dasharray:30 32;stroke-dashoffset:31;animation:qbCVWdHo_draw 2000ms linear 604ms forwards;}.qbCVWdHo_59{stroke-dasharray:34 36;stroke-dashoffset:35;animation:qbCVWdHo_draw 2000ms linear 614ms forwards;}.qbCVWdHo_60{stroke-dasharray:35 37;stroke-dashoffset:36;animation:qbCVWdHo_draw 2000ms linear 625ms forwards;}.qbCVWdHo_61{stroke-dasharray:34 36;stroke-dashoffset:35;animation:qbCVWdHo_draw 2000ms linear 635ms forwards;}.qbCVWdHo_62{stroke-dasharray:55 57;stroke-dashoffset:56;animation:qbCVWdHo_draw 2000ms linear 645ms forwards;}.qbCVWdHo_63{stroke-dasharray:6 8;stroke-dashoffset:7;animation:qbCVWdHo_draw 2000ms linear 656ms forwards;}.qbCVWdHo_64{stroke-dasharray:17 19;stroke-dashoffset:18;animation:qbCVWdHo_draw 2000ms linear 666ms forwards;}.qbCVWdHo_65{stroke-dasharray:41 43;stroke-dashoffset:42;animation:qbCVWdHo_draw 2000ms linear 677ms forwards;}.qbCVWdHo_66{stroke-dasharray:34 36;stroke-dashoffset:35;animation:qbCVWdHo_draw 2000ms linear 687ms forwards;}.qbCVWdHo_67{stroke-dasharray:57 59;stroke-dashoffset:58;animation:qbCVWdHo_draw 2000ms linear 697ms forwards;}.qbCVWdHo_68{stroke-dasharray:55 57;stroke-dashoffset:56;animation:qbCVWdHo_draw 2000ms linear 708ms forwards;}.qbCVWdHo_69{stroke-dasharray:30 32;stroke-dashoffset:31;animation:qbCVWdHo_draw 2000ms linear 718ms forwards;}.qbCVWdHo_70{stroke-dasharray:44 46;stroke-dashoffset:45;animation:qbCVWdHo_draw 2000ms linear 729ms forwards;}.qbCVWdHo_71{stroke-dasharray:44 46;stroke-dashoffset:45;animation:qbCVWdHo_draw 2000ms linear 739ms forwards;}.qbCVWdHo_72{stroke-dasharray:61 63;stroke-dashoffset:62;animation:qbCVWdHo_draw 2000ms linear 750ms forwards;}.qbCVWdHo_73{stroke-dasharray:61 63;stroke-dashoffset:62;animation:qbCVWdHo_draw 2000ms linear 760ms forwards;}.qbCVWdHo_74{stroke-dasharray:48 50;stroke-dashoffset:49;animation:qbCVWdHo_draw 2000ms linear 770ms forwards;}.qbCVWdHo_75{stroke-dasharray:51 53;stroke-dashoffset:52;animation:qbCVWdHo_draw 2000ms linear 781ms forwards;}.qbCVWdHo_76{stroke-dasharray:108 110;stroke-dashoffset:109;animation:qbCVWdHo_draw 2000ms linear 791ms forwards;}.qbCVWdHo_77{stroke-dasharray:108 110;stroke-dashoffset:109;animation:qbCVWdHo_draw 2000ms linear 802ms forwards;}.qbCVWdHo_78{stroke-dasharray:299 301;stroke-dashoffset:300;animation:qbCVWdHo_draw 2000ms linear 812ms forwards;}.qbCVWdHo_79{stroke-dasharray:844 846;stroke-dashoffset:845;animation:qbCVWdHo_draw 2000ms linear 822ms forwards;}.qbCVWdHo_80{stroke-dasharray:844 846;stroke-dashoffset:845;animation:qbCVWdHo_draw 2000ms linear 833ms forwards;}.qbCVWdHo_81{stroke-dasharray:532 534;stroke-dashoffset:533;animation:qbCVWdHo_draw 2000ms linear 843ms forwards;}.qbCVWdHo_82{stroke-dasharray:603 605;stroke-dashoffset:604;animation:qbCVWdHo_draw 2000ms linear 854ms forwards;}.qbCVWdHo_83{stroke-dasharray:489 491;stroke-dashoffset:490;animation:qbCVWdHo_draw 2000ms linear 864ms forwards;}.qbCVWdHo_84{stroke-dasharray:490 492;stroke-dashoffset:491;animation:qbCVWdHo_draw 2000ms linear 875ms forwards;}.qbCVWdHo_85{stroke-dasharray:541 543;stroke-dashoffset:542;animation:qbCVWdHo_draw 2000ms linear 885ms forwards;}.qbCVWdHo_86{stroke-dasharray:212 214;stroke-dashoffset:213;animation:qbCVWdHo_draw 2000ms linear 895ms forwards;}.qbCVWdHo_87{stroke-dasharray:398 400;stroke-dashoffset:399;animation:qbCVWdHo_draw 2000ms linear 906ms forwards;}.qbCVWdHo_88{stroke-dasharray:368 370;stroke-dashoffset:369;animation:qbCVWdHo_draw 2000ms linear 916ms forwards;}.qbCVWdHo_89{stroke-dasharray:503 505;stroke-dashoffset:504;animation:qbCVWdHo_draw 2000ms linear 927ms forwards;}.qbCVWdHo_90{stroke-dasharray:1285 1287;stroke-dashoffset:1286;animation:qbCVWdHo_draw 2000ms linear 937ms forwards;}.qbCVWdHo_91{stroke-dasharray:1426 1428;stroke-dashoffset:1427;animation:qbCVWdHo_draw 2000ms linear 947ms forwards;}.qbCVWdHo_92{stroke-dasharray:1510 1512;stroke-dashoffset:1511;animation:qbCVWdHo_draw 2000ms linear 958ms forwards;}.qbCVWdHo_93{stroke-dasharray:1285 1287;stroke-dashoffset:1286;animation:qbCVWdHo_draw 2000ms linear 968ms forwards;}.qbCVWdHo_94{stroke-dasharray:1565 1567;stroke-dashoffset:1566;animation:qbCVWdHo_draw 2000ms linear 979ms forwards;}.qbCVWdHo_95{stroke-dasharray:1254 1256;stroke-dashoffset:1255;animation:qbCVWdHo_draw 2000ms linear 989ms forwards;}.qbCVWdHo_96{stroke-dasharray:587 589;stroke-dashoffset:588;animation:qbCVWdHo_draw 2000ms linear 1000ms forwards;}@keyframes qbCVWdHo_draw{100%{stroke-dashoffset:0;}}@keyframes qbCVWdHo_fade{0%{stroke-opacity:1;}94.44444444444444%{stroke-opacity:1;}100%{stroke-opacity:0;}}</style></svg>
