<svg width="101" height="102" viewBox="0 0 101 102" fill="none" xmlns="http://www.w3.org/2000/svg">
<style>
#flash {
  animation: flash-twinkle 1.6s ease-in-out infinite;
}
@keyframes flash-twinkle {
  0%, 100% { opacity: 1; }
  50% { opacity: 0.15; }
}
</style>
<g id="section4-3 1" clip-path="url(#clip0_1545_1836)">
<g id="_&#232;&#131;&#140;&#230;&#153;&#175;">
<path id="Vector" d="M49.3102 99.9329C74.2858 99.9329 94.5325 79.6861 94.5325 54.7106C94.5325 29.735 74.2858 9.48828 49.3102 9.48828C24.3346 9.48828 4.08789 29.735 4.08789 54.7106C4.08789 79.6861 24.3346 99.9329 49.3102 99.9329Z" fill="#F1FAF5"/>
</g>
<g id="_&#233;&#161;&#143;&#232;&#137;&#178;B">
<g id="flash">
<path id="Vector_2" d="M71.38 1.99219L71.1914 8.50641" stroke="#FF8D28" stroke-width="4.55" stroke-miterlimit="10" stroke-linecap="round"/>
<path id="Vector_3" d="M81.6727 5.53125L77.9629 10.4798" stroke="#FF8D28" stroke-width="4.55" stroke-miterlimit="10" stroke-linecap="round"/>
<path id="Vector_4" d="M88.0366 14.6797L82.7422 17.0754" stroke="#FF8D28" stroke-width="4.55" stroke-miterlimit="10" stroke-linecap="round"/>
</g>
<path id="Vector_5" d="M74.442 15.6378C59.9737 27.7734 50.5419 44.474 45.4487 61.8096C44.6627 64.4882 44.0025 67.1983 43.3423 69.9021C42.6192 72.8699 41.8961 75.8441 41.173 78.812C40.6574 80.9373 40.1355 83.1443 40.6259 85.2759C41.1164 87.4075 42.9084 89.4573 45.279 89.646C48.4229 89.8975 50.8374 86.8416 51.0826 83.9617C51.3279 81.0819 50.1395 78.2901 49.6239 75.4417C49.2717 73.4987 49.2403 71.5243 49.2843 69.5625C49.7559 49.2842 59.3009 29.3014 75.2469 15.1914" fill="#34C759"/>
<path id="Vector_6" d="M8.91571 87.3314C9.78389 87.3314 10.4877 86.6276 10.4877 85.7595C10.4877 84.8913 9.78389 84.1875 8.91571 84.1875C8.04754 84.1875 7.34375 84.8913 7.34375 85.7595C7.34375 86.6276 8.04754 87.3314 8.91571 87.3314Z" fill="#34C759"/>
<path id="Vector_7" d="M17.5173 96.5541C18.3854 96.5541 19.0892 95.8503 19.0892 94.9821C19.0892 94.1139 18.3854 93.4102 17.5173 93.4102C16.6491 93.4102 15.9453 94.1139 15.9453 94.9821C15.9453 95.8503 16.6491 96.5541 17.5173 96.5541Z" fill="#34C759"/>
<path id="Vector_8" d="M18.2399 87.89C19.1081 87.89 19.8119 87.1862 19.8119 86.3181C19.8119 85.4499 19.1081 84.7461 18.2399 84.7461C17.3718 84.7461 16.668 85.4499 16.668 86.3181C16.668 87.1862 17.3718 87.89 18.2399 87.89Z" fill="#34C759"/>
<path id="Vector_9" d="M28.3142 99.8392C29.1823 99.8392 29.8861 99.1354 29.8861 98.2673C29.8861 97.3991 29.1823 96.6953 28.3142 96.6953C27.446 96.6953 26.7422 97.3991 26.7422 98.2673C26.7422 99.1354 27.446 99.8392 28.3142 99.8392Z" fill="#34C759"/>
<path id="Vector_10" d="M24.8552 92.5306C25.7233 92.5306 26.4271 91.8269 26.4271 90.9587C26.4271 90.0905 25.7233 89.3867 24.8552 89.3867C23.987 89.3867 23.2832 90.0905 23.2832 90.9587C23.2832 91.8269 23.987 92.5306 24.8552 92.5306Z" fill="#34C759"/>
<path id="Vector_11" d="M81.7048 87.3314C82.5729 87.3314 83.2767 86.6276 83.2767 85.7595C83.2767 84.8913 82.5729 84.1875 81.7048 84.1875C80.8366 84.1875 80.1328 84.8913 80.1328 85.7595C80.1328 86.6276 80.8366 87.3314 81.7048 87.3314Z" fill="#34C759"/>
<path id="Vector_12" d="M76.8747 96.5541C77.7429 96.5541 78.4467 95.8503 78.4467 94.9821C78.4467 94.1139 77.7429 93.4102 76.8747 93.4102C76.0065 93.4102 75.3027 94.1139 75.3027 94.9821C75.3027 95.8503 76.0065 96.5541 76.8747 96.5541Z" fill="#34C759"/>
<path id="Vector_13" d="M76.152 87.89C77.0202 87.89 77.724 87.1862 77.724 86.3181C77.724 85.4499 77.0202 84.7461 76.152 84.7461C75.2839 84.7461 74.5801 85.4499 74.5801 86.3181C74.5801 87.1862 75.2839 87.89 76.152 87.89Z" fill="#34C759"/>
<path id="Vector_14" d="M66.0856 99.8392C66.9538 99.8392 67.6576 99.1354 67.6576 98.2673C67.6576 97.3991 66.9538 96.6953 66.0856 96.6953C65.2175 96.6953 64.5137 97.3991 64.5137 98.2673C64.5137 99.1354 65.2175 99.8392 66.0856 99.8392Z" fill="#34C759"/>
<path id="Vector_15" d="M69.5368 92.5306C70.405 92.5306 71.1088 91.8269 71.1088 90.9587C71.1088 90.0905 70.405 89.3867 69.5368 89.3867C68.6686 89.3867 67.9648 90.0905 67.9648 90.9587C67.9648 91.8269 68.6686 92.5306 69.5368 92.5306Z" fill="#34C759"/>
</g>
<g id="_&#231;&#183;&#154;&#230;&#162;&#157;B">
<path id="Vector_16" d="M5.59058 75.9938C15.9152 75.6668 26.2273 75.0569 36.5206 74.1766L35.2315 72.4851C34.0557 77.3016 33.8797 82.3508 34.8354 87.2176C35.5962 91.0909 37.4763 95.2283 41.293 96.9198C44.7388 98.4477 48.7945 97.8881 51.9635 95.9514C55.491 93.801 57.6352 89.9968 58.5029 86.0292C59.006 83.7278 59.1569 81.3322 58.9934 78.9805C58.8299 76.6288 58.2891 74.2457 56.604 72.4726L55.6608 74.7551C68.2114 73.9942 81.1455 72.5354 93.5829 75.0695C95.2617 75.409 95.9786 72.8373 94.2934 72.4914C81.5857 69.9071 68.4755 71.303 55.6608 72.0827C54.5101 72.1519 53.8939 73.4975 54.7176 74.3652C55.8809 75.5976 56.2079 77.3457 56.321 78.9805C56.4468 80.76 56.4154 82.5834 56.1198 84.344C55.5665 87.6012 54.2083 90.94 51.5297 93.0276C49.1843 94.8573 45.8895 95.6936 43.0159 94.7442C39.784 93.6752 38.2686 90.2986 37.5643 87.2239C36.5143 82.64 36.6966 77.7481 37.8096 73.202C37.9982 72.4223 37.4197 71.4351 36.5206 71.5105C26.2273 72.3908 15.9152 72.9945 5.59058 73.3277C3.87399 73.3843 3.86771 76.0566 5.59058 76.0001V75.9938Z" fill="#006A45"/>
<path id="Vector_17" d="M73.499 14.6962C64.7903 22.0215 57.6976 31.1641 52.3655 41.2058C49.7309 46.1669 47.5112 51.3481 45.6878 56.6613C43.5876 62.7731 42.1728 69.0736 40.6512 75.3426C39.8778 78.5242 38.6957 81.9008 39.2616 85.2019C39.6954 87.7548 41.6006 90.1379 44.1535 90.8107C46.7064 91.4835 49.3536 90.2133 50.913 88.0881C52.6547 85.7175 52.6547 82.8314 52.0888 80.0585C51.7681 78.4928 51.2777 76.9585 50.9758 75.3866C50.674 73.8146 50.6049 72.2049 50.6174 70.6078C50.63 67.8411 50.8249 65.0745 51.1833 62.333C51.8813 56.9757 53.2458 51.6939 55.1321 46.6322C58.9929 36.2698 65.2241 26.8129 73.0965 19.0599C74.1089 18.0664 75.1464 17.0981 76.209 16.1549C77.498 15.0105 75.5991 13.1242 74.3164 14.2623C66.2239 21.443 59.5714 30.2712 55.0001 40.0802C50.4288 49.8893 47.8885 60.3837 47.9451 71.0542C47.9514 72.6514 48.0646 74.2422 48.3475 75.8142C48.6305 77.3861 49.0832 78.8323 49.4227 80.3477C49.9509 82.7119 50.0704 85.2648 48.2595 87.126C46.6812 88.742 44.361 88.6854 42.9022 86.9374C41.041 84.7115 41.8899 81.5675 42.5061 79.0335C44.0089 72.84 45.3545 66.5773 47.2471 60.4906C48.8443 55.3597 50.8061 50.342 53.1703 45.513C57.9428 35.7605 64.2935 26.7751 72.254 19.3617C73.2726 18.4123 74.3227 17.488 75.3853 16.5888C75.9387 16.1235 75.8632 15.1803 75.3853 14.6962C74.8383 14.1491 74.046 14.2309 73.4927 14.6962H73.499Z" fill="#006A45"/>
<path id="Vector_18" d="M65.1868 72.0204C65.1994 71.4922 65.2434 70.964 65.3126 70.4359L65.2623 70.7943C65.3943 69.8259 65.627 68.8765 65.9477 67.9522C66.1803 67.2919 65.6836 66.4619 65.0171 66.3047C64.2688 66.135 63.6212 66.5311 63.3696 67.2353C62.8352 68.7696 62.5522 70.3981 62.5082 72.0204C62.4894 72.7184 63.137 73.3912 63.8475 73.3597C64.5581 73.3283 65.1617 72.775 65.1868 72.0204Z" fill="#006A45"/>
<path id="Vector_19" d="M67.4437 64.1555L68.7704 60.5965C68.8836 60.2884 68.7956 59.842 68.6384 59.5653C68.4812 59.2887 68.1605 59.0246 67.8398 58.9491C67.5003 58.8737 67.1104 58.8862 66.8086 59.0812C66.5068 59.2761 66.3244 59.5402 66.1924 59.8797L64.8656 63.4386C64.7525 63.7468 64.8405 64.1932 64.9977 64.4699C65.1549 64.7465 65.4756 65.0106 65.7962 65.0861C66.1358 65.1615 66.5256 65.1489 66.8275 64.954C67.1293 64.7591 67.3116 64.495 67.4437 64.1555Z" fill="#006A45"/>
<path id="Vector_20" d="M70.4304 57.3646L72.65 54.032C72.8386 53.7553 72.8701 53.3152 72.782 53.0008C72.694 52.6864 72.4551 52.3531 72.1658 52.2022C71.493 51.8501 70.7511 52.0576 70.3361 52.6801C69.5941 53.7931 68.8584 54.8997 68.1165 56.0127C67.9278 56.2893 67.8964 56.7295 67.9844 57.0439C68.0724 57.3583 68.3114 57.6915 68.6006 57.8424C69.2734 58.1946 70.0154 57.9871 70.4304 57.3646Z" fill="#006A45"/>
<path id="Vector_21" d="M74.8459 50.9042C75.0912 50.4892 75.349 50.0805 75.6193 49.678C75.7514 49.4831 75.8834 49.2945 76.0218 49.0995C76.0972 48.9989 76.1664 48.8983 76.2418 48.7977C76.2984 48.716 76.5625 48.4079 76.311 48.7034C76.9335 47.9614 77.5434 47.2258 78.2351 46.5404C78.7318 46.0436 78.7633 45.1382 78.2351 44.6477C77.7069 44.1573 76.8769 44.1196 76.3424 44.6477C74.8774 46.1065 73.5884 47.7665 72.532 49.546C72.1736 50.1496 72.3748 51.0362 73.0099 51.3758C73.6449 51.7153 74.4561 51.5392 74.8396 50.8979L74.8459 50.9042Z" fill="#006A45"/>
<path id="Vector_22" d="M28.7793 70.3741C28.9113 69.4058 29.0371 68.4438 29.1691 67.4754C29.2257 67.2994 29.232 67.117 29.1943 66.941C29.188 66.7649 29.1314 66.5951 29.0371 66.4442C28.8736 66.1676 28.5592 65.9035 28.2385 65.828C27.899 65.7526 27.5091 65.7651 27.2073 65.9601C26.937 66.1361 26.6351 66.4254 26.5911 66.7586C26.4591 67.727 26.3333 68.689 26.2013 69.6573C26.1447 69.8334 26.1384 70.0157 26.1761 70.1918C26.1824 70.3679 26.239 70.5376 26.3333 70.6885C26.4968 70.9652 26.8112 71.2293 27.1319 71.3047C27.4714 71.3802 27.8613 71.3676 28.1631 71.1727C28.4335 70.9966 28.7353 70.7074 28.7793 70.3741Z" fill="#006A45"/>
<path id="Vector_23" d="M30.1626 61.795C30.1626 61.4932 30.1877 61.1914 30.2255 60.8895L30.1752 61.248C30.2506 60.7198 30.3826 60.2105 30.5713 59.7137C30.6908 59.4056 30.5964 58.9592 30.4392 58.6825C30.282 58.4058 29.9614 58.1418 29.6407 58.0663C29.3011 57.9908 28.9113 58.0034 28.6095 58.1983L28.3391 58.4058C28.1756 58.5756 28.0561 58.7705 27.9933 58.9969C27.6537 59.8835 27.4965 60.8518 27.4902 61.795C27.4902 62.1345 27.6411 62.4992 27.8801 62.7382C28.119 62.9771 28.49 63.1469 28.8233 63.128C29.1565 63.1092 29.5275 62.996 29.7664 62.7382C30.0054 62.4804 30.1563 62.1534 30.1563 61.795H30.1626Z" fill="#006A45"/>
<path id="Vector_24" d="M31.4716 54.1191C35.3009 42.103 39.5829 30.0744 46.2481 19.297C48.059 16.3731 50.0396 13.5624 52.2278 10.909C52.6868 10.3556 52.7749 9.56336 52.2278 9.01631C51.7562 8.54472 50.8005 8.45669 50.3352 9.01631C42.0981 18.9763 36.722 30.8603 32.4022 42.9456C31.1635 46.4102 30.0065 49.9 28.8936 53.4023C28.3717 55.0434 30.9497 55.7477 31.4716 54.1128V54.1191Z" fill="#006A45"/>
<path id="Vector_25" d="M7.37056 81.8222C14.9411 81.055 22.5117 80.2816 30.076 79.5145L28.787 78.5336C30.3653 83.0357 29.661 88.0031 31.5285 92.4361C33.1068 96.1836 36.2633 99.0635 39.992 100.617C48.1096 103.993 57.554 99.818 61.7291 92.3543C64.2128 87.9088 64.8793 82.6773 63.9865 77.7036L62.6974 79.395C72.5694 79.4831 82.4413 79.5711 92.3133 79.6591C94.0361 79.6717 94.0361 76.9994 92.3133 76.9868C82.4413 76.8988 72.5694 76.8107 62.6974 76.7227C61.7668 76.7164 61.2575 77.5778 61.4084 78.4141C62.8043 86.1608 59.39 94.3916 52.0835 97.7996C48.8201 99.3213 45.0726 99.5854 41.6646 98.4032C38.4515 97.2903 35.6785 94.9261 34.1883 91.8639C32.0756 87.519 32.9496 82.344 31.365 77.8231C31.189 77.3137 30.6797 76.7793 30.076 76.8422C22.5054 77.6093 14.9349 78.3827 7.37056 79.1498C6.65375 79.2253 6.03125 79.7094 6.03125 80.4891C6.03125 81.1556 6.64746 81.8976 7.37056 81.8284V81.8222Z" fill="#34C759"/>
</g>
</g>
<defs>
<clipPath id="clip0_1545_1836">
<rect width="100.48" height="101.624" fill="white"/>
</clipPath>
</defs>
</svg>
