<svg width="18" height="17" viewBox="0 0 18 17" fill="none" xmlns="http://www.w3.org/2000/svg">
<g clip-path="url(#clip0_145_6)">
<path d="M6.43577 13.7296C5.73264 13.6636 5.12294 14.0708 4.9352 14.7317C4.75138 15.3779 5.05427 16.062 5.6618 16.3562C5.78609 16.4166 5.92211 16.4531 6.05292 16.5004H6.47575C6.52616 16.4844 6.57614 16.4661 6.62698 16.4522C7.28883 16.2732 7.70211 15.6708 7.64822 14.9629C7.60085 14.3419 7.05634 13.7878 6.43621 13.7296H6.43577Z" fill="white"/>
<path d="M14.7658 13.7296C14.0627 13.6636 13.453 14.0708 13.2653 14.7317C13.0815 15.3779 13.3844 16.062 13.9919 16.3562C14.1162 16.4166 14.2522 16.4531 14.383 16.5004H14.8058C14.8562 16.4844 14.9062 16.4661 14.9571 16.4522C15.6189 16.2732 16.0322 15.6708 15.9783 14.9629C15.9309 14.3419 15.3864 13.7878 14.7663 13.7296H14.7658Z" fill="white"/>
<path d="M16.6403 3.31734C16.5377 3.28953 16.4256 3.2904 16.3182 3.2904C12.6735 3.28909 9.02919 3.28953 5.38445 3.28909C5.02246 3.28909 4.88948 3.19305 4.77475 2.85018C4.57181 2.24352 4.3706 1.63599 4.16635 1.02976C4.04815 0.679933 3.81696 0.506105 3.45062 0.503932C2.7779 0.499587 2.10562 0.497848 1.43291 0.504367C1.01398 0.507843 0.711521 0.813781 0.715867 1.20924C0.720212 1.60339 1.02919 1.89325 1.45072 1.89543C1.82489 1.89716 2.19905 1.89543 2.57322 1.89586C2.87481 1.89629 3.02734 2.00233 3.12078 2.28306C3.87606 4.55152 4.63004 6.82041 5.38489 9.0893C5.49396 9.41783 5.50179 9.74984 5.41922 10.0845C5.37228 10.2739 5.31318 10.4612 5.27842 10.6529C5.238 10.8758 5.18064 11.1053 5.19541 11.3273C5.26234 12.3186 6.02153 13.0174 7.01279 13.0195C8.36343 13.0226 9.71364 13.0204 11.0643 13.0204C11.4658 13.0204 11.8669 13.0204 12.2685 13.0204C13.2771 13.0204 14.2862 13.023 15.2948 13.0182C15.6494 13.0165 15.9323 12.7675 15.9775 12.4398C16.0271 12.08 15.825 11.7541 15.483 11.6628C15.3804 11.6354 15.2683 11.6363 15.1605 11.6363C12.4814 11.635 9.80229 11.6354 7.12273 11.635C7.06841 11.635 7.01409 11.6372 6.9602 11.6333C6.67121 11.6128 6.52389 11.4129 6.59038 11.1292C6.62471 10.9814 6.66383 10.8345 6.70033 10.6872C6.78638 10.34 6.9124 10.2418 7.27222 10.2418C9.67496 10.2418 12.0777 10.2418 14.48 10.2418C14.9411 10.2418 15.1497 10.0901 15.2957 9.65163C15.6707 8.52523 16.0466 7.39925 16.4217 6.27285C16.6476 5.59405 16.8745 4.91525 17.0965 4.23515C17.2313 3.82144 17.0344 3.42511 16.6398 3.31821L16.6403 3.31734Z" fill="white"/>
</g>
<defs>
<clipPath id="clip0_145_6">
<rect width="16.4233" height="16" fill="white" transform="translate(0.71582 0.5)"/>
</clipPath>
</defs>
</svg>
