<svg width="200" height="222" viewBox="0 0 200 222" fill="none" xmlns="http://www.w3.org/2000/svg">
<path d="M200 159.844L196.109 133.301L181.44 135.454C179.652 131.324 177.347 127.496 174.615 124.046L183.467 112.147L161.948 96.1302L153.096 108.029C149.004 106.405 144.685 105.297 140.215 104.768L138.061 90.0988L111.518 93.9896L113.671 108.659C109.541 110.447 105.714 112.751 102.263 115.484L90.3643 106.632L74.3478 128.151L86.2469 137.003C84.6225 141.095 83.5145 145.414 82.9857 149.884L68.3164 152.037L72.2073 178.58L86.8764 176.427C88.6644 180.557 90.9688 184.385 93.7012 187.835L84.8492 199.734L106.368 215.751L115.22 203.852C119.312 205.476 123.631 206.584 128.101 207.113L130.255 221.782L156.798 217.891L154.645 203.222C158.775 201.434 162.602 199.13 166.053 196.397L177.952 205.249L193.968 183.73L182.069 174.878C183.693 170.786 184.801 166.467 185.33 161.997L200 159.844ZM137.57 179.122C124.752 180.998 112.84 172.133 110.964 159.315C109.088 146.497 117.953 134.585 130.771 132.709C143.589 130.833 155.501 139.697 157.377 152.515C159.253 165.334 150.376 177.245 137.57 179.122Z" fill="#EFEFEF"/>
<path d="M138.686 31.8944L118.525 16.2615L100.288 39.7808L120.45 55.4137L138.686 31.8944Z" fill="#C19A14"/>
<path d="M141.257 92.8297L107.185 66.4095L133.062 21.1729L178.621 56.5026L141.257 92.8297Z" fill="#999999"/>
<path d="M158.866 69.0991L183.575 100.571L194.059 97.0596L178.621 56.5026L158.866 69.0991Z" fill="#999999"/>
<path d="M125.4 15.2344L105.753 0L80.8757 32.0831L100.523 47.3175L125.4 15.2344Z" fill="#999999"/>
<path d="M20.0322 210.642C13.0152 205.195 11.7976 195.063 17.333 188.114L111.562 69.8028L133.635 86.9175L42.5209 207.645C37.1665 214.735 27.0541 216.085 20.0322 210.642Z" fill="#FFCC00"/>
<path d="M73.2673 77.4195L71.1025 62.6512L62.9407 63.8492C61.9459 61.5513 60.6638 59.4215 59.1435 57.5019L64.0686 50.8813L52.0956 41.9699L47.1705 48.5904C44.8936 47.6867 42.4906 47.0701 40.0035 46.7759L38.8055 38.6141L24.0371 40.7789L25.2351 48.9407C22.9372 49.9355 20.8074 51.2176 18.8878 52.7379L12.2673 47.8128L3.35579 59.7858L9.97634 64.7109C9.07259 66.9878 8.45609 69.3908 8.16185 71.8779L0 73.0759L2.16483 87.8443L10.3266 86.6463C11.3215 88.9442 12.6036 91.074 14.1238 92.9936L9.1987 99.6141L21.1717 108.526L26.0968 101.905C28.3737 102.809 30.7767 103.425 33.2638 103.72L34.4618 111.881L49.2302 109.717L48.0322 101.555C50.3301 100.56 52.4599 99.2778 54.3795 97.7576L61.0001 102.683L69.9115 90.7097L63.291 85.7845C64.1947 83.5076 64.8112 81.1046 65.1055 78.6175L73.2673 77.4195ZM38.5322 88.1455C31.4003 89.1894 24.7727 84.2573 23.7289 77.1253C22.685 69.9933 27.6171 63.3658 34.7491 62.3219C41.8811 61.278 48.5086 66.2102 49.5525 73.3421C50.5963 80.4741 45.6572 87.1016 38.5322 88.1455Z" fill="#EFEFEF"/>
</svg>
