<?xml version="1.0" encoding="utf-8"?>
<!-- Generator: Adobe Illustrator 27.1.1, SVG Export Plug-In . SVG Version: 6.00 Build 0)  -->
<svg version="1.1" xmlns="http://www.w3.org/2000/svg" xmlns:xlink="http://www.w3.org/1999/xlink" x="0px" y="0px"
	 viewBox="0 0 30 30" style="enable-background:new 0 0 30 30;" xml:space="preserve">
<style type="text/css">
	.st0{display:none;}
	.st1{display:inline;fill:#FFFFFF;}
	.st2{display:inline;fill:#373737;}
	.st3{fill-rule:evenodd;clip-rule:evenodd;fill:#FFFFFF;}
	.st4{fill-rule:evenodd;clip-rule:evenodd;fill:#373737;}
</style>
<g id="圖層_1" class="st0">
	<circle class="st1" cx="14.9" cy="15" r="15"/>
	<path id="iconmonstr-facebook-4_1_" class="st2" d="M14.9,0c-8.3,0-15,6.7-15,15c0,8.3,6.7,15,15,15s15-6.7,15-15c0,0,0,0,0,0
		C29.9,6.7,23.2,0,14.9,0z M18.7,10H17c-0.7,0-0.8,0.3-0.8,1v1.5h2.5L18.4,15h-2.2v8.7h-3.8V15H9.9v-2.5h2.5V9.6
		c0-2.2,1.2-3.4,3.8-3.4h2.5V10z"/>
</g>
<g id="圖層_2">
	<g>
		<circle class="st3" cx="15" cy="15" r="15"/>
		<path id="iconmonstr-line-4" class="st4" d="M15,0C6.7,0,0,6.7,0,15s6.7,15,15,15s15-6.7,15-15c0,0,0,0,0,0C30,6.7,23.3,0,15,0z
			 M23.8,14.6c0-3.9-3.9-7.1-8.7-7.1s-8.7,3.2-8.7,7.1c0,3.5,3.1,6.4,7.3,7c0.3,0.1,0.7,0.2,0.8,0.4c0.1,0.3,0.1,0.5,0,0.8l-0.1,0.7
			c0,0.2-0.2,0.9,0.8,0.5c2.5-1.3,4.9-3,6.9-5.1C23,17.8,23.7,16.2,23.8,14.6z M11.7,16.9H9.3l-0.1,0l0,0l0,0l0-0.1v-3.8
			c0-0.1,0.1-0.2,0.2-0.2c0,0,0,0,0,0h0.6c0.1,0,0.2,0.1,0.2,0.2v3h1.7c0.1,0,0.2,0.1,0.2,0.2v0.6C11.9,16.8,11.8,16.9,11.7,16.9
			L11.7,16.9L11.7,16.9z M20.8,16.9h-2.5l-0.1,0l0,0l0-0.1v-3.8l0-0.1l0,0l0.1,0h2.5c0.1,0,0.2,0.1,0.2,0.2v0v0.6
			c0,0.1-0.1,0.2-0.2,0.2c0,0,0,0,0,0h-1.7v0.6h1.7c0.1,0,0.2,0.1,0.2,0.2c0,0,0,0,0,0v0.6c0,0.1-0.1,0.2-0.2,0.2l0,0h-1.7v0.6h1.7
			c0.1,0,0.2,0.1,0.2,0.2v0.6C21,16.8,20.9,16.9,20.8,16.9L20.8,16.9z M13.2,16.9h-0.6c-0.1,0-0.2-0.1-0.2-0.2c0,0,0,0,0,0v-3.8
			c0-0.1,0.1-0.2,0.2-0.2c0,0,0,0,0,0h0.6c0.1,0,0.2,0.1,0.2,0.2v3.8C13.4,16.8,13.3,16.9,13.2,16.9C13.2,16.9,13.2,16.9,13.2,16.9
			L13.2,16.9z M14.8,16.9h-0.6c-0.1,0-0.2-0.1-0.2-0.2v-3.8c0-0.1,0.1-0.2,0.2-0.2h0.6h0l0,0h0l0,0l0,0l0,0l0,0l0,0l0,0l1.7,2.4
			v-2.3c0-0.1,0.1-0.2,0.2-0.2l0,0h0.6c0.1,0,0.2,0.1,0.2,0.2c0,0,0,0,0,0v3.8c0,0.1-0.1,0.2-0.2,0.2c0,0,0,0,0,0h-0.6l0,0l0,0l0,0
			h0l0,0l0,0l0,0l0,0L15,14.4v2.3C15,16.8,14.9,16.9,14.8,16.9L14.8,16.9L14.8,16.9z"/>
	</g>
</g>
</svg>
