<?xml version="1.0" encoding="utf-8"?>
<!-- Generator: Adobe Illustrator 27.1.1, SVG Export Plug-In . SVG Version: 6.00 Build 0)  -->
<svg version="1.1" id="圖層_1" xmlns="http://www.w3.org/2000/svg" xmlns:xlink="http://www.w3.org/1999/xlink" x="0px" y="0px"
	 viewBox="0 0 30 30" style="enable-background:new 0 0 30 30;" xml:space="preserve">
<style type="text/css">
	.st0{fill:#FFFFFF;}
	.st1{fill:#373737;}
</style>
<circle class="st0" cx="14.9" cy="15" r="15"/>
<path id="iconmonstr-facebook-4_1_" class="st1" d="M14.9,0c-8.3,0-15,6.7-15,15c0,8.3,6.7,15,15,15s15-6.7,15-15c0,0,0,0,0,0
	C29.9,6.7,23.2,0,14.9,0z M18.7,10H17c-0.7,0-0.8,0.3-0.8,1v1.5h2.5L18.4,15h-2.2v8.7h-3.8V15H9.9v-2.5h2.5V9.6
	c0-2.2,1.2-3.4,3.8-3.4h2.5V10z"/>
</svg>
