<?xml version="1.0" encoding="utf-8"?>
<!-- Generator: Adobe Illustrator 27.1.1, SVG Export Plug-In . SVG Version: 6.00 Build 0)  -->
<svg version="1.1" xmlns="http://www.w3.org/2000/svg" xmlns:xlink="http://www.w3.org/1999/xlink" x="0px" y="0px"
	 viewBox="0 0 30 30" style="enable-background:new 0 0 30 30;" xml:space="preserve">
<style type="text/css">
	.st0{display:none;}
	.st1{display:inline;fill:#FFFFFF;}
	.st2{display:inline;fill:#373737;}
	.st3{display:inline;}
	.st4{fill-rule:evenodd;clip-rule:evenodd;fill:#FFFFFF;}
	.st5{fill-rule:evenodd;clip-rule:evenodd;fill:#373737;}
	.st6{fill:#FFFFFF;}
	.st7{fill:#373737;}
</style>
<g id="圖層_1" class="st0">
	<circle class="st1" cx="14.9" cy="15" r="15"/>
	<path id="iconmonstr-facebook-4_1_" class="st2" d="M14.9,0c-8.3,0-15,6.7-15,15c0,8.3,6.7,15,15,15s15-6.7,15-15c0,0,0,0,0,0
		C29.9,6.7,23.2,0,14.9,0z M18.7,10H17c-0.7,0-0.8,0.3-0.8,1v1.5h2.5L18.4,15h-2.2v8.7h-3.8V15H9.9v-2.5h2.5V9.6
		c0-2.2,1.2-3.4,3.8-3.4h2.5V10z"/>
</g>
<g id="圖層_2" class="st0">
	<g class="st3">
		<circle class="st4" cx="15" cy="15" r="15"/>
		<path id="iconmonstr-line-4" class="st5" d="M15,0C6.7,0,0,6.7,0,15s6.7,15,15,15s15-6.7,15-15c0,0,0,0,0,0C30,6.7,23.3,0,15,0z
			 M23.8,14.6c0-3.9-3.9-7.1-8.7-7.1s-8.7,3.2-8.7,7.1c0,3.5,3.1,6.4,7.3,7c0.3,0.1,0.7,0.2,0.8,0.4c0.1,0.3,0.1,0.5,0,0.8l-0.1,0.7
			c0,0.2-0.2,0.9,0.8,0.5c2.5-1.3,4.9-3,6.9-5.1C23,17.8,23.7,16.2,23.8,14.6z M11.7,16.9H9.3l-0.1,0l0,0l0,0l0-0.1v-3.8
			c0-0.1,0.1-0.2,0.2-0.2c0,0,0,0,0,0h0.6c0.1,0,0.2,0.1,0.2,0.2v3h1.7c0.1,0,0.2,0.1,0.2,0.2v0.6C11.9,16.8,11.8,16.9,11.7,16.9
			L11.7,16.9L11.7,16.9z M20.8,16.9h-2.5l-0.1,0l0,0l0-0.1v-3.8l0-0.1l0,0l0.1,0h2.5c0.1,0,0.2,0.1,0.2,0.2v0v0.6
			c0,0.1-0.1,0.2-0.2,0.2c0,0,0,0,0,0h-1.7v0.6h1.7c0.1,0,0.2,0.1,0.2,0.2c0,0,0,0,0,0v0.6c0,0.1-0.1,0.2-0.2,0.2l0,0h-1.7v0.6h1.7
			c0.1,0,0.2,0.1,0.2,0.2v0.6C21,16.8,20.9,16.9,20.8,16.9L20.8,16.9z M13.2,16.9h-0.6c-0.1,0-0.2-0.1-0.2-0.2c0,0,0,0,0,0v-3.8
			c0-0.1,0.1-0.2,0.2-0.2c0,0,0,0,0,0h0.6c0.1,0,0.2,0.1,0.2,0.2v3.8C13.4,16.8,13.3,16.9,13.2,16.9C13.2,16.9,13.2,16.9,13.2,16.9
			L13.2,16.9z M14.8,16.9h-0.6c-0.1,0-0.2-0.1-0.2-0.2v-3.8c0-0.1,0.1-0.2,0.2-0.2h0.6h0l0,0h0l0,0l0,0l0,0l0,0l0,0l0,0l1.7,2.4
			v-2.3c0-0.1,0.1-0.2,0.2-0.2l0,0h0.6c0.1,0,0.2,0.1,0.2,0.2c0,0,0,0,0,0v3.8c0,0.1-0.1,0.2-0.2,0.2c0,0,0,0,0,0h-0.6l0,0l0,0l0,0
			h0l0,0l0,0l0,0l0,0L15,14.4v2.3C15,16.8,14.9,16.9,14.8,16.9L14.8,16.9L14.8,16.9z"/>
	</g>
</g>
<g id="圖層_3" class="st0">
	<g class="st3">
		<rect x="0" y="3.8" class="st6" width="30" height="22.5"/>
		<path id="iconmonstr-email-3" class="st7" d="M15,15.9L0,3.8h30L15,15.9z M15,19.1L0,7v19.3h30V7L15,19.1z"/>
	</g>
</g>
<g id="圖層_4" class="st0">
	<g class="st3">
		<circle class="st6" cx="15" cy="15" r="15"/>
		<path id="iconmonstr-linkedin-4" class="st7" d="M15,0C6.7,0,0,6.7,0,15s6.7,15,15,15s15-6.7,15-15c0,0,0,0,0,0
			C30,6.7,23.3,0,15,0z M12.5,20H10v-7.5h2.5L12.5,20z M11.3,11.4c-0.8,0-1.4-0.6-1.4-1.4c0-0.8,0.6-1.4,1.4-1.4s1.4,0.6,1.4,1.4
			c0,0,0,0,0,0C12.6,10.8,12,11.4,11.3,11.4z M21.3,20h-2.5v-3.6c0-2.4-2.5-2.2-2.5,0V20h-2.5v-7.5h2.5v1.4c1.1-2,5-2.2,5,1.9V20z"
			/>
	</g>
</g>
<g id="圖層_5">
	<circle class="st6" cx="15" cy="15" r="15"/>
	<g id="Group_194" transform="translate(-0.343 -0.069)">
		<circle id="Ellipse_39" class="st7" cx="15.3" cy="15.1" r="15"/>
		<path id="iconmonstr-link-1" class="st6" d="M11.5,13.1c1.6-1.6,4.1-1.6,5.7,0c0.2,0.2,0.4,0.4,0.5,0.6l-1.4,1.4
			c-0.4-0.9-1.4-1.4-2.4-1.2c-0.4,0.1-0.7,0.3-1,0.6l-2.7,2.7c-0.8,0.8-0.8,2.2,0,3c0.8,0.8,2.1,0.8,2.9,0l0.8-0.8
			c0.8,0.3,1.6,0.4,2.4,0.4l-1.8,1.8c-1.6,1.6-4.1,1.6-5.7,0s-1.6-4.1,0-5.7L11.5,13.1L11.5,13.1z M15.8,8.8l-1.8,1.8
			c0.8-0.1,1.6,0.1,2.4,0.4l0.8-0.8c0.8-0.8,2.2-0.8,3,0c0.8,0.8,0.8,2.1,0,2.9l-2.7,2.7c-0.8,0.8-2.2,0.8-3,0
			c-0.2-0.2-0.3-0.4-0.5-0.7l-1.4,1.4c0.1,0.2,0.3,0.4,0.5,0.6c1.6,1.6,4.1,1.6,5.7,0c0,0,0,0,0,0l2.7-2.7c1.6-1.6,1.6-4.1,0-5.7
			C19.9,7.2,17.3,7.2,15.8,8.8z"/>
	</g>
</g>
</svg>
