<svg width="25" height="24" viewBox="0 0 25 24" fill="none" xmlns="http://www.w3.org/2000/svg">
<mask id="mask0_1438_22461" style="mask-type:alpha" maskUnits="userSpaceOnUse" x="0" y="0" width="25" height="24">
<rect x="0.207031" width="24" height="24" fill="#D9D9D9"/>
</mask>
<g mask="url(#mask0_1438_22461)">
<path d="M11.207 22V13.725C10.907 13.5417 10.6654 13.3042 10.482 13.0125C10.2987 12.7208 10.207 12.3833 10.207 12C10.207 11.45 10.4029 10.9792 10.7945 10.5875C11.1862 10.1958 11.657 10 12.207 10C12.757 10 13.2279 10.1958 13.6195 10.5875C14.0112 10.9792 14.207 11.45 14.207 12C14.207 12.3833 14.1154 12.725 13.932 13.025C13.7487 13.325 13.507 13.5583 13.207 13.725V22H11.207ZM5.30703 19.25C4.35703 18.3333 3.60286 17.2542 3.04453 16.0125C2.4862 14.7708 2.20703 13.4333 2.20703 12C2.20703 10.6167 2.46953 9.31667 2.99453 8.1C3.51953 6.88333 4.23203 5.825 5.13203 4.925C6.03203 4.025 7.09036 3.3125 8.30703 2.7875C9.5237 2.2625 10.8237 2 12.207 2C13.5904 2 14.8904 2.2625 16.107 2.7875C17.3237 3.3125 18.382 4.025 19.282 4.925C20.182 5.825 20.8945 6.88333 21.4195 8.1C21.9445 9.31667 22.207 10.6167 22.207 12C22.207 13.4333 21.9279 14.775 21.3695 16.025C20.8112 17.275 20.057 18.35 19.107 19.25L17.707 17.85C18.4737 17.1167 19.082 16.2458 19.532 15.2375C19.982 14.2292 20.207 13.15 20.207 12C20.207 9.76667 19.432 7.875 17.882 6.325C16.332 4.775 14.4404 4 12.207 4C9.9737 4 8.08203 4.775 6.53203 6.325C4.98203 7.875 4.20703 9.76667 4.20703 12C4.20703 13.15 4.43203 14.225 4.88203 15.225C5.33203 16.225 5.9487 17.0917 6.73203 17.825L5.30703 19.25ZM8.13203 16.425C7.5487 15.875 7.08203 15.2208 6.73203 14.4625C6.38203 13.7042 6.20703 12.8833 6.20703 12C6.20703 10.3333 6.79036 8.91667 7.95703 7.75C9.1237 6.58333 10.5404 6 12.207 6C13.8737 6 15.2904 6.58333 16.457 7.75C17.6237 8.91667 18.207 10.3333 18.207 12C18.207 12.8833 18.032 13.7083 17.682 14.475C17.332 15.2417 16.8654 15.8917 16.282 16.425L14.857 15C15.2737 14.6167 15.6029 14.1667 15.8445 13.65C16.0862 13.1333 16.207 12.5833 16.207 12C16.207 10.9 15.8154 9.95833 15.032 9.175C14.2487 8.39167 13.307 8 12.207 8C11.107 8 10.1654 8.39167 9.38203 9.175C8.5987 9.95833 8.20703 10.9 8.20703 12C8.20703 12.6 8.32786 13.1542 8.56953 13.6625C8.8112 14.1708 9.14036 14.6167 9.55703 15L8.13203 16.425Z" fill="#373737"/>
</g>
</svg>
