<svg width="25" height="24" viewBox="0 0 25 24" fill="none" xmlns="http://www.w3.org/2000/svg">
<mask id="mask0_1438_22477" style="mask-type:alpha" maskUnits="userSpaceOnUse" x="0" y="0" width="25" height="24">
<rect x="0.586914" width="24" height="24" fill="#D9D9D9"/>
</mask>
<g mask="url(#mask0_1438_22477)">
<path d="M13.0869 11.95C13.5702 11.4167 13.9411 10.8083 14.1994 10.125C14.4577 9.44167 14.5869 8.73333 14.5869 8C14.5869 7.26667 14.4577 6.55833 14.1994 5.875C13.9411 5.19167 13.5702 4.58333 13.0869 4.05C14.0869 4.18333 14.9202 4.625 15.5869 5.375C16.2536 6.125 16.5869 7 16.5869 8C16.5869 9 16.2536 9.875 15.5869 10.625C14.9202 11.375 14.0869 11.8167 13.0869 11.95ZM18.5869 20V17C18.5869 16.4 18.4536 15.8292 18.1869 15.2875C17.9202 14.7458 17.5702 14.2667 17.1369 13.85C17.9869 14.15 18.7744 14.5375 19.4994 15.0125C20.2244 15.4875 20.5869 16.15 20.5869 17V20H18.5869ZM20.5869 13V11H18.5869V9H20.5869V7H22.5869V9H24.5869V11H22.5869V13H20.5869ZM8.58691 12C7.48691 12 6.54525 11.6083 5.76191 10.825C4.97858 10.0417 4.58691 9.1 4.58691 8C4.58691 6.9 4.97858 5.95833 5.76191 5.175C6.54525 4.39167 7.48691 4 8.58691 4C9.68691 4 10.6286 4.39167 11.4119 5.175C12.1952 5.95833 12.5869 6.9 12.5869 8C12.5869 9.1 12.1952 10.0417 11.4119 10.825C10.6286 11.6083 9.68691 12 8.58691 12ZM0.586914 20V17.2C0.586914 16.6333 0.732747 16.1125 1.02441 15.6375C1.31608 15.1625 1.70358 14.8 2.18691 14.55C3.22025 14.0333 4.27025 13.6458 5.33691 13.3875C6.40358 13.1292 7.48691 13 8.58691 13C9.68691 13 10.7702 13.1292 11.8369 13.3875C12.9036 13.6458 13.9536 14.0333 14.9869 14.55C15.4702 14.8 15.8577 15.1625 16.1494 15.6375C16.4411 16.1125 16.5869 16.6333 16.5869 17.2V20H0.586914ZM8.58691 10C9.13691 10 9.60775 9.80417 9.99941 9.4125C10.3911 9.02083 10.5869 8.55 10.5869 8C10.5869 7.45 10.3911 6.97917 9.99941 6.5875C9.60775 6.19583 9.13691 6 8.58691 6C8.03691 6 7.56608 6.19583 7.17441 6.5875C6.78275 6.97917 6.58691 7.45 6.58691 8C6.58691 8.55 6.78275 9.02083 7.17441 9.4125C7.56608 9.80417 8.03691 10 8.58691 10ZM2.58691 18H14.5869V17.2C14.5869 17.0167 14.5411 16.85 14.4494 16.7C14.3577 16.55 14.2369 16.4333 14.0869 16.35C13.1869 15.9 12.2786 15.5625 11.3619 15.3375C10.4452 15.1125 9.52025 15 8.58691 15C7.65358 15 6.72858 15.1125 5.81191 15.3375C4.89525 15.5625 3.98691 15.9 3.08691 16.35C2.93691 16.4333 2.81608 16.55 2.72441 16.7C2.63275 16.85 2.58691 17.0167 2.58691 17.2V18Z" fill="#373737"/>
</g>
</svg>
