<svg width="25" height="24" viewBox="0 0 25 24" fill="none" xmlns="http://www.w3.org/2000/svg">
<mask id="mask0_1438_22445" style="mask-type:alpha" maskUnits="userSpaceOnUse" x="0" y="0" width="25" height="24">
<rect x="0.207031" width="24" height="24" fill="#D9D9D9"/>
</mask>
<g mask="url(#mask0_1438_22445)">
<path d="M4.20703 20C3.65703 20 3.1862 19.8042 2.79453 19.4125C2.40286 19.0208 2.20703 18.55 2.20703 18V6C2.20703 5.45 2.40286 4.97917 2.79453 4.5875C3.1862 4.19583 3.65703 4 4.20703 4H20.207C20.757 4 21.2279 4.19583 21.6195 4.5875C22.0112 4.97917 22.207 5.45 22.207 6V18C22.207 18.55 22.0112 19.0208 21.6195 19.4125C21.2279 19.8042 20.757 20 20.207 20H4.20703ZM12.207 13L4.20703 8V18H20.207V8L12.207 13ZM12.207 11L20.207 6H4.20703L12.207 11ZM4.20703 8V6V18V8Z" fill="#373737"/>
</g>
</svg>
