<svg width="1920" height="1080" viewBox="0 0 1920 1080" fill="none" xmlns="http://www.w3.org/2000/svg">
<path d="M928.644 215.924H942.321C942.204 221.154 942.292 226.5 942.584 231.962C942.935 237.366 943.432 242.683 944.075 247.913C944.718 253.085 945.478 257.937 946.355 262.47C947.231 266.944 948.167 270.895 949.16 274.324C950.212 277.752 951.264 280.455 952.317 282.43C953.369 284.348 954.362 285.307 955.298 285.307C956.058 285.307 956.671 284.115 957.139 281.733C957.607 279.292 957.957 275.428 958.191 270.14C959.594 271.651 961.318 273.133 963.364 274.585C965.41 275.98 967.339 277.026 969.151 277.723C968.508 283.476 967.573 287.834 966.345 290.798C965.118 293.82 963.51 295.883 961.523 296.987C959.535 298.091 957.022 298.643 953.983 298.643C950.943 298.643 948.196 297.452 945.741 295.069C943.344 292.745 941.211 289.52 939.34 285.394C937.47 281.268 935.862 276.503 934.518 271.099C933.174 265.695 932.063 259.913 931.186 253.753C930.368 247.535 929.754 241.201 929.345 234.751C928.936 228.301 928.702 222.025 928.644 215.924ZM945.302 222.984L952.93 215.226C954.333 215.866 955.824 216.621 957.402 217.493C959.039 218.364 960.558 219.294 961.961 220.282C963.423 221.212 964.592 222.112 965.468 222.984L957.402 231.439C956.584 230.567 955.502 229.638 954.158 228.65C952.813 227.604 951.352 226.587 949.774 225.599C948.254 224.611 946.764 223.739 945.302 222.984ZM952.317 243.468L965.205 246.431C961.698 257.821 956.964 268.106 951.001 277.288C945.039 286.411 938.113 293.82 930.222 299.515C929.579 298.643 928.644 297.597 927.416 296.377C926.189 295.156 924.903 293.936 923.558 292.716C922.272 291.495 921.132 290.537 920.139 289.839C927.913 285.074 934.489 278.682 939.866 270.663C945.302 262.586 949.452 253.521 952.317 243.468ZM887.523 227.865H967.31V240.33H887.523V227.865ZM887.172 281.384C890.562 280.861 894.449 280.222 898.833 279.467C903.217 278.653 907.805 277.781 912.598 276.852C917.392 275.922 922.097 274.992 926.715 274.062L927.854 286.178C923.529 287.166 919.087 288.154 914.527 289.142C910.027 290.072 905.643 290.972 901.376 291.844C897.109 292.774 893.163 293.645 889.539 294.459L887.172 281.384ZM902.779 255.148V262.295H913.125V255.148H902.779ZM891.205 244.601H925.487V272.842H891.205V244.601Z" fill="#333333"/>
</svg>
