<?xml version="1.0" encoding="UTF-8"?><svg xmlns="http://www.w3.org/2000/svg" viewBox="0 0 270 150"><g isolation="isolate"><g id="_層_1"><g><g><g><polygon points="135.83 59.36 135.83 44.45 125.79 44.45 125.79 38.41 121.89 38.41 121.89 34.53 102.08 34.53 102.08 38.41 102.08 44.45 102.08 54.38 102.08 59.36 102.08 69.29 114.47 69.29 121.89 69.29 125.79 69.29 135.83 69.29 140.87 69.29 140.87 59.36 135.83 59.36" fill="#fff"/><rect x="82.22" y="69.29" width="19.86" height="4.97" fill="#fff"/></g><g><path d="M169.91,89.4c0,.19-.1,.39-.29,.58-.1,.19-.29,.39-.58,.58-.68,.39-1.89,1.07-3.63,2.03-1.84,.97-3.05,1.55-3.63,1.74-.48-.1-.82-.34-1.02-.73-.19-.39-.24-.73-.14-1.02-.1-.87,.05-1.55,.44-2.03,.39-.39,1.02-.58,1.89-.58,.58-.1,1.35-.24,2.32-.44,.97-.19,1.74-.34,2.32-.43l1.74-.58c.19,0,.34,.05,.44,.15,.1,.19,.14,.44,.14,.73Zm.29-3.78c-.1,.39-.39,.68-.87,.87-.48,.19-.87,.29-1.16,.29l-5.81-.29c-.39,0-.73-.1-1.02-.29-.29-.1-.44-.29-.44-.58,0-.68,.39-1.21,1.16-1.6,.68-.48,1.35-.73,2.03-.73s1.35,.15,2.03,.44c.58,.29,1.26,.53,2.03,.73,.29,0,.58,.05,.87,.14,.29,.1,.58,.24,.87,.44,0,.1,.05,.19,.15,.29l.15,.29Zm13.94,10.75c0,1.36-.05,3.19-.15,5.52-.1,2.32-.82,3.78-2.18,4.36-.78,.1-1.5,.1-2.18,0h-5.95c-.48,1.16-1.55,2.23-3.19,3.19-1.65,.87-3.1,1.35-4.36,1.45-.48-.1-.97-.24-1.45-.44-.39-.29-.58-.63-.58-1.02,.1-.77,.97-1.4,2.61-1.89,1.55-.58,2.81-.92,3.78-1.02l-2.32,.29c-1.26-.29-2.03-1.45-2.32-3.48-.29-2.03-.39-3.49-.29-4.36-.1-.77-.1-1.6,0-2.47,0-.87,.29-1.6,.87-2.18,.77-.29,2.86-.48,6.24-.58,3.29-.1,5.66-.1,7.12,0,.87-.1,1.79,.05,2.76,.44,.97,.29,1.5,1.02,1.6,2.18Zm-3.19,.87c-.1-.58-.44-.92-1.02-1.02-.68-.19-1.31-.24-1.89-.15-1.07-.1-2.76-.1-5.08,0-2.32,.1-3.73,.29-4.21,.58l-.29,.29v.29c1.26,.1,2.52,.14,3.78,.14,1.26,.1,2.52,.15,3.78,.15l4.94-.29Zm0,3.19v-.87c-1.36-.1-2.76-.15-4.21-.15-1.36-.1-2.76-.14-4.21-.14l-4.07,.29v.87c1.16,.1,2.32,.1,3.49,0h9Zm0,2.03l-4.07-.29h-2.9l-5.23,.29c.1,.48,.24,.82,.44,1.02,.29,.1,.73,.14,1.31,.14,1.35-.1,2.81-.14,4.36-.14,1.45-.1,3-.15,4.65-.15,.29,0,.53-.05,.73-.15,.29-.1,.53-.34,.73-.73Zm12.78-9c-.19,.77-.92,1.5-2.18,2.18-1.36,.77-2.37,1.21-3.05,1.31-1.35-.29-3.05-1.31-5.08-3.05-2.03-1.74-3.82-2.76-5.37-3.05v.29c-.77,.58-1.6,1.16-2.47,1.74-.87,.48-1.79,.77-2.76,.87-.48-.1-.97-.29-1.45-.58-.39-.39-.58-.77-.58-1.16,.1-.77,.77-1.31,2.03-1.6,1.26-.29,2.23-.53,2.9-.73,1.06-.58,1.69-1.31,1.89-2.18,.19-.87,.53-1.31,1.02-1.31,.68,0,1.07,.29,1.16,.87,.1,.58,.1,1.16,0,1.74,1.74,1.36,3.78,2.37,6.1,3.05,2.23,.68,4.55,1.02,6.97,1.02,.1,0,.24,.05,.44,.14,.19,.1,.34,.24,.44,.44Zm-6.39-7.55c-.19,.58-.87,1.36-2.03,2.32-1.26,.87-2.13,1.36-2.61,1.45l-.58-.29v-.29c.29-.48,.58-.92,.87-1.31,.29-.39,.48-.82,.58-1.31-.19-.29-.78-.48-1.74-.58-.97-.1-1.65-.1-2.03,0-1.84,.1-3.29,.58-4.36,1.45-1.07,.78-2.03,1.26-2.9,1.45-.19,0-.39-.05-.58-.14-.19-.1-.29-.24-.29-.44,0-.48,.39-1.07,1.16-1.74,.68-.77,1.16-1.36,1.45-1.74,.1-.29,.19-.58,.29-.87,0-.29,.1-.58,.29-.87,0-.39,.05-.68,.15-.87,.19-.19,.44-.29,.73-.29,.39,0,.73,.15,1.02,.44,.29,.29,.53,.63,.73,1.02,1.26,0,3.15,.05,5.66,.15,2.52,.1,3.92,.92,4.21,2.47Zm-1.74,23.23c-.1,.39-.29,.77-.58,1.16-.39,.29-.77,.48-1.16,.58-.78-.1-1.89-.58-3.34-1.45-1.55-.77-2.37-1.55-2.47-2.32,0-.19,.05-.34,.15-.44,.1-.1,.24-.15,.44-.15,.29,0,.73,.15,1.31,.44,.48,.19,.92,.34,1.31,.44,.77,0,1.65,.05,2.61,.15,1.06,.1,1.65,.63,1.74,1.6Z" fill="#231815"/><path d="M210.23,89.02c-.21,.92-.87,1.43-1.99,1.53h-2.91l-3.98,.31c-.61,0-1.23,.1-1.84,.31-.51,.1-1.12,.21-1.84,.31-.51-.1-.92-.25-1.23-.46-.21-.31-.31-.66-.31-1.07,0-.71,.36-1.33,1.07-1.84,.61-.61,1.28-.92,1.99-.92,.61,0,1.17,.05,1.69,.15,.61,0,1.17,.05,1.69,.15h5.52c.41-.1,.87,0,1.38,.31,.41,.21,.66,.61,.77,1.23Zm23.3,18.39c-.51,.71-1.18,1.28-1.99,1.69-.82,.41-1.69,.66-2.61,.77-1.53-.2-2.76-.97-3.68-2.3-.92-1.43-1.63-2.81-2.14-4.14-.72,.61-1.48,1.48-2.3,2.6-.82,1.02-1.69,1.69-2.6,1.99v-.61c-.1-.92,.36-1.99,1.38-3.22,1.02-1.23,1.79-2.3,2.3-3.22-.51-1.33-.97-2.71-1.38-4.14-.41-1.43-.66-2.81-.77-4.14h-1.53c-.61-.1-1.23-.1-1.84,0-.61,.1-1.22,.31-1.84,.61l-.31,.61v2.76h.31c.82-.1,1.94-.05,3.37,.15,1.43,.2,2.25,.77,2.45,1.69-.1,1.02-.56,2.35-1.38,3.98-.92,1.63-1.89,2.55-2.91,2.76-.21-.1-.41-.15-.61-.15-.3-.1-.51-.15-.61-.15,.1-1.02,.51-1.89,1.23-2.61,.71-.61,1.12-1.48,1.23-2.61l-.61-.92h-1.23c-.2,0-.41,.05-.61,.15-.31,0-.51,.05-.61,.15-.1,1.23-.51,2.71-1.23,4.44-.72,1.74-1.74,2.71-3.06,2.91-.41-.1-.72-.31-.92-.61-.2-.31-.31-.61-.31-.92-.51,1.94-1.02,3.32-1.53,4.14-.51,.92-1.74,1.38-3.68,1.38-2.66,0-4.24-.51-4.75-1.53-.51-.92-.66-2.66-.46-5.21,.1-1.33,.71-1.94,1.84-1.84,1.12,0,2.15,.1,3.06,.31,1.02-.1,1.99-.1,2.91,0,.92,0,1.79,.41,2.6,1.23v.92c1.12-1.53,1.94-2.61,2.45-3.22,.41-.61,.61-1.99,.61-4.14-.1-.82-.21-1.53-.31-2.15-.21-.71-.31-1.43-.31-2.14,.1-1.94,1.17-2.91,3.22-2.91,1.94-.1,3.63-.05,5.06,.15l-.31-4.9c-.1-.51-.05-1.02,.15-1.53,.2-.41,.56-.61,1.07-.61,1.33,.1,1.94,.82,1.84,2.15-.1,1.33-.1,2.45,0,3.37v1.53h2.45c.51-.2,1.38-.26,2.61-.15,1.12,.1,1.79,.56,1.99,1.38-.21,.92-1.17,1.43-2.91,1.53h-3.83c.1,.71,.31,1.48,.61,2.3,.2,.71,.51,1.48,.92,2.3,.1-.41,.26-.87,.46-1.38,.2-.51,.56-.77,1.07-.77,.61,0,1.12,.26,1.53,.77,.31,.61,.51,1.17,.61,1.68-.1,.41-.41,.87-.92,1.38-.51,.51-.92,.97-1.23,1.38,1.43,2.04,2.76,3.42,3.98,4.14,1.23,.72,2.55,1.69,3.98,2.91Zm-25.13-13.49c0,.1-.05,.2-.15,.31l-.15,.31c-.21,.2-.51,.36-.92,.46-.31,.1-.61,.15-.92,.15h-3.07c-.51,.1-1.02,.21-1.53,.31-.61,.1-1.12,.2-1.53,.31-.51-.1-.97-.25-1.38-.46-.31-.31-.46-.66-.46-1.07,0-.82,.41-1.28,1.23-1.38,.71-.21,1.43-.26,2.15-.15,.82-.1,2.09-.15,3.83-.15s2.71,.46,2.91,1.38Zm-.31,4.6v.61c-.21,.2-.51,.36-.92,.46-.31,.1-.61,.15-.92,.15h-3.07c-.61,0-1.17,.05-1.68,.15-.51,0-.97,.05-1.38,.15-.51,0-.97-.1-1.38-.31-.31-.2-.46-.51-.46-.92,0-.92,.51-1.48,1.53-1.69,.92-.2,1.74-.25,2.45-.15,.61-.1,1.69-.1,3.22,0,1.53,.1,2.4,.61,2.61,1.53Zm.31-14.41c0,.31-.1,.56-.31,.77-.1,.31-.31,.56-.61,.77h-1.53l-3.68,.31-.92,.31c-.51,0-.97-.1-1.38-.31-.31-.2-.46-.51-.46-.92,0-.82,.36-1.48,1.07-1.99,.61-.51,1.28-.77,1.99-.77,.61,0,1.17,.1,1.69,.31,.61,.1,1.17,.21,1.69,.31,.31-.1,.66-.1,1.07,0,.51,.1,.87,.31,1.07,.61,.1,.1,.15,.2,.15,.31,.1,.1,.15,.2,.15,.31Zm-3.06,20.84c-.1-.31-.51-.51-1.23-.61-.61-.1-1.02-.1-1.23,0h-.92c-.31-.1-.56-.1-.77,0-.1,.1-.15,.31-.15,.61v.61c-.1,.31-.1,.66,0,1.07,.1,.41,.41,.66,.92,.77l2.76-.31c.41-1.23,.61-1.94,.61-2.15Zm22.07-18.08c-.1,.72-.36,1.17-.77,1.38-.51,.1-.97,.25-1.38,.46l-1.23,.61c-.21,0-.36-.1-.46-.31-.1-.1-.15-.31-.15-.61,0-.41,.1-.77,.31-1.07,.2-.41,.41-.77,.61-1.07,.1-.41,.25-.71,.46-.92,.21-.31,.46-.51,.77-.61h.31c.41,0,.77,.2,1.07,.61,.2,.51,.36,1.02,.46,1.53Z" fill="#231815"/></g><g><path d="M106.44,87.99c-3.43,.55-5.19,3.09-5.19,7.55s2.34,7.49,5.92,7.49c1.67,0,3.18-.55,6.37-2.12v3.63c-3.82,1.75-6.07,2.3-9.15,2.3-3.33,0-5.68-.89-7.6-2.84-1.96-1.96-2.95-4.56-2.95-7.45,0-6.43,4.76-10.77,11.7-10.77,4.61,0,7.79,2.11,7.79,5.2,0,1.99-1.48,3.37-3.67,3.37-1.12,0-2.05-.29-3.23-.98v-5.39Z" fill="#231815"/><path d="M89.5,96.56c3.08-3.88,4.16-5.44,4.16-7.35s-1.51-3.42-3.52-3.42c-1.24,0-2.35,.58-2.9,1.19v7.9l-5.04,6.72v-15.32h-4.79l-7.97,13.21v-13.21h-2.75l-7.23,1.76v1.85l3.95,.4v16.2h5.1l7.64-12.56v12.56h5.59l7.77-9.94Z" fill="#231815"/><path d="M44.23,104.01c.54,.03,.78,.03,1.12,.03,4.11,0,6.31-2.56,6.31-7.47,0-4.16-1.8-6.37-5.13-6.37-.55,0-1.13,.07-2.31,.21v13.6Zm0,8.85l3.31,.74v1.88h-12.97v-1.88l2.96-.74v-22.67h-3.29v-1.94l7.94-2.41h2.06v2.71c3.72-2.21,4.99-2.6,6.9-2.6,4.4,0,7.65,4.06,7.65,9.68,0,6.5-4.34,10.87-11.17,10.87-.77,0-2.06-.05-3.38-.2v6.56Z" fill="#231815"/></g><rect x="102.08" y="59.36" width="38.79" height="9.93" fill="#e85d97" mix-blend-mode="multiply"/><rect x="102.08" y="38.41" width="23.7" height="30.88" fill="#f6b980" mix-blend-mode="multiply"/><rect x="102.08" y="34.53" width="19.81" height="34.76" fill="#f29712" mix-blend-mode="multiply"/><rect x="102.08" y="44.45" width="33.75" height="24.83" fill="#f9be00" mix-blend-mode="multiply"/><rect x="102.08" y="54.38" width="12.39" height="14.91" fill="#d1b191" mix-blend-mode="multiply"/><rect x="82.22" y="69.29" width="19.86" height="4.97" fill="#c62218"/></g><rect x="26.58" y="28.32" width="214.59" height="93.35" fill="none"/></g></g></g></svg>