<?xml version="1.0" encoding="UTF-8"?><svg id="_層_1" xmlns="http://www.w3.org/2000/svg" viewBox="0 0 320 150"><path d="M46.36,95.13c-.67,1.34-1.49,2.68-2.33,4v15.61h-2.54v-12.05c-.85,1.11-1.72,2.1-2.57,2.92-.29-.58-1.08-1.87-1.55-2.48,2.39-2.22,4.93-5.6,6.53-8.87l2.45,.87Zm-.49-6.15c-1.87,2.57-4.64,5.6-7,7.61-.26-.61-.9-1.66-1.28-2.22,2.01-1.69,4.55-4.38,5.8-6.42l2.48,1.02Zm-1.2,23.51c1.05-1.37,1.93-3.59,2.45-5.4l2.04,.82c-.53,1.87-1.31,4.2-2.45,5.75l-2.04-1.17Zm19.81-7.06h-9.36c.73,1.11,1.57,2.6,2.01,3.47l-2.1,.82c-.44-.93-1.26-2.51-1.98-3.62l1.87-.67h-9.01v-2.19h18.58v2.19h0Zm-11.23-11.26c.12-.55,.2-1.17,.29-1.81h-7.32v-2.19h7.56c.09-.82,.15-1.63,.18-2.3l2.86,.09-.32,2.22h7.85v2.19h-8.2c-.09,.67-.2,1.26-.29,1.81h7.5v7.44h-15.96v-7.44h5.86Zm-1.22,2.01h-2.51v3.41h2.51v-3.41Zm5.05,16.05c.88,0,1.02-.32,1.14-2.6,.49,.35,1.46,.7,2.13,.85-.26,3.09-.93,3.85-3,3.85h-4c-2.65,0-3.3-.67-3.3-2.83v-4.03h2.36v4c0,.67,.2,.76,1.22,.76h3.45Zm-.52-16.05h-2.6v3.41h2.6v-3.41Zm1.93,3.41h2.65v-3.41h-2.65v3.41Zm3.15,7.26c1.2,1.72,2.51,4,3.03,5.51l-2.16,.96c-.47-1.52-1.66-3.85-2.89-5.6l2.02-.88Zm38.77-8.25c-1.05,3.65-2.45,6.97-4.29,9.86,.7,2.13,1.57,3.36,2.63,3.36,.67,0,.96-1.26,1.11-4.46,.55,.58,1.46,1.14,2.1,1.43-.41,4.44-1.26,5.66-3.44,5.66-1.81,0-3.18-1.26-4.23-3.44-1.14,1.43-2.42,2.68-3.82,3.73-.44-.67-1.26-1.52-1.93-2.01,.32-.23,.64-.47,.96-.73h-4.84v2.74h-2.39v-2.74h-6.45v-2.01h6.45v-1.4h-5.22v-7.03h5.19v-1.37h-6.04v-1.98h6.04v-1.57h2.45v1.57h5.92v1.98h-5.92v1.37h5.08v7.03h-5.11v1.4h6.01v1.02c.93-.88,1.78-1.84,2.57-2.95-.88-3.09-1.34-7.17-1.61-11.7h-16.16v-2.16h6.68v-1.95h-5.25v-2.13h5.25v-2.16h2.6v2.16h4.93v2.13h-4.93v1.95h6.77c-.09-2.01-.12-4.11-.12-6.24h2.71c-.03,2.16,0,4.26,.06,6.24h7.35v2.16h-7.23c.18,3.24,.53,6.13,.93,8.55,1.2-2.16,2.1-4.49,2.77-7l2.42,.7Zm-21.38,5.75h3.38v-1.37h-3.38v1.37Zm0,2.77h3.38v-1.37h-3.38v1.37Zm8.66-4.14h-3.21v1.37h3.21v-1.37Zm0,2.77h-3.21v1.37h3.21v-1.37Zm11.2-12.05c-.73-1.14-2.33-2.92-3.71-4.17l2.01-1.28c1.4,1.17,3.06,2.89,3.79,4.05l-2.1,1.4Zm39.64-4.49v25.58h-2.68v-1.28h-19.08v1.28h-2.57v-25.58h24.33Zm-2.68,21.85v-19.4h-19.08v19.4h19.08Zm-2.16-12.46c-.7,2.65-1.78,4.96-3.12,6.91,.49,1.26,1.14,2.04,1.9,2.19,.35,.12,.61-1.08,.79-2.89,.44,.44,1.26,1.02,1.72,1.28-.41,3.32-1.63,4.46-3.32,3.79-1.08-.29-1.95-1.14-2.65-2.42-1.02,1.11-2.19,2.1-3.47,2.92-.29-.41-1.08-1.28-1.52-1.66,.79-.47,1.55-.99,2.25-1.57-2.86,.47-5.8,1.02-8.14,1.43l-.29-2.04c2.13-.29,5.31-.79,8.46-1.28l.06,1.81c.64-.55,1.22-1.17,1.75-1.84-.7-2.22-1.14-5.05-1.43-8.14h-8.55v-2.01h8.37c-.06-.93-.12-1.87-.18-2.8h2.25c.03,.93,.09,1.9,.15,2.8h4.11c-.58-.67-1.84-1.49-2.89-2.01l1.26-1.26c1.05,.49,2.33,1.28,2.98,1.93l-1.28,1.34h1.78v2.01h-5.78c.2,2.1,.49,4.08,.85,5.72,.79-1.4,1.37-2.95,1.81-4.64l2.15,.43Zm-8.23,.03v5.6h-6.45v-5.6h6.45Zm-1.89,1.55h-2.74v2.51h2.74v-2.51Zm36.14-10.24c-.79,2.42-1.75,5.31-2.6,7.64,1.84,2.33,2.28,4.44,2.28,6.15s-.35,2.92-1.17,3.56c-.41,.29-.9,.47-1.52,.55-.49,.06-1.2,.09-1.84,.03-.03-.61-.23-1.63-.58-2.25,.55,.03,1.02,.06,1.43,.03,.32-.03,.58-.09,.82-.26,.38-.29,.55-1.05,.55-1.93,0-1.49-.44-3.44-2.25-5.63,.7-1.95,1.4-4.38,1.9-6.3h-3v23.07h-2.33v-25.52h6.24l.35-.09,1.72,.94Zm3.38,7.7c.38-.49,.7-1.02,1.02-1.57-.61-.61-1.49-1.4-2.3-2.04-.64,.85-1.28,1.57-1.98,2.25-.35-.38-1.2-1.05-1.69-1.37,1.98-1.66,3.59-4.23,4.46-6.94l2.1,.47c-.2,.58-.44,1.14-.67,1.69h2.65l.38-.09,1.4,.49-.15,.61,1.43-.35v-1.31h5.05l.47-.12,1.52,.88c-.85,2.39-2.25,4.96-3.71,6.68,1.17,1.72,2.63,3.18,4.26,4.08-.55,.44-1.28,1.28-1.57,1.9-1.26-.79-2.39-1.87-3.38-3.09v1.72h-8.72v-1.26c-.96,1.02-1.98,1.93-3.03,2.6-.29-.53-.93-1.26-1.4-1.66,1.28-.73,2.51-1.84,3.59-3.18-1.34,.23-2.51,.44-3.73,.61l-.29-1.72c1.22-.12,2.6-.29,4.26-.47l.05,1.19Zm1.81,10.56c-1.11,1.81-2.74,3.97-4,5.31-.53-.41-1.55-1.08-2.16-1.4,1.31-1.26,2.77-3.12,3.71-4.73l2.45,.82Zm4.49-2.07v8.52h-2.57v-8.52h-5.95v-2.22h14.44v2.22h-5.92Zm-6.3-14.18c-.12,.2-.23,.41-.35,.61,.76,.53,1.57,1.22,2.28,1.81,.35-.76,.64-1.61,.9-2.42h-2.83Zm8.93,7.41c-1.63-2.22-2.92-4.96-3.76-7.94-.85,3.15-2.19,5.8-3.85,7.94h7.61Zm-1.6-7.99c.41,1.22,.88,2.42,1.46,3.56,.73-1.05,1.4-2.36,1.93-3.56h-3.38Zm2.74,15.75c1.34,1.49,3.21,3.59,4.08,4.81l-2.07,1.37c-.85-1.26-2.63-3.44-4-4.99l1.98-1.2Zm30.1-14.44c-.61,.99-1.22,2.01-1.93,3v18.99h-2.95v-15.31c-2.8,3.12-6.19,5.89-9.95,7.88-.44-.73-1.28-1.84-1.87-2.42,5.54-2.71,10.33-7.38,13.13-12.14h-12.31v-2.77h24.97v2.77h-9.1Zm.23,4.44c3.27,2.19,7.7,5.48,9.83,7.73l-2.28,2.1c-1.95-2.25-6.27-5.72-9.6-8.08l2.04-1.75Zm45.33-2.54s-.03,.93-.03,1.26c-.32,12.05-.58,16.19-1.52,17.44-.55,.88-1.17,1.11-2.07,1.26-.88,.12-2.22,.12-3.59,.03-.06-.73-.35-1.84-.76-2.57,1.34,.12,2.54,.12,3.06,.12,.49,0,.76-.09,1.05-.47,.64-.82,.93-4.52,1.17-14.56h-3.44c-.38,7.76-1.69,13.94-6.71,17.8-.41-.61-1.31-1.57-1.95-2.01,.18-.12,.35-.26,.53-.41-4.2,.49-8.4,.93-11.52,1.22l-.35-2.3c1.69-.12,3.79-.29,6.1-.49v-2.22h-5.31v-1.98h5.31v-1.49h-5.22v-8.78h5.22v-1.52h-6.01v-2.01h6.01v-1.63c-1.78,.15-3.56,.23-5.19,.29-.09-.55-.38-1.43-.64-1.95,4.32-.23,9.48-.76,12.51-1.43l1.28,2.04c-1.55,.32-3.47,.61-5.48,.82v1.87h5.89v1.69h3.06c.03-1.98,.03-4.05,.03-6.24h2.6c0,2.16-.03,4.26-.06,6.24h6.04Zm-23.04,5.39h3v-1.78h-3v1.78Zm3,3.44v-1.78h-3v1.78h3Zm2.48,7.23c1.81-.18,3.68-.35,5.51-.55,2.39-3.3,3.12-7.7,3.36-13.01h-3.09v-2.19h-5.78v1.52h5.42v8.78h-5.42v1.49h5.48v1.98h-5.48v1.98Zm3.12-10.68v-1.78h-3.12v1.78h3.12Zm-3.12,1.66v1.78h3.12v-1.78h-3.12Zm53.73,10.01v2.22h-21.38v-2.22h9.16v-2.39h-6.48v-2.13h6.48v-2.13h-5.48c-.85,1.43-1.84,2.74-2.89,3.71-.2-.49-.88-1.84-1.31-2.39-.26,3-1.02,6.33-3.03,8.69-.41-.49-1.55-1.46-2.07-1.72,2.33-2.8,2.6-6.74,2.6-9.68v-5.66h3.73c-.38-.41-.85-.9-1.2-1.17,2.22-.38,4.75-.93,7.15-1.52-2.1-.58-4.2-1.11-6.13-1.52l1.49-1.14h-4.81v-2.13h10.39c-.41-.67-.88-1.34-1.34-1.9l1.9-.9c.73,.82,1.57,1.93,2.04,2.8h9.89v2.13h-4.35l1.28,.82c-1.2,.58-2.6,1.17-4.11,1.72,1.95,.55,3.76,1.14,5.19,1.63l-1.34,1.17h4.23v2.22h-21.38v3.47c0,.85-.03,1.75-.12,2.68,1.55-1.46,2.92-3.56,3.71-5.78l2.33,.67c-.2,.55-.44,1.08-.7,1.63h4.35v-2.16h2.68v2.16h7.56v2.16h-7.56v2.13h6.8v2.13h-6.8v2.39h9.54Zm-5.92-13.71c-1.55-.55-3.53-1.17-5.63-1.81-2.39,.73-4.84,1.31-7.12,1.81h12.75Zm-12.14-5.34c2.13,.49,4.44,1.08,6.65,1.69,1.72-.53,3.27-1.08,4.49-1.69h-11.14ZM39.12,72.34v-30.93h0v-5.77h29.9v6.22h-23.04v10.08h20.57v6.21h-20.57v14.2h-6.86Zm204.85-28.52v19.7c0,5.37-3.47,8.82-8.82,8.82h-13.63c-5.35,0-8.82-3.45-8.82-8.82v-19.7c0-5.37,3.47-8.82,8.82-8.82h13.63c5.35,0,8.82,3.45,8.82,8.82Zm-6.04,2.22c0-2.96-1.4-4.74-4.71-4.74h-9.78c-3.3,0-4.71,1.78-4.71,4.74v15.24c0,2.96,1.41,4.74,4.71,4.74h9.78c3.3,0,4.71-1.78,4.71-4.74v-15.24Zm47.08-2.22v19.7c0,5.37-3.47,8.82-8.82,8.82h-13.63c-5.35,0-8.82-3.45-8.82-8.82v-19.7c0-5.37,3.47-8.82,8.82-8.82h13.63c5.35,0,8.82,3.45,8.82,8.82Zm-6.04,2.22c0-2.96-1.4-4.74-4.71-4.74h-9.78c-3.3,0-4.71,1.78-4.71,4.74v15.24c0,2.96,1.41,4.74,4.71,4.74h9.78c3.3,0,4.71-1.78,4.71-4.74v-15.24Zm-99.9,25.66l-14.53-36.06h-7.6l14.46,36.06h7.67Zm17.72,0l-14.53-36.06h-7.6l14.46,36.06h7.67ZM84.7,35.64v25.58c0,2.96,1.4,4.74,4.71,4.74h8.21c3.3,0,4.71-1.78,4.71-4.74v-25.58h6.53v27.88c0,5.37-3.47,8.82-8.82,8.82h-13.05c-5.35,0-8.82-3.45-8.82-8.82v-27.88h6.53Zm58.66,36.06v-25.58c0-2.96-1.4-4.74-4.71-4.74h-8.21c-3.3,0-4.71,1.78-4.71,4.74v25.58h-6.53v-27.88c0-5.37,3.47-8.82,8.82-8.82h13.05c5.35,0,8.82,3.45,8.82,8.82v27.88h-6.53Zm56.39-17.53l3.94-9.14v-9.4h-9.39v9.4h4.71v9.14h.74Z"/></svg>