<?xml version="1.0" encoding="UTF-8"?><svg id="_層_1" xmlns="http://www.w3.org/2000/svg" viewBox="0 0 320 150"><path d="M77.37,35c-6.1,0-11.88,1.36-17.06,3.8h34.11c-5.17-2.44-10.95-3.8-17.05-3.8Zm-12.8,7.62h-10.69c-1.6,1.15-3.1,2.43-4.5,3.81h9.81c1.64-1.45,3.45-2.73,5.39-3.81Zm20.48,11.43h26.39c-.81-1.32-1.7-2.59-2.66-3.81h-23.73v3.81Zm-29.51-3.81h-9.59c-.96,1.22-1.86,2.49-2.67,3.81h9.66c.77-1.33,1.64-2.61,2.6-3.81Zm29.51-3.81h20.31c-1.41-1.38-2.91-2.65-4.51-3.81h-15.8v3.81Zm32.32,28.58c0-.63-.02-1.27-.05-1.9h-13.8c-.54-1.32-1.17-2.59-1.87-3.81h15.31c-.18-1.29-.43-2.56-.73-3.81h-17.19c-1.1-1.38-2.33-2.64-3.65-3.81h19.71c-.46-1.31-.99-2.58-1.57-3.81h-43.87v19.05h15.4v19.05H43.29c.82,1.32,1.71,2.59,2.67,3.8h23.67v3.82h-20.25c1.4,1.38,2.91,2.65,4.51,3.8h15.74v3.82h-9.32c5.18,2.45,10.96,3.81,17.06,3.81s11.88-1.36,17.05-3.81h-4.3c1.93-1.08,3.72-2.35,5.36-3.82h5.37c1.59-1.14,3.1-2.42,4.51-3.8h-6.26c.96-1.2,1.82-2.47,2.6-3.82h7.08c.96-1.21,1.86-2.48,2.67-3.8h-7.9c.5-1.24,.92-2.51,1.25-3.81h8.72c.58-1.25,1.11-2.51,1.57-3.82h-9.57c.15-1.24,.23-2.49,.23-3.77v-.04h10.47c.3-1.25,.55-2.52,.73-3.81h-11.45c-.17-1.3-.41-2.57-.73-3.81h12.54c.03-.64,.05-1.28,.05-1.91Zm-61.83,13.33h-15.9c.47,1.31,.98,2.57,1.57,3.82h17.97c-1.32-1.17-2.54-2.45-3.64-3.82Zm-4.46-7.61h-13.3c.18,1.29,.42,2.56,.73,3.81h14.43c-.71-1.23-1.34-2.5-1.86-3.81Zm-2.21-11.43c0-1.29,.08-2.56,.24-3.81h-10.59c-.31,1.25-.55,2.52-.73,3.81h11.08Zm2.21-11.43h-9.86c-.59,1.23-1.1,2.5-1.57,3.81h10.18c.33-1.31,.75-2.58,1.25-3.81Zm-1.98,15.24h-11.69c-.03,.63-.04,1.27-.04,1.9s.02,1.27,.04,1.91h12.42c-.33-1.24-.57-2.52-.73-3.81Z" fill="#004a98"/><path d="M148.29,99.91c-.85,.51-2.09,1.04-4.45,1.04-3.85,0-6.49-2.99-6.49-6.54s2.63-6.59,6.49-6.59c2.53,0,3.71,.63,4.26,.96l-.62,1.52c-.42-.2-1.48-.78-3.47-.78-2.25,0-4.32,2.05-4.32,4.9s2.1,4.85,4.44,4.85c1.97,0,2.86-.49,3.47-.79l.69,1.44Zm7.05,.81v-5.53c0-.83-.34-1.44-1.35-1.44-.91,0-1.74,.56-2.1,.82v6.15h-2.03v-12.09l2.03-.55v5.17c.38-.32,1.21-1.06,3-1.06,1.64,0,2.48,1.05,2.48,2.56v5.98h-2.03Zm38.49,0v-5.53c0-.83-.34-1.44-1.35-1.44-.91,0-1.73,.56-2.1,.82v6.15h-2.03v-12.09l2.03-.55v5.17c.37-.32,1.21-1.06,2.99-1.06,1.64,0,2.48,1.05,2.48,2.56v5.98h-2.02Zm-19.29,0v-5.53c0-.83-.34-1.44-1.34-1.44s-1.74,.56-2.12,.82v6.15h-2.02v-7.83l1.94-.52,.06,.87c.38-.31,1.28-1.06,2.97-1.06s2.55,1.03,2.55,2.56v5.98h-2.03Zm6.86-3.17c-.51,0-1.44,.15-1.44,.83,0,.74,.88,.81,1.43,.81h2.38c1.82,0,3.15,1.07,2.94,2.9-.23,1.88-2.37,3.17-4.35,3.17-2.16,0-4.55-.52-4.55-2.38,0-1.27,.98-1.96,1.51-2.23-.38-.22-1.04-.69-1.04-1.82,0-1,.76-1.86,1.48-2.1-.44-.27-1.02-.82-1.02-1.88,0-1.25,1.04-2.67,3.14-2.67,.9,0,1.34,.12,1.65,.19h3.22v1.07h-1.8c.17,.17,.58,.68,.58,1.41,0,1.77-1.61,2.69-3.29,2.69h-.83Zm-1.89,5.11c.04,.94,1.5,1.29,2.67,1.29,1.31,0,2.57-.79,2.69-1.67,.15-.96-.53-1.38-1.36-1.38h-2.72c-.43,.26-1.31,.93-1.28,1.76Zm1.08-7.78c0,.8,.55,1.43,1.52,1.43s1.51-.63,1.51-1.43c0-.71-.46-1.48-1.51-1.48-.97,0-1.52,.78-1.52,1.48Zm20.8-2.5h1.88l1.82,5.47,1.89-5.47h1.71l-3.24,8.48h-1.1l-1.5-4.28-1.64,4.28h-1.1l-2.99-8.48h1.96l1.88,5.64,1.27-3.29-.82-2.36Zm10.42,8.53c-1.59,0-2.57-.93-2.57-2.32s1.13-2.69,3.24-2.8l1.76-.08v-.7c0-.73-.25-1.48-1.53-1.48-1.15,0-1.94,.38-2.34,.55l-.47-1.08c.51-.24,1.69-.81,3.41-.81,1.91,0,2.93,1,2.93,2.46v4.76c.02,.44,.17,1.06,.3,1.32h-2.12c-.12-.24-.19-.56-.17-.74-.44,.32-1.25,.93-2.45,.93Zm2.43-4.02l-1.17,.09c-1.1,.1-1.95,.49-1.95,1.41,0,.83,.67,1.12,1.4,1.12s1.35-.46,1.73-.72v-1.9Zm-52.69-4.5v5.52c0,.83,.28,1.43,1.26,1.43,.92,0,1.66-.55,2.02-.81v-6.14h2.02v7.81l-1.93,.53-.06-.88c-.38,.3-1.36,1.06-2.93,1.06s-2.42-1-2.42-2.56v-5.97h2.04Zm57.61-4.3h10.24v1.63h-4.01v11.02h-2.18v-11.02h-4.04v-1.63Zm13.08,11.44c1.31,0,1.92-.26,2.3-.43l.46,1.12c-.5,.22-1.3,.7-3.35,.7-2.57,0-4.19-1.61-4.19-4.29s1.77-4.43,4.04-4.43c2.04,0,3.83,1.37,3.83,4.56h-5.71c0,1.71,.88,2.77,2.64,2.77Zm-.82-5.96c-1.1,0-1.65,.86-1.78,1.94h3.51c-.1-1.25-.73-1.94-1.73-1.94Zm5.57-4.93l2.05-.55v12.65h-2.05v-12.1Zm8.6,10.89c1.31,0,1.92-.26,2.3-.43l.45,1.12c-.5,.22-1.3,.7-3.35,.7-2.56,0-4.19-1.61-4.19-4.29s1.78-4.43,4.05-4.43c2.03,0,3.81,1.37,3.81,4.56h-5.7c0,1.71,.88,2.77,2.64,2.77Zm-.82-5.96c-1.1,0-1.64,.86-1.78,1.94h3.51c-.11-1.25-.71-1.94-1.73-1.94Zm9.55-1.37c1.63,0,2.39,.32,2.84,.52l-.43,1.26c-.44-.17-.97-.39-2.14-.39-1.1,0-2.52,.98-2.52,2.98,0,1.87,1.42,2.97,2.52,2.97,1.17,0,1.72-.22,2.18-.38l.48,1.23c-.44,.24-1.23,.54-2.94,.54-2.69,0-4.42-1.78-4.42-4.36s2.15-4.36,4.44-4.36Zm12.67,4.36c0,2.67-1.98,4.36-4.55,4.36s-4.53-1.69-4.53-4.36,1.99-4.36,4.53-4.36,4.55,1.68,4.55,4.36Zm-6.9,0c0,1.72,.93,3,2.35,3,1.31,0,2.33-1.28,2.33-3s-1.02-3.02-2.33-3.02c-1.54,0-2.35,1.27-2.35,3.02Zm20.7,4.17h-2.03v-5.53c0-.83-.32-1.46-1.24-1.46-.74,0-1.4,.51-1.75,.79v6.2h-2.01v-5.53c0-.83-.27-1.46-1.22-1.46-.69,0-1.4,.53-1.76,.8v6.18h-2.03v-7.83l1.92-.52,.07,.89c.4-.36,1.35-1.08,2.6-1.08,1.13,0,1.74,.4,2.15,1.12,.43-.4,1.37-1.12,2.81-1.12,1.68,0,2.49,1.08,2.49,2.52v6.01Z" fill="#231815"/><g><path d="M257.55,50.04c.45,.1,.74,.36,.9,.58,.21,.3,.29,.76,.2,1.23-.52,2.5-1.11,4.68-1.78,6.4v20.06c0,.47-.15,.85-.44,1.14-.27,.27-.62,.41-1.04,.44-.4,0-.75-.14-1.05-.41-.27-.29-.41-.68-.41-1.17v-14.44c-.73,1.06-1.2,1.19-1.54,1.24-.3,.04-.73-.03-1.03-.3-.29-.24-.51-.65-.53-.98-.02-.33,.14-.8,.43-1.18,2.39-3.48,3.92-7.28,4.52-11.3,.07-.49,.33-.89,.62-1.08,.24-.16,.76-.33,1.15-.24Zm4.78,18.94h16.35c.67,0,1.22,.17,1.63,.58,.4,.41,.6,.77,.6,1.33v6.29c0,.58-.25,1.1-.72,1.57-.43,.43-.94,.7-1.5,.7h-16.36c-.57,0-1-.24-1.36-.68-.4-.46-.55-.99-.55-1.59v-6.29c0-.51,.21-1,.56-1.35,.34-.34,.83-.55,1.36-.55Zm1.92,2.82c-.43,0-.58,.1-.68,.2-.1,.11-.21,.32-.21,.62v3.1c0,.34,.09,.54,.21,.65,.16,.16,.39,.24,.71,.24h12.76c.36,0,.63-.09,.75-.23,.13-.13,.19-.35,.19-.66v-3.01c0-.32-.05-.52-.17-.65-.18-.18-.4-.26-.73-.26h-12.82Zm-2.06-7.54c-.42,0-.79,.15-1.05,.41-.25,.25-.37,.67-.37,.98s.11,.75,.37,1.02c.27,.27,.63,.41,1.05,.41h16.98c.46,0,.81-.18,1.03-.41,.24-.25,.36-.65,.36-1.02s-.11-.77-.36-1.02c-.22-.23-.55-.38-1.02-.38h-16.98Zm0-4.45c-.48,0-.77,.13-1.05,.4-.24,.26-.37,.65-.37,1s.13,.76,.37,1c.27,.26,.57,.41,1.05,.41h16.98c.44,0,.77-.19,1.03-.44,.24-.25,.36-.62,.36-.98s-.11-.72-.36-.96c-.24-.25-.59-.44-1.02-.44h-16.98Zm-2.07-4.52c-.51,0-.79,.14-1.05,.41-.24,.24-.37,.65-.37,1.01s.14,.76,.37,1c.26,.26,.54,.4,1.05,.4h21.12c.48,0,.79-.17,1.02-.4,.25-.25,.37-.66,.37-1.01s-.13-.75-.37-1c-.24-.23-.56-.41-1.01-.41h-21.14Zm2.07-4.45c-.48,0-.8,.16-1.05,.4-.24,.25-.37,.54-.37,1.01s.14,.77,.37,1.01c.24,.22,.57,.4,1.05,.4h16.98c.48,0,.8-.16,1.03-.4,.25-.25,.36-.56,.36-1.02s-.12-.76-.37-1.02c-.22-.23-.52-.39-1.01-.39h-16.98Z" fill="#231815"/><path d="M206.64,53.1c0,.33-.14,.72-.36,.94-.26,.25-.57,.41-.97,.41h-6.7v.1c0,.47-.13,.86-.42,1.14-.27,.28-.63,.43-1.05,.43s-.78-.14-1.06-.43c-.29-.28-.4-.67-.4-1.14v-.1h-8.4v.1c0,.47-.13,.86-.42,1.15-.26,.27-.63,.44-1.05,.44s-.78-.16-1.07-.45c-.28-.28-.4-.67-.4-1.14v-.1h-6.67c-.44,0-.76-.15-.99-.38-.25-.24-.37-.65-.37-.97s.15-.73,.37-.95c.23-.24,.56-.38,.99-.38h6.67v-.67c0-.47,.13-.85,.41-1.15,.28-.27,.64-.43,1.07-.43s.77,.18,1.04,.43c.3,.3,.42,.68,.42,1.15v.67h8.4v-.67c0-.47,.11-.85,.4-1.15,.28-.27,.64-.42,1.06-.42s.78,.17,1.05,.42c.29,.3,.41,.69,.41,1.15v.67h6.7c.4,0,.74,.16,.97,.39,.23,.24,.37,.62,.37,.95Zm-21.19,11.93v2.72h4.57v-2.72h-4.57Zm7.5-5.54v2.85h4.58v-2.85h-4.58Zm4.58,5.95v-.4h-4.58v2.72h11.53c.4,0,.71,.1,.96,.35,.26,.25,.37,.72,.37,.99s-.12,.69-.37,.94c-.26,.25-.56,.41-.97,.41h-11.53v2.23h12.35c.4,0,.73,.13,.96,.36,.24,.24,.37,.65,.37,.99s-.15,.72-.37,.99c-.22,.27-.56,.36-.96,.36h-12.35v2.95c0,.46-.13,.85-.42,1.14-.27,.26-.64,.43-1.06,.43s-.78-.15-1.05-.44c-.29-.28-.4-.66-.4-1.13v-2.95h-12.35c-.42,0-.72-.12-.98-.38-.25-.25-.37-.73-.37-.97,0-.26,.12-.72,.37-.97,.24-.24,.56-.38,.99-.38h12.35v-2.23h-11.53c-.41,0-.76-.13-1.01-.38-.25-.24-.34-.69-.34-.96s.1-.71,.36-.97c.22-.22,.57-.38,.99-.38h4.01v-2.72h-5.72c-.4,0-.73-.13-.98-.37-.25-.25-.38-.65-.38-.98s.15-.69,.38-.95c.23-.25,.57-.38,.99-.38h5.71v-.32c0-.46,.12-.86,.4-1.13,.29-.29,.64-.43,1.06-.43s.79,.16,1.06,.43c.28,.28,.41,.67,.41,1.13v.32h4.58v-2.85h-11.52c-.42,0-.75-.16-.98-.38-.25-.25-.37-.73-.37-.98,0-.24,.14-.72,.36-.95,.23-.23,.57-.38,.99-.38h25.97c.4,0,.73,.11,.96,.34,.25,.24,.38,.67,.38,.98,0,.33-.15,.68-.37,.94-.24,.28-.56,.42-.97,.42h-4.01v2.85h5.7c.44,0,.71,.1,.95,.35,.28,.27,.38,.64,.38,.99s-.09,.66-.36,.94c-.25,.26-.51,.41-.96,.41h-5.7v.4c-.02,.42-.15,.77-.42,1.05-.27,.27-.65,.44-1.06,.44s-.78-.16-1.06-.45c-.27-.27-.38-.62-.4-1.04h0Z" fill="#231815"/><path d="M151.4,49.95c-.27,.27-.4,.69-.4,1.18v2.26h-10.76c-.79,0-1.47,.27-2.03,.8-.55,.56-.84,1.23-.84,1.99v15.48c0,.73,.29,1.39,.87,1.95,.58,.53,1.26,.83,2.01,.83h10.76v3.73c0,.59,.18,1.05,.43,1.29,.21,.21,.61,.44,1.16,.44s.91-.24,1.12-.44c.24-.24,.47-.71,.47-1.29v-3.73h10.79c.81,0,1.6-.43,2.03-.86,.43-.43,.81-1.26,.81-2v-15.32c0-.77-.27-1.44-.75-1.99-.53-.61-1.25-.88-2.1-.88h-10.79v-2.26c0-.49-.15-.91-.42-1.18-.26-.25-.76-.43-1.17-.43s-.9,.16-1.19,.43Zm-10.7,21.15c-.18-.18-.27-.38-.27-.64v-13.02c0-.27,.1-.47,.28-.69,.21-.22,.44-.29,.68-.29h9.61v14.91h-9.59c-.27,0-.51-.09-.71-.27Zm23.05-14.64c.27,0,.52,.1,.72,.3,.18,.19,.28,.39,.28,.68v13.02c0,.25-.15,.53-.28,.65-.13,.13-.32,.27-.64,.27h-9.65v-14.91h9.57Z" fill="#231815"/><path d="M224.19,58.37c.31,0,.55,.09,.74,.27,.18,.18,.27,.44,.27,.75,0,.28-.09,.53-.27,.74-.19,.2-.43,.31-.74,.31h-5.2c-.33,0-.59-.11-.77-.31-.19-.19-.28-.43-.28-.74,0-.29,.09-.54,.28-.75,.18-.19,.44-.27,.77-.27h5.2Zm1.78,3.15c.3,0,.55,.09,.73,.28,.18,.19,.28,.44,.28,.75s-.1,.53-.28,.73c-.19,.21-.43,.31-.73,.31h-5.2c-.33,0-.59-.1-.77-.31-.18-.17-.27-.43-.27-.73s.09-.54,.27-.75c.18-.18,.44-.28,.77-.28h5.2Zm12.24-3.15c.31,0,.56,.09,.75,.27,.18,.18,.27,.44,.27,.75,0,.28-.09,.53-.27,.74-.19,.2-.43,.31-.75,.31h-5.19c-.32,0-.59-.11-.77-.31-.19-.19-.28-.43-.28-.74,0-.29,.09-.54,.28-.75,.18-.19,.44-.27,.77-.27h5.19Zm1.78,3.15c.31,0,.55,.09,.74,.28,.19,.19,.28,.44,.28,.75s-.09,.53-.28,.73c-.19,.21-.43,.31-.74,.31h-5.2c-.33,0-.59-.1-.77-.31-.18-.17-.28-.43-.28-.73s.1-.54,.28-.75c.18-.18,.44-.28,.77-.28h5.2Zm-20.85,6.25c0-.2,.05-.38,.18-.53,.09-.11,.28-.18,.57-.18h8.11v1.75h-8.87s0-1,0-1.04Zm8.86,3.36v1.72h-8.11c-.27,0-.46-.07-.58-.2-.12-.11-.18-.3-.18-.55v-.97h8.87Zm11.03-4.07c.27,0,.47,.08,.61,.24,.11,.11,.15,.3,.15,.56v.94h-8.86v-1.75h8.1Zm.76,4.07v.97c0,.24-.07,.44-.19,.56-.13,.13-.31,.19-.58,.2h-8.09v-1.72h8.86Zm2.76,5.85h-10.33c-.38,0-.8-.07-1.07-.33-.26-.27-.22-.8-.22-1.47h9.67c.49,0,.95-.19,1.36-.59,.41-.41,.63-.88,.65-1.41v-6.71c-.01-.49-.2-.9-.53-1.21-.42-.35-.92-.53-1.48-.53h-22.59c-.48,0-.9,.17-1.23,.5-.34,.36-.5,.77-.47,1.23v6.7c-.03,.53,.14,1,.48,1.41,.29,.36,.7,.55,1.2,.6h10v1.05c0,1.17,.64,2.05,1.2,2.51,.61,.5,1.44,.68,2.1,.68h11.26c.67,0,1.21-.55,1.21-1.23s-.54-1.21-1.21-1.21Zm-.87-19.77c.17,0,.37,.1,.48,.21,.11,.11,.17,.3,.18,.5v4.32c0,.47,.21,.91,.45,1.15,.25,.25,.64,.37,.99,.37,.3,0,.78-.21,.98-.42,.22-.21,.41-.68,.41-1.1v-5.15c.04-.61-.23-1.2-.66-1.65-.43-.43-1.04-.7-1.63-.68h-12v-1.51h10.26c.36,0,.66-.18,.86-.38,.2-.2,.33-.58,.33-.86s-.13-.68-.33-.89c-.21-.2-.51-.31-.86-.31h-23.31c-.36,0-.66,.12-.89,.34-.24,.23-.35,.52-.35,.86,0,.36,.15,.69,.35,.9,.19,.2,.5,.34,.89,.34h10.22v1.51h-12c-.58-.02-1.2,.25-1.62,.68-.44,.44-.7,1.03-.66,1.65v5.15c0,.42,.18,.89,.4,1.1,.19,.21,.68,.42,.98,.42,.35,0,.74-.12,.99-.37,.25-.24,.45-.67,.45-1.15v-4.32c0-.2,.07-.39,.18-.5,.11-.11,.3-.21,.47-.21h10.81v5.28c0,.49,.17,.89,.41,1.13,.24,.25,.66,.38,.99,.38,.35,0,.79-.15,.99-.4,.23-.26,.42-.63,.42-1.12v-5.28h10.81Z" fill="#231815"/></g></svg>