<?xml version="1.0" encoding="UTF-8"?><svg id="_層_1" xmlns="http://www.w3.org/2000/svg" xmlns:xlink="http://www.w3.org/1999/xlink" viewBox="0 0 218.25 150"><defs><linearGradient id="linear-gradient" x1="85.28" y1="70.19" x2="95.89" y2="74.33" gradientTransform="matrix(1, 0, 0, 1, 0, 0)" gradientUnits="userSpaceOnUse"><stop offset="0" stop-color="#e50012"/><stop offset="1" stop-color="#a30000"/></linearGradient></defs><g><path d="M48.07,92.28c.11,.06,.16,.12,.16,.17-.01,.06-.02,.11-.04,.15-.04,.11-.08,.29-.13,.54-.17,.72-.35,1.31-.52,1.77-.16,.43-.34,.78-.54,1.06-.22,.31-.43,.53-.65,.68-.14,.09-.24,.14-.29,.14-.03,0-.05-.01-.05-.03,.33-.39,.57-.71,.71-.95,.18-.26,.36-.63,.54-1.11,.14-.39,.25-.82,.34-1.3,.08-.38,.12-.68,.12-.9,0-.06,0-.11,0-.14-.02-.06-.03-.1-.03-.13,.02-.06,.05-.09,.1-.09,.06,0,.16,.04,.3,.12Zm.8,1.37c.14,.09,.22,.16,.22,.23,0,.03-.03,.09-.08,.15-.07,.1-.12,.3-.17,.58-.09,.66-.17,1.11-.25,1.35-.11,.35-.26,.59-.44,.72-.11,.08-.2,.12-.27,.12l-.03-.57c.07,0,.13-.05,.19-.14,.13-.19,.25-.54,.36-1.05,.08-.4,.12-.74,.12-1.02,0-.1-.07-.15-.2-.15-.12,0-.3,.02-.55,.07-.28,.06-.57,.13-.85,.23-.07,.02-.13,.03-.16,.03-.07,0-.15-.03-.23-.08-.09-.05-.13-.09-.13-.12,.02-.03,.05-.04,.11-.04,.22,0,.53-.06,.95-.14,.45-.08,.79-.16,1.04-.25,.05-.02,.09-.02,.11-.02,.03,0,.12,.04,.27,.12Zm-1.01,2.58l.03,.57s-.09-.06-.13-.17c-.08-.18-.19-.38-.33-.59,0-.02,0-.03,.02-.03,.21,.14,.35,.22,.42,.22Zm1.58-2.27s.04,.01,.11,.04c.15,.05,.23,.12,.23,.2,0,.1,0,.21,.02,.33,.07,.69,.1,1.17,.1,1.44,0,.07-.01,.13-.03,.18-.02,.05-.05,.07-.08,.07-.04,0-.07-.03-.11-.09-.05-.08-.08-.16-.09-.24l-.07-.65c-.03-.34-.06-.58-.09-.71-.02-.14-.07-.27-.16-.39-.03-.03-.05-.05-.05-.07,0-.07,.03-.1,.09-.1h.14Zm1.66-.29s.1,.05,.29,.14c.09,.05,.13,.11,.13,.17,0,.1-.04,.19-.11,.29-.08,.14-.15,.34-.21,.6l-.19,.81c-.04,.07-.09,.11-.18,.11-.12,0-.18-.02-.18-.08,0-.04,0-.11,.02-.22,.06-.3,.11-.56,.14-.78,.03-.24,.05-.44,.05-.58,0-.04-.03-.07-.08-.07-.11,0-.25,.02-.42,.06-.35,.08-.58,.12-.69,.12-.06,0-.12-.03-.17-.08-.07-.04-.1-.07-.1-.09,0-.03,.03-.05,.09-.05,.28-.02,.52-.05,.71-.1,.2-.04,.4-.11,.59-.19,.08-.04,.14-.06,.18-.06h.12Zm-.26,1.97s.06,.03,.18,.09c.1,.06,.14,.12,.14,.16,0,.02-.02,.03-.05,.03-.14,0-.26,0-.38,.02l-.53,.05c-.1,.01-.17,.02-.22,.02-.11,0-.19-.02-.23-.06-.04-.04-.06-.08-.06-.12,0-.05,.03-.08,.1-.08,.26-.02,.5-.05,.72-.09,.12-.02,.2-.03,.25-.03h.1Z" fill="#7d7e80"/><path d="M61,91.53c.16,.12,.24,.22,.24,.29,0,.02-.02,.05-.06,.09-.05,.06-.11,.14-.19,.23-.15,.18-.36,.43-.64,.72-.35,.33-.72,.6-1.11,.8-.4,.21-.68,.31-.83,.31-.03,0-.05-.01-.05-.03,0-.01,.02-.03,.07-.05,.37-.18,.8-.47,1.27-.88,.36-.3,.66-.6,.88-.92,.1-.13,.15-.28,.15-.46,0-.1,.03-.15,.09-.15,.03,0,.09,.02,.16,.06Zm1.92,4.11c.15,.08,.22,.15,.22,.22,0,.06-.1,.09-.3,.09-.24,0-.5-.01-.79-.01s-.68,.02-1.15,.06c-.34,.02-.7,.07-1.09,.16-.11,.03-.18,.04-.2,.04-.07,0-.16-.03-.29-.09-.14-.06-.21-.11-.21-.15,0-.04,.04-.07,.13-.08,.43,0,.75-.03,.95-.07,.38-.05,.8-.09,1.25-.11,.43-.04,.76-.08,.99-.13,.1-.02,.16-.03,.18-.03s.13,.03,.3,.1Zm-.91-1.31c.1,.07,.15,.12,.15,.16s-.06,.07-.19,.09c-.24,.03-.63,.1-1.19,.21-.35,.07-.6,.1-.76,.1-.09,0-.13-.01-.13-.04,0-.01,.05-.03,.15-.05,.24-.05,.53-.14,.88-.27,.3-.11,.53-.22,.7-.33,.06-.02,.1-.03,.11-.03,.07,0,.17,.05,.28,.14Zm.13,.68c.11,.04,.16,.07,.16,.1,0,.04-.07,.08-.2,.11-.17,.02-.32,.04-.43,.06-.11,.02-.38,.07-.81,.14-.24,.04-.41,.06-.51,.06-.08,0-.16,0-.21-.02-.08-.03-.13-.06-.13-.09,0-.05,.07-.08,.2-.08,.5-.07,.99-.15,1.46-.26,.14-.03,.22-.04,.23-.04,.04,0,.12,.01,.24,.04Zm-1.86-1.64l.08,.03c.12,.04,.17,.09,.17,.15,0,.03,0,.06,0,.1,.04,.21,.06,.35,.06,.43,0,.06,0,.1-.03,.13-.02,.04-.04,.05-.06,.05-.03,0-.05-.02-.08-.07-.04-.06-.06-.12-.07-.18l-.05-.2c-.02-.11-.04-.18-.06-.22-.01-.04-.05-.08-.11-.12-.02-.01-.03-.02-.03-.02,0-.05,.02-.08,.06-.08h.1Zm1.44-.23s.08,.04,.23,.13c.09,.06,.14,.1,.14,.14,0,.02-.02,.05-.06,.08-.05,.04-.08,.08-.11,.13l-.19,.27s-.07,.06-.1,.06c-.09,0-.14-.03-.14-.11,0-.01,0-.05,.01-.11,.03-.16,.04-.25,.04-.28,0-.03-.03-.05-.08-.05-.04,0-.14,.01-.28,.03-.27,.04-.45,.08-.55,.11-.07,.02-.12,.03-.14,.03-.04,0-.09-.02-.14-.06-.04-.02-.07-.05-.07-.08,0,0,.03-.01,.08-.02,.44-.07,.83-.15,1.16-.23,.08-.03,.12-.04,.14-.04h.05Zm-.58,1.64c.08,.04,.12,.09,.13,.16,.07,.63,.11,1.17,.11,1.62,0,.34-.06,.58-.18,.71-.1,.1-.2,.15-.29,.15-.03,0-.07-.03-.1-.08-.17-.21-.33-.37-.46-.49-.03-.02-.04-.03-.04-.05,0-.02,.01-.02,.04-.02,.04,0,.1,.01,.19,.03,.11,.02,.19,.03,.22,.03,.06,0,.1-.02,.13-.05,.05-.05,.09-.14,.12-.26,.04-.13,.06-.31,.06-.54,0-.39-.03-.69-.08-.89-.03-.13-.08-.22-.14-.27-.04-.02-.05-.04-.05-.06,0-.06,.03-.08,.09-.08,.04,0,.13,.03,.26,.1Zm.41-.97s.05,.02,.14,.07c.08,.05,.11,.09,.11,.13,0,.02-.02,.04-.05,.04-.14,0-.26,0-.38,.02l-.53,.05c-.1,.01-.17,.02-.22,.02-.09,0-.15-.02-.18-.05-.03-.03-.05-.06-.05-.09,0-.04,.03-.06,.08-.06,.27-.02,.52-.05,.75-.1,.13-.02,.21-.03,.25-.03h.07Zm.04-1.11c.06,.03,.09,.06,.09,.1,0,.02-.02,.04-.06,.05-.05,.02-.15,.05-.32,.08-.25,.05-.41,.07-.48,.07-.14,0-.24-.02-.29-.05-.05-.04-.08-.07-.08-.1,0-.02,.03-.03,.09-.03,.14-.02,.3-.05,.48-.09,.12-.03,.22-.06,.29-.09,.03-.01,.04-.02,.05-.02,.06,0,.14,.02,.23,.07Zm.02-.5c.5,.42,.87,.69,1.11,.82,.25,.13,.65,.29,1.2,.47,.07,.02,.11,.05,.11,.07,0,.03-.04,.06-.11,.07-.4,.09-.69,.13-.84,.13-.1,0-.2-.03-.31-.09-.11-.07-.42-.38-.94-.93-.16-.17-.31-.32-.45-.44-.14-.12-.27-.2-.39-.25-.05,0-.07-.03-.07-.06,0-.05,.04-.08,.12-.08,.12,0,.31,.1,.56,.29Z" fill="#7d7e80"/><path d="M72.79,92.03c.09,0,.21,.03,.39,.1,.15,.05,.22,.12,.22,.19,0,.04-.01,.09-.03,.16-.04,.1-.06,.3-.06,.57,0,.57-.09,1.09-.26,1.55-.15,.44-.38,.85-.68,1.21-.28,.33-.62,.6-1.02,.81-.35,.17-.58,.25-.68,.25-.03,0-.05-.01-.05-.04,0-.01,.04-.05,.13-.1,.51-.34,.92-.69,1.22-1.05,.34-.39,.58-.83,.71-1.3,.13-.43,.19-.87,.19-1.32,0-.31-.03-.53-.08-.65-.06-.09-.08-.18-.08-.26s.03-.12,.1-.12Zm1.99,1.55c.17,.11,.26,.19,.26,.25,0,.06-.09,.09-.24,.09-.46,.01-.98,.05-1.56,.12-.33,.04-.77,.11-1.31,.21-.11,.02-.17,.04-.2,.04-.11,0-.22-.03-.32-.09-.13-.05-.19-.1-.19-.15,0-.02,.05-.04,.14-.06,1.1-.15,2-.29,2.71-.42,.25-.05,.4-.08,.47-.08,.03,0,.11,.03,.25,.08Zm-1.61,.31s.03,.07,.09,.2c.51,.77,1,1.33,1.47,1.67,.21,.16,.43,.3,.66,.42l.49,.24c.16,.06,.23,.11,.23,.15,0,.04-.04,.07-.13,.08-.2,.06-.5,.08-.9,.08-.24,0-.42-.06-.52-.18-.17-.2-.34-.43-.52-.7-.24-.34-.48-.74-.72-1.21-.13-.27-.23-.45-.3-.53-.05-.07-.07-.11-.07-.13,.01-.07,.05-.1,.12-.1,.06,0,.09,.01,.09,.01Z" fill="#7d7e80"/><path d="M82.79,94.99s.05,.03,.06,.08c.06,.13,.09,.24,.09,.31,0,.14-.02,.28-.06,.43-.02,.11-.05,.19-.08,.25-.02,.05-.04,.07-.07,.07-.07,0-.13-.04-.17-.11-.02-.06-.03-.12-.03-.19,0-.05,0-.11,.02-.17,.12-.3,.18-.49,.2-.58,0-.06,.02-.09,.04-.09Zm.44-2.62c.08,0,.18,.03,.31,.08,.08,.04,.12,.08,.12,.14,0,.02,0,.05-.02,.08v.21c0,.48-.01,.85-.04,1.1-.02,.26-.04,.4-.04,.44,0,.04,.02,.06,.06,.06,.01,0,.09,0,.22-.03,.11-.01,.34-.04,.67-.07,.11-.01,.21-.02,.3-.04,.06-.02,.12-.03,.17-.03,.07,0,.18,.05,.31,.14,.1,.06,.15,.11,.15,.15,0,.03-.02,.06-.06,.12-.03,.06-.06,.17-.08,.31l-.13,.89c-.04,.3-.13,.54-.26,.7-.14,.17-.27,.25-.39,.25l-.05-.57c.09,0,.18-.07,.26-.21,.15-.32,.23-.69,.23-1.12,0-.21,0-.32-.02-.36-.02-.02-.05-.03-.09-.03-.22,0-.45,.02-.67,.06-.31,.05-.52,.1-.63,.15-.07,.05-.14,.07-.2,.07-.03,0-.07-.04-.12-.11-.06-.07-.09-.13-.09-.18,0-.02,.02-.05,.03-.08,.11-.28,.16-.7,.16-1.28,0-.25-.04-.48-.13-.68-.03-.04-.05-.07-.05-.08,0-.05,.02-.08,.07-.08Zm.1,2.73c.1,.06,.18,.12,.23,.18,.05,.08,.07,.18,.07,.31,0,.12-.05,.18-.15,.18-.02,0-.05-.02-.08-.07-.05-.08-.13-.26-.22-.54-.01-.03-.02-.05-.02-.06,0-.03,.02-.04,.05-.04,.04,0,.08,.01,.12,.04Zm1.79-2.84c.06,.03,.09,.06,.09,.1,0,.03-.03,.05-.1,.07-.08,.03-.25,.07-.52,.11-.4,.06-.67,.09-.79,.09-.14,0-.24-.02-.29-.05-.05-.04-.08-.07-.08-.1,0-.02,.05-.04,.15-.04,.23-.02,.48-.06,.76-.12,.19-.04,.35-.07,.47-.12,.04-.02,.07-.02,.08-.02,.06,0,.14,.02,.23,.07Zm-.13,.78c.1,.04,.15,.07,.15,.09,0,.04-.06,.07-.18,.1-.11,.01-.2,.02-.28,.04-.07,.01-.24,.04-.51,.09-.15,.02-.26,.04-.33,.04-.08,0-.14,0-.19-.02-.08-.03-.12-.05-.12-.08,0-.05,.06-.07,.18-.08,.31-.05,.62-.1,.91-.18,.09-.02,.13-.03,.14-.03,.04,0,.11,.01,.22,.04Zm0,.62c.1,.04,.15,.07,.15,.09,0,.04-.06,.07-.18,.1-.11,.01-.2,.02-.28,.03-.07,.01-.24,.04-.51,.08-.15,.02-.26,.03-.33,.03-.08,0-.14,0-.19-.02-.08-.03-.12-.05-.12-.09,0-.05,.06-.07,.18-.08,.31-.04,.62-.09,.91-.16,.09-.02,.13-.02,.14-.02,.04,0,.11,.01,.22,.04Zm-1.11,1.38c.1,.04,.18,.09,.24,.15,.05,.06,.07,.15,.07,.25s-.04,.16-.13,.16c-.03,0-.05-.02-.08-.06-.06-.07-.13-.22-.23-.44-.01-.02-.02-.04-.02-.05,0-.02,.02-.04,.04-.04,.04,0,.08,.01,.12,.03Zm.32,1.18c.16,.04,.25,.07,.27,.07l.05,.57s-.06-.03-.1-.09c-.08-.13-.18-.29-.32-.45-.04-.05-.07-.08-.07-.1s.02-.03,.05-.03c.02,0,.06,0,.12,.03Zm.23-3.65c.07,.04,.11,.08,.11,.12,0,.03,0,.06-.02,.1-.01,.07-.02,.12-.02,.17l-.1,1.55h-.27v-1.67c.01-.05,0-.11-.04-.17-.03-.03-.04-.05-.04-.07,0-.07,.03-.1,.11-.1s.16,.02,.27,.06Zm-.01,2.35c.12,.05,.22,.1,.28,.16,.05,.07,.08,.16,.08,.27,0,.1-.04,.16-.13,.16-.03,0-.07-.02-.1-.06-.07-.07-.16-.23-.29-.46-.02-.02-.02-.04-.02-.05,0-.02,.02-.04,.04-.04,.04,0,.09,.01,.14,.04Zm3.67,.8c.15,.08,.22,.15,.22,.22,0,.06-.1,.09-.3,.09-.17,0-.35-.01-.54-.01-.2,0-.46,.01-.79,.04-.23,.01-.48,.05-.74,.1-.07,.02-.12,.03-.14,.03-.07,0-.16-.03-.29-.09-.14-.06-.21-.11-.21-.15,0-.05,.05-.07,.14-.08,.3,0,.52-.02,.66-.05,.27-.04,.56-.06,.88-.08,.3-.03,.53-.06,.69-.09,.07-.01,.11-.02,.13-.02,.03,0,.13,.03,.3,.1Zm-.36-2.4c.08,.03,.11,.07,.11,.12,0,.04-.05,.07-.14,.09-.11,.04-.35,.09-.72,.15-.57,.08-.94,.13-1.11,.13s-.29-.02-.35-.06c-.07-.05-.1-.09-.1-.12,0-.03,.07-.05,.2-.06,.32-.03,.68-.09,1.06-.16,.27-.05,.48-.1,.65-.15,.06-.02,.1-.03,.12-.03,.07,0,.16,.03,.28,.09Zm-.23,1.12c.13,.05,.19,.09,.19,.12,0,.05-.08,.1-.24,.13-.14,.01-.26,.03-.36,.04-.09,.01-.31,.05-.67,.1-.2,.03-.34,.04-.43,.04-.1,0-.18-.01-.25-.03-.1-.03-.15-.07-.15-.11,0-.06,.08-.09,.24-.1,.41-.05,.81-.12,1.19-.21,.11-.02,.18-.03,.19-.03,.05,0,.14,.02,.29,.05Zm-1.07-1.74c.18,.08,.3,.15,.35,.23,.05,.09,.08,.17,.08,.26,0,.19-.09,.29-.26,.29-.1,0-.23-.12-.4-.35-.19-.26-.28-.42-.28-.49,0-.03,.02-.05,.06-.05,.12,0,.27,.04,.44,.11Zm.26,1.05c.09,.04,.13,.09,.13,.15,0,.04,0,.07-.02,.12-.02,.08-.03,.15-.03,.2l-.06,1.71h-.32l-.04-1.85c0-.06-.03-.13-.07-.2-.03-.04-.05-.06-.05-.08,0-.08,.04-.12,.13-.12s.19,.02,.32,.07Z" fill="#7d7e80"/><path d="M97.44,91.85s.07,.07,.21,.21c.07,.11,.11,.19,.11,.24,0,.09-.07,.22-.22,.39l-1.03,1.2c-.07,.07-.1,.12-.1,.13,0,.03,.02,.05,.08,.05,.57-.05,1.31-.12,2.21-.21,.26-.03,.46-.05,.6-.06,.1,0,.14,.03,.14,.09,0,.05-.14,.1-.43,.15l-2.13,.39c-.27,.05-.52,.1-.73,.17-.18,.05-.28,.08-.3,.08-.1,0-.17-.1-.24-.29-.02-.07-.03-.11-.03-.14,0-.13,.1-.23,.29-.32,.27-.14,.49-.33,.67-.58,.19-.25,.35-.48,.46-.7,.13-.23,.21-.47,.25-.72,0-.06,.04-.09,.11-.09h.07Zm-1.17,3.36s.04,.01,.11,.04c.16,.05,.23,.12,.23,.2,0,.08,0,.16,.01,.25,.05,.54,.08,.91,.08,1.11,0,.08-.01,.13-.03,.18-.02,.05-.05,.07-.08,.07-.04,0-.07-.03-.11-.09-.05-.08-.08-.16-.09-.24l-.07-.51c-.03-.27-.06-.45-.09-.56-.02-.11-.07-.21-.15-.3-.03-.02-.05-.04-.05-.05,0-.07,.03-.1,.09-.1h.14Zm2.53-.26l.21,.13c.17,.12,.26,.21,.26,.27,0,.02-.02,.06-.06,.1-.06,.06-.1,.14-.14,.25-.07,.18-.14,.43-.22,.76-.02,.06-.09,.11-.19,.15-.08,.02-.14,.03-.19,.03-.01,0-.04-.01-.07-.03-.02-.04-.03-.06-.03-.07,0-.01,0-.04,.02-.08,.04-.15,.08-.35,.12-.58,.04-.21,.05-.36,.05-.46,0-.08-.08-.12-.24-.12-.1,0-.36,.03-.79,.09-.59,.08-.89,.12-.92,.12-.08,0-.15-.02-.21-.07-.06-.04-.09-.08-.09-.11,0-.04,.03-.06,.1-.07h.1c.28-.01,.62-.05,.99-.1,.35-.05,.66-.11,.94-.17,.12-.03,.21-.05,.25-.05h.1Zm-.19,1.46s.06,.03,.18,.09c.1,.06,.14,.12,.14,.16,0,.04-.03,.05-.09,.05-.25,0-.48,.01-.69,.04l-.97,.08c-.18,.02-.31,.03-.41,.03-.11,0-.19-.02-.23-.06-.04-.04-.06-.08-.06-.12,0-.05,.03-.08,.1-.08,.51-.03,.99-.07,1.44-.15,.25-.03,.41-.05,.49-.05h.1Zm-.07-3.34c.19,.09,.37,.18,.54,.3,.23,.17,.39,.33,.46,.47,.06,.12,.08,.26,.08,.41,0,.05-.01,.11-.04,.17-.03,.05-.07,.07-.11,.07-.03,0-.08-.03-.15-.08-.11-.08-.24-.25-.4-.51-.22-.32-.38-.54-.49-.65-.09-.08-.13-.14-.13-.18,0-.02,0-.04,.03-.04,.04,0,.1,.01,.2,.04Z" fill="#7d7e80"/><path d="M108.6,94.03c.07,0,.15,.02,.24,.06,.07,.04,.1,.09,.1,.14,0,.02-.02,.03-.07,.03-.28,.02-.62,.08-1.03,.18-.09,.03-.14,.04-.16,.04-.06,0-.16-.03-.29-.09-.1-.06-.15-.11-.15-.15,0-.01,.02-.02,.06-.02,.22-.02,.59-.07,1.09-.15,.12-.02,.2-.03,.22-.03Zm.77,1.73s.04,.02,.04,.05c0,.03-.06,.07-.19,.14-.24,.12-.55,.27-.94,.43-.13,.06-.27,.14-.42,.23-.1,.07-.22,.1-.36,.1-.05,0-.1-.06-.15-.18-.07-.19-.11-.31-.11-.36,0-.02,.07-.03,.2-.04,.25-.02,.48-.05,.67-.09,.29-.05,.66-.14,1.12-.26,.05,0,.1-.01,.15-.01Zm-.32-3.08c.13,.06,.19,.13,.19,.23,0,.01-.02,.05-.07,.13-.02,.05-.06,.26-.1,.65v2.25h-.37l-.04-2.33c0-.18-.02-.37-.05-.58,0-.1-.03-.18-.08-.24-.04-.05-.06-.08-.06-.1,0-.1,.05-.15,.16-.15,.11,0,.25,.04,.42,.13Zm1.07-.6l.19,.11c.13,.07,.2,.16,.2,.25,0,.04-.02,.1-.05,.18-.05,.19-.1,.59-.14,1.2-.05,.72-.07,1.27-.07,1.65,0,.34,.06,.56,.18,.66,.15,.09,.36,.14,.65,.14s.49-.05,.6-.14c.12-.12,.2-.3,.25-.54l.04-.37c0-.08,.03-.13,.06-.13,.03,0,.06,.07,.08,.2,.06,.35,.13,.59,.21,.72,.05,.09,.08,.17,.08,.24,0,.12-.1,.22-.3,.32-.23,.12-.54,.17-.93,.17-.47,0-.79-.08-.99-.25-.2-.19-.3-.49-.3-.9,0-.32,0-.7,.02-1.14,.01-.42,.02-.96,.02-1.62,0-.22-.02-.39-.06-.52-.04-.07-.05-.12-.05-.16,0-.06,.04-.08,.12-.08h.18Zm1.52,1.72c.14,.05,.21,.09,.21,.13,0,.06-.08,.1-.25,.14-.11,.01-.2,.03-.28,.04-.07,.02-.24,.05-.51,.11-.15,.03-.26,.05-.33,.05-.11,0-.2-.01-.27-.03-.11-.04-.16-.08-.16-.12,0-.07,.08-.1,.25-.11,.31-.06,.6-.13,.89-.23,.09-.02,.13-.03,.14-.03,.05,0,.15,.02,.31,.05Z" fill="#7d7e80"/><path d="M120.49,92.38c.1,.04,.14,.09,.14,.16-.02,.12-.05,.29-.09,.48-.03,.21-.05,.33-.05,.37,0,.03,.02,.04,.06,.04,0,0,.27-.12,.77-.37,.06-.03,.1-.04,.13-.04,.02,0,.03,.01,.03,.03,0,.01-.02,.04-.06,.08-.47,.39-.78,.65-.92,.78-.06,.06-.11,.1-.13,.1-.06,0-.1-.03-.14-.08-.07-.11-.1-.19-.1-.26,0,0,.02-.03,.06-.05,.04-.03,.07-.09,.08-.18,.02-.14,.04-.27,.06-.37,0-.09,0-.22-.02-.39-.01-.12-.04-.19-.07-.22-.02-.02-.04-.04-.05-.05,0-.03,0-.05,.02-.07,.02-.02,.04-.03,.07-.03,.05,0,.13,.02,.24,.07Zm1.12,3.78c.13,.05,.2,.12,.2,.2,0,.03-.02,.05-.07,.08-.1,.05-.21,.12-.32,.21-.21,.16-.43,.29-.65,.4-.15,.08-.27,.14-.38,.16-.07,.03-.12,.04-.15,.04-.04,0-.06-.01-.06-.04,.2-.12,.39-.25,.56-.4,.23-.18,.4-.34,.5-.49,.04-.04,.06-.1,.06-.19,0-.03,.02-.04,.07-.04,.03,0,.12,.03,.26,.07Zm.13-4.38c.08,.06,.12,.1,.12,.13,0,.06-.04,.11-.12,.14-.15,.04-.4,.14-.74,.32-.22,.1-.38,.15-.47,.15-.07,0-.11-.01-.11-.04,0-.01,.03-.03,.09-.06,.14-.07,.32-.18,.52-.33,.18-.14,.32-.27,.42-.4,.03-.02,.06-.03,.07-.03,.06,0,.14,.04,.23,.12Zm-.72,2.29c.06,.04,.09,.1,.09,.19-.02,1.07-.05,1.68-.08,1.83-.01,.08-.04,.12-.07,.12-.05,0-.09-.04-.14-.13-.06-.1-.09-.21-.09-.32,0-.04,0-.07,.02-.1,.02-.09,.04-.21,.06-.38,.02-.16,.03-.43,.03-.81,0-.16-.03-.28-.1-.35-.03-.03-.04-.04-.04-.05,0-.05,.03-.07,.09-.07,.09,0,.17,.02,.23,.06Zm2.14-.13c.11,.06,.16,.12,.16,.17,0,.04-.02,.1-.05,.19-.03,.05-.04,.21-.04,.48s0,.49,0,.67c0,.11,0,.21,0,.29,0,.13-.03,.23-.08,.33-.06,.11-.12,.16-.17,.16-.02,0-.06-.03-.1-.1-.06-.1-.09-.19-.09-.26,0-.04,0-.09,.02-.16,.01-.08,.02-.15,.02-.22,0-.81-.03-1.26-.08-1.35-.03-.03-.08-.04-.15-.04-.18,0-.45,.03-.8,.08-.31,.06-.53,.08-.66,.08-.09,0-.15-.02-.21-.06-.04-.02-.06-.05-.06-.08,0-.02,.04-.04,.11-.04,.45-.04,.96-.12,1.53-.22,.19-.04,.3-.06,.33-.06,.04,0,.14,.05,.31,.14Zm-.52,1.84s.05,.02,.16,.08c.08,.06,.12,.1,.12,.14,0,.02-.03,.03-.08,.03-.21,0-.4,0-.57,.02l-.81,.04c-.15,0-.26,.01-.34,.01-.1,0-.16-.02-.2-.05-.04-.03-.05-.07-.05-.1,0-.04,.03-.07,.08-.07,.43-.01,.83-.04,1.2-.08,.2-.02,.34-.02,.41-.02h.08Zm.17-1.18c.09,.03,.13,.06,.13,.08,0,.04-.05,.07-.16,.09-.15,.01-.28,.02-.39,.03-.09,.01-.33,.04-.72,.08-.21,.02-.36,.03-.46,.03-.07,0-.13,0-.17-.02-.07-.02-.1-.05-.1-.08,0-.04,.05-.07,.16-.07,.45-.04,.88-.09,1.3-.16,.12-.02,.19-.02,.2-.02,.03,0,.1,.01,.2,.03Zm.02,.59c.09,.03,.13,.06,.13,.08,0,.04-.05,.07-.16,.09-.15,0-.28,.02-.39,.03-.09,0-.33,.03-.72,.07-.21,.02-.36,.03-.46,.03-.07,0-.13,0-.17-.02-.07-.02-.1-.05-.1-.08,0-.04,.05-.06,.16-.07,.45-.04,.88-.08,1.3-.14,.12-.01,.19-.02,.2-.02,.03,0,.1,.01,.2,.03Zm-1.47-2.5c.15,.07,.27,.15,.34,.24,.07,.1,.1,.24,.1,.42,0,.12-.05,.18-.15,.18-.04,0-.08-.03-.13-.09-.08-.11-.2-.33-.36-.68-.02-.04-.03-.06-.03-.08,0-.03,.02-.04,.05-.04,.05,0,.11,.02,.17,.06Zm1.5-.33c.09,.05,.14,.11,.14,.18,0,.02,0,.03-.01,.05-.06,.08-.1,.14-.13,.18-.1,.22-.21,.39-.34,.54-.15,.18-.33,.31-.52,.39-.1,.05-.16,.07-.19,.07-.02,0-.03,0-.03-.03,.17-.15,.32-.31,.44-.47,.09-.13,.18-.28,.26-.47,.05-.12,.07-.23,.07-.33l-.03-.13s.02-.07,.07-.07c.07,0,.17,.03,.27,.1Zm1.01-.28c.13,.09,.2,.16,.2,.23,0,.02-.02,.04-.05,.08-.04,.05-.08,.15-.1,.3-.06,.34-.11,.57-.15,.69-.07,.18-.16,.3-.27,.37-.07,.04-.12,.06-.16,.06l-.03-.52s.05-.02,.07-.05c.05-.07,.1-.2,.14-.4,.03-.15,.05-.28,.05-.39,0-.1-.06-.15-.18-.15-.09,0-.22,.02-.4,.05-.21,.04-.41,.09-.62,.16-.05,.01-.09,.02-.12,.02-.07,0-.15-.03-.23-.08-.09-.05-.13-.09-.13-.12,.02-.03,.05-.04,.11-.04,.17,0,.42-.04,.74-.11,.35-.06,.63-.12,.82-.19,.04-.01,.07-.02,.08-.02,.03,0,.11,.04,.24,.12Zm-1.44,4.17c.17,.06,.34,.13,.5,.21,.21,.12,.36,.22,.43,.32,.05,.08,.08,.18,.08,.28,0,.04-.01,.09-.03,.14-.02,.04-.06,.06-.09,.06-.03,0-.08-.02-.14-.06-.1-.06-.23-.18-.38-.36-.2-.23-.35-.38-.45-.46-.08-.06-.12-.1-.12-.13,0-.02,0-.03,.02-.03,.03,0,.1,0,.18,.03Zm.88-2.97l.03,.52s-.08-.05-.12-.14c-.08-.15-.18-.32-.32-.5,0-.02,0-.03,.02-.03,.2,.1,.33,.15,.39,.15Z" fill="#7d7e80"/><path d="M133.28,93.86c.16,.11,.25,.2,.25,.28,0,.02-.02,.04-.06,.06-.04,.03-.07,.07-.12,.13-.18,.23-.37,.42-.55,.57-.15,.12-.32,.23-.51,.32-.13,.06-.21,.09-.25,.09-.03,0-.04,0-.04-.02,0-.01,.01-.02,.05-.04,.16-.12,.32-.27,.47-.45,.14-.16,.27-.34,.39-.54,.07-.12,.11-.24,.11-.34,0-.08,.03-.12,.08-.12,.05,0,.11,.02,.19,.07Zm.57,.83c.07,.05,.1,.1,.1,.16,0,.03-.02,.06-.07,.09-.04,.04-.07,.09-.09,.13-.08,.11-.17,.23-.28,.35-.15,.16-.31,.29-.47,.4-.15,.1-.3,.17-.44,.23-.13,.05-.2,.07-.23,.07-.04,0-.06,0-.06-.02,.18-.14,.32-.25,.42-.35,.21-.19,.39-.37,.54-.56,.13-.16,.21-.29,.25-.38,.04-.05,.05-.1,.05-.16,0-.03,.02-.05,.05-.05,.08,0,.15,.03,.21,.08Zm.87-.07c.08,.08,.12,.15,.12,.21,0,.05-.01,.09-.04,.14-.05,.05-.1,.12-.17,.21-.16,.34-.36,.65-.61,.92-.25,.27-.53,.5-.85,.67-.3,.17-.56,.25-.77,.25-.04,0-.06,0-.06-.02,0-.02,.03-.04,.08-.06,.3-.15,.63-.39,1-.73,.37-.33,.63-.65,.79-.96,.13-.23,.2-.44,.2-.63,0-.09,.03-.13,.08-.13s.13,.05,.23,.14Zm1.04-.3c.16,.09,.24,.18,.24,.25,0,.03-.03,.08-.08,.14-.06,.1-.12,.28-.16,.54-.09,.62-.17,1.04-.24,1.26-.11,.33-.25,.55-.42,.67-.11,.07-.2,.11-.26,.11l-.03-.63c.06,0,.12-.04,.17-.13,.12-.17,.22-.48,.32-.93,.07-.35,.11-.65,.11-.9,0-.11-.07-.16-.22-.16s-.36,.02-.66,.05c-.34,.04-.68,.1-1.02,.17-.09,.01-.15,.02-.19,.02-.08,0-.16-.03-.25-.09-.09-.06-.14-.1-.14-.13,.02-.03,.06-.04,.12-.04,.26,0,.63-.05,1.11-.12,.53-.06,.93-.13,1.21-.2,.06-.01,.11-.02,.13-.02,.03,0,.13,.04,.29,.13Zm-2.62-2.41s.03,.01,.09,.03c.13,.05,.19,.1,.19,.16,0,.09,0,.19,0,.3,.04,.63,.06,1.06,.06,1.3,0,.06,0,.11-.03,.15-.02,.04-.04,.06-.07,.06-.03,0-.06-.02-.09-.07-.04-.06-.07-.13-.07-.2l-.06-.59c-.02-.31-.04-.52-.07-.64-.02-.13-.06-.24-.12-.35-.02-.03-.04-.05-.04-.06,0-.06,.02-.08,.07-.08h.12Zm1.97-.06c.08,.05,.12,.09,.12,.14,0,.03-.02,.1-.06,.21-.04,.12-.07,.24-.09,.36-.12,.64-.19,.96-.19,.97-.05,.24-.11,.36-.18,.36-.05,0-.09-.03-.12-.09-.03-.07-.04-.13-.04-.19,0-.02,0-.07,.02-.14,.03-.16,.06-.42,.09-.77,.02-.22,.04-.41,.04-.57,0-.07-.04-.11-.13-.11-.07,0-.2,.01-.37,.04-.44,.07-.71,.1-.81,.1-.08,0-.14-.01-.19-.04-.04-.02-.06-.05-.06-.07,0-.04,.05-.07,.15-.07,.24-.01,.65-.08,1.23-.21,.13-.05,.21-.07,.25-.07,.09,0,.2,.05,.35,.16Zm-.54,.8c.11,.04,.16,.07,.16,.1,0,.04-.07,.08-.2,.11-.09,0-.17,.02-.23,.03-.06,0-.2,.03-.42,.07-.12,.02-.21,.03-.27,.03-.08,0-.16,0-.21-.03-.08-.03-.13-.06-.13-.09,0-.05,.07-.08,.2-.08,.25-.04,.5-.09,.73-.15,.07-.02,.11-.02,.12-.02,.04,0,.12,.01,.24,.04Zm-.11,.8l.16,.08c.08,.06,.12,.1,.12,.14,0,.02-.02,.03-.05,.03-.13,0-.26,0-.37,.02l-.52,.04c-.1,0-.17,.01-.22,.01-.1,0-.16-.02-.2-.05-.04-.03-.05-.07-.05-.1,0-.04,.03-.07,.08-.07,.26-.01,.5-.04,.72-.08,.12-.02,.2-.02,.25-.02h.08Zm.34,3.22l.03,.63c-.06,0-.12-.06-.17-.16-.11-.17-.25-.36-.44-.57,0-.02,0-.03,.02-.03,.29,.09,.47,.14,.56,.14Z" fill="#7d7e80"/><path d="M145.53,94.08c.06,0,.13,.02,.22,.06,.06,.04,.09,.08,.09,.13,0,.03-.04,.05-.12,.05-.46,.04-1.03,.14-1.7,.3-.14,.04-.23,.06-.27,.06-.06,0-.15-.03-.27-.08-.09-.05-.14-.1-.14-.14,0-.02,.03-.04,.1-.04,.36-.04,.94-.13,1.74-.27,.2-.04,.31-.05,.34-.05Zm.17-1.29c.06,.03,.09,.06,.09,.1s-.04,.07-.12,.09c-.09,.04-.3,.09-.62,.15-.48,.09-.8,.13-.94,.13s-.24-.02-.29-.05c-.06-.04-.08-.07-.08-.1,0-.03,.06-.05,.17-.06,.27-.03,.57-.09,.9-.16,.23-.05,.41-.1,.55-.15,.05-.02,.08-.03,.1-.03,.06,0,.14,.02,.23,.07Zm-.77,1.65c.11,.07,.17,.12,.17,.17,0,.02,0,.05-.03,.09-.02,.06-.04,.14-.06,.26-.06,.35-.12,.64-.18,.86-.08,.26-.2,.49-.35,.71-.15,.2-.31,.34-.49,.41-.07,.03-.11,.05-.15,.06-.04,0-.05,0-.05-.03s.02-.04,.06-.07c.18-.19,.31-.34,.38-.45,.08-.12,.15-.28,.22-.48,.05-.15,.1-.35,.14-.59,.03-.19,.05-.37,.06-.56,0-.11-.01-.21-.04-.29-.02-.05-.03-.08-.03-.09,.02-.05,.06-.08,.11-.08s.13,.03,.24,.09Zm.51,.56c.11,.04,.16,.07,.16,.1,0,.04-.07,.08-.2,.11-.12,.02-.21,.03-.29,.05-.07,.02-.25,.06-.55,.13-.16,.03-.28,.05-.35,.05-.08,0-.16,0-.21-.03-.08-.03-.13-.06-.13-.09,0-.05,.07-.08,.2-.08,.33-.06,.66-.14,.97-.24,.09-.02,.14-.04,.15-.04,.04,0,.12,.01,.24,.04Zm-1.27-1.73c.07,.06,.14,.13,.21,.2,.09,.12,.15,.22,.18,.32,.02,.08,.03,.18,.03,.28,0,.05-.01,.11-.04,.17-.03,.05-.07,.07-.11,.07,0,0-.03-.02-.05-.06-.04-.06-.08-.18-.13-.37-.07-.23-.12-.39-.16-.47-.03-.06-.04-.1-.04-.13,0-.02,0-.04,.03-.04,.01,0,.04,0,.07,.03Zm.34-.98c.08,.03,.17,.07,.25,.11,.11,.06,.17,.12,.21,.18,.03,.05,.04,.1,.04,.16s-.01,.11-.04,.18c-.03,.05-.07,.07-.12,.07-.01,0-.03-.01-.06-.04-.04-.04-.09-.12-.16-.24-.09-.15-.15-.26-.19-.31-.03-.04-.05-.07-.05-.09,0-.03,.01-.04,.03-.04,.02,0,.05,0,.09,.02Zm.95,.83c.1,.07,.15,.12,.15,.17,0,.02-.02,.05-.05,.09-.04,.09-.08,.18-.11,.26-.12,.24-.21,.4-.28,.48-.05,.06-.09,.1-.1,.1-.03,0-.04-.02-.04-.04,.06-.24,.1-.43,.13-.6,.02-.13,.03-.23,.03-.3,0-.03,0-.08-.03-.15,.01-.06,.04-.1,.09-.1,.06,0,.13,.03,.22,.08Zm1.01-.67c.09,.05,.14,.1,.14,.14,0,.05-.02,.09-.03,.12-.03,.09-.05,.23-.08,.43-.11,.57-.22,1.04-.34,1.41-.1,.34-.22,.62-.35,.84-.14,.24-.28,.43-.42,.54-.09,.07-.15,.11-.19,.11-.03,0-.04,0-.04-.02,.2-.31,.34-.56,.42-.76,.11-.2,.21-.5,.32-.88,.08-.31,.15-.65,.2-1.03,.05-.3,.07-.54,.07-.71,0-.05,0-.09,0-.11-.01-.05-.02-.09-.02-.1,.01-.05,.04-.07,.08-.07,.05,0,.13,.03,.24,.1Zm.51,1.03c.12,.07,.18,.13,.18,.18,0,.03-.02,.07-.05,.13-.04,.09-.08,.25-.11,.5-.06,.57-.12,.96-.17,1.16-.08,.3-.17,.51-.3,.62-.08,.07-.14,.1-.18,.1l-.03-.47s.08-.04,.11-.12c.08-.17,.14-.47,.21-.92,.05-.35,.07-.65,.07-.9,0-.08-.05-.12-.16-.12-.04,0-.11,.01-.2,.03-.1,.03-.21,.06-.31,.1-.03,0-.05,.01-.06,.01-.06,0-.12-.02-.19-.07-.07-.04-.1-.08-.1-.1,.01-.02,.04-.03,.09-.03,.1,0,.26-.03,.45-.08,.21-.04,.38-.09,.49-.13,.03,0,.04-.01,.05-.01,.02,0,.1,.03,.22,.1Zm-.66,2.23l.03,.47s-.08-.04-.12-.12c-.07-.12-.18-.26-.31-.4,0-.02,0-.02,.02-.02,.2,.05,.33,.07,.4,.07Zm2.52-2.99c.06,.03,.09,.06,.09,.1,0,.03-.04,.06-.12,.08-.09,.04-.29,.08-.61,.13-.48,.07-.78,.11-.93,.11s-.24-.02-.29-.05c-.06-.04-.08-.07-.08-.1s.06-.05,.17-.05c.27-.03,.57-.08,.89-.14,.22-.04,.4-.09,.54-.13,.05-.02,.08-.03,.1-.03,.06,0,.14,.02,.23,.07Zm.15,1.29c.13,.08,.19,.14,.19,.18,0,.04-.06,.06-.18,.07-.25,0-.53,.03-.85,.07-.18,.02-.42,.06-.71,.12-.06,.01-.09,.02-.11,.02-.08,0-.16-.02-.24-.06-.09-.04-.14-.07-.14-.11,0-.02,.04-.03,.11-.05,.6-.09,1.1-.17,1.49-.25,.14-.03,.22-.05,.26-.05,.02,0,.08,.02,.18,.06Zm-.1,.91c.13,.08,.19,.14,.19,.18,0,.04-.06,.06-.18,.07-.22,0-.46,.02-.74,.05-.15,.02-.36,.05-.62,.09-.05,.01-.08,.02-.09,.02-.08,0-.16-.02-.24-.06-.09-.04-.14-.07-.14-.11,0-.01,.04-.03,.11-.05,.53-.07,.96-.14,1.3-.21,.12-.03,.19-.04,.22-.04,.02,0,.08,.02,.18,.06Zm-1.54-1.77c.07,.06,.13,.13,.2,.21,.08,.12,.14,.23,.17,.33,.02,.09,.03,.18,.03,.29,0,.05-.01,.11-.04,.17-.03,.05-.07,.07-.11,.07,0,0-.02-.02-.04-.06-.03-.06-.07-.18-.12-.37-.07-.24-.11-.4-.15-.48-.03-.06-.04-.1-.04-.13,0-.02,0-.04,.03-.04,.01,0,.04,.01,.07,.03Zm.29-1.05c.08,.03,.17,.07,.25,.12,.1,.07,.17,.13,.21,.19,.03,.05,.04,.1,.04,.17s-.02,.13-.05,.21c-.04,.06-.08,.09-.14,.09-.01,0-.03-.01-.05-.04-.04-.04-.09-.13-.15-.26-.08-.17-.14-.28-.18-.34-.03-.04-.05-.07-.05-.09,0-.03,.01-.05,.03-.05,.02,0,.05,0,.09,.02Zm.27,2.13s.07,.02,.2,.07c.12,.06,.19,.12,.19,.19,0,0-.01,.03-.04,.09-.03,.1-.05,.21-.06,.32l-.03,1.39c0,.27-.03,.5-.09,.69-.05,.21-.09,.31-.13,.31-.05,0-.08-.07-.11-.22,0-.15-.01-.35-.01-.6v-1.63c0-.17-.02-.32-.05-.43-.02-.05-.03-.09-.03-.1,0-.05,.03-.08,.08-.09h.06Zm.7-1.2c.1,.07,.15,.12,.15,.17,0,.02-.02,.05-.06,.1-.04,.09-.08,.19-.12,.28-.12,.26-.23,.43-.31,.52-.06,.07-.09,.1-.11,.1-.03,0-.04-.02-.04-.04,.08-.25,.13-.47,.17-.65,.03-.14,.04-.25,.04-.33,0-.03,0-.08-.03-.15,.01-.06,.04-.1,.09-.1,.06,0,.13,.03,.22,.08Z" fill="#7d7e80"/><path d="M160.91,92.15c.16,.09,.24,.16,.24,.23,0,.06-.11,.09-.32,.09-.33,0-.69-.01-1.07-.01s-.92,.02-1.57,.07c-.46,.02-.96,.09-1.48,.2-.15,.04-.24,.05-.27,.05-.07,0-.18-.03-.32-.09-.15-.06-.22-.12-.22-.16,0-.05,.05-.08,.15-.09,.58,0,1.01-.03,1.28-.08,.52-.06,1.08-.1,1.7-.14,.58-.05,1.03-.1,1.34-.16,.13-.02,.21-.03,.25-.03,.03,0,.14,.03,.32,.1Zm.07,2.62c.15,.08,.22,.15,.22,.22,0,.06-.1,.09-.3,.09-.32,0-.66-.01-1.03-.01s-.89,.02-1.51,.06c-.45,.02-.92,.07-1.43,.16-.14,.03-.23,.04-.26,.04-.07,0-.16-.03-.29-.09-.14-.06-.21-.11-.21-.15,0-.05,.04-.07,.13-.08,.56,0,.97-.03,1.23-.07,.49-.05,1.04-.09,1.63-.11,.56-.04,.99-.08,1.29-.13,.12-.02,.2-.03,.24-.03,.03,0,.13,.03,.3,.1Zm-.83-.52c.08,.05,.12,.1,.12,.15,0,.02-.03,.07-.08,.15-.05,.08-.08,.17-.11,.26-.16,.46-.24,.69-.24,.7-.06,.17-.13,.26-.23,.26-.05,0-.1-.03-.13-.1-.03-.07-.05-.14-.05-.2,0-.01,.01-.04,.03-.09,.05-.1,.1-.26,.16-.48,.05-.14,.07-.26,.07-.35,0-.08-.04-.12-.14-.12-.14,0-.38,.01-.73,.05-.85,.07-1.38,.11-1.57,.11-.08,0-.15-.01-.2-.04-.04-.02-.07-.05-.07-.08,0-.04,.08-.07,.25-.08,.4-.01,1.1-.09,2.1-.23,.22-.05,.36-.08,.43-.08,.09,0,.22,.06,.37,.17Zm-2.93-1.23s.03,.01,.1,.04c.14,.05,.21,.11,.21,.18,0,.04,0,.07,0,.11,.04,.24,.06,.41,.06,.5,0,.07-.01,.12-.03,.16-.02,.04-.05,.07-.07,.07-.03,0-.07-.03-.1-.08-.05-.07-.08-.14-.08-.22l-.06-.24c-.02-.12-.05-.21-.08-.26-.02-.05-.06-.1-.13-.14-.03-.01-.04-.02-.04-.03,0-.06,.03-.09,.08-.09h.13Zm2.54,2.49c.14,.09,.21,.15,.21,.2,0,.05-.07,.07-.2,.07-.34,0-.73,.02-1.17,.04-.25,.01-.58,.04-.99,.07-.08,0-.13,.01-.15,.01-.09,0-.17-.02-.26-.07-.1-.04-.15-.08-.15-.12,0-.02,.04-.03,.12-.05,.83-.07,1.51-.13,2.04-.19,.19-.02,.3-.04,.35-.04,.02,0,.09,.02,.2,.06Zm-.04-2.74s.08,.04,.24,.12c.17,.11,.25,.19,.25,.25,0,.02-.02,.04-.05,.06-.11,.07-.2,.15-.25,.24l-.11,.15c-.05,.07-.12,.1-.21,.1-.11,0-.17-.03-.17-.09,0,0,0-.03,.02-.06,.01-.05,.03-.12,.06-.22,.02-.08,.02-.13,.02-.15,0-.06-.06-.09-.18-.09-.14,0-.37,.02-.67,.05-.35,.04-.68,.09-1,.16-.06,.02-.12,.03-.16,.03-.07,0-.14-.02-.21-.07-.07-.04-.1-.07-.1-.1,0-.04,.03-.06,.1-.06,.15,0,.3-.02,.46-.05,.34-.05,.84-.11,1.5-.19,.1-.01,.2-.03,.29-.06,.06-.01,.1-.02,.12-.02h.07Zm-.13,.75s.05,.03,.16,.08c.08,.06,.12,.1,.12,.14s-.03,.06-.09,.06c-.25,0-.48,.01-.68,.04l-.96,.08c-.18,.02-.31,.03-.41,.03s-.16-.02-.2-.05c-.04-.04-.05-.07-.05-.1,0-.04,.03-.07,.08-.07,.52-.03,1.01-.08,1.46-.15,.25-.03,.41-.05,.5-.05h.08Zm-.91-1.86c.14,.09,.21,.17,.21,.25,0,.04-.03,.09-.06,.15-.06,.15-.1,.36-.12,.63-.05,.57-.07,1.35-.07,2.34v.84c.02,.28,.03,.55,.03,.81,0,.17-.05,.33-.15,.47-.08,.13-.15,.2-.19,.2-.05,0-.12-.05-.19-.14-.19-.24-.36-.41-.52-.54-.06-.04-.09-.08-.09-.09,0-.03,.02-.04,.05-.04,.26,.06,.42,.09,.49,.09s.11-.04,.12-.1c.03-.11,.06-.33,.08-.68,.04-.71,.05-1.5,.05-2.38,0-.53-.01-.93-.03-1.19-.03-.21-.05-.35-.09-.42-.02-.07-.03-.14-.04-.2,0-.09,.04-.13,.13-.13,.08,0,.2,.05,.38,.15Z" fill="#7d7e80"/><path d="M169.01,93c.12,.03,.17,.08,.17,.15-.02,.07-.03,.11-.03,.13-.06,.66-.15,1.21-.26,1.65-.1,.37-.22,.7-.37,.97-.18,.28-.37,.49-.57,.63-.02,.02-.05,.02-.09,.02,0,0,0,0,0-.02,.16-.21,.29-.43,.39-.66,.19-.4,.32-.82,.4-1.24,.08-.4,.11-.81,.11-1.22,0-.07-.01-.15-.05-.23-.04-.07-.05-.11-.05-.13,0-.05,.03-.08,.09-.08,.04,0,.12,0,.27,.03Zm1.49,1.72c.09,.08,.13,.14,.13,.16,0,.04-.02,.09-.07,.14-.08,.08-.16,.17-.23,.26-.22,.39-.44,.7-.66,.95-.2,.22-.42,.38-.65,.49-.19,.11-.33,.16-.43,.16-.05,0-.07,0-.07-.03,0-.02,.03-.04,.08-.08,.41-.31,.71-.58,.9-.81,.2-.26,.36-.5,.47-.71,.09-.18,.14-.3,.14-.34,0-.02,0-.03-.03-.03-.02,0-.04,0-.07,.03-.16,.09-.25,.13-.27,.13-.05,0-.11-.02-.18-.07-.08-.05-.12-.09-.12-.11,0-.02,.03-.03,.08-.04,.26-.03,.49-.09,.7-.18,.03-.02,.06-.03,.06-.03,.03,0,.09,.04,.19,.11Zm1.66-2.15c.2,.11,.3,.2,.3,.26,0,.04-.03,.07-.08,.1-.1,.03-.17,.05-.22,.09-.1,.03-.29,.13-.59,.3-.03,0-.05,0-.05-.03,.09-.14,.17-.29,.23-.47,0-.04-.03-.07-.08-.07-.07,0-.27,.03-.6,.08-.55,.08-1.12,.17-1.71,.29-.16,.04-.26,.06-.3,.06-.05,0-.11-.02-.17-.05-.07-.05-.11-.09-.11-.13,0-.02,.05-.04,.15-.05,.76-.1,1.52-.23,2.27-.4,.36-.09,.55-.14,.59-.14,.05,0,.17,.05,.37,.15Zm-2.32,1.73c.09,.07,.13,.12,.12,.16,0,.03,0,.06-.02,.08-.13,.16-.23,.32-.31,.45-.12,.21-.25,.38-.38,.54-.08,.1-.19,.18-.3,.25-.04,.03-.06,.04-.08,.04-.03,0-.05,0-.05-.03,.33-.46,.53-.79,.6-.98,.07-.14,.1-.33,.11-.55,0-.03,.03-.05,.06-.05,.05,0,.13,.03,.25,.09Zm-.48,1.04l.31,.2c.86,.49,1.45,.79,1.78,.89,.29,.1,.84,.22,1.65,.35,.18,.03,.27,.05,.27,.08,0,.03-.05,.06-.16,.09l-.58,.16c-.27,.08-.47,.12-.6,.12-.14,0-.3-.05-.48-.14-.34-.18-.79-.48-1.37-.91-.26-.21-.57-.43-.92-.64-.07-.04-.1-.08-.1-.11,0-.05,.02-.08,.06-.08h.13Zm1.94-2c.1,.05,.14,.09,.14,.12,0,.04-.03,.06-.1,.07-.32,.03-.73,.11-1.24,.24-.25,.06-.39,.09-.41,.09-.06,0-.12,0-.19-.02-.11-.03-.17-.06-.17-.1,0-.02,.02-.03,.06-.04,.33-.06,.78-.18,1.36-.37,.15-.05,.24-.08,.27-.08,.03,0,.12,.03,.27,.08Zm-.85-1.78c.08,.04,.12,.09,.12,.14,0,.03,0,.07-.02,.11-.02,.07-.02,.14-.02,.19l-.06,.89h-.29l-.04-1.01c0-.06-.02-.12-.06-.18-.03-.03-.04-.06-.04-.07,0-.07,.04-.11,.12-.11s.17,.02,.29,.07Zm0,1.41c.07,.03,.1,.07,.1,.12,0,.01-.02,.04-.04,.08-.05,.13-.08,.34-.08,.65,0,.07,.02,.13,.05,.16,.04,.03,.1,.05,.18,.05,.25,0,.47-.03,.64-.1,.09-.05,.15-.07,.19-.07,.08,0,.15,.02,.21,.06,.08,.05,.12,.1,.12,.16,0,.04-.05,.08-.15,.12-.22,.08-.47,.12-.75,.12-.29,0-.49-.05-.6-.14-.1-.09-.15-.21-.15-.36,0-.1,0-.19,0-.27,0-.08-.01-.14-.01-.19,0-.12-.01-.22-.03-.29-.02-.03-.03-.06-.03-.09,0-.05,.02-.07,.07-.07,.09,0,.19,.02,.29,.07Zm.97-1.05c.1,.05,.15,.09,.15,.13,0,.05-.05,.09-.16,.12-.15,.03-.3,.06-.45,.09-.08,.02-.15,.02-.22,.02-.08,0-.16,0-.24-.02-.08-.02-.12-.04-.12-.06,0-.03,.05-.05,.15-.07,.32-.11,.51-.17,.58-.2,.09-.03,.14-.05,.15-.05,.02,0,.07,.01,.16,.04Zm-.52,2.7s.05,.02,.16,.07c.08,.04,.12,.08,.12,.12,0,0,0,.02-.02,.03-.02,.04-.03,.08-.03,.12v.23c-.01,.12-.03,.22-.07,.32-.04,.09-.08,.17-.14,.23-.05,.06-.13,.11-.24,.16-.1,.04-.17,.07-.2,.07-.02,0-.03,0-.03-.02,.11-.09,.18-.17,.23-.23,.06-.08,.1-.17,.12-.27,.03-.1,.05-.22,.05-.34v-.14c0-.07-.01-.13-.04-.17,0-.03-.02-.05-.05-.07-.04-.02-.06-.03-.06-.03,0-.05,.03-.07,.08-.07h.12Zm.94-.08c.1,.08,.15,.14,.15,.17,0,.01-.01,.03-.04,.06-.05,.05-.08,.15-.11,.27-.04,.16-.05,.28-.05,.37,0,.12,.02,.2,.07,.24,.04,.04,.12,.06,.24,.06,.08,0,.14-.02,.18-.06,.04-.05,.08-.22,.1-.48,0-.03,0-.04,0-.04,.03,0,.05,.02,.05,.05,.08,.23,.14,.36,.21,.41,.06,.04,.09,.07,.09,.09,0,.08-.04,.16-.12,.24-.1,.09-.25,.14-.44,.14-.21,0-.37-.04-.48-.13-.12-.09-.17-.26-.17-.51,0-.12,0-.27-.03-.46,0-.04,0-.07,0-.09,0-.04-.02-.06-.06-.06,0,0-.02,0-.05,.01-.13,.07-.21,.1-.24,.1-.06,0-.11-.01-.15-.04-.04-.02-.06-.04-.06-.07,0-.01,.02-.03,.05-.04,.09-.02,.18-.05,.28-.1,.11-.06,.21-.12,.3-.19,.05-.04,.07-.05,.08-.05,.05,0,.11,.03,.2,.1Z" fill="#7d7e80"/></g><path d="M48.39,104.32l.73,.3c-.11,.53-.3,.92-.56,1.18-.26,.26-.6,.39-1,.39-.5,0-.91-.22-1.23-.66-.32-.44-.48-1.04-.48-1.8,0-.8,.16-1.43,.49-1.87,.32-.44,.75-.67,1.28-.67,.46,0,.83,.18,1.12,.53,.17,.21,.3,.5,.38,.89l-.75,.23c-.04-.25-.14-.45-.28-.59-.14-.15-.31-.22-.52-.22-.28,0-.5,.13-.68,.39-.17,.26-.26,.67-.26,1.25,0,.61,.09,1.04,.26,1.3,.17,.26,.39,.39,.67,.39,.2,0,.37-.08,.52-.25,.14-.17,.25-.43,.31-.78Z" fill="#231815"/><path d="M54.48,106.13h-.72l-.29-.74h-1.31l-.27,.74h-.7l1.27-3.27h.7l1.31,3.27Zm-1.22-1.3l-.45-1.21-.44,1.21h.89Z" fill="#231815"/><path d="M56.43,106.13v-3.27h.64l1.34,2.19v-2.19h.61v3.27h-.66l-1.32-2.14v2.14h-.61Z" fill="#231815"/><path d="M64.27,106.13h-.72l-.28-.74h-1.31l-.27,.74h-.7l1.27-3.27h.7l1.31,3.27Zm-1.22-1.3l-.45-1.21-.44,1.21h.89Z" fill="#231815"/><path d="M66.22,102.86h1.21c.27,0,.48,.02,.62,.06,.19,.06,.36,.16,.49,.3,.14,.14,.24,.32,.31,.53,.07,.21,.11,.47,.11,.77,0,.27-.03,.5-.1,.7-.08,.24-.2,.43-.35,.58-.11,.11-.27,.2-.46,.26-.15,.05-.34,.07-.59,.07h-1.24v-3.27Zm.66,.55v2.16h.49c.18,0,.32-.01,.4-.03,.11-.03,.2-.07,.27-.14,.07-.06,.13-.17,.17-.31,.04-.15,.07-.35,.07-.6s-.02-.45-.07-.58c-.05-.13-.11-.24-.19-.31-.08-.08-.18-.13-.31-.15-.09-.02-.27-.03-.54-.03h-.3Z" fill="#231815"/><path d="M71.1,106.13v-3.27h.66v3.27h-.66Z" fill="#231815"/><path d="M76.94,106.13h-.72l-.29-.74h-1.31l-.27,.74h-.7l1.27-3.27h.7l1.31,3.27Zm-1.22-1.3l-.45-1.21-.44,1.21h.89Z" fill="#231815"/><path d="M78.89,106.13v-3.27h.64l1.34,2.19v-2.19h.61v3.27h-.66l-1.32-2.14v2.14h-.61Z" fill="#231815"/><path d="M90.02,106.13v-3.27h1.39c.35,0,.6,.03,.76,.09,.16,.06,.29,.16,.38,.31,.09,.15,.14,.32,.14,.52,0,.24-.07,.45-.21,.61-.14,.16-.36,.26-.65,.3,.14,.08,.26,.17,.35,.28,.09,.1,.22,.28,.37,.53l.4,.64h-.79l-.47-.71c-.17-.25-.28-.41-.35-.48-.06-.07-.13-.11-.2-.13-.07-.03-.18-.04-.33-.04h-.13v1.36h-.66Zm.66-1.89h.49c.32,0,.51-.01,.59-.04,.08-.03,.14-.07,.18-.14,.04-.07,.07-.15,.07-.24,0-.11-.03-.2-.09-.27-.06-.07-.14-.11-.25-.13-.05,0-.21-.01-.48-.01h-.51v.83Z" fill="#231815"/><path d="M98.1,106.13h-.72l-.29-.74h-1.31l-.27,.74h-.7l1.27-3.27h.7l1.31,3.27Zm-1.22-1.3l-.45-1.21-.44,1.21h.89Z" fill="#231815"/><path d="M100.27,102.86h1.21c.27,0,.48,.02,.62,.06,.19,.06,.36,.16,.49,.3,.14,.14,.24,.32,.31,.53,.07,.21,.11,.47,.11,.77,0,.27-.03,.5-.1,.7-.08,.24-.2,.43-.35,.58-.11,.11-.27,.2-.46,.26-.15,.05-.34,.07-.58,.07h-1.24v-3.27Zm.66,.55v2.16h.49c.18,0,.32-.01,.4-.03,.11-.03,.2-.07,.27-.14,.07-.06,.13-.17,.17-.31,.05-.15,.07-.35,.07-.6s-.02-.45-.07-.58c-.04-.13-.11-.24-.19-.31-.08-.08-.18-.13-.31-.15-.09-.02-.27-.03-.54-.03h-.3Z" fill="#231815"/><path d="M105.4,106.13v-3.27h2.42v.55h-1.76v.72h1.64v.55h-1.64v.88h1.82v.55h-2.48Z" fill="#231815"/><path d="M112.1,103.53c0-.53,.07-.97,.2-1.33,.1-.26,.23-.5,.41-.71,.17-.21,.36-.37,.56-.47,.27-.14,.58-.2,.94-.2,.64,0,1.15,.24,1.54,.71,.38,.47,.58,1.13,.58,1.98s-.19,1.49-.57,1.96c-.38,.47-.89,.71-1.53,.71s-1.16-.24-1.54-.71c-.38-.47-.57-1.12-.57-1.94Zm.91-.04c0,.59,.11,1.03,.34,1.33,.23,.3,.52,.45,.87,.45s.64-.15,.86-.45c.22-.3,.34-.75,.34-1.35s-.11-1.03-.33-1.33c-.22-.29-.51-.44-.87-.44s-.65,.15-.88,.44c-.22,.29-.33,.74-.33,1.34Z" fill="#231815"/><path d="M119.56,106.13v-3.27h2.24v.55h-1.58v.77h1.36v.55h-1.36v1.39h-.66Z" fill="#231815"/><path d="M123.5,106.13v-3.27h2.24v.55h-1.58v.77h1.36v.55h-1.36v1.39h-.66Z" fill="#231815"/><path d="M127.41,106.13v-3.27h.66v3.27h-.66Z" fill="#231815"/><path d="M131.93,104.92l.64,.2c-.1,.36-.26,.63-.49,.8-.23,.17-.52,.26-.87,.26-.44,0-.79-.15-1.07-.44-.28-.3-.42-.7-.42-1.22,0-.54,.14-.97,.42-1.27,.28-.3,.65-.45,1.11-.45,.4,0,.73,.12,.98,.35,.15,.14,.26,.34,.33,.6l-.65,.16c-.04-.17-.12-.3-.24-.4-.12-.1-.27-.15-.45-.15-.24,0-.44,.09-.59,.26-.15,.17-.23,.45-.23,.84,0,.41,.07,.71,.22,.88,.15,.17,.34,.26,.58,.26,.18,0,.33-.06,.45-.17,.13-.11,.22-.29,.27-.53Z" fill="#231815"/><path d="M134.28,106.13v-3.27h2.42v.55h-1.76v.72h1.64v.55h-1.64v.88h1.82v.55h-2.48Z" fill="#231815"/><path d="M140.63,106.13v-3.27h.66v3.27h-.66Z" fill="#231815"/><path d="M143.75,106.13v-3.27h.64l1.34,2.19v-2.19h.61v3.27h-.66l-1.32-2.14v2.14h-.61Z" fill="#231815"/><path d="M153.03,106.13v-4.26h-1.09v-.87h2.92v.87h-1.09v4.26h-.74Z" fill="#231815"/><path d="M159.29,106.13h-.72l-.28-.74h-1.31l-.27,.74h-.7l1.27-3.27h.7l1.31,3.27Zm-1.22-1.3l-.45-1.21-.44,1.21h.89Z" fill="#231815"/><path d="M160.99,106.13v-3.27h.66v3.27h-.66Z" fill="#231815"/><path d="M163.65,106.13v-3.27h1.06c.4,0,.66,.02,.78,.05,.19,.05,.34,.16,.47,.32,.13,.16,.19,.38,.19,.64,0,.2-.04,.37-.11,.51-.07,.14-.17,.25-.28,.32-.11,.08-.23,.13-.34,.15-.16,.03-.38,.05-.68,.05h-.43v1.23h-.66Zm.66-2.71v.93h.36c.26,0,.43-.02,.52-.05,.09-.03,.16-.09,.21-.16,.05-.07,.07-.16,.07-.26,0-.12-.03-.22-.1-.29-.07-.08-.16-.13-.26-.14-.08-.02-.24-.02-.47-.02h-.32Z" fill="#231815"/><path d="M168.06,106.13v-3.27h2.42v.55h-1.76v.72h1.63v.55h-1.63v.88h1.82v.55h-2.48Z" fill="#231815"/><path d="M172.46,106.13v-3.27h.66v3.27h-.66Z" fill="#231815"/><path d="M46.02,109.99h1.55c.31,0,.54,.01,.69,.05,.15,.03,.28,.1,.4,.21,.12,.1,.22,.24,.3,.41,.08,.17,.12,.37,.12,.58,0,.23-.05,.44-.15,.64-.1,.19-.23,.34-.4,.44,.24,.09,.42,.24,.54,.45,.13,.21,.19,.46,.19,.75,0,.23-.04,.45-.12,.66-.08,.21-.19,.38-.34,.51-.14,.13-.32,.21-.53,.24-.13,.02-.45,.03-.95,.03h-1.32v-4.95Zm.79,.82v1.14h.51c.3,0,.49,0,.57-.02,.13-.02,.24-.08,.32-.18,.08-.1,.12-.23,.12-.39s-.03-.28-.1-.37c-.06-.1-.16-.15-.29-.17-.08-.01-.3-.02-.67-.02h-.45Zm0,1.97v1.32h.73c.28,0,.46-.01,.54-.03,.12-.03,.21-.09,.29-.2,.07-.1,.11-.24,.11-.42,0-.15-.03-.28-.08-.38-.06-.1-.14-.18-.25-.23-.11-.05-.34-.07-.7-.07h-.63Z" fill="#231815"/><path d="M50.75,111.67h.66v1.77c0,.28,0,.46,.03,.55,.03,.13,.09,.24,.2,.32,.11,.08,.25,.12,.44,.12s.33-.04,.42-.11c.1-.08,.15-.17,.17-.28,.02-.11,.03-.3,.03-.56v-1.81h.66v1.72c0,.39-.02,.67-.05,.83-.03,.16-.1,.3-.2,.41-.1,.11-.22,.2-.39,.27-.16,.07-.37,.1-.63,.1-.31,0-.55-.04-.71-.11-.16-.07-.29-.16-.38-.28-.09-.11-.16-.23-.19-.36-.04-.19-.06-.46-.06-.83v-1.74Z" fill="#231815"/><path d="M54.52,114.94v-3.27h1.39c.35,0,.6,.03,.76,.09,.16,.06,.29,.16,.38,.31,.1,.15,.14,.32,.14,.52,0,.24-.07,.45-.22,.61-.14,.16-.36,.26-.64,.3,.14,.08,.26,.17,.35,.27,.09,.1,.22,.28,.38,.53l.4,.64h-.79l-.47-.71c-.17-.25-.29-.41-.35-.48-.06-.07-.13-.11-.2-.14-.07-.03-.18-.04-.33-.04h-.13v1.36h-.66Zm.66-1.89h.49c.32,0,.51-.01,.59-.04,.08-.03,.14-.07,.18-.14,.05-.07,.07-.15,.07-.24,0-.11-.03-.2-.09-.27-.06-.07-.14-.11-.25-.13-.05,0-.21-.01-.48-.01h-.51v.83Z" fill="#231815"/><path d="M58.27,114.94v-3.27h2.42v.56h-1.76v.72h1.64v.55h-1.64v.88h1.82v.55h-2.48Z" fill="#231815"/><path d="M64.72,114.94h-.72l-.29-.74h-1.31l-.27,.74h-.7l1.27-3.27h.7l1.31,3.27Zm-1.22-1.3l-.45-1.21-.44,1.21h.89Z" fill="#231815"/><path d="M65.52,111.67h.66v1.77c0,.28,0,.46,.02,.55,.03,.13,.1,.24,.2,.32,.11,.08,.25,.12,.44,.12s.33-.04,.42-.11c.09-.08,.15-.17,.17-.28,.02-.11,.03-.3,.03-.56v-1.81h.66v1.72c0,.39-.02,.67-.06,.83-.03,.16-.1,.3-.2,.41-.1,.11-.23,.2-.39,.27-.16,.07-.37,.1-.63,.1-.31,0-.55-.04-.71-.11-.16-.07-.29-.16-.38-.28-.09-.11-.16-.23-.19-.36-.04-.19-.06-.46-.06-.83v-1.74Z" fill="#231815"/><path d="M73.56,113.74l.64,.2c-.1,.36-.26,.63-.49,.8-.23,.17-.52,.26-.87,.26-.43,0-.79-.15-1.07-.45-.28-.3-.42-.7-.42-1.22,0-.54,.14-.96,.42-1.27,.28-.3,.65-.45,1.11-.45,.4,0,.72,.12,.97,.35,.15,.14,.26,.34,.34,.6l-.65,.16c-.04-.17-.12-.3-.24-.4-.12-.1-.27-.15-.45-.15-.24,0-.44,.09-.59,.26-.15,.17-.23,.45-.23,.84,0,.41,.07,.71,.22,.88,.15,.17,.34,.26,.58,.26,.18,0,.33-.06,.45-.17,.13-.11,.22-.29,.27-.53Z" fill="#231815"/><path d="M75.36,113.33c0-.33,.05-.61,.15-.84,.07-.17,.18-.31,.3-.45,.13-.13,.27-.23,.42-.3,.2-.09,.44-.13,.71-.13,.48,0,.87,.15,1.15,.45,.29,.3,.43,.71,.43,1.24s-.14,.94-.43,1.24c-.29,.3-.67,.45-1.15,.45s-.87-.15-1.16-.45c-.29-.3-.43-.71-.43-1.23Zm.68-.02c0,.37,.09,.65,.26,.84,.17,.19,.39,.29,.65,.29s.48-.09,.65-.28c.17-.19,.25-.47,.25-.85s-.08-.65-.25-.84c-.16-.18-.38-.28-.66-.28s-.49,.09-.66,.28c-.17,.19-.25,.47-.25,.84Z" fill="#231815"/><path d="M79.77,114.94v-3.27h.99l.59,2.23,.59-2.23h.99v3.27h-.61v-2.57l-.65,2.57h-.63l-.65-2.57v2.57h-.61Z" fill="#231815"/><path d="M84.31,114.94v-3.27h.99l.59,2.23,.59-2.23h.99v3.27h-.61v-2.57l-.65,2.57h-.63l-.64-2.57v2.57h-.61Z" fill="#231815"/><path d="M88.85,114.94v-3.27h2.42v.56h-1.76v.72h1.64v.55h-1.64v.88h1.82v.55h-2.49Z" fill="#231815"/><path d="M92.63,114.94v-3.27h1.39c.35,0,.6,.03,.76,.09,.16,.06,.29,.16,.38,.31,.09,.15,.14,.32,.14,.52,0,.24-.07,.45-.22,.61-.14,.16-.36,.26-.64,.3,.14,.08,.26,.17,.35,.27,.09,.1,.22,.28,.37,.53l.4,.64h-.79l-.47-.71c-.17-.25-.29-.41-.35-.48-.06-.07-.13-.11-.2-.14-.07-.03-.18-.04-.33-.04h-.13v1.36h-.66Zm.66-1.89h.49c.32,0,.51-.01,.59-.04,.08-.03,.14-.07,.18-.14,.04-.07,.07-.15,.07-.24,0-.11-.03-.2-.09-.27-.06-.07-.14-.11-.25-.13-.05,0-.21-.01-.48-.01h-.52v.83Z" fill="#231815"/><path d="M98.75,113.74l.64,.2c-.1,.36-.26,.63-.49,.8-.23,.17-.52,.26-.87,.26-.43,0-.79-.15-1.07-.45-.28-.3-.42-.7-.42-1.22,0-.54,.14-.96,.42-1.27,.28-.3,.65-.45,1.11-.45,.4,0,.73,.12,.98,.35,.15,.14,.26,.34,.33,.6l-.65,.16c-.04-.17-.12-.3-.24-.4-.12-.1-.27-.15-.45-.15-.24,0-.44,.09-.59,.26-.15,.17-.23,.45-.23,.84,0,.41,.07,.71,.22,.88,.15,.17,.34,.26,.58,.26,.18,0,.33-.06,.45-.17,.13-.11,.22-.29,.27-.53Z" fill="#231815"/><path d="M100.67,114.94v-3.27h.66v3.27h-.66Z" fill="#231815"/><path d="M105.64,114.94h-.72l-.28-.74h-1.31l-.27,.74h-.7l1.27-3.27h.7l1.31,3.27Zm-1.22-1.3l-.45-1.21-.44,1.21h.89Z" fill="#231815"/><path d="M106.74,114.94v-3.24h.66v2.69h1.64v.55h-2.3Z" fill="#231815"/><path d="M111.42,111.67h1.21c.27,0,.48,.02,.62,.06,.19,.06,.36,.16,.49,.3,.14,.15,.24,.32,.31,.53,.07,.21,.11,.47,.11,.77,0,.27-.03,.5-.1,.7-.08,.24-.2,.43-.35,.58-.11,.11-.27,.2-.46,.26-.15,.04-.34,.07-.59,.07h-1.24v-3.27Zm.66,.56v2.16h.49c.18,0,.32-.01,.4-.03,.11-.02,.2-.07,.27-.13,.07-.06,.13-.17,.17-.31,.05-.15,.07-.35,.07-.6s-.02-.44-.07-.58c-.04-.13-.11-.24-.19-.31-.08-.08-.18-.13-.31-.15-.09-.02-.27-.03-.54-.03h-.3Z" fill="#231815"/><path d="M115.63,111.67h.66v1.77c0,.28,0,.46,.03,.55,.03,.13,.09,.24,.2,.32,.11,.08,.25,.12,.44,.12s.33-.04,.42-.11c.1-.08,.15-.17,.17-.28,.02-.11,.03-.3,.03-.56v-1.81h.66v1.72c0,.39-.02,.67-.05,.83-.03,.16-.1,.3-.2,.41-.1,.11-.22,.2-.39,.27-.16,.07-.37,.1-.63,.1-.31,0-.55-.04-.71-.11-.16-.07-.29-.16-.38-.28-.09-.11-.16-.23-.19-.36-.04-.19-.06-.46-.06-.83v-1.74Z" fill="#231815"/><path d="M124.55,112.99l.76,.32c-.12,.57-.31,.99-.58,1.27-.27,.28-.61,.42-1.03,.42-.52,0-.94-.24-1.27-.71-.33-.47-.5-1.12-.5-1.93,0-.86,.17-1.54,.5-2.02,.33-.48,.77-.72,1.32-.72,.47,0,.86,.19,1.16,.56,.18,.22,.31,.54,.4,.96l-.77,.25c-.05-.27-.14-.48-.29-.64-.15-.16-.32-.24-.53-.24-.29,0-.52,.14-.7,.42-.18,.28-.27,.72-.27,1.34,0,.66,.09,1.12,.26,1.4,.18,.28,.41,.42,.69,.42,.21,0,.39-.09,.54-.27,.15-.18,.26-.46,.32-.84Z" fill="#231815"/><path d="M129.19,114.94h-.72l-.28-.74h-1.31l-.27,.74h-.7l1.27-3.27h.7l1.31,3.27Zm-1.22-1.3l-.45-1.21-.44,1.21h.89Z" fill="#231815"/><path d="M130.46,114.94v-3.27h.64l1.34,2.19v-2.19h.61v3.27h-.66l-1.32-2.14v2.14h-.61Z" fill="#231815"/><path d="M137.62,114.94h-.72l-.28-.74h-1.31l-.27,.74h-.7l1.27-3.27h.7l1.31,3.27Zm-1.22-1.3l-.45-1.21-.44,1.21h.89Z" fill="#231815"/><path d="M138.88,111.67h1.21c.27,0,.48,.02,.62,.06,.19,.06,.36,.16,.49,.3,.14,.15,.24,.32,.31,.53,.07,.21,.11,.47,.11,.77,0,.27-.03,.5-.1,.7-.08,.24-.2,.43-.35,.58-.11,.11-.27,.2-.46,.26-.15,.04-.34,.07-.59,.07h-1.24v-3.27Zm.66,.56v2.16h.49c.18,0,.32-.01,.4-.03,.1-.02,.2-.07,.26-.13,.07-.06,.13-.17,.17-.31,.05-.15,.07-.35,.07-.6s-.02-.44-.07-.58c-.05-.13-.11-.24-.19-.31-.08-.08-.18-.13-.31-.15-.09-.02-.27-.03-.54-.03h-.3Z" fill="#231815"/><path d="M146.04,114.94h-.72l-.28-.74h-1.31l-.27,.74h-.7l1.27-3.27h.7l1.31,3.27Zm-1.22-1.3l-.45-1.21-.44,1.21h.89Z" fill="#231815"/><path d="M152.1,114.94h-.72l-.28-.74h-1.31l-.27,.74h-.7l1.27-3.27h.7l1.31,3.27Zm-1.22-1.3l-.45-1.21-.44,1.21h.89Z" fill="#231815"/><path d="M161.23,114.94h-.72l-.28-.74h-1.31l-.27,.74h-.7l1.27-3.27h.7l1.31,3.27Zm-1.22-1.3l-.45-1.21-.44,1.21h.89Z" fill="#231815"/><path d="M162.48,114.94v-3.27h.66v3.27h-.66Z" fill="#231815"/><path d="M164.68,114.94v-3.27h1.06c.4,0,.66,.02,.78,.05,.19,.05,.34,.16,.47,.32,.12,.16,.19,.38,.19,.64,0,.2-.04,.37-.11,.51-.07,.14-.17,.25-.28,.32-.11,.08-.23,.13-.34,.16-.16,.03-.39,.05-.68,.05h-.43v1.23h-.66Zm.66-2.71v.93h.36c.26,0,.43-.02,.52-.05,.09-.03,.16-.09,.21-.16,.05-.07,.07-.16,.07-.25,0-.12-.03-.22-.1-.29-.07-.08-.16-.13-.26-.15-.08-.01-.24-.02-.47-.02h-.32Z" fill="#231815"/><path d="M168.64,114.94v-3.27h2.42v.56h-1.76v.72h1.64v.55h-1.64v.88h1.82v.55h-2.48Z" fill="#231815"/><path d="M172.58,114.94v-3.27h.66v3.27h-.66Z" fill="#231815"/><g><g><path d="M57.52,55.61c-.41,.11-.73,.24-.95,.38-2.84,1.4-4.84,2.5-6,3.3-.6,.48-1.12,.74-1.57,.77-.6,.07-1.29-.07-2.07-.44-.64-.37-1.12-.84-1.46-1.43-.23-.48,.07-.6,.9-.39,.56,.07,1.36-.07,2.41-.44,5.3-2.2,8.4-3.41,9.3-3.63,.86-3.23,.84-5.46-.06-6.71-.3-.37-.73-.62-1.29-.77-.71-.15-.94-.35-.67-.6,.22-.22,.73-.33,1.51-.33,1.42,.26,2.43,1.34,3.03,3.25,.45,1.5,.65,2.97,.62,4.4,2.09-.44,3.7-.22,4.82,.66,1.79,1.47,2.69,3.52,2.69,6.16,.15,2.31-.35,5.52-1.51,9.63-.04,.04-.06,.11-.06,.22-1.35,4.59-2.97,7.94-4.88,10.07-1.23,1.32-2.26,1.93-3.08,1.82-.08-.04-.11-.04-.11,0-2.24-.51-4.17-1.87-5.77-4.07-.41-.66-.04-.58,1.12,.22,1.42,.55,2.54,.81,3.36,.77,.52,0,.9-.11,1.12-.33,.49-.4,1.01-.93,1.57-1.6,4.15-7.15,5.98-13.48,5.49-18.98-.15-1.58-.69-2.59-1.63-3.03-.86-.44-1.96-.44-3.31,0-.04,.11-.05,.24-.05,.38-.11,1.39-1.07,3.76-2.86,7.1-1.72,3.41-3.7,6.38-5.94,8.91-2.2,2.68-4.31,4.57-6.33,5.67-.52,.3-.84,.37-.95,.22-.11-.22,.02-.46,.39-.71,2.8-2.24,5.9-6.6,9.3-13.1,.11-.26,1.08-2.72,2.92-7.37Zm26.06,11.11c2.65-4.22,3.98-7.45,3.98-9.68-.23-.62-.51-.94-.84-.94-.93-.18-2.97,.44-6.11,1.87-1.98,.92-3.64,1.03-4.99,.33-.49-.37-.73-.62-.73-.77,.07-.22,.34-.31,.78-.28,.52-.04,1.19-.18,2.02-.44,5.72-1.94,9.19-2.68,10.43-2.2,1.12,.59,1.98,1.71,2.58,3.36,.49,1.8-1.03,4.68-4.54,8.64,.48,.11,.8,.29,.95,.55,.26,.37,.33,.73,.22,1.1-.08,.4-.39,.63-.95,.66-.78,.11-1.59,.29-2.41,.55-3.06,.81-5.57,.99-7.51,.55-.11,.51-.28,.79-.5,.82-.15,.04-.45-.24-.9-.82-1.42-2.13-2.32-5.17-2.69-9.13-.04-.66-.36-1.56-.95-2.7-.22-.51-.22-.82,0-.94,.22-.11,.52-.04,.9,.22,.56,.37,1.08,.79,1.57,1.27,1.76,1.54,2.63,5.03,2.63,10.45,1.68-.44,4.03-1.27,7.06-2.48Z" fill="#7d7e80"/><path d="M113.37,35.03c.33,.11,.67,.38,1.01,.82,.37,.59,.54,1.06,.5,1.42-.07,.37-1.08,2.03-3.01,4.99-.89,1.24-1.73,2.43-2.51,3.56-6.66,9.1-11.96,14.09-15.91,14.96-.33,.11-.5,.11-.5,0s.13-.24,.39-.38c2.01-1.2,5.03-4.02,9.04-8.44,5.69-7.93,8.71-12.6,9.04-14.03,.07-.8-.52-.8-1.79,0-.3,.22-.5,.27-.61,.16-.11-.15-.06-.35,.17-.6,.74-.88,1.52-1.55,2.34-2.03,.75-.4,1.36-.55,1.84-.44Zm3.01,38.31c-.07-1.17-.17-2.05-.28-2.63-.34,.11-1.17,.5-2.51,1.15-1.15,.55-2.62,.66-4.41,.33-.74-.14-.56-.44,.56-.88,1.78-.66,3.76-1.39,5.92-2.19-.71-1.57-1.56-2.12-2.57-1.65-.45,.18-.8,.26-1.06,.22-.11-.07-.22-.18-.33-.33-.07-.14,0-.38,.22-.71,.33-.44,1-.73,2.01-.88,3.27-1.64,4.91-3.29,4.91-4.93-.04-.22,0-.33,.11-.33,.07-.04,.19,.02,.33,.17,.19,.22,.34,.46,.45,.71,.45,1.43,.43,2.52-.05,3.29-.19,.25-1.51,.79-3.97,1.59-.19,.22-.3,.38-.33,.49,0,.11,.07,.24,.22,.38,.45,.47,.8,1,1.06,1.59,.07-.08,.17-.11,.28-.11,3.5-1.39,5.75-1.84,6.75-1.37,.52,.22,.8,.51,.84,.88,.04,.22-.22,.49-.78,.82-1.34,.77-3.24,2.27-5.69,4.49,.15,.84,.28,1.77,.39,2.8,.26-.18,.56-.33,.89-.44,4.73-2.37,7.93-3.27,9.6-2.68,.52,.18,.84,.51,.95,.99,.08,.37-.3,.62-1.12,.77-4.13,.77-7.55,1.5-10.27,2.19,.22,3.65,.04,6.3-.56,7.95-.56,1.32-1.45,2.1-2.68,2.36-2.94,.36-5.36-.11-7.26-1.42-.15-.11-.21-.24-.17-.38,.07-.11,.18-.11,.33,0,.85,.37,2.03,.33,3.52-.11,1.45-.4,2.4-1.01,2.85-1.81,.78-.73,1.39-2.7,1.84-5.92-1.9,.55-3.48,1.17-4.74,1.86-1.15,.4-1.81,.47-1.95,.22-.22-.29-.26-.62-.11-.99,.22-.4,.73-.77,1.51-1.09,.6-.26,2.36-1.72,5.3-4.38Zm2.12-16.17c1.38-1.39,2.68-3.07,3.91-5.04,.11-.26,.09-.45-.06-.6-.22-.18-.84-.04-1.84,.44-2.46,1.06-4.36,2.08-5.7,3.07-2.6,1.35-4.13,3.45-4.58,6.3-.04,.33-.11,.51-.22,.55-.19,0-.35-.11-.5-.33-.56-1.1-.9-2.05-1-2.85-.33-2.19,.45-4.07,2.34-5.65,.41-.4,.8-.84,1.17-1.31,.26-.33,.41-.47,.45-.44,.07,.04-.02,.49-.28,1.37-.75,1.72-.99,2.63-.73,2.74,.11,0,.35-.11,.73-.33,6.62-3.8,10.4-5.52,11.33-5.15,.41,.29,.97,1.04,1.68,2.25,.26,.44,.22,.89-.11,1.37-1.41,1.17-2.79,2.32-4.13,3.45,.15,.07,.24,.13,.28,.16,.22,.26,.33,.55,.33,.88s-.22,.57-.67,.71c-.6,.18-1.25,.44-1.95,.77-3.13,1.53-5.47,2.03-7.03,1.48-.22-.15-.15-.27,.22-.38,.33-.11,2.46-1.26,6.36-3.45Zm-6.92-10.25c1.45,.07,4.19-.73,8.21-2.41,1-.44,1.91-.64,2.73-.6,1.04,.04,1.79,.33,2.23,.88,.04,.22,.04,.4,0,.55-.11,.18-.35,.35-.72,.49-5.92,1.97-10.11,2.63-12.56,1.97-.67-.26-1.02-.46-1.06-.6-.04-.18,.35-.27,1.17-.27Zm3.18,30.91c.45-.29,1-.55,1.67-.77v-2.19c-.75,.58-1.47,1.23-2.18,1.92-.85,.73-1.27,1.15-1.23,1.26,.22,.29,.8,.22,1.73-.22Zm3.01-38.75c2.23-.73,5.14-1.04,8.71-.93,5.84,0,9.56,1.26,11.16,3.78,.45,.84,.56,1.44,.33,1.81-.19,.37-.63,.42-1.34,.16-.48-.15-2.01-.27-4.58-.38-.49,0-.73-.07-.73-.22s.19-.27,.56-.38c.37-.11,.69-.22,.95-.33,.41-.11,.59-.24,.56-.38,0-.18-.24-.38-.73-.6-.11-.07-.19-.11-.22-.11-4.65-2.04-9.51-2.68-14.57-1.92-.34,.04-.52,0-.56-.11-.04-.15,.11-.27,.45-.38Zm1.51,30.53c-.78,.22-1.41,.44-1.9,.66,.15,.36,.3,.93,.45,1.7,.41-.47,.86-.89,1.34-1.26,.56-.55,.76-.93,.61-1.15-.07,0-.24,.02-.5,.05Z" fill="#7d7e80"/><path d="M150.76,58.96c-3.64,.85-6.66,2.23-9.07,4.15-.75,.55-1.43,.9-2.03,1.05-1.5,.37-2.81,0-3.94-1.11-.6-.55-.98-1.29-1.13-2.21-.15-.88,.13-.94,.85-.16,.9,.74,2.03,.83,3.38,.28,5.18-2.32,9.29-3.76,12.33-4.31,1.39-6.89,1.86-11.33,1.41-13.32-.11-.29-.36-.46-.73-.5-.49,0-1.03,.41-1.63,1.22-.18,.18-.36,.26-.51,.22-.15-.11-.21-.28-.17-.5,.38-1.07,.9-1.77,1.58-2.1,.6-.29,1.25-.42,1.97-.39,.79,.04,1.48,.4,2.08,1.11l.17,.17c.94,1.25,.88,3.39-.17,6.41-.42,1.11-.96,3.5-1.63,7.19,6.98-1.44,11.04-1.82,12.16-1.16,1.72,1.03,2.61,1.84,2.65,2.43,0,.66-.25,1.12-.73,1.38-.52,.29-1.24,.28-2.14-.05-2.85-1.29-6.98-1.38-12.39-.28-.04,.22-.06,.44-.06,.66-1.05,6.34-2.48,11-4.28,13.99-.98,1.59-2.05,2.95-3.21,4.09-.11,.04-.19,.11-.22,.22-4.21,3.46-8.07,5.2-11.6,5.2-.3,0-.47-.06-.51-.17,.04-.11,.19-.18,.45-.22,.45-.15,1.26-.51,2.42-1.1,2.82-1.58,5.35-3.54,7.6-5.86,3.04-3.21,5.4-8.64,7.09-16.31Zm3.6,12.88c4.17-.18,8.5,.78,13.01,2.88,2.97,1.55,4.73,3.5,5.29,5.86,.19,1.18,.09,1.95-.28,2.32-.41,.33-.98,.26-1.69-.22-.64-.44-2.67-1.16-6.08-2.16-.6-.19-.9-.35-.9-.5,.08-.18,.36-.28,.84-.28,.71,0,1.37,.02,1.97,.06,.6,0,.92-.11,.96-.33,0-.29-.24-.68-.73-1.16l-.06-.06c-3.72-3.21-7.85-5.14-12.39-5.81-.41-.11-.62-.24-.62-.39s.23-.22,.68-.22Z" fill="#7d7e80"/></g><polygon points="88.55 70.07 88.74 64.06 90.42 65.22 93.27 62.44 94.43 66.12 96.5 65.93 93.59 71.62 97.27 69.55 97.53 71.49 100.38 71.88 98.82 74.59 100.51 76.34 93.72 78.73 93.65 81.12 89.26 78.8 88.55 82.28 87.77 82.03 88.55 78.67 83.5 78.41 84.73 76.4 80.08 70.91 82.28 70.65 82.4 66.9 85.31 68.19 86.28 66.77 88.55 70.07" fill="url(#linear-gradient)"/></g><path d="M151.19,110.94h-.26l-.97-.61c-.07-.04-.12-.09-.15-.13-.03-.04-.05-.09-.05-.14,0-.06,.02-.11,.07-.15,.04-.04,.09-.06,.15-.06s.1,.01,.15,.04c.05,.03,.09,.07,.13,.11l.93,.94Z" fill="#231815"/><path d="M86.94,106.21v-4.26h-1.09v-.87h2.93v.87h-1.09v4.26h-.74Z" fill="#231815"/><path d="M155.99,114.9v-4.26h-1.09v-.87h2.92v.87h-1.09v4.26h-.74Z" fill="#231815"/></svg>