<?xml version="1.0" encoding="UTF-8"?><svg id="_層_1" xmlns="http://www.w3.org/2000/svg" xmlns:xlink="http://www.w3.org/1999/xlink" viewBox="0 0 130 150"><defs><linearGradient id="linear-gradient" x1="689.54" y1="-648.39" x2="693.73" y2="-656.3" gradientTransform="translate(-626.52 692.49)" gradientUnits="userSpaceOnUse"><stop offset="0" stop-color="#de242f"/><stop offset="1" stop-color="#941e23"/></linearGradient><linearGradient id="linear-gradient-2" x1="691.13" y1="-659.5" x2="693.91" y2="-649.49" gradientTransform="translate(-626.52 692.49)" gradientUnits="userSpaceOnUse"><stop offset="0" stop-color="#de242f"/><stop offset=".09" stop-color="#d6232d"/><stop offset=".7" stop-color="#a61f25"/><stop offset="1" stop-color="#941e23"/></linearGradient><radialGradient id="radial-gradient" cx="-1422.34" cy="-7183.09" fx="-1422.34" fy="-7183.09" r="5.38" gradientTransform="translate(2601.05 4775.72) rotate(-12.64) scale(1 .72)" gradientUnits="userSpaceOnUse"><stop offset="0" stop-color="#6c1318"/><stop offset=".36" stop-color="#961920"/><stop offset="1" stop-color="#de242f"/></radialGradient><radialGradient id="radial-gradient-2" cx="698.97" cy="-638.41" fx="698.97" fy="-638.41" r="13.04" gradientTransform="translate(206.3 820.09) rotate(-73.92) scale(1 .53)" gradientUnits="userSpaceOnUse"><stop offset="0" stop-color="#942323"/><stop offset=".55" stop-color="#de242f"/><stop offset=".7" stop-color="#da2335"/><stop offset=".91" stop-color="#d02248"/><stop offset="1" stop-color="#cb2253"/></radialGradient><radialGradient id="radial-gradient-3" cx="695.77" cy="-636.91" fx="695.77" fy="-636.91" r="13.5" gradientTransform="translate(217.8 792.82) rotate(-79.08) scale(1 .45)" gradientUnits="userSpaceOnUse"><stop offset="0" stop-color="#de242f"/><stop offset=".38" stop-color="#b51d26"/><stop offset="1" stop-color="#6c1318"/></radialGradient><radialGradient id="radial-gradient-4" cx="-12944.32" cy="-639.27" fx="-12944.32" fy="-639.27" r="13.03" gradientTransform="translate(-1407.41 -12811.92) rotate(-95.01) scale(1 -.53)" gradientUnits="userSpaceOnUse"><stop offset="0" stop-color="#de242f"/><stop offset=".23" stop-color="#b51d26"/><stop offset=".61" stop-color="#6c1318"/><stop offset="1" stop-color="#de242f"/></radialGradient><radialGradient id="radial-gradient-5" cx="691.6" cy="-633.07" fx="691.6" fy="-633.07" r="19.9" gradientTransform="translate(429.6 737.48) rotate(-92.21) scale(1 .53)" gradientUnits="userSpaceOnUse"><stop offset="0" stop-color="#de242f"/><stop offset=".02" stop-color="#da232e"/><stop offset=".18" stop-color="#b82229"/><stop offset=".33" stop-color="#a02125"/><stop offset=".48" stop-color="#922123"/><stop offset=".6" stop-color="#8d2123"/><stop offset=".66" stop-color="#9b2125"/><stop offset=".89" stop-color="#cb232c"/><stop offset="1" stop-color="#de242f"/></radialGradient><radialGradient id="radial-gradient-6" cx="700.7" cy="-635.97" fx="700.7" fy="-635.97" r="13.1" gradientTransform="translate(-358.31 653.45) rotate(-35.99) scale(1 .36)" xlink:href="#radial-gradient-3"/><radialGradient id="radial-gradient-7" cx="702.98" cy="-630.37" fx="702.98" fy="-630.37" r="13.59" gradientTransform="translate(-379.74 675.39) rotate(-30.24) scale(1 .48)" gradientUnits="userSpaceOnUse"><stop offset="0" stop-color="#6c1318"/><stop offset=".12" stop-color="#7a191c"/><stop offset=".31" stop-color="#8d2123"/><stop offset=".42" stop-color="#9b2125"/><stop offset=".81" stop-color="#cb232c"/><stop offset="1" stop-color="#de242f"/></radialGradient><radialGradient id="radial-gradient-8" cx="706.03" cy="-623.55" fx="706.03" fy="-623.55" r="14.46" gradientTransform="translate(-485.24 580.37) rotate(-20.08) scale(1 .46)" gradientUnits="userSpaceOnUse"><stop offset="0" stop-color="#6c1318"/><stop offset=".12" stop-color="#7a191c"/><stop offset=".31" stop-color="#8d2123"/><stop offset=".37" stop-color="#9b2125"/><stop offset=".57" stop-color="#cb232c"/><stop offset=".67" stop-color="#de242f"/><stop offset=".8" stop-color="#d5233e"/><stop offset="1" stop-color="#cb2253"/></radialGradient><radialGradient id="radial-gradient-9" cx="715.04" cy="-634.64" fx="715.04" fy="-634.64" r="5.79" gradientTransform="translate(-212.31 845.47) rotate(-37.1) scale(1 .7)" xlink:href="#radial-gradient"/><radialGradient id="radial-gradient-10" cx="-8259.08" cy="4661.26" fx="-8259.08" fy="4661.26" r="7.85" gradientTransform="translate(4911.78 -8027.94) rotate(-87.87) scale(1 -.98)" gradientUnits="userSpaceOnUse"><stop offset="0" stop-color="#941e23"/><stop offset=".25" stop-color="#b82042"/><stop offset=".41" stop-color="#cb2253"/><stop offset=".47" stop-color="#ce2a4d"/><stop offset=".82" stop-color="#e05a31"/><stop offset="1" stop-color="#e86d26"/></radialGradient><radialGradient id="radial-gradient-11" cx="-12975.02" cy="-635.49" fx="-12975.02" fy="-635.49" r="14.89" gradientTransform="translate(-9972.19 -8181.66) rotate(-139.11) scale(1 -.53)" gradientUnits="userSpaceOnUse"><stop offset="0" stop-color="#e86d26"/><stop offset=".27" stop-color="#e0382c"/><stop offset=".41" stop-color="#de242f"/><stop offset=".52" stop-color="#d5233e"/><stop offset=".69" stop-color="#cb2253"/><stop offset=".88" stop-color="#a61f33"/><stop offset="1" stop-color="#941e23"/></radialGradient><radialGradient id="radial-gradient-12" cx="-12972.2" cy="-630.38" fx="-12972.2" fy="-630.38" r="13.56" gradientTransform="translate(-11303.49 -6212.11) rotate(-149.76) scale(1 -.48)" xlink:href="#radial-gradient-7"/><radialGradient id="radial-gradient-13" cx="-12976.46" cy="-626.8" fx="-12976.46" fy="-626.8" r="15.6" gradientTransform="translate(-11621.15 -5600.81) rotate(-152.47) scale(1 -.6)" gradientUnits="userSpaceOnUse"><stop offset="0" stop-color="#cb2253"/><stop offset=".18" stop-color="#d42241"/><stop offset=".41" stop-color="#de242f"/><stop offset=".8" stop-color="#e55828"/><stop offset="1" stop-color="#e86d26"/></radialGradient><radialGradient id="radial-gradient-14" cx="-12970.08" cy="-626.19" fx="-12970.08" fy="-626.19" r="16.9" gradientTransform="translate(-12227.87 -4117.37) rotate(-159.92) scale(1 -.46)" xlink:href="#radial-gradient-5"/><linearGradient id="linear-gradient-3" x1="-12964.78" y1="-634.88" x2="-12956.48" y2="-634.88" gradientTransform="translate(-12917.78 692.49) rotate(-180) scale(1 -1)" gradientUnits="userSpaceOnUse"><stop offset="0" stop-color="#de242f"/><stop offset=".44" stop-color="#d42340"/><stop offset="1" stop-color="#cb2253"/></linearGradient><radialGradient id="radial-gradient-15" cx="687.05" cy="-623.6" fx="687.05" fy="-623.6" r="9.76" gradientTransform="translate(-626.52 348.36) scale(1 .45)" xlink:href="#radial-gradient-5"/><radialGradient id="radial-gradient-16" cx="686.68" cy="-624.19" fx="686.68" fy="-624.19" r="4.41" gradientTransform="translate(-626.52 311.72) scale(1 .39)" xlink:href="#radial-gradient-13"/><radialGradient id="radial-gradient-17" cx="689.57" cy="-623.96" fx="689.57" fy="-623.96" r="8.8" gradientTransform="translate(450.81 721.68) rotate(-95.9) scale(1 .51)" gradientUnits="userSpaceOnUse"><stop offset="0" stop-color="#941e23"/><stop offset=".41" stop-color="#de242f"/><stop offset=".8" stop-color="#e55828"/><stop offset="1" stop-color="#e86d26"/></radialGradient><radialGradient id="radial-gradient-18" cx="690.75" cy="-622.08" fx="690.75" fy="-622.08" r="8.18" gradientTransform="translate(-212.82 -605.11) rotate(86.61) scale(1 .38)" xlink:href="#radial-gradient-3"/><radialGradient id="radial-gradient-19" cx="688.22" cy="-620.87" fx="688.22" fy="-620.87" r="5.45" gradientTransform="translate(-626.52 296.91) scale(1 .36)" xlink:href="#radial-gradient-5"/><radialGradient id="radial-gradient-20" cx="-12830.07" cy="-620.59" fx="-12830.07" fy="-620.59" r="5.83" gradientTransform="translate(-11798.67 4948.91) rotate(158.63) scale(1 -.35)" xlink:href="#radial-gradient-7"/><radialGradient id="radial-gradient-21" cx="-12831.56" cy="-624.24" fx="-12831.56" fy="-624.24" r="3.91" gradientTransform="translate(-11803.16 4937.87) rotate(158.95) scale(1 -.45)" xlink:href="#radial-gradient-7"/><radialGradient id="radial-gradient-22" cx="-12829.25" cy="-624.98" fx="-12829.25" fy="-624.98" r="11.7" gradientTransform="translate(-1879.81 12749.05) rotate(99.53) scale(1 -.28)" gradientUnits="userSpaceOnUse"><stop offset="0" stop-color="#942323"/><stop offset=".42" stop-color="#de242f"/><stop offset=".56" stop-color="#e13f2b"/><stop offset=".78" stop-color="#e86d26"/><stop offset="1" stop-color="#cb2253"/></radialGradient><radialGradient id="radial-gradient-23" cx="-12825.44" cy="-621.3" fx="-12825.44" fy="-621.3" r="13.87" gradientTransform="translate(62.05 -12755.14) rotate(-89.34) scale(1 -.24)" xlink:href="#radial-gradient-3"/><radialGradient id="radial-gradient-24" cx="-12833.52" cy="-621.3" fx="-12833.52" fy="-621.3" r="4.58" gradientTransform="translate(-12198.27 3834.35) rotate(164.08) scale(1 -.41)" gradientUnits="userSpaceOnUse"><stop offset="0" stop-color="#941e23"/><stop offset=".35" stop-color="#bc2045"/><stop offset=".47" stop-color="#cb2253"/><stop offset="1" stop-color="#de242f"/></radialGradient><radialGradient id="radial-gradient-25" cx="710.39" cy="-633.43" fx="710.39" fy="-633.43" r="15.62" gradientTransform="translate(508 -624.2) rotate(149.78) scale(1 .6)" xlink:href="#radial-gradient-7"/></defs><path d="M71.3,84.18s-.04-.06-.04-.11v-.72c0-.1,.05-.15,.15-.15h.4c.09,0,.13,.05,.13,.15v.72c0,.1-.04,.15-.13,.15h-.4s-.08-.01-.11-.04Zm.01,1.06h.59v5.43h-.59v-5.43Z" fill="#231815"/><path d="M73.31,85.24h.44l.15,.61c.3-.2,.63-.37,.99-.5,.36-.13,.72-.2,1.08-.2,.54,0,.96,.17,1.25,.52,.29,.35,.43,.77,.43,1.27v3.73h-.59v-3.67c0-.38-.11-.69-.34-.94-.23-.25-.53-.37-.91-.37-.36,0-.68,.05-.95,.14-.28,.09-.59,.24-.95,.43v4.41h-.59v-5.43Z" fill="#231815"/><path d="M78.4,85.24h.6l1.85,4.88,1.89-4.88h.6l-2.17,5.43h-.67l-2.11-5.43Z" fill="#231815"/><path d="M84.82,90.47c-.32-.17-.54-.46-.68-.86-.14-.4-.2-.96-.2-1.67,0-.72,.07-1.28,.21-1.68,.14-.4,.38-.68,.7-.84,.32-.16,.77-.24,1.33-.24,.48,0,.86,.05,1.15,.16,.29,.11,.51,.29,.65,.55,.14,.26,.21,.61,.21,1.06,0,.44-.13,.76-.38,.96-.25,.2-.62,.3-1.1,.3h-2.18c0,.52,.06,.93,.15,1.22,.09,.29,.27,.5,.51,.63,.25,.13,.61,.2,1.08,.2h1.79v.36c-.67,.07-1.31,.11-1.92,.11-.57,0-1.01-.09-1.33-.26Zm1.85-2.67c.35,0,.6-.06,.75-.18,.16-.12,.23-.34,.23-.66,0-.34-.05-.6-.14-.79-.1-.19-.25-.32-.46-.4-.21-.08-.5-.12-.88-.12-.44,0-.78,.06-1.01,.19-.23,.13-.4,.34-.5,.65-.1,.31-.15,.75-.15,1.32h2.15Z" fill="#231815"/><path d="M90.31,90.69c-.48-.02-.8-.05-.95-.08v-.36h2.17c.42,0,.73-.06,.94-.18,.21-.12,.31-.36,.31-.74v-.26c0-.28-.09-.49-.27-.64-.18-.15-.46-.22-.82-.22h-.73c-.53,0-.93-.1-1.21-.3-.28-.2-.42-.53-.42-1.01v-.27c0-.5,.15-.87,.44-1.1,.3-.23,.76-.35,1.39-.35,.29,0,.63,.01,1.03,.04,.4,.02,.71,.05,.93,.09v.37h-2.04c-.41,0-.72,.07-.92,.21-.2,.14-.3,.39-.3,.75v.23c0,.33,.1,.55,.29,.67,.19,.11,.49,.17,.88,.17h.74c.48,0,.86,.11,1.14,.34,.27,.23,.41,.55,.41,.97v.35c0,.51-.16,.86-.48,1.06-.32,.2-.78,.3-1.38,.3-.28,0-.66-.01-1.14-.04Z" fill="#231815"/><path d="M95.22,90.26c-.24-.27-.36-.7-.36-1.3l.03-3.23h-.87v-.39l.87-.11,.11-1.52h.45v1.52h1.65v.5h-1.65v3.23c0,.46,.09,.77,.26,.94,.17,.16,.39,.25,.65,.27l.66,.06v.43h-.68c-.5,0-.88-.13-1.12-.4Z" fill="#231815"/><path d="M82.88,91.8h.46v1.77h-.46v-1.77Z" fill="#231815"/><path d="M84.08,91.8h.37l.62,.98v-.98h.46v1.77h-.37l-.62-.98v.98h-.46v-1.77Z" fill="#231815"/><path d="M71.71,98.41c-.2-.1-.35-.29-.46-.57-.11-.28-.16-.68-.16-1.2s.05-.9,.17-1.18c.11-.28,.27-.47,.47-.58,.2-.11,.45-.16,.75-.16,.26,0,.49,.02,.7,.06,.21,.04,.38,.08,.51,.14v.68c-.31-.06-.65-.09-1.02-.09-.18,0-.32,.03-.42,.08-.1,.06-.16,.16-.21,.32-.04,.16-.07,.4-.07,.72,0,.32,.02,.55,.06,.71,.04,.16,.11,.27,.2,.33,.1,.06,.24,.09,.44,.09,.46,0,.8-.02,1.02-.05v.68c-.29,.11-.69,.16-1.22,.16-.31,0-.57-.05-.76-.15Z" fill="#231815"/><path d="M76.26,94.76h1.1l1.15,3.78h-.91l-.19-.69h-1.2l-.19,.69h-.91l1.15-3.78Zm.94,2.3l-.4-1.55-.4,1.55h.79Z" fill="#231815"/><path d="M80.07,94.76h.7l1.45,2.29v-2.29h.88v3.78h-.7l-1.45-2.28v2.28h-.88v-3.78Z" fill="#231815"/><path d="M85.76,94.76h1.1l1.15,3.78h-.91l-.19-.69h-1.2l-.19,.69h-.91l1.15-3.78Zm.94,2.3l-.4-1.55-.4,1.55h.79Z" fill="#231815"/><path d="M89.55,94.76h1.63c.5,0,.84,.17,1.04,.5,.2,.33,.3,.8,.3,1.4,0,.64-.11,1.12-.33,1.43-.22,.31-.56,.46-1.01,.46h-1.63v-3.78Zm1.55,2.99c.2,0,.35-.09,.43-.26,.08-.17,.12-.45,.12-.84,0-.3-.02-.53-.06-.69-.04-.16-.1-.27-.18-.33-.08-.06-.18-.09-.31-.09h-.67v2.2h.67Z" fill="#231815"/><path d="M95.07,94.76h1.1l1.15,3.78h-.91l-.19-.69h-1.2l-.19,.69h-.91l1.15-3.78Zm.94,2.3l-.4-1.55-.4,1.55h.79Z" fill="#231815"/><path d="M65.47,96.93c-.07,0-.12-.05-.12-.12v-11.03c0-.07,.05-.12,.12-.12s.12,.05,.12,.12v11.03c0,.07-.05,.12-.12,.12Z" fill="#231815"/><path d="M71.23,92.62l10.1-.15c.15,0,.28,.12,.28,.27,0,.15-.12,.28-.27,.28h0l-10.1-.15c-.07,0-.12-.06-.12-.12,0-.07,.05-.12,.12-.12Z" fill="#231815"/><path d="M97.13,92.86l-10.02,.15c-.15,0-.28-.12-.28-.27,0-.15,.12-.28,.27-.28h0l10.02,.15c.07,0,.12,.06,.12,.12,0,.07-.05,.12-.12,.12Z" fill="#231815"/><path d="M33.2,84.17s-.04-.06-.04-.11v-.72c0-.1,.05-.15,.14-.15h.36c.08,0,.12,.05,.12,.15v.72c0,.1-.04,.15-.12,.15h-.36s-.08-.01-.1-.04Zm0,1.06h.53v5.43h-.53v-5.43Z" fill="#231815"/><path d="M35.05,85.23h.39l.14,.61c.27-.2,.57-.37,.89-.5,.32-.13,.65-.2,.97-.2,.49,0,.86,.17,1.12,.52,.26,.35,.39,.77,.39,1.27v3.73h-.53v-3.67c0-.38-.1-.69-.31-.94-.2-.25-.48-.37-.82-.37-.32,0-.61,.05-.86,.14-.25,.09-.53,.24-.86,.43v4.41h-.53v-5.43Z" fill="#231815"/><path d="M39.31,85.23h.54l1.67,4.88,1.7-4.88h.54l-1.95,5.43h-.6l-1.9-5.43Z" fill="#231815"/><path d="M44.86,90.46c-.28-.17-.49-.46-.61-.86-.12-.4-.18-.96-.18-1.67,0-.72,.06-1.28,.19-1.68,.13-.4,.34-.68,.63-.84,.29-.16,.69-.24,1.2-.24,.43,0,.77,.05,1.04,.16,.26,.11,.46,.29,.59,.55,.13,.26,.19,.61,.19,1.06s-.11,.76-.34,.96c-.23,.2-.56,.3-.99,.3h-1.96c0,.52,.05,.93,.14,1.22,.09,.29,.24,.5,.46,.63,.22,.13,.55,.2,.98,.2h1.61v.36c-.6,.07-1.18,.11-1.73,.11-.51,0-.91-.09-1.2-.26Zm1.66-2.67c.31,0,.54-.06,.68-.18,.14-.12,.21-.34,.21-.66,0-.34-.04-.6-.13-.79-.09-.19-.22-.32-.41-.4-.19-.08-.45-.12-.79-.12-.4,0-.7,.06-.91,.19-.21,.13-.36,.34-.45,.65-.09,.31-.13,.75-.13,1.32h1.93Z" fill="#231815"/><path d="M49.57,90.68c-.43-.02-.72-.05-.86-.08v-.36h1.95c.38,0,.66-.06,.85-.18,.19-.12,.28-.36,.28-.74v-.26c0-.28-.08-.49-.25-.64-.16-.15-.41-.22-.74-.22h-.66c-.48,0-.84-.1-1.09-.3s-.38-.53-.38-1.01v-.27c0-.5,.13-.87,.4-1.1,.27-.23,.68-.35,1.25-.35,.26,0,.57,.01,.93,.04,.36,.02,.64,.05,.83,.09v.37h-1.83c-.37,0-.65,.07-.83,.21-.18,.14-.27,.39-.27,.75v.23c0,.33,.09,.55,.26,.67,.17,.11,.44,.17,.79,.17h.67c.43,0,.77,.11,1.02,.34,.25,.23,.37,.55,.37,.97v.35c0,.51-.15,.86-.44,1.06-.29,.2-.7,.3-1.24,.3-.25,0-.59-.01-1.02-.04Z" fill="#231815"/><path d="M53.86,90.25c-.22-.27-.33-.7-.32-1.3l.03-3.23h-.78v-.39l.78-.11,.1-1.52h.4v1.52h1.48v.5h-1.48v3.23c0,.46,.08,.77,.23,.94,.16,.16,.35,.25,.58,.27l.6,.06v.43h-.61c-.45,0-.79-.13-1.01-.4Z" fill="#231815"/><path d="M56.44,84.17s-.04-.06-.04-.11v-.72c0-.1,.05-.15,.14-.15h.36c.08,0,.12,.05,.12,.15v.72c0,.1-.04,.15-.12,.15h-.36s-.08-.01-.1-.04Zm0,1.06h.53v5.43h-.53v-5.43Z" fill="#231815"/><path d="M58.11,85.23h.39l.14,.98c.26-.33,.53-.58,.81-.76,.28-.18,.6-.27,.95-.27,.19,0,.35,.02,.48,.06v.6c-.21-.04-.38-.06-.52-.06-.34,0-.63,.07-.88,.21-.25,.14-.53,.37-.83,.69v3.99h-.53v-5.43Z" fill="#231815"/><path d="M45.5,91.8h.58l.52,1.77h-.48l-.07-.28h-.53l-.07,.28h-.47l.52-1.77Zm.44,1.07l-.16-.68-.16,.68h.32Z" fill="#231815"/><path d="M47.31,93.46c-.13-.08-.19-.24-.19-.47v-1.18h.46v1.18c0,.06,.02,.11,.07,.14,.04,.03,.11,.05,.19,.05s.15-.02,.19-.05,.07-.08,.07-.14v-1.18h.46v1.18c0,.23-.06,.38-.19,.47-.13,.08-.3,.13-.53,.13s-.4-.04-.53-.13Z" fill="#231815"/><path d="M33.32,98.41c-.2-.1-.36-.29-.47-.57-.11-.28-.17-.68-.17-1.2s.06-.9,.17-1.18c.11-.28,.27-.47,.48-.58,.21-.11,.46-.16,.78-.16,.27,0,.51,.02,.72,.06,.21,.04,.39,.08,.53,.14v.68c-.32-.06-.67-.09-1.05-.09-.19,0-.33,.03-.43,.08-.1,.06-.17,.16-.21,.32-.05,.16-.07,.4-.07,.72,0,.32,.02,.55,.06,.71,.04,.16,.11,.27,.21,.33,.1,.06,.25,.09,.45,.09,.47,0,.82-.02,1.05-.05v.68c-.3,.11-.71,.16-1.25,.16-.32,0-.58-.05-.79-.15Z" fill="#231815"/><path d="M38.19,94.76h1.13l1.19,3.78h-.94l-.2-.69h-1.24l-.19,.69h-.93l1.19-3.78Zm.97,2.3l-.41-1.55-.41,1.55h.82Z" fill="#231815"/><path d="M42.28,94.76h.72l1.49,2.29v-2.29h.91v3.78h-.72l-1.49-2.28v2.28h-.9v-3.78Z" fill="#231815"/><path d="M48.31,94.76h1.13l1.19,3.78h-.94l-.2-.69h-1.24l-.19,.69h-.93l1.19-3.78Zm.97,2.3l-.41-1.55-.41,1.55h.82Z" fill="#231815"/><path d="M52.39,94.76h1.68c.51,0,.87,.17,1.08,.5,.21,.33,.31,.8,.31,1.4,0,.64-.11,1.12-.34,1.43-.23,.31-.58,.46-1.04,.46h-1.68v-3.78Zm1.59,2.99c.21,0,.36-.09,.44-.26,.09-.17,.13-.45,.13-.84,0-.3-.02-.53-.07-.69-.04-.16-.11-.27-.19-.33-.08-.06-.19-.09-.32-.09h-.69v2.2h.69Z" fill="#231815"/><path d="M58.24,94.76h1.13l1.19,3.78h-.94l-.2-.69h-1.24l-.19,.69h-.93l1.19-3.78Zm.97,2.3l-.41-1.55-.41,1.55h.82Z" fill="#231815"/><path d="M33.13,92.62l10.1-.15c.15,0,.28,.12,.28,.27,0,.15-.12,.28-.27,.28h0l-10.1-.15c-.07,0-.12-.06-.12-.12,0-.07,.05-.12,.12-.12Z" fill="#231815"/><path d="M60.2,92.86l-10.02,.15c-.15,0-.28-.12-.28-.27,0-.15,.12-.28,.27-.28h0l10.02,.15c.07,0,.12,.06,.12,.12,0,.07-.05,.12-.12,.12Z" fill="#231815"/><path d="M40.35,107.13c0-.19,.08-.28,.25-.28h.5c.18,0,.27,.09,.27,.26v.9c0,.15,.07,.22,.21,.22h.42c.18,0,.27,.09,.27,.26v.43c0,.18-.09,.27-.26,.27h-.42c-.15,0-.22,.07-.22,.21v1.04c0,.14,.09,.19,.26,.14l.19-.06c.19-.05,.3,0,.33,.18l.07,.4c.04,.18-.04,.3-.23,.39l-.35,.13c-.18,.07-.27,.18-.27,.32v1.87c-.01,.26-.06,.49-.14,.7-.12,.25-.34,.39-.64,.43-.33,.04-.59,.04-.8,0-.19-.05-.3-.18-.33-.39-.04-.15-.06-.3-.08-.45-.04-.19,.04-.26,.21-.2,.23,.06,.44,.07,.61,.04,.1-.05,.15-.19,.16-.42v-1.27c0-.14-.09-.19-.26-.15l-.35,.11c-.18,.04-.29-.04-.35-.21-.06-.15-.11-.29-.15-.44-.08-.22-.02-.35,.16-.4l.75-.18c.14-.04,.21-.12,.21-.26v-1.3c0-.15-.07-.22-.21-.22h-.47c-.18,0-.27-.09-.27-.26v-.43c0-.18,.09-.27,.26-.27h.47c.15,0,.22-.07,.22-.21v-.89Zm2.14,3.62c0-.18,.08-.27,.25-.27h3.76c.18,0,.27,.09,.27,.26,.03,.3,0,.52-.08,.64-.23,.53-.56,1.04-.98,1.55-.12,.14-.1,.27,.08,.38,.36,.21,.8,.39,1.32,.55,.22,.06,.28,.19,.18,.38-.09,.15-.17,.3-.24,.46-.1,.18-.24,.24-.41,.18-.64-.23-1.22-.52-1.71-.89-.14-.11-.3-.1-.47,0-.56,.37-1.23,.67-2,.9-.18,.05-.32-.02-.42-.21l-.18-.35c-.12-.22-.08-.35,.11-.39,.59-.13,1.15-.35,1.69-.67,.18-.11,.19-.25,.04-.43-.31-.4-.56-.8-.76-1.2-.07-.14-.16-.21-.26-.21-.12,0-.18-.09-.18-.26v-.43Zm.35-3.52c0-.19,.08-.28,.25-.28h2.7c.18,0,.27,.09,.27,.26v1.58c0,.28,.1,.37,.31,.25,.04-.08,.05-.21,.04-.38,0-.18,.1-.22,.27-.14l.44,.21c.21,.1,.3,.24,.29,.43-.01,.21-.08,.42-.21,.65-.15,.18-.33,.26-.52,.25-.54,.08-.98,.01-1.34-.19-.16-.16-.25-.4-.26-.72v-1c0-.15-.07-.22-.21-.22h-.87c-.15,0-.22,.07-.22,.21,0,.54-.08,1.02-.24,1.42-.1,.2-.21,.38-.33,.53-.18,.21-.35,.24-.49,.11l-.35-.32c-.15-.15-.13-.31,.06-.48,.25-.28,.39-.61,.4-.98v-1.2Zm2.5,4.44c.09-.15,.06-.22-.09-.22h-1.13c-.15,0-.16,.09-.05,.28,.12,.19,.27,.37,.44,.56,.13,.13,.28,.11,.44-.07,.14-.15,.27-.34,.4-.55Z" fill="#231815"/><path d="M53.42,107.01c.08-.18,.2-.24,.37-.2l.38,.11c.19,.05,.27,.12,.24,.19-.02,.08,.04,.12,.18,.12h3.29c.18,0,.27,.09,.27,.26,.04,.28,0,.47-.1,.59-.11,.18-.23,.35-.36,.53-.16,.18-.33,.21-.5,.1-.06-.03-.12-.07-.18-.11-.18-.12-.22-.23-.14-.35,.06-.12,.02-.18-.12-.18h-.56c-.14,0-.23,.03-.25,.1-.02,.07,.02,.18,.13,.32,.52,.43,1.14,.7,1.87,.83,.23,.05,.3,.16,.2,.33l-.2,.39c-.1,.19-.23,.27-.38,.22-.18-.05-.27,0-.27,.14v3.22c0,.18-.09,.27-.26,.27h-.74c-.13,0-.12,.02,.04,.07l1.6,.22c.19,.02,.23,.14,.11,.34l-.1,.18c-.12,.21-.27,.3-.46,.27-.74-.11-1.52-.28-2.34-.51-.2-.06-.23-.16-.1-.31,.17-.18,.18-.26,.04-.26h-1.96c-.14,0-.13,.09,.02,.26,.18,.19,.17,.32,0,.38-.7,.2-1.49,.35-2.35,.45-.18,.02-.31-.06-.4-.24l-.12-.28c-.09-.19-.05-.29,.12-.3,.6-.05,1.18-.12,1.74-.21,.14-.04,.15-.06,.02-.06h-.9c-.18,0-.27-.09-.27-.26v-3.26c0-.15-.06-.19-.19-.14-.15,.05-.27-.03-.36-.22l-.15-.35c-.09-.22-.05-.35,.14-.4,.57-.16,1.12-.35,1.63-.55,.19-.08,.31,0,.38,.2l.07,.26c.05,.18,0,.31-.18,.41l-.54,.25c-.17,.09-.17,.13,0,.13h.98c.15,0,.17-.09,.07-.27l-.08-.16c-.09-.17-.05-.28,.13-.33,.8-.16,1.42-.46,1.85-.88,.11-.16,.1-.24-.04-.24h-.51c-.14,0-.27,.09-.38,.26l-.19,.26c-.2,.22-.39,.24-.56,.06l-.17-.17c-.18-.18-.19-.35-.04-.53,.23-.28,.42-.6,.59-.95Zm-3.04,.43c0-.19,.08-.28,.25-.28h1.63c.18,0,.27,.09,.27,.26v.37c0,.18-.09,.27-.26,.27h-1.61c-.18,0-.27-.09-.27-.26v-.36Zm5.87,3.49c0-.1-.07-.15-.21-.15h-3.81c-.15,0-.22,.04-.22,.13,0,.1,.07,.15,.21,.15h3.81c.15,0,.22-.04,.22-.13Zm0,1c0-.09-.08-.14-.22-.14h-3.81c-.15,0-.22,.04-.22,.12,0,.09,.07,.14,.21,.14h3.81c.14,0,.22-.04,.23-.12Zm0,.99c0-.09-.07-.14-.2-.14h-3.81c-.15,0-.22,.04-.22,.12,0,.09,.07,.13,.21,.13h3.81c.15,0,.22-.04,.22-.11Zm-.65-3.78c-.13-.15-.28-.15-.45,0-.47,.33-.95,.57-1.44,.69-.11,.06-.11,.1,.02,.1h2.7c.18,0,.2-.04,.04-.13-.3-.14-.59-.36-.87-.66Z" fill="#231815"/><path d="M62.15,107.13c0-.19,.08-.28,.25-.28h.5c.18,0,.27,.09,.27,.26v.79c0,.15,.07,.22,.21,.22h1.41c.18,0,.27,.09,.27,.26,0,.04,0,.07,0,.11v1.32c0,1.7-.08,3.03-.23,3.96-.05,.26-.14,.49-.27,.7-.12,.15-.23,.24-.34,.27-.33,.16-.71,.19-1.13,.1-.18-.05-.28-.16-.32-.34l-.11-.59c-.02-.18,.06-.23,.24-.16,.22,.07,.46,.1,.7,.08,.12,0,.21-.08,.27-.25,.11-.53,.16-1.53,.18-3.02v-1.22c0-.15-.07-.22-.21-.22h-.45c-.14,0-.22,.09-.23,.26,0,1.75-.25,3.22-.76,4.41-.16,.34-.33,.63-.51,.88-.18,.21-.36,.23-.54,.05l-.2-.2c-.18-.18-.2-.35-.06-.53,.26-.39,.47-.83,.62-1.32,.26-.93,.41-2.04,.44-3.34,0-.15-.07-.22-.21-.22h-.56c-.18,0-.27-.09-.27-.26v-.47c0-.18,.09-.27,.26-.27h.56c.15,0,.22-.07,.22-.21v-.78Zm3.3,.73c0-.18,.09-.27,.26-.27h2.86c.18,0,.27,.09,.27,.26v6.63c0,.18-.09,.27-.26,.27h-.51c-.18,0-.27-.08-.27-.25s-.07-.26-.21-.26h-.86c-.15,0-.22,.09-.22,.27,0,.19-.09,.28-.26,.28h-.54c-.18,0-.26-.09-.26-.26v-6.66Zm2.36,.98c0-.15-.07-.23-.2-.23h-.87c-.15,0-.22,.07-.22,.21v4.17c0,.15,.07,.22,.21,.22h.86c.15,0,.22-.07,.22-.21v-4.17Z" fill="#231815"/><path d="M73.35,111.05c1.78-.02,3.56-.09,5.35-.21,.18-.01,.31,.07,.41,.25l.12,.22c.1,.18,.05,.27-.14,.29-.9,.06-1.8,.11-2.7,.14-.14,.01-.21,.06-.21,.13,0,.09,.07,.13,.21,.13h2.59c.18,0,.27,.09,.27,.26v.24c0,.18-.09,.27-.26,.27h-2.59c-.15,0-.22,.04-.22,.11,0,.08,.07,.11,.21,.11h3.2c.18,0,.27,.09,.27,.26v.3c0,.18-.09,.27-.26,.27h-3.2c-.15,0-.22,.09-.23,.26,.02,.5-.25,.8-.82,.88-.47,.03-.82,.02-1.05-.02-.18-.02-.28-.12-.31-.3l-.05-.35c-.03-.2,.05-.28,.25-.23,.39,.08,.68,.1,.88,.06,.06-.04,.1-.11,.11-.22,0-.06-.08-.09-.22-.09h-3.01c-.18,0-.27-.09-.27-.26v-.3c0-.18,.09-.27,.26-.27h3.03c.15,0,.22-.04,.22-.11,0-.08-.07-.11-.21-.11h-2.65c-.18,0-.27-.09-.27-.26v-.24c0-.18,.09-.27,.26-.27h2.65c.15,0,.22-.04,.22-.11,0-.08-.09-.12-.26-.11l-2.37,.04c-.18,0-.3-.08-.36-.25-.04-.08-.06-.16-.08-.25-.05-.18,0-.27,.18-.27h1.05Zm2.28-4.24c.19-.09,.39-.07,.59,.08l.08,.06c.17,.13,.24,.21,.2,.24-.04,.03,.04,.08,.21,.15,.93,.35,1.92,.63,2.98,.86,.18,.04,.22,.14,.12,.33l-.18,.33c-.1,.18-.25,.24-.44,.19-.52-.13-1.02-.29-1.49-.47-.14-.05-.21-.02-.21,.07,0,.1-.09,.15-.26,.15h-3.08c-.18,0-.27-.04-.27-.13,0-.09-.09-.1-.26-.04l-1.23,.41c-.18,.05-.32,0-.42-.18l-.18-.34c-.11-.18-.06-.28,.12-.33,1.41-.36,2.66-.82,3.74-1.37Zm-3,2.48c0-.18,.09-.26,.26-.26h5.54c.18,0,.27,.09,.27,.26v1.14c0,.18-.09,.27-.26,.27h-5.54c-.18,0-.27-.09-.27-.26v-1.15Zm5.12,.58c0-.1-.08-.15-.22-.15h-3.74c-.15,0-.22,.05-.22,.14,0,.1,.07,.15,.21,.15h3.75c.15,0,.22-.05,.22-.14Zm-1.93-2.07c-.12-.13-.33-.09-.62,.12l-.08,.04c-.16,.1-.16,.15,.02,.15h1.04c.32,.01,.29-.05-.07-.18-.09-.05-.19-.1-.28-.13Z" fill="#231815"/><path d="M85.99,107.13c0-.19,.08-.28,.25-.28h.56c.18,0,.27,.09,.27,.26v1.45c0,.15,.07,.22,.21,.22h2.8c.18,0,.27,.09,.27,.26v.47c0,.18-.09,.27-.26,.27h-2.52c-.14,0-.18,.09-.13,.26,.15,.44,.33,.88,.55,1.32,.67,1.15,1.47,1.95,2.4,2.37,.18,.09,.22,.22,.12,.4l-.27,.53c-.1,.19-.24,.24-.41,.16-1.04-.56-1.9-1.39-2.57-2.49-.18-.3-.34-.61-.48-.91-.06-.14-.14-.12-.23,.07-.63,1.32-1.67,2.43-3.14,3.31-.18,.1-.34,.04-.47-.18-.08-.12-.16-.23-.22-.35-.12-.18-.09-.32,.09-.42,1.79-1.09,2.82-2.38,3.09-3.86,.01-.14-.05-.21-.19-.21h-2.67c-.18,0-.27-.09-.27-.26v-.47c0-.18,.09-.27,.26-.27h2.74c.15,0,.22-.07,.22-.21v-1.44Z" fill="#231815"/><path d="M71.3,84.18s-.04-.06-.04-.11v-.72c0-.1,.05-.15,.15-.15h.4c.09,0,.13,.05,.13,.15v.72c0,.1-.04,.15-.13,.15h-.4s-.08-.01-.11-.04Zm.01,1.06h.59v5.43h-.59v-5.43Z" fill="#231815"/><path d="M73.31,85.24h.44l.15,.61c.3-.2,.63-.37,.99-.5,.36-.13,.72-.2,1.08-.2,.54,0,.96,.17,1.25,.52,.29,.35,.43,.77,.43,1.27v3.73h-.59v-3.67c0-.38-.11-.69-.34-.94-.23-.25-.53-.37-.91-.37-.36,0-.68,.05-.95,.14-.28,.09-.59,.24-.95,.43v4.41h-.59v-5.43Z" fill="#231815"/><path d="M78.4,85.24h.6l1.85,4.88,1.89-4.88h.6l-2.17,5.43h-.67l-2.11-5.43Z" fill="#231815"/><path d="M84.82,90.47c-.32-.17-.54-.46-.68-.86-.14-.4-.2-.96-.2-1.67,0-.72,.07-1.28,.21-1.68,.14-.4,.38-.68,.7-.84,.32-.16,.77-.24,1.33-.24,.48,0,.86,.05,1.15,.16,.29,.11,.51,.29,.65,.55,.14,.26,.21,.61,.21,1.06,0,.44-.13,.76-.38,.96-.25,.2-.62,.3-1.1,.3h-2.18c0,.52,.06,.93,.15,1.22,.09,.29,.27,.5,.51,.63,.25,.13,.61,.2,1.08,.2h1.79v.36c-.67,.07-1.31,.11-1.92,.11-.57,0-1.01-.09-1.33-.26Zm1.85-2.67c.35,0,.6-.06,.75-.18,.16-.12,.23-.34,.23-.66,0-.34-.05-.6-.14-.79-.1-.19-.25-.32-.46-.4-.21-.08-.5-.12-.88-.12-.44,0-.78,.06-1.01,.19-.23,.13-.4,.34-.5,.65-.1,.31-.15,.75-.15,1.32h2.15Z" fill="#231815"/><path d="M90.31,90.69c-.48-.02-.8-.05-.95-.08v-.36h2.17c.42,0,.73-.06,.94-.18,.21-.12,.31-.36,.31-.74v-.26c0-.28-.09-.49-.27-.64-.18-.15-.46-.22-.82-.22h-.73c-.53,0-.93-.1-1.21-.3-.28-.2-.42-.53-.42-1.01v-.27c0-.5,.15-.87,.44-1.1,.3-.23,.76-.35,1.39-.35,.29,0,.63,.01,1.03,.04,.4,.02,.71,.05,.93,.09v.37h-2.04c-.41,0-.72,.07-.92,.21-.2,.14-.3,.39-.3,.75v.23c0,.33,.1,.55,.29,.67,.19,.11,.49,.17,.88,.17h.74c.48,0,.86,.11,1.14,.34,.27,.23,.41,.55,.41,.97v.35c0,.51-.16,.86-.48,1.06-.32,.2-.78,.3-1.38,.3-.28,0-.66-.01-1.14-.04Z" fill="#231815"/><path d="M95.22,90.26c-.24-.27-.36-.7-.36-1.3l.03-3.23h-.87v-.39l.87-.11,.11-1.52h.45v1.52h1.65v.5h-1.65v3.23c0,.46,.09,.77,.26,.94,.17,.16,.39,.25,.65,.27l.66,.06v.43h-.68c-.5,0-.88-.13-1.12-.4Z" fill="#231815"/><path d="M82.88,91.8h.46v1.77h-.46v-1.77Z" fill="#231815"/><path d="M84.08,91.8h.37l.62,.98v-.98h.46v1.77h-.37l-.62-.98v.98h-.46v-1.77Z" fill="#231815"/><path d="M71.71,98.41c-.2-.1-.35-.29-.46-.57-.11-.28-.16-.68-.16-1.2s.05-.9,.17-1.18c.11-.28,.27-.47,.47-.58,.2-.11,.45-.16,.75-.16,.26,0,.49,.02,.7,.06,.21,.04,.38,.08,.51,.14v.68c-.31-.06-.65-.09-1.02-.09-.18,0-.32,.03-.42,.08-.1,.06-.16,.16-.21,.32-.04,.16-.07,.4-.07,.72,0,.32,.02,.55,.06,.71,.04,.16,.11,.27,.2,.33,.1,.06,.24,.09,.44,.09,.46,0,.8-.02,1.02-.05v.68c-.29,.11-.69,.16-1.22,.16-.31,0-.57-.05-.76-.15Z" fill="#231815"/><path d="M76.26,94.76h1.1l1.15,3.78h-.91l-.19-.69h-1.2l-.19,.69h-.91l1.15-3.78Zm.94,2.3l-.4-1.55-.4,1.55h.79Z" fill="#231815"/><path d="M80.07,94.76h.7l1.45,2.29v-2.29h.88v3.78h-.7l-1.45-2.28v2.28h-.88v-3.78Z" fill="#231815"/><path d="M85.76,94.76h1.1l1.15,3.78h-.91l-.19-.69h-1.2l-.19,.69h-.91l1.15-3.78Zm.94,2.3l-.4-1.55-.4,1.55h.79Z" fill="#231815"/><path d="M89.55,94.76h1.63c.5,0,.84,.17,1.04,.5,.2,.33,.3,.8,.3,1.4,0,.64-.11,1.12-.33,1.43-.22,.31-.56,.46-1.01,.46h-1.63v-3.78Zm1.55,2.99c.2,0,.35-.09,.43-.26,.08-.17,.12-.45,.12-.84,0-.3-.02-.53-.06-.69-.04-.16-.1-.27-.18-.33-.08-.06-.18-.09-.31-.09h-.67v2.2h.67Z" fill="#231815"/><path d="M95.07,94.76h1.1l1.15,3.78h-.91l-.19-.69h-1.2l-.19,.69h-.91l1.15-3.78Zm.94,2.3l-.4-1.55-.4,1.55h.79Z" fill="#231815"/><path d="M65.47,96.93c-.07,0-.12-.05-.12-.12v-11.03c0-.07,.05-.12,.12-.12s.12,.05,.12,.12v11.03c0,.07-.05,.12-.12,.12Z" fill="#231815"/><path d="M71.23,92.62l10.1-.15c.15,0,.28,.12,.28,.27,0,.15-.12,.28-.27,.28h0l-10.1-.15c-.07,0-.12-.06-.12-.12,0-.07,.05-.12,.12-.12Z" fill="#231815"/><path d="M97.13,92.86l-10.02,.15c-.15,0-.28-.12-.28-.27,0-.15,.12-.28,.27-.28h0l10.02,.15c.07,0,.12,.06,.12,.12,0,.07-.05,.12-.12,.12Z" fill="#231815"/><path d="M33.2,84.17s-.04-.06-.04-.11v-.72c0-.1,.05-.15,.14-.15h.36c.08,0,.12,.05,.12,.15v.72c0,.1-.04,.15-.12,.15h-.36s-.08-.01-.1-.04Zm0,1.06h.53v5.43h-.53v-5.43Z" fill="#231815"/><path d="M35.05,85.23h.39l.14,.61c.27-.2,.57-.37,.89-.5,.32-.13,.65-.2,.97-.2,.49,0,.86,.17,1.12,.52,.26,.35,.39,.77,.39,1.27v3.73h-.53v-3.67c0-.38-.1-.69-.31-.94-.2-.25-.48-.37-.82-.37-.32,0-.61,.05-.86,.14-.25,.09-.53,.24-.86,.43v4.41h-.53v-5.43Z" fill="#231815"/><path d="M39.31,85.23h.54l1.67,4.88,1.7-4.88h.54l-1.95,5.43h-.6l-1.9-5.43Z" fill="#231815"/><path d="M44.86,90.46c-.28-.17-.49-.46-.61-.86-.12-.4-.18-.96-.18-1.67,0-.72,.06-1.28,.19-1.68,.13-.4,.34-.68,.63-.84,.29-.16,.69-.24,1.2-.24,.43,0,.77,.05,1.04,.16,.26,.11,.46,.29,.59,.55,.13,.26,.19,.61,.19,1.06s-.11,.76-.34,.96c-.23,.2-.56,.3-.99,.3h-1.96c0,.52,.05,.93,.14,1.22,.09,.29,.24,.5,.46,.63,.22,.13,.55,.2,.98,.2h1.61v.36c-.6,.07-1.18,.11-1.73,.11-.51,0-.91-.09-1.2-.26Zm1.66-2.67c.31,0,.54-.06,.68-.18,.14-.12,.21-.34,.21-.66,0-.34-.04-.6-.13-.79-.09-.19-.22-.32-.41-.4-.19-.08-.45-.12-.79-.12-.4,0-.7,.06-.91,.19-.21,.13-.36,.34-.45,.65-.09,.31-.13,.75-.13,1.32h1.93Z" fill="#231815"/><path d="M49.57,90.68c-.43-.02-.72-.05-.86-.08v-.36h1.95c.38,0,.66-.06,.85-.18,.19-.12,.28-.36,.28-.74v-.26c0-.28-.08-.49-.25-.64-.16-.15-.41-.22-.74-.22h-.66c-.48,0-.84-.1-1.09-.3s-.38-.53-.38-1.01v-.27c0-.5,.13-.87,.4-1.1,.27-.23,.68-.35,1.25-.35,.26,0,.57,.01,.93,.04,.36,.02,.64,.05,.83,.09v.37h-1.83c-.37,0-.65,.07-.83,.21-.18,.14-.27,.39-.27,.75v.23c0,.33,.09,.55,.26,.67,.17,.11,.44,.17,.79,.17h.67c.43,0,.77,.11,1.02,.34,.25,.23,.37,.55,.37,.97v.35c0,.51-.15,.86-.44,1.06-.29,.2-.7,.3-1.24,.3-.25,0-.59-.01-1.02-.04Z" fill="#231815"/><path d="M53.86,90.25c-.22-.27-.33-.7-.32-1.3l.03-3.23h-.78v-.39l.78-.11,.1-1.52h.4v1.52h1.48v.5h-1.48v3.23c0,.46,.08,.77,.23,.94,.16,.16,.35,.25,.58,.27l.6,.06v.43h-.61c-.45,0-.79-.13-1.01-.4Z" fill="#231815"/><path d="M56.44,84.17s-.04-.06-.04-.11v-.72c0-.1,.05-.15,.14-.15h.36c.08,0,.12,.05,.12,.15v.72c0,.1-.04,.15-.12,.15h-.36s-.08-.01-.1-.04Zm0,1.06h.53v5.43h-.53v-5.43Z" fill="#231815"/><path d="M58.11,85.23h.39l.14,.98c.26-.33,.53-.58,.81-.76,.28-.18,.6-.27,.95-.27,.19,0,.35,.02,.48,.06v.6c-.21-.04-.38-.06-.52-.06-.34,0-.63,.07-.88,.21-.25,.14-.53,.37-.83,.69v3.99h-.53v-5.43Z" fill="#231815"/><path d="M45.5,91.8h.58l.52,1.77h-.48l-.07-.28h-.53l-.07,.28h-.47l.52-1.77Zm.44,1.07l-.16-.68-.16,.68h.32Z" fill="#231815"/><path d="M47.31,93.46c-.13-.08-.19-.24-.19-.47v-1.18h.46v1.18c0,.06,.02,.11,.07,.14,.04,.03,.11,.05,.19,.05s.15-.02,.19-.05,.07-.08,.07-.14v-1.18h.46v1.18c0,.23-.06,.38-.19,.47-.13,.08-.3,.13-.53,.13s-.4-.04-.53-.13Z" fill="#231815"/><path d="M33.32,98.41c-.2-.1-.36-.29-.47-.57-.11-.28-.17-.68-.17-1.2s.06-.9,.17-1.18c.11-.28,.27-.47,.48-.58,.21-.11,.46-.16,.78-.16,.27,0,.51,.02,.72,.06,.21,.04,.39,.08,.53,.14v.68c-.32-.06-.67-.09-1.05-.09-.19,0-.33,.03-.43,.08-.1,.06-.17,.16-.21,.32-.05,.16-.07,.4-.07,.72,0,.32,.02,.55,.06,.71,.04,.16,.11,.27,.21,.33,.1,.06,.25,.09,.45,.09,.47,0,.82-.02,1.05-.05v.68c-.3,.11-.71,.16-1.25,.16-.32,0-.58-.05-.79-.15Z" fill="#231815"/><path d="M38.19,94.76h1.13l1.19,3.78h-.94l-.2-.69h-1.24l-.19,.69h-.93l1.19-3.78Zm.97,2.3l-.41-1.55-.41,1.55h.82Z" fill="#231815"/><path d="M42.28,94.76h.72l1.49,2.29v-2.29h.91v3.78h-.72l-1.49-2.28v2.28h-.9v-3.78Z" fill="#231815"/><path d="M48.31,94.76h1.13l1.19,3.78h-.94l-.2-.69h-1.24l-.19,.69h-.93l1.19-3.78Zm.97,2.3l-.41-1.55-.41,1.55h.82Z" fill="#231815"/><path d="M52.39,94.76h1.68c.51,0,.87,.17,1.08,.5,.21,.33,.31,.8,.31,1.4,0,.64-.11,1.12-.34,1.43-.23,.31-.58,.46-1.04,.46h-1.68v-3.78Zm1.59,2.99c.21,0,.36-.09,.44-.26,.09-.17,.13-.45,.13-.84,0-.3-.02-.53-.07-.69-.04-.16-.11-.27-.19-.33-.08-.06-.19-.09-.32-.09h-.69v2.2h.69Z" fill="#231815"/><path d="M58.24,94.76h1.13l1.19,3.78h-.94l-.2-.69h-1.24l-.19,.69h-.93l1.19-3.78Zm.97,2.3l-.41-1.55-.41,1.55h.82Z" fill="#231815"/><path d="M33.13,92.62l10.1-.15c.15,0,.28,.12,.28,.27,0,.15-.12,.28-.27,.28h0l-10.1-.15c-.07,0-.12-.06-.12-.12,0-.07,.05-.12,.12-.12Z" fill="#231815"/><path d="M60.2,92.86l-10.02,.15c-.15,0-.28-.12-.28-.27,0-.15,.12-.28,.27-.28h0l10.02,.15c.07,0,.12,.06,.12,.12,0,.07-.05,.12-.12,.12Z" fill="#231815"/><path d="M40.35,107.13c0-.19,.08-.28,.25-.28h.5c.18,0,.27,.09,.27,.26v.9c0,.15,.07,.22,.21,.22h.42c.18,0,.27,.09,.27,.26v.43c0,.18-.09,.27-.26,.27h-.42c-.15,0-.22,.07-.22,.21v1.04c0,.14,.09,.19,.26,.14l.19-.06c.19-.05,.3,0,.33,.18l.07,.4c.04,.18-.04,.3-.23,.39l-.35,.13c-.18,.07-.27,.18-.27,.32v1.87c-.01,.26-.06,.49-.14,.7-.12,.25-.34,.39-.64,.43-.33,.04-.59,.04-.8,0-.19-.05-.3-.18-.33-.39-.04-.15-.06-.3-.08-.45-.04-.19,.04-.26,.21-.2,.23,.06,.44,.07,.61,.04,.1-.05,.15-.19,.16-.42v-1.27c0-.14-.09-.19-.26-.15l-.35,.11c-.18,.04-.29-.04-.35-.21-.06-.15-.11-.29-.15-.44-.08-.22-.02-.35,.16-.4l.75-.18c.14-.04,.21-.12,.21-.26v-1.3c0-.15-.07-.22-.21-.22h-.47c-.18,0-.27-.09-.27-.26v-.43c0-.18,.09-.27,.26-.27h.47c.15,0,.22-.07,.22-.21v-.89Zm2.14,3.62c0-.18,.08-.27,.25-.27h3.76c.18,0,.27,.09,.27,.26,.03,.3,0,.52-.08,.64-.23,.53-.56,1.04-.98,1.55-.12,.14-.1,.27,.08,.38,.36,.21,.8,.39,1.32,.55,.22,.06,.28,.19,.18,.38-.09,.15-.17,.3-.24,.46-.1,.18-.24,.24-.41,.18-.64-.23-1.22-.52-1.71-.89-.14-.11-.3-.1-.47,0-.56,.37-1.23,.67-2,.9-.18,.05-.32-.02-.42-.21l-.18-.35c-.12-.22-.08-.35,.11-.39,.59-.13,1.15-.35,1.69-.67,.18-.11,.19-.25,.04-.43-.31-.4-.56-.8-.76-1.2-.07-.14-.16-.21-.26-.21-.12,0-.18-.09-.18-.26v-.43Zm.35-3.52c0-.19,.08-.28,.25-.28h2.7c.18,0,.27,.09,.27,.26v1.58c0,.28,.1,.37,.31,.25,.04-.08,.05-.21,.04-.38,0-.18,.1-.22,.27-.14l.44,.21c.21,.1,.3,.24,.29,.43-.01,.21-.08,.42-.21,.65-.15,.18-.33,.26-.52,.25-.54,.08-.98,.01-1.34-.19-.16-.16-.25-.4-.26-.72v-1c0-.15-.07-.22-.21-.22h-.87c-.15,0-.22,.07-.22,.21,0,.54-.08,1.02-.24,1.42-.1,.2-.21,.38-.33,.53-.18,.21-.35,.24-.49,.11l-.35-.32c-.15-.15-.13-.31,.06-.48,.25-.28,.39-.61,.4-.98v-1.2Zm2.5,4.44c.09-.15,.06-.22-.09-.22h-1.13c-.15,0-.16,.09-.05,.28,.12,.19,.27,.37,.44,.56,.13,.13,.28,.11,.44-.07,.14-.15,.27-.34,.4-.55Z" fill="#231815"/><path d="M53.42,107.01c.08-.18,.2-.24,.37-.2l.38,.11c.19,.05,.27,.12,.24,.19-.02,.08,.04,.12,.18,.12h3.29c.18,0,.27,.09,.27,.26,.04,.28,0,.47-.1,.59-.11,.18-.23,.35-.36,.53-.16,.18-.33,.21-.5,.1-.06-.03-.12-.07-.18-.11-.18-.12-.22-.23-.14-.35,.06-.12,.02-.18-.12-.18h-.56c-.14,0-.23,.03-.25,.1-.02,.07,.02,.18,.13,.32,.52,.43,1.14,.7,1.87,.83,.23,.05,.3,.16,.2,.33l-.2,.39c-.1,.19-.23,.27-.38,.22-.18-.05-.27,0-.27,.14v3.22c0,.18-.09,.27-.26,.27h-.74c-.13,0-.12,.02,.04,.07l1.6,.22c.19,.02,.23,.14,.11,.34l-.1,.18c-.12,.21-.27,.3-.46,.27-.74-.11-1.52-.28-2.34-.51-.2-.06-.23-.16-.1-.31,.17-.18,.18-.26,.04-.26h-1.96c-.14,0-.13,.09,.02,.26,.18,.19,.17,.32,0,.38-.7,.2-1.49,.35-2.35,.45-.18,.02-.31-.06-.4-.24l-.12-.28c-.09-.19-.05-.29,.12-.3,.6-.05,1.18-.12,1.74-.21,.14-.04,.15-.06,.02-.06h-.9c-.18,0-.27-.09-.27-.26v-3.26c0-.15-.06-.19-.19-.14-.15,.05-.27-.03-.36-.22l-.15-.35c-.09-.22-.05-.35,.14-.4,.57-.16,1.12-.35,1.63-.55,.19-.08,.31,0,.38,.2l.07,.26c.05,.18,0,.31-.18,.41l-.54,.25c-.17,.09-.17,.13,0,.13h.98c.15,0,.17-.09,.07-.27l-.08-.16c-.09-.17-.05-.28,.13-.33,.8-.16,1.42-.46,1.85-.88,.11-.16,.1-.24-.04-.24h-.51c-.14,0-.27,.09-.38,.26l-.19,.26c-.2,.22-.39,.24-.56,.06l-.17-.17c-.18-.18-.19-.35-.04-.53,.23-.28,.42-.6,.59-.95Zm-3.04,.43c0-.19,.08-.28,.25-.28h1.63c.18,0,.27,.09,.27,.26v.37c0,.18-.09,.27-.26,.27h-1.61c-.18,0-.27-.09-.27-.26v-.36Zm5.87,3.49c0-.1-.07-.15-.21-.15h-3.81c-.15,0-.22,.04-.22,.13,0,.1,.07,.15,.21,.15h3.81c.15,0,.22-.04,.22-.13Zm0,1c0-.09-.08-.14-.22-.14h-3.81c-.15,0-.22,.04-.22,.12,0,.09,.07,.14,.21,.14h3.81c.14,0,.22-.04,.23-.12Zm0,.99c0-.09-.07-.14-.2-.14h-3.81c-.15,0-.22,.04-.22,.12,0,.09,.07,.13,.21,.13h3.81c.15,0,.22-.04,.22-.11Zm-.65-3.78c-.13-.15-.28-.15-.45,0-.47,.33-.95,.57-1.44,.69-.11,.06-.11,.1,.02,.1h2.7c.18,0,.2-.04,.04-.13-.3-.14-.59-.36-.87-.66Z" fill="#231815"/><path d="M62.15,107.13c0-.19,.08-.28,.25-.28h.5c.18,0,.27,.09,.27,.26v.79c0,.15,.07,.22,.21,.22h1.41c.18,0,.27,.09,.27,.26,0,.04,0,.07,0,.11v1.32c0,1.7-.08,3.03-.23,3.96-.05,.26-.14,.49-.27,.7-.12,.15-.23,.24-.34,.27-.33,.16-.71,.19-1.13,.1-.18-.05-.28-.16-.32-.34l-.11-.59c-.02-.18,.06-.23,.24-.16,.22,.07,.46,.1,.7,.08,.12,0,.21-.08,.27-.25,.11-.53,.16-1.53,.18-3.02v-1.22c0-.15-.07-.22-.21-.22h-.45c-.14,0-.22,.09-.23,.26,0,1.75-.25,3.22-.76,4.41-.16,.34-.33,.63-.51,.88-.18,.21-.36,.23-.54,.05l-.2-.2c-.18-.18-.2-.35-.06-.53,.26-.39,.47-.83,.62-1.32,.26-.93,.41-2.04,.44-3.34,0-.15-.07-.22-.21-.22h-.56c-.18,0-.27-.09-.27-.26v-.47c0-.18,.09-.27,.26-.27h.56c.15,0,.22-.07,.22-.21v-.78Zm3.3,.73c0-.18,.09-.27,.26-.27h2.86c.18,0,.27,.09,.27,.26v6.63c0,.18-.09,.27-.26,.27h-.51c-.18,0-.27-.08-.27-.25s-.07-.26-.21-.26h-.86c-.15,0-.22,.09-.22,.27,0,.19-.09,.28-.26,.28h-.54c-.18,0-.26-.09-.26-.26v-6.66Zm2.36,.98c0-.15-.07-.23-.2-.23h-.87c-.15,0-.22,.07-.22,.21v4.17c0,.15,.07,.22,.21,.22h.86c.15,0,.22-.07,.22-.21v-4.17Z" fill="#231815"/><path d="M73.35,111.05c1.78-.02,3.56-.09,5.35-.21,.18-.01,.31,.07,.41,.25l.12,.22c.1,.18,.05,.27-.14,.29-.9,.06-1.8,.11-2.7,.14-.14,.01-.21,.06-.21,.13,0,.09,.07,.13,.21,.13h2.59c.18,0,.27,.09,.27,.26v.24c0,.18-.09,.27-.26,.27h-2.59c-.15,0-.22,.04-.22,.11,0,.08,.07,.11,.21,.11h3.2c.18,0,.27,.09,.27,.26v.3c0,.18-.09,.27-.26,.27h-3.2c-.15,0-.22,.09-.23,.26,.02,.5-.25,.8-.82,.88-.47,.03-.82,.02-1.05-.02-.18-.02-.28-.12-.31-.3l-.05-.35c-.03-.2,.05-.28,.25-.23,.39,.08,.68,.1,.88,.06,.06-.04,.1-.11,.11-.22,0-.06-.08-.09-.22-.09h-3.01c-.18,0-.27-.09-.27-.26v-.3c0-.18,.09-.27,.26-.27h3.03c.15,0,.22-.04,.22-.11,0-.08-.07-.11-.21-.11h-2.65c-.18,0-.27-.09-.27-.26v-.24c0-.18,.09-.27,.26-.27h2.65c.15,0,.22-.04,.22-.11,0-.08-.09-.12-.26-.11l-2.37,.04c-.18,0-.3-.08-.36-.25-.04-.08-.06-.16-.08-.25-.05-.18,0-.27,.18-.27h1.05Zm2.28-4.24c.19-.09,.39-.07,.59,.08l.08,.06c.17,.13,.24,.21,.2,.24-.04,.03,.04,.08,.21,.15,.93,.35,1.92,.63,2.98,.86,.18,.04,.22,.14,.12,.33l-.18,.33c-.1,.18-.25,.24-.44,.19-.52-.13-1.02-.29-1.49-.47-.14-.05-.21-.02-.21,.07,0,.1-.09,.15-.26,.15h-3.08c-.18,0-.27-.04-.27-.13,0-.09-.09-.1-.26-.04l-1.23,.41c-.18,.05-.32,0-.42-.18l-.18-.34c-.11-.18-.06-.28,.12-.33,1.41-.36,2.66-.82,3.74-1.37Zm-3,2.48c0-.18,.09-.26,.26-.26h5.54c.18,0,.27,.09,.27,.26v1.14c0,.18-.09,.27-.26,.27h-5.54c-.18,0-.27-.09-.27-.26v-1.15Zm5.12,.58c0-.1-.08-.15-.22-.15h-3.74c-.15,0-.22,.05-.22,.14,0,.1,.07,.15,.21,.15h3.75c.15,0,.22-.05,.22-.14Zm-1.93-2.07c-.12-.13-.33-.09-.62,.12l-.08,.04c-.16,.1-.16,.15,.02,.15h1.04c.32,.01,.29-.05-.07-.18-.09-.05-.19-.1-.28-.13Z" fill="#231815"/><path d="M85.99,107.13c0-.19,.08-.28,.25-.28h.56c.18,0,.27,.09,.27,.26v1.45c0,.15,.07,.22,.21,.22h2.8c.18,0,.27,.09,.27,.26v.47c0,.18-.09,.27-.26,.27h-2.52c-.14,0-.18,.09-.13,.26,.15,.44,.33,.88,.55,1.32,.67,1.15,1.47,1.95,2.4,2.37,.18,.09,.22,.22,.12,.4l-.27,.53c-.1,.19-.24,.24-.41,.16-1.04-.56-1.9-1.39-2.57-2.49-.18-.3-.34-.61-.48-.91-.06-.14-.14-.12-.23,.07-.63,1.32-1.67,2.43-3.14,3.31-.18,.1-.34,.04-.47-.18-.08-.12-.16-.23-.22-.35-.12-.18-.09-.32,.09-.42,1.79-1.09,2.82-2.38,3.09-3.86,.01-.14-.05-.21-.19-.21h-2.67c-.18,0-.27-.09-.27-.26v-.47c0-.18,.09-.27,.26-.27h2.74c.15,0,.22-.07,.22-.21v-1.44Z" fill="#231815"/><path d="M71.3,84.18s-.04-.06-.04-.11v-.72c0-.1,.05-.15,.15-.15h.4c.09,0,.13,.05,.13,.15v.72c0,.1-.04,.15-.13,.15h-.4s-.08-.01-.11-.04Zm.01,1.06h.59v5.43h-.59v-5.43Z" fill="#231815"/><path d="M73.31,85.24h.44l.15,.61c.3-.2,.63-.37,.99-.5,.36-.13,.72-.2,1.08-.2,.54,0,.96,.17,1.25,.52,.29,.35,.43,.77,.43,1.27v3.73h-.59v-3.67c0-.38-.11-.69-.34-.94-.23-.25-.53-.37-.91-.37-.36,0-.68,.05-.95,.14-.28,.09-.59,.24-.95,.43v4.41h-.59v-5.43Z" fill="#231815"/><path d="M78.4,85.24h.6l1.85,4.88,1.89-4.88h.6l-2.17,5.43h-.67l-2.11-5.43Z" fill="#231815"/><path d="M84.82,90.47c-.32-.17-.54-.46-.68-.86-.14-.4-.2-.96-.2-1.67,0-.72,.07-1.28,.21-1.68,.14-.4,.38-.68,.7-.84,.32-.16,.77-.24,1.33-.24,.48,0,.86,.05,1.15,.16,.29,.11,.51,.29,.65,.55,.14,.26,.21,.61,.21,1.06,0,.44-.13,.76-.38,.96-.25,.2-.62,.3-1.1,.3h-2.18c0,.52,.06,.93,.15,1.22,.09,.29,.27,.5,.51,.63,.25,.13,.61,.2,1.08,.2h1.79v.36c-.67,.07-1.31,.11-1.92,.11-.57,0-1.01-.09-1.33-.26Zm1.85-2.67c.35,0,.6-.06,.75-.18,.16-.12,.23-.34,.23-.66,0-.34-.05-.6-.14-.79-.1-.19-.25-.32-.46-.4-.21-.08-.5-.12-.88-.12-.44,0-.78,.06-1.01,.19-.23,.13-.4,.34-.5,.65-.1,.31-.15,.75-.15,1.32h2.15Z" fill="#231815"/><path d="M90.31,90.69c-.48-.02-.8-.05-.95-.08v-.36h2.17c.42,0,.73-.06,.94-.18,.21-.12,.31-.36,.31-.74v-.26c0-.28-.09-.49-.27-.64-.18-.15-.46-.22-.82-.22h-.73c-.53,0-.93-.1-1.21-.3-.28-.2-.42-.53-.42-1.01v-.27c0-.5,.15-.87,.44-1.1,.3-.23,.76-.35,1.39-.35,.29,0,.63,.01,1.03,.04,.4,.02,.71,.05,.93,.09v.37h-2.04c-.41,0-.72,.07-.92,.21-.2,.14-.3,.39-.3,.75v.23c0,.33,.1,.55,.29,.67,.19,.11,.49,.17,.88,.17h.74c.48,0,.86,.11,1.14,.34,.27,.23,.41,.55,.41,.97v.35c0,.51-.16,.86-.48,1.06-.32,.2-.78,.3-1.38,.3-.28,0-.66-.01-1.14-.04Z" fill="#231815"/><path d="M95.22,90.26c-.24-.27-.36-.7-.36-1.3l.03-3.23h-.87v-.39l.87-.11,.11-1.52h.45v1.52h1.65v.5h-1.65v3.23c0,.46,.09,.77,.26,.94,.17,.16,.39,.25,.65,.27l.66,.06v.43h-.68c-.5,0-.88-.13-1.12-.4Z" fill="#231815"/><path d="M82.88,91.8h.46v1.77h-.46v-1.77Z" fill="#231815"/><path d="M84.08,91.8h.37l.62,.98v-.98h.46v1.77h-.37l-.62-.98v.98h-.46v-1.77Z" fill="#231815"/><path d="M71.71,98.41c-.2-.1-.35-.29-.46-.57-.11-.28-.16-.68-.16-1.2s.05-.9,.17-1.18c.11-.28,.27-.47,.47-.58,.2-.11,.45-.16,.75-.16,.26,0,.49,.02,.7,.06,.21,.04,.38,.08,.51,.14v.68c-.31-.06-.65-.09-1.02-.09-.18,0-.32,.03-.42,.08-.1,.06-.16,.16-.21,.32-.04,.16-.07,.4-.07,.72,0,.32,.02,.55,.06,.71,.04,.16,.11,.27,.2,.33,.1,.06,.24,.09,.44,.09,.46,0,.8-.02,1.02-.05v.68c-.29,.11-.69,.16-1.22,.16-.31,0-.57-.05-.76-.15Z" fill="#231815"/><path d="M76.26,94.76h1.1l1.15,3.78h-.91l-.19-.69h-1.2l-.19,.69h-.91l1.15-3.78Zm.94,2.3l-.4-1.55-.4,1.55h.79Z" fill="#231815"/><path d="M80.07,94.76h.7l1.45,2.29v-2.29h.88v3.78h-.7l-1.45-2.28v2.28h-.88v-3.78Z" fill="#231815"/><path d="M85.76,94.76h1.1l1.15,3.78h-.91l-.19-.69h-1.2l-.19,.69h-.91l1.15-3.78Zm.94,2.3l-.4-1.55-.4,1.55h.79Z" fill="#231815"/><path d="M89.55,94.76h1.63c.5,0,.84,.17,1.04,.5,.2,.33,.3,.8,.3,1.4,0,.64-.11,1.12-.33,1.43-.22,.31-.56,.46-1.01,.46h-1.63v-3.78Zm1.55,2.99c.2,0,.35-.09,.43-.26,.08-.17,.12-.45,.12-.84,0-.3-.02-.53-.06-.69-.04-.16-.1-.27-.18-.33-.08-.06-.18-.09-.31-.09h-.67v2.2h.67Z" fill="#231815"/><path d="M95.07,94.76h1.1l1.15,3.78h-.91l-.19-.69h-1.2l-.19,.69h-.91l1.15-3.78Zm.94,2.3l-.4-1.55-.4,1.55h.79Z" fill="#231815"/><path d="M65.47,96.93c-.07,0-.12-.05-.12-.12v-11.03c0-.07,.05-.12,.12-.12s.12,.05,.12,.12v11.03c0,.07-.05,.12-.12,.12Z" fill="#231815"/><path d="M71.23,92.62l10.1-.15c.15,0,.28,.12,.28,.27,0,.15-.12,.28-.27,.28h0l-10.1-.15c-.07,0-.12-.06-.12-.12,0-.07,.05-.12,.12-.12Z" fill="#231815"/><path d="M97.13,92.86l-10.02,.15c-.15,0-.28-.12-.28-.27,0-.15,.12-.28,.27-.28h0l10.02,.15c.07,0,.12,.06,.12,.12,0,.07-.05,.12-.12,.12Z" fill="#231815"/><path d="M33.2,84.17s-.04-.06-.04-.11v-.72c0-.1,.05-.15,.14-.15h.36c.08,0,.12,.05,.12,.15v.72c0,.1-.04,.15-.12,.15h-.36s-.08-.01-.1-.04Zm0,1.06h.53v5.43h-.53v-5.43Z" fill="#231815"/><path d="M35.05,85.23h.39l.14,.61c.27-.2,.57-.37,.89-.5,.32-.13,.65-.2,.97-.2,.49,0,.86,.17,1.12,.52,.26,.35,.39,.77,.39,1.27v3.73h-.53v-3.67c0-.38-.1-.69-.31-.94-.2-.25-.48-.37-.82-.37-.32,0-.61,.05-.86,.14-.25,.09-.53,.24-.86,.43v4.41h-.53v-5.43Z" fill="#231815"/><path d="M39.31,85.23h.54l1.67,4.88,1.7-4.88h.54l-1.95,5.43h-.6l-1.9-5.43Z" fill="#231815"/><path d="M44.86,90.46c-.28-.17-.49-.46-.61-.86-.12-.4-.18-.96-.18-1.67,0-.72,.06-1.28,.19-1.68,.13-.4,.34-.68,.63-.84,.29-.16,.69-.24,1.2-.24,.43,0,.77,.05,1.04,.16,.26,.11,.46,.29,.59,.55,.13,.26,.19,.61,.19,1.06s-.11,.76-.34,.96c-.23,.2-.56,.3-.99,.3h-1.96c0,.52,.05,.93,.14,1.22,.09,.29,.24,.5,.46,.63,.22,.13,.55,.2,.98,.2h1.61v.36c-.6,.07-1.18,.11-1.73,.11-.51,0-.91-.09-1.2-.26Zm1.66-2.67c.31,0,.54-.06,.68-.18,.14-.12,.21-.34,.21-.66,0-.34-.04-.6-.13-.79-.09-.19-.22-.32-.41-.4-.19-.08-.45-.12-.79-.12-.4,0-.7,.06-.91,.19-.21,.13-.36,.34-.45,.65-.09,.31-.13,.75-.13,1.32h1.93Z" fill="#231815"/><path d="M49.57,90.68c-.43-.02-.72-.05-.86-.08v-.36h1.95c.38,0,.66-.06,.85-.18,.19-.12,.28-.36,.28-.74v-.26c0-.28-.08-.49-.25-.64-.16-.15-.41-.22-.74-.22h-.66c-.48,0-.84-.1-1.09-.3s-.38-.53-.38-1.01v-.27c0-.5,.13-.87,.4-1.1,.27-.23,.68-.35,1.25-.35,.26,0,.57,.01,.93,.04,.36,.02,.64,.05,.83,.09v.37h-1.83c-.37,0-.65,.07-.83,.21-.18,.14-.27,.39-.27,.75v.23c0,.33,.09,.55,.26,.67,.17,.11,.44,.17,.79,.17h.67c.43,0,.77,.11,1.02,.34,.25,.23,.37,.55,.37,.97v.35c0,.51-.15,.86-.44,1.06-.29,.2-.7,.3-1.24,.3-.25,0-.59-.01-1.02-.04Z" fill="#231815"/><path d="M53.86,90.25c-.22-.27-.33-.7-.32-1.3l.03-3.23h-.78v-.39l.78-.11,.1-1.52h.4v1.52h1.48v.5h-1.48v3.23c0,.46,.08,.77,.23,.94,.16,.16,.35,.25,.58,.27l.6,.06v.43h-.61c-.45,0-.79-.13-1.01-.4Z" fill="#231815"/><path d="M56.44,84.17s-.04-.06-.04-.11v-.72c0-.1,.05-.15,.14-.15h.36c.08,0,.12,.05,.12,.15v.72c0,.1-.04,.15-.12,.15h-.36s-.08-.01-.1-.04Zm0,1.06h.53v5.43h-.53v-5.43Z" fill="#231815"/><path d="M58.11,85.23h.39l.14,.98c.26-.33,.53-.58,.81-.76,.28-.18,.6-.27,.95-.27,.19,0,.35,.02,.48,.06v.6c-.21-.04-.38-.06-.52-.06-.34,0-.63,.07-.88,.21-.25,.14-.53,.37-.83,.69v3.99h-.53v-5.43Z" fill="#231815"/><path d="M45.5,91.8h.58l.52,1.77h-.48l-.07-.28h-.53l-.07,.28h-.47l.52-1.77Zm.44,1.07l-.16-.68-.16,.68h.32Z" fill="#231815"/><path d="M47.31,93.46c-.13-.08-.19-.24-.19-.47v-1.18h.46v1.18c0,.06,.02,.11,.07,.14,.04,.03,.11,.05,.19,.05s.15-.02,.19-.05,.07-.08,.07-.14v-1.18h.46v1.18c0,.23-.06,.38-.19,.47-.13,.08-.3,.13-.53,.13s-.4-.04-.53-.13Z" fill="#231815"/><path d="M33.32,98.41c-.2-.1-.36-.29-.47-.57-.11-.28-.17-.68-.17-1.2s.06-.9,.17-1.18c.11-.28,.27-.47,.48-.58,.21-.11,.46-.16,.78-.16,.27,0,.51,.02,.72,.06,.21,.04,.39,.08,.53,.14v.68c-.32-.06-.67-.09-1.05-.09-.19,0-.33,.03-.43,.08-.1,.06-.17,.16-.21,.32-.05,.16-.07,.4-.07,.72,0,.32,.02,.55,.06,.71,.04,.16,.11,.27,.21,.33,.1,.06,.25,.09,.45,.09,.47,0,.82-.02,1.05-.05v.68c-.3,.11-.71,.16-1.25,.16-.32,0-.58-.05-.79-.15Z" fill="#231815"/><path d="M38.19,94.76h1.13l1.19,3.78h-.94l-.2-.69h-1.24l-.19,.69h-.93l1.19-3.78Zm.97,2.3l-.41-1.55-.41,1.55h.82Z" fill="#231815"/><path d="M42.28,94.76h.72l1.49,2.29v-2.29h.91v3.78h-.72l-1.49-2.28v2.28h-.9v-3.78Z" fill="#231815"/><path d="M48.31,94.76h1.13l1.19,3.78h-.94l-.2-.69h-1.24l-.19,.69h-.93l1.19-3.78Zm.97,2.3l-.41-1.55-.41,1.55h.82Z" fill="#231815"/><path d="M52.39,94.76h1.68c.51,0,.87,.17,1.08,.5,.21,.33,.31,.8,.31,1.4,0,.64-.11,1.12-.34,1.43-.23,.31-.58,.46-1.04,.46h-1.68v-3.78Zm1.59,2.99c.21,0,.36-.09,.44-.26,.09-.17,.13-.45,.13-.84,0-.3-.02-.53-.07-.69-.04-.16-.11-.27-.19-.33-.08-.06-.19-.09-.32-.09h-.69v2.2h.69Z" fill="#231815"/><path d="M58.24,94.76h1.13l1.19,3.78h-.94l-.2-.69h-1.24l-.19,.69h-.93l1.19-3.78Zm.97,2.3l-.41-1.55-.41,1.55h.82Z" fill="#231815"/><path d="M33.13,92.62l10.1-.15c.15,0,.28,.12,.28,.27,0,.15-.12,.28-.27,.28h0l-10.1-.15c-.07,0-.12-.06-.12-.12,0-.07,.05-.12,.12-.12Z" fill="#231815"/><path d="M60.2,92.86l-10.02,.15c-.15,0-.28-.12-.28-.27,0-.15,.12-.28,.27-.28h0l10.02,.15c.07,0,.12,.06,.12,.12,0,.07-.05,.12-.12,.12Z" fill="#231815"/><path d="M40.35,107.13c0-.19,.08-.28,.25-.28h.5c.18,0,.27,.09,.27,.26v.9c0,.15,.07,.22,.21,.22h.42c.18,0,.27,.09,.27,.26v.43c0,.18-.09,.27-.26,.27h-.42c-.15,0-.22,.07-.22,.21v1.04c0,.14,.09,.19,.26,.14l.19-.06c.19-.05,.3,0,.33,.18l.07,.4c.04,.18-.04,.3-.23,.39l-.35,.13c-.18,.07-.27,.18-.27,.32v1.87c-.01,.26-.06,.49-.14,.7-.12,.25-.34,.39-.64,.43-.33,.04-.59,.04-.8,0-.19-.05-.3-.18-.33-.39-.04-.15-.06-.3-.08-.45-.04-.19,.04-.26,.21-.2,.23,.06,.44,.07,.61,.04,.1-.05,.15-.19,.16-.42v-1.27c0-.14-.09-.19-.26-.15l-.35,.11c-.18,.04-.29-.04-.35-.21-.06-.15-.11-.29-.15-.44-.08-.22-.02-.35,.16-.4l.75-.18c.14-.04,.21-.12,.21-.26v-1.3c0-.15-.07-.22-.21-.22h-.47c-.18,0-.27-.09-.27-.26v-.43c0-.18,.09-.27,.26-.27h.47c.15,0,.22-.07,.22-.21v-.89Zm2.14,3.62c0-.18,.08-.27,.25-.27h3.76c.18,0,.27,.09,.27,.26,.03,.3,0,.52-.08,.64-.23,.53-.56,1.04-.98,1.55-.12,.14-.1,.27,.08,.38,.36,.21,.8,.39,1.32,.55,.22,.06,.28,.19,.18,.38-.09,.15-.17,.3-.24,.46-.1,.18-.24,.24-.41,.18-.64-.23-1.22-.52-1.71-.89-.14-.11-.3-.1-.47,0-.56,.37-1.23,.67-2,.9-.18,.05-.32-.02-.42-.21l-.18-.35c-.12-.22-.08-.35,.11-.39,.59-.13,1.15-.35,1.69-.67,.18-.11,.19-.25,.04-.43-.31-.4-.56-.8-.76-1.2-.07-.14-.16-.21-.26-.21-.12,0-.18-.09-.18-.26v-.43Zm.35-3.52c0-.19,.08-.28,.25-.28h2.7c.18,0,.27,.09,.27,.26v1.58c0,.28,.1,.37,.31,.25,.04-.08,.05-.21,.04-.38,0-.18,.1-.22,.27-.14l.44,.21c.21,.1,.3,.24,.29,.43-.01,.21-.08,.42-.21,.65-.15,.18-.33,.26-.52,.25-.54,.08-.98,.01-1.34-.19-.16-.16-.25-.4-.26-.72v-1c0-.15-.07-.22-.21-.22h-.87c-.15,0-.22,.07-.22,.21,0,.54-.08,1.02-.24,1.42-.1,.2-.21,.38-.33,.53-.18,.21-.35,.24-.49,.11l-.35-.32c-.15-.15-.13-.31,.06-.48,.25-.28,.39-.61,.4-.98v-1.2Zm2.5,4.44c.09-.15,.06-.22-.09-.22h-1.13c-.15,0-.16,.09-.05,.28,.12,.19,.27,.37,.44,.56,.13,.13,.28,.11,.44-.07,.14-.15,.27-.34,.4-.55Z" fill="#231815"/><path d="M53.42,107.01c.08-.18,.2-.24,.37-.2l.38,.11c.19,.05,.27,.12,.24,.19-.02,.08,.04,.12,.18,.12h3.29c.18,0,.27,.09,.27,.26,.04,.28,0,.47-.1,.59-.11,.18-.23,.35-.36,.53-.16,.18-.33,.21-.5,.1-.06-.03-.12-.07-.18-.11-.18-.12-.22-.23-.14-.35,.06-.12,.02-.18-.12-.18h-.56c-.14,0-.23,.03-.25,.1-.02,.07,.02,.18,.13,.32,.52,.43,1.14,.7,1.87,.83,.23,.05,.3,.16,.2,.33l-.2,.39c-.1,.19-.23,.27-.38,.22-.18-.05-.27,0-.27,.14v3.22c0,.18-.09,.27-.26,.27h-.74c-.13,0-.12,.02,.04,.07l1.6,.22c.19,.02,.23,.14,.11,.34l-.1,.18c-.12,.21-.27,.3-.46,.27-.74-.11-1.52-.28-2.34-.51-.2-.06-.23-.16-.1-.31,.17-.18,.18-.26,.04-.26h-1.96c-.14,0-.13,.09,.02,.26,.18,.19,.17,.32,0,.38-.7,.2-1.49,.35-2.35,.45-.18,.02-.31-.06-.4-.24l-.12-.28c-.09-.19-.05-.29,.12-.3,.6-.05,1.18-.12,1.74-.21,.14-.04,.15-.06,.02-.06h-.9c-.18,0-.27-.09-.27-.26v-3.26c0-.15-.06-.19-.19-.14-.15,.05-.27-.03-.36-.22l-.15-.35c-.09-.22-.05-.35,.14-.4,.57-.16,1.12-.35,1.63-.55,.19-.08,.31,0,.38,.2l.07,.26c.05,.18,0,.31-.18,.41l-.54,.25c-.17,.09-.17,.13,0,.13h.98c.15,0,.17-.09,.07-.27l-.08-.16c-.09-.17-.05-.28,.13-.33,.8-.16,1.42-.46,1.85-.88,.11-.16,.1-.24-.04-.24h-.51c-.14,0-.27,.09-.38,.26l-.19,.26c-.2,.22-.39,.24-.56,.06l-.17-.17c-.18-.18-.19-.35-.04-.53,.23-.28,.42-.6,.59-.95Zm-3.04,.43c0-.19,.08-.28,.25-.28h1.63c.18,0,.27,.09,.27,.26v.37c0,.18-.09,.27-.26,.27h-1.61c-.18,0-.27-.09-.27-.26v-.36Zm5.87,3.49c0-.1-.07-.15-.21-.15h-3.81c-.15,0-.22,.04-.22,.13,0,.1,.07,.15,.21,.15h3.81c.15,0,.22-.04,.22-.13Zm0,1c0-.09-.08-.14-.22-.14h-3.81c-.15,0-.22,.04-.22,.12,0,.09,.07,.14,.21,.14h3.81c.14,0,.22-.04,.23-.12Zm0,.99c0-.09-.07-.14-.2-.14h-3.81c-.15,0-.22,.04-.22,.12,0,.09,.07,.13,.21,.13h3.81c.15,0,.22-.04,.22-.11Zm-.65-3.78c-.13-.15-.28-.15-.45,0-.47,.33-.95,.57-1.44,.69-.11,.06-.11,.1,.02,.1h2.7c.18,0,.2-.04,.04-.13-.3-.14-.59-.36-.87-.66Z" fill="#231815"/><path d="M62.15,107.13c0-.19,.08-.28,.25-.28h.5c.18,0,.27,.09,.27,.26v.79c0,.15,.07,.22,.21,.22h1.41c.18,0,.27,.09,.27,.26,0,.04,0,.07,0,.11v1.32c0,1.7-.08,3.03-.23,3.96-.05,.26-.14,.49-.27,.7-.12,.15-.23,.24-.34,.27-.33,.16-.71,.19-1.13,.1-.18-.05-.28-.16-.32-.34l-.11-.59c-.02-.18,.06-.23,.24-.16,.22,.07,.46,.1,.7,.08,.12,0,.21-.08,.27-.25,.11-.53,.16-1.53,.18-3.02v-1.22c0-.15-.07-.22-.21-.22h-.45c-.14,0-.22,.09-.23,.26,0,1.75-.25,3.22-.76,4.41-.16,.34-.33,.63-.51,.88-.18,.21-.36,.23-.54,.05l-.2-.2c-.18-.18-.2-.35-.06-.53,.26-.39,.47-.83,.62-1.32,.26-.93,.41-2.04,.44-3.34,0-.15-.07-.22-.21-.22h-.56c-.18,0-.27-.09-.27-.26v-.47c0-.18,.09-.27,.26-.27h.56c.15,0,.22-.07,.22-.21v-.78Zm3.3,.73c0-.18,.09-.27,.26-.27h2.86c.18,0,.27,.09,.27,.26v6.63c0,.18-.09,.27-.26,.27h-.51c-.18,0-.27-.08-.27-.25s-.07-.26-.21-.26h-.86c-.15,0-.22,.09-.22,.27,0,.19-.09,.28-.26,.28h-.54c-.18,0-.26-.09-.26-.26v-6.66Zm2.36,.98c0-.15-.07-.23-.2-.23h-.87c-.15,0-.22,.07-.22,.21v4.17c0,.15,.07,.22,.21,.22h.86c.15,0,.22-.07,.22-.21v-4.17Z" fill="#231815"/><path d="M73.35,111.05c1.78-.02,3.56-.09,5.35-.21,.18-.01,.31,.07,.41,.25l.12,.22c.1,.18,.05,.27-.14,.29-.9,.06-1.8,.11-2.7,.14-.14,.01-.21,.06-.21,.13,0,.09,.07,.13,.21,.13h2.59c.18,0,.27,.09,.27,.26v.24c0,.18-.09,.27-.26,.27h-2.59c-.15,0-.22,.04-.22,.11,0,.08,.07,.11,.21,.11h3.2c.18,0,.27,.09,.27,.26v.3c0,.18-.09,.27-.26,.27h-3.2c-.15,0-.22,.09-.23,.26,.02,.5-.25,.8-.82,.88-.47,.03-.82,.02-1.05-.02-.18-.02-.28-.12-.31-.3l-.05-.35c-.03-.2,.05-.28,.25-.23,.39,.08,.68,.1,.88,.06,.06-.04,.1-.11,.11-.22,0-.06-.08-.09-.22-.09h-3.01c-.18,0-.27-.09-.27-.26v-.3c0-.18,.09-.27,.26-.27h3.03c.15,0,.22-.04,.22-.11,0-.08-.07-.11-.21-.11h-2.65c-.18,0-.27-.09-.27-.26v-.24c0-.18,.09-.27,.26-.27h2.65c.15,0,.22-.04,.22-.11,0-.08-.09-.12-.26-.11l-2.37,.04c-.18,0-.3-.08-.36-.25-.04-.08-.06-.16-.08-.25-.05-.18,0-.27,.18-.27h1.05Zm2.28-4.24c.19-.09,.39-.07,.59,.08l.08,.06c.17,.13,.24,.21,.2,.24-.04,.03,.04,.08,.21,.15,.93,.35,1.92,.63,2.98,.86,.18,.04,.22,.14,.12,.33l-.18,.33c-.1,.18-.25,.24-.44,.19-.52-.13-1.02-.29-1.49-.47-.14-.05-.21-.02-.21,.07,0,.1-.09,.15-.26,.15h-3.08c-.18,0-.27-.04-.27-.13,0-.09-.09-.1-.26-.04l-1.23,.41c-.18,.05-.32,0-.42-.18l-.18-.34c-.11-.18-.06-.28,.12-.33,1.41-.36,2.66-.82,3.74-1.37Zm-3,2.48c0-.18,.09-.26,.26-.26h5.54c.18,0,.27,.09,.27,.26v1.14c0,.18-.09,.27-.26,.27h-5.54c-.18,0-.27-.09-.27-.26v-1.15Zm5.12,.58c0-.1-.08-.15-.22-.15h-3.74c-.15,0-.22,.05-.22,.14,0,.1,.07,.15,.21,.15h3.75c.15,0,.22-.05,.22-.14Zm-1.93-2.07c-.12-.13-.33-.09-.62,.12l-.08,.04c-.16,.1-.16,.15,.02,.15h1.04c.32,.01,.29-.05-.07-.18-.09-.05-.19-.1-.28-.13Z" fill="#231815"/><path d="M85.99,107.13c0-.19,.08-.28,.25-.28h.56c.18,0,.27,.09,.27,.26v1.45c0,.15,.07,.22,.21,.22h2.8c.18,0,.27,.09,.27,.26v.47c0,.18-.09,.27-.26,.27h-2.52c-.14,0-.18,.09-.13,.26,.15,.44,.33,.88,.55,1.32,.67,1.15,1.47,1.95,2.4,2.37,.18,.09,.22,.22,.12,.4l-.27,.53c-.1,.19-.24,.24-.41,.16-1.04-.56-1.9-1.39-2.57-2.49-.18-.3-.34-.61-.48-.91-.06-.14-.14-.12-.23,.07-.63,1.32-1.67,2.43-3.14,3.31-.18,.1-.34,.04-.47-.18-.08-.12-.16-.23-.22-.35-.12-.18-.09-.32,.09-.42,1.79-1.09,2.82-2.38,3.09-3.86,.01-.14-.05-.21-.19-.21h-2.67c-.18,0-.27-.09-.27-.26v-.47c0-.18,.09-.27,.26-.27h2.74c.15,0,.22-.07,.22-.21v-1.44Z" fill="#231815"/><path d="M71.3,84.18s-.04-.06-.04-.11v-.72c0-.1,.05-.15,.15-.15h.4c.09,0,.13,.05,.13,.15v.72c0,.1-.04,.15-.13,.15h-.4s-.08-.01-.11-.04Zm.01,1.06h.59v5.43h-.59v-5.43Z" fill="#231815"/><path d="M73.31,85.24h.44l.15,.61c.3-.2,.63-.37,.99-.5,.36-.13,.72-.2,1.08-.2,.54,0,.96,.17,1.25,.52,.29,.35,.43,.77,.43,1.27v3.73h-.59v-3.67c0-.38-.11-.69-.34-.94-.23-.25-.53-.37-.91-.37-.36,0-.68,.05-.95,.14-.28,.09-.59,.24-.95,.43v4.41h-.59v-5.43Z" fill="#231815"/><path d="M78.4,85.24h.6l1.85,4.88,1.89-4.88h.6l-2.17,5.43h-.67l-2.11-5.43Z" fill="#231815"/><path d="M84.82,90.47c-.32-.17-.54-.46-.68-.86-.14-.4-.2-.96-.2-1.67,0-.72,.07-1.28,.21-1.68,.14-.4,.38-.68,.7-.84,.32-.16,.77-.24,1.33-.24,.48,0,.86,.05,1.15,.16,.29,.11,.51,.29,.65,.55,.14,.26,.21,.61,.21,1.06,0,.44-.13,.76-.38,.96-.25,.2-.62,.3-1.1,.3h-2.18c0,.52,.06,.93,.15,1.22,.09,.29,.27,.5,.51,.63,.25,.13,.61,.2,1.08,.2h1.79v.36c-.67,.07-1.31,.11-1.92,.11-.57,0-1.01-.09-1.33-.26Zm1.85-2.67c.35,0,.6-.06,.75-.18,.16-.12,.23-.34,.23-.66,0-.34-.05-.6-.14-.79-.1-.19-.25-.32-.46-.4-.21-.08-.5-.12-.88-.12-.44,0-.78,.06-1.01,.19-.23,.13-.4,.34-.5,.65-.1,.31-.15,.75-.15,1.32h2.15Z" fill="#231815"/><path d="M90.31,90.69c-.48-.02-.8-.05-.95-.08v-.36h2.17c.42,0,.73-.06,.94-.18,.21-.12,.31-.36,.31-.74v-.26c0-.28-.09-.49-.27-.64-.18-.15-.46-.22-.82-.22h-.73c-.53,0-.93-.1-1.21-.3-.28-.2-.42-.53-.42-1.01v-.27c0-.5,.15-.87,.44-1.1,.3-.23,.76-.35,1.39-.35,.29,0,.63,.01,1.03,.04,.4,.02,.71,.05,.93,.09v.37h-2.04c-.41,0-.72,.07-.92,.21-.2,.14-.3,.39-.3,.75v.23c0,.33,.1,.55,.29,.67,.19,.11,.49,.17,.88,.17h.74c.48,0,.86,.11,1.14,.34,.27,.23,.41,.55,.41,.97v.35c0,.51-.16,.86-.48,1.06-.32,.2-.78,.3-1.38,.3-.28,0-.66-.01-1.14-.04Z" fill="#231815"/><path d="M95.22,90.26c-.24-.27-.36-.7-.36-1.3l.03-3.23h-.87v-.39l.87-.11,.11-1.52h.45v1.52h1.65v.5h-1.65v3.23c0,.46,.09,.77,.26,.94,.17,.16,.39,.25,.65,.27l.66,.06v.43h-.68c-.5,0-.88-.13-1.12-.4Z" fill="#231815"/><path d="M82.88,91.8h.46v1.77h-.46v-1.77Z" fill="#231815"/><path d="M84.08,91.8h.37l.62,.98v-.98h.46v1.77h-.37l-.62-.98v.98h-.46v-1.77Z" fill="#231815"/><path d="M71.71,98.41c-.2-.1-.35-.29-.46-.57-.11-.28-.16-.68-.16-1.2s.05-.9,.17-1.18c.11-.28,.27-.47,.47-.58,.2-.11,.45-.16,.75-.16,.26,0,.49,.02,.7,.06,.21,.04,.38,.08,.51,.14v.68c-.31-.06-.65-.09-1.02-.09-.18,0-.32,.03-.42,.08-.1,.06-.16,.16-.21,.32-.04,.16-.07,.4-.07,.72,0,.32,.02,.55,.06,.71,.04,.16,.11,.27,.2,.33,.1,.06,.24,.09,.44,.09,.46,0,.8-.02,1.02-.05v.68c-.29,.11-.69,.16-1.22,.16-.31,0-.57-.05-.76-.15Z" fill="#231815"/><path d="M76.26,94.76h1.1l1.15,3.78h-.91l-.19-.69h-1.2l-.19,.69h-.91l1.15-3.78Zm.94,2.3l-.4-1.55-.4,1.55h.79Z" fill="#231815"/><path d="M80.07,94.76h.7l1.45,2.29v-2.29h.88v3.78h-.7l-1.45-2.28v2.28h-.88v-3.78Z" fill="#231815"/><path d="M85.76,94.76h1.1l1.15,3.78h-.91l-.19-.69h-1.2l-.19,.69h-.91l1.15-3.78Zm.94,2.3l-.4-1.55-.4,1.55h.79Z" fill="#231815"/><path d="M89.55,94.76h1.63c.5,0,.84,.17,1.04,.5,.2,.33,.3,.8,.3,1.4,0,.64-.11,1.12-.33,1.43-.22,.31-.56,.46-1.01,.46h-1.63v-3.78Zm1.55,2.99c.2,0,.35-.09,.43-.26,.08-.17,.12-.45,.12-.84,0-.3-.02-.53-.06-.69-.04-.16-.1-.27-.18-.33-.08-.06-.18-.09-.31-.09h-.67v2.2h.67Z" fill="#231815"/><path d="M95.07,94.76h1.1l1.15,3.78h-.91l-.19-.69h-1.2l-.19,.69h-.91l1.15-3.78Zm.94,2.3l-.4-1.55-.4,1.55h.79Z" fill="#231815"/><path d="M65.47,96.93c-.07,0-.12-.05-.12-.12v-11.03c0-.07,.05-.12,.12-.12s.12,.05,.12,.12v11.03c0,.07-.05,.12-.12,.12Z" fill="#231815"/><path d="M71.23,92.62l10.1-.15c.15,0,.28,.12,.28,.27,0,.15-.12,.28-.27,.28h0l-10.1-.15c-.07,0-.12-.06-.12-.12,0-.07,.05-.12,.12-.12Z" fill="#231815"/><path d="M97.13,92.86l-10.02,.15c-.15,0-.28-.12-.28-.27,0-.15,.12-.28,.27-.28h0l10.02,.15c.07,0,.12,.06,.12,.12,0,.07-.05,.12-.12,.12Z" fill="#231815"/><path d="M33.2,84.17s-.04-.06-.04-.11v-.72c0-.1,.05-.15,.14-.15h.36c.08,0,.12,.05,.12,.15v.72c0,.1-.04,.15-.12,.15h-.36s-.08-.01-.1-.04Zm0,1.06h.53v5.43h-.53v-5.43Z" fill="#231815"/><path d="M35.05,85.23h.39l.14,.61c.27-.2,.57-.37,.89-.5,.32-.13,.65-.2,.97-.2,.49,0,.86,.17,1.12,.52,.26,.35,.39,.77,.39,1.27v3.73h-.53v-3.67c0-.38-.1-.69-.31-.94-.2-.25-.48-.37-.82-.37-.32,0-.61,.05-.86,.14-.25,.09-.53,.24-.86,.43v4.41h-.53v-5.43Z" fill="#231815"/><path d="M39.31,85.23h.54l1.67,4.88,1.7-4.88h.54l-1.95,5.43h-.6l-1.9-5.43Z" fill="#231815"/><path d="M44.86,90.46c-.28-.17-.49-.46-.61-.86-.12-.4-.18-.96-.18-1.67,0-.72,.06-1.28,.19-1.68,.13-.4,.34-.68,.63-.84,.29-.16,.69-.24,1.2-.24,.43,0,.77,.05,1.04,.16,.26,.11,.46,.29,.59,.55,.13,.26,.19,.61,.19,1.06s-.11,.76-.34,.96c-.23,.2-.56,.3-.99,.3h-1.96c0,.52,.05,.93,.14,1.22,.09,.29,.24,.5,.46,.63,.22,.13,.55,.2,.98,.2h1.61v.36c-.6,.07-1.18,.11-1.73,.11-.51,0-.91-.09-1.2-.26Zm1.66-2.67c.31,0,.54-.06,.68-.18,.14-.12,.21-.34,.21-.66,0-.34-.04-.6-.13-.79-.09-.19-.22-.32-.41-.4-.19-.08-.45-.12-.79-.12-.4,0-.7,.06-.91,.19-.21,.13-.36,.34-.45,.65-.09,.31-.13,.75-.13,1.32h1.93Z" fill="#231815"/><path d="M49.57,90.68c-.43-.02-.72-.05-.86-.08v-.36h1.95c.38,0,.66-.06,.85-.18,.19-.12,.28-.36,.28-.74v-.26c0-.28-.08-.49-.25-.64-.16-.15-.41-.22-.74-.22h-.66c-.48,0-.84-.1-1.09-.3s-.38-.53-.38-1.01v-.27c0-.5,.13-.87,.4-1.1,.27-.23,.68-.35,1.25-.35,.26,0,.57,.01,.93,.04,.36,.02,.64,.05,.83,.09v.37h-1.83c-.37,0-.65,.07-.83,.21-.18,.14-.27,.39-.27,.75v.23c0,.33,.09,.55,.26,.67,.17,.11,.44,.17,.79,.17h.67c.43,0,.77,.11,1.02,.34,.25,.23,.37,.55,.37,.97v.35c0,.51-.15,.86-.44,1.06-.29,.2-.7,.3-1.24,.3-.25,0-.59-.01-1.02-.04Z" fill="#231815"/><path d="M53.86,90.25c-.22-.27-.33-.7-.32-1.3l.03-3.23h-.78v-.39l.78-.11,.1-1.52h.4v1.52h1.48v.5h-1.48v3.23c0,.46,.08,.77,.23,.94,.16,.16,.35,.25,.58,.27l.6,.06v.43h-.61c-.45,0-.79-.13-1.01-.4Z" fill="#231815"/><path d="M56.44,84.17s-.04-.06-.04-.11v-.72c0-.1,.05-.15,.14-.15h.36c.08,0,.12,.05,.12,.15v.72c0,.1-.04,.15-.12,.15h-.36s-.08-.01-.1-.04Zm0,1.06h.53v5.43h-.53v-5.43Z" fill="#231815"/><path d="M58.11,85.23h.39l.14,.98c.26-.33,.53-.58,.81-.76,.28-.18,.6-.27,.95-.27,.19,0,.35,.02,.48,.06v.6c-.21-.04-.38-.06-.52-.06-.34,0-.63,.07-.88,.21-.25,.14-.53,.37-.83,.69v3.99h-.53v-5.43Z" fill="#231815"/><path d="M45.5,91.8h.58l.52,1.77h-.48l-.07-.28h-.53l-.07,.28h-.47l.52-1.77Zm.44,1.07l-.16-.68-.16,.68h.32Z" fill="#231815"/><path d="M47.31,93.46c-.13-.08-.19-.24-.19-.47v-1.18h.46v1.18c0,.06,.02,.11,.07,.14,.04,.03,.11,.05,.19,.05s.15-.02,.19-.05,.07-.08,.07-.14v-1.18h.46v1.18c0,.23-.06,.38-.19,.47-.13,.08-.3,.13-.53,.13s-.4-.04-.53-.13Z" fill="#231815"/><path d="M33.32,98.41c-.2-.1-.36-.29-.47-.57-.11-.28-.17-.68-.17-1.2s.06-.9,.17-1.18c.11-.28,.27-.47,.48-.58,.21-.11,.46-.16,.78-.16,.27,0,.51,.02,.72,.06,.21,.04,.39,.08,.53,.14v.68c-.32-.06-.67-.09-1.05-.09-.19,0-.33,.03-.43,.08-.1,.06-.17,.16-.21,.32-.05,.16-.07,.4-.07,.72,0,.32,.02,.55,.06,.71,.04,.16,.11,.27,.21,.33,.1,.06,.25,.09,.45,.09,.47,0,.82-.02,1.05-.05v.68c-.3,.11-.71,.16-1.25,.16-.32,0-.58-.05-.79-.15Z" fill="#231815"/><path d="M38.19,94.76h1.13l1.19,3.78h-.94l-.2-.69h-1.24l-.19,.69h-.93l1.19-3.78Zm.97,2.3l-.41-1.55-.41,1.55h.82Z" fill="#231815"/><path d="M42.28,94.76h.72l1.49,2.29v-2.29h.91v3.78h-.72l-1.49-2.28v2.28h-.9v-3.78Z" fill="#231815"/><path d="M48.31,94.76h1.13l1.19,3.78h-.94l-.2-.69h-1.24l-.19,.69h-.93l1.19-3.78Zm.97,2.3l-.41-1.55-.41,1.55h.82Z" fill="#231815"/><path d="M52.39,94.76h1.68c.51,0,.87,.17,1.08,.5,.21,.33,.31,.8,.31,1.4,0,.64-.11,1.12-.34,1.43-.23,.31-.58,.46-1.04,.46h-1.68v-3.78Zm1.59,2.99c.21,0,.36-.09,.44-.26,.09-.17,.13-.45,.13-.84,0-.3-.02-.53-.07-.69-.04-.16-.11-.27-.19-.33-.08-.06-.19-.09-.32-.09h-.69v2.2h.69Z" fill="#231815"/><path d="M58.24,94.76h1.13l1.19,3.78h-.94l-.2-.69h-1.24l-.19,.69h-.93l1.19-3.78Zm.97,2.3l-.41-1.55-.41,1.55h.82Z" fill="#231815"/><path d="M33.13,92.62l10.1-.15c.15,0,.28,.12,.28,.27,0,.15-.12,.28-.27,.28h0l-10.1-.15c-.07,0-.12-.06-.12-.12,0-.07,.05-.12,.12-.12Z" fill="#231815"/><path d="M60.2,92.86l-10.02,.15c-.15,0-.28-.12-.28-.27,0-.15,.12-.28,.27-.28h0l10.02,.15c.07,0,.12,.06,.12,.12,0,.07-.05,.12-.12,.12Z" fill="#231815"/><path d="M40.35,107.13c0-.19,.08-.28,.25-.28h.5c.18,0,.27,.09,.27,.26v.9c0,.15,.07,.22,.21,.22h.42c.18,0,.27,.09,.27,.26v.43c0,.18-.09,.27-.26,.27h-.42c-.15,0-.22,.07-.22,.21v1.04c0,.14,.09,.19,.26,.14l.19-.06c.19-.05,.3,0,.33,.18l.07,.4c.04,.18-.04,.3-.23,.39l-.35,.13c-.18,.07-.27,.18-.27,.32v1.87c-.01,.26-.06,.49-.14,.7-.12,.25-.34,.39-.64,.43-.33,.04-.59,.04-.8,0-.19-.05-.3-.18-.33-.39-.04-.15-.06-.3-.08-.45-.04-.19,.04-.26,.21-.2,.23,.06,.44,.07,.61,.04,.1-.05,.15-.19,.16-.42v-1.27c0-.14-.09-.19-.26-.15l-.35,.11c-.18,.04-.29-.04-.35-.21-.06-.15-.11-.29-.15-.44-.08-.22-.02-.35,.16-.4l.75-.18c.14-.04,.21-.12,.21-.26v-1.3c0-.15-.07-.22-.21-.22h-.47c-.18,0-.27-.09-.27-.26v-.43c0-.18,.09-.27,.26-.27h.47c.15,0,.22-.07,.22-.21v-.89Zm2.14,3.62c0-.18,.08-.27,.25-.27h3.76c.18,0,.27,.09,.27,.26,.03,.3,0,.52-.08,.64-.23,.53-.56,1.04-.98,1.55-.12,.14-.1,.27,.08,.38,.36,.21,.8,.39,1.32,.55,.22,.06,.28,.19,.18,.38-.09,.15-.17,.3-.24,.46-.1,.18-.24,.24-.41,.18-.64-.23-1.22-.52-1.71-.89-.14-.11-.3-.1-.47,0-.56,.37-1.23,.67-2,.9-.18,.05-.32-.02-.42-.21l-.18-.35c-.12-.22-.08-.35,.11-.39,.59-.13,1.15-.35,1.69-.67,.18-.11,.19-.25,.04-.43-.31-.4-.56-.8-.76-1.2-.07-.14-.16-.21-.26-.21-.12,0-.18-.09-.18-.26v-.43Zm.35-3.52c0-.19,.08-.28,.25-.28h2.7c.18,0,.27,.09,.27,.26v1.58c0,.28,.1,.37,.31,.25,.04-.08,.05-.21,.04-.38,0-.18,.1-.22,.27-.14l.44,.21c.21,.1,.3,.24,.29,.43-.01,.21-.08,.42-.21,.65-.15,.18-.33,.26-.52,.25-.54,.08-.98,.01-1.34-.19-.16-.16-.25-.4-.26-.72v-1c0-.15-.07-.22-.21-.22h-.87c-.15,0-.22,.07-.22,.21,0,.54-.08,1.02-.24,1.42-.1,.2-.21,.38-.33,.53-.18,.21-.35,.24-.49,.11l-.35-.32c-.15-.15-.13-.31,.06-.48,.25-.28,.39-.61,.4-.98v-1.2Zm2.5,4.44c.09-.15,.06-.22-.09-.22h-1.13c-.15,0-.16,.09-.05,.28,.12,.19,.27,.37,.44,.56,.13,.13,.28,.11,.44-.07,.14-.15,.27-.34,.4-.55Z" fill="#231815"/><path d="M53.42,107.01c.08-.18,.2-.24,.37-.2l.38,.11c.19,.05,.27,.12,.24,.19-.02,.08,.04,.12,.18,.12h3.29c.18,0,.27,.09,.27,.26,.04,.28,0,.47-.1,.59-.11,.18-.23,.35-.36,.53-.16,.18-.33,.21-.5,.1-.06-.03-.12-.07-.18-.11-.18-.12-.22-.23-.14-.35,.06-.12,.02-.18-.12-.18h-.56c-.14,0-.23,.03-.25,.1-.02,.07,.02,.18,.13,.32,.52,.43,1.14,.7,1.87,.83,.23,.05,.3,.16,.2,.33l-.2,.39c-.1,.19-.23,.27-.38,.22-.18-.05-.27,0-.27,.14v3.22c0,.18-.09,.27-.26,.27h-.74c-.13,0-.12,.02,.04,.07l1.6,.22c.19,.02,.23,.14,.11,.34l-.1,.18c-.12,.21-.27,.3-.46,.27-.74-.11-1.52-.28-2.34-.51-.2-.06-.23-.16-.1-.31,.17-.18,.18-.26,.04-.26h-1.96c-.14,0-.13,.09,.02,.26,.18,.19,.17,.32,0,.38-.7,.2-1.49,.35-2.35,.45-.18,.02-.31-.06-.4-.24l-.12-.28c-.09-.19-.05-.29,.12-.3,.6-.05,1.18-.12,1.74-.21,.14-.04,.15-.06,.02-.06h-.9c-.18,0-.27-.09-.27-.26v-3.26c0-.15-.06-.19-.19-.14-.15,.05-.27-.03-.36-.22l-.15-.35c-.09-.22-.05-.35,.14-.4,.57-.16,1.12-.35,1.63-.55,.19-.08,.31,0,.38,.2l.07,.26c.05,.18,0,.31-.18,.41l-.54,.25c-.17,.09-.17,.13,0,.13h.98c.15,0,.17-.09,.07-.27l-.08-.16c-.09-.17-.05-.28,.13-.33,.8-.16,1.42-.46,1.85-.88,.11-.16,.1-.24-.04-.24h-.51c-.14,0-.27,.09-.38,.26l-.19,.26c-.2,.22-.39,.24-.56,.06l-.17-.17c-.18-.18-.19-.35-.04-.53,.23-.28,.42-.6,.59-.95Zm-3.04,.43c0-.19,.08-.28,.25-.28h1.63c.18,0,.27,.09,.27,.26v.37c0,.18-.09,.27-.26,.27h-1.61c-.18,0-.27-.09-.27-.26v-.36Zm5.87,3.49c0-.1-.07-.15-.21-.15h-3.81c-.15,0-.22,.04-.22,.13,0,.1,.07,.15,.21,.15h3.81c.15,0,.22-.04,.22-.13Zm0,1c0-.09-.08-.14-.22-.14h-3.81c-.15,0-.22,.04-.22,.12,0,.09,.07,.14,.21,.14h3.81c.14,0,.22-.04,.23-.12Zm0,.99c0-.09-.07-.14-.2-.14h-3.81c-.15,0-.22,.04-.22,.12,0,.09,.07,.13,.21,.13h3.81c.15,0,.22-.04,.22-.11Zm-.65-3.78c-.13-.15-.28-.15-.45,0-.47,.33-.95,.57-1.44,.69-.11,.06-.11,.1,.02,.1h2.7c.18,0,.2-.04,.04-.13-.3-.14-.59-.36-.87-.66Z" fill="#231815"/><path d="M62.15,107.13c0-.19,.08-.28,.25-.28h.5c.18,0,.27,.09,.27,.26v.79c0,.15,.07,.22,.21,.22h1.41c.18,0,.27,.09,.27,.26,0,.04,0,.07,0,.11v1.32c0,1.7-.08,3.03-.23,3.96-.05,.26-.14,.49-.27,.7-.12,.15-.23,.24-.34,.27-.33,.16-.71,.19-1.13,.1-.18-.05-.28-.16-.32-.34l-.11-.59c-.02-.18,.06-.23,.24-.16,.22,.07,.46,.1,.7,.08,.12,0,.21-.08,.27-.25,.11-.53,.16-1.53,.18-3.02v-1.22c0-.15-.07-.22-.21-.22h-.45c-.14,0-.22,.09-.23,.26,0,1.75-.25,3.22-.76,4.41-.16,.34-.33,.63-.51,.88-.18,.21-.36,.23-.54,.05l-.2-.2c-.18-.18-.2-.35-.06-.53,.26-.39,.47-.83,.62-1.32,.26-.93,.41-2.04,.44-3.34,0-.15-.07-.22-.21-.22h-.56c-.18,0-.27-.09-.27-.26v-.47c0-.18,.09-.27,.26-.27h.56c.15,0,.22-.07,.22-.21v-.78Zm3.3,.73c0-.18,.09-.27,.26-.27h2.86c.18,0,.27,.09,.27,.26v6.63c0,.18-.09,.27-.26,.27h-.51c-.18,0-.27-.08-.27-.25s-.07-.26-.21-.26h-.86c-.15,0-.22,.09-.22,.27,0,.19-.09,.28-.26,.28h-.54c-.18,0-.26-.09-.26-.26v-6.66Zm2.36,.98c0-.15-.07-.23-.2-.23h-.87c-.15,0-.22,.07-.22,.21v4.17c0,.15,.07,.22,.21,.22h.86c.15,0,.22-.07,.22-.21v-4.17Z" fill="#231815"/><path d="M73.35,111.05c1.78-.02,3.56-.09,5.35-.21,.18-.01,.31,.07,.41,.25l.12,.22c.1,.18,.05,.27-.14,.29-.9,.06-1.8,.11-2.7,.14-.14,.01-.21,.06-.21,.13,0,.09,.07,.13,.21,.13h2.59c.18,0,.27,.09,.27,.26v.24c0,.18-.09,.27-.26,.27h-2.59c-.15,0-.22,.04-.22,.11,0,.08,.07,.11,.21,.11h3.2c.18,0,.27,.09,.27,.26v.3c0,.18-.09,.27-.26,.27h-3.2c-.15,0-.22,.09-.23,.26,.02,.5-.25,.8-.82,.88-.47,.03-.82,.02-1.05-.02-.18-.02-.28-.12-.31-.3l-.05-.35c-.03-.2,.05-.28,.25-.23,.39,.08,.68,.1,.88,.06,.06-.04,.1-.11,.11-.22,0-.06-.08-.09-.22-.09h-3.01c-.18,0-.27-.09-.27-.26v-.3c0-.18,.09-.27,.26-.27h3.03c.15,0,.22-.04,.22-.11,0-.08-.07-.11-.21-.11h-2.65c-.18,0-.27-.09-.27-.26v-.24c0-.18,.09-.27,.26-.27h2.65c.15,0,.22-.04,.22-.11,0-.08-.09-.12-.26-.11l-2.37,.04c-.18,0-.3-.08-.36-.25-.04-.08-.06-.16-.08-.25-.05-.18,0-.27,.18-.27h1.05Zm2.28-4.24c.19-.09,.39-.07,.59,.08l.08,.06c.17,.13,.24,.21,.2,.24-.04,.03,.04,.08,.21,.15,.93,.35,1.92,.63,2.98,.86,.18,.04,.22,.14,.12,.33l-.18,.33c-.1,.18-.25,.24-.44,.19-.52-.13-1.02-.29-1.49-.47-.14-.05-.21-.02-.21,.07,0,.1-.09,.15-.26,.15h-3.08c-.18,0-.27-.04-.27-.13,0-.09-.09-.1-.26-.04l-1.23,.41c-.18,.05-.32,0-.42-.18l-.18-.34c-.11-.18-.06-.28,.12-.33,1.41-.36,2.66-.82,3.74-1.37Zm-3,2.48c0-.18,.09-.26,.26-.26h5.54c.18,0,.27,.09,.27,.26v1.14c0,.18-.09,.27-.26,.27h-5.54c-.18,0-.27-.09-.27-.26v-1.15Zm5.12,.58c0-.1-.08-.15-.22-.15h-3.74c-.15,0-.22,.05-.22,.14,0,.1,.07,.15,.21,.15h3.75c.15,0,.22-.05,.22-.14Zm-1.93-2.07c-.12-.13-.33-.09-.62,.12l-.08,.04c-.16,.1-.16,.15,.02,.15h1.04c.32,.01,.29-.05-.07-.18-.09-.05-.19-.1-.28-.13Z" fill="#231815"/><path d="M85.99,107.13c0-.19,.08-.28,.25-.28h.56c.18,0,.27,.09,.27,.26v1.45c0,.15,.07,.22,.21,.22h2.8c.18,0,.27,.09,.27,.26v.47c0,.18-.09,.27-.26,.27h-2.52c-.14,0-.18,.09-.13,.26,.15,.44,.33,.88,.55,1.32,.67,1.15,1.47,1.95,2.4,2.37,.18,.09,.22,.22,.12,.4l-.27,.53c-.1,.19-.24,.24-.41,.16-1.04-.56-1.9-1.39-2.57-2.49-.18-.3-.34-.61-.48-.91-.06-.14-.14-.12-.23,.07-.63,1.32-1.67,2.43-3.14,3.31-.18,.1-.34,.04-.47-.18-.08-.12-.16-.23-.22-.35-.12-.18-.09-.32,.09-.42,1.79-1.09,2.82-2.38,3.09-3.86,.01-.14-.05-.21-.19-.21h-2.67c-.18,0-.27-.09-.27-.26v-.47c0-.18,.09-.27,.26-.27h2.74c.15,0,.22-.07,.22-.21v-1.44Z" fill="#231815"/><g><polygon points="67.41 78.74 68.49 72.96 76.06 72.97 65.45 63.94 54.85 72.97 62.42 72.96 63.5 78.74 67.41 78.74" fill="#6c1318"/><polygon points="76.97 69.95 65.45 59.79 53.85 69.93 37.68 64.21 42.87 61.21 38.71 54.01 46.96 53.92 46.94 48.11 59.86 59.14 56.16 39.21 61.35 42.2 65.44 35 69.55 42.2 74.73 39.21 71.03 59.15 83.95 48.11 83.94 53.92 92.17 54.02 88.03 61.21 93.21 64.21 76.97 69.95" fill="#6c1318"/><polygon points="65.44 35 61.35 42.2 65.44 44.57 65.44 35" fill="url(#linear-gradient)"/><polygon points="65.44 35 65.44 44.57 69.55 42.2 65.44 35" fill="url(#linear-gradient-2)"/><polygon points="92.17 54.02 83.94 53.92 83.9 58.8 92.17 54.02" fill="url(#radial-gradient)"/><polygon points="74.73 39.21 69.55 42.2 69.55 42.2 67.82 61.88 71.03 59.15 74.73 39.21" fill="url(#radial-gradient-2)"/><polygon points="69.55 42.2 65.44 44.57 65.45 59.79 67.82 61.88 69.55 42.2" fill="url(#radial-gradient-3)"/><polygon points="56.16 39.21 61.35 42.2 61.35 42.2 63.06 61.87 59.86 59.14 56.16 39.21" fill="url(#radial-gradient-4)"/><polygon points="61.35 42.2 65.44 44.57 65.45 59.79 63.06 61.87 61.35 42.2" fill="url(#radial-gradient-5)"/><polygon points="67.82 61.88 83.95 48.11 83.94 53.92 69.95 63.76 67.82 61.88" fill="url(#radial-gradient-6)"/><polygon points="83.94 53.92 69.95 63.76 72.1 65.66 83.9 58.8 83.94 53.92" fill="url(#radial-gradient-7)"/><polygon points="74.3 67.6 88.03 61.21 93.21 64.2 76.97 69.95 74.3 67.6" fill="url(#radial-gradient-8)"/><polygon points="88.03 61.21 92.17 54.02 83.9 58.8 88.03 61.21" fill="url(#radial-gradient-9)"/><polygon points="38.71 54.01 46.96 53.92 47 58.8 38.71 54.01" fill="url(#radial-gradient-10)"/><polygon points="63.06 61.87 46.94 48.11 46.96 53.92 60.91 63.75 63.06 61.87" fill="url(#radial-gradient-11)"/><polygon points="46.96 53.92 60.91 63.75 58.75 65.64 47 58.8 46.96 53.92" fill="url(#radial-gradient-12)"/><polygon points="58.75 65.64 47 58.8 42.87 61.21 56.53 67.58 58.75 65.64" fill="url(#radial-gradient-13)"/><polygon points="56.53 67.58 42.87 61.21 37.68 64.21 53.85 69.93 56.53 67.58" fill="url(#radial-gradient-14)"/><polygon points="42.87 61.21 38.71 54.01 47 58.8 42.87 61.21" fill="url(#linear-gradient-3)"/><polygon points="57.08 71.06 59.52 69 61.89 70.08 62.42 72.96 57.08 71.06" fill="url(#radial-gradient-15)"/><polygon points="61.39 67.4 59.52 69 61.89 70.08 61.39 67.4" fill="url(#radial-gradient-16)"/><polygon points="63.39 65.7 61.39 67.4 63.5 78.74 64.52 78.74 63.39 65.7" fill="url(#radial-gradient-17)"/><polygon points="63.39 65.7 65.45 63.94 65.46 78.74 64.52 78.74 63.39 65.7" fill="url(#radial-gradient-18)"/><polygon points="62.42 72.96 54.85 72.97 57.08 71.06 62.42 72.96" fill="url(#radial-gradient-19)"/><polygon points="73.84 71.07 71.4 69 69.03 70.08 68.49 72.96 73.84 71.07" fill="url(#radial-gradient-20)"/><polygon points="69.53 67.4 71.4 69 69.03 70.08 69.53 67.4" fill="url(#radial-gradient-21)"/><polygon points="67.53 65.7 69.53 67.4 67.41 78.74 66.4 78.74 67.53 65.7" fill="url(#radial-gradient-22)"/><polygon points="67.53 65.7 65.45 63.94 65.46 78.74 66.4 78.74 67.53 65.7" fill="url(#radial-gradient-23)"/><polygon points="68.49 72.96 76.06 72.97 73.84 71.07 68.49 72.96" fill="url(#radial-gradient-24)"/><polygon points="72.1 65.66 83.9 58.8 88.03 61.21 74.3 67.6 72.1 65.66" fill="url(#radial-gradient-25)"/></g></svg>